<svg width="110" height="98" viewBox="0 0 110 98" fill="none" xmlns="http://www.w3.org/2000/svg">
<path d="M0.00366211 43.3154H9.67C10.484 43.3154 11.0945 43.4179 11.6033 43.5203C12.112 43.7251 12.6208 43.8276 12.926 44.1349C13.2313 44.3397 13.4348 44.647 13.5365 44.9543C13.6383 45.2616 13.74 45.5689 13.74 45.8761V46.081C13.74 46.4907 13.6383 46.798 13.5365 47.1053C13.4348 47.3102 13.2313 47.515 13.0278 47.7199C12.8243 47.9247 12.6208 48.0272 12.4173 48.1296C12.2138 48.232 12.112 48.3344 11.9085 48.3344C12.112 48.3344 12.4173 48.4369 12.6208 48.5393C12.926 48.7442 13.2313 48.8466 13.4348 49.0514C13.74 49.2563 13.9435 49.5636 14.147 49.9733C14.2488 50.2806 14.3505 50.6903 14.3505 51.2024V51.4073C14.3505 51.817 14.3505 52.2267 14.147 52.6364C14.0453 53.0462 13.74 53.3534 13.4348 53.6607C13.0278 53.968 12.6208 54.1729 12.0103 54.3777C11.3998 54.5826 10.5858 54.685 9.67 54.685H0.00366211V43.3154ZM3.56494 45.6713V47.515H9.05949C9.26299 47.515 9.46649 47.515 9.67 47.515C9.77175 47.4126 9.8735 47.4126 9.97525 47.3102C10.077 47.2077 10.1788 47.1053 10.1788 47.0029C10.2805 46.9004 10.2805 46.798 10.2805 46.6956V46.5931C10.2805 46.4907 10.2805 46.3883 10.1788 46.2859C10.1788 46.1834 10.077 46.081 9.97525 45.9786C9.8735 45.8761 9.77175 45.8761 9.67 45.7737C9.46649 45.7737 9.26299 45.6713 9.05949 45.6713H3.56494ZM3.56494 49.9733V52.2267H9.36474C9.56825 52.2267 9.8735 52.1243 10.077 52.1243C10.1788 52.0219 10.3823 51.9194 10.484 51.817C10.5858 51.7146 10.5858 51.6122 10.6875 51.4073C10.6875 51.3049 10.6875 51.2024 10.6875 51.1V50.9976C10.6875 50.8952 10.6875 50.7927 10.6875 50.5879C10.5858 50.4854 10.5858 50.383 10.484 50.2806C10.3823 50.1782 10.1788 50.0757 10.077 50.0757C9.8735 49.9733 9.56825 49.9733 9.36474 49.9733H3.56494ZM19.0311 50.8952V54.685H15.4698V43.3154H23.9151C24.9326 43.3154 25.7466 43.4179 26.4589 43.6227C27.0694 43.8276 27.6799 44.0324 28.0869 44.4421C28.4939 44.7494 28.7992 45.1591 28.9009 45.5689C29.1044 45.9786 29.2062 46.4907 29.2062 47.0029V47.2077C29.2062 47.7199 29.1044 48.1296 28.9009 48.6417C28.6974 49.0514 28.4939 49.4612 28.0869 49.7684C27.6799 50.0757 27.0694 50.383 26.4589 50.5879C25.7466 50.7927 24.9326 50.8952 23.9151 50.8952H19.0311ZM19.0311 48.3344H23.8134C24.4239 48.3344 24.8309 48.232 25.1361 48.0272C25.3396 47.8223 25.5431 47.515 25.5431 47.1053C25.5431 46.6956 25.3396 46.3883 25.1361 46.1834C24.8309 45.9786 24.4239 45.8761 23.8134 45.8761H19.0311V48.3344ZM35.3112 45.7737L33.2762 49.9733H37.5497L35.3112 45.7737ZM38.7708 52.534H32.0552L31.0377 54.685H27.3747L33.0727 43.3154H37.6515L43.6548 54.685H39.89L38.7708 52.534ZM60.5454 43.3154V45.8761H52.4054V47.6174H60.3419V50.1782H52.4054V54.685H48.9458V43.3154H60.5454ZM65.5312 48.1296H70.924C71.4328 48.1296 71.738 48.0272 71.9415 47.8223C72.2468 47.6174 72.3485 47.3102 72.3485 47.0029C72.3485 46.6956 72.2468 46.4907 71.9415 46.1834C71.738 45.9786 71.4328 45.8761 70.924 45.8761H65.5312V48.1296ZM65.5312 54.685H62.0717V43.3154H71.1275C72.0433 43.3154 72.8573 43.4179 73.4678 43.5203C74.0783 43.7251 74.5871 43.93 74.9941 44.2373C75.2993 44.4421 75.6046 44.7494 75.7063 45.1591C75.9098 45.4664 76.0116 45.8761 76.0116 46.2859V46.4907C76.0116 46.9004 75.9098 47.2077 75.8081 47.515C75.6046 47.7199 75.4011 48.0272 75.1976 48.232C74.9941 48.4369 74.7906 48.5393 74.5871 48.6417C74.2818 48.7442 74.0783 48.8466 73.8748 48.949C74.1801 49.0514 74.4853 49.1539 74.6888 49.2563C74.9941 49.3587 75.1976 49.5636 75.4011 49.7684C75.6046 49.9733 75.7063 50.2806 75.9098 50.5879C76.0116 50.7927 76.0116 51.2024 76.0116 51.5097V53.1486C76.0116 53.6607 76.0116 53.968 76.1133 54.1729C76.1133 54.3777 76.2151 54.4802 76.2151 54.5826V54.685H72.6538C72.6538 54.5826 72.552 54.4802 72.552 54.3777C72.552 54.2753 72.4503 54.1729 72.4503 53.968V52.6364C72.4503 51.9194 72.3485 51.4073 71.9415 51.1C71.6363 50.7927 71.0258 50.5879 70.11 50.5879H65.5312V54.685ZM89.2392 43.3154V45.8761H80.8956V47.6174H89.0357V50.1782H80.8956V52.0219H89.4427V54.685H77.4361V43.3154H89.2392ZM102.772 43.3154V45.8761H94.3267V47.6174H102.569V50.1782H94.3267V52.0219H102.874V54.685H90.8672V43.3154H102.772ZM109.081 43.8276L109.996 45.5689L108.063 46.081L109.996 46.6956L109.081 48.3344L107.554 47.1053L108.063 48.8466H105.723L106.232 47.1053L104.807 48.3344L103.79 46.6956L105.723 46.081L103.79 45.5689L104.807 43.8276L106.232 45.0567L105.723 43.3154H108.063L107.554 45.0567L109.081 43.8276Z" fill="#2B2A29"/>
<path d="M26.4588 21.7029L24.6273 23.4442L23.4062 22.1127L28.6973 16.9912L29.9183 18.3228L28.0868 20.0641L32.4621 24.6734L30.8341 26.3122L26.4588 21.7029ZM39.3811 17.1961L38.2619 17.8106L39.2794 19.7568L37.2444 20.7811L33.5813 13.5086L36.8374 11.7674C37.4479 11.4601 38.1601 11.2552 38.6689 11.2552C39.2794 11.2552 39.8899 11.3576 40.2969 11.5625C40.8057 11.8698 41.1109 12.2795 41.4162 12.7916C41.7214 13.4062 41.8232 13.9184 41.7214 14.4305C41.7214 14.9426 41.5179 15.3524 41.2127 15.8645L43.8582 17.2985L41.7214 18.4252L39.3811 17.1961ZM39.3811 13.9184C39.1776 13.5086 38.9741 13.3038 38.6689 13.3038C38.3636 13.2014 37.9566 13.3038 37.5496 13.5086L36.4304 14.0208L37.4479 16.1718L38.6689 15.6596C39.0759 15.3524 39.2794 15.1475 39.4829 14.8402C39.5846 14.5329 39.5846 14.2256 39.3811 13.9184ZM46.3002 8.48963L48.5387 8.07992L49.9632 16.0694L47.7247 16.4791L46.3002 8.48963ZM56.577 9.41149L54.135 9.20663L54.2368 7.36292L61.5628 7.97749L61.3593 9.71878L58.9173 9.61635L58.4086 15.8645L56.17 15.7621L56.577 9.41149ZM69.7029 17.4009L66.5486 16.0694L65.3276 17.4009L63.1908 16.4791L69.4994 10.2309L71.6362 11.0503L71.9414 19.9616L69.7029 19.1422V17.4009ZM69.7029 15.5572V12.6892L67.7696 14.7378L69.7029 15.5572ZM85.9831 21.4981L80.3868 27.4389L79.064 26.1074L79.471 20.4738L76.4185 23.6491L74.7905 22.1127L80.3868 16.1718L81.8113 17.5034L81.4043 23.1369L84.355 19.9616L85.9831 21.4981Z" fill="#2B2A29"/>
<path d="M29.9185 71.176L23.3047 75.8877L22.1854 74.3513L23.7117 68.9225L20.1504 71.3808L18.8276 69.5371L25.4414 64.8254L26.5607 66.3618L25.1362 71.893L28.6975 69.3322L29.9185 71.176ZM29.4097 81.8286C28.7992 81.3164 28.2905 80.7018 27.9852 79.9848C27.68 79.2678 27.5782 78.5508 27.68 77.8338C27.68 77.0144 27.9852 76.3998 28.494 75.6828C29.0027 75.0683 29.6132 74.6585 30.3255 74.3513C31.0377 74.1464 31.75 74.044 32.564 74.1464C33.2763 74.3513 33.9885 74.6585 34.7008 75.1707C35.3113 75.6828 35.82 76.3998 36.1253 77.1168C36.4305 77.8338 36.634 78.5508 36.5323 79.2678C36.4305 79.9848 36.1253 80.7018 35.6165 81.3164C35.1078 82.0334 34.4973 82.4431 33.785 82.7504C33.0728 82.9553 32.3605 83.0577 31.6482 82.8528C30.8342 82.7504 30.122 82.4431 29.4097 81.8286ZM30.6307 80.3945C30.936 80.5994 31.343 80.8043 31.6482 80.8043C32.0553 80.9067 32.4623 80.8043 32.7675 80.7018C33.1745 80.497 33.4798 80.2921 33.785 79.8824C34.0903 79.5751 34.2938 79.1654 34.2938 78.7557C34.3955 78.346 34.3955 77.9363 34.192 77.629C34.0903 77.2193 33.785 76.912 33.4798 76.7071C33.1745 76.3998 32.8693 76.2974 32.4623 76.195C32.0553 76.195 31.6482 76.195 31.343 76.3998C30.936 76.5023 30.6307 76.8095 30.3255 77.1168C30.0202 77.5265 29.9185 77.9363 29.8167 78.346C29.715 78.7557 29.8167 79.063 29.9185 79.4727C30.122 79.78 30.3255 80.0873 30.6307 80.3945ZM46.9109 81.7261L43.8584 89.3058L42.1286 88.5888L40.3988 83.2626L38.7708 87.2573L36.634 86.4378L39.6866 78.8581L41.5181 79.5751L43.1461 84.9014L44.7741 80.9067L46.9109 81.7261ZM53.4229 84.1844H50.9809V82.3407L58.307 82.4431L58.2052 84.2868H55.7632L55.6615 90.6374L53.3212 90.535L53.4229 84.1844ZM65.633 89.4083C64.819 89.6131 64.005 89.6131 63.2928 89.4083C62.4788 89.3058 61.8683 88.8961 61.2578 88.384C60.749 87.8718 60.342 87.2573 60.1385 86.4378C59.935 85.7208 59.935 84.9014 60.1385 84.1844C60.342 83.4674 60.749 82.8528 61.2578 82.3407C61.8683 81.7261 62.5805 81.4188 63.3945 81.1115C64.2085 80.9067 65.0225 80.9067 65.7348 81.1115C66.5488 81.214 67.1593 81.6237 67.6681 82.1358C68.2786 82.648 68.6856 83.2626 68.8891 84.082C69.0926 84.799 69.0926 85.6184 68.8891 86.3354C68.6856 87.0524 68.2786 87.667 67.7698 88.1791C67.1593 88.7937 66.447 89.101 65.633 89.4083ZM65.1243 87.5646C65.5313 87.3597 65.8365 87.2573 66.1418 86.95C66.3453 86.6427 66.5488 86.3354 66.6506 85.9257C66.7523 85.516 66.7523 85.1063 66.6506 84.6966C66.5488 84.1844 66.3453 83.8771 66.04 83.5698C65.7348 83.2626 65.4295 83.0577 65.0225 82.9553C64.7173 82.8528 64.3103 82.8528 63.9033 83.0577C63.4963 83.1601 63.191 83.2626 62.8858 83.5698C62.5805 83.8771 62.4788 84.1844 62.377 84.5941C62.2753 85.0038 62.2753 85.4136 62.377 85.8233C62.4788 86.3354 62.6823 86.6427 62.9875 86.95C63.2928 87.2573 63.598 87.4621 64.005 87.5646C64.3103 87.667 64.7173 87.667 65.1243 87.5646ZM77.7414 83.7747L74.9941 82.4431L74.8924 85.516L72.5521 86.8476L73.0609 81.7261L68.5838 79.6775L70.8223 78.346L73.4679 79.5751L73.6714 76.7071L75.8081 75.478L75.2994 80.2921L80.0817 82.4431L77.7414 83.7747ZM76.8256 74.2488L78.4537 72.61L84.1517 78.5508L82.4219 80.0873L76.8256 74.2488ZM89.6462 72.0978C89.1375 72.7124 88.527 73.2245 87.8147 73.6343C87.1025 73.9415 86.3902 74.044 85.678 74.044C84.9657 73.9415 84.2535 73.6343 83.5412 73.2245C82.9307 72.7124 82.4219 72.0978 82.1167 71.3808C81.9132 70.7662 81.8114 69.9468 81.9132 69.2298C82.0149 68.4104 82.3202 67.6934 82.8289 67.0788C83.2359 66.4642 83.7447 65.9521 84.2535 65.6448C84.864 65.3375 85.4745 65.1327 86.085 65.1327L86.2885 67.0788C85.4745 67.0788 84.864 67.4885 84.3552 68.1031C84.1517 68.4104 83.9482 68.8201 83.9482 69.2298C83.9482 69.6395 83.9482 69.9468 84.1517 70.3565C84.3552 70.6638 84.5587 70.9711 84.9657 71.2784C85.271 71.5857 85.678 71.6881 86.085 71.7905C86.492 71.7905 86.899 71.7905 87.2042 71.5857C87.6112 71.4832 87.9165 71.176 88.12 70.8687C88.6287 70.2541 88.7305 69.5371 88.527 68.7177L90.4603 68.308C90.6638 68.9225 90.6638 69.5371 90.4603 70.1517C90.3585 70.8687 90.0533 71.4832 89.6462 72.0978Z" fill="#2B2A29"/>
</svg>
