<svg width="70" height="73" viewBox="0 0 70 73" fill="none" xmlns="http://www.w3.org/2000/svg">
<g clip-path="url(#clip0)">
<path d="M36.173 52.1963C34.9923 52.1963 34.0329 53.0026 33.6639 54.1021C33.295 55.2017 33.5902 56.008 34.7709 56.008C35.9517 56.008 36.911 55.2017 37.28 54.0288C37.649 53.0026 37.3538 52.1963 36.173 52.1963Z" fill="#686475"/>
<path d="M52.1873 52.1963H49.0879L48.7189 53.2959H51.5231L51.0066 54.8352H48.2023L47.7595 55.9347H50.9328L50.4162 57.474H45.4718L47.8333 50.657H52.7039L52.1873 52.1963ZM44.8814 57.474H43.0365L42.2248 55.275H41.2654L40.5274 57.474H38.7563L41.044 50.657H43.8483C45.1766 50.657 46.505 51.2434 45.8408 53.076C45.4718 54.1755 44.8076 54.7619 43.9221 55.0551L44.8814 57.474ZM34.3285 57.6206C31.967 57.6206 31.229 55.9347 31.8932 53.9556C32.4836 52.123 34.2547 50.5104 36.6162 50.5104C38.9039 50.5104 39.7157 52.1963 39.0515 54.1755C38.4611 56.008 36.69 57.6206 34.3285 57.6206ZM28.6461 57.474H26.875L28.6461 52.2696H26.7274L27.3178 50.657H32.9264L32.336 52.2696H30.4173L28.6461 57.474ZM25.9895 52.7094C25.4729 52.2696 24.8087 52.0497 24.1445 52.0497C23.4804 52.123 23.1114 52.2696 23.0376 52.5628C22.8162 53.4425 26.3584 53.2959 25.4729 55.6415C24.8825 57.2541 23.628 57.6206 22.152 57.6206C21.1189 57.6206 20.3071 57.4007 19.7167 56.9609L20.3071 55.3483C20.8975 55.9347 21.6354 56.0813 22.3734 56.0813C23.1114 56.0813 23.5542 55.9347 23.628 55.6415C23.9969 54.4687 20.4547 54.8352 21.2665 52.4162C21.7092 51.0968 23.1114 50.5104 24.3659 50.5104C25.2515 50.5104 26.0633 50.7303 26.506 51.0968L25.9895 52.7094ZM55.6558 11.514L45.1028 41.3477H55.4344L53.5895 46.6987H37.2804L50.859 8.36209C45.9884 5.86984 40.5274 4.40381 34.7713 4.40381C15.6579 4.40381 0.234375 19.7971 0.234375 38.7089C0.234375 47.4317 3.55523 55.3483 8.9424 61.4323L21.4141 23.8287H26.3584L31.5242 36.8763C31.7456 35.8501 32.1884 34.3108 32.5574 33.138L35.7306 23.8287H41.7082L33.9595 46.6987H28.9413L23.8493 33.7244C23.628 34.8239 23.259 36.07 22.89 37.1695L13.444 65.6105C19.3477 70.2285 26.7274 72.9406 34.7713 72.9406C53.8108 72.9406 69.2344 57.6206 69.2344 38.7089C69.2344 27.5671 63.921 17.7447 55.6558 11.514Z" fill="#686475"/>
<path d="M43.4796 52.1963H42.2988L41.7822 53.8089H42.8892C43.4058 53.8089 43.9223 53.5157 44.0699 53.0026C44.2175 52.4162 43.9961 52.1963 43.4796 52.1963Z" fill="#686475"/>
<path d="M60.5268 2.20462H58.5343V7.70223H57.1322V2.20462H55.1396V0.958496H60.5268V2.20462ZM66.3568 4.55027L66.5044 2.64443H66.4306L65.8402 4.25706L64.5856 6.82261H63.9215L62.6669 4.25706L62.1503 2.64443H62.0766L62.2979 4.55027V7.70223H61.1172V0.958496H62.3717L63.9215 4.11046L64.3643 5.13668L64.807 4.03716L66.2092 0.958496H67.6113V7.70223H66.3568V4.55027Z" fill="#686475"/>
</g>
<defs>
<clipPath id="clip0">
<rect width="69" height="72" fill="white" transform="translate(0.234375 0.949219)"/>
</clipPath>
</defs>
</svg>
