<svg width="114" height="100" viewBox="0 0 114 100" fill="none" xmlns="http://www.w3.org/2000/svg">
<path d="M64.0308 90.0684V84.3194C64.0308 80.3447 64.9934 76.7072 66.9185 73.4068C68.8855 70.071 71.7313 67.4094 75.4559 65.4221C79.2225 63.3992 83.7841 62.3878 89.141 62.3878C94.5815 62.3878 99.1432 63.3992 102.826 65.4221C106.509 67.4094 109.292 70.071 111.175 73.4068C113.058 76.7072 114 80.3447 114 84.3194V90.0684C114 94.0431 113.037 97.6983 111.112 101.034C109.229 104.335 106.425 106.996 102.7 109.019C99.0176 111.006 94.4978 112 89.141 112C83.7004 112 79.1178 111.006 75.3932 109.019C71.6685 106.996 68.8436 104.335 66.9185 101.034C64.9934 97.6983 64.0308 94.0431 64.0308 90.0684ZM76.837 84.3194V90.0684C76.837 93.3688 77.7577 96.3321 79.5991 98.9582C81.4405 101.549 84.6211 102.844 89.141 102.844C93.5352 102.844 96.6322 101.549 98.4317 98.9582C100.273 96.3321 101.194 93.3688 101.194 90.0684V84.3194C101.194 81.019 100.315 78.0735 98.5573 75.4829C96.7996 72.8568 93.6608 71.5437 89.141 71.5437C84.7467 71.5437 81.587 72.8568 79.6619 75.4829C77.7786 78.0735 76.837 81.019 76.837 84.3194ZM0 27.6806V21.9316C0 17.9569 0.962555 14.3194 2.88767 11.019C4.85463 7.68314 7.70044 5.02155 11.4251 3.03422C15.1916 1.01141 19.7533 0 25.1101 0C30.5507 0 35.1123 1.01141 38.7952 3.03422C42.478 5.02155 45.261 7.68314 47.1443 11.019C49.0275 14.3194 49.9692 17.9569 49.9692 21.9316V27.6806C49.9692 31.6553 49.0066 35.3105 47.0815 38.6464C45.1982 41.9468 42.3943 44.6084 38.6696 46.6312C34.9868 48.6185 30.467 49.6122 25.1101 49.6122C19.6696 49.6122 15.087 48.6185 11.3623 46.6312C7.63767 44.6084 4.81278 41.9468 2.88767 38.6464C0.962555 35.3105 0 31.6553 0 27.6806ZM12.8062 21.9316V27.6806C12.8062 30.981 13.7269 33.9442 15.5683 36.5703C17.4097 39.161 20.5903 40.4563 25.1101 40.4563C29.5044 40.4563 32.6013 39.161 34.4009 36.5703C36.2423 33.9442 37.163 30.981 37.163 27.6806V21.9316C37.163 18.6312 36.2841 15.6857 34.5264 13.0951C32.7687 10.4689 29.63 9.1559 25.1101 9.1559C20.7159 9.1559 17.5562 10.4689 15.6311 13.0951C13.7478 15.6857 12.8062 18.6312 12.8062 21.9316ZM16.4342 110.509C11.7562 110.509 9.17006 105.084 12.1162 101.45L91.49 3.54855C92.5455 2.24667 94.1321 1.49049 95.8081 1.49049C100.486 1.49049 103.072 6.91646 100.126 10.5503L20.7523 108.451C19.6968 109.753 18.1102 110.509 16.4342 110.509Z" fill="url(#paint0_linear_19503_247218)"/>
<defs>
<linearGradient id="paint0_linear_19503_247218" x1="77.5" y1="11" x2="7" y2="119" gradientUnits="userSpaceOnUse">
<stop stop-color="white"/>
<stop offset="1" stop-color="white" stop-opacity="0"/>
</linearGradient>
</defs>
</svg>
