<?xml version="1.0" encoding="utf-8"?><svg xmlns="http://www.w3.org/2000/svg" xmlns:xlink="http://www.w3.org/1999/xlink"><symbol viewBox="0 0 512 512" id="apple" xmlns="http://www.w3.org/2000/svg"><path d="M185.255 512c-76.201-.439-139.233-155.991-139.233-235.21 0-129.404 97.075-157.734 134.487-157.734 16.86 0 34.863 6.621 50.742 12.48 11.104 4.087 22.588 8.306 28.975 8.306 3.823 0 12.832-3.589 20.786-6.738 16.963-6.753 38.071-15.146 62.651-15.146h.146c18.354 0 74.004 4.028 107.461 54.272l7.837 11.777-11.279 8.511c-16.113 12.158-45.513 34.336-45.513 78.267 0 52.031 33.296 72.041 49.292 81.665 7.061 4.248 14.37 8.628 14.37 18.208 0 6.255-49.922 140.566-122.417 140.566-17.739 0-30.278-5.332-41.338-10.034-11.191-4.761-20.845-8.862-36.797-8.862-8.086 0-18.311 3.823-29.136 7.881C221.496 505.73 204.752 512 185.753 512h-.498zM351.343 0c1.888 68.076-46.797 115.304-95.425 112.342C247.905 58.015 304.54 0 351.343 0z"/></symbol><symbol viewBox="0 0 10 18" id="fb" xmlns="http://www.w3.org/2000/svg"><path fill="#fff" d="M9.623.004L7.225 0C4.53 0 2.789 1.739 2.789 4.43v2.042H.377A.372.372 0 0 0 0 6.84V9.8c0 .203.169.367.377.367H2.79v7.467c0 .203.169.367.377.367h3.146a.372.372 0 0 0 .378-.367v-7.467h2.82a.372.372 0 0 0 .376-.367l.002-2.96c0-.097-.04-.19-.11-.26a.383.383 0 0 0-.268-.107H6.69V4.741c0-.832.203-1.255 1.317-1.255h1.616A.372.372 0 0 0 10 3.119V.37a.372.372 0 0 0-.377-.367z"/></symbol><symbol viewBox="0 0 20 20" id="in" xmlns="http://www.w3.org/2000/svg"><path fill="#fff" fill-rule="evenodd" clip-rule="evenodd" d="M9.997 4.863a5.133 5.133 0 1 0 0 10.267 5.133 5.133 0 0 0 0-10.267zm0 8.466a3.332 3.332 0 1 1 0-6.664 3.332 3.332 0 0 1 0 6.664z"/><path fill="#fff" d="M15.333 5.86a1.2 1.2 0 1 0 0-2.4 1.2 1.2 0 0 0 0 2.4z"/><path fill="#fff" fill-rule="evenodd" clip-rule="evenodd" d="M9.997 0C7.282 0 6.94.012 5.875.06 4.811.11 4.085.278 3.45.525a4.9 4.9 0 0 0-1.771 1.153 4.9 4.9 0 0 0-1.153 1.77C.278 4.085.109 4.812.06 5.876.012 6.941 0 7.282 0 9.997s.012 3.055.06 4.121c.049 1.065.218 1.791.465 2.427a4.9 4.9 0 0 0 1.153 1.77 4.9 4.9 0 0 0 1.77 1.154c.636.247 1.363.416 2.427.464 1.066.05 1.407.06 4.122.06s3.055-.01 4.121-.06c1.065-.048 1.791-.217 2.427-.464a4.901 4.901 0 0 0 1.77-1.153 4.901 4.901 0 0 0 1.154-1.77c.247-.637.416-1.363.464-2.428.05-1.066.06-1.406.06-4.121 0-2.715-.01-3.056-.06-4.122-.048-1.064-.217-1.79-.464-2.426a4.9 4.9 0 0 0-1.153-1.771 4.9 4.9 0 0 0-1.77-1.153C15.908.278 15.182.109 14.117.06 13.052.012 12.712 0 9.997 0zm0 1.801c2.67 0 2.985.01 4.04.059.974.044 1.503.207 1.856.344a3.1 3.1 0 0 1 1.15.748c.349.35.566.682.747 1.149.137.352.3.882.344 1.856.048 1.054.058 1.37.058 4.04s-.01 2.985-.058 4.04c-.044.974-.207 1.503-.344 1.856a3.1 3.1 0 0 1-.748 1.15c-.35.349-.683.566-1.15.747-.352.137-.88.3-1.856.344-1.053.048-1.37.058-4.04.058-2.669 0-2.985-.01-4.039-.058-.974-.044-1.504-.207-1.856-.344a3.097 3.097 0 0 1-1.15-.748 3.097 3.097 0 0 1-.747-1.15c-.137-.352-.3-.88-.344-1.856-.049-1.054-.059-1.37-.059-4.04 0-2.668.01-2.985.059-4.039.044-.974.207-1.504.344-1.856.181-.467.398-.8.748-1.15.35-.35.682-.566 1.149-.747.352-.137.882-.3 1.856-.344 1.054-.049 1.37-.059 4.04-.059z"/></symbol><symbol viewBox="0 0 18 14" fill="none" id="tw" xmlns="http://www.w3.org/2000/svg"><path d="M17.974 1.668a.083.083 0 0 0-.1-.023 6.744 6.744 0 0 1-1.593.488A3.573 3.573 0 0 0 17.525.367a.086.086 0 0 0-.028-.093.084.084 0 0 0-.096-.007 6.772 6.772 0 0 1-2.12.828A3.534 3.534 0 0 0 12.73 0c-1.95 0-3.538 1.604-3.538 3.576 0 .239.023.475.069.705A9.72 9.72 0 0 1 2.314.67a.084.084 0 0 0-.138.01 3.604 3.604 0 0 0-.479 1.798 3.59 3.59 0 0 0 1.332 2.799 3.356 3.356 0 0 1-1.234-.404.083.083 0 0 0-.084 0 .086.086 0 0 0-.042.073v.046a3.584 3.584 0 0 0 2.486 3.416 3.361 3.361 0 0 1-1.176-.017.085.085 0 0 0-.096.11 3.545 3.545 0 0 0 3.07 2.471 6.75 6.75 0 0 1-4.052 1.336c-.272 0-.546-.016-.814-.048a.086.086 0 0 0-.055.157A9.792 9.792 0 0 0 6.372 14c6.202 0 9.909-5.094 9.909-10.019 0-.137-.003-.273-.008-.41A7.099 7.099 0 0 0 17.98 1.77a.086.086 0 0 0-.006-.102z" fill="#fff"/></symbol><symbol viewBox="0 0 511.962 511.962" id="vk" xmlns="http://www.w3.org/2000/svg"><path d="M507.399 370.471c-1.376-2.304-9.888-20.8-50.848-58.816-42.88-39.808-37.12-33.344 14.528-102.176 31.456-41.92 44.032-67.52 40.096-78.464-3.744-10.432-26.88-7.68-26.88-7.68l-76.928.448s-5.696-.768-9.952 1.76c-4.128 2.496-6.784 8.256-6.784 8.256s-12.192 32.448-28.448 60.032c-34.272 58.208-48 61.28-53.6 57.664-13.024-8.416-9.76-33.856-9.76-51.904 0-56.416 8.544-79.936-16.672-86.016-8.384-2.016-14.528-3.36-35.936-3.584-27.456-.288-50.72.096-63.872 6.528-8.768 4.288-15.52 13.856-11.392 14.4 5.088.672 16.608 3.104 22.72 11.424 7.904 10.72 7.616 34.848 7.616 34.848s4.544 66.4-10.592 74.656c-10.4 5.664-24.64-5.888-55.2-58.72-15.648-27.04-27.488-56.96-27.488-56.96s-2.272-5.568-6.336-8.544c-4.928-3.616-11.84-4.768-11.84-4.768l-73.152.448s-10.976.32-15.008 5.088c-3.584 4.256-.288 13.024-.288 13.024s57.28 133.984 122.112 201.536c59.488 61.92 127.008 57.856 127.008 57.856h30.592s9.248-1.024 13.952-6.112c4.352-4.672 4.192-13.44 4.192-13.44s-.608-41.056 18.464-47.104c18.784-5.952 42.912 39.68 68.48 57.248 19.328 13.28 34.016 10.368 34.016 10.368l68.384-.96s35.776-2.208 18.816-30.336z" fill="#fff"/></symbol></svg>