<?xml version="1.0" encoding="utf-8"?><svg xmlns="http://www.w3.org/2000/svg" xmlns:xlink="http://www.w3.org/1999/xlink"><symbol viewBox="0 0 512 512" id="apple" xmlns="http://www.w3.org/2000/svg"><path d="M185.255 512c-76.201-.439-139.233-155.991-139.233-235.21 0-129.404 97.075-157.734 134.487-157.734 16.86 0 34.863 6.621 50.742 12.48 11.104 4.087 22.588 8.306 28.975 8.306 3.823 0 12.832-3.589 20.786-6.738 16.963-6.753 38.071-15.146 62.651-15.146h.146c18.354 0 74.004 4.028 107.461 54.272l7.837 11.777-11.279 8.511c-16.113 12.158-45.513 34.336-45.513 78.267 0 52.031 33.296 72.041 49.292 81.665 7.061 4.248 14.37 8.628 14.37 18.208 0 6.255-49.922 140.566-122.417 140.566-17.739 0-30.278-5.332-41.338-10.034-11.191-4.761-20.845-8.862-36.797-8.862-8.086 0-18.311 3.823-29.136 7.881C221.496 505.73 204.752 512 185.753 512h-.498zM351.343 0c1.888 68.076-46.797 115.304-95.425 112.342C247.905 58.015 304.54 0 351.343 0z"/></symbol><symbol viewBox="0 0 69 77" fill="none" id="bell" xmlns="http://www.w3.org/2000/svg"><path opacity=".4" fill-rule="evenodd" clip-rule="evenodd" d="M53.582 17.463c-.064.168-.138.33-.22.486 8.127 5.38 11.745 15.817 8.134 25.288l-3.253 8.533s-1.233 2.693-1.141 4.218c.037.611.098.967.098.967a3.907 3.907 0 0 1 2.278 5.046 3.933 3.933 0 0 1-5.067 2.268l-10.987-4.154a11.382 11.382 0 0 1-11.582 2.13 11.307 11.307 0 0 1-7.245-9.25l-11.803-4.462a3.907 3.907 0 0 1-2.278-5.046 3.933 3.933 0 0 1 5.066-2.269c1.074-.75 1.638-1.525 2.675-4.567l3.253-8.533c3.718-9.752 13.851-15.205 23.798-13.402a4.37 4.37 0 0 1 5.743-2.858 4.341 4.341 0 0 1 2.531 5.605z" fill="#FFC918"/><path opacity=".2" fill-rule="evenodd" clip-rule="evenodd" d="M42.945 12.703c-.09.155-.17.314-.24.475-9.319-2.884-19.731.905-24.832 9.67l-4.595 7.898s-1.32 2.651-2.566 3.542c-.5.357-.815.534-.815.534a3.937 3.937 0 0 0-5.368 1.424 3.903 3.903 0 0 0 1.429 5.346l10.168 5.868a11.289 11.289 0 0 0 5.649 10.293 11.386 11.386 0 0 0 11.775-.237l10.924 6.305a3.937 3.937 0 0 0 5.368-1.423 3.903 3.903 0 0 0-1.429-5.346c-.093-1.304.156-2.228 1.87-4.949l4.596-7.897c5.252-9.026 3.107-20.295-4.573-26.844a4.337 4.337 0 0 0-1.396-6.24 4.374 4.374 0 0 0-5.965 1.58z" fill="#FFC918"/><path d="M52.258 17.084a4.372 4.372 0 0 1-5.808 2.08 4.339 4.339 0 0 1-2.088-5.785 4.372 4.372 0 0 1 5.808-2.08 4.339 4.339 0 0 1 2.088 5.785zM42.208 54.65c-2.67 5.645-9.432 8.066-15.101 5.406-5.67-2.66-8.1-9.393-5.43-15.04 2.671-5.645 9.432-8.066 15.102-5.406 5.67 2.66 8.1 9.393 5.43 15.04z" fill="#FFC300"/><path d="M21.677 45.017c2.671-5.646 9.432-8.067 15.102-5.407s8.1 9.393 5.43 15.04a11.307 11.307 0 0 1-7.096 6.034c.004 0 .007-.002.01-.003.096-.03.854-.301-.117-1.278-1.035-1.04-14.08-6.862-14.08-6.862a11.212 11.212 0 0 1 .752-7.524z" fill="#EBB400"/><path d="M58.148 43.39l-3.906 8.257s-1.439 2.59-1.465 4.117c-.011.612.023.971.023.971L12.528 37.842c1.13-.665 1.751-1.395 3.022-4.348l3.905-8.257c5.034-10.64 17.776-15.203 28.46-10.19C58.6 20.059 63.182 32.749 58.149 43.389z" fill="#FFC300"/><path d="M38.075 15.6c-7.03.65-13.561 4.753-17.019 11.389a.807.807 0 0 0 .386 1.1l2.975 1.396a.885.885 0 0 0 1.165-.431c.73-1.546 2.579-5.03 5.624-8.011 1.886-1.846 4.635-3.12 7.034-3.952.898-.312.782-1.579-.165-1.491z" fill="#fff"/><path d="M54.242 51.647l3.906-8.257c5.033-10.641.452-23.331-10.233-28.344a21.568 21.568 0 0 0-3.666-1.332s11.255 8.96 10.75 17.15c-.213 3.425-.928 6.218-2.45 9.898-1.25 3.021-2.512 5.549-3.814 8.301-.73 1.544-1.458 3.565-1.513 4.095-.055.53.136 1.025.136 1.025l5.442 2.553s-.034-.36-.023-.972c.026-1.527 1.465-4.117 1.465-4.117z" fill="#EBB400"/><path d="M7.3 39.714a3.935 3.935 0 0 1 5.228-1.872L52.8 56.736a3.905 3.905 0 0 1 1.879 5.206 3.935 3.935 0 0 1-5.227 1.871L9.18 44.92a3.905 3.905 0 0 1-1.88-5.205z" fill="#FFC918"/><path d="M50.18 15.371a1.749 1.749 0 0 1-2.324.832 1.736 1.736 0 0 1-.835-2.314 1.749 1.749 0 0 1 2.323-.832 1.736 1.736 0 0 1 .835 2.314z" fill="#fff"/></symbol><symbol viewBox="0 0 81 51" fill="none" id="catalog" xmlns="http://www.w3.org/2000/svg"><g opacity=".5"><g opacity=".5"><rect x="64.544" y="30.335" width="20.013" height="45.3" rx="8" transform="rotate(90 64.544 30.335)" fill="#E0E0E2"/><rect x="62.139" y="30.654" width="18.574" height="40.489" rx="6" transform="rotate(90 62.139 30.654)" fill="#008D68"/><rect x="64.544" y="29.04" width="20.189" height="45.3" rx="6" transform="rotate(90 64.544 29.04)" fill="#F9F9FB"/><rect x="42.659" y="29.039" width="20.189" height="23.415" rx="6" transform="rotate(90 42.66 29.04)" fill="#896BFD"/><rect x="42.659" y="29.039" width="19.599" height="23.415" rx="6" transform="rotate(90 42.66 29.04)" fill="#896BFD"/><rect x="22.974" y="34.347" width="9.643" height="9.648" rx="4.822" fill="#896BFD"/><rect x="51.172" y="34.347" width="9.643" height="9.648" rx="4.822" fill="#000" fill-opacity=".25" filter="url(#ca)"/><rect x="37.073" y="34.347" width="9.643" height="9.648" rx="4.822" fill="#000" fill-opacity=".25" filter="url(#cb)"/><path fill-rule="evenodd" clip-rule="evenodd" d="M30.05 37.046a.696.696 0 0 1 .186.99l-2.204 3.08a.752.752 0 0 1-1.074.142l-1.47-1.186a.695.695 0 0 1-.094-1 .752.752 0 0 1 1.035-.092l.852.687 1.747-2.441a.75.75 0 0 1 1.022-.18zm28.199 0a.696.696 0 0 1 .186.99l-2.204 3.08a.752.752 0 0 1-1.074.142l-1.47-1.186a.695.695 0 0 1-.094-1 .752.752 0 0 1 1.034-.092l.853.687 1.747-2.441a.75.75 0 0 1 1.022-.18zm-14.099 0a.696.696 0 0 1 .185.99l-2.204 3.08a.752.752 0 0 1-1.074.142l-1.47-1.186a.695.695 0 0 1-.094-1 .752.752 0 0 1 1.035-.092l.852.687 1.747-2.441a.75.75 0 0 1 1.023-.18z" fill="#fff"/></g><rect x="76.374" y="14.415" width="30.465" height="68.958" rx="8" transform="rotate(90 76.374 14.415)" fill="#E0E0E2"/><rect x="72.712" y="14.902" width="28.275" height="61.635" rx="6" transform="rotate(90 72.712 14.902)" fill="#008D68"/><rect x="76.374" y="12.444" width="30.733" height="68.958" rx="6" transform="rotate(90 76.374 12.444)" fill="#F9F9FB"/><rect x="43.059" y="12.444" width="30.733" height="35.644" rx="6" transform="rotate(90 43.06 12.444)" fill="#896BFD"/><rect x="43.059" y="12.444" width="29.835" height="35.644" rx="6" transform="rotate(90 43.06 12.444)" fill="#896BFD"/><rect x="13.092" y="20.523" width="14.68" height="14.686" rx="7.34" fill="#896BFD"/><rect x="56.018" y="20.523" width="14.68" height="14.686" rx="7.34" fill="#000" fill-opacity=".25" filter="url(#cc)"/><rect x="34.555" y="20.523" width="14.68" height="14.686" rx="7.34" fill="#000" fill-opacity=".25" filter="url(#cd)"/><path fill-rule="evenodd" clip-rule="evenodd" d="M23.865 24.632a1.06 1.06 0 0 1 .283 1.505l-3.356 4.69a1.145 1.145 0 0 1-1.636.215l-2.236-1.804a1.058 1.058 0 0 1-.143-1.524c.395-.459 1.1-.52 1.575-.138l1.297 1.046 2.66-3.717a1.142 1.142 0 0 1 1.556-.273zm42.925 0a1.06 1.06 0 0 1 .283 1.505l-3.355 4.69a1.145 1.145 0 0 1-1.636.215l-2.236-1.804a1.058 1.058 0 0 1-.143-1.524c.395-.459 1.1-.52 1.575-.138l1.297 1.046 2.66-3.717a1.142 1.142 0 0 1 1.556-.273zm-21.463 0a1.06 1.06 0 0 1 .283 1.505l-3.355 4.69a1.145 1.145 0 0 1-1.636.215l-2.236-1.804a1.058 1.058 0 0 1-.144-1.524 1.146 1.146 0 0 1 1.576-.138l1.297 1.046 2.66-3.717a1.142 1.142 0 0 1 1.555-.273z" fill="#fff"/></g><rect x="80.105" y="2.699" width="34.994" height="79.21" rx="8" transform="rotate(90 80.105 2.7)" fill="#E0E0E2"/><rect x="75.899" y="3.259" width="32.478" height="70.799" rx="6" transform="rotate(90 75.899 3.259)" fill="#008D68"/><rect x="80.105" y=".435" width="35.302" height="79.21" rx="6" transform="rotate(90 80.105 .435)" fill="#F9F9FB"/><rect x="41.837" y=".435" width="35.302" height="40.943" rx="6" transform="rotate(90 41.837 .435)" fill="#896BFD"/><rect x="41.837" y=".435" width="34.27" height="40.943" rx="6" transform="rotate(90 41.837 .435)" fill="#896BFD"/><rect x="7.415" y="9.715" width="16.862" height="16.869" rx="8.431" fill="#E7E4F5"/><rect x="56.722" y="9.715" width="16.862" height="16.869" rx="8.431" fill="#000" fill-opacity=".25" filter="url(#ce)"/><rect x="32.069" y="9.715" width="16.862" height="16.869" rx="8.431" fill="#000" fill-opacity=".25" filter="url(#cf)"/><path fill-rule="evenodd" clip-rule="evenodd" d="M19.789 14.435c.583.39.729 1.165.325 1.73L16.26 21.55a1.315 1.315 0 0 1-1.879.247l-2.57-2.072a1.215 1.215 0 0 1-.164-1.75 1.314 1.314 0 0 1 1.81-.16l1.49 1.202L18 14.75a1.312 1.312 0 0 1 1.788-.314zm49.308 0c.583.39.729 1.165.325 1.73l-3.854 5.386a1.315 1.315 0 0 1-1.879.247l-2.57-2.072a1.216 1.216 0 0 1-.164-1.75 1.315 1.315 0 0 1 1.81-.16l1.49 1.202 3.054-4.269a1.312 1.312 0 0 1 1.788-.314zm-24.654 0c.583.39.729 1.165.325 1.73l-3.854 5.386a1.315 1.315 0 0 1-1.879.247l-2.57-2.072a1.215 1.215 0 0 1-.164-1.75 1.315 1.315 0 0 1 1.81-.16l1.49 1.202 3.054-4.269a1.312 1.312 0 0 1 1.788-.314z" fill="#fff"/><defs><filter id="ca" x="43.172" y="26.347" width="25.643" height="25.648" filterUnits="userSpaceOnUse" color-interpolation-filters="sRGB"><feFlood flood-opacity="0" result="BackgroundImageFix"/><feGaussianBlur in="BackgroundImage" stdDeviation="4"/><feComposite in2="SourceAlpha" operator="in" result="effect1_backgroundBlur"/><feBlend in="SourceGraphic" in2="effect1_backgroundBlur" result="shape"/></filter><filter id="cb" x="29.073" y="26.347" width="25.643" height="25.648" filterUnits="userSpaceOnUse" color-interpolation-filters="sRGB"><feFlood flood-opacity="0" result="BackgroundImageFix"/><feGaussianBlur in="BackgroundImage" stdDeviation="4"/><feComposite in2="SourceAlpha" operator="in" result="effect1_backgroundBlur"/><feBlend in="SourceGraphic" in2="effect1_backgroundBlur" result="shape"/></filter><filter id="cc" x="48.018" y="12.523" width="30.68" height="30.686" filterUnits="userSpaceOnUse" color-interpolation-filters="sRGB"><feFlood flood-opacity="0" result="BackgroundImageFix"/><feGaussianBlur in="BackgroundImage" stdDeviation="4"/><feComposite in2="SourceAlpha" operator="in" result="effect1_backgroundBlur"/><feBlend in="SourceGraphic" in2="effect1_backgroundBlur" result="shape"/></filter><filter id="cd" x="26.555" y="12.523" width="30.68" height="30.686" filterUnits="userSpaceOnUse" color-interpolation-filters="sRGB"><feFlood flood-opacity="0" result="BackgroundImageFix"/><feGaussianBlur in="BackgroundImage" stdDeviation="4"/><feComposite in2="SourceAlpha" operator="in" result="effect1_backgroundBlur"/><feBlend in="SourceGraphic" in2="effect1_backgroundBlur" result="shape"/></filter><filter id="ce" x="48.722" y="1.715" width="32.862" height="32.87" filterUnits="userSpaceOnUse" color-interpolation-filters="sRGB"><feFlood flood-opacity="0" result="BackgroundImageFix"/><feGaussianBlur in="BackgroundImage" stdDeviation="4"/><feComposite in2="SourceAlpha" operator="in" result="effect1_backgroundBlur"/><feBlend in="SourceGraphic" in2="effect1_backgroundBlur" result="shape"/></filter><filter id="cf" x="24.069" y="1.715" width="32.862" height="32.87" filterUnits="userSpaceOnUse" color-interpolation-filters="sRGB"><feFlood flood-opacity="0" result="BackgroundImageFix"/><feGaussianBlur in="BackgroundImage" stdDeviation="4"/><feComposite in2="SourceAlpha" operator="in" result="effect1_backgroundBlur"/><feBlend in="SourceGraphic" in2="effect1_backgroundBlur" result="shape"/></filter></defs></symbol><symbol viewBox="0 0 10 18" id="fb" xmlns="http://www.w3.org/2000/svg"><path fill="#fff" d="M9.623.004L7.225 0C4.53 0 2.789 1.739 2.789 4.43v2.042H.377A.372.372 0 0 0 0 6.84V9.8c0 .203.169.367.377.367H2.79v7.467c0 .203.169.367.377.367h3.146a.372.372 0 0 0 .378-.367v-7.467h2.82a.372.372 0 0 0 .376-.367l.002-2.96c0-.097-.04-.19-.11-.26a.383.383 0 0 0-.268-.107H6.69V4.741c0-.832.203-1.255 1.317-1.255h1.616A.372.372 0 0 0 10 3.119V.37a.372.372 0 0 0-.377-.367z"/></symbol><symbol viewBox="0 0 20 20" id="in" xmlns="http://www.w3.org/2000/svg"><path fill="#fff" fill-rule="evenodd" clip-rule="evenodd" d="M9.997 4.863a5.133 5.133 0 1 0 0 10.267 5.133 5.133 0 0 0 0-10.267zm0 8.466a3.332 3.332 0 1 1 0-6.664 3.332 3.332 0 0 1 0 6.664z"/><path fill="#fff" d="M15.333 5.86a1.2 1.2 0 1 0 0-2.4 1.2 1.2 0 0 0 0 2.4z"/><path fill="#fff" fill-rule="evenodd" clip-rule="evenodd" d="M9.997 0C7.282 0 6.94.012 5.875.06 4.811.11 4.085.278 3.45.525a4.9 4.9 0 0 0-1.771 1.153 4.9 4.9 0 0 0-1.153 1.77C.278 4.085.109 4.812.06 5.876.012 6.941 0 7.282 0 9.997s.012 3.055.06 4.121c.049 1.065.218 1.791.465 2.427a4.9 4.9 0 0 0 1.153 1.77 4.9 4.9 0 0 0 1.77 1.154c.636.247 1.363.416 2.427.464 1.066.05 1.407.06 4.122.06s3.055-.01 4.121-.06c1.065-.048 1.791-.217 2.427-.464a4.901 4.901 0 0 0 1.77-1.153 4.901 4.901 0 0 0 1.154-1.77c.247-.637.416-1.363.464-2.428.05-1.066.06-1.406.06-4.121 0-2.715-.01-3.056-.06-4.122-.048-1.064-.217-1.79-.464-2.426a4.9 4.9 0 0 0-1.153-1.771 4.9 4.9 0 0 0-1.77-1.153C15.908.278 15.182.109 14.117.06 13.052.012 12.712 0 9.997 0zm0 1.801c2.67 0 2.985.01 4.04.059.974.044 1.503.207 1.856.344a3.1 3.1 0 0 1 1.15.748c.349.35.566.682.747 1.149.137.352.3.882.344 1.856.048 1.054.058 1.37.058 4.04s-.01 2.985-.058 4.04c-.044.974-.207 1.503-.344 1.856a3.1 3.1 0 0 1-.748 1.15c-.35.349-.683.566-1.15.747-.352.137-.88.3-1.856.344-1.053.048-1.37.058-4.04.058-2.669 0-2.985-.01-4.039-.058-.974-.044-1.504-.207-1.856-.344a3.097 3.097 0 0 1-1.15-.748 3.097 3.097 0 0 1-.747-1.15c-.137-.352-.3-.88-.344-1.856-.049-1.054-.059-1.37-.059-4.04 0-2.668.01-2.985.059-4.039.044-.974.207-1.504.344-1.856.181-.467.398-.8.748-1.15.35-.35.682-.566 1.149-.747.352-.137.882-.3 1.856-.344 1.054-.049 1.37-.059 4.04-.059z"/></symbol><symbol viewBox="0 0 52 72" fill="none" id="planning" xmlns="http://www.w3.org/2000/svg"><path fill-rule="evenodd" clip-rule="evenodd" d="M14.361 3.138l4.492-.06c.57-1.322 1.996-2.269 3.68-2.291l6.111-.082c1.684-.022 3.139.886 3.75 2.192l4.49-.06c1.432-.019 2.644.86 2.961 2.053l3.399-.045c4.418-.06 8.048 3.088 8.11 7.029l.763 49.416c.061 3.94-3.47 7.183-7.888 7.242l-35.178.47c-4.418.06-8.048-3.088-8.11-7.029L.179 12.557c-.061-3.94 3.47-7.184 7.889-7.243l3.399-.045c.28-1.2 1.464-2.112 2.895-2.13z" fill="#00CC96" fill-opacity=".2"/><path fill-rule="evenodd" clip-rule="evenodd" d="M23.361 3.138l4.492-.06c.57-1.322 1.996-2.269 3.68-2.291l6.111-.082c1.684-.022 3.139.886 3.75 2.192l4.49-.06c1.432-.019 2.644.86 2.961 2.053l3.399-.045c4.418-.06 8.048 3.088 8.11 7.029l.763 49.416c.061 3.94-3.47 7.183-7.888 7.242l-35.178.47c-4.417.06-8.048-3.088-8.11-7.029l-.763-49.416c-.061-3.94 3.47-7.184 7.889-7.243l3.399-.045c.28-1.2 1.463-2.112 2.895-2.13z" fill="#00CC96" fill-opacity=".5"/><path d="M6 15.17C6 11.21 9.569 8 13.972 8h35.056C53.431 8 57 11.21 57 15.17v49.66c0 3.96-3.57 7.17-7.972 7.17H13.972C9.569 72 6 68.79 6 64.83V15.17z" fill="#00CC96"/><path d="M10 17.359c0-2.96 2.65-5.36 5.918-5.36h31.165C50.35 12 53 14.4 53 17.36v46.28c0 2.961-2.65 5.36-5.917 5.36H15.918C12.65 69 10 66.6 10 63.64V17.359z" fill="#008D68"/><path d="M13 17.359c0-2.96 2.657-5.36 5.935-5.36h28.13C50.343 12 53 14.4 53 17.36v46.28c0 2.961-2.657 5.36-5.935 5.36h-28.13C15.657 69 13 66.6 13 63.64V17.359z" fill="#00A076"/><path fill-rule="evenodd" clip-rule="evenodd" d="M38.034 6.917h4.492a3 3 0 0 1 3 3v3.718a3 3 0 0 1-3 3H20a3 3 0 0 1-3-3V9.917a3 3 0 0 1 3-3h4.492a4.001 4.001 0 0 1 3.714-2.513h6.113a4.001 4.001 0 0 1 3.715 2.513z" fill="#00CC96"/><path d="M25 30a3 3 0 0 1 3-3h6a3 3 0 0 1 3 3v6a3 3 0 0 1-3 3h-6a3 3 0 0 1-3-3v-6z" fill="#fff"/><path fill-rule="evenodd" clip-rule="evenodd" d="M34.206 30.357a.866.866 0 0 1 .232 1.23l-2.743 3.832a.936.936 0 0 1-1.337.176l-1.829-1.474a.864.864 0 0 1-.117-1.245.936.936 0 0 1 1.288-.113l1.06.855 2.174-3.037a.934.934 0 0 1 1.272-.224z" fill="#00CC96"/><path d="M25 48a3 3 0 0 1 3-3h6a3 3 0 0 1 3 3v6a3 3 0 0 1-3 3h-6a3 3 0 0 1-3-3v-6z" fill="#fff"/><path fill-rule="evenodd" clip-rule="evenodd" d="M34.206 48.357a.866.866 0 0 1 .232 1.23l-2.743 3.832a.936.936 0 0 1-1.337.176l-1.829-1.474a.864.864 0 0 1-.117-1.245.936.936 0 0 1 1.288-.113l1.06.855 2.174-3.037a.934.934 0 0 1 1.272-.224z" fill="#00CC96"/></symbol><symbol viewBox="0 0 18 14" fill="none" id="tw" xmlns="http://www.w3.org/2000/svg"><path d="M17.974 1.668a.083.083 0 0 0-.1-.023 6.744 6.744 0 0 1-1.593.488A3.573 3.573 0 0 0 17.525.367a.086.086 0 0 0-.028-.093.084.084 0 0 0-.096-.007 6.772 6.772 0 0 1-2.12.828A3.534 3.534 0 0 0 12.73 0c-1.95 0-3.538 1.604-3.538 3.576 0 .239.023.475.069.705A9.72 9.72 0 0 1 2.314.67a.084.084 0 0 0-.138.01 3.604 3.604 0 0 0-.479 1.798 3.59 3.59 0 0 0 1.332 2.799 3.356 3.356 0 0 1-1.234-.404.083.083 0 0 0-.084 0 .086.086 0 0 0-.042.073v.046a3.584 3.584 0 0 0 2.486 3.416 3.361 3.361 0 0 1-1.176-.017.085.085 0 0 0-.096.11 3.545 3.545 0 0 0 3.07 2.471 6.75 6.75 0 0 1-4.052 1.336c-.272 0-.546-.016-.814-.048a.086.086 0 0 0-.055.157A9.792 9.792 0 0 0 6.372 14c6.202 0 9.909-5.094 9.909-10.019 0-.137-.003-.273-.008-.41A7.099 7.099 0 0 0 17.98 1.77a.086.086 0 0 0-.006-.102z" fill="#fff"/></symbol><symbol viewBox="0 0 511.962 511.962" id="vk" xmlns="http://www.w3.org/2000/svg"><path d="M507.399 370.471c-1.376-2.304-9.888-20.8-50.848-58.816-42.88-39.808-37.12-33.344 14.528-102.176 31.456-41.92 44.032-67.52 40.096-78.464-3.744-10.432-26.88-7.68-26.88-7.68l-76.928.448s-5.696-.768-9.952 1.76c-4.128 2.496-6.784 8.256-6.784 8.256s-12.192 32.448-28.448 60.032c-34.272 58.208-48 61.28-53.6 57.664-13.024-8.416-9.76-33.856-9.76-51.904 0-56.416 8.544-79.936-16.672-86.016-8.384-2.016-14.528-3.36-35.936-3.584-27.456-.288-50.72.096-63.872 6.528-8.768 4.288-15.52 13.856-11.392 14.4 5.088.672 16.608 3.104 22.72 11.424 7.904 10.72 7.616 34.848 7.616 34.848s4.544 66.4-10.592 74.656c-10.4 5.664-24.64-5.888-55.2-58.72-15.648-27.04-27.488-56.96-27.488-56.96s-2.272-5.568-6.336-8.544c-4.928-3.616-11.84-4.768-11.84-4.768l-73.152.448s-10.976.32-15.008 5.088c-3.584 4.256-.288 13.024-.288 13.024s57.28 133.984 122.112 201.536c59.488 61.92 127.008 57.856 127.008 57.856h30.592s9.248-1.024 13.952-6.112c4.352-4.672 4.192-13.44 4.192-13.44s-.608-41.056 18.464-47.104c18.784-5.952 42.912 39.68 68.48 57.248 19.328 13.28 34.016 10.368 34.016 10.368l68.384-.96s35.776-2.208 18.816-30.336z" fill="#fff"/></symbol></svg>