<svg viewBox="0 0 60 60" fill="none" xmlns="http://www.w3.org/2000/svg">
<mask id="mask0" mask-type="alpha" maskUnits="userSpaceOnUse" x="0" y="0" width="60" height="60">
<circle cx="30" cy="30" r="30" fill="#F7F8FA"/>
</mask>
<g mask="url(#mask0)">
<path d="M43.2193 46.342C43.2193 46.342 47.4629 47.8856 59.7181 81.0097L32.7848 89.4937L43.2193 46.342Z" fill="#FDCE74"/>
<path d="M6.33511 107.211C6.33511 107.211 24.2608 119.393 39.4614 106.508L37.8219 73.2667L38.3566 50.5691L34.5067 41.7332C34.5067 41.7332 28.7749 40.1195 24.9986 39.858C19.9251 39.5066 12.0412 41.1568 12.0412 41.1568L14.0613 65.7214L6.33511 107.211Z" fill="#FDCE74"/>
<path d="M35.2025 50.8888C35.2025 50.8888 34.9901 90.5593 38.4448 113.183C38.4783 113.398 38.576 113.597 38.7251 113.756C38.8743 113.914 39.068 114.024 39.2811 114.072C39.4942 114.12 39.7169 114.103 39.9201 114.023C40.1234 113.944 40.2979 113.805 40.4209 113.626C41.5199 111.473 42.0686 109.084 42.0187 106.671L41.2858 71.1331L49.706 55.1024C49.9257 54.0583 49.1671 50.3045 48.7986 49.3026C48.43 48.3008 48.1448 46.409 47.2993 45.7517C44.6588 43.7477 38.3485 41.213 35.2027 40.1494L35.2025 50.8888Z" fill="#FDCE74"/>
<path d="M23.0289 55.5846C23.0289 55.5846 27.9008 86.2352 17.1691 114.453C16.9003 115.162 16.3895 115.755 15.7258 116.128C15.0621 116.502 14.2876 116.632 13.5373 116.496C10.0943 115.873 3.49804 113.76 -3.1928 104.266L-4.07351 53.4338C-4.08951 52.4513 -3.86677 51.4794 -3.42418 50.6006C-2.9816 49.7218 -2.33222 48.9619 -1.53112 48.3854C2.68323 45.3519 7.296 42.9063 12.1785 41.1167C12.1785 41.1167 20.3101 44.9845 23.0289 55.5846Z" fill="#FDCE74"/>
<path d="M32.4792 27.3317L32.1852 41.904C32.1852 41.904 30.5569 43.7925 25.2821 43.7925C20.5348 43.7925 18.3194 41.1173 18.3194 41.1173L21.1001 18.3955L32.4792 27.3317Z" fill="#FFC5B1"/>
<path d="M39.6913 10.4371C39.6913 10.4371 40.431 12.5633 38.8418 15.7484L36.7812 10.1636L39.6913 10.4371Z" fill="#373646"/>
<path d="M32.263 37.9126C32.263 37.9126 26.0493 38.1189 25.0703 29.7925L32.3771 32.9586L32.263 37.9126Z" fill="#F19C7D"/>
<path d="M38.7677 10.9467C38.7677 10.9467 41.6312 22.9586 40.068 27.7628C38.5047 32.5669 34.6383 35.6064 28.344 34.4125C28.344 34.4125 21.0586 34.0853 19.1871 23.3525C16.3694 7.19447 31.1498 2.36927 38.7677 10.9467Z" fill="#FFC5B1"/>
<path fill-rule="evenodd" clip-rule="evenodd" d="M36.2671 20.7159C36.3573 20.6861 36.4546 20.7352 36.4844 20.8254L37.1175 22.7416C37.3031 23.3033 36.9797 23.9053 36.409 24.0603L35.9577 24.183C35.866 24.2079 35.7715 24.1537 35.7465 24.0621C35.7215 23.9704 35.7755 23.8759 35.8672 23.851L36.3186 23.7284C36.699 23.625 36.9146 23.2237 36.7909 22.8492L36.1578 20.933C36.128 20.8428 36.1769 20.7456 36.2671 20.7159Z" fill="#373646"/>
<path d="M33.2523 17.1184C33.2803 17.2745 33.275 17.4347 33.2368 17.5887C33.1986 17.7426 33.1283 17.8868 33.0305 18.012C32.9326 18.1372 32.8094 18.2406 32.6688 18.3155C32.5282 18.3905 32.3733 18.4352 32.2141 18.4469C30.8999 18.5289 29.6059 18.807 28.3756 19.2721C28.1377 19.3726 27.8697 19.3773 27.6283 19.285C27.3869 19.1928 27.1909 19.0109 27.082 18.7778C26.9894 18.5511 26.9809 18.2992 27.058 18.0671C27.1351 17.8349 27.2927 17.6376 27.5028 17.5104C28.8239 16.4912 30.4884 16.0141 32.1539 16.1773C32.4165 16.1894 32.6675 16.2887 32.8667 16.4593C33.0658 16.63 33.2016 16.862 33.2523 17.1184Z" fill="#373646"/>
<path d="M36.4247 16.8731C36.6351 17.4947 37.1941 17.9255 37.6296 17.8029C38.5097 17.5454 39.4329 17.4715 40.3413 17.5859C40.7348 17.6427 40.9967 17.3143 40.9259 16.822C40.8896 16.5972 40.7975 16.3852 40.658 16.2052C40.5186 16.0251 40.3361 15.8827 40.1271 15.7907C39.3371 15.4599 38.1133 14.9953 36.6995 15.7551C36.3809 15.9269 36.2552 16.3726 36.4247 16.8731Z" fill="#373646"/>
<path d="M21.7284 23.2761C21.7284 23.2761 25.2549 22.7872 23.6471 13.8563C26.1333 12.1599 29.174 11.462 32.157 11.9032C50.8545 18.3438 45.7189 1.43661 38.4288 5.18796C34.4603 0.0947459 26.8243 -0.165537 21.7283 4.17867C15.0577 8.94098 9.03159 10.9926 17.1469 23.7457L21.7284 23.2761Z" fill="#373646"/>
<path d="M17.9395 24.6196L19.891 30.9352L21.6143 25.6457L17.9395 24.6196Z" fill="#373646"/>
<path d="M23.1617 23.3993C23.3673 20.9963 21.573 18.883 19.1541 18.6792C16.7352 18.4753 14.6076 20.2581 14.402 22.6611C14.1964 25.0642 15.9907 27.1775 18.4096 27.3813C20.8286 27.5851 22.9562 25.8023 23.1617 23.3993Z" fill="#FFC5B1"/>
<path fill-rule="evenodd" clip-rule="evenodd" d="M16.8426 21.9272L16.8436 21.9269L16.849 21.9254C16.8541 21.924 16.8622 21.9219 16.873 21.9192C16.8947 21.9137 16.9274 21.906 16.9698 21.8972C17.0546 21.8796 17.1779 21.8579 17.329 21.8424C17.6319 21.8113 18.0418 21.8054 18.4752 21.9036C18.9074 22.0015 19.3614 22.2023 19.759 22.5844C20.1563 22.9661 20.5064 23.5375 20.7175 24.391C20.7403 24.4832 20.8336 24.5395 20.9258 24.5168C21.018 24.494 21.0743 24.4009 21.0515 24.3086C20.8272 23.4021 20.4484 22.7699 19.9972 22.3364C19.5463 21.9032 19.0323 21.6771 18.5509 21.5681C18.0707 21.4593 17.6214 21.4665 17.2935 21.5002C17.1292 21.5171 16.9942 21.5408 16.8996 21.5604C16.8523 21.5702 16.815 21.5791 16.789 21.5856C16.7761 21.5888 16.7659 21.5915 16.7588 21.5934L16.7504 21.5957L16.748 21.5964L16.7472 21.5966L16.7469 21.5967C16.7468 21.5968 16.7467 21.5968 16.7947 21.762L16.7467 21.5968C16.6555 21.6232 16.603 21.7186 16.6295 21.8098C16.656 21.9011 16.7514 21.9536 16.8426 21.9272ZM16.8424 21.9272C16.8425 21.9272 16.8425 21.9272 16.8425 21.9272L16.8426 21.9272" fill="#F19C7D"/>
<path fill-rule="evenodd" clip-rule="evenodd" d="M37.1509 25.988C37.212 25.9153 37.3205 25.9059 37.3932 25.967C37.5452 26.0948 37.7028 26.2017 37.851 26.302C37.8546 26.3044 37.8582 26.3069 37.8618 26.3093C38.0012 26.4036 38.141 26.4982 38.2418 26.5952C38.3448 26.6943 38.4441 26.8309 38.4233 27.0084C38.4038 27.1747 38.2839 27.3181 38.1184 27.4516C37.8387 27.6771 37.4858 27.8096 37.1682 27.8856C36.8493 27.962 36.5514 27.9849 36.3693 27.982C36.2743 27.9805 36.1985 27.9023 36.2 27.8073C36.2015 27.7123 36.2797 27.6366 36.3747 27.6381C36.5286 27.6405 36.7978 27.6206 37.0881 27.5511C37.3796 27.4813 37.6779 27.3649 37.9024 27.1838C38.052 27.0632 38.0786 26.9942 38.0816 26.9684C38.0834 26.9536 38.0812 26.918 38.0033 26.8431C37.9259 26.7686 37.8102 26.6897 37.6582 26.5869L37.6573 26.5863C37.5108 26.4871 37.3391 26.371 37.1718 26.2303C37.0991 26.1692 37.0897 26.0607 37.1509 25.988Z" fill="#F19C7D"/>
<path d="M39.3922 29.5288C37.7163 29.864 34.3315 30.7582 34.0674 30.7466C34.0674 30.7466 34.7926 32.8855 35.7728 33.968C37.2555 35.6057 39.3922 35.7604 39.3922 35.7604C39.3922 35.7604 39.9527 33.5865 39.8331 32.4054C39.6561 30.6571 39.3922 29.5288 39.3922 29.5288Z" fill="#373646"/>
<path d="M20.7816 43.249L32.6157 41.9468V61.0135L18.2848 64.1263L20.7816 43.249Z" fill="white"/>
<path d="M21.6383 43.0882L18.7383 37.3042C18.7383 37.3042 17.0262 37.9213 15.3702 38.8203C13.7143 39.7192 11.904 41.225 11.904 41.225L8.58301 58.2373L21.9859 63.9854L21.6383 43.0882Z" fill="#FDCE74"/>
<path d="M31.5569 44.0945L32.3076 38.2905C32.3076 38.2905 34.0197 38.9076 35.6757 39.8066C37.3316 40.7056 38.5403 43.3448 38.5403 43.3448L42.4629 59.2236L29.06 64.9717L31.5569 44.0945Z" fill="#FDCE74"/>
<path d="M31.9824 27.0795C33.5285 26.7473 35.0534 25.8784 35.7007 25.2523L38.1924 24.6646C38.5604 24.8792 39.9202 25.3673 40.8657 25.2523C40.2854 27.0795 37.4556 26.4346 37.4556 26.4346C37.4556 26.4346 35.7007 28.7415 31.9824 27.0795Z" fill="#373646"/>
<circle cx="31.4804" cy="21.0464" r="1.24558" fill="#373646"/>
<circle cx="38.854" cy="19.7505" r="1.24558" fill="#373646"/>
<path d="M12.0596 41.2446L10.791 52.532L15.8271 52.532L13.5189 56.9141L20.5485 68.1826" stroke="#E1B663" stroke-width="0.4"/>
<path d="M36.7675 40.8541L42.5273 53.5002L37.7159 54.9878L41.2156 58.4926L37.8281 71.3347" stroke="#E1B663" stroke-width="0.4"/>
<path d="M26.3157 42.6827L21.6588 43.2062L21.0991 42.2495C21.0991 42.2495 21.8861 39.9919 21.886 39.8599L26.3157 42.6827Z" fill="#E8E8E8"/>
<path d="M26.9348 42.6697L31.7636 42.2804L32.3232 41.3237C32.3232 41.3237 31.5363 39.0661 31.5363 38.9341L26.9348 42.6697Z" fill="#E8E8E8"/>
<path d="M20.2508 44.8128L21.8808 39.9073L18.9576 35.7476L17.2202 37.635L20.2508 44.8128Z" fill="white"/>
<path d="M33.1713 43.8868L31.5413 38.9813L32.33 37.2495L35.0782 39.2408L33.1713 43.8868Z" fill="white"/>
<path d="M25.9532 42.322C26.3995 41.9608 28.4458 41.9303 28.6867 42.322C28.9277 42.7138 28.9039 44.6788 28.6867 45.0556C28.4696 45.4324 26.3622 45.4935 25.9532 45.0556C25.5442 44.6177 25.5069 42.6833 25.9532 42.322Z" fill="#373646"/>
<path d="M28.8418 42.8832C29.7118 42.1789 32.1889 40.251 33.3046 41.3219C34.4204 42.3927 33.7279 46.3436 33.3046 47.0782C32.8813 47.8128 29.3714 46.3258 28.5741 45.4721C27.7768 44.6184 27.9718 43.5875 28.8418 42.8832Z" fill="#373646"/>
<path d="M25.8725 43.0722C25.0025 42.3679 21.8123 40.9997 20.6966 42.0705C19.5809 43.1414 20.6414 46.6941 21.0647 47.4287C21.488 48.1633 25.3429 46.5148 26.1402 45.6611C26.9375 44.8074 26.7426 43.7765 25.8725 43.0722Z" fill="#373646"/>
</g>
</svg>
