<svg  viewBox="0 0 60 60" fill="none" xmlns="http://www.w3.org/2000/svg">
<mask id="mask0" mask-type="alpha" maskUnits="userSpaceOnUse" x="0" y="0" width="60" height="60">
<circle cx="30" cy="30" r="30" fill="#F7F8FA"/>
</mask>
<g mask="url(#mask0)">
<path d="M45.6308 44.7056C45.6308 44.7056 53.7992 50.5513 45.8775 84.9214L35.4056 86.9915L45.6308 44.7056Z" fill="#FDCE74"/>
<path d="M9.48633 104.352C9.48633 104.352 27.0524 116.29 41.948 103.663L40.3414 71.0887L40.8654 48.8464L37.373 43.9188L27.9707 42.2625L17.0198 44.1858L17.0575 63.6947L9.48633 104.352Z" fill="white"/>
<path d="M22.9735 45.7818C22.9735 45.7818 31.4912 53.8832 38.4196 46.245L34.0034 36.4336L21.5122 36.9512L22.9735 45.7818Z" fill="white"/>
<path d="M37.7749 49.1599C37.7749 49.1599 37.5667 88.0345 40.9521 110.204C40.985 110.415 41.0807 110.61 41.2268 110.765C41.373 110.921 41.5628 111.029 41.7716 111.076C41.9805 111.123 42.1987 111.106 42.3979 111.028C42.5971 110.95 42.768 110.814 42.8886 110.638C43.9655 108.528 44.5032 106.188 44.4543 103.823L43.7362 68.998L47.6956 50.2777C47.9108 49.2545 47.8335 48.1919 47.4724 47.2101C47.1112 46.2284 46.4807 45.3667 45.6521 44.7225C43.0646 42.7587 40.173 41.2257 37.0903 40.1834L37.7749 49.1599Z" fill="#FDCE74"/>
<path d="M39.145 40.9102L42.5974 47.7316L40.0393 49.2112L42.5974 52.0826L39.145 64.2569" stroke="#E1B663" stroke-width="0.4"/>
<path d="M34.8172 40.3566C36.5434 43.9567 37.5928 47.868 37.7773 51.8516C37.7773 51.8516 43.43 43.6538 34.9507 34.0513L34.8172 40.3566Z" fill="#FDCE74"/>
<path d="M22.4345 32.9465L25.7989 32.9974L24.6982 36.2256L20.3135 37.4577L19.4869 36.7687L22.4345 32.9465Z" fill="#CAA357"/>
<path d="M25.8452 53.7634C25.8452 53.7634 30.6194 83.7991 20.1029 111.451C19.8395 112.145 19.339 112.727 18.6886 113.092C18.0382 113.458 17.2792 113.586 16.544 113.453C13.17 112.842 6.70614 110.772 0.14953 101.468L-0.713514 51.6557C-0.729185 50.6929 -0.510913 49.7405 -0.0772076 48.8793C0.356498 48.0181 0.992848 47.2735 1.77788 46.7086C5.90768 43.7359 10.4279 41.3394 15.2125 39.5857C15.2125 39.5857 23.1809 43.3759 25.8452 53.7634Z" fill="#FDCE74"/>
<path d="M15.3504 39.5625L14.3013 50.4136L19.3374 50.4136L17.0292 54.7958L24.0588 66.0642" stroke="#E1B663" stroke-width="0.4"/>
<path d="M1.74778 46.7293C1.74778 46.7293 16.0344 58.1322 8.02473 84.3224L7.04094 93.4406C6.90604 94.6912 6.51598 95.9015 5.89459 96.9975C5.2732 98.0935 4.4335 99.0522 3.42677 99.8151C2.42004 100.578 1.26738 101.129 0.0391728 101.435C-1.18904 101.741 -2.46704 101.794 -3.71681 101.593C-6.01887 101.224 -8.09762 100.011 -9.5418 98.1921C-10.986 96.3736 -11.6904 94.0827 -11.5157 91.7727C-10.4485 77.8366 -7.24939 51.1903 1.74778 46.7293Z" fill="#373646"/>
<path d="M35.106 26.0762L34.8179 40.3562L27.7384 39.4344L22.0461 36.9441L23.9552 17.3193L35.106 26.0762Z" fill="#FFC5B1"/>
<path d="M42.1735 9.52044C42.1735 9.52044 42.8983 11.604 41.3409 14.7252L39.3218 9.25244L42.1735 9.52044Z" fill="#373646"/>
<path d="M44.3152 21.8721C44.6794 19.9582 43.4129 18.1137 41.4864 17.7521C39.5599 17.3906 37.7029 18.6491 37.3387 20.5629C36.9745 22.4768 38.2409 24.3214 40.1675 24.6829C42.094 25.0444 43.951 23.786 44.3152 21.8721Z" fill="#F19C7D"/>
<path d="M22.4346 32.9467C22.4346 32.9467 20.6447 34.5921 22.9988 39.5468C24.2656 42.2134 24.5314 44.4415 25.0414 47.7985C25.3137 49.5911 25.8454 53.7624 25.8454 53.7624L15.2113 39.5848C15.2113 39.5848 19.601 36.2761 22.4346 32.9467Z" fill="#FDCE74"/>
<path d="M34.8945 36.445C34.8945 36.445 28.8055 36.6472 27.8462 28.4878L35.0064 31.5904L34.8945 36.445Z" fill="#F19C7D"/>
<path d="M41.2683 10.0199C41.2683 10.0199 44.0744 21.7908 42.5425 26.4986C41.0106 31.2063 37.2218 34.1849 31.0538 33.0149C31.0538 33.0149 23.9145 32.6942 22.0806 22.1768C19.3194 6.34292 33.8033 1.61453 41.2683 10.0199Z" fill="#FFC5B1"/>
<path d="M37.4381 26.7405L31.8809 25.3115C31.9835 26.0435 32.279 26.7173 32.732 27.2524C33.1849 27.7875 33.7762 28.1613 34.4352 28.3292C36.3507 28.8415 37.4381 26.7405 37.4381 26.7405Z" fill="white"/>
<path d="M40.3307 19.1006C40.372 19.2549 40.4584 19.3935 40.5791 19.4989C40.6997 19.6044 40.8491 19.6719 41.0084 19.693C41.1676 19.7141 41.3296 19.6878 41.4739 19.6174C41.6181 19.547 41.7381 19.4357 41.8186 19.2975C41.8992 19.1594 41.9367 19.0006 41.9264 18.8413C41.9161 18.682 41.8584 18.5293 41.7608 18.4026C41.6631 18.2758 41.5298 18.1807 41.3776 18.1293C41.2255 18.0778 41.0615 18.0724 40.9062 18.1136C40.6982 18.1687 40.5207 18.3036 40.4128 18.4887C40.3048 18.6738 40.2753 18.8939 40.3307 19.1006Z" fill="#373646"/>
<path d="M33.4669 19.2642C33.5082 19.4184 33.5946 19.5571 33.7152 19.6625C33.8358 19.768 33.9852 19.8355 34.1445 19.8566C34.3038 19.8777 34.4658 19.8514 34.61 19.781C34.7543 19.7106 34.8742 19.5992 34.9548 19.4611C35.0353 19.323 35.0728 19.1642 35.0625 19.0049C35.0522 18.8456 34.9946 18.6929 34.8969 18.5662C34.7993 18.4394 34.6659 18.3443 34.5138 18.2929C34.3617 18.2414 34.1977 18.2359 34.0424 18.2771C33.8344 18.3323 33.657 18.4673 33.5491 18.6524C33.4411 18.8375 33.4116 19.0575 33.4669 19.2642Z" fill="#373646"/>
<path d="M38.8711 19.7544L39.4394 21.4746C39.6193 22.0189 39.3058 22.6022 38.7529 22.7525L38.4706 22.8292" stroke="#373646" stroke-width="0.4" stroke-linecap="round" stroke-linejoin="round"/>
<path d="M35.6811 14.883C35.6817 15.0385 35.6495 15.1922 35.5866 15.3344C35.5237 15.4765 35.4314 15.6038 35.3158 15.7081C35.2002 15.8124 35.0638 15.8914 34.9154 15.9399C34.767 15.9884 34.6099 16.0054 34.4543 15.9898C33.172 15.8467 31.8759 15.8963 30.6097 16.1371C30.3631 16.194 30.1036 16.1531 29.8862 16.0233C29.6688 15.8934 29.5104 15.6847 29.4446 15.4413C29.3936 15.2068 29.428 14.9623 29.5417 14.7512C29.6554 14.5402 29.8409 14.3764 30.0652 14.2891C31.5127 13.5287 33.2 13.3497 34.78 13.7889C35.0314 13.845 35.2569 13.9833 35.4203 14.1817C35.5837 14.3801 35.6755 14.627 35.6811 14.883Z" fill="#373646"/>
<path d="M38.7209 14.6141C38.8331 15.2473 39.3113 15.747 39.7512 15.6924C40.6418 15.5725 41.5471 15.6369 42.4103 15.8815C42.7832 15.9945 43.0853 15.715 43.0892 15.2276C43.0871 15.0044 43.0291 14.7855 42.9205 14.5905C42.8119 14.3955 42.6561 14.2307 42.4672 14.1108C41.7505 13.6739 40.6334 13.0436 39.1518 13.5715C38.8178 13.6909 38.6304 14.1042 38.7209 14.6141Z" fill="#373646"/>
<path d="M26.4508 12.8716C28.0263 21.6234 24.5706 22.1024 24.5706 22.1024L20.081 22.5626C17.4223 18.3845 16.6411 15.3005 17.0234 12.8716C17.518 6.62666 22.9807 3.9537 28.2002 3.49971C39.7002 2.49947 42.2002 9.49958 42.2002 9.49958C40.1076 11.1279 37.6247 11.3908 34.79 10.9577C31.8668 10.5254 28.8871 11.2092 26.4508 12.8716Z" fill="#373646"/>
<path d="M26.4509 12.8721C28.0265 21.6239 24.5707 22.1029 24.5707 22.1029L20.0812 22.5631C17.4225 18.385 16.6413 15.301 17.0236 12.8721L26.4509 12.8721Z" fill="#72717E"/>
<path d="M20.8584 23.4189L22.7708 29.6078L24.4595 24.4244L20.8584 23.4189Z" fill="#72717E"/>
<path d="M25.9756 22.2228C26.1771 19.868 24.4188 17.7971 22.0484 17.5973C19.678 17.3976 17.5931 19.1446 17.3916 21.4994C17.1902 23.8542 18.9484 25.9251 21.3188 26.1249C23.6892 26.3246 25.7741 24.5776 25.9756 22.2228Z" fill="#FFC5B1"/>
<path d="M19.7364 20.6181C19.7364 20.6181 22.8908 19.7044 23.7442 23.1539" stroke="#F19C7D" stroke-width="0.4" stroke-linecap="round" stroke-linejoin="round"/>
<path d="M29.7186 18.0781C28.8547 25.508 37.5782 26.1989 37.1043 18.1247C37.0803 17.7161 36.7858 17.3758 36.3845 17.2953C35.7289 17.1637 34.6564 16.9923 33.4976 16.9863C32.292 16.98 31.124 17.1676 30.4371 17.304C30.0546 17.3799 29.7636 17.6908 29.7186 18.0781Z" fill="#373646"/>
<path d="M39.519 18.0689C39.5588 25.9618 46.348 24.4962 45.696 17.8297C45.6624 17.4865 45.4321 17.1956 45.0975 17.1119C44.591 16.9851 43.7366 16.8412 42.6039 16.9033C41.636 16.9564 40.8157 17.0741 40.2673 17.1708C39.8304 17.2478 39.5168 17.6256 39.519 18.0689Z" fill="#373646"/>
<path d="M36.5396 19.2186C37.3359 18.72 38.1913 18.3387 39.7545 18.8666" stroke="#373646" stroke-width="0.8"/>
<path d="M29.6778 18.5218L22.5566 17.0566" stroke="#373646" stroke-width="0.8"/>
<path d="M20.6537 42.6219L21.9118 36.3669C21.9118 36.3669 25.0135 38.915 29.2628 38.9566C33.512 38.9983 34.9701 35.5822 34.9701 35.5822L37.2686 41.9356C37.3978 42.2929 37.097 42.6581 36.7216 42.5997L30.7152 41.6659L27.7369 41.5269L21.2694 43.2045C20.9121 43.2972 20.5809 42.9839 20.6537 42.6219Z" fill="white"/>
</g>
</svg>
