<svg  viewBox="0 0 60 60" fill="none" xmlns="http://www.w3.org/2000/svg">
<mask id="mask0" mask-type="alpha" maskUnits="userSpaceOnUse" x="0" y="0" width="60" height="60">
<circle cx="30" cy="30" r="30" fill="#F7F8FA"/>
</mask>
<g mask="url(#mask0)">
<path d="M34.5635 38.8975C34.5635 38.8975 60.9457 44.2059 63.6541 46.1008C66.3625 47.9957 69.1352 60.6677 71.4937 62.3027C71.4937 62.3027 62.467 67.5428 50.7931 82.4075V96.8305C50.7931 96.8305 34.8757 102.765 18.922 96.8305L16.1715 73.2536C14.5066 66.822 3.72519 65.1518 5.01796 58.6345C5.63227 55.944 8.49912 49.5888 10.3398 47.538C12.1804 45.4872 23.522 42.7523 26.1241 41.8591L34.5635 38.8975Z" fill="#FDCE74"/>
<path d="M19.6675 14.2929C19.6675 20.0821 24.9605 24.7873 31.4896 24.7873C38.0188 24.7873 43.3118 20.0878 43.3118 14.2929C43.3118 8.498 40.4017 4.20034 31.4896 3.7985C23.7424 3.44774 19.6675 8.49686 19.6675 14.2929Z" fill="#373646"/>
<path d="M41.8644 42.4365L41.7864 22.105L27.2612 22.1708L27.3404 42.5023C27.3446 43.4596 27.5365 44.4066 27.9054 45.2893C28.2743 46.172 28.8128 46.9732 29.4902 47.647C30.1677 48.3208 30.9707 48.854 31.8535 49.2163C32.7363 49.5785 33.6815 49.7626 34.6352 49.7582C35.5889 49.7538 36.5324 49.561 37.4118 49.1908C38.2912 48.8205 39.0894 48.28 39.7607 47.6001C40.432 46.9202 40.9633 46.1143 41.3242 45.2283C41.6852 44.3423 41.8688 43.3937 41.8644 42.4365Z" fill="#FFC5B1"/>
<path fill-rule="evenodd" clip-rule="evenodd" d="M40.6289 47.5551C42.1855 45.8327 43.1539 43.576 42.9578 40.4374L41.8214 40.0981C41.9909 42.8112 40.4955 45.0287 39.2987 46.3529C38.092 47.6881 36.4197 48.4131 34.7287 48.508C33.0359 48.603 31.3665 48.0653 30.1525 46.9287C28.9528 45.8055 27.2678 43.9563 27.3694 41.4171L26.4534 41.6248C26.3336 44.6182 27.3012 46.7152 28.9271 48.2375C30.5387 49.7463 32.7047 50.4174 34.8291 50.2981C36.9553 50.1788 39.0822 49.2665 40.6289 47.5551Z" fill="white"/>
<path d="M42.3067 23.1924C42.3067 23.1924 40.7776 40.6089 27.3574 40.333L27.3325 31.6117L42.3067 23.1924Z" fill="#F19C7D"/>
<path d="M24.998 22.5809C24.9982 23.3856 24.7607 24.1723 24.3154 24.8414C23.8701 25.5106 23.2372 26.0323 22.4965 26.3404C21.7559 26.6485 20.9408 26.7292 20.1545 26.5724C19.3681 26.4155 18.6457 26.0281 18.0787 25.4592C17.5117 24.8903 17.1256 24.1653 16.9691 23.3761C16.8126 22.5869 16.8928 21.7689 17.1996 21.0254C17.5063 20.2819 18.0258 19.6465 18.6925 19.1994C19.3591 18.7523 20.1428 18.5137 20.9445 18.5137C21.4768 18.5135 22.0039 18.6186 22.4956 18.823C22.9874 19.0273 23.4343 19.3269 23.8107 19.7046C24.1871 20.0822 24.4857 20.5306 24.6894 21.0242C24.8931 21.5177 24.998 22.0467 24.998 22.5809Z" fill="#F19C7D"/>
<path d="M30.9875 36.8369C24.7671 36.8369 19.6675 33.0694 19.6675 26.8204V14.3611C19.6675 11.6368 21.399 8.15869 24.1088 8.15869H37.3786C40.093 8.15869 42.3063 11.6413 42.3063 14.3611V25.0632C42.3063 31.3122 36.2363 36.8369 30.9875 36.8369Z" fill="#FFC5B1"/>
<path d="M30.4105 19.6254C30.4231 19.8031 30.4878 19.973 30.5966 20.1137C30.7054 20.2544 30.8533 20.3595 31.0216 20.4158C31.19 20.4721 31.3711 20.477 31.5422 20.43C31.7134 20.3829 31.8667 20.2859 31.9829 20.1513C32.0991 20.0167 32.1729 19.8506 32.195 19.6739C32.2171 19.4972 32.1865 19.3179 32.107 19.1587C32.0276 18.9994 31.9028 18.8674 31.7486 18.7794C31.5944 18.6913 31.4176 18.6511 31.2407 18.664C31.1232 18.6723 31.0086 18.7038 30.9033 18.7567C30.798 18.8095 30.7041 18.8827 30.627 18.972C30.5499 19.0613 30.4911 19.165 30.454 19.2771C30.4168 19.3892 30.4021 19.5076 30.4105 19.6254Z" fill="#373646"/>
<path d="M21.952 19.5566C21.9645 19.7342 22.0293 19.9041 22.138 20.0448C22.2468 20.1855 22.3947 20.2906 22.5631 20.3469C22.7314 20.4032 22.9126 20.4082 23.0837 20.3611C23.2548 20.314 23.4082 20.2171 23.5244 20.0825C23.6406 19.9479 23.7144 19.7817 23.7365 19.6051C23.7586 19.4284 23.7279 19.249 23.6485 19.0898C23.569 18.9306 23.4443 18.7986 23.2901 18.7105C23.1359 18.6225 22.9591 18.5823 22.7821 18.5951C22.545 18.6123 22.3245 18.7232 22.1688 18.9035C22.0132 19.0837 21.9352 19.3186 21.952 19.5566Z" fill="#373646"/>
<path fill-rule="evenodd" clip-rule="evenodd" d="M25.46 17.8083C25.5589 17.813 25.6353 17.897 25.6305 17.9959L25.3905 23.0401C25.3916 23.0469 25.3934 23.0564 25.396 23.0683C25.4024 23.0976 25.4136 23.1405 25.4325 23.1912C25.4703 23.2932 25.5372 23.4223 25.6533 23.5367C25.8741 23.7541 26.3216 23.964 27.2444 23.7126C27.34 23.6866 27.4385 23.743 27.4645 23.8385C27.4906 23.934 27.4342 24.0326 27.3387 24.0586C26.332 24.3328 25.7391 24.1244 25.4017 23.7921C25.2387 23.6316 25.1471 23.453 25.0963 23.316C25.0708 23.2473 25.0551 23.1879 25.0457 23.1448C25.0409 23.1232 25.0378 23.1055 25.0357 23.0926L25.0334 23.0769L25.0327 23.0719L25.0325 23.0701C25.0325 23.07 25.0323 23.0688 25.2105 23.049L25.0323 23.0688C25.0313 23.0594 25.031 23.05 25.0315 23.0405L25.2724 17.9789C25.2771 17.88 25.3611 17.8036 25.46 17.8083Z" fill="#373646"/>
<path d="M33.7651 17.1409C33.7105 17.1532 33.6548 17.1596 33.5988 17.1602L29.542 17.2238C29.432 17.2292 29.322 17.2123 29.2186 17.1742C29.1152 17.1361 29.0205 17.0774 28.9401 17.0018C28.8597 16.9261 28.7954 16.8351 28.7508 16.7339C28.7063 16.6328 28.6824 16.5237 28.6808 16.4132C28.6791 16.3026 28.6996 16.1928 28.7411 16.0904C28.7826 15.9879 28.8441 15.8949 28.9222 15.8169C29.0002 15.7388 29.0931 15.6773 29.1953 15.6361C29.2975 15.5948 29.407 15.5746 29.5171 15.5767C29.5171 15.5767 30.1257 15.4906 31.4555 15.3723C32.7853 15.2539 33.574 15.5131 33.574 15.5131C33.7767 15.5107 33.9732 15.5837 34.1256 15.7181C34.2779 15.8524 34.3753 16.0386 34.3991 16.2407C34.4228 16.4428 34.3712 16.6467 34.2541 16.8129C34.1371 16.9791 33.9629 17.0959 33.7651 17.1409Z" fill="#373646"/>
<path d="M23.6892 17.3128C23.6346 17.3208 23.5793 17.3242 23.5241 17.323L21.045 17.2174C20.8323 17.2017 20.634 17.1035 20.4921 16.9437C20.3503 16.7838 20.2759 16.5748 20.2849 16.3609C20.2939 16.147 20.3854 15.945 20.5402 15.7977C20.6949 15.6503 20.9007 15.5692 21.114 15.5715C21.114 15.5715 21.6584 15.5423 22.4024 15.5718C23.1463 15.6013 23.592 15.677 23.592 15.677C23.7959 15.6841 23.99 15.7673 24.1361 15.9104C24.2822 16.0534 24.3699 16.246 24.3821 16.4505C24.3942 16.655 24.33 16.8567 24.2018 17.0162C24.0737 17.1756 23.8909 17.2814 23.6892 17.3128Z" fill="#373646"/>
<path fill-rule="evenodd" clip-rule="evenodd" d="M24.0624 26.1667C24.1339 26.0981 24.2474 26.1004 24.3159 26.1718C24.6284 26.4973 25.0026 26.7568 25.4164 26.9349C25.8301 27.1131 26.2752 27.2064 26.7254 27.2094C27.1756 27.2125 27.6218 27.1251 28.0379 26.9525C28.454 26.7798 28.8316 26.5254 29.1484 26.2042C29.2179 26.1337 29.3314 26.1329 29.4019 26.2024C29.4724 26.2719 29.4732 26.3854 29.4037 26.4559C29.0533 26.8112 28.6357 27.0927 28.1753 27.2837C27.715 27.4747 27.2212 27.5714 26.723 27.568C26.2248 27.5647 25.7323 27.4614 25.2745 27.2643C24.8167 27.0671 24.4029 26.7801 24.0573 26.4202C23.9887 26.3487 23.991 26.2352 24.0624 26.1667Z" fill="#373646"/>
<path d="M42.6183 19.3359C42.6183 19.3359 40.2432 20.765 40.4253 22.5801L38.4031 20.8479V13.634C38.4031 13.634 35.7725 10.8075 36.2328 8.15813C36.2328 8.15813 36.8458 7.26591 40.9252 8.5577C45.0046 9.84949 42.6183 19.3359 42.6183 19.3359Z" fill="#373646"/>
<path d="M47.602 22.8911C47.602 23.6957 47.3643 24.4823 46.9189 25.1514C46.4735 25.8204 45.8404 26.3418 45.0997 26.6498C44.3591 26.9577 43.5441 27.0382 42.7578 26.8813C41.9715 26.7243 41.2492 26.3368 40.6823 25.7678C40.1155 25.1989 39.7294 24.474 39.573 23.6848C39.4166 22.8956 39.4969 22.0776 39.8037 21.3342C40.1105 20.5908 40.63 19.9554 41.2966 19.5084C41.9632 19.0613 42.7469 18.8228 43.5486 18.8228C44.6236 18.8228 45.6546 19.2514 46.4148 20.0143C47.1749 20.7773 47.602 21.8121 47.602 22.8911Z" fill="#FFC5B1"/>
<path d="M37.3787 8.47536C37.3787 8.47536 26.9929 11.6458 21.3799 8.7739C21.3799 8.77163 27.6444 4.89285 37.3787 8.47536Z" fill="#373646"/>
<path d="M22.7821 8.15831C21.8517 9.79496 20.8385 11.3828 19.7466 12.9157C19.7466 12.9157 20.2589 7.64068 22.7821 8.15831Z" fill="#373646"/>
<path d="M19.1778 44.0645L17.9092 55.3518L22.9453 55.3518L20.6371 59.734L27.6667 71.0024" stroke="#E1B663" stroke-width="0.4"/>
<path d="M48.6098 41.9541L49.8784 53.2414L44.8423 53.2414L47.1505 57.6236L40.1209 68.8921" stroke="#E1B663" stroke-width="0.4"/>
<path d="M29.4175 72.5912L28.5117 47.9911L35.1669 49.5933L41.0231 47.0757L41.3422 72.5912L34.9038 73.0621L29.4175 72.5912Z" fill="white"/>
<path d="M32.3284 45.5127C32.8369 45.1012 35.1681 45.0665 35.4426 45.5127C35.7172 45.959 35.69 48.1977 35.4426 48.627C35.1953 49.0562 32.7944 49.1258 32.3284 48.627C31.8625 48.1281 31.82 45.9243 32.3284 45.5127Z" fill="#373646"/>
<path d="M35.6196 46.1516C36.6108 45.3492 39.4328 43.1529 40.7039 44.3729C41.9749 45.5928 41.1861 50.0938 40.7039 50.9307C40.2216 51.7676 36.2229 50.0736 35.3146 49.101C34.4063 48.1284 34.6284 46.954 35.6196 46.1516Z" fill="#373646"/>
<path d="M32.2369 46.3668C31.2457 45.5644 27.6112 44.0057 26.3402 45.2256C25.0691 46.4456 26.2773 50.4931 26.7595 51.33C27.2418 52.1669 31.6335 50.2888 32.5418 49.3162C33.4501 48.3437 33.228 47.1692 32.2369 46.3668Z" fill="#373646"/>
</g>
</svg>
