<?xml version="1.0" encoding="utf-8"?><svg xmlns="http://www.w3.org/2000/svg" xmlns:xlink="http://www.w3.org/1999/xlink"><symbol viewBox="0 0 31.938 22.53" id="about-users" xmlns="http://www.w3.org/2000/svg"><path d="M31.95 21.53v.01a1 1 0 01-1 .99h-7.412a1.248 1.248 0 00.972-1.21s0-4.5-3.3-6.14a5.822 5.822 0 00-2.206-.73l.02-1.95a3.672 3.672 0 01-1.011-2.43c-.482.13-.641-.57-.67-1.02-.026-.43-.279-1.78.31-1.66a11.832 11.832 0 01-.165-2.14 3.885 3.885 0 013.861-3.21c2.649.11 3.7 1.69 3.845 3.2a11.926 11.926 0 01-.172 2.15c.589-.12.333 1.23.3 1.66-.025.45-.188 1.15-.669 1.01a3.675 3.675 0 01-1.012 2.43l.018 1.94s.488.28 2.546 1.13 1.412.22 3.088 1.05c2.649 1.31 2.649 4.92 2.649 4.92zm-14.927-6.66c2.262.94 1.552.24 3.395 1.15 2.912 1.44 2.912 5.42 2.912 5.42a1.093 1.093 0 01-1.093 1.09H1.093A1.093 1.093 0 010 21.44s0-3.98 2.912-5.42c1.843-.91 1.133-.17 3.4-1.11a25.01 25.01 0 002.8-1.26l.021-2.15a4.04 4.04 0 01-1.11-2.67c-.53.15-.705-.62-.736-1.11s-.307-1.96.339-1.83a13.029 13.029 0 01-.18-2.36A4.272 4.272 0 0111.69.01c2.911.12 4.065 1.86 4.226 3.52a13.189 13.189 0 01-.189 2.36c.647-.13.366 1.35.334 1.82-.028.5-.207 1.27-.736 1.11a4 4 0 01-1.111 2.67l.019 2.14a30.239 30.239 0 002.79 1.24z" fill-rule="evenodd"/></symbol><symbol viewBox="0 0 21 12" id="arrow-down" xmlns="http://www.w3.org/2000/svg"><path data-name="ARROW / DOWN" d="M2.64.52l7.86 7.86L18.46.42a1.5 1.5 0 012.12 2.12l-9 9a1.511 1.511 0 01-1.08.46h-.01a1.528 1.528 0 01-1.08-.46l-9-9h.01A1.5 1.5 0 112.64.52z" fill-rule="evenodd"/></symbol><symbol viewBox="0 0 21 12" id="arrow-up" xmlns="http://www.w3.org/2000/svg"><path data-name="ARROW / DOWN" d="M2.64 11.47l7.86-7.85 7.96 7.96A1.5 1.5 0 0021 10.5a1.483 1.483 0 00-.42-1.04l-9-9A1.472 1.472 0 0010.5 0h-.01a1.488 1.488 0 00-1.08.46l-9 9h.01a1.5 1.5 0 102.22 2.01z" fill-rule="evenodd"/></symbol><symbol viewBox="0 0 16.031 14.25" id="blog-speech" xmlns="http://www.w3.org/2000/svg"><path data-name="SPEECH BUBBLE 2" d="M8.447 12.23a11.451 11.451 0 01-1.676-.25 6.352 6.352 0 01-5.647 2.23c2.441-1.15 2.391-3.07 1.957-3.32A5.615 5.615 0 01.013 6.13c0-3.4 3.727-6.14 8.434-6.14s7.577 2.74 7.577 6.14-2.869 6.1-7.577 6.1zM4.273 4.75a1.5 1.5 0 101.5 1.49 1.5 1.5 0 00-1.5-1.49zm3.75 0a1.5 1.5 0 101.5 1.49 1.5 1.5 0 00-1.5-1.49zm3.75 0a1.5 1.5 0 101.5 1.49 1.5 1.5 0 00-1.5-1.49z" fill-rule="evenodd"/></symbol><symbol viewBox="0 0 19.438 11.25" id="blog-view" xmlns="http://www.w3.org/2000/svg"><path d="M19.429 5.65a.117.117 0 000 .02v.05a.734.734 0 01-.2.41c-.2.25-.427.48-.651.71a16.685 16.685 0 01-4.123 3.12 11.065 11.065 0 01-3.09 1.12 9.027 9.027 0 01-3.55-.05 13.554 13.554 0 01-5.5-2.86A15.053 15.053 0 01.207 6.13a.778.778 0 010-1.05c.2-.24.426-.47.651-.7a16.648 16.648 0 014.123-3.12A11.048 11.048 0 018.07.14a8.843 8.843 0 013.55.05 13.433 13.433 0 015.5 2.86 14.981 14.981 0 012.108 2.03.8.8 0 01.2.41v.01a.059.059 0 010 .02v.01a.134.134 0 000 .02v.06l.001.04zm-9.72-3.84a3.645 3.645 0 103.646 3.65 3.645 3.645 0 00-3.646-3.65zm0 5.47a1.825 1.825 0 111.823-1.82 1.824 1.824 0 01-1.823 1.82z" fill-rule="evenodd"/></symbol><symbol viewBox="0 0 50 50" id="close" xmlns="http://www.w3.org/2000/svg"><path d="M9.156 6.313L6.312 9.155 22.157 25 6.22 40.969l2.81 2.811L25 27.844 40.938 43.78l2.843-2.843L27.844 25 43.687 9.156l-2.843-2.844L25 22.157z"/></symbol><symbol viewBox="0 0 16 16" id="dribbble" xmlns="http://www.w3.org/2000/svg"><path d="M15.837 6.4a7.9 7.9 0 00-.466-1.5 8.22 8.22 0 00-.738-1.36 8.093 8.093 0 00-.976-1.18 8.443 8.443 0 00-1.184-.98 7.971 7.971 0 00-8.947 0 8.434 8.434 0 00-1.183.98 8.093 8.093 0 00-.976 1.18A8.22 8.22 0 00.629 4.9a7.9 7.9 0 00-.467 1.5 8.131 8.131 0 000 3.23 7.9 7.9 0 00.467 1.5 8.22 8.22 0 00.738 1.36 8.093 8.093 0 00.976 1.18 8.434 8.434 0 001.183.98 7.971 7.971 0 008.947 0 8.443 8.443 0 001.184-.98 8.093 8.093 0 00.976-1.18 8.22 8.22 0 00.738-1.36 7.9 7.9 0 00.466-1.5 8.082 8.082 0 000-3.23zM14.83 7.95a15.962 15.962 0 00-4.759-.23 20.156 20.156 0 00-.601-1.34 8.874 8.874 0 003.807-2.7 6.794 6.794 0 011.553 4.27zm-2.317-5.06a7.451 7.451 0 01-3.569 2.47A34.349 34.349 0 006.39 1.38 6.581 6.581 0 018 1.18a6.812 6.812 0 014.513 1.71zM6.364 1.38a.039.039 0 00-.02.01.022.022 0 01.02-.01zm-1.279.46a40.568 40.568 0 012.537 3.93 25.7 25.7 0 01-6.308.84 6.831 6.831 0 013.771-4.77zM1.168 8.01V7.8a25.209 25.209 0 007.015-.97c.2.38.383.77.554 1.16a2.662 2.662 0 00-.269.08 10.8 10.8 0 00-5.557 4.51 6.807 6.807 0 01-1.743-4.57zM8 14.85a6.8 6.8 0 01-4.352-1.57l.153.12a9.25 9.25 0 015.362-4.27c.015 0 .03-.01.045-.01a28.411 28.411 0 011.459 5.19A6.951 6.951 0 018 14.85zm3.818-1.17a29.625 29.625 0 00-1.33-4.88 9.871 9.871 0 014.258.3 6.827 6.827 0 01-2.928 4.58z" fill-rule="evenodd"/></symbol><symbol viewBox="0 0 12.031 25.62" id="facebook" xmlns="http://www.w3.org/2000/svg"><path d="M11.995.01v4.12s-3.037-.3-3.8.86c-.416.64-.169 2.5-.206 3.84h4.029c-.34 1.56-.584 2.62-.835 3.98H7.967v12.8H2.385V12.86H.01V8.83h2.349c.12-2.95.165-5.87 1.629-7.35C5.634-.19 7.206.01 11.995.01z" fill-rule="evenodd"/></symbol><symbol viewBox="0 0 16 13.78" id="googleplus" xmlns="http://www.w3.org/2000/svg"><path data-name="google plus" d="M13.5 3.47v2.44h-1V3.47H10v-1h2.5V.03h1v2.44H16v1h-2.5zM6.585 1a2.55 2.55 0 011.408 2.33 2.721 2.721 0 01-1.239 2.1 1.356 1.356 0 00-.81 1.18A2.684 2.684 0 007.055 7.9a2.866 2.866 0 011.444 2.7c0 1.49-1.444 3.17-4.116 3.17C2.039 13.77 0 12.65 0 11.15c0-1.52 1.866-2.99 4.209-2.99.256 0 .49-.01.732-.01A1.621 1.621 0 014.367 7a1.774 1.774 0 01.213-.79c-.127.01-.257-.01-.391-.01A3.059 3.059 0 01.975 3.15C.975 1.51 2.756.01 4.648.01h4.22L7.923 1H6.585zM4.656 8.55c-1.62-.02-3.071.97-3.071 2.15 0 1.21 1.17 2.1 2.789 2.1 2.277 0 3.071-.82 3.071-2.03a1.8 1.8 0 00-.052-.43c-.178-.69-.808-1.02-1.688-1.62a3.209 3.209 0 00-1.049-.17zm1.82-5.2A2.813 2.813 0 004.12.79C3.033.76 2.304 1.83 2.492 3.23A2.827 2.827 0 004.8 5.83c1.087.03 1.863-1.08 1.676-2.48z" fill-rule="evenodd"/></symbol><symbol viewBox="0 0 17.62 14.031" id="hero-cart" xmlns="http://www.w3.org/2000/svg"><path data-name="SHOPPING CART" d="M17.54 3.1l-2.48 5.5a.815.815 0 01-.7.485l-7.12.475.41 1.177h7.76a1.65 1.65 0 11-1.65 1.651h-7.7a1.65 1.65 0 11-1.65-1.651H5.9L2.72 1.662H.83a.825.825 0 010-1.65h2.48a.835.835 0 01.78.554l.48 1.373h12.21a.826.826 0 01.83.825.941.941 0 01-.07.336zm-12.39.487l1.52 4.357 7.09-.473 1.75-3.884H5.15z" fill-rule="evenodd"/></symbol><symbol viewBox="0 0 17.62 17.625" id="hero-search" xmlns="http://www.w3.org/2000/svg"><path data-name="MAGNIFYING GLASS" d="M17.13 14.795a1.653 1.653 0 01-2.34 2.334l-4.83-4.836a6.627 6.627 0 112.33-2.334l4.84 4.836zM6.61 1.662a4.95 4.95 0 104.95 4.95 4.952 4.952 0 00-4.95-4.95z" fill-rule="evenodd"/></symbol><symbol viewBox="0 0 19.188 25.62" id="icon-map" xmlns="http://www.w3.org/2000/svg"><path data-name="PIN 2" d="M9.594 25.61s-9.6-10.7-9.6-16a9.6 9.6 0 0119.2 0c0 5.3-9.6 16-9.6 16zm0-22.4a6.4 6.4 0 106.4 6.4 6.4 6.4 0 00-6.4-6.4zm0 9.6a3.2 3.2 0 113.2-3.2 3.2 3.2 0 01-3.2 3.2z" fill-rule="evenodd"/></symbol><symbol viewBox="0 0 25.593 25.62" id="instagram" xmlns="http://www.w3.org/2000/svg"><path d="M22.387 25.61h-19.2a3.2 3.2 0 01-3.2-3.2V3.21a3.2 3.2 0 013.2-3.2h19.2a3.2 3.2 0 013.2 3.2v19.2a3.2 3.2 0 01-3.2 3.2zm-9.6-17.76a4.954 4.954 0 00-4.5 2.88.244.244 0 01-.022.05 6.4 6.4 0 00-.128.33c-.019.05-.04.1-.057.15-.037.11-.067.23-.1.34-.014.05-.03.11-.042.16-.026.12-.044.25-.061.37-.007.05-.017.1-.023.15a5.074 5.074 0 00-.029.53 4.96 4.96 0 109.92 0 5.074 5.074 0 00-.029-.53c-.006-.05-.016-.1-.023-.15-.017-.12-.035-.25-.061-.37a4.716 4.716 0 00-.042-.16c-.028-.11-.058-.23-.1-.34-.017-.05-.038-.1-.057-.15a6.4 6.4 0 00-.128-.33.244.244 0 01-.022-.05 4.954 4.954 0 00-4.496-2.88zm9.92-3.68a1.278 1.278 0 00-1.28-1.28h-2.56a1.278 1.278 0 00-1.28 1.28v2.56a1.278 1.278 0 001.28 1.28h2.56a1.278 1.278 0 001.28-1.28V4.17zm0 6.56h-2.36a7.84 7.84 0 11-15.12 0h-2.36v10.72a1.278 1.278 0 001.28 1.28h17.28a1.278 1.278 0 001.28-1.28V10.73z" fill-rule="evenodd"/></symbol><symbol viewBox="0 0 32 30.5" id="instruments-alarm" xmlns="http://www.w3.org/2000/svg"><path d="M30.74 9.5a15.727 15.727 0 00-8.243-8.24A5.868 5.868 0 0130.74 9.5zM30.5 16a14.442 14.442 0 01-3.963 9.94l2.029 2.03a1.482 1.482 0 01-1.049 2.53 1.51 1.51 0 01-1.049-.43l-2.178-2.18a14.471 14.471 0 01-16.566.01l-2.163 2.16a1.5 1.5 0 11-2.122-2.12l2.012-2.01A14.495 14.495 0 1130.5 16zM16 4.5A11.5 11.5 0 1027.5 16 11.5 11.5 0 0016 4.5zm6 13h-6a1.5 1.5 0 01-1.5-1.5V8a1.5 1.5 0 013 0v6.5H22a1.5 1.5 0 010 3zM1.287 9.71a5.994 5.994 0 018.419-8.42 16.016 16.016 0 00-8.419 8.42z" fill-rule="evenodd"/></symbol><symbol viewBox="0 0 31 28" id="instruments-computer" xmlns="http://www.w3.org/2000/svg"><path data-name="COMPUTER / OK" d="M29.5 23H20v2.5l2 2v.5H9v-.5l2-2V23H1.5A1.5 1.5 0 010 21.5v-20A1.5 1.5 0 011.5 0h28A1.5 1.5 0 0131 1.5v20a1.5 1.5 0 01-1.5 1.5zM29 2H2v17h27V2zM12.5 9a1.505 1.505 0 011.06.44l.94.94 2.94-2.94a1.5 1.5 0 112.12 2.12l-4 4a1.5 1.5 0 01-2.12 0l-2-2A1.5 1.5 0 0112.5 9z" fill-rule="evenodd"/></symbol><symbol viewBox="0 0 32 30.5" id="instruments-home" xmlns="http://www.w3.org/2000/svg"><path d="M32 16a1.493 1.493 0 01-2.52 1.09v.01L16.041 3.66l-.038-.04L2.557 17.07a1.525 1.525 0 01-1.053.43 1.5 1.5 0 01-1.5-1.5 1.479 1.479 0 01.461-1.08L14.923.46A1.51 1.51 0 0116.004 0h.092c.023 0 .045.01.068.01a1.479 1.479 0 01.933.47l5.9 5.9V5a1.5 1.5 0 013 0v4.38l5.6 5.6A1.485 1.485 0 0132 16zm-3 2.5V29a1.5 1.5 0 01-1.5 1.5h-3v-12h-6v12h-14A1.5 1.5 0 013 29V18.5l13-13zm-15.5 0h-6v6h6v-6z" fill-rule="evenodd"/></symbol><symbol viewBox="0 0 32 32" id="instruments-image" xmlns="http://www.w3.org/2000/svg"><path d="M30.5 32h-29A1.5 1.5 0 010 30.5v-29A1.5 1.5 0 011.5 0h29A1.5 1.5 0 0132 1.5v29a1.5 1.5 0 01-1.5 1.5zM29 3H3v26h26V3zM6.5 4.5H12a1.5 1.5 0 010 3H7.5V12a1.5 1.5 0 01-3 0V4.5h2zM4.5 20a1.5 1.5 0 013 0v4.5H12a1.5 1.5 0 010 3H4.5V20zM20 4.5h7.5V12a1.5 1.5 0 01-3 0V7.5H20a1.5 1.5 0 010-3zm0 20h4.5V20a1.5 1.5 0 013 0v7.5H20a1.5 1.5 0 010-3z" fill-rule="evenodd"/></symbol><symbol viewBox="0 0 32 32" id="instruments-linegraph" xmlns="http://www.w3.org/2000/svg"><path data-name="LINE GRAPH" d="M30.5 32h-29A1.5 1.5 0 010 30.5v-29A1.5 1.5 0 011.5 0h29A1.5 1.5 0 0132 1.5v29a1.5 1.5 0 01-1.5 1.5zM29 3H3v26h26V3zM5.215 16.24l4-2.5a1.524 1.524 0 011.625.03h.006l6.631 4.42 7.638-5.4a1.501 1.501 0 111.763 2.43l-8.5 6a1.486 1.486 0 01-.878.29 1.505 1.505 0 01-.861-.28L9.982 16.8l-3.135 1.96a1.533 1.533 0 01-.847.26 1.5 1.5 0 01-.785-2.78z" fill-rule="evenodd"/></symbol><symbol viewBox="0 0 32 32" id="instruments-seo" xmlns="http://www.w3.org/2000/svg"><path data-name="BOOK 2" d="M31.065 25.89l-14.471 5.99a1.53 1.53 0 01-1.188 0L.935 25.89A1.5 1.5 0 010 24.5v-23A1.5 1.5 0 011.5 0a1.55 1.55 0 01.573.11v.01h.013L16 5.88 29.911.12h.013V.11a1.55 1.55 0 01.573-.11 1.5 1.5 0 011.5 1.5v23a1.5 1.5 0 01-.932 1.39zM14.5 8.5L3 3.74V23.5l11.5 4.76V8.5zM29 3.74L17.5 8.5v19.76L29 23.5V3.74zm-9.121 6.89l5.5-2.5A1.593 1.593 0 0126 8a1.5 1.5 0 01.621 2.87l-5.5 2.5a1.6 1.6 0 01-.621.13 1.5 1.5 0 01-.621-2.87zm0 5.5l5.5-2.5A1.593 1.593 0 0126 13.5a1.5 1.5 0 01.621 2.87l-5.5 2.5v-.01a1.445 1.445 0 01-.621.14 1.5 1.5 0 01-.621-2.87zm0 5.5l5.5-2.5A1.593 1.593 0 0126 19a1.5 1.5 0 01.621 2.87l-5.5 2.5a1.6 1.6 0 01-.621.13 1.5 1.5 0 01-.621-2.87zM6 8a1.6 1.6 0 01.621.13l5.5 2.5a1.5 1.5 0 01-.621 2.87 1.593 1.593 0 01-.621-.13l-5.5-2.5A1.5 1.5 0 016 8zm0 5.5a1.6 1.6 0 01.621.13l5.5 2.5A1.5 1.5 0 0111.5 19a1.439 1.439 0 01-.621-.14v.01l-5.5-2.5A1.5 1.5 0 016 13.5zM6 19a1.6 1.6 0 01.621.13l5.5 2.5a1.5 1.5 0 01-.621 2.87 1.593 1.593 0 01-.621-.13l-5.5-2.5A1.5 1.5 0 016 19z" fill-rule="evenodd"/></symbol><symbol viewBox="0 0 30 30" id="menu" xmlns="http://www.w3.org/2000/svg"><path d="M3 7a1 1 0 100 2h24a1 1 0 100-2H3zm0 7a1 1 0 100 2h24a1 1 0 100-2H3zm0 7a1 1 0 100 2h24a1 1 0 100-2H3z"/></symbol><symbol viewBox="0 0 19.594 25.62" id="pinterest" xmlns="http://www.w3.org/2000/svg"><path d="M8.145 16.63c-.209.84-.42 1.71-.638 2.56a18.96 18.96 0 01-.718 2.47 12.691 12.691 0 01-2.043 3.53c-.575.66-.453.4-.626.36-.132-.03-.143-.16-.169-.34a19.314 19.314 0 01.007-3.34 17.909 17.909 0 01.589-3.47c.484-2.07.946-4.09 1.435-6.17a1.422 1.422 0 00.09-.44 6.471 6.471 0 01-.429-1.7 5.448 5.448 0 01.139-1.95A3.224 3.224 0 017.676 5.8a2.206 2.206 0 011.735.14 1.851 1.851 0 01.867 1.24 4.463 4.463 0 01-.08 1.89c-.267 1.22-.618 2.14-.937 3.31a3.648 3.648 0 00-.189 1.81 2.119 2.119 0 00.847 1.28 2.493 2.493 0 001.625.46 3.572 3.572 0 002.651-1.57 9.309 9.309 0 001.675-4.69 11.565 11.565 0 00.07-2.01 5.473 5.473 0 00-1.127-3.12 5.282 5.282 0 00-2.512-1.71 8.285 8.285 0 00-3.747-.23 6.613 6.613 0 00-4.915 3.53 7.085 7.085 0 00-.837 3.41 4.438 4.438 0 00.678 2.5c.133.2.328.37.458.6a1.718 1.718 0 01-.119 1.16c-.11.43-.122 1.01-.618 1.02a1.377 1.377 0 01-.638-.24 5.108 5.108 0 01-2.422-3.74 8.878 8.878 0 010-3.23 9.244 9.244 0 014.4-6.15A10.4 10.4 0 018.448.12a13.322 13.322 0 011.605-.13 9.627 9.627 0 014.326.8 8.862 8.862 0 012.98 2.15 8.14 8.14 0 011.834 3.31 7.922 7.922 0 01.4 2.29 13.861 13.861 0 01-.308 2.37 9.315 9.315 0 01-3.838 6.45 6.924 6.924 0 01-4 1.1 4.642 4.642 0 01-1.983-.58 3.306 3.306 0 01-1.319-1.25z" fill-rule="evenodd"/></symbol><symbol viewBox="0 0 63 61" id="quote-one-speech" xmlns="http://www.w3.org/2000/svg"><path data-name="SPEECH 4" d="M60 36h-2v5a2.979 2.979 0 01-.061.6 2.9 2.9 0 01-.122.4c-.02.05-.03.11-.053.17a2.746 2.746 0 01-.176.32c-.035.06-.061.13-.1.19a3.65 3.65 0 01-.334.4c-.012.01-.02.03-.033.04a3 3 0 01-2.084.87c-.012 0-.024.01-.037.01a3 3 0 01-2.121-.88L45.757 36H18a3 3 0 01-3-3V3a3 3 0 013-3h42a3 3 0 013 3v30a3 3 0 01-3 3zm-15.485 3l6.326 6.32h.008A6 6 0 0055 47v2a3 3 0 01-3 3H20.243l-8.122 8.12A3 3 0 0110 61c-.013 0-.024-.01-.037-.01a3 3 0 01-2.084-.87c-.013-.01-.021-.03-.033-.04a2.99 2.99 0 01-.334-.41 1.69 1.69 0 01-.1-.18 3.64 3.64 0 01-.177-.32c-.023-.06-.033-.12-.053-.17a2.627 2.627 0 01-.183-1v-6h-4a3 3 0 01-3-3V15a3 3 0 013-3h9v21a6 6 0 006 6h26.515z" fill-rule="evenodd"/></symbol><symbol viewBox="0 0 32 32" id="services-bullseye" xmlns="http://www.w3.org/2000/svg"><path d="M16 32a16 16 0 1116-16 16 16 0 01-16 16zm0-29a13 13 0 1013 13A13 13 0 0016 3zm0 22.5a9.5 9.5 0 119.5-9.5 9.5 9.5 0 01-9.5 9.5zm0-16a6.5 6.5 0 106.5 6.5A6.5 6.5 0 0016 9.5zm0 9.5a3 3 0 113-3 3 3 0 01-3 3z" fill-rule="evenodd"/></symbol><symbol viewBox="0 0 28 32" id="services-equalizer" xmlns="http://www.w3.org/2000/svg"><path d="M26.5 16.5h-3A1.5 1.5 0 0122 15V9a1.5 1.5 0 011.5-1.5h3A1.5 1.5 0 0128 9v6a1.5 1.5 0 01-1.5 1.5zm-3-15a1.5 1.5 0 013 0V6h-3V1.5zm-8 23h-3A1.5 1.5 0 0111 23v-6a1.5 1.5 0 011.5-1.5h3A1.5 1.5 0 0117 17v6a1.5 1.5 0 01-1.5 1.5zm-3-23a1.5 1.5 0 013 0V14h-3V1.5zm-8 19h-3A1.5 1.5 0 010 19v-6a1.5 1.5 0 011.5-1.5h3A1.5 1.5 0 016 13v6a1.5 1.5 0 01-1.5 1.5zm-3-19a1.5 1.5 0 013 0V10h-3V1.5zm3 29a1.5 1.5 0 01-3 0V22h3v8.5zm11 0a1.5 1.5 0 01-3 0V26h3v4.5zm11 0a1.5 1.5 0 01-3 0V18h3v12.5z" fill-rule="evenodd"/></symbol><symbol viewBox="0 0 30 30" id="services-picture" xmlns="http://www.w3.org/2000/svg"><path d="M30 24a1.505 1.505 0 01-1 1.41v1.68A1.5 1.5 0 1127.09 29h-1.68a1.493 1.493 0 01-2.818 0h-1.684a1.491 1.491 0 01-2.816 0h-1.684a1.491 1.491 0 01-2.816 0h-1.684a1.491 1.491 0 01-2.816 0H7.408a1.491 1.491 0 01-2.816 0H2.908A1.5 1.5 0 111 27.09v-1.68a1.494 1.494 0 010-2.82v-1.68a1.494 1.494 0 010-2.82v-1.68a1.494 1.494 0 010-2.82v-1.68a1.494 1.494 0 010-2.82V7.41a1.494 1.494 0 010-2.82V2.91A1.5 1.5 0 112.908 1h1.684a1.491 1.491 0 012.816 0h1.684a1.491 1.491 0 012.816 0h1.684a1.491 1.491 0 012.816 0h1.684a1.491 1.491 0 012.816 0h1.684a1.493 1.493 0 012.818 0h1.68A1.5 1.5 0 1129 2.91v1.68a1.494 1.494 0 010 2.82v1.68a1.494 1.494 0 010 2.82v1.68a1.494 1.494 0 010 2.82v1.68a1.494 1.494 0 010 2.82v1.68A1.505 1.505 0 0130 24zM26 4H4v22h22V4zM13 20l7-8.5 4.5 7v6h-19l6-6zm-3-7a3 3 0 113-3 3 3 0 01-3 3z" fill-rule="evenodd"/></symbol><symbol viewBox="0 0 10 16.03" id="tumblr" xmlns="http://www.w3.org/2000/svg"><path d="M10.009 15.15a9.526 9.526 0 01-1.849.67 7.785 7.785 0 01-1.789.2 4.728 4.728 0 01-1.718-.28 4.1 4.1 0 01-1.431-.79 2.892 2.892 0 01-.823-1.09 4.784 4.784 0 01-.228-1.68V6.57H.007V4.3a5.566 5.566 0 001.8-.88 4.389 4.389 0 001.075-1.37A6.3 6.3 0 003.44.01H5.7v3.7h3.682v2.86H5.7v4.1a7.024 7.024 0 00.086 1.73 1.494 1.494 0 00.607.69 2.32 2.32 0 001.209.32 4.31 4.31 0 002.406-.79v2.53z" fill-rule="evenodd"/></symbol><symbol viewBox="0 0 25.594 20.79" id="twitter" xmlns="http://www.w3.org/2000/svg"><path d="M17.419.01a5.393 5.393 0 014.151 1.65 8.665 8.665 0 002.691-.91l.653-.36a5.272 5.272 0 01-1.7 2.47 2.512 2.512 0 01-.577.41v.01a9.769 9.769 0 002.973-.8v.01a8.535 8.535 0 01-1.781 2.04c-.273.22-.547.44-.82.65a15.155 15.155 0 01-.243 3.38c-1.312 5.89-4.788 9.89-10.289 11.61a15.83 15.83 0 01-7.432.31 19.915 19.915 0 01-3.087-1.01 11.506 11.506 0 01-1.487-.77c-.154-.09-.307-.19-.461-.28a9.219 9.219 0 001.678.06c.517-.08 1.023-.06 1.5-.16a10.77 10.77 0 003.151-1.14 5.97 5.97 0 001.423-.93 4.58 4.58 0 01-1.563-.28 5.294 5.294 0 01-3.332-3.36 5.194 5.194 0 002.345-.11 3.767 3.767 0 01-1.717-.69 5.032 5.032 0 01-2.473-4.49c.18.08.359.17.538.25a5.152 5.152 0 001.1.31 1.444 1.444 0 00.718.06h-.026c-.264-.3-.695-.51-.961-.84a5.365 5.365 0 01-1.179-4.76A6 6 0 011.776.97c.009 0 .017.01.026.01a3.044 3.044 0 00.474.55 9.443 9.443 0 001.563 1.5 15.43 15.43 0 006.419 3.1 10.137 10.137 0 002.358.31 4.908 4.908 0 01.025-2.47A5.165 5.165 0 0115.614.45 5.9 5.9 0 0116.78.09c.212-.03.426-.05.639-.08z" fill-rule="evenodd"/></symbol><symbol viewBox="0 0 16 11" id="youtube" xmlns="http://www.w3.org/2000/svg"><path d="M13.537-.01H2.883C1.525-.01 0 .9 0 2.23v6.62c0 1.33 1.525 2.14 2.883 2.14h10.654a2.223 2.223 0 002.459-2.14V2.23a2.3 2.3 0 00-2.459-2.24zM6.964 8.04L6.932 3l3.508 2.54z" fill-rule="evenodd"/></symbol></svg>