<?xml version="1.0" encoding="utf-8"?><svg xmlns="http://www.w3.org/2000/svg" xmlns:xlink="http://www.w3.org/1999/xlink"><symbol viewBox="0 0 30.344 30" id="fb" xmlns="http://www.w3.org/2000/svg"><path d="M15.171 0A15 15 0 110 15 15.086 15.086 0 0115.171 0zm-3.314 14.9h1.272v6.2h2.823v-6.2h1.994l.542-2.3h-2.653a1.712 1.712 0 01.186-1.315 1.55 1.55 0 011.033-.325 2.809 2.809 0 011.333.5l.572-2.029a8.3 8.3 0 00-2.36-.519 4.278 4.278 0 00-2 .4 2.277 2.277 0 00-1.069 1.17 3.829 3.829 0 00-.327 1.814v.3H11.9z" fill-rule="evenodd"/></symbol><symbol viewBox="0 0 30.34 30" id="tw" xmlns="http://www.w3.org/2000/svg"><path d="M15.17 0A15 15 0 110 15 15.085 15.085 0 0115.17 0zM8.19 17.04a13.358 13.358 0 002.63.612A1.484 1.484 0 0012.55 17a.31.31 0 00-.08-.481s-2.94-.324-2.72-.835c0 0-.01-.289.39-.223 0 0 .57-1.032.35-1.163 0 0-.35-.288-.07-.314 0 0 .82.1 1.09.17 0 0 .18-.062.01-.18a.858.858 0 01-.39-.436s.1-.222.54-.039c0 0 .25-.253.13-.383 0 0-.38-.21-.2-.381 0 0 .86-1 1.81.58 0 0 .24.3.26.013 0 0 1.17-3.1 2.7-3.35a.842.842 0 00.58-.053.789.789 0 01.57-.025.231.231 0 00.31.078s.6-.223.42.144a2.806 2.806 0 01-.79.61c-.21.012-.17.278.01.3 0 0 2.52.17 2.52 1.927 0 0 .15.417.63-.016a5.392 5.392 0 01.9-.45s.2-.117.17.158a3.3 3.3 0 01-1.05 1.076s-.32.38.14.3a3 3 0 00.66-.2s.54-.25.29.2a7.246 7.246 0 01-1.4.7.213.213 0 00-.17.183s-.15 4.785-6.57 4.785a7.869 7.869 0 01-5.31-2.311s-.41-.411-.09-.345z" fill-rule="evenodd"/></symbol><symbol viewBox="0 0 30.34 30" id="vk" xmlns="http://www.w3.org/2000/svg"><path d="M15.16 0A15 15 0 11-.01 15 15.085 15.085 0 0115.16 0zm2.8 14.671v-.063a2.375 2.375 0 001.47-2.42 2.747 2.747 0 00-2.37-2.716c-.3-.044-3.51-.1-4.77-.1a.864.864 0 00-.93.984V19.7a1.023 1.023 0 00.93.926h3.35c-.9 0 4.44.265 4.26-3.281a2.774 2.774 0 00-1.94-2.675zm-2.66-.685c-.48.025-1.09.077-1.09.077V11.25s.28-.02.95 0a1.213 1.213 0 011.4 1.438 1.252 1.252 0 01-1.26 1.297zm.33 4.764h-1.42v-2.812s.86-.014 1.42 0a1.378 1.378 0 011.42 1.406 1.343 1.343 0 01-1.42 1.405z" fill-rule="evenodd"/></symbol></svg>