<svg width="245" height="245" viewBox="0 0 245 245" fill="none" xmlns="http://www.w3.org/2000/svg">
<path d="M228.289 122.714L238.074 123.243L237.592 132.162L227.806 131.633L227.928 129.382L236.386 129.84L235.84 130.329L236.135 124.877L236.625 125.422L228.167 124.965L228.289 122.714Z" fill="#2A1F15"/>
<path d="M227.667 134.275L236.568 140.266L236.182 142.473L225.774 145.1L226.184 142.756L235.324 140.716L235.169 141.599L227.267 136.564L227.667 134.275ZM229.36 136.788L230.952 137.678L230.084 142.642L228.281 142.952L229.36 136.788Z" fill="#2A1F15"/>
<path d="M225.18 147.671L234.578 150.448L233.376 154.516C233.127 155.358 232.774 156.042 232.317 156.568C231.868 157.098 231.34 157.453 230.732 157.633C230.124 157.813 229.466 157.799 228.759 157.59C228.061 157.384 227.506 157.04 227.094 156.558C226.681 156.076 226.426 155.489 226.329 154.799C226.24 154.111 226.32 153.346 226.569 152.505L227.414 149.645L228.109 150.901L224.537 149.846L225.18 147.671ZM227.867 150.83L229.186 150.169L228.377 152.908C228.178 153.579 228.174 154.122 228.362 154.538C228.551 154.954 228.9 155.237 229.41 155.388C229.929 155.542 230.381 155.495 230.765 155.249C231.15 155.002 231.441 154.543 231.639 153.872L232.449 151.133L233.197 152.405L227.867 150.83Z" fill="#2A1F15"/>
<path d="M221.871 158.585L230.897 162.402L230.019 164.478L224.14 161.991L228.198 168.785L227.369 170.745L218.343 166.927L219.216 164.864L225.082 167.346L221.037 160.558L221.871 158.585Z" fill="#2A1F15"/>
<path d="M213.823 175.446L219.431 175.094L219.498 177.235L212.562 177.692L213.823 175.446ZM216.941 169.891L225.487 174.688L224.383 176.654L215.837 171.857L216.941 169.891ZM219.602 173.215L221.25 174.141L219.578 177.119L217.93 176.194L219.602 173.215ZM218.369 176.842L219.61 175.146L222.328 180.316L221.156 182.404L218.369 176.842Z" fill="#2A1F15"/>
<path d="M211.297 179.853L219.201 185.647L218.092 187.16L210.048 186.436L210.635 185.634L213.788 193.031L212.679 194.544L204.767 188.762L206.025 187.045L211.306 190.899L211.066 191.227L208.574 185.321L209.17 184.508L215.594 185.05L215.312 185.434L210.039 181.569L211.297 179.853Z" fill="#2A1F15"/>
<path d="M203.339 190.6L207.433 200.518L205.89 202.141L195.768 198.567L197.407 196.841L206.148 200.204L205.531 200.853L201.738 192.285L203.339 190.6ZM203.356 193.63L204.19 195.253L200.718 198.906L199.045 198.166L203.356 193.63Z" fill="#2A1F15"/>
<path d="M200.833 207.301L198.828 208.984L195.365 208.016L195.718 211.594L193.68 213.304L193.164 207.614L187.177 205.968L189.225 204.249L193.061 205.27L192.7 201.333L194.706 199.65L195.246 205.74L200.833 207.301Z" fill="#2A1F15"/>
<path d="M186.562 213.632L182.657 216.28L181.667 214.82L185.571 212.172L186.562 213.632ZM184.159 210.389L179.745 213.383L178.723 211.877L185.003 207.618L190.504 215.728L184.375 219.886L183.353 218.379L187.617 215.487L184.159 210.389Z" fill="#2A1F15"/>
<path d="M176.269 213.43L180.907 222.063L177.17 224.071C176.397 224.486 175.663 224.716 174.967 224.762C174.275 224.816 173.651 224.69 173.095 224.385C172.539 224.079 172.087 223.602 171.738 222.952C171.393 222.311 171.247 221.675 171.3 221.042C171.352 220.41 171.589 219.817 172.011 219.261C172.438 218.714 173.038 218.233 173.811 217.818L176.437 216.407L176.033 217.784L174.271 214.504L176.269 213.43ZM175.914 217.562L177.312 218.035L174.796 219.386C174.18 219.718 173.79 220.097 173.627 220.523C173.464 220.95 173.509 221.397 173.76 221.866C174.017 222.343 174.367 222.631 174.813 222.731C175.259 222.83 175.79 222.714 176.406 222.383L178.922 221.031L178.544 222.458L175.914 217.562Z" fill="#2A1F15"/>
<path d="M161.745 220.328C162.446 220.044 163.144 219.891 163.841 219.871C164.532 219.862 165.185 219.981 165.798 220.226C166.411 220.471 166.958 220.828 167.44 221.297C167.914 221.77 168.289 222.347 168.566 223.031C168.844 223.714 168.977 224.39 168.966 225.059C168.947 225.732 168.802 226.37 168.533 226.972C168.255 227.578 167.863 228.115 167.358 228.582C166.855 229.057 166.25 229.439 165.541 229.726C164.753 230.046 163.988 230.195 163.244 230.174C162.496 230.165 161.798 229.985 161.152 229.633L161.996 227.84C162.451 228.068 162.904 228.192 163.355 228.211C163.809 228.238 164.261 228.16 164.711 227.978C165.135 227.806 165.496 227.579 165.794 227.297C166.093 227.015 166.319 226.691 166.474 226.327C166.628 225.962 166.707 225.573 166.71 225.158C166.704 224.748 166.614 224.326 166.439 223.894C166.263 223.461 166.035 223.096 165.752 222.797C165.462 222.502 165.134 222.277 164.769 222.123C164.404 221.969 164.017 221.894 163.606 221.9C163.195 221.905 162.778 221.994 162.354 222.166C161.904 222.348 161.524 222.603 161.214 222.93C160.907 223.266 160.671 223.679 160.507 224.168L158.653 223.47C158.872 222.767 159.245 222.147 159.773 221.611C160.292 221.078 160.949 220.65 161.745 220.328Z" fill="#2A1F15"/>
<path d="M149.318 224.653L153.54 228.361L152.077 229.925L146.839 225.355L149.318 224.653ZM155.447 222.917L158.118 232.346L155.949 232.961L153.278 223.531L155.447 222.917ZM154.987 227.151L155.502 228.969L152.216 229.9L151.7 228.082L154.987 227.151ZM151.554 228.851L153.63 228.525L151.908 234.105L149.604 234.758L151.554 228.851Z" fill="#2A1F15"/>
<path d="M144.379 225.939L145.957 235.612L143.732 235.974L142.705 229.674L139.117 236.727L137.017 237.07L135.44 227.398L137.65 227.037L138.676 233.324L142.265 226.284L144.379 225.939Z" fill="#2A1F15"/>
<path d="M132.088 227.801L132.541 237.591L130.29 237.695L129.994 231.318L125.619 237.911L123.493 238.01L123.039 228.22L125.277 228.117L125.572 234.48L129.948 227.9L132.088 227.801ZM128.053 238.429C128.986 238.386 129.679 238.541 130.135 238.893C130.581 239.246 130.825 239.763 130.865 240.443L129.313 240.515C129.288 240.18 129.178 239.928 128.984 239.76C128.78 239.601 128.487 239.53 128.105 239.548C127.732 239.565 127.452 239.662 127.264 239.839C127.076 240.026 126.985 240.287 126.992 240.623L125.439 240.695C125.417 240.014 125.616 239.476 126.037 239.083C126.458 238.69 127.13 238.472 128.053 238.429Z" fill="#2A1F15"/>
<path d="M114.48 227.996L113.312 237.726L111.074 237.457L111.835 231.119L106.431 236.9L104.318 236.646L105.487 226.916L107.711 227.183L106.951 233.508L112.353 227.74L114.48 227.996Z" fill="#2A1F15"/>
<path d="M93.3269 234.336L91.1229 233.801L93.4338 224.277L95.6378 224.812L93.3269 234.336ZM99.9643 225.862L102.168 226.397L99.8574 235.921L97.6534 235.386L99.9643 225.862ZM94.5271 228.677L99.1801 229.806L98.7278 231.67L94.0748 230.541L94.5271 228.677Z" fill="#2A1F15"/>
<path d="M85.8228 221.576C86.5326 221.836 87.1524 222.193 87.6823 222.646C88.2001 223.104 88.6038 223.63 88.8933 224.223C89.1827 224.816 89.3485 225.449 89.3905 226.12C89.4238 226.789 89.3136 227.469 89.0597 228.161C88.8059 228.853 88.4502 229.444 87.9928 229.932C87.5266 230.417 86.9914 230.793 86.387 231.058C85.7739 231.32 85.1233 231.455 84.4351 231.461C83.7437 231.476 83.0387 231.351 82.3202 231.088C81.5228 230.795 80.8556 230.392 80.3188 229.877C79.7699 229.367 79.3744 228.765 79.1323 228.07L80.962 227.309C81.1457 227.784 81.3982 228.18 81.7195 228.497C82.0376 228.822 82.4245 229.068 82.8801 229.235C83.3095 229.393 83.7296 229.467 84.1402 229.459C84.5509 229.45 84.9359 229.363 85.2952 229.196C85.6545 229.03 85.9745 228.794 86.2552 228.49C86.5271 228.182 86.7434 227.809 86.9041 227.371C87.0647 226.932 87.1408 226.508 87.1324 226.097C87.1151 225.683 87.0233 225.297 86.8568 224.938C86.6903 224.578 86.4531 224.263 86.1452 223.991C85.8374 223.719 85.4688 223.504 85.0394 223.347C84.5837 223.18 84.131 223.113 83.6811 223.147C83.2281 223.19 82.7764 223.337 82.326 223.589L81.4217 221.826C82.0558 221.452 82.7485 221.244 83.4998 221.202C84.2423 221.156 85.0166 221.281 85.8228 221.576Z" fill="#2A1F15"/>
<path d="M77.4832 218.309L73.81 225.941L73.5679 225.249L76.8478 226.828L76.0464 228.493L68.3891 224.808L69.1905 223.143L72.4704 224.721L71.7916 224.969L75.4648 217.337L77.4832 218.309Z" fill="#2A1F15"/>
<path d="M70.8628 215.04L65.7547 223.404L62.1345 221.192C61.3858 220.735 60.816 220.218 60.4252 219.64C60.0295 219.07 59.823 218.468 59.8055 217.834C59.7881 217.2 59.9716 216.569 60.3559 215.939C60.7354 215.318 61.2111 214.87 61.7831 214.596C62.3551 214.322 62.9873 214.227 63.6798 214.311C64.3674 214.403 65.0855 214.678 65.8342 215.135L68.3791 216.689L66.9862 217.036L68.9273 213.858L70.8628 215.04ZM67.1175 216.821L67.4159 218.266L64.9785 216.778C64.3811 216.413 63.8573 216.268 63.4069 216.343C62.9565 216.418 62.5926 216.682 62.3153 217.136C62.0332 217.598 61.9616 218.047 62.1007 218.481C62.2397 218.916 62.6079 219.316 63.2053 219.681L65.6426 221.17L64.2205 221.564L67.1175 216.821Z" fill="#2A1F15"/>
<path d="M59.7316 210.207C59.4004 209.75 59.0708 209.437 58.7428 209.266C58.4018 209.096 57.9798 209.101 57.4769 209.278L56.6636 209.552L56.3519 209.612L49.8949 212.654L48.1337 211.292L56.1781 207.708C56.9016 207.382 57.5805 207.229 58.215 207.247C58.8421 207.26 59.4099 207.434 59.9184 207.768C60.4326 208.095 60.8654 208.565 61.2168 209.179L59.7316 210.207ZM57.5411 208.142L55.9979 217.372L54.0817 215.89L55.5364 208.698L57.5411 208.142Z" fill="#2A1F15"/>
<path d="M52.144 201.968L45.2649 208.947L43.9287 207.631L45.812 199.776L46.52 200.474L38.7437 202.52L37.4076 201.204L44.2767 194.214L45.7923 195.708L41.213 200.374L40.9238 200.089L47.1292 198.48L47.8471 199.187L46.378 205.465L46.039 205.13L50.6284 200.474L52.144 201.968Z" fill="#2A1F15"/>
<path d="M36.1842 193.727L33.2311 190.047L34.6068 188.943L37.5599 192.623L36.1842 193.727ZM39.2235 191.072L35.8849 186.912L37.3043 185.773L42.0538 191.691L34.4108 197.825L29.7753 192.049L31.1947 190.91L34.4194 194.928L39.2235 191.072Z" fill="#2A1F15"/>
<path d="M23.7337 183.201L22.5091 181.292L30.758 176.001L31.9825 177.91L23.7337 183.201ZM34.3862 181.657L35.6107 183.566L27.3619 188.857L26.1373 186.948L34.3862 181.657ZM28.5098 179.938L31.0949 183.968L29.4805 185.003L26.8954 180.973L28.5098 179.938Z" fill="#2A1F15"/>
<path d="M28.0185 170.94L20.4418 174.726L20.6736 174.031L22.3007 177.288L20.6476 178.114L16.849 170.512L18.5021 169.686L20.1292 172.942L19.4405 172.723L27.0173 168.937L28.0185 170.94Z" fill="#2A1F15"/>
<path d="M16.5324 145.453C16.5978 145.764 16.5853 146.067 16.495 146.362C16.3935 146.651 16.2313 146.9 16.0083 147.109C15.7761 147.32 15.4911 147.461 15.1532 147.532C14.8153 147.603 14.5021 147.588 14.2137 147.487C13.9253 147.385 13.681 147.222 13.4811 146.997C13.27 146.765 13.1318 146.494 13.0664 146.183C13.001 145.873 13.019 145.573 13.1204 145.285C13.2108 144.989 13.3675 144.737 13.5905 144.528C13.8135 144.318 14.094 144.178 14.4319 144.107C14.7698 144.036 15.0876 144.05 15.3851 144.15C15.6735 144.251 15.9233 144.418 16.1343 144.65C16.3343 144.875 16.467 145.143 16.5324 145.453Z" fill="#979696"/>
<path d="M16.0454 120.374L6.2665 119.732L6.85189 110.819L16.6308 111.461L16.4831 113.711L8.03131 113.156L8.58214 112.673L8.2243 118.121L7.74136 117.57L16.1932 118.125L16.0454 120.374Z" fill="#2A1F15"/>
<path d="M16.731 109.31L7.87628 103.251L8.27913 101.048L18.7074 98.4994L18.2794 100.841L9.1239 102.81L9.28504 101.929L17.1489 107.024L16.731 109.31ZM15.058 106.784L13.4723 105.882L14.3787 100.925L16.1834 100.628L15.058 106.784Z" fill="#2A1F15"/>
<path d="M19.3038 95.9542L9.92696 93.1055L11.16 89.0467C11.415 88.2072 11.7732 87.5259 12.2345 87.0028C12.6869 86.4769 13.2178 86.1261 13.8272 85.9503C14.4366 85.7745 15.0941 85.7938 15.7996 86.0081C16.4962 86.2197 17.0488 86.5681 17.4574 87.0531C17.8661 87.5382 18.1166 88.1264 18.2089 88.8178C18.2923 89.5064 18.2065 90.2705 17.9515 91.1099L17.0847 93.9632L16.3999 92.7016L19.9631 93.7841L19.3038 95.9542ZM16.641 92.7749L15.3165 93.426L16.1467 90.6933C16.3502 90.0235 16.3592 89.48 16.1738 89.0628C15.9884 88.6456 15.6412 88.3596 15.1322 88.205C14.6142 88.0476 14.1622 88.0907 13.776 88.3344C13.3899 88.578 13.0951 89.0347 12.8916 89.7044L12.0614 92.4371L11.323 91.1593L16.641 92.7749Z" fill="#2A1F15"/>
<path d="M22.8428 84.6453L13.8603 80.7269L14.7615 78.6609L20.613 81.2134L16.6311 74.3749L17.482 72.4244L26.4645 76.3429L25.5689 78.396L19.7303 75.849L23.6993 82.682L22.8428 84.6453Z" fill="#2A1F15"/>
<path d="M30.967 68.0591L25.3554 68.3492L25.3123 66.2079L32.2527 65.8269L30.967 68.0591ZM27.7879 73.5791L19.2957 68.6881L20.4206 66.7349L28.9128 71.6258L27.7879 73.5791ZM25.1633 70.2257L23.5255 69.2824L25.2303 66.3223L26.8681 67.2655L25.1633 70.2257ZM26.4362 66.6129L25.1768 68.2947L22.5167 63.0953L23.7115 61.0208L26.4362 66.6129Z" fill="#2A1F15"/>
<path d="M33.443 63.7588L25.6029 57.8789L26.7285 56.3781L34.7645 57.19L34.1681 57.9852L31.0965 50.554L32.2221 49.0532L40.0705 54.922L38.7937 56.6244L33.5549 52.7128L33.7985 52.388L36.2261 58.3212L35.6213 59.1276L29.2037 58.5144L29.4893 58.1336L34.7198 62.0564L33.443 63.7588Z" fill="#2A1F15"/>
<path d="M41.6477 52.9003L37.6616 42.9389L39.2223 41.3321L49.3051 45.0171L47.6468 46.7243L38.9435 43.2668L39.5678 42.624L43.267 51.2333L41.6477 52.9003ZM41.6631 49.8705L40.8474 48.2389L44.359 44.6236L46.0234 45.3816L41.6631 49.8705Z" fill="#2A1F15"/>
<path d="M43.8572 36.6284L45.8749 34.9601L49.3306 35.954L49.0039 32.3731L51.0539 30.6781L51.5284 36.3712L57.5036 38.0614L55.4428 39.7653L51.6144 38.7162L51.9469 42.6556L49.9292 44.3239L49.433 38.2309L43.8572 36.6284Z" fill="#2A1F15"/>
<path d="M58.5966 30.0716L62.53 27.4664L63.5041 28.937L59.5706 31.5423L58.5966 30.0716ZM60.9631 33.3404L65.4101 30.395L66.4151 31.9123L60.0889 36.1024L54.6774 27.932L60.8518 23.8424L61.8568 25.3598L57.5615 28.2047L60.9631 33.3404Z" fill="#2A1F15"/>
<path d="M68.7596 30.4276L64.2175 21.7438L67.9764 19.7777C68.7538 19.3711 69.4907 19.1489 70.1872 19.1111C70.8794 19.0651 71.5017 19.1977 72.0543 19.5091C72.6069 19.8204 73.054 20.3028 73.3958 20.9561C73.7332 21.6012 73.8722 22.2395 73.8128 22.871C73.7533 23.5024 73.5095 24.0934 73.0812 24.644C72.6486 25.1862 72.0436 25.6607 71.2662 26.0673L68.6238 27.4494L69.0433 26.0766L70.7693 29.3765L68.7596 30.4276ZM69.1601 26.2999L67.7673 25.8119L70.298 24.4882C70.9183 24.1637 71.3122 23.7892 71.4798 23.3645C71.6474 22.9397 71.6079 22.4917 71.3613 22.0203C71.1104 21.5406 70.7627 21.2485 70.3183 21.1439C69.8739 21.0393 69.3415 21.1492 68.7212 21.4736L66.1905 22.7973L66.5841 21.3749L69.1601 26.2999Z" fill="#2A1F15"/>
<path d="M83.1927 23.7165C82.489 23.9927 81.7887 24.1372 81.0918 24.1499C80.4003 24.1506 79.7494 24.025 79.1393 23.7732C78.5291 23.5213 77.9855 23.1581 77.5085 22.6836C77.0402 22.2056 76.6714 21.6235 76.402 20.9371C76.1327 20.2507 76.0071 19.5731 76.0254 18.9042C76.0523 18.2319 76.2038 17.5959 76.4798 16.9963C76.7646 16.3933 77.1623 15.8612 77.6732 15.4001C78.1806 14.9302 78.7905 14.5555 79.503 14.2759C80.2936 13.9657 81.0606 13.8251 81.804 13.8542C82.5526 13.8712 83.2481 14.0595 83.8905 14.419L83.0261 16.202C82.5735 15.9685 82.122 15.8399 81.6715 15.8162C81.2176 15.7838 80.7648 15.8562 80.313 16.0335C79.8873 16.2005 79.5236 16.4235 79.2219 16.7023C78.9203 16.9811 78.6903 17.302 78.5319 17.6649C78.3735 18.0278 78.2904 18.4164 78.2825 18.8306C78.2833 19.2413 78.3689 19.6639 78.5394 20.0983C78.7098 20.5328 78.9345 20.9008 79.2133 21.2025C79.5008 21.5007 79.826 21.729 80.1889 21.8874C80.5519 22.0458 80.9387 22.1246 81.3495 22.1238C81.7603 22.123 82.1785 22.0391 82.6042 21.872C83.056 21.6947 83.439 21.4442 83.7531 21.1204C84.0637 20.7879 84.3039 20.3778 84.4735 19.8902L86.3198 20.6094C86.0934 21.3099 85.7132 21.9253 85.1794 22.4556C84.6543 22.9825 83.992 23.4028 83.1927 23.7165Z" fill="#2A1F15"/>
<path d="M95.7083 19.4622L91.5285 15.7067L93.0094 14.1595L98.1947 18.7884L95.7083 19.4622ZM89.5601 21.1283L86.9968 11.6695L89.1723 11.0799L91.7356 20.5388L89.5601 21.1283ZM90.0679 16.9003L89.5735 15.0761L92.8706 14.1826L93.365 16.0068L90.0679 16.9003ZM93.5197 15.2396L91.4404 15.542L93.2261 9.98138L95.5368 9.35521L93.5197 15.2396Z" fill="#2A1F15"/>
<path d="M100.904 18.1406L99.4376 8.4509L101.666 8.11365L102.621 14.4258L106.29 7.41402L108.394 7.09562L109.86 16.7853L107.645 17.1205L106.692 10.8222L103.022 17.8201L100.904 18.1406Z" fill="#2A1F15"/>
<path d="M112.979 16.3997L112.639 6.60562L114.891 6.52734L115.113 12.9075L119.564 6.36495L121.691 6.29105L122.032 16.0851L119.793 16.1629L119.572 9.79678L115.12 16.3253L112.979 16.3997ZM117.136 5.81896C116.203 5.85137 115.511 5.68864 115.06 5.33077C114.618 4.97257 114.38 4.45317 114.347 3.77257L115.9 3.71861C115.921 4.05408 116.028 4.30719 116.221 4.47793C116.423 4.63902 116.715 4.71292 117.097 4.69964C117.47 4.68667 117.752 4.59283 117.942 4.41813C118.132 4.2341 118.225 3.97402 118.223 3.6379L119.776 3.58393C119.79 4.26518 119.585 4.79997 119.159 5.18831C118.734 5.57666 118.059 5.78687 117.136 5.81896Z" fill="#2A1F15"/>
<path d="M130.101 16.2855L131.344 6.56466L133.58 6.8505L132.77 13.183L138.218 7.44349L140.329 7.71336L139.086 17.4342L136.864 17.1502L137.672 10.8316L132.226 16.5572L130.101 16.2855Z" fill="#2A1F15"/>
<path d="M151.512 10.0927L153.712 10.6443L151.329 20.1501L149.129 19.5985L151.512 10.0927ZM144.811 18.5159L142.611 17.9643L144.994 8.45851L147.194 9.01006L144.811 18.5159ZM150.269 15.742L145.625 14.5776L146.091 12.7172L150.736 13.8816L150.269 15.742Z" fill="#2A1F15"/>
<path d="M158.907 22.8642C158.2 22.5986 157.583 22.2375 157.056 21.7807C156.542 21.3186 156.142 20.7898 155.857 20.1944C155.572 19.599 155.411 18.9653 155.374 18.2935C155.346 17.625 155.461 16.9455 155.72 16.2552C155.979 15.5649 156.339 14.9772 156.8 14.4923C157.27 14.0107 157.808 13.6394 158.414 13.3784C159.03 13.1207 159.681 12.9914 160.369 12.9904C161.061 12.9807 161.765 13.1103 162.481 13.3792C163.277 13.6776 163.941 14.0862 164.474 14.6052C165.019 15.1188 165.41 15.724 165.647 16.421L163.811 17.1678C163.631 16.6915 163.382 16.2938 163.063 15.9748C162.747 15.647 162.362 15.3979 161.908 15.2274C161.479 15.0667 161.06 14.9891 160.649 14.9945C160.238 14.9998 159.853 15.0844 159.492 15.2482C159.132 15.412 158.81 15.6452 158.527 15.9477C158.253 16.2535 158.034 16.6249 157.87 17.0618C157.706 17.4987 157.627 17.9226 157.632 18.3333C157.646 18.7473 157.735 19.1346 157.899 19.4951C158.063 19.8556 158.297 20.173 158.603 20.4472C158.909 20.7215 159.276 20.9389 159.704 21.0996C160.159 21.2701 160.611 21.3401 161.061 21.3096C161.514 21.2704 161.967 21.1263 162.419 20.8773L163.31 22.6471C162.673 23.0162 161.979 23.2193 161.228 23.2563C160.485 23.2966 159.711 23.1659 158.907 22.8642Z" fill="#2A1F15"/>
<path d="M167.459 26.2646L171.217 18.6739L171.451 19.3679L168.189 17.753L169.009 16.0968L176.625 19.8671L175.805 21.5233L172.543 19.9083L173.224 19.6677L169.466 27.2584L167.459 26.2646Z" fill="#2A1F15"/>
<path d="M174.145 29.6139L179.345 21.3073L182.941 23.5581C183.684 24.0236 184.248 24.5474 184.633 25.1294C185.022 25.7035 185.222 26.3076 185.233 26.9418C185.243 27.576 185.053 28.2055 184.661 28.8305C184.275 29.4476 183.794 29.89 183.219 30.1576C182.644 30.4253 182.011 30.5134 181.32 30.4219C180.633 30.3225 179.918 30.04 179.174 29.5745L176.647 27.9922L178.044 27.6608L176.068 30.8173L174.145 29.6139ZM177.91 27.8744L177.627 26.4258L180.048 27.9412C180.642 28.3127 181.164 28.4634 181.615 28.3935C182.066 28.3236 182.433 28.0632 182.715 27.6122C183.002 27.1534 183.079 26.7058 182.945 26.2694C182.81 25.833 182.447 25.4291 181.853 25.0576L179.433 23.5422L180.859 23.1634L177.91 27.8744Z" fill="#2A1F15"/>
<path d="M184.958 34.3279C185.286 34.7869 185.614 35.1031 185.94 35.2764C186.28 35.4481 186.702 35.4471 187.206 35.2733L188.021 35.0054L188.334 34.9479L194.813 31.9529L196.564 33.3271L188.494 36.853C187.768 37.1732 187.088 37.3217 186.453 37.2985C185.826 37.281 185.26 37.1034 184.754 36.7656C184.242 36.4351 183.813 35.9617 183.466 35.3455L184.958 34.3279ZM187.134 36.4088L188.744 27.1906L190.65 28.6858L189.142 35.8674L187.134 36.4088Z" fill="#2A1F15"/>
<path d="M192.929 42.9753L199.884 36.0709L201.206 37.4022L199.237 45.2355L198.537 44.5301L206.335 42.5686L207.656 43.9L200.711 50.8143L199.212 49.3041L203.842 44.688L204.128 44.9761L197.906 46.5176L197.196 45.8023L198.733 39.5414L199.068 39.8792L194.428 44.4855L192.929 42.9753Z" fill="#2A1F15"/>
<path d="M208.819 51.3856L211.732 55.0972L210.344 56.1862L207.431 52.4746L208.819 51.3856ZM205.751 54.0069L209.044 58.2031L207.612 59.3267L202.928 53.3573L210.637 47.3073L215.209 53.1335L213.778 54.257L210.597 50.204L205.751 54.0069Z" fill="#2A1F15"/>
<path d="M221.07 61.8795L222.273 63.8019L213.967 69.0019L212.763 67.0795L221.07 61.8795ZM210.401 63.3059L209.198 61.3835L217.504 56.1835L218.708 58.1059L210.401 63.3059ZM216.258 65.0899L213.718 61.0315L215.343 60.0138L217.884 64.0722L216.258 65.0899Z" fill="#2A1F15"/>
<path d="M216.593 73.9077L224.198 70.178L223.961 70.8711L222.358 67.603L224.017 66.7893L227.759 74.419L226.1 75.2328L224.497 71.9647L225.184 72.1891L217.58 75.9188L216.593 73.9077Z" fill="#2A1F15"/>
<path d="M228.028 99.945C227.966 99.6337 227.982 99.3308 228.076 99.0362C228.18 98.749 228.345 98.5021 228.571 98.2955C228.805 98.0872 229.092 97.9493 229.431 97.882C229.769 97.8148 230.082 97.8335 230.37 97.9382C230.657 98.0429 230.899 98.2088 231.097 98.436C231.305 98.6706 231.44 98.9435 231.502 99.2548C231.564 99.566 231.542 99.8653 231.438 100.153C231.344 100.447 231.184 100.698 230.959 100.904C230.733 101.111 230.451 101.248 230.113 101.315C229.774 101.382 229.456 101.364 229.16 101.262C228.873 101.157 228.625 100.987 228.417 100.753C228.219 100.525 228.09 100.256 228.028 99.945Z" fill="#979696"/>
</svg>
