<?xml version="1.0" encoding="utf-8"?><svg viewBox="0 0 2000 1233.21" xmlns="http://www.w3.org/2000/svg" xmlns:xlink="http://www.w3.org/1999/xlink"><style>:root>svg{display:none}:root>svg:target{display:block}</style><svg viewBox="0 0 333 142" id="ajax" xmlns="http://www.w3.org/2000/svg"><path d="M106.5-.5h29c17.254 2.466 24.921 12.466 23 30h-20a27.865 27.865 0 0 0-1.5-11c-.833-2.167-2.333-3.667-4.5-4.5-7-.667-14-.667-21 0-3.228 1.563-5.395 4.063-6.5 7.5-.667 19-.667 38 0 57l10-10a57 57 0 0 1 8.5 9.5A267.665 267.665 0 0 1 96 105.5 552.495 552.495 0 0 1 67.5 78c3.053-3.263 6.22-6.43 9.5-9.5l9 9c.144-20.69.81-41.356 2-62 2.968-9.14 9.134-14.474 18.5-16Z"/><path d="M137.5 141.5h-28c-17.174-2.519-25.174-12.519-24-30 6.675-.166 13.342 0 20 .5a62.065 62.065 0 0 1 1.5 10.5 17.842 17.842 0 0 0 5.5 4.5 100.2 100.2 0 0 0 20 0c3.5-.833 5.667-3 6.5-6.5.667-19 .667-38 0-57l-9 9-9.5-9.5 27-27c1.408-.315 2.741.018 4 1l26 26c-2.92 3.427-6.253 6.26-10 8.5-3.579-2.071-6.746-4.738-9.5-8a1119.486 1119.486 0 0 1-2 64c-1.211 3.259-3.044 6.092-5.5 8.5-4.186 2.434-8.52 4.267-13 5.5ZM212.5 65.5a2313.576 2313.576 0 0 1 33 72 61.015 61.015 0 0 1-22 0l-5-12a145.036 145.036 0 0 0-34 0 291.312 291.312 0 0 0-5 12.5 81.224 81.224 0 0 1-22-.5l31-70c8.157-.667 16.157-1.333 24-2ZM-.5 138.5v-2a1661.006 1661.006 0 0 0 31-70c8.692-.331 17.359.002 26 1a303443.13 303443.13 0 0 0 31 70 61.015 61.015 0 0 1-22 0l-5-12a145.036 145.036 0 0 0-34 0l-5 12a121.861 121.861 0 0 1-22 1ZM332.5 137.5v1c-8.34.166-16.673 0-25-.5a876.679 876.679 0 0 0-17-22.5 580.066 580.066 0 0 0-17 22.5c-8.333.667-16.667.667-25 0a793.45 793.45 0 0 1 30-37l-28-34a156.492 156.492 0 0 1 25 0 474.427 474.427 0 0 0 15 20.5 450.799 450.799 0 0 0 15-20.5 156.492 156.492 0 0 1 25 0 727.44 727.44 0 0 0-28 34.5 788.955 788.955 0 0 0 30 36Z"/><path d="M42.5 84.5c.996-.086 1.83.248 2.5 1 3.072 8.05 6.239 16.051 9.5 24a111.15 111.15 0 0 1-21 1 299.621 299.621 0 0 1 9-26ZM200.5 83.5c1.25.077 2.083.744 2.5 2a369.374 369.374 0 0 0 9.5 24 61.015 61.015 0 0 1-22 0 618.639 618.639 0 0 0 10-26Z"/></svg><svg class="bd-block bmy-1" viewBox="0 0 118 94" id="bootstrap" xmlns="http://www.w3.org/2000/svg"><path fill-rule="evenodd" clip-rule="evenodd" d="M24.509 0c-6.733 0-11.715 5.893-11.492 12.284.214 6.14-.064 14.092-2.066 20.577C8.943 39.365 5.547 43.485 0 44.014v5.972c5.547.529 8.943 4.649 10.951 11.153 2.002 6.485 2.28 14.437 2.066 20.577C12.794 88.106 17.776 94 24.51 94H93.5c6.733 0 11.714-5.893 11.491-12.284-.214-6.14.064-14.092 2.066-20.577 2.009-6.504 5.396-10.624 10.943-11.153v-5.972c-5.547-.529-8.934-4.649-10.943-11.153-2.002-6.484-2.28-14.437-2.066-20.577C105.214 5.894 100.233 0 93.5 0H24.508zM80 57.863C80 66.663 73.436 72 62.543 72H44a2 2 0 0 1-2-2V24a2 2 0 0 1 2-2h18.437c9.083 0 15.044 4.92 15.044 12.474 0 5.302-4.01 10.049-9.119 10.88v.277C75.317 46.394 80 51.21 80 57.863zM60.521 28.34H49.948v14.934h8.905c6.884 0 10.68-2.772 10.68-7.727 0-4.643-3.264-7.207-9.012-7.207zM49.948 49.2v16.458H60.91c7.167 0 10.964-2.876 10.964-8.281 0-5.406-3.903-8.178-11.425-8.178H49.948z"/></svg><svg viewBox="0 0 256 256" fill-rule="evenodd" id="css" xmlns="http://www.w3.org/2000/svg"><path d="M215.04 30.72 199.68 204.8 128 225.28 56.32 204.8 40.96 30.72zM86.02 143.36h20.48l.5 12.8 21 7.16 21-7.16 1.52-23.04h-45.04l-1.04-20.48h47.12l1.52-20.48H82.44L80.9 71.68h93.7l-2.56 40.96-3.6 58.88L128 184.84l-40.44-13.32z"/></svg><svg viewBox="0 0 256 256" id="eslint" xmlns="http://www.w3.org/2000/svg"><g stroke-miterlimit="10" font-family="none" font-weight="none" font-size="none" text-anchor="none"><path d="m81.797 100.037 44.448-25.658a3.507 3.507 0 0 1 3.515 0l44.485 25.685a3.514 3.514 0 0 1 1.755 3.04v51.37a3.514 3.514 0 0 1-1.755 3.04L129.76 183.2a3.507 3.507 0 0 1-3.515 0L81.76 157.515a3.508 3.508 0 0 1-1.76-3.04v-51.323c0-1.285.688-2.47 1.797-3.115"/><path d="m241.93 123.472-52.357-91.083c-1.898-3.296-5.413-5.722-9.216-5.722H75.643c-3.803 0-7.318 2.426-9.222 5.722L14.07 123.275c-1.904 3.296-1.904 7.45 0 10.746l52.358 90.336c1.898 3.29 5.413 4.976 9.216 4.976h104.714c3.803 0 7.318-1.632 9.216-4.928l52.358-90.485c1.904-3.29 1.904-7.152 0-10.448m-46.411 46.24L129.9 207.573a3.744 3.744 0 0 1-3.74 0l-65.68-37.861a3.635 3.635 0 0 1-1.813-3.141V91.003c0-1.296.693-2.496 1.818-3.147L126.095 50a3.744 3.744 0 0 1 3.74 0l65.54 37.781a3.928 3.928 0 0 1 1.958 3.398v75.392a3.629 3.629 0 0 1-1.813 3.14z"/></g></svg><svg viewBox="0 0 333 477" id="figma" xmlns="http://www.w3.org/2000/svg"><path d="M77.5-.5h178a109.569 109.569 0 0 1 14 4c2.292 1.767 4.958 2.767 8 3 .992-.172 1.658.162 2 1 1.28 1.431 2.947 2.098 5 2a24.771 24.771 0 0 1 8 5c.473 1.406 1.473 2.073 3 2 .667 0 1 .333 1 1 .473 1.406 1.473 2.073 3 2 1 .333 1.667 1 2 2 .826 1.764 2.159 3.098 4 4 2 1.333 3.667 3 5 5 .58 2.249 1.913 3.915 4 5 1.39 1.4 2.39 3.066 3 5 .238 1.904 1.238 3.238 3 4 2.757 3.916 4.757 8.25 6 13-.09 2.652.576 4.986 2 7a86.97 86.97 0 0 1 4 18v13a229.484 229.484 0 0 1-3 14 66.101 66.101 0 0 0-5 15c-1.159 3.651-2.826 6.985-5 10-1.406.473-2.073 1.473-2 3-1.406.473-2.073 1.473-2 3-1.406.473-2.073 1.473-2 3 0 .667-.333 1-1 1-1 .333-1.667 1-2 2a25.913 25.913 0 0 1-8 9c-1.527-.073-2.527.594-3 2-2.526 1.918-4.526 4.251-6 7 .535 1.946 1.868 2.946 4 3 .473 1.406 1.473 2.073 3 2 .333 3 2 4.667 5 5 1.667 1 3 2.333 4 4 .238 1.904 1.238 3.238 3 4 .238 1.904 1.238 3.238 3 4 .238 1.904 1.238 3.238 3 4 .838.342 1.172 1.008 1 2-.073 1.527.594 2.527 2 3 1.236 2.149 2.236 4.482 3 7a157.236 157.236 0 0 0 6 19 192.974 192.974 0 0 0 2 10v13c-.904.709-1.237 1.709-1 3a142.763 142.763 0 0 0-4 18c-7.861 25.196-23.861 43.196-48 54-2.053-.098-3.72.569-5 2-.709.904-1.709 1.237-3 1-2.286.095-4.286.762-6 2-14.48 3.511-29.147 3.845-44 1-1.938-1.663-4.272-2.329-7-2-1.602-1.574-3.602-2.241-6-2-1.676-2.334-4.009-3.334-7-3-1.653-.16-2.986-.826-4-2-.473-1.406-1.473-2.073-3-2-.473-1.406-1.473-2.073-3-2-.473-1.406-1.473-2.073-3-2-.762-1.762-2.096-2.762-4-3-.875-2.306-2.208-2.973-4-2v90c-1.962 5.735-3.296 11.735-4 18a51.318 51.318 0 0 1-5 13c-1.406.473-2.073 1.473-2 3-.16 1.653-.826 2.986-2 4-1.406.473-2.073 1.473-2 3a37.418 37.418 0 0 1-9 11 6.547 6.547 0 0 0-3 3 25.658 25.658 0 0 1-6 6c-1.527-.073-2.527.594-3 2 0 .667-.333 1-1 1-1.527-.073-2.527.594-3 2-5.414 4.04-11.414 7.04-18 9-3.285.428-6.285 1.428-9 3l-10 3h-27a151.763 151.763 0 0 0-11-3c-1.602-1.574-3.602-2.241-6-2-5.43-1.55-10.43-3.884-15-7-.473-1.406-1.473-2.073-3-2-.473-1.406-1.473-2.073-3-2-.762-1.762-2.096-2.762-4-3-1.41-2.414-3.41-4.081-6-5a47.065 47.065 0 0 1-11-12c.073-1.527-.594-2.527-2-3 .073-1.527-.594-2.527-2-3 .073-1.527-.594-2.527-2-3-2.967-4.229-4.967-8.896-6-14-1.686-7.443-3.352-14.777-5-22 .172-.992-.162-1.658-1-2v-13a97.524 97.524 0 0 1 4-17c1.424-2.015 2.09-4.348 2-7 1.216-4.762 3.216-9.095 6-13 1.406-.473 2.073-1.473 2-3 1.406-.473 2.073-1.473 2-3 1.869-1.534 3.202-3.534 4-6 1-.333 1.667-1 2-2a6.544 6.544 0 0 1 3-3c3-2.333 5.667-5 8-8 1.904-.238 3.238-1.238 4-3 .558-1.29 1.558-2.123 3-2.5-.556-.383-.89-.883-1-1.5-.762-1.762-2.096-2.762-4-3-1.74-2.743-4.073-4.743-7-6a32.257 32.257 0 0 1-9-10c-.054-2.132-1.054-3.465-3-4 .073-1.527-.594-2.527-2-3a68.715 68.715 0 0 1-7-14 259.689 259.689 0 0 1-6-27h-1v-13a229.212 229.212 0 0 1 3-14c2.244-4.733 3.911-9.733 5-15 1.159-3.651 2.826-6.985 5-10 1.406-.473 2.073-1.473 2-3-.172-.992.162-1.658 1-2a30.566 30.566 0 0 0 7-8c-.073-1.527.594-2.527 2-3 3.6-1.93 6.6-4.597 9-8 2.249-.58 3.915-1.913 5-4 2.516-1.36 2.182-2.36-1-3-1.085-2.087-2.751-3.42-5-4-2.4-3.403-5.4-6.07-9-8l-2-3c-.356-1.69-1.356-2.69-3-3 .073-1.527-.594-2.527-2-3 .073-1.527-.594-2.527-2-3 .073-1.527-.594-2.527-2-3-2.79-3.916-4.79-8.249-6-13-.428-3.285-1.428-6.285-3-9-.127-4.651-1.127-8.985-3-13 .268-1.599-.066-2.932-1-4v-13a192.759 192.759 0 0 0 2-10 157.977 157.977 0 0 0 6-19c.207-2.74 1.207-5.074 3-7 1.406-.473 2.073-1.473 2-3-.172-.992.162-1.658 1-2 1.406-.473 2.073-1.473 2-3 1.762-.762 2.762-2.096 3-4 2.76-1.093 4.427-3.093 5-6 1-2.333 2.667-4 5-5 2.927-1.257 5.26-3.257 7-6 1.904-.238 3.238-1.238 4-3a36.068 36.068 0 0 1 7-4c2.467-.255 4.467-1.255 6-3 .342-.838 1.008-1.172 2-1 3.136-.103 5.803-1.103 8-3 2.995.206 5.662-.46 8-2l7-2Zm4 30c23.408-.323 46.742.01 70 1 .167 39.001 0 78.001-.5 117a1048.552 1048.552 0 0 1-64.5 1h-3l-16-4c-1.014-1.174-2.347-1.84-4-2-4.328-2.659-8.662-5.326-13-8-.31-1.644-1.31-2.644-3-3-1.257-2.927-3.257-5.261-6-7 .073-1.527-.594-2.527-2-3l-6-12c-.095-2.286-.762-4.286-2-6 .268-1.599-.066-2.932-1-4-1.394-8.727-1.06-17.394 1-26 1.238-1.714 1.905-3.714 2-6 6.144-13.813 15.81-24.48 29-32 1.653-.16 2.986-.826 4-2 5.02-1.342 10.02-2.675 15-4Zm168 0c12.402 2.036 23.402 7.036 33 15 1 1.667 2.333 3 4 4 .333 1 1 1.667 2 2 .526 1.73 1.526 3.064 3 4l6 11c-.098 2.053.569 3.72 2 5 2.8 9.864 3.467 19.864 2 30-1.572 2.715-2.572 5.715-3 9-1.34 3.029-2.673 6.029-4 9-1.75 1.159-2.75 2.826-3 5-2.414 1.411-4.081 3.411-5 6a6.547 6.547 0 0 0-3 3c-2.589.919-4.589 2.586-6 5-1.527-.073-2.527.594-3 2-.992-.172-1.658.162-2 1-2.319.492-4.319 1.492-6 3-2.897.629-5.564 1.629-8 3a112.641 112.641 0 0 0-12 2c-21.909.327-43.742-.006-65.5-1-.5-38.999-.667-77.999-.5-117 22.925-.99 45.925-1.322 69-1Zm-166 149c22.742-.322 45.408.011 68 1v117a1140.047 1140.047 0 0 1-67 1 188.875 188.875 0 0 0-12-2c-2.39-1.52-5.057-2.52-8-3-.342-.838-1.008-1.172-2-1-1.618-1.816-3.618-3.149-6-4a84.316 84.316 0 0 1-12-10c-.58-2.249-1.913-3.915-4-5 .073-1.527-.594-2.527-2-3-1.159-3.651-2.826-6.985-5-10-.63-3.548-1.63-6.881-3-10v-2a53.37 53.37 0 0 1 0-20c.8-1.542 1.134-3.208 1-5 1.574-1.602 2.24-3.602 2-6a99.981 99.981 0 0 1 9-15c1.406-.473 2.073-1.473 2-3a100.35 100.35 0 0 1 13-11c2.831-.579 5.164-1.912 7-4 2.943-.48 5.61-1.48 8-3a63.32 63.32 0 0 0 11-2Zm186 6c.473 1.406 1.473 2.073 3 2 .342.838 1.008 1.172 2 1 .473 1.406 1.473 2.073 3 2 .473 1.406 1.473 2.073 3 2a25.658 25.658 0 0 0 6 6c.624 2.254 1.957 3.921 4 5 2.362 4.068 4.695 8.068 7 12-.098 2.053.569 3.72 2 5 .221 2.567.888 4.901 2 7a62.366 62.366 0 0 1 0 21 87.925 87.925 0 0 0-2 9c-1.431 1.28-2.098 2.947-2 5a16.339 16.339 0 0 0-2 5c-1.406.473-2.073 1.473-2 3-1.406.473-2.073 1.473-2 3-1.762.762-2.762 2.096-3 4-3 2.333-5.667 5-8 8a18.478 18.478 0 0 0-6 4c-1.527-.073-2.527.594-3 2-.992-.172-1.658.162-2 1-3.627.821-6.96 2.154-10 4a91.613 91.613 0 0 1-32 1c-2.099-1.112-4.433-1.779-7-2-1.926-1.793-4.259-2.793-7-3-.473-1.406-1.473-2.073-3-2a4511.123 4511.123 0 0 1-13-10c-1.257-2.927-3.257-5.261-6-7 .073-1.527-.594-2.527-2-3a81.694 81.694 0 0 0-5-11c-.095-2.286-.762-4.286-2-6a258.647 258.647 0 0 0-2-15c1.021-4.48 1.687-9.147 2-14 1.238-1.714 1.905-3.714 2-6 2.921-6.852 6.587-13.185 11-19 2 0 3-1 3-3 4.024-3.031 8.024-6.031 12-9 2.985-.826 5.651-2.159 8-4 17.249-5.75 34.249-5.083 51 2Zm-184 143c21.909-.327 43.742.006 65.5 1a811.776 811.776 0 0 1-.5 67c-.801 1.542-1.134 3.208-1 5-1.238 1.714-1.905 3.714-2 6a31.686 31.686 0 0 0-2 6c-1.406.473-2.073 1.473-2 3-.838.342-1.172 1.008-1 2-1.826 1.647-3.16 3.647-4 6-4 3.333-7.667 7-11 11-1.527-.073-2.527.594-3 2-1.527-.073-2.527.594-3 2-1.653.16-2.986.826-4 2a148.09 148.09 0 0 0-13 5 196.332 196.332 0 0 1-24 1 175.077 175.077 0 0 0-14-4c-1.681-1.508-3.681-2.508-6-3-1.618-1.816-3.618-3.149-6-4a796.928 796.928 0 0 1-5-4 25.647 25.647 0 0 0-6-6c-.58-2.249-1.913-3.915-4-5 .172-.992-.162-1.658-1-2 .073-1.527-.594-2.527-2-3-.82-3.627-2.154-6.96-4-10-.221-2.567-.888-4.901-2-7v-1a113.761 113.761 0 0 1-1-15 108.35 108.35 0 0 0 3-14 119.31 119.31 0 0 1 10-18c1.762-.762 2.762-2.096 3-4 .667 0 1-.333 1-1 2 0 3-1 3-3 4.672-3.008 9.338-6.008 14-9 1.653-.16 2.986-.826 4-2 2.286-.095 4.286-.762 6-2a86.76 86.76 0 0 0 12-2Z"/><path d="M70.5 1.5c-2.338 1.54-5.005 2.206-8 2 2.405-1.268 5.072-1.935 8-2ZM62.5 3.5c-2.197 1.897-4.864 2.897-8 3 2.292-1.767 4.958-2.767 8-3ZM269.5 3.5c3.042.233 5.708 1.233 8 3-3.042-.233-5.708-1.233-8-3ZM279.5 7.5c2.053-.098 3.72.569 5 2-2.053.098-3.72-.569-5-2ZM52.5 7.5c-1.533 1.745-3.533 2.745-6 3 1.533-1.745 3.533-2.745 6-3ZM292.5 14.5c1.527-.073 2.527.594 3 2-1.527.073-2.527-.594-3-2ZM39.5 14.5c-.762 1.762-2.096 2.762-4 3 .762-1.762 2.096-2.762 4-3ZM296.5 17.5c1.527-.073 2.527.594 3 2-1.527.073-2.527-.594-3-2ZM35.5 17.5c-1.74 2.743-4.073 4.743-7 6 1.74-2.743 4.073-4.743 7-6ZM301.5 21.5c2.273.457 3.606 1.79 4 4-1.841-.902-3.174-2.236-4-4ZM81.5 29.5c23.161-.997 46.494-1.33 70-1v2a1243.702 1243.702 0 0 0-70-1ZM180.5 28.5c23.173-.33 46.173.003 69 1-23.075-.322-46.075.01-69 1v-2ZM23.5 28.5c-.573 2.907-2.24 4.907-5 6 .92-2.59 2.586-4.59 5-6ZM66.5 33.5c-1.014 1.174-2.347 1.84-4 2 .787-1.604 2.12-2.27 4-2ZM310.5 30.5c2.087 1.085 3.42 2.751 4 5-2.087-1.085-3.42-2.751-4-5ZM18.5 34.5c-.238 1.904-1.238 3.238-3 4 .238-1.904 1.238-3.238 3-4ZM15.5 38.5c.073 1.527-.594 2.527-2 3-.073-1.527.594-2.527 2-3Z"/><path d="M151.5 28.5a2403.542 2403.542 0 0 1 .5 120 537.718 537.718 0 0 1-65.5 0c21.575.327 43.075-.006 64.5-1 .5-38.999.667-77.999.5-117v-2ZM317.5 40.5c1.762.762 2.762 2.096 3 4-1.762-.762-2.762-2.096-3-4ZM282.5 44.5c2.333.333 3.667 1.667 4 4-1.667-1-3-2.333-4-4ZM12.5 43.5c.073 1.527-.594 2.527-2 3-.073-1.527.594-2.527 2-3ZM288.5 50.5c1.946.535 2.946 1.868 3 4-1.474-.936-2.474-2.27-3-4ZM7.5 53.5a157.977 157.977 0 0 1-6 19c.824-6.801 2.824-13.135 6-19ZM326.5 57.5c1.424 2.014 2.09 4.348 2 7-1.424-2.014-2.09-4.348-2-7ZM297.5 65.5c1.431 1.28 2.098 2.947 2 5-1.431-1.28-2.098-2.947-2-5ZM33.5 67.5c-.095 2.286-.762 4.286-2 6-.24-2.398.426-4.398 2-6ZM180.5 28.5v2c-.167 39.001 0 78.001.5 117 21.758.994 43.591 1.327 65.5 1a554.247 554.247 0 0 1-66.5 0 2403.54 2403.54 0 0 1 .5-120ZM31.5 73.5c-2.06 8.606-2.394 17.273-1 26-1.47-3.386-2.137-7.053-2-11-.13-5.353.87-10.353 3-15ZM299.5 70.5c1.427 1.648 2.26 3.648 2.5 6 2.14 8.198 1.974 16.198-.5 24 1.467-10.136.8-20.136-2-30ZM.5 99.5c1.873 4.015 2.873 8.349 3 13-1.618-4.075-2.618-8.408-3-13ZM31.5 103.5c1.238 1.714 1.905 3.714 2 6-1.574-1.602-2.24-3.602-2-6ZM301.5 100.5c.368 3.544-.632 6.544-3 9 .428-3.285 1.428-6.285 3-9ZM3.5 112.5c1.572 2.715 2.572 5.715 3 9-1.972-2.584-2.972-5.584-3-9ZM329.5 109.5c-.694 5.415-2.36 10.415-5 15a66.101 66.101 0 0 1 5-15ZM39.5 121.5c1.406.473 2.073 1.473 2 3-1.406-.473-2.073-1.473-2-3ZM294.5 118.5c-.092 2.348-1.092 4.014-3 5 .25-2.174 1.25-3.841 3-5ZM41.5 124.5c2.743 1.739 4.743 4.073 6 7-2.743-1.739-4.743-4.073-6-7ZM291.5 123.5c-.919 2.589-2.586 4.589-5 6 .919-2.589 2.586-4.589 5-6ZM47.5 131.5c1.69.356 2.69 1.356 3 3-1.69-.356-2.69-1.356-3-3ZM283.5 132.5c-1.411 2.414-3.411 4.081-6 5 1.411-2.414 3.411-4.081 6-5ZM12.5 134.5c1.406.473 2.073 1.473 2 3-1.406-.473-2.073-1.473-2-3ZM319.5 134.5c.073 1.527-.594 2.527-2 3-.073-1.527.594-2.527 2-3ZM277.5 137.5c-.473 1.406-1.473 2.073-3 2 .473-1.406 1.473-2.073 3-2ZM14.5 137.5c1.406.473 2.073 1.473 2 3-1.406-.473-2.073-1.473-2-3ZM317.5 137.5c.073 1.527-.594 2.527-2 3-.073-1.527.594-2.527 2-3ZM16.5 140.5c1.406.473 2.073 1.473 2 3-1.406-.473-2.073-1.473-2-3ZM315.5 140.5c.073 1.527-.594 2.527-2 3-.073-1.527.594-2.527 2-3ZM272.5 140.5c-1.107 2.469-3.107 3.469-6 3 1.681-1.508 3.681-2.508 6-3ZM63.5 142.5c1.653.16 2.986.826 4 2-1.88.271-3.213-.396-4-2ZM18.5 143.5c1.644.31 2.644 1.31 3 3-1.644-.31-2.644-1.31-3-3ZM266.5 143.5c-2.117 2.155-4.784 3.155-8 3 2.436-1.371 5.103-2.371 8-3ZM312.5 144.5c0 1.333-.667 2-2 2 .333-1 1-1.667 2-2ZM67.5 144.5l16 4c-5.973.758-11.306-.575-16-4ZM23.5 149.5c3.6 1.93 6.6 4.597 9 8-3.6-1.93-6.6-4.597-9-8ZM302.5 155.5c-.473 1.406-1.473 2.073-3 2 .473-1.406 1.473-2.073 3-2ZM32.5 157.5c2.249.58 3.915 1.913 5 4-2.249-.58-3.915-1.913-5-4ZM37.5 161.5c3.182.64 3.516 1.64 1 3a5.728 5.728 0 0 0-1-3ZM293.5 164.5c1.73.526 3.064 1.526 4 3-2.132-.054-3.465-1.054-4-3ZM38.5 164.5c-1.085 2.087-2.751 3.42-5 4 1.085-2.087 2.751-3.42 5-4ZM297.5 167.5c1.527-.073 2.527.594 3 2-1.527.073-2.527-.594-3-2ZM300.5 169.5c2 1.333 3.667 3 5 5-3-.333-4.667-2-5-5ZM33.5 168.5c-2.4 3.403-5.4 6.07-9 8 2.4-3.403 5.4-6.07 9-8ZM83.5 178.5a569.94 569.94 0 0 1 34-1c11.687.001 23.02.668 34 2a1174.342 1174.342 0 0 0-68-1ZM309.5 178.5c1.762.762 2.762 2.096 3 4-1.762-.762-2.762-2.096-3-4ZM72.5 180.5c-2.39 1.52-5.057 2.52-8 3 2.184-2.085 4.851-3.085 8-3ZM218.5 182.5c-2.349 1.841-5.015 3.174-8 4 2.079-2.373 4.746-3.706 8-4ZM312.5 182.5c1.762.762 2.762 2.096 3 4-1.762-.762-2.762-2.096-3-4ZM64.5 183.5c-1.836 2.088-4.169 3.421-7 4 1.836-2.088 4.169-3.421 7-4ZM22.5 179.5a30.566 30.566 0 0 1-7 8 30.123 30.123 0 0 1 3.5-6c.816-1.323 1.983-1.989 3.5-2ZM269.5 184.5c1.527-.073 2.527.594 3 2-1.527.073-2.527-.594-3-2ZM274.5 187.5c1.527-.073 2.527.594 3 2-1.527.073-2.527-.594-3-2ZM315.5 186.5c1.762.762 2.762 2.096 3 4-1.762-.762-2.762-2.096-3-4ZM277.5 189.5c1.527-.073 2.527.594 3 2-1.527.073-2.527-.594-3-2ZM14.5 189.5c.073 1.527-.594 2.527-2 3-.073-1.527.594-2.527 2-3ZM280.5 191.5c3 1 5 3 6 6a25.658 25.658 0 0 1-6-6ZM319.5 192.5c1.406.473 2.073 1.473 2 3-1.406-.473-2.073-1.473-2-3ZM198.5 195.5c0 2-1 3-3 3a6.547 6.547 0 0 1 3-3ZM44.5 198.5c.073 1.527-.594 2.527-2 3-.073-1.527.594-2.527 2-3ZM286.5 197.5c2.031 1.039 3.364 2.705 4 5-2.043-1.079-3.376-2.746-4-5ZM7.5 202.5c-1.089 5.267-2.756 10.267-5 15 .694-5.415 2.36-10.415 5-15ZM324.5 202.5c3.176 5.865 5.176 12.199 6 19a157.236 157.236 0 0 1-6-19ZM297.5 214.5c1.431 1.28 2.098 2.947 2 5-1.431-1.28-2.098-2.947-2-5ZM33.5 216.5c.24 2.398-.426 4.398-2 6 .095-2.286.762-4.286 2-6ZM184.5 217.5c-.095 2.286-.762 4.286-2 6-.241-2.398.426-4.398 2-6ZM182.5 223.5c-.313 4.853-.979 9.52-2 14-.377-4.953.289-9.619 2-14ZM30.5 227.5a53.37 53.37 0 0 0 0 20c-2.667-6.667-2.667-13.333 0-20ZM301.5 226.5c2.548 7.017 2.548 14.017 0 21a62.366 62.366 0 0 0 0-21ZM30.5 249.5c1.37 3.119 2.37 6.452 3 10-2.18-2.881-3.18-6.214-3-10ZM.5 244.5a259.689 259.689 0 0 0 6 27c-4.024-8.443-6.024-17.443-6-27ZM331.5 247.5c-.204 6.366-1.537 12.366-4 18a142.763 142.763 0 0 1 4-18ZM182.5 252.5c1.238 1.714 1.905 3.714 2 6-1.78-1.49-2.446-3.49-2-6ZM299.5 256.5c.098 2.053-.569 3.72-2 5-.098-2.053.569-3.72 2-5ZM295.5 266.5c.073 1.527-.594 2.527-2 3-.073-1.527.594-2.527 2-3ZM38.5 269.5c1.406.473 2.073 1.473 2 3-1.406-.473-2.073-1.473-2-3ZM189.5 269.5c1.406.473 2.073 1.473 2 3-1.406-.473-2.073-1.473-2-3ZM293.5 269.5c.073 1.527-.594 2.527-2 3-.073-1.527.594-2.527 2-3ZM291.5 272.5c-.238 1.904-1.238 3.238-3 4 .238-1.904 1.238-3.238 3-4ZM40.5 272.5c2.087 1.085 3.42 2.751 4 5-2.087-1.085-3.42-2.751-4-5ZM191.5 272.5c2.743 1.739 4.743 4.073 6 7-2.743-1.739-4.743-4.073-6-7ZM288.5 276.5c-1.667 3.667-4.333 6.333-8 8 2.333-3 5-5.667 8-8ZM13.5 285.5c1.406.473 2.073 1.473 2 3-1.406-.473-2.073-1.473-2-3ZM15.5 288.5c1.946.535 2.946 1.868 3 4-1.474-.936-2.474-2.27-3-4ZM56.5 287.5c2.382.851 4.382 2.184 6 4-2.767-.37-4.767-1.704-6-4ZM274.5 288.5c-.473 1.406-1.473 2.073-3 2 .473-1.406 1.473-2.073 3-2ZM210.5 289.5c1.527-.073 2.527.594 3 2-1.527.073-2.527-.594-3-2ZM213.5 291.5c2.741.207 5.074 1.207 7 3-2.741-.207-5.074-1.207-7-3ZM64.5 292.5c2.943.48 5.61 1.48 8 3-3.149.085-5.816-.915-8-3ZM269.5 291.5c-2.692 2.681-6.025 4.014-10 4 3.04-1.846 6.373-3.179 10-4ZM220.5 294.5c2.567.221 4.901.888 7 2-2.728.329-5.062-.337-7-2ZM151.5 296.5c-10.813 1.332-21.979 1.999-33.5 2a553.2 553.2 0 0 1-33.5-1c22.408.322 44.742-.011 67-1ZM27.5 302.5c2.927 1.257 5.26 3.257 7 6-2.927-1.257-5.26-3.257-7-6ZM180.5 305.5c1.792-.973 3.125-.306 4 2-1.562-.233-2.895-.9-4-2ZM184.5 307.5c1.904.238 3.238 1.238 4 3-1.904-.238-3.238-1.238-4-3ZM34.5 308.5c1.904.238 3.238 1.238 4 3-1.904-.238-3.238-1.238-4-3ZM188.5 310.5c1.527-.073 2.527.594 3 2-1.527.073-2.527-.594-3-2ZM191.5 312.5c1.527-.073 2.527.594 3 2-1.527.073-2.527-.594-3-2ZM194.5 314.5c1.527-.073 2.527.594 3 2-1.527.073-2.527-.594-3-2ZM36.5 315.5c-.762 1.762-2.096 2.762-4 3 .762-1.762 2.096-2.762 4-3ZM201.5 318.5c2.991-.334 5.324.666 7 3-2.657-.435-4.991-1.435-7-3ZM279.5 319.5c-1.28 1.431-2.947 2.098-5 2 1.28-1.431 2.947-2.098 5-2ZM32.5 318.5c-2.333 3-5 5.667-8 8 1.667-3.667 4.333-6.333 8-8ZM208.5 321.5c2.398-.241 4.398.426 6 2-2.286-.095-4.286-.762-6-2ZM214.5 323.5c2.728-.329 5.062.337 7 2-2.567-.221-4.901-.888-7-2ZM271.5 322.5c-1.602 1.574-3.602 2.241-6 2 1.714-1.238 3.714-1.905 6-2ZM85.5 327.5a554.247 554.247 0 0 1 66.5 0 960.77 960.77 0 0 1 0 62c-.191 2.208-.691 4.208-1.5 6a811.776 811.776 0 0 0 .5-67 1081.314 1081.314 0 0 0-65.5-1ZM21.5 329.5c-.333 1-1 1.667-2 2 0-1.333.667-2 2-2ZM73.5 329.5c-1.714 1.238-3.714 1.905-6 2 1.602-1.574 3.602-2.241 6-2ZM67.5 331.5c-1.014 1.174-2.347 1.84-4 2 .787-1.604 2.12-2.271 4-2ZM19.5 331.5c-.798 2.466-2.131 4.466-4 6 .345-2.698 1.678-4.698 4-6ZM15.5 337.5c.073 1.527-.594 2.527-2 3-.073-1.527.594-2.527 2-3ZM13.5 340.5c.073 1.527-.594 2.527-2 3-.073-1.527.594-2.527 2-3ZM49.5 342.5c0 2-1 3-3 3a6.544 6.544 0 0 1 3-3ZM45.5 346.5c-.238 1.904-1.238 3.238-3 4 .238-1.904 1.238-3.238 3-4ZM5.5 356.5c.09 2.652-.576 4.985-2 7-.09-2.652.576-4.985 2-7ZM32.5 368.5a108.35 108.35 0 0 1-3 14v-2c.084-4.337 1.084-8.337 3-12Z"/><path d="M29.5 380.5v2c.003 5.027.336 10.027 1 15-1.454-3.218-2.12-6.718-2-10.5.004-2.361.337-4.527 1-6.5ZM149.5 400.5c.241 2.398-.426 4.398-2 6 .095-2.286.762-4.286 2-6ZM180.5 395.5c-.49 6.309-1.823 12.309-4 18 .704-6.265 2.038-12.265 4-18ZM30.5 398.5c1.112 2.099 1.779 4.433 2 7-1.663-1.938-2.33-4.272-2-7ZM.5 395.5c1.648 7.223 3.314 14.557 5 22-3.179-6.879-4.845-14.212-5-22ZM145.5 412.5c.073 1.527-.594 2.527-2 3-.073-1.527.594-2.527 2-3ZM36.5 415.5c1.406.473 2.073 1.473 2 3-1.406-.473-2.073-1.473-2-3ZM142.5 417.5c-.345 2.698-1.678 4.698-4 6 .84-2.353 2.174-4.353 4-6ZM39.5 420.5c2.087 1.085 3.42 2.751 4 5-2.087-1.085-3.42-2.751-4-5ZM43.5 425.5a25.647 25.647 0 0 1 6 6c-3-1-5-3-6-6ZM171.5 426.5c.073 1.527-.594 2.527-2 3-.073-1.527.594-2.527 2-3ZM138.5 423.5c-2.667 4.667-6.333 8.333-11 11 3.333-4 7-7.667 11-11ZM11.5 431.5c1.406.473 2.073 1.473 2 3-1.406-.473-2.073-1.473-2-3ZM127.5 434.5c-.473 1.406-1.473 2.073-3 2 .473-1.406 1.473-2.073 3-2ZM167.5 433.5c.073 1.527-.594 2.527-2 3-.073-1.527.594-2.527 2-3ZM13.5 434.5c1.406.473 2.073 1.473 2 3-1.406-.473-2.073-1.473-2-3ZM124.5 436.5c-.473 1.406-1.473 2.073-3 2 .473-1.406 1.473-2.073 3-2ZM15.5 437.5c1.406.473 2.073 1.473 2 3-1.406-.473-2.073-1.473-2-3ZM54.5 435.5c2.382.851 4.382 2.184 6 4-2.767-.37-4.767-1.704-6-4ZM66.5 442.5a175.077 175.077 0 0 1 14 4c-5.159.054-9.825-1.279-14-4ZM117.5 440.5c-3.626 2.995-7.959 4.662-13 5a148.09 148.09 0 0 1 13-5ZM156.5 447.5c0 2-1 3-3 3a6.547 6.547 0 0 1 3-3ZM28.5 452.5c2.59.919 4.59 2.586 6 5-2.59-.919-4.59-2.586-6-5ZM147.5 456.5c-.473 1.406-1.473 2.073-3 2 .473-1.406 1.473-2.073 3-2ZM34.5 457.5c1.904.238 3.238 1.238 4 3-1.904-.238-3.238-1.238-4-3ZM143.5 459.5c-.473 1.406-1.473 2.073-3 2 .473-1.406 1.473-2.073 3-2ZM38.5 460.5c1.527-.073 2.527.594 3 2-1.527.073-2.527-.594-3-2ZM41.5 462.5c1.527-.073 2.527.594 3 2-1.527.073-2.527-.594-3-2ZM59.5 471.5c2.398-.241 4.398.426 6 2-2.286-.095-4.286-.762-6-2ZM122.5 470.5c-2.584 1.972-5.584 2.972-9 3 2.715-1.572 5.715-2.572 9-3Z"/></svg><svg viewBox="0 0 200 200" id="git" xmlns="http://www.w3.org/2000/svg"><path d="M92.5-.5h14a6119.309 6119.309 0 0 1 93 93v14l-94 93h-11c-1.1-1.058-2.434-1.892-4-2.5L2 108.5c-.608-1.566-1.442-2.9-2.5-4v-11c1.058-1.1 1.892-2.434 2.5-4A1388.789 1388.789 0 0 0 59.5 32a15.653 15.653 0 0 0 4-2.5 696.476 696.476 0 0 1 22.5 22c-2.175 8.99.659 15.99 8.5 21a392.51 392.51 0 0 1 0 56c-8.115 4.507-10.615 11.174-7.5 20 5.034 7.566 11.867 9.733 20.5 6.5 6.94-5.436 8.774-12.269 5.5-20.5a38.929 38.929 0 0 0-5.5-5 392.598 392.598 0 0 1 0-56 578.622 578.622 0 0 1 20.5 20c-2.288 7.804-.121 14.304 6.5 19.5 12.022 3.827 19.356-.34 22-12.5-.087-7.583-3.754-12.416-11-14.5a45.365 45.365 0 0 0-10 0 581.255 581.255 0 0 1-20-20.5 62.749 62.749 0 0 1-1.5-11c-1.187-4.21-3.687-7.376-7.5-9.5-4.717-1.15-9.384-1.817-14-2a519.274 519.274 0 0 1-21-22 273.611 273.611 0 0 1 21-21.5Z"/></svg><svg viewBox="0 0 24 24" id="github" xmlns="http://www.w3.org/2000/svg"><path d="M10.9 2.1c-4.6.5-8.3 4.2-8.8 8.7-.5 4.7 2.2 8.9 6.3 10.5.3.1.6-.1.6-.5v-1.6s-.4.1-.9.1c-1.4 0-2-1.2-2.1-1.9-.1-.4-.3-.7-.6-1-.3-.1-.4-.1-.4-.2 0-.2.3-.2.4-.2.6 0 1.1.7 1.3 1 .5.8 1.1 1 1.4 1 .4 0 .7-.1.9-.2.1-.7.4-1.4 1-1.8-2.3-.5-4-1.8-4-4 0-1.1.5-2.2 1.2-3-.1-.2-.2-.7-.2-1.4 0-.4 0-.9.2-1.3 0-.2.2-.3.3-.3h.1c.5.1 1.5.4 2.4 1.3.6-.2 1.3-.3 2-.3s1.4.1 2 .3c.9-.9 2-1.2 2.5-1.3h.1c.2 0 .3.1.4.3v1.3c0 .8-.1 1.2-.2 1.4.7.8 1.2 1.8 1.2 3 0 2.2-1.7 3.5-4 4 .6.5 1 1.4 1 2.3v2.6c0 .3.3.6.7.5 3.7-1.5 6.3-5.1 6.3-9.3 0-6-5.1-10.7-11.1-10z"/></svg><svg viewBox="0 0 256 256" id="gulp" xmlns="http://www.w3.org/2000/svg"><path d="M177.232 8a1.12 1.12 0 0 0-.744.264l-29.72 35.296-6.064 20.848a387.472 387.472 0 0 0-12.736-.192c-30.88 0-55.968 3.28-55.968 7.328 0 9.68 111.92 9.68 111.92 0 0-3-13.4-5.528-32.72-6.728l4.8-17.16 27.8-33.44.04-.048c.624-.64-.592-2.592-2.576-4.296-1.488-1.28-3.048-1.912-4.032-1.872zm-38.808 64.608-.112.328c-.048.04-.048.096-.048.144 0 .6 2.424 1.088 5.376 1.088 2.96 0 5.392-.488 5.392-1.088l.096-.376c.776.28 1.2.6 1.2.968 0 .968-3 1.76-6.736 1.72-3.632 0-6.64-.736-6.64-1.704 0-.416.6-.8 1.472-1.08zm44.88 2.752c-14.816 7.896-95.704 7.952-110.568.112l6.576 57.856c2.856-9.224 10.08-21.68 19.376-25.456 3.04-1.248 6.144-1.24 9.04.424 2.528 1.384 4.656 4.288 4.896 5.44.584 3-.96 4.184-2.168 4.184-1.456 0-2.568-2.112-3.296-3.36-1.984-3.36-4.992-3.512-8.192-1.296-3.344 2.304-6.248 6.184-8.28 9.552a53.048 53.048 0 0 0-5.816 13c-.72 2.584-1.392 6.72-.28 9.168.488 1.016 1.208 1.656 2.376 1.656 2.424 0 5.944-3.04 7.64-4.656 2.176-2.072 4.984-5.304 6.048-7.376l2.528-7.136c1.256-3.136 4.784-2.584 4.784 0 0 4.704-1.776 6.272-4.824 16-2.808 8.992-3.688 11.904-3.688 11.904-.336 1.28-1.648 3.456-3.048 3.456-.584 0-1.008-.2-1.248-.56-.488-.656-.44-2.432-.4-2.896.104-1.472 3.048-10.24 3.536-11.624a58.88 58.88 0 0 1-3.096 3.04c-2.616 2.36-6.816 5.44-10.4 5.44a6.096 6.096 0 0 1-3.72-1.104l3.672 36.704c.96 2.304 18.984 7.888 42.704 7.888 23.76 0 41.76-5.624 42.688-7.888l5.28-43.616c-2.76 2.4-5.952 5.36-9.488 6.832-2.616 1.064-8.424 1.744-8.424-2.64 0-2.4 4.416-6.816 6.976-9.904.68-.784 2.264-2.72 2.264-3.736 0-1.336-2.896-1.032-5.656 1.136a26.984 26.984 0 0 0-4.224 4.48c-2.08 2.776-3.184 5.16-4.104 7.144-3 6.544-1.984 3.968-4.408 10.144-2.424 6.136-2.032 5.44-2.52 6.456a4.52 4.52 0 0 1-1.936 2.08 3.04 3.04 0 0 1-2.952-.144c-.432-.28-.64-.88-.64-1.704 0-.416.064-.832.16-1.248.72-2.816 3.776-8.344 7.264-15.816.776-1.704.48-1.2.376-1.064-3 2.768-5.28 4.112-6.968 4.848-2.808 1.2-6.296 1.2-7.016-1.896-.048-.184-.048-.376-.096-.56-5.712 4.24-11.76 5.392-9.672-3.736-2.224 3.784-6.104 6.88-10.856 6.88-1.984 0-3.44-.64-4.16-2.344-1.112-2.536.624-6.88 2.216-10.984.824-2.08 1.952-4.56 3.456-7.472.776-1.568 2.024-2.496 3.672-2.08a4.32 4.32 0 0 1 .784.328c1.256.832.768 2.064.136 3.312-1.84 3.456-3.44 6-4.496 9.6-.432 1.52-.976 4.16.72 4.16a5.824 5.824 0 0 0 3.344-1.12c2.224-1.56 4.008-3.912 5.368-6.216a30.8 30.8 0 0 0 2.72-5.672c.24-.784.544-1.52.88-2.216.536-1.152 1.248-2.344 2.512-2.344.64 0 1.152.232 1.544.688.824 1.016.64 2.056.208 3.168-.968 2.584-2.272 4.896-3.344 7.704-.64 1.616-1.312 3.688-1.312 5.392 0 1.568 1.792 1.2 3.296.544 1.16-.504 2.32-1.28 3.296-2.056.584-2.256.432-1.76 12.784-31.456.632-1.52 1.792-2.176 2.952-2.176a2.72 2.72 0 0 1 1.544.52c.824.6.84 1.872.504 2.84-.336.88-.304.608-2.192 4.848-2.52 5.576-4.16 9.6-6.392 14.72-.92 2.12-3.72 8.712-4.2 10.28-.288 1.016-.64 2.672.48 2.672 2.624 0 9.352-6.048 11.192-7.84.096-.144.24-.192.44-.288.288-.88.568-1.696.808-2.528.68-1.76 1.32-3.8 2.584-5.224.384-.464.816-.728 1.296-.728 1.352 0 2.032.544 2.032 1.84 0 .504-.336 2.36-.536 2.864.68-.688 1.4-1.376 2.176-2.064 7.264-6.408 12.432-3.144 12.432.088 0 3.408-4.304 8.16-6.672 10.784-.776.88-2.368 2.488-2.416 2.96 0 .592.424.84 1.056.84.968 0 3.104-1.624 3.88-2.176 2.424-1.8 5.704-4.56 8.032-6.496zM87.44 192.24l7.216 11.72 2.816 36.608c0 4.104 13.696 7.424 30.544 7.424s30.544-3.32 30.544-7.424l2.24-36.984 6.808-11.344c-19.176 7.704-60.216 7.976-80.168 0z" font-family="none" font-weight="none" font-size="none" text-anchor="none"/></svg><svg viewBox="0 0 256 256" id="html5" xmlns="http://www.w3.org/2000/svg"><path d="M231.798 11.899a5.1 5.1 0 0 0-3.779-1.659H27.981a5.1 5.1 0 0 0-5.1 5.58l18.023 201.862c.174 2.12 1.659 3.876 3.696 4.48l81.982 23.398c.44.139.921.2 1.398.2a4.741 4.741 0 0 0 1.402-.205l82.038-23.398a5.16 5.16 0 0 0 3.702-4.475L233.114 15.82a5.043 5.043 0 0 0-1.321-3.922zM188.662 81.5H92.339l2.304 26.061h91.7l-6.887 77.015-51.497 15.565-.497-.159-50.903-15.421-2.78-31.38h24.94l1.08 12.18 28.462 5.96 27.94-5.96 2.98-32.963H71.92l-6.78-75.796h125.733z" font-family="none" font-weight="none" font-size="none" text-anchor="none"/></svg><svg viewBox="0 0 50 50" id="instagram" xmlns="http://www.w3.org/2000/svg"><path d="M16 3C8.83 3 3 8.83 3 16v18c0 7.17 5.83 13 13 13h18c7.17 0 13-5.83 13-13V16c0-7.17-5.83-13-13-13H16zm21 8c1.1 0 2 .9 2 2s-.9 2-2 2-2-.9-2-2 .9-2 2-2zm-12 3c6.07 0 11 4.93 11 11s-4.93 11-11 11-11-4.93-11-11 4.93-11 11-11zm0 2c-4.96 0-9 4.04-9 9s4.04 9 9 9 9-4.04 9-9-4.04-9-9-9z"/></svg><svg viewBox="0 0 256 256" id="javascript" xmlns="http://www.w3.org/2000/svg"><path d="M221.88 20.48H34.14a13.665 13.665 0 0 0-13.66 13.66v187.72a13.665 13.665 0 0 0 13.66 13.66h187.72a13.66 13.66 0 0 0 13.66-13.64V34.14a13.66 13.66 0 0 0-13.64-13.66zm-83.64 164.782c0 20.46-12.001 29.778-29.522 29.778-15.836 0-27.259-10.619-31.918-20.48l16.102-9.738c3.098 5.499 7.819 9.738 14.618 9.738 6.502 0 10.24-2.54 10.24-12.421V117.76h20.48zm44.421 29.778c-18.14 0-28.441-9.14-34.181-20.48l15.36-10.24c4.178 6.84 8.74 13.379 18.38 13.379 8.1 0 12.34-4.04 12.34-9.641 0-6.677-4.403-9.063-13.302-12.954l-4.88-2.1c-14.1-6.005-23.48-13.526-23.48-29.44 0-14.642 11.183-25.804 28.621-25.804 12.421 0 21.34 4.321 27.781 15.642l-15.2 9.779c-3.36-6.021-6.964-8.382-12.58-8.382-5.72 0-9.34 3.64-9.34 8.382 0 5.857 3.62 8.217 12.002 11.858l4.88 2.099c16.619 7.101 25.978 14.362 25.978 30.684 0 17.577-13.824 27.218-32.379 27.218z" font-family="none" font-weight="none" font-size="none" text-anchor="none"/></svg><svg viewBox="0 0 256 256" id="jquery" xmlns="http://www.w3.org/2000/svg"><path d="M152.919 15.401a5.78 5.78 0 0 0-1.597.481c-4.404 2.176-9.4 8.658-10.363 9.938-.057.082-.118.159-.159.24a45.9 45.9 0 0 0-7.68 25.079 50.56 50.56 0 0 0 3.942 19.916c6.237 14.987 19.2 27.387 34.617 33.183l1.92.681c.082.041.84.282.962.302l.563.2c.794.256 1.618.517 2.417.68 4.06.82 8.018 1.28 11.74 1.399.64 0 1.28.02 1.92.02 28.058 0 38.938-19.799 42.558-26.399.358-.64.62-1.162.86-1.485 0-.015 0-.015.02-.035a5.12 5.12 0 1 0-8.458-5.76h-.02c-7.48 11.018-20.28 14.361-38.021 9.958a36.516 36.516 0 0 1-4.04-1.3 48.947 48.947 0 0 1-4.915-2.059 51.56 51.56 0 0 1-8.663-5.422c-15.601-12.098-21.704-37.273-12.58-51.814a5.12 5.12 0 0 0-5.018-7.803zM107.556 25.6a5.012 5.012 0 0 0-3.297 1.162c-7.737 6.298-15.657 16.62-16 17.04a1.341 1.341 0 0 1-.139.22c-13.998 20.377-15.058 49.377-2.677 73.881a91.826 91.826 0 0 0 6.476 10.978l.702.998c1.981 2.903 4.198 6.18 7.04 8.74.978 1.121 2.038 2.201 3.077 3.24l.502.523.42.42c1.06 1.019 2.14 2.058 3.261 3.057h.02c.077.122.2.204.297.302 1.26 1.12 2.54 2.18 4.24 3.517l.46.343a86.854 86.854 0 0 0 4.045 3.041l.415.297c.481.323.963.62 1.444.963l.476.317.563.359c1.02.68 2.018 1.3 3.44 2.12.923.563 1.895 1.126 2.54 1.443.277.159.579.318 1.28.697l1.557.819.522.24a70.738 70.738 0 0 0 3.139 1.5l1.623.723c1.06.46 2.14.9 3.456 1.402l.604.22c.036.036.538.216.578.236.958.343 1.941.681 2.919 1.004l2.242.737c1.117.379 2.417.82 3.84 1.06a123.7 123.7 0 0 0 20.178 1.761c.763 0 1.521-.02 2.263-.02 56.52-1.24 71.22-49.26 71.358-49.741a5.14 5.14 0 0 0-2.719-6.078 5.12 5.12 0 0 0-6.42 1.762c-14.321 20.915-41.4 29.757-68.982 22.476a59.798 59.798 0 0 1-4.06-1.177 13.686 13.686 0 0 1-.901-.323 46.561 46.561 0 0 1-2.775-.957l-1.424-.543a62.976 62.976 0 0 1-2.637-1.075l-.665-.307c-1.219-.512-2.396-1.096-3.456-1.618l-2.919-1.52c-.665-.318-1.244-.677-2.14-1.22l-.502-.281-.501-.297a33.188 33.188 0 0 1-2.16-1.382l-.477-.297a7.066 7.066 0 0 1-.481-.343l-1.741-1.117a101.282 101.282 0 0 1-3.881-2.918l-.563-.46c-13.195-10.548-22.953-24.628-27.536-39.722-4.26-13.86-1.1-32 8.459-48.522a5.094 5.094 0 0 0-1.117-6.461 5.043 5.043 0 0 0-3.261-1.219zm-56.33 15.36c-1.219 0-2.458.44-3.441 1.321-9.78 8.78-17.1 20.157-17.9 21.458-20.92 30.464-16.88 77.803-2.519 106.742.277.599.579 1.177.881 1.76l.2.318c.256.579.563 1.178.66 1.3a4.956 4.956 0 0 0 .497.922c.24.497.481.937.921 1.7l1.639 2.816.563.922c.317.522.66 1.06.998 1.602l.8 1.28c.24.38.48.717.64.922.798 1.24 1.602 2.478 2.482 3.656a.678.678 0 0 0 .118.143l.323.44a48.999 48.999 0 0 0 2.12 2.857l2.918 3.702a7.5 7.5 0 0 1 .379.46l.42.477c.88 1.08 1.822 2.16 2.764 3.2.139.164.277.302.415.46.901.984 1.823 1.962 2.78 2.98l.922.881c.758.8 1.52 1.582 2.32 2.32 0 .02.378.379.378.379l.799.742c.962.922 1.96 1.843 2.724 2.478.04.062.757.681.819.722.937.84 1.879 1.638 2.841 2.422l4.9 3.876c.82.604 1.66 1.203 2.617 1.904.322.236.665.476 1.003.697a3.43 3.43 0 0 0 .4.302l3.68 2.457c1.337.88 2.678 1.7 4.317 2.683l.88.497a76.667 76.667 0 0 0 3.042 1.72c.578.323 1.157.604 1.659.86.701.384 1.459.804 2.621 1.362a94.239 94.239 0 0 0 4.838 2.279c0 .02.482.24.482.24a216.049 216.049 0 0 0 5.038 2.079c1.239.481 2.54.962 3.6 1.341l.742.302a190.054 190.054 0 0 0 5.278 1.7l1.024.318c1.24.384 2.478.783 3.82 1.04 9.518 1.74 18.816 2.641 27.617 2.641h.02c73.34 0 96.702-59.018 96.943-59.617a5.12 5.12 0 0 0-8.884-4.92c-18.82 24.78-54.323 33.976-94.96 24.637a54.328 54.328 0 0 1-2.96-.82l-1.92-.578a108.98 108.98 0 0 1-4.454-1.5 78.794 78.794 0 0 1-3.226-1.203l-1.12-.44a98.955 98.955 0 0 1-3.677-1.557l-.701-.302c-1.08-.502-2.12-.978-3.16-1.5a21.535 21.535 0 0 0-.982-.461 74.533 74.533 0 0 1-2.356-1.24l-4.183-2.237a14.32 14.32 0 0 0-1.28-.762c-1.26-.779-2.56-1.562-3.84-2.381-.302-.18-.563-.38-1.06-.717a83.943 83.943 0 0 1-3-2.022l-.502-.359c-.86-.599-1.7-1.239-2.396-1.761-.44-.318-.88-.681-1.602-1.219-.64-.501-1.28-.983-1.88-1.459l-1.12-.922c-.938-.757-1.818-1.561-2.74-2.34a2.606 2.606 0 0 0-.358-.301c-1.024-.937-2.064-1.88-3.303-3.057l-3.62-3.6a107.105 107.105 0 0 1-2.76-2.918 146.453 146.453 0 0 1-2.979-3.446l-2.16-2.636a13.676 13.676 0 0 0-.881-1.163c-.738-.998-1.48-1.981-2.217-3.02-19.917-27.439-25.124-84.716-9.6-105.698a5.12 5.12 0 0 0-4.107-8.161z" font-family="none" font-weight="none" font-size="none" text-anchor="none"/></svg><svg version="1.0" viewBox="0 0 2397 1478" id="pug" xmlns="http://www.w3.org/2000/svg"><path d="M679 42.7c-93.9 6.5-190.2 29.7-266.6 64.2-42.2 19-99.4 62.7-177.4 135.5C127.5 342.7 1 484.4 1 504.6c0 3.6 3.1 7.6 16.9 21.8 13.7 13.9 35.5 34.3 88 82 44.7 40.8 73.7 68 80.3 75.8 5.1 6 23.5 43.1 37.5 75.8 25.4 59 43.7 97.5 58.2 122 17.1 29 35 49.4 49.7 56.6 6.4 3.2 8.6 3.8 14.2 3.8 15.1 0 25.2-8.9 32.7-28.8 8.4-22.5 12.9-55.9 21-155.6 12.6-156 23.8-230.4 46.5-309 27.8-96.1 87.4-194.3 182.8-301 25-27.9 74.1-76.5 97.1-96.1l5.4-4.6-2.4-1.6c-4.5-3-29.2-4.5-49.9-3zm1005.5.3c-6.9 1-11.5 2.5-11.5 3.9 0 .5 6 6.2 13.3 12.7 16.5 14.8 53.4 51.1 72.2 71.1 91.4 96.9 158.8 200.3 190.3 291.5 16.2 46.8 29.5 107 39.2 177.3 5.7 42.1 8.5 69.9 16 160 4.9 58.9 7.4 84.4 10.5 106.5.8 5.8 1.8 12.5 2.1 15 1.2 9.3 7.5 31.5 11.3 39.4 7 15.1 16.3 22.1 29 21.9 11.2-.1 20.5-4.9 32.7-17.1 23.2-23.1 47.1-65.7 82.1-146.7 3.6-8.3 14.8-31.8 24.9-52.4 10.1-20.6 18.4-37.9 18.4-38.6 0-2.2 38.1-38.7 84-80.4 56.2-51.1 82.8-76.1 91.4-85.6l6.6-7.3v-22.3l-4.2-6.2c-27.1-40.2-95-115.9-175.9-196.2-64.4-63.8-109.7-104.2-156.4-139.2-37.7-28.4-56.1-38.8-96.6-54.8-63.6-25.2-144.1-44.2-215.9-51-19.8-1.9-55.2-2.7-63.5-1.5zm-1015 390.4c-69.4 11.5-121.6 61.4-136.7 130.6-2 9.2-2.3 13.3-2.2 32.5 0 19.1.3 23.4 2.3 32.5 14.5 67.2 65.6 117.2 132.6 129.6 14.2 2.7 44 2.6 58.2 0l10.3-1.9 10.7-10.9c22.2-22.6 60.1-56.8 90.8-81.9l14-11.5 2.3-6.9c5.4-16.7 6.6-25.5 6.6-49 0-19.1-.3-23.4-2.2-32.5-7.1-32.7-22.4-61.1-45.2-84-22.5-22.5-51.6-38.3-82.8-45.1-12.4-2.7-46.3-3.5-58.7-1.5zm80.7 48.6c20.7 6.4 33.6 27 30 48-6.1 35.4-49.1 48.7-73.7 22.9-12.8-13.4-15.7-31.3-7.7-48.3 9.2-19.3 31-28.9 51.4-22.6z"/><path d="M1702.5 433.5c-53.4 8.4-98.6 41.7-122.5 90-11.1 22.5-15.9 41.7-16.7 67.5-.8 24.1 2 41.3 10.4 63.9l3.8 10.5 8.9 7.5c27.9 23.6 50.4 44 73.6 66.7l12.5 12.3 8.5 2.5c28.3 8.4 61 8.8 89.9 1 52.4-14.1 95.5-54.7 112.7-105.9 6.8-20.4 7.8-27.4 7.8-53 0-20-.3-24.3-2.2-33.1-14.7-67.3-67.1-118-133.6-129.4-13.8-2.3-40-2.6-53.1-.5zm-5.6 48.4c16.3 5.1 27.3 17.8 30.3 34.9 2.3 13.6-2.5 27.4-13.1 37.6-7 6.6-13.9 10.1-23.1 11.5-28.2 4.5-54-21.1-49.2-49.1 4.5-26.4 30.2-42.7 55.1-34.9zm-493.4 91.3c-61.2 3.4-118.4 33.5-139.5 73.4l-3.5 6.7-18.5 6.1C938.1 694 849.5 757.2 773.9 850.5c-42.6 52.5-65.6 93.6-75.3 134.5-6.7 28.2-8 50.5-7.3 129 .5 60.1 1.1 75.4 4.3 109 7.8 83.6 26 138.5 55.9 168.6 18.4 18.6 43.5 29.9 72.6 32.8 3 .3 14.6 1.5 25.9 2.6 40.2 4 50.8 6.5 72 17 30.9 15.4 64.1 25.1 102.5 30 27.4 3.5 51.4 4.3 99 3.4 24.2-.5 89.9-.9 146-.9 91.2 0 103.6-.2 117-1.8 47.7-5.6 79.4-14.4 118-32.7 19-9 31.1-11.9 57.6-14 7.9-.6 20.5-1.5 27.9-2.1 44.5-3.5 69.8-14.1 90.1-38 30.3-35.6 46.9-97.6 52.9-197.9 1.7-27.4 2.7-108.1 1.8-140.3-1.2-45.9-6.3-71.4-20.9-104.1-18.8-42.3-62.1-100.9-110-148.6-63.7-63.6-136.3-109.3-216.8-136.5l-15.4-5.2-2.3-5.7c-6-14.7-22.4-33.2-40-44.9-34.8-23.2-78.8-34.2-125.9-31.5zm57.4 25.2c-1 1-44.9 18.6-49 19.7-4.4 1.2-5.2 1.1-13.5-2.1-10.1-3.7-41.6-16.9-42.3-17.6-.2-.2 23.3-.4 52.4-.4 29.1 0 52.6.2 52.4.4zm-32 351.2c21.7 5.7 51.9 22.6 81.6 45.6 10.9 8.5 47.3 43.1 41.5 39.5-1.4-.9-7.7-4.9-14-8.8-23.1-14.6-53.3-29-77.1-36.7-32-10.4-51.1-10.4-84.7-.1-33.8 10.4-75.7 31.9-104.2 53.4-8.5 6.4-8.9 6.4-3.3-.1 7.6-8.8 30.5-31 40.8-39.5 26.3-21.7 54.5-39.1 80-49.2 16.8-6.6 25.8-7.6 39.4-4.1z"/></svg><svg viewBox="0 0 256 256" id="react" xmlns="http://www.w3.org/2000/svg"><path d="M91.136 35.686c-5.214 0-10.052 1.16-14.336 3.627-13.389 7.731-18.483 26.573-15.787 50.022C39.364 98.722 25.6 112.546 25.6 128s13.764 29.278 35.413 38.664c-2.696 23.45 2.398 42.292 15.787 50.023 4.275 2.466 9.114 3.627 14.336 3.627 11.11 0 23.962-5.573 36.864-15.147 12.902 9.574 25.77 15.147 36.881 15.147 5.214 0 10.052-1.161 14.336-3.627 13.389-7.731 18.483-26.573 15.787-50.023 21.64-9.386 35.396-23.21 35.396-38.664s-13.764-29.278-35.413-38.665c2.696-23.45-2.398-42.29-15.787-50.022-4.275-2.475-9.114-3.627-14.336-3.627-11.11 0-23.962 5.573-36.864 15.147-12.902-9.574-25.754-15.147-36.864-15.147zm0 14.934c6.664 0 15.488 3.541 25.062 10.112-5.632 5.316-11.144 11.349-16.452 18.09-8.602 1.23-16.717 3.03-24.235 5.274-.034-.512-.128-1.067-.162-1.579-.913-15.189 2.424-26.513 8.918-30.267 1.92-1.11 4.164-1.63 6.869-1.63zm73.728 0c2.696 0 4.95.52 6.87 1.63 6.493 3.746 9.83 15.078 8.917 30.267-.035.512-.128 1.058-.171 1.579a167.441 167.441 0 0 0-24.243-5.282 167.15 167.15 0 0 0-16.435-18.082c9.574-6.571 18.397-10.112 25.062-10.112zM128 70.22a138.06 138.06 0 0 1 6.938 6.76c-2.304-.078-4.6-.18-6.938-.18s-4.617.102-6.912.18A134.274 134.274 0 0 1 128 70.22zm0 21.513c7.074 0 13.773.393 20.139 1.084 3.874 5.274 7.697 10.837 11.28 17.05A186.03 186.03 0 0 1 168.568 128a185.515 185.515 0 0 1-9.147 18.15 182.545 182.545 0 0 1-11.256 16.982c-6.579.725-13.337 1.135-20.164 1.135a186.19 186.19 0 0 1-20.139-1.084 182.656 182.656 0 0 1-11.28-17.033A185.71 185.71 0 0 1 87.431 128a186.03 186.03 0 0 1 9.148-18.133 182.955 182.955 0 0 1 11.256-16.999A185.668 185.668 0 0 1 128 91.733zm40.5 4.617c3.387.819 6.638 1.706 9.702 2.68a134.134 134.134 0 0 1-2.5 9.557c-1.102-2.065-2.168-4.13-3.354-6.187-1.22-2.116-2.577-4.01-3.84-6.05zm-81.016.017c-1.272 2.03-2.62 3.925-3.84 6.033-1.178 2.048-2.245 4.122-3.345 6.187a138.965 138.965 0 0 1-2.518-9.566c3.115-.99 6.366-1.86 9.703-2.654zm-23.749 8.132c1.792 7.595 4.293 15.463 7.501 23.484a167.415 167.415 0 0 0-7.483 23.432c-14.866-7.168-23.22-16.11-23.22-23.415 0-7.5 8.124-16.043 21.735-22.852.46-.23.99-.427 1.467-.649zm128.512.085c14.865 7.168 23.22 16.111 23.22 23.416 0 7.5-8.124 16.043-21.735 22.852-.46.23-.99.427-1.468.649-1.792-7.595-4.266-15.471-7.483-23.501 3.2-7.996 5.674-15.846 7.466-23.416zM128 110.934a17.067 17.067 0 1 0-.009 34.124 17.067 17.067 0 0 0 .009-34.125zm-47.701 36.48c1.1 2.064 2.184 4.13 3.37 6.186 1.22 2.116 2.56 4.01 3.832 6.05-3.388-.82-6.64-1.707-9.703-2.68.692-3.14 1.536-6.323 2.5-9.557zm95.402.016c.956 3.234 1.826 6.417 2.518 9.558-3.115.981-6.366 1.851-9.703 2.645 1.272-2.03 2.62-3.925 3.84-6.033 1.178-2.048 2.244-4.113 3.345-6.17zM75.52 171.904c7.51 2.244 15.633 4.045 24.243 5.282a167.142 167.142 0 0 0 16.435 18.09c-9.574 6.571-18.398 10.121-25.062 10.121a13.397 13.397 0 0 1-6.87-1.647c-6.493-3.746-9.83-15.061-8.917-30.25.034-.52.128-1.076.171-1.596zm104.96 0c.043.52.136 1.075.17 1.596.914 15.189-2.423 26.496-8.917 30.25-1.92 1.11-4.164 1.647-6.87 1.647-6.664 0-15.487-3.541-25.061-10.112a167.27 167.27 0 0 0 16.452-18.099 167.407 167.407 0 0 0 24.234-5.29zm-59.41 7.117c2.305.077 4.592.179 6.93.179s4.634-.102 6.938-.18a138.06 138.06 0 0 1-6.938 6.76 138.06 138.06 0 0 1-6.938-6.76z" font-family="none" font-weight="none" font-size="none" text-anchor="none"/></svg><svg viewBox="0 0 460 460" id="redux" xmlns="http://www.w3.org/2000/svg"><path d="M220.5 21.5c38.174-1.775 69.008 12.225 92.5 42 20.804 28.514 31.804 60.514 33 96a130.129 130.129 0 0 0-27.5-8c-3.926-32.006-16.593-59.84-38-83.5-23.551-20.306-49.884-24.64-79-13-14.417 5.45-26.917 13.617-37.5 24.5-22.647 30.535-33.813 65.035-33.5 103.5.55 37.641 10.05 72.808 28.5 105.5 12.924-.539 23.591 4.128 32 14 9.381 16.925 6.881 31.758-7.5 44.5-20.271 10.684-36.105 6.184-47.5-13.5-3.473-9.697-2.973-19.197 1.5-28.5-29.217-49.42-39.717-102.587-31.5-159.5 6.432-41.397 25.599-75.23 57.5-101.5 17.253-11.961 36.253-19.461 57-22.5Z"/><path d="M197.5 150.5c14.584-2.036 25.917 2.964 34 15 37.399-.286 73.399 6.547 108 20.5 46.159 20.16 80.659 52.66 103.5 97.5 26.369 75.424 1.869 125.59-73.5 150.5-37.239 7.608-72.905 3.108-107-13.5a308.764 308.764 0 0 0 26-21c30.109 14.041 60.776 15.541 92 4.5 28.218-15.065 43.884-38.565 47-70.5-2.256-23.161-10.089-44.161-23.5-63-20.997-27.265-47.497-47.431-79.5-60.5-29.511-11.935-60.178-17.102-92-15.5-4.144 10.29-11.811 16.457-23 18.5-19.745 1.587-31.912-7.247-36.5-26.5-1.466-18.68 6.7-30.68 24.5-36Z"/><path d="M78.5 216.5c.996-.086 1.83.248 2.5 1a129.084 129.084 0 0 0 7.5 27.5c-24.771 18.706-40.605 43.206-47.5 73.5-3.125 29.557 6.375 54.057 28.5 73.5 22.682 15.074 47.682 20.741 75 17 20.402-2.533 39.735-8.533 58-18 24.986-12.969 47.153-29.803 66.5-50.5a255.663 255.663 0 0 0 23.5-36c-13.891-19.573-11.225-36.407 8-50.5 16.62-6.887 30.454-3.387 41.5 10.5 8.676 15.803 6.509 29.97-6.5 42.5a64.853 64.853 0 0 1-16.5 7.5c-40.204 75.724-103.371 116.724-189.5 123-29.63-.377-56.297-9.21-80-26.5-19.867-17.249-31.034-39.082-33.5-65.5-3.666-38.498 7.167-72.164 32.5-101a593.446 593.446 0 0 1 30-28Z"/></svg><svg viewBox="74 110 350 350" id="rest-api" xmlns="http://www.w3.org/2000/svg"><path fill-rule="evenodd" clip-rule="evenodd" d="m365.92 129.929 7.233 9.522c1.899 2.514 1.424 6.116-1.089 8.015l-7.68 5.836a44.773 44.773 0 0 1 2.653 11.729l8.741 1.201c3.127.419 5.306 3.323 4.887 6.451l-1.62 11.868c-.419 3.127-3.323 5.334-6.451 4.887l-9.55-1.313a44.554 44.554 0 0 1-6.451 10.165l5.362 7.037c1.899 2.514 1.396 6.116-1.117 8.015l-9.523 7.233c-2.513 1.899-6.116 1.396-8.015-1.09l-5.836-7.679a44.969 44.969 0 0 1-11.757 2.653l-1.2 8.741c-.419 3.127-3.323 5.305-6.451 4.887l-11.868-1.62c-3.128-.419-5.306-3.323-4.887-6.451l1.312-9.55a46.072 46.072 0 0 1-10.165-6.423l-7.037 5.334c-2.513 1.898-6.116 1.424-8.014-1.09l-7.233-9.522c-1.899-2.513-1.424-6.116 1.089-8.015l7.679-5.836a45.027 45.027 0 0 1-2.652-11.729l-8.741-1.201c-3.128-.418-5.334-3.323-4.887-6.45l1.62-11.869a5.745 5.745 0 0 1 6.45-4.887l9.551 1.313a45.998 45.998 0 0 1 6.423-10.165l-5.334-7.037c-1.899-2.486-1.424-6.088 1.089-7.987l9.523-7.232c2.513-1.899 6.115-1.425 8.014 1.089l5.837 7.679a44.766 44.766 0 0 1 11.728-2.653l1.201-8.74c.419-3.128 3.323-5.334 6.451-4.915l11.868 1.619c3.128.419 5.334 3.323 4.887 6.451l-1.312 9.551a45.284 45.284 0 0 1 10.192 6.45l7.038-5.333a5.736 5.736 0 0 1 8.042 1.061Zm-204.19 167.58v-46.077h23.736c4.412 0 7.763.363 10.081 1.145 2.318.754 4.217 2.15 5.613 4.189 1.424 2.066 2.15 4.552 2.15 7.484 0 2.541-.558 4.775-1.647 6.618-1.089 1.871-2.597 3.379-4.496 4.524-1.201.726-2.876 1.341-4.999 1.815 1.704.587 2.932 1.117 3.686 1.704.531.391 1.285 1.201 2.262 2.429.978 1.229 1.648 2.206 1.983 2.877l6.926 13.32H190.94l-7.596-14.047c-.978-1.815-1.815-3.015-2.569-3.546a6.129 6.129 0 0 0-3.491-1.061h-1.257v18.654H161.73v-.028Zm50.209 80.23h-26.585l-3.825 12.51h-23.96l28.567-75.929h25.692l28.456 75.929h-24.575l-3.77-12.51Zm-4.97-16.448-8.294-27.311-8.322 27.311h16.616Zm38.844-46.971h39.04c8.517 0 14.884 2.011 19.101 6.06 4.216 4.049 6.339 9.83 6.339 17.286 0 7.679-2.318 13.683-6.926 18.012-4.608 4.328-11.673 6.478-21.139 6.478h-12.874v28.093h-23.541V314.32Zm23.541 32.449h5.781c4.551 0 7.763-.781 9.606-2.373 1.843-1.564 2.765-3.603 2.765-6.032 0-2.374-.81-4.412-2.402-6.06-1.592-1.648-4.608-2.485-9.02-2.485h-6.73v16.95Zm50.433-32.449h23.541v75.929h-23.541V314.32Zm-143.76-44.178h6.004c.643 0 1.899-.223 3.77-.642.95-.196 1.732-.67 2.318-1.452.614-.782.894-1.676.894-2.681 0-1.48-.475-2.653-1.425-3.435-.949-.81-2.708-1.201-5.305-1.201h-6.256v9.411Zm33.734-18.71h38.118v9.83h-23.82v7.344h22.089v9.383h-22.089v9.076h24.519v10.416h-38.817v-46.049Zm42.196 30.83 13.515-.838c.28 2.206.894 3.854 1.788 4.999 1.48 1.843 3.574 2.792 6.283 2.792 2.01 0 3.602-.475 4.691-1.424s1.648-2.066 1.648-3.323c0-1.201-.531-2.262-1.564-3.212-1.033-.949-3.463-1.815-7.288-2.68-6.228-1.397-10.668-3.268-13.349-5.585-2.681-2.318-4.021-5.278-4.021-8.881 0-2.373.698-4.607 2.066-6.702 1.369-2.094 3.435-3.77 6.2-4.971 2.764-1.2 6.534-1.787 11.338-1.787 5.892 0 10.36 1.089 13.46 3.295 3.071 2.207 4.915 5.669 5.501 10.472l-13.376.81c-.363-2.094-1.117-3.63-2.234-4.552-1.145-.949-2.737-1.424-4.72-1.424-1.647 0-2.904.363-3.742 1.061-.838.699-1.256 1.564-1.256 2.57 0 .726.363 1.368 1.033 1.982.67.587 2.234 1.173 4.747 1.704 6.228 1.34 10.696 2.708 13.376 4.077 2.681 1.368 4.664 3.072 5.865 5.11 1.228 2.011 1.843 4.301 1.843 6.814 0 2.96-.81 5.669-2.458 8.154-1.619 2.486-3.909 4.384-6.841 5.669-2.932 1.285-6.619 1.927-11.087 1.927-7.819 0-13.264-1.508-16.28-4.524-3.016-3.072-4.72-6.898-5.138-11.533Zm43.87-30.83h43.313v11.394h-14.522v34.683h-14.242v-34.683h-14.549v-11.394Zm-47.92-109.356a88.462 88.462 0 0 0-15.387.168c-15.722 1.508-30.997 7.233-43.619 17.034-14.605 11.31-25.691 28.233-29.964 50.657l-1.34 7.009-6.982 1.229c-6.841 1.201-12.957 2.848-18.319 4.943-5.194 2.01-9.83 4.496-13.879 7.428-3.239 2.346-6.032 4.971-8.405 7.819-7.345 8.797-10.752 19.827-10.668 30.997.084 11.338 3.77 22.787 10.584 32.198 2.541 3.491 5.473 6.702 8.824 9.495a44.292 44.292 0 0 0 11.534 6.925c2.429 1.006 5.026 1.843 7.735 2.514v20.916c-5.585-1.006-10.723-2.514-15.527-4.496-6.339-2.625-11.952-6.004-16.894-10.137a72.12 72.12 0 0 1-12.288-13.181c-9.299-12.846-14.325-28.54-14.437-44.178-.112-15.806 4.803-31.528 15.415-44.262 3.435-4.133 7.484-7.93 12.119-11.282 5.39-3.909 11.561-7.204 18.543-9.913 4.803-1.871 9.941-3.435 15.359-4.691 6.143-24.407 19.24-43.201 36.079-56.242 15.75-12.204 34.712-19.325 54.232-21.196a110.68 110.68 0 0 1 30.801 1.369c-.223.921-.419 1.843-.53 2.792l-.028.168c-.196 1.592-.28 3.183-.196 4.803a24.268 24.268 0 0 0-5.976 3.379l-.084.056c-2.708 2.038-4.998 4.663-6.702 7.679Zm147.754 53.617a76.736 76.736 0 0 1 4.551 4.496c2.988 3.211 5.809 6.842 8.462 10.891 8.936 13.739 13.516 32.086 13.32 50.042-.195 17.621-4.943 35.158-14.661 48.06-6.339 8.405-14.465 15.275-24.211 20.72-6.674 3.743-14.186 6.842-22.368 9.356v-21.643c4.412-1.647 8.517-3.49 12.287-5.585 7.344-4.105 13.348-9.103 17.844-15.107 6.982-9.3 10.417-22.452 10.556-35.94.168-14.159-3.295-28.373-10.025-38.705a57.927 57.927 0 0 0-6.283-8.07 58.016 58.016 0 0 0-2.625-2.625 26.92 26.92 0 0 0 .111-4.245 24.25 24.25 0 0 0 5.976-3.379l.084-.056c2.877-2.206 5.278-4.999 6.982-8.21Zm-70.819-49.875c12.873 1.76 21.865 13.628 20.106 26.501-1.759 12.874-13.628 21.894-26.501 20.135-12.874-1.76-21.894-13.628-20.106-26.501 1.787-12.874 13.627-21.894 26.501-20.135Z"/></svg><svg viewBox="0 0 256 256" id="sass" xmlns="http://www.w3.org/2000/svg"><path d="M239.202 155.736a54.192 54.192 0 0 0-23.916 5.568c-2.448-4.89-4.932-9.192-5.346-12.39-.486-3.732-1.05-5.964-.462-10.41.588-4.446 3.162-10.746 3.126-11.22-.036-.474-.576-2.736-5.898-2.778-5.322-.036-9.876 1.026-10.41 2.43-.534 1.404-1.56 4.566-2.196 7.866-.93 4.824-10.626 22.038-16.128 31.038-1.8-3.516-3.33-6.612-3.648-9.06-.486-3.732-1.05-5.964-.462-10.41.588-4.446 3.162-10.746 3.126-11.22-.036-.474-.576-2.736-5.898-2.778-5.322-.036-9.876 1.026-10.41 2.43-.534 1.404-1.11 4.686-2.196 7.866-1.092 3.174-13.974 31.884-17.352 39.33a226.838 226.838 0 0 1-4.272 8.916l-.006-.012-.174.372a129.49 129.49 0 0 1-1.44 2.748l.018.036c-.72 1.302-1.488 2.508-1.866 2.508-.264 0-.798-3.462.114-8.214 1.92-9.96 6.522-25.488 6.48-26.028-.024-.276.858-2.982-3.006-4.398-3.756-1.374-5.094.918-5.436.924-.33.006-.576.81-.576.81s4.182-17.466-7.98-17.466c-7.608 0-18.144 8.322-23.334 15.864-3.276 1.788-10.29 5.616-17.724 9.702l-8.538 4.698-.57-.624c-14.754-15.738-42.018-26.868-40.866-48.03.42-7.692 3.096-27.948 52.398-52.512 40.386-20.124 72.72-14.586 78.306-2.316 7.98 17.538-17.28 50.124-59.22 54.828-15.978 1.794-24.396-4.404-26.49-6.708-2.202-2.43-2.532-2.538-3.354-2.082-1.338.744-.492 2.886 0 4.164 1.254 3.258 6.39 9.036 15.15 11.916 7.71 2.532 26.472 3.918 49.158-4.86 25.416-9.828 45.258-37.176 39.426-60.03-5.928-23.244-44.472-30.888-80.952-17.928C74.64 55.992 51.138 68.1 34.236 83.904c-20.094 18.792-23.298 35.154-21.978 41.988 4.692 24.288 38.166 40.104 51.57 51.822l-1.848 1.02c-6.72 3.324-32.238 16.68-38.622 30.786-7.242 16.002 1.152 27.486 6.708 29.034 17.214 4.788 34.878-3.828 44.376-17.988 9.492-14.154 8.334-32.592 3.978-41.004l-.168-.312 5.256-3.102c3.42-2.01 6.78-3.882 9.69-5.466-1.632 4.464-2.826 9.822-3.444 17.556-.732 9.084 2.994 20.826 7.866 25.446 2.148 2.034 4.728 2.082 6.36 2.082 5.67 0 8.256-4.716 11.106-10.296 3.492-6.84 6.594-14.808 6.594-14.808s-3.888 21.516 6.708 21.516c3.864 0 7.746-5.01 9.48-7.56l.006.042.3-.498c.402-.612.63-1.002.63-1.002l.018-.114a425.46 425.46 0 0 0 10.158-18.972c6.672-13.092 13.068-29.496 13.068-29.496s.594 4.008 2.544 10.644c1.146 3.9 3.582 8.214 5.508 12.354a145.007 145.007 0 0 1-2.496 3.378l.024.066a122.429 122.429 0 0 1-4.074 5.142c-5.268 6.27-11.538 13.434-12.378 15.498-.99 2.436-.756 4.224 1.158 5.67 1.398 1.05 3.882 1.218 6.48 1.044a29.52 29.52 0 0 0 9.702-2.208 32.556 32.556 0 0 0 8.34-4.386c5.166-3.798 8.28-9.228 7.98-16.428-.168-3.966-1.428-7.896-3.03-11.604l1.41-2.04c8.142-11.904 14.46-24.984 14.46-24.984s.594 4.008 2.544 10.644c.984 3.354 2.934 7.02 4.686 10.608-7.656 6.222-12.402 13.452-14.052 18.192-3.048 8.772-.66 12.744 3.816 13.65 2.028.408 4.896-.522 7.05-1.434a32.628 32.628 0 0 0 8.916-4.584c5.166-3.798 10.134-9.114 9.834-16.308-.138-3.276-1.026-6.528-2.232-9.648 6.492-2.706 14.892-4.206 25.596-2.958 22.962 2.682 27.462 17.016 26.604 23.016-.864 6-5.676 9.3-7.29 10.296-1.608.996-2.1 1.344-1.968 2.082.198 1.074.942 1.038 2.316.804 1.89-.318 12.054-4.878 12.492-15.954.546-14.076-12.924-29.52-36.786-29.394zM62.22 215.4c-7.608 8.298-18.228 11.43-22.788 8.79-4.92-2.85-2.97-15.066 6.36-23.874 5.688-5.364 13.032-10.308 17.904-13.35l4.716-2.832.516-.288-.006-.012 1.176-.708c3.402 12.534.108 23.568-7.878 32.274zm55.41-37.662c-2.646 6.456-8.19 22.98-11.568 22.092-2.898-.762-4.662-13.32-.576-25.68 2.052-6.222 6.444-13.656 9.024-16.542 4.152-4.644 8.724-6.162 9.834-4.278 1.41 2.4-5.052 20.358-6.714 24.408zm45.774 21.84c-1.122.588-2.154.954-2.628.672-.354-.21.462-.984.462-.984s5.724-6.162 7.98-8.964a312.175 312.175 0 0 0 4.488-5.73l.018.642c-.012 7.38-7.14 12.36-10.32 14.364zm35.262-8.04c-.84-.594-.696-2.52 2.058-8.526 1.08-2.358 3.552-6.324 7.836-10.116.498 1.56.798 3.054.792 4.446-.054 9.288-6.678 12.756-10.686 14.196z" font-family="none" font-weight="none" font-size="none" text-anchor="none"/></svg><svg viewBox="0 0 512 512" xml:space="preserve" id="stylelint"><path d="M259.49 499.03c55.98-200.23 54.44-201.21 94.85-344.05l9.68 5.61c5.33 3.09 9.68.56 9.68-5.61V86.94c10.8-37.6 19.22-66.65 21.61-75.35h43.92l72.82 67.49-47.85 41.39 36.2 39.15-238.53 339.41c-1.12 1.97-2.8 1.55-2.38 0zm26.1-431.6c2.24 0 3.93 1.12 3.93 2.67v34.94c0 1.4-1.82 2.67-3.93 2.67h-58.93c-2.25 0-3.93-1.12-3.93-2.67V70.1c0-1.4 1.82-2.67 3.93-2.67h58.93zm72.68-38.72-64.82 37.46c.7 1.12 1.26 2.53 1.26 3.93v34.94c0 1.82-.7 3.37-1.82 4.77l65.53 37.74c4.49 2.53 8.14.42 8.14-4.63V33.48c-.15-5.2-3.8-7.3-8.29-4.77zm-140.74 76.33V70.1c0-1.4.42-2.81 1.26-3.93l-64.96-37.46c-4.49-2.53-8.14-.42-8.14 4.63v109.44c0 5.19 3.65 7.3 8.14 4.63l65.39-37.74c-.98-1.27-1.69-2.95-1.69-4.63zm32.56 393.99h2.39c-55.98-200.23-54.44-201.21-94.85-344.05l-9.68 5.61c-5.33 3.09-9.68.56-9.68-5.61V86.94c-10.8-37.6-19.22-66.65-21.61-75.35H72.87L.05 79.08l47.85 41.39-36.2 39.15 238.39 339.41zm4.07-318.51c9.82 0 17.68-7.86 17.68-17.68s-7.86-17.68-17.68-17.68-17.68 7.86-17.68 17.68c0 9.83 7.99 17.68 17.68 17.68zm0 105.24c9.82 0 17.68-7.86 17.68-17.68s-7.86-17.68-17.68-17.68-17.68 7.86-17.68 17.68c0 9.68 7.99 17.68 17.68 17.68zm0 105.09c9.82 0 17.68-7.86 17.68-17.68s-7.86-17.68-17.68-17.68-17.68 7.86-17.68 17.68 7.99 17.68 17.68 17.68z"/></svg><svg viewBox="0 0 50 50" id="telegram" xmlns="http://www.w3.org/2000/svg"><path d="M25 2c12.703 0 23 10.297 23 23S37.703 48 25 48 2 37.703 2 25 12.297 2 25 2zm7.934 32.375c.423-1.298 2.405-14.234 2.65-16.783.074-.772-.17-1.285-.648-1.514-.578-.278-1.434-.139-2.427.219-1.362.491-18.774 7.884-19.78 8.312-.954.405-1.856.847-1.856 1.487 0 .45.267.703 1.003.966.766.273 2.695.858 3.834 1.172 1.097.303 2.346.04 3.046-.395.742-.461 9.305-6.191 9.92-6.693.614-.502 1.104.141.602.644-.502.502-6.38 6.207-7.155 6.997-.941.959-.273 1.953.358 2.351.721.454 5.906 3.932 6.687 4.49.781.558 1.573.811 2.298.811.725 0 1.107-.955 1.468-2.064z"/></svg><svg viewBox="0 0 256 256" id="typescript" xmlns="http://www.w3.org/2000/svg"><path d="M230.4 20.48H25.6a5.12 5.12 0 0 0-5.12 5.12v204.8a5.12 5.12 0 0 0 5.12 5.12h204.8a5.12 5.12 0 0 0 5.12-5.12V25.6a5.12 5.12 0 0 0-5.12-5.12zm-81.92 114.918h-25.6v79.642H102.4v-79.642H76.8V117.76h71.68zm5.74 75.095v-21.289s11.627 8.766 25.579 8.766 13.414-9.124 13.414-10.373c0-13.24-39.531-13.24-39.531-42.573 0-39.89 57.6-24.151 57.6-24.151l-.717 18.964s-9.661-6.44-20.572-6.44-14.848 5.186-14.848 10.731c0 14.31 39.89 12.882 39.89 41.682.005 44.36-60.815 24.683-60.815 24.683z" font-family="none" font-weight="none" font-size="none" text-anchor="none"/></svg><svg viewBox="0 0 256 256" id="visual-studio-code" xmlns="http://www.w3.org/2000/svg"><path d="M239.995 57.973V197.76a14.388 14.388 0 0 1-8.054 12.907c-14.293 6.88-42.666 20.533-44.533 21.386a30.554 30.554 0 0 1-3.573 1.654c1.866-3.2 2.826-6.934 2.826-10.774V33.067c0-4-1.066-7.734-2.986-10.987.48.213.906.427 1.28.587 1.066.533 31.893 15.253 46.933 22.4a14.347 14.347 0 0 1 8.107 12.906zm-200 80.854c8.533 7.786 18.293 16.693 28.48 25.92L43.94 183.413c-4.106 3.04-9.493 2.667-13.653-.266-2.667-1.92-10.08-8.8-10.08-8.8a11.2 11.2 0 0 1-.587-17.014s8-7.306 20.374-18.506zM170.66 33.067v53.92l-40.693 30.933-36.533-27.787c26.56-24.16 53.386-48.586 67.466-61.44 3.734-3.413 9.76-.693 9.76 4.374zm.006 189.856v-53.91L43.947 72.587c-4.107-3.04-9.494-2.667-13.654.266-2.666 1.92-10.08 8.8-10.08 8.8a11.2 11.2 0 0 0-.586 17.014s107.44 97.802 141.253 128.618c3.765 3.435 9.787.73 9.787-4.362z" font-family="none" font-weight="none" font-size="none" text-anchor="none"/></svg><svg viewBox="0 0 50 50" id="vk" xmlns="http://www.w3.org/2000/svg"><path d="M41 4H9C6.24 4 4 6.24 4 9v32c0 2.76 2.24 5 5 5h32c2.76 0 5-2.24 5-5V9c0-2.76-2.24-5-5-5zm-3.28 29-3.73-.01s-.08.01-.21.01c-.3 0-.92-.08-1.65-.58-1.31-.91-2.56-3.17-3.55-3.17-.07 0-.13.01-.19.03-.86.27-1.12 1.13-1.12 2.18 0 .37-.26.54-.96.54h-1.93c-2.16 0-4.25-.05-6.6-2.62-3.46-3.79-6.7-10.53-6.7-10.53s-.18-.39.01-.62c.18-.21.6-.23.76-.23h4.06s.37.07.64.27c.23.17.35.48.35.48s.68 1.32 1.53 2.81c1.43 2.46 2.2 3.28 2.75 3.28.09 0 .18-.02.27-.07.82-.45.58-4.09.58-4.09s.01-1.32-.42-1.9c-.33-.46-.96-.59-1.24-.63-.22-.03.14-.55.62-.79.62-.3 1.65-.36 2.89-.36h.6c1.17.02 1.2.14 1.66.25 1.38.33.91 1.62.91 4.71 0 .99-.18 2.38.53 2.85.05.03.12.05.21.05.46 0 1.45-.59 3.03-3.26.88-1.52 1.56-3.03 1.56-3.03s.15-.27.38-.41c.22-.13.22-.13.51-.13h.03c.32 0 3.5-.03 4.2-.03h.08c.67 0 1.28.01 1.39.42.16.62-.49 1.73-2.2 4.03-2.82 3.77-3.14 3.49-.8 5.67 2.24 2.08 2.7 3.09 2.78 3.22.93 1.54-1.03 1.66-1.03 1.66z"/></svg><svg viewBox="0 0 600 600" id="webpack" xmlns="http://www.w3.org/2000/svg"><path d="M300 .1 565 150v299.9L300 599.8 35 449.9V150z"/><path d="M517.7 439.5 308.8 557.8v-92L439 394.1zm14.3-12.9V179.4l-76.4 44.1v159zM81.5 439.5l208.9 118.2v-92l-130.2-71.6zm-14.3-12.9V179.4l76.4 44.1v159zm8.9-263.2L290.4 42.2v89l-137.3 75.5-1.1.6zm446.9 0L308.8 42.2v89L446 206.8l1.1.6zM290.4 444.8 162 374.1V234.2l128.4 74.1zm18.4 0 128.4-70.6v-140l-128.4 74.1zM170.6 218l129-70.9L428.5 218l-128.9 74.4z"/></svg><svg viewBox="0 0 50 50" id="whatsapp" xmlns="http://www.w3.org/2000/svg"><path d="M25 2C12.318 2 2 12.318 2 25c0 3.96 1.023 7.854 2.963 11.29L2.037 46.73a.999.999 0 0 0 1.203 1.241l10.896-2.699A23.014 23.014 0 0 0 25 48c12.682 0 23-10.318 23-23S37.682 2 25 2zm11.57 31.116c-.492 1.362-2.852 2.605-3.986 2.772-1.018.149-2.306.213-3.72-.231a34.606 34.606 0 0 1-3.366-1.229c-5.923-2.526-9.791-8.415-10.087-8.804-.295-.389-2.411-3.161-2.411-6.03s1.525-4.28 2.067-4.864c.542-.584 1.181-.73 1.575-.73s.787.005 1.132.021c.363.018.85-.137 1.329 1.001.492 1.168 1.673 4.037 1.819 4.33.148.292.246.633.05 1.022s-.294.632-.59.973-.62.76-.886 1.022c-.296.291-.603.606-.259 1.19s1.529 2.493 3.285 4.039c2.255 1.986 4.158 2.602 4.748 2.894.59.292.935.243 1.279-.146.344-.39 1.476-1.703 1.869-2.286s.787-.487 1.329-.292c.542.194 3.445 1.604 4.035 1.896.59.292.984.438 1.132.681.148.242.148 1.41-.344 2.771z"/></svg></svg>