<svg width="143" height="18" viewBox="0 0 143 18" fill="none" xmlns="http://www.w3.org/2000/svg">
<path d="M12.3146 5.94034H16.5844C16.7464 2.46307 14.0362 0 10.0134 0C5.34297 0 1.1157 3.28125 0.169672 8.99148C-0.742259 14.5142 2.08729 17.9318 7.0816 17.9318C11.5816 17.9318 15.2549 15.1449 16.0219 10.4574L16.4055 8.14773H8.88842L8.37706 11.2244H11.8288C11.4964 13.0653 9.91967 14.233 7.62706 14.233C5.0191 14.233 3.93672 12.2983 4.49069 8.94034C5.03615 5.60796 7.11569 3.69886 9.65547 3.69886C11.343 3.69886 12.1782 4.52557 12.3146 5.94034Z" fill="#353535"/>
<path d="M35.1874 9.23864C36.159 3.34943 32.9715 0 28.1732 0C23.571 0 19.5312 3.10227 18.6107 8.74432C17.6391 14.608 20.8266 17.9318 25.659 17.9318C30.2187 17.9318 34.2414 14.8807 35.1874 9.23864ZM30.9687 8.74432C30.3806 12.2557 28.446 14.233 25.8124 14.233C23.4431 14.233 22.2414 12.5625 22.8295 9.23864C23.392 5.72727 25.3437 3.69886 28.0113 3.69886C30.4062 3.69886 31.4971 5.45455 30.9687 8.74432Z" fill="#353535"/>
<path d="M36.2442 17.6932H40.463L41.6221 10.679H48.4999L47.3408 17.6932H51.5511L54.4488 0.238636H50.2386L49.0795 7.24432H42.2016L43.3607 0.238636H39.142L36.2442 17.6932Z" fill="#353535"/>
<path d="M72.078 9.23864C73.0496 3.34943 69.8621 0 65.0638 0C60.4616 0 56.4218 3.10227 55.5014 8.74432C54.5298 14.608 57.7173 17.9318 62.5496 17.9318C67.1093 17.9318 71.132 14.8807 72.078 9.23864ZM67.8593 8.74432C67.2712 12.2557 65.3366 14.233 62.7031 14.233C60.3337 14.233 59.132 12.5625 59.7201 9.23864C60.2826 5.72727 62.2343 3.69886 64.9019 3.69886C67.2968 3.69886 68.3877 5.45455 67.8593 8.74432Z" fill="#353535"/>
<path d="M90.811 6.5625C91.0582 2.38636 88.2883 0 83.9332 0C79.4076 0 75.3934 3.05114 74.4559 8.71875C73.5014 14.5824 76.578 17.9318 81.419 17.9318C86.115 17.9318 89.1661 14.642 90.0013 11.5568H85.757C85.186 13.2102 83.6519 14.233 81.6491 14.233C79.3053 14.233 78.1377 12.5625 78.6746 9.21307C79.2542 5.75284 81.24 3.69886 83.882 3.69886C85.7144 3.69886 86.686 4.7983 86.6008 6.5625H90.811Z" fill="#353535"/>
<path d="M91.3927 17.6932H95.6114L96.3955 12.9886L98.4751 10.8324L101.646 17.6932H106.691L102.021 8.02841L109.478 0.238636H104.509L97.5205 7.61932H97.2904L98.5092 0.238636H94.2904L91.3927 17.6932Z" fill="#353535"/>
<path d="M108.244 17.6932H120.415L120.994 14.267H113.043L113.622 10.679H120.952L121.531 7.24432H114.202L114.781 3.66477H122.733L123.312 0.238636H111.142L108.244 17.6932Z" fill="#353535"/>
<path d="M125.085 0.238636L129.551 11.8636L128.571 17.6932H132.764L133.736 11.8636L142.045 0.238636H137.332L132.449 7.54261H132.27L129.798 0.238636H125.085Z" fill="#353535"/>
</svg>
