<svg width="17" height="16" viewBox="0 0 17 16" fill="none" xmlns="http://www.w3.org/2000/svg">
<path fill-rule="evenodd" clip-rule="evenodd" d="M8.20311 1.44147C10.3392 1.44147 10.5922 1.4496 11.4358 1.48809C12.2158 1.52369 12.6394 1.65401 12.9213 1.76354C13.2947 1.90867 13.5612 2.08205 13.8411 2.36198C14.1211 2.64191 14.2945 2.90844 14.4396 3.28183C14.5491 3.56376 14.6794 3.98735 14.715 4.76731C14.7535 5.61091 14.7617 5.86391 14.7617 8.00002C14.7617 10.1361 14.7535 10.3891 14.715 11.2327C14.6794 12.0127 14.5491 12.4363 14.4396 12.7182C14.2945 13.0916 14.1211 13.3581 13.8411 13.638C13.5612 13.918 13.2947 14.0914 12.9213 14.2365C12.6394 14.346 12.2158 14.4763 11.4358 14.5119C10.5923 14.5504 10.3393 14.5586 8.20311 14.5586C6.06688 14.5586 5.81388 14.5504 4.97044 14.5119C4.19045 14.4763 3.76685 14.346 3.48495 14.2365C3.11153 14.0914 2.84501 13.918 2.56508 13.638C2.28515 13.3581 2.11176 13.0916 1.96667 12.7182C1.85711 12.4363 1.72678 12.0127 1.69118 11.2327C1.65269 10.3891 1.64456 10.1361 1.64456 8.00002C1.64456 5.86391 1.65269 5.61091 1.69118 4.76734C1.72678 3.98735 1.85711 3.56376 1.96667 3.28183C2.11176 2.90844 2.28515 2.64191 2.56508 2.36198C2.84501 2.08205 3.11153 1.90867 3.48495 1.76354C3.76685 1.65401 4.19045 1.52369 4.97041 1.48809C5.81401 1.4496 6.06701 1.44147 8.20311 1.44147ZM8.20311 0C6.03042 0 5.75802 0.00920926 4.90474 0.0481422C4.0532 0.0870116 3.47168 0.222229 2.96279 0.420006C2.43672 0.624451 1.99058 0.897998 1.54583 1.34274C1.10109 1.78748 0.827544 2.23363 0.623099 2.7597C0.425322 3.26859 0.290105 3.8501 0.251235 4.70164C0.212303 5.5549 0.203125 5.82733 0.203125 8.00002C0.203125 10.1727 0.212303 10.4451 0.251235 11.2984C0.290105 12.1499 0.425322 12.7314 0.623099 13.2403C0.827544 13.7664 1.10109 14.2125 1.54583 14.6573C1.99058 15.102 2.43672 15.3756 2.96279 15.58C3.47168 15.7778 4.0532 15.913 4.90474 15.9519C5.75802 15.9908 6.03042 16 8.20311 16C10.3758 16 10.6482 15.9908 11.5015 15.9519C12.353 15.913 12.9345 15.7778 13.4434 15.58C13.9695 15.3756 14.4156 15.102 14.8604 14.6573C15.3051 14.2125 15.5787 13.7664 15.7831 13.2403C15.9809 12.7314 16.1161 12.1499 16.155 11.2984C16.1939 10.4451 16.2031 10.1727 16.2031 8.00002C16.2031 5.82733 16.1939 5.5549 16.155 4.70164C16.1161 3.8501 15.9809 3.26859 15.7831 2.7597C15.5787 2.23363 15.3051 1.78748 14.8604 1.34274C14.4156 0.897998 13.9695 0.624451 13.4434 0.420006C12.9345 0.222229 12.353 0.0870116 11.5015 0.0481422C10.6482 0.00920926 10.3758 0 8.20311 0Z" fill="#2A1F15"/>
<path fill-rule="evenodd" clip-rule="evenodd" d="M8.20285 3.89203C5.934 3.89203 4.09473 5.73131 4.09473 8.00015C4.09473 10.269 5.934 12.1083 8.20285 12.1083C10.4717 12.1083 12.311 10.269 12.311 8.00015C12.311 5.73131 10.4717 3.89203 8.20285 3.89203ZM8.20285 10.6668C6.7301 10.6668 5.53616 9.4729 5.53616 8.00015C5.53616 6.5274 6.7301 5.33347 8.20285 5.33347C9.6756 5.33347 10.8695 6.5274 10.8695 8.00015C10.8695 9.4729 9.6756 10.6668 8.20285 10.6668Z" fill="#2A1F15"/>
<path fill-rule="evenodd" clip-rule="evenodd" d="M13.4337 3.72964C13.4337 4.25984 13.0039 4.68966 12.4737 4.68966C11.9435 4.68966 11.5137 4.25984 11.5137 3.72964C11.5137 3.19944 11.9435 2.76965 12.4737 2.76965C13.0039 2.76965 13.4337 3.19944 13.4337 3.72964Z" fill="#2A1F15"/>
</svg>
