<svg width="18" height="16" viewBox="0 0 18 16" fill="none" xmlns="http://www.w3.org/2000/svg">
<path fill-rule="evenodd" clip-rule="evenodd" d="M4.06491 9.29528C3.79917 9.4418 3.48219 9.45405 3.20339 9.33423C2.18487 8.89653 1.34291 8.52735 0.666848 8.22673C-0.143008 7.8666 -0.0924894 6.72912 0.740217 6.42555C8.26167 3.68357 13.2515 1.72144 15.7098 0.731766C16.4632 0.428448 17.2554 1.09861 17.0789 1.89137C15.6673 8.23079 14.7315 12.4338 14.2714 14.5005C14.1142 15.2069 13.2807 15.5138 12.6969 15.0862C10.1893 13.2491 8.46686 12.0493 7.46885 11.3697C6.93482 11.006 6.86419 10.2362 7.32972 9.78821C11.8443 5.4434 13.9376 3.42871 13.9376 3.42871C8.54584 6.7865 5.187 8.67663 4.06491 9.29528Z" fill="#2A1F15"/>
</svg>
