<svg width="17" height="10" viewBox="0 0 17 10" fill="none" xmlns="http://www.w3.org/2000/svg">
<path fill-rule="evenodd" clip-rule="evenodd" d="M13.893 5.01291C13.893 5.01291 16.0012 2.15599 16.2107 1.21709C16.2805 0.881793 16.1269 0.693921 15.7638 0.693921H13.9349C13.5161 0.693921 13.3625 0.868285 13.2368 1.12315C13.2368 1.12315 12.248 3.14731 11.0448 4.4228C10.6586 4.83515 10.4622 4.95925 10.249 4.95925C10.077 4.95925 9.99775 4.82154 9.99775 4.44958V1.19025C9.99775 0.734247 9.94188 0.600098 9.551 0.600098H6.61906C6.39563 0.600098 6.256 0.724874 6.256 0.895121C6.256 1.32458 6.94016 1.42156 6.94016 2.58516V4.98607C6.94016 5.46897 6.91222 5.65673 6.67486 5.65673C6.04663 5.65673 4.55275 3.57779 3.71508 1.21709C3.54751 0.734252 3.36597 0.600098 2.89125 0.600098H1.06237C0.797084 0.600098 0.601562 0.774408 0.601562 1.02921C0.601562 1.49867 1.17402 3.67161 3.42185 6.58225C4.92968 8.54049 6.9122 9.6001 8.69925 9.6001C9.78828 9.6001 10.0536 9.42578 10.0536 8.98311V7.48087C10.0536 7.1053 10.2072 6.94438 10.4305 6.94438C10.6818 6.94438 11.1254 7.02193 12.1618 8.00398C13.3904 9.1307 13.4742 9.6001 14.1444 9.6001H16.1967C16.4061 9.6001 16.6016 9.50622 16.6016 9.17092C16.6016 8.72824 16.0012 7.93694 15.0797 6.99798C14.7028 6.51515 14.0885 5.99208 13.893 5.75066C13.6138 5.46897 13.6975 5.30793 13.893 5.01291Z" fill="#2A1F15"/>
</svg>
