<?xml version="1.0" encoding="utf-8"?><svg xmlns="http://www.w3.org/2000/svg" xmlns:xlink="http://www.w3.org/1999/xlink"><symbol viewBox="0 0 16 16" fill="none" id="close" xmlns="http://www.w3.org/2000/svg"><path d="M15 1L8 8m0 0l7 7M8 8l-7 7m7-7L1 1" stroke="#8242E8" stroke-width="2" stroke-linecap="round" stroke-linejoin="round"/></symbol><symbol viewBox="0 0 49 49" fill="none" id="ic_Skates" xmlns="http://www.w3.org/2000/svg"><circle cx="24.5" cy="24.5" r="24.5" fill="#6697FF"/><path fill-rule="evenodd" clip-rule="evenodd" d="M33.387 10c.37.732.741 6.774.37 8.97-.093.556.298 1.887.678 3.177.36 1.228.71 2.419.62 2.865-.185.916-.556 2.014-.927 2.197.742 1.587 2.04 4.577 1.854 5.126-.011.034-.02.073-.029.114-.118.556-.362 1.704-10.536 1.534-10.935-.183-11.307-.549-12.047-1.83-.317-.55.371-2.38.741-2.93-.37-.122-1.111-.696-1.111-2.014 0-1.648.443-2.033 2.41-2.563.292-.079.677-.161 1.122-.257 2.653-.57 7.456-1.603 7.774-5.052.017-.183.37-4.943-.37-7.323 0-.366.259-.952 1.297-.366 1.297.732 1.853 1.464 2.78 3.661.864.061 2.854.257 3.892.55.756.213.442-.631.085-1.59-.256-.686-.533-1.43-.456-1.889l.012-.068c.182-1.083.388-2.312 1.84-2.312zm-6.301 18.125c.617.305 1.89 1.061 2.039 1.647.185.733-2.966 1.465-3.707 1.465-.092 0-.236.003-.416.006-1.27.025-4.357.086-4.032-.555a5.543 5.543 0 0 1 .926-1.282l5.19-1.281z" fill="#fff"/></symbol><symbol viewBox="0 0 80 80" fill="none" id="ic_assurance" xmlns="http://www.w3.org/2000/svg"><circle cx="40" cy="40" r="40" fill="#F7F7FB"/><path fill-rule="evenodd" clip-rule="evenodd" d="M36.173 30.761a10 10 0 1 1 7.654 18.479 10 10 0 0 1-7.654-18.479zM40 28a12 12 0 1 0 0 24.002A12 12 0 0 0 40 28zm5.707 9.707a1 1 0 0 0-1.414-1.414L39 41.586l-3.293-3.293a1 1 0 0 0-1.414 1.414l4 4a1 1 0 0 0 1.414 0l6-6z" fill="#EB6B5E"/></symbol><symbol viewBox="0 0 144 144" fill="none" id="ic_cash" xmlns="http://www.w3.org/2000/svg"><circle cx="72" cy="72" r="72" fill="#fff"/><g filter="url(#da)"><path d="M36 52c0-8.837 7.163-16 16-16h40c8.837 0 16 7.163 16 16v40c0 8.837-7.163 16-16 16H52c-8.837 0-16-7.163-16-16V52z" fill="#fff"/><path d="M37 52c0-8.284 6.716-15 15-15h40c8.284 0 15 6.716 15 15v40c0 8.284-6.716 15-15 15H52c-8.284 0-15-6.716-15-15V52z" stroke="#000" stroke-width="2"/></g><path opacity=".08" d="M54 54a4 4 0 0 1 4-4h28a4 4 0 0 1 4 4v22a4 4 0 0 1-4 4H58a4 4 0 0 1-4-4V54z" fill="#8242E8"/><path d="M52 92a2 2 0 0 0 2 2h36a2 2 0 0 0 2-2v-2a2 2 0 0 0-2-2H54a2 2 0 0 0-2 2v2z" fill="#000"/><path opacity=".08" d="M42 76a2 2 0 0 1 2-2h4a2 2 0 0 1 2 2v2a2 2 0 0 1-2 2h-4a2 2 0 0 1-2-2v-2zm0-8a2 2 0 0 1 2-2h4a2 2 0 0 1 2 2v2a2 2 0 0 1-2 2h-4a2 2 0 0 1-2-2v-2zm0-8a2 2 0 0 1 2-2h4a2 2 0 0 1 2 2v2a2 2 0 0 1-2 2h-4a2 2 0 0 1-2-2v-2zm52 16a2 2 0 0 1 2-2h4a2 2 0 0 1 2 2v2a2 2 0 0 1-2 2h-4a2 2 0 0 1-2-2v-2zm0-8a2 2 0 0 1 2-2h4a2 2 0 0 1 2 2v2a2 2 0 0 1-2 2h-4a2 2 0 0 1-2-2v-2zm0-8a2 2 0 0 1 2-2h4a2 2 0 0 1 2 2v2a2 2 0 0 1-2 2h-4a2 2 0 0 1-2-2v-2z" fill="#8242E8"/><path d="M54 88h36v12H54V88z" fill="#55B31C"/><path d="M56 88h32v6a4 4 0 0 0-4 4H60a4 4 0 0 0-4-4v-6z" fill="#7DDC43"/><path d="M54 88h36v3H54v-3z" fill="#000" fill-opacity=".2"/><defs><filter id="da" x="20" y="28" width="104" height="104" filterUnits="userSpaceOnUse" color-interpolation-filters="sRGB"><feFlood flood-opacity="0" result="BackgroundImageFix"/><feColorMatrix in="SourceAlpha" values="0 0 0 0 0 0 0 0 0 0 0 0 0 0 0 0 0 0 127 0"/><feOffset dy="8"/><feGaussianBlur stdDeviation="8"/><feColorMatrix values="0 0 0 0 0.509804 0 0 0 0 0.258824 0 0 0 0 0.909804 0 0 0 0.16 0"/><feBlend in2="BackgroundImageFix" result="effect1_dropShadow"/><feBlend in="SourceGraphic" in2="effect1_dropShadow" result="shape"/></filter></defs></symbol><symbol viewBox="0 0 80 80" fill="none" id="ic_claims" xmlns="http://www.w3.org/2000/svg"><circle cx="40" cy="40" r="40" fill="#F7F7FB"/><path d="M29 38h6v13h-6V38zm7 0a4.854 4.854 0 0 0 4.342-2.683l.105-.211A5.237 5.237 0 0 0 41 32.764v-2.43c0-.737.597-1.334 1.333-1.334A2.667 2.667 0 0 1 45 31.667V38h4a2 2 0 0 1 2 2v1a1 1 0 0 1-1 1v2a1 1 0 0 1-1 1v2a4 4 0 0 1-4 4h-3.46a8 8 0 0 1-2.97-.572L35 49" stroke="#EB6B5E" stroke-width="2"/><path fill="#EB6B5E" d="M49 41h2v2h-2zm-1 3h2v2h-2v-2z"/></symbol><symbol viewBox="0 0 48 48" fill="none" id="ic_cleaning" xmlns="http://www.w3.org/2000/svg"><path fill-rule="evenodd" clip-rule="evenodd" d="M11 2h8v4l-2.4 1.8A4 4 0 0 0 15 11v1H9V4a2 2 0 0 1 2-2zM7.114 12.667A1.996 1.996 0 0 1 7 12V4a4 4 0 0 1 4-4h8a2 2 0 0 1 1.732 1H22a2 2 0 0 1 2 2v2a2 2 0 0 1-2 2h-1.268c-.133.23-.313.436-.532.6l-2.4 1.8A2 2 0 0 0 17 11v1c0 .234-.04.458-.114.667.68.55 1.114 1.39 1.114 2.333v1.063a4 4 0 0 1 3.006 2.451l1.85 4.625c.243.608.448 1.23.615 1.861h-2.08c-.114-.378-.245-.75-.392-1.118l-1.85-4.625A2 2 0 0 0 17.292 18H6.708a2 2 0 0 0-1.857 1.257l-1.85 4.625A14 14 0 0 0 2 29.082V44a2 2 0 0 0 2 2h16v1h2.646c-.705.622-1.632 1-2.646 1H4a4 4 0 0 1-4-4V29.081a16 16 0 0 1 1.144-5.942l1.85-4.625A4 4 0 0 1 6 16.063V15c0-.942.434-1.783 1.114-2.333zM24 33v-3.919c0-.36-.012-.722-.037-1.081h-2.005c.028.36.042.72.042 1.081V33h2zM8 16h8v-1a1 1 0 0 0-1-1H9a1 1 0 0 0-1 1v1zM22 5h-1V3h1v2z" fill="#EB6B5E"/><path fill-rule="evenodd" clip-rule="evenodd" d="M20.557 26H40a6 6 0 0 1 6 6v6H20v-2a2 2 0 0 1 2-2h17a3 3 0 0 0 3-3v-.044a3 3 0 0 0-2.864-2.997l-18.605-.846A.557.557 0 0 1 20.558 26zM18 38v-2a4 4 0 0 1 4-4h17a1 1 0 0 0 1-1v-.044a1 1 0 0 0-.955-1l-18.604-.845A2.557 2.557 0 0 1 20.557 24H40a8 8 0 0 1 8 8v12a4 4 0 0 1-4 4H22a4 4 0 0 1-4-4v-6zm8 2h-2v6h2v-6zm2 0v6h2v-6h-2zm6 6h-2v-6h2v6zm2 0h2v-6h-2v6zm6 0h-2v-6h2v6zm2 0a2 2 0 0 0 2-2v-4h-2v6zm-24-6h2v6a2 2 0 0 1-2-2v-4z" fill="#EB6B5E"/></symbol><symbol viewBox="0 0 48 48" fill="none" id="ic_construction" xmlns="http://www.w3.org/2000/svg"><path d="M1 4a3 3 0 0 1 3-3h36a3 3 0 0 1 3 3v6a3 3 0 0 1-3 3H4a3 3 0 0 1-3-3V4z" stroke="#EB6B5E" stroke-width="2"/><path d="M43 7h2a2 2 0 0 1 2 2v5.295a2 2 0 0 1-1.684 1.974l-21.632 3.462A2 2 0 0 0 22 21.705V25m-4 2.535c0-1.4 1.135-2.535 2.535-2.535h2.93c1.4 0 2.535 1.135 2.535 2.535v.637a1 1 0 0 1-.293.707l.707.707-.707-.707a3 3 0 0 0 0 4.242 1 1 0 0 1 .293.707V44a3 3 0 0 1-3 3h-2a3 3 0 0 1-3-3V33.828a1 1 0 0 1 .293-.707 3 3 0 0 0 0-4.242l-.707.707.707-.707a1 1 0 0 1-.293-.707v-.637z" stroke="#EB6B5E" stroke-width="2"/></symbol><symbol viewBox="0 0 80 80" fill="none" id="ic_document" xmlns="http://www.w3.org/2000/svg"><circle cx="40" cy="40" r="40" fill="#F7F7FB"/><path d="M31 32a3 3 0 0 1 3-3h6.343a3 3 0 0 1 2.121.879l5.657 5.656A3 3 0 0 1 49 37.657V48a3 3 0 0 1-3 3H34a3 3 0 0 1-3-3V32z" stroke="#EB6B5E" stroke-width="2"/><path d="M41 29v4a4 4 0 0 0 4 4h4" stroke="#EB6B5E" stroke-width="2"/></symbol><symbol viewBox="0 0 50 48" fill="none" id="ic_education" xmlns="http://www.w3.org/2000/svg"><path fill-rule="evenodd" clip-rule="evenodd" d="M27.898 5.883L46.686 16.25c1.378.76 1.378 2.742 0 3.502L27.898 30.117a6 6 0 0 1-5.796 0L3.314 19.75c-1.378-.76-1.378-2.742 0-3.502L22.102 5.883a6 6 0 0 1 5.796 0zm-6.763-1.75a8 8 0 0 1 7.73 0l18.787 10.365c2.757 1.52 2.757 5.483 0 7.004L42 24.621v11.248a3.61 3.61 0 0 1-1.141 2.634c-8.92 8.362-22.799 8.362-31.718 0A3.61 3.61 0 0 1 8 35.869V24.621l-5.652-3.119c-2.757-1.52-2.757-5.483 0-7.004L21.135 4.132zM10 25.723V35.87c0 .445.184.87.509 1.175 8.15 7.64 20.832 7.64 28.982 0A1.61 1.61 0 0 0 40 35.869V25.724l-11.135 6.144a8 8 0 0 1-7.73 0L10 25.724z" fill="#EB6B5E"/></symbol><symbol viewBox="0 0 48 48" fill="none" id="ic_industry" xmlns="http://www.w3.org/2000/svg"><path fill-rule="evenodd" clip-rule="evenodd" d="M22 6c0-1.138 1.327-1.76 2.2-1.031l2.16 1.8.64-.77h1c0-1.137 1.327-1.758 2.2-1.03l2.16 1.8a1 1 0 0 0 1.28-1.537l-2.159-1.8c-1.672-1.393-4.01-.802-5.004.83l-.996-.83C23.305 1.62 20 3.168 20 6h2zM9.2 4.97C8.328 4.24 7 4.861 7 6H5c0-2.833 3.305-4.381 5.481-2.567l.996.83c.994-1.633 3.332-2.224 5.004-.83l2.16 1.799a1 1 0 1 1-1.281 1.536L15.2 4.97C14.328 4.241 13 4.862 13 6h-1l-.64.768L9.2 4.97zM9.146 10h-4.29l-2.7 36H11v2H2.156A2 2 0 0 1 .16 45.85l2.7-36A2 2 0 0 1 4.856 8h4.289a2 2 0 0 1 1.994 1.85l1.629 21.714L11 33v1.74L9.145 10zm5.183 20.296l2.136-1.735L17.856 10h4.289l.985 13.144 1.89-1.536-.88-11.758A2 2 0 0 0 22.145 8h-4.29a2 2 0 0 0-1.994 1.85l-1.533 20.446z" fill="#EB6B5E"/><path d="M27 33v1h3.362l.278-.232 14.72-12.266a1 1 0 0 1 1.64.768V46a1 1 0 0 1-1 1H10a1 1 0 0 1-1-1V34.961a1 1 0 0 1 .375-.78l16-12.8a1 1 0 0 1 1.625.78V33z" stroke="#EB6B5E" stroke-width="2"/></symbol><symbol viewBox="0 0 80 80" fill="none" id="ic_insurance" xmlns="http://www.w3.org/2000/svg"><circle cx="40" cy="40" r="40" fill="#F7F7FB"/><path d="M31 34.667a2.94 2.94 0 0 1 1.847-2.729l6.039-2.415a3 3 0 0 1 2.228 0l6.039 2.415A2.939 2.939 0 0 1 49 34.667v3.7a13.227 13.227 0 0 1-8.315 12.282c-.44.176-.93.176-1.37 0A13.227 13.227 0 0 1 31 38.368v-3.701z" stroke="#EB6B5E" stroke-width="2"/></symbol><symbol viewBox="0 0 80 80" fill="none" id="ic_medical" xmlns="http://www.w3.org/2000/svg"><circle cx="40" cy="40" r="40" fill="#F7F7FB"/><mask id="la" fill="#fff"><path fill-rule="evenodd" clip-rule="evenodd" d="M38 28a3 3 0 0 0-3 3v4h-4a3 3 0 0 0-3 3v4a3 3 0 0 0 3 3h4v4a3 3 0 0 0 3 3h4a3 3 0 0 0 3-3v-4h4a3 3 0 0 0 3-3v-4a3 3 0 0 0-3-3h-4v-4a3 3 0 0 0-3-3h-4z"/></mask><path d="M35 35v2h2v-2h-2zm0 10h2v-2h-2v2zm10 0v-2h-2v2h2zm0-10h-2v2h2v-2zm-8-4a1 1 0 0 1 1-1v-4a5 5 0 0 0-5 5h4zm0 4v-4h-4v4h4zm-6 2h4v-4h-4v4zm-1 1a1 1 0 0 1 1-1v-4a5 5 0 0 0-5 5h4zm0 4v-4h-4v4h4zm1 1a1 1 0 0 1-1-1h-4a5 5 0 0 0 5 5v-4zm4 0h-4v4h4v-4zm2 6v-4h-4v4h4zm1 1a1 1 0 0 1-1-1h-4a5 5 0 0 0 5 5v-4zm2 0h-2v4h2v-4zm2 0h-2v4h2v-4zm1-1a1 1 0 0 1-1 1v4a5 5 0 0 0 5-5h-4zm0-4v4h4v-4h-4zm6-2h-4v4h4v-4zm1-1a1 1 0 0 1-1 1v4a5 5 0 0 0 5-5h-4zm0-4v4h4v-4h-4zm-1-1a1 1 0 0 1 1 1h4a5 5 0 0 0-5-5v4zm-4 0h4v-4h-4v4zm-2-6v4h4v-4h-4zm-1-1a1 1 0 0 1 1 1h4a5 5 0 0 0-5-5v4zm-2 0h2v-4h-2v4zm-2 0h2v-4h-2v4z" fill="#EB6B5E" mask="url(#la)"/></symbol><symbol viewBox="0 0 144 144" fill="none" id="ic_payment" xmlns="http://www.w3.org/2000/svg"><circle cx="72" cy="72" r="72" fill="#fff"/><path d="M52 44a8 8 0 0 1 8-8h24a8 8 0 0 1 8 8v56a8 8 0 0 1-8 8H60a8 8 0 0 1-8-8V44z" fill="#000" filter="url(#ma)"/><path d="M54 44a6 6 0 0 1 6-6h2a2 2 0 0 1 2 2 2 2 0 0 0 2 2h12a2 2 0 0 0 2-2 2 2 0 0 1 2-2h2a6 6 0 0 1 6 6v56a6 6 0 0 1-6 6H60a6 6 0 0 1-6-6V44z" fill="#fff"/><rect opacity=".08" x="56" y="46" width="16" height="2" rx="1" fill="#8242E8"/><rect opacity=".08" x="56" y="50" width="32" height="19" rx="2" fill="#8242E8"/><rect opacity=".08" x="56" y="73" width="16" height="2" rx="1" fill="#8242E8"/><path opacity=".08" fill-rule="evenodd" clip-rule="evenodd" d="M59 85a3 3 0 1 0 0-6 3 3 0 0 0 0 6zm6-6a1 1 0 1 0 0 2h14a1 1 0 1 0 0-2H65zm0 4a1 1 0 1 0 0 2h10a1 1 0 1 0 0-2H65zm19-3a1 1 0 0 1 1-1h2a1 1 0 1 1 0 2h-2a1 1 0 0 1-1-1zM59 95a3 3 0 1 0 0-6 3 3 0 0 0 0 6zm6-6a1 1 0 1 0 0 2h14a1 1 0 1 0 0-2H65zm0 4a1 1 0 1 0 0 2h10a1 1 0 1 0 0-2H65zm19-3a1 1 0 0 1 1-1h2a1 1 0 1 1 0 2h-2a1 1 0 0 1-1-1z" fill="#8242E8"/><circle cx="94" cy="96" r="12" fill="#F90"/><circle cx="96" cy="96" r="12" fill="#FDBD2F"/><mask id="mb" maskUnits="userSpaceOnUse" x="84" y="84" width="24" height="24"><circle cx="96" cy="96" r="12" fill="#FDBD2F"/></mask><g mask="url(#mb)"><path fill="#fff" d="M84.688 90.343l5.657-5.657 16.97 16.97-5.657 5.658z"/></g><circle cx="96" cy="96" r="10" fill="#FDBD2F" filter="url(#mc)"/><defs><filter id="ma" x="36" y="28" width="72" height="104" filterUnits="userSpaceOnUse" color-interpolation-filters="sRGB"><feFlood flood-opacity="0" result="BackgroundImageFix"/><feColorMatrix in="SourceAlpha" values="0 0 0 0 0 0 0 0 0 0 0 0 0 0 0 0 0 0 127 0"/><feOffset dy="8"/><feGaussianBlur stdDeviation="8"/><feColorMatrix values="0 0 0 0 0.509804 0 0 0 0 0.258824 0 0 0 0 0.909804 0 0 0 0.16 0"/><feBlend in2="BackgroundImageFix" result="effect1_dropShadow"/><feBlend in="SourceGraphic" in2="effect1_dropShadow" result="shape"/></filter><filter id="mc" x="86" y="86" width="20" height="20" filterUnits="userSpaceOnUse" color-interpolation-filters="sRGB"><feFlood flood-opacity="0" result="BackgroundImageFix"/><feBlend in="SourceGraphic" in2="BackgroundImageFix" result="shape"/><feColorMatrix in="SourceAlpha" values="0 0 0 0 0 0 0 0 0 0 0 0 0 0 0 0 0 0 127 0" result="hardAlpha"/><feOffset dy="2"/><feComposite in2="hardAlpha" operator="arithmetic" k2="-1" k3="1"/><feColorMatrix values="0 0 0 0 1 0 0 0 0 0.6 0 0 0 0 0 0 0 0 1 0"/><feBlend in2="shape" result="effect1_innerShadow"/></filter></defs></symbol><symbol viewBox="0 0 49 49" fill="none" id="ic_people" xmlns="http://www.w3.org/2000/svg"><circle cx="24.5" cy="24.5" r="24.5" fill="#6697FF"/><path fill-rule="evenodd" clip-rule="evenodd" d="M24.759 12C18.826 12 14 16.826 14 22.759v8.197a2.562 2.562 0 0 0 2.562 2.561h1.024c.85 0 1.537-.686 1.537-1.537v-4.61c0-.851-.686-1.538-1.537-1.538a1.028 1.028 0 0 1-1.024-1.024v-2.05c0-4.518 3.678-8.196 8.197-8.196 4.518 0 8.197 3.678 8.197 8.197v2.049c0 .563-.461 1.024-1.025 1.024-.85 0-1.537.687-1.537 1.537v4.611c0 .663.417 1.226 1.003 1.442a4.949 4.949 0 0 1-2.324 2.262.896.896 0 0 0-.728-.374h-3.586a.897.897 0 0 0-.897.897v.896c0 .496.402.897.897.897h3.586c.31 0 .583-.157.744-.397a6.74 6.74 0 0 0 4.227-4.11 2.563 2.563 0 0 0 2.201-2.537v-8.197C35.517 16.826 30.691 12 24.76 12z" fill="#fff"/></symbol><symbol viewBox="0 0 80 80" fill="none" id="ic_postponement" xmlns="http://www.w3.org/2000/svg"><circle cx="40" cy="40" r="40" fill="#F7F7FB"/><path fill-rule="evenodd" clip-rule="evenodd" d="M40 28c-.394 0-.786.02-1.176.058l.196 1.99a9.978 9.978 0 0 1 1.96 0l.196-1.99A12.01 12.01 0 0 0 40 28zm-3.483.517a12.015 12.015 0 0 0-2.174.9l.943 1.764a10.01 10.01 0 0 1 1.811-.75l-.58-1.914zm8.075.396c-.363-.15-.733-.282-1.109-.396l-.58 1.914a9.974 9.974 0 0 1 1.811.75l.943-1.764a12.02 12.02 0 0 0-1.065-.504zm-12.205 1.81a12.01 12.01 0 0 0-1.663 1.664l1.546 1.27a10.021 10.021 0 0 1 1.386-1.387l-1.269-1.546zm16.098.792a12.01 12.01 0 0 0-.872-.791l-1.27 1.546a10.021 10.021 0 0 1 1.387 1.386l1.546-1.269a12.01 12.01 0 0 0-.79-.872zm-19.068 2.828a12.02 12.02 0 0 0-.9 2.174l1.914.58a9.982 9.982 0 0 1 .75-1.811l-1.764-.943zm21.67 1.065a12.02 12.02 0 0 0-.504-1.065l-1.764.943a10.01 10.01 0 0 1 .75 1.811l1.914-.58a12.015 12.015 0 0 0-.396-1.11zm-23.03 3.416a12.01 12.01 0 0 0 0 2.352l1.991-.196a9.978 9.978 0 0 1 0-1.96l-1.99-.196zM52 40c0-.394-.02-.786-.058-1.176l-1.99.196a9.978 9.978 0 0 1 0 1.96l1.99.196c.039-.39.058-.782.058-1.176zm-23.483 3.483a12.015 12.015 0 0 0 .9 2.174l1.764-.943a10.01 10.01 0 0 1-.75-1.811l-1.914.58zm22.57 1.11c.15-.364.282-.734.396-1.11l-1.914-.58a9.974 9.974 0 0 1-.75 1.811l1.764.943c.185-.346.353-.701.504-1.065zm-20.363 3.02a12.01 12.01 0 0 0 1.663 1.663l1.27-1.546a10.021 10.021 0 0 1-1.387-1.386l-1.546 1.269zm17.761.872c.279-.278.542-.57.791-.872l-1.546-1.27a10.021 10.021 0 0 1-1.386 1.387l1.269 1.546c.303-.249.594-.513.872-.79zm-14.142 2.098a12.02 12.02 0 0 0 2.174.9l.58-1.914a9.982 9.982 0 0 1-1.811-.75l-.943 1.764zm10.25.504c.363-.151.718-.32 1.064-.504l-.943-1.764a10.01 10.01 0 0 1-1.811.75l.58 1.914c.376-.113.746-.246 1.11-.396zm-5.77.855a12.01 12.01 0 0 0 2.353 0l-.196-1.99a9.978 9.978 0 0 1-1.96 0l-.196 1.99zM41 35a1 1 0 1 0-2 0v5a1 1 0 0 0 .293.707l3.5 3.5a1 1 0 0 0 1.414-1.414L41 39.586V35z" fill="#EB6B5E"/><path d="M40 29a11 11 0 1 0 8.02 18.529" stroke="#EB6B5E" stroke-width="2"/></symbol><symbol viewBox="0 0 80 80" fill="none" id="ic_prepay" xmlns="http://www.w3.org/2000/svg"><circle cx="40" cy="40" r="40" fill="#F7F7FB"/><path fill-rule="evenodd" clip-rule="evenodd" d="M36.173 30.761a10 10 0 1 1 7.654 18.479 10 10 0 0 1-7.654-18.479zM40 28a12 12 0 1 0 0 24.002A12 12 0 0 0 40 28zm-2 5a1 1 0 0 0-1 1v8h-1a1 1 0 1 0 0 2h1v2a1 1 0 1 0 2 0v-2h4a1 1 0 1 0 0-2h-4v-1h3a4 4 0 0 0 0-8h-4zm4 6h-3v-4h3a2 2 0 1 1 0 4z" fill="#EB6B5E"/></symbol><symbol viewBox="0 0 48 48" fill="none" id="ic_production" xmlns="http://www.w3.org/2000/svg"><path d="M1 9.442a1 1 0 0 1 .684-.95l22-7.333-.315-.944.315.945a1 1 0 0 1 .632 0l22 7.333a1 1 0 0 1 .684.949v29.117a1 1 0 0 1-.684.948l-22 7.334a1 1 0 0 1-.632 0l-22-7.334A1 1 0 0 1 1 38.56V9.442zM24 17v29m0-29l23-8m-23 8L1 9" stroke="#EB6B5E" stroke-width="2"/><path d="M13 12l21-7" stroke="#EB6B5E" stroke-width="2" stroke-linecap="round"/><path d="M15.373 23.681L8.576 21.21a1.538 1.538 0 0 1-.85-.757c-.622-1.244.594-2.608 1.901-2.133l6.797 2.472c.37.134.674.405.85.757.622 1.244-.595 2.608-1.901 2.133z" stroke="#EB6B5E" stroke-width="2"/></symbol><symbol viewBox="0 0 48 48" fill="none" id="ic_realm" xmlns="http://www.w3.org/2000/svg"><circle cx="17" cy="17" r="16" stroke="#EB6B5E" stroke-width="2"/><path d="M5 17c0-6.627 5.373-12 12-12" stroke="#EB6B5E" stroke-width="2" stroke-linecap="round"/><path d="M45.172 44.828l-.344.344a4 4 0 0 1-5.656 0l-8.344-8.344a4 4 0 0 1 0-5.656l.344-.344a4 4 0 0 1 5.656 0l8.344 8.344a4 4 0 0 1 0 5.656zM31 31l-3-3" stroke="#EB6B5E" stroke-width="2"/></symbol><symbol viewBox="0 0 48 48" fill="none" id="ic_retail" xmlns="http://www.w3.org/2000/svg"><path d="M9 9h35.475a2 2 0 0 1 1.947 2.458l-2.793 11.87a4 4 0 0 1-3.348 3.047L14 30" stroke="#EB6B5E" stroke-width="2"/><path d="M1 1h4.425A2 2 0 0 1 7.37 2.53L14 30l-3.586 3.586C9.154 34.846 10.047 37 11.828 37H39" stroke="#EB6B5E" stroke-width="2" stroke-linecap="round"/><circle cx="12" cy="44" r="3" stroke="#EB6B5E" stroke-width="2"/><circle cx="36" cy="44" r="3" stroke="#EB6B5E" stroke-width="2"/></symbol><symbol viewBox="0 0 48 48" fill="none" id="ic_service" xmlns="http://www.w3.org/2000/svg"><path d="M4 29.119C4 18.066 12.962 9 24 9h.605C35.316 9 44 17.683 44 28.395c0 1.21.282 2.405.823 3.488l1.112 2.223A2 2 0 0 1 44.145 37H4.17c-1.536 0-2.499-1.659-1.737-2.992l-.855-.489.855.489.507-.888a8.082 8.082 0 0 0 1.06-4z" stroke="#EB6B5E" stroke-width="2"/><path d="M28 10V8a4 4 0 0 0-8 0v2" stroke="#EB6B5E" stroke-width="2"/><path d="M20 1h2m6 0h-2m-4 0v3m0-3h4m0 0v3m19 43H3a2 2 0 0 1-2-2v-.172a2 2 0 0 1 .586-1.414L2.73 42.27a.924.924 0 0 0 .27-.653A4.617 4.617 0 0 1 7.617 37h32.766A4.617 4.617 0 0 1 45 41.617c0 .245.097.48.27.654l1.144 1.143A2 2 0 0 1 47 44.828V45a2 2 0 0 1-2 2z" stroke="#EB6B5E" stroke-width="2" stroke-linecap="round"/></symbol><symbol viewBox="0 0 48 48" fill="none" id="ic_transport" xmlns="http://www.w3.org/2000/svg"><path fill-rule="evenodd" clip-rule="evenodd" d="M4.5 10h23a2.5 2.5 0 0 1 2.5 2.5V33H4.5A2.5 2.5 0 0 1 2 30.5v-18A2.5 2.5 0 0 1 4.5 10zM30 35H4.5A4.5 4.5 0 0 1 0 30.5v-18A4.5 4.5 0 0 1 4.5 8h23a4.5 4.5 0 0 1 4.5 4.5v5.258A4.478 4.478 0 0 1 34.5 17h4.458a4.5 4.5 0 0 1 3.387 1.537l4.542 5.19A4.5 4.5 0 0 1 48 26.691V30.5a4.5 4.5 0 0 1-4.5 4.5H30zm2-13.5V33h11.5a2.5 2.5 0 0 0 2.5-2.5v-3.81a2.5 2.5 0 0 0-.619-1.646l-4.541-5.19A2.5 2.5 0 0 0 38.958 19H34.5a2.5 2.5 0 0 0-2.5 2.5z" fill="#EB6B5E"/><circle cx="11" cy="36" r="4" fill="#fff" stroke="#EB6B5E" stroke-width="2"/><circle cx="37" cy="36" r="4" fill="#fff" stroke="#EB6B5E" stroke-width="2"/></symbol><symbol viewBox="0 0 80 80" fill="none" id="ic_users" xmlns="http://www.w3.org/2000/svg"><circle cx="40" cy="40" r="40" fill="#F7F7FB"/><path fill-rule="evenodd" clip-rule="evenodd" d="M43 33a3 3 0 1 1-6 0 3 3 0 0 1 6 0zm2 0a5 5 0 1 1-10 0 5 5 0 0 1 10 0zm2.572 13.468c-.397 1.442-.908 2.139-1.728 2.601-.974.549-2.67.931-5.844.931-3.173 0-4.87-.382-5.844-.93-.82-.463-1.33-1.16-1.728-2.602-.3-1.091-.05-2.023.872-2.796C34.34 42.8 36.423 42 40 42c3.578 0 5.66.8 6.7 1.672.922.773 1.173 1.705.872 2.797zM49.5 47c-.964 3.497-3 5-9.5 5s-8.536-1.503-9.5-5c-1-3.627 1.873-7 9.5-7 7.628 0 10.5 3.373 9.5 7z" fill="#EB6B5E"/></symbol><symbol viewBox="0 0 144 144" fill="none" id="ic_vacancy" xmlns="http://www.w3.org/2000/svg"><circle cx="72" cy="72" r="72" fill="#fff"/><path d="M52 44a8 8 0 0 1 8-8h24a8 8 0 0 1 8 8v56a8 8 0 0 1-8 8H60a8 8 0 0 1-8-8V44z" fill="#000" filter="url(#wa)"/><path d="M54 44a6 6 0 0 1 6-6h2a2 2 0 0 1 2 2 2 2 0 0 0 2 2h12a2 2 0 0 0 2-2 2 2 0 0 1 2-2h2a6 6 0 0 1 6 6v56a6 6 0 0 1-6 6H60a6 6 0 0 1-6-6V44z" fill="#fff"/><rect opacity=".08" x="56" y="46" width="16" height="2" rx="1" fill="#8242E8"/><rect opacity=".08" x="56" y="50" width="32" height="19" rx="2" fill="#8242E8"/><rect opacity=".08" x="56" y="71" width="32" height="19" rx="2" fill="#8242E8"/><path opacity=".08" d="M56 94a2 2 0 0 1 2-2h28a2 2 0 0 1 2 2v11a2 2 0 0 1-2 2H58a2 2 0 0 1-2-2V94z" fill="#8242E8"/><g clip-path="url(#wb)"><path d="M97 97l3 3" stroke="#8242E8" stroke-width="2"/><path d="M98.414 101.414a2 2 0 0 1 0-2.828l.172-.172a2 2 0 0 1 2.828 0l5.172 5.172a2 2 0 0 1 0 2.828l-.172.172a2 2 0 0 1-2.828 0l-5.172-5.172z" fill="#8242E8"/><circle cx="91" cy="91" r="9" fill="#fff" fill-opacity=".7"/><circle cx="91" cy="91" r="8" stroke="#8242E8" stroke-width="2"/><path d="M87 91a4 4 0 0 1 4-4" stroke="#fff" stroke-width="2" stroke-linecap="round"/></g><defs><filter id="wa" x="36" y="28" width="72" height="104" filterUnits="userSpaceOnUse" color-interpolation-filters="sRGB"><feFlood flood-opacity="0" result="BackgroundImageFix"/><feColorMatrix in="SourceAlpha" values="0 0 0 0 0 0 0 0 0 0 0 0 0 0 0 0 0 0 127 0"/><feOffset dy="8"/><feGaussianBlur stdDeviation="8"/><feColorMatrix values="0 0 0 0 0.509804 0 0 0 0 0.258824 0 0 0 0 0.909804 0 0 0 0.16 0"/><feBlend in2="BackgroundImageFix" result="effect1_dropShadow"/><feBlend in="SourceGraphic" in2="effect1_dropShadow" result="shape"/></filter><clipPath id="wb"><path fill="#fff" transform="translate(82 82)" d="M0 0h26v26H0z"/></clipPath></defs></symbol></svg>