<svg xmlns="http://www.w3.org/2000/svg" width="16" height="16.031" viewBox="0 0 16 16.031">
  <defs>
    <style>
      .cls-1 {
        fill: #fff;
        fill-rule: evenodd;
      }
    </style>
  </defs>
  <path id="picasa" class="cls-1" d="M244.66,486.358a8.008,8.008,0,1,1-11.325,0A8.009,8.009,0,0,1,244.66,486.358ZM241,483.875h1v11.094h-1V483.875Zm-4.156,10.219h10.375v0.844H236.844v-0.844ZM236,490.687h1v9.438h-1v-9.438Zm-4.193,5.588-0.707-.707,7.468-7.469,0.707,0.708Zm1.761-12.593,0.707-.707L241.9,490.6l-0.707.708ZM239,488.89a3.047,3.047,0,1,1-3.047,3.047A3.047,3.047,0,0,1,239,488.89Z" transform="translate(-231 -484)"/>
</svg>
