<svg xmlns="http://www.w3.org/2000/svg" width="16.656" height="15.156" viewBox="0 0 16.656 15.156">
  <defs>
    <style>
      .cls-1 {
        fill: #fff;
        fill-rule: evenodd;
      }
    </style>
  </defs>
  <path id="Vimeo" class="cls-1" d="M299.768,484.121s1.733-1,2.324.065c0.473,0.315,1.694,6.868,1.93,8.168s0.867,1.773,1.261,1.222a16.128,16.128,0,0,0,2.561-3.9c0.866-2.049-.276-2.312-0.631-2.194s-2.206.158-1.536-.63a13.406,13.406,0,0,1,2.758-2.364c0.827-.551,2.048-1.274,3.073-0.091a3.57,3.57,0,0,1,.669,4.766c-1.418,2.561-6.973,9.1-6.973,9.1s-2.009,1.339-2.836,0a61.738,61.738,0,0,1-3.585-9.219c-0.079-.867-0.315-1.1-0.749-0.867s-1.3,1.537-1.379,1.143-0.866-.867-0.394-1.655A29.927,29.927,0,0,1,299.768,484.121Z" transform="translate(-296.125 -483.688)"/>
</svg>
