<svg width="655" height="318" viewBox="0 0 655 318" fill="none" xmlns="http://www.w3.org/2000/svg">
<path d="M19.0287 291.28H11.5687L11.5887 304H10.1287V290H19.0287V291.28ZM21.7077 304.1C20.6943 304.1 19.781 303.873 18.9677 303.42C18.1543 302.953 17.5143 302.313 17.0477 301.5C16.581 300.687 16.3477 299.767 16.3477 298.74C16.3477 297.713 16.581 296.793 17.0477 295.98C17.5143 295.167 18.1543 294.533 18.9677 294.08C19.781 293.627 20.6943 293.4 21.7077 293.4C22.721 293.4 23.6343 293.627 24.4477 294.08C25.261 294.533 25.8943 295.167 26.3477 295.98C26.8143 296.793 27.0477 297.713 27.0477 298.74C27.0477 299.767 26.8143 300.687 26.3477 301.5C25.8943 302.313 25.261 302.953 24.4477 303.42C23.6343 303.873 22.721 304.1 21.7077 304.1ZM21.7077 302.84C22.4543 302.84 23.121 302.673 23.7077 302.34C24.3077 301.993 24.7743 301.507 25.1077 300.88C25.441 300.253 25.6077 299.54 25.6077 298.74C25.6077 297.94 25.441 297.227 25.1077 296.6C24.7743 295.973 24.3077 295.493 23.7077 295.16C23.121 294.813 22.4543 294.64 21.7077 294.64C20.961 294.64 20.2877 294.813 19.6877 295.16C19.101 295.493 18.6343 295.973 18.2877 296.6C17.9543 297.227 17.7877 297.94 17.7877 298.74C17.7877 299.54 17.9543 300.253 18.2877 300.88C18.6343 301.507 19.101 301.993 19.6877 302.34C20.2877 302.673 20.961 302.84 21.7077 302.84ZM39.4839 302.76V306.54H38.1439V304H28.7239V306.54H27.3839V302.76H27.9839C28.6906 302.72 29.1706 302.2 29.4239 301.2C29.6772 300.2 29.8506 298.8 29.9439 297L30.0839 293.48H37.8439V302.76H39.4839ZM31.2439 297.08C31.1772 298.573 31.0506 299.807 30.8639 300.78C30.6772 301.74 30.3439 302.4 29.8639 302.76H36.4239V294.74H31.3639L31.2439 297.08Z" fill="#555555"/>
<path d="M85.3293 302.72V304H75.5093V302.98L81.3293 297.28C82.0626 296.56 82.556 295.94 82.8093 295.42C83.076 294.887 83.2093 294.353 83.2093 293.82C83.2093 292.993 82.9226 292.353 82.3493 291.9C81.7893 291.433 80.9826 291.2 79.9293 291.2C78.2893 291.2 77.016 291.72 76.1093 292.76L75.0893 291.88C75.636 291.24 76.3293 290.747 77.1693 290.4C78.0226 290.053 78.9826 289.88 80.0493 289.88C81.476 289.88 82.6026 290.22 83.4293 290.9C84.2693 291.567 84.6893 292.487 84.6893 293.66C84.6893 294.38 84.5293 295.073 84.2093 295.74C83.8893 296.407 83.2826 297.173 82.3893 298.04L77.6293 302.72H85.3293ZM91.8384 304.12C90.7584 304.12 89.7917 303.833 88.9384 303.26C88.0984 302.687 87.4384 301.867 86.9584 300.8C86.4917 299.72 86.2584 298.453 86.2584 297C86.2584 295.547 86.4917 294.287 86.9584 293.22C87.4384 292.14 88.0984 291.313 88.9384 290.74C89.7917 290.167 90.7584 289.88 91.8384 289.88C92.9184 289.88 93.8784 290.167 94.7184 290.74C95.5717 291.313 96.2384 292.14 96.7184 293.22C97.1984 294.287 97.4384 295.547 97.4384 297C97.4384 298.453 97.1984 299.72 96.7184 300.8C96.2384 301.867 95.5717 302.687 94.7184 303.26C93.8784 303.833 92.9184 304.12 91.8384 304.12ZM91.8384 302.8C92.6517 302.8 93.365 302.573 93.9784 302.12C94.605 301.667 95.0917 301.007 95.4384 300.14C95.785 299.273 95.9584 298.227 95.9584 297C95.9584 295.773 95.785 294.727 95.4384 293.86C95.0917 292.993 94.605 292.333 93.9784 291.88C93.365 291.427 92.6517 291.2 91.8384 291.2C91.025 291.2 90.305 291.427 89.6784 291.88C89.065 292.333 88.585 292.993 88.2384 293.86C87.8917 294.727 87.7184 295.773 87.7184 297C87.7184 298.227 87.8917 299.273 88.2384 300.14C88.585 301.007 89.065 301.667 89.6784 302.12C90.305 302.573 91.025 302.8 91.8384 302.8ZM102.541 290V304H101.101V291.28H97.8015V290H102.541ZM116.988 300.32H114.188V304H112.748V300.32H104.848V299.28L112.268 290H113.868L106.708 299.04H112.788V295.8H114.188V299.04H116.988V300.32Z" fill="#555555"/>
<path d="M158.277 302.72V304H148.457V302.98L154.277 297.28C155.01 296.56 155.503 295.94 155.757 295.42C156.023 294.887 156.157 294.353 156.157 293.82C156.157 292.993 155.87 292.353 155.297 291.9C154.737 291.433 153.93 291.2 152.877 291.2C151.237 291.2 149.963 291.72 149.057 292.76L148.037 291.88C148.583 291.24 149.277 290.747 150.117 290.4C150.97 290.053 151.93 289.88 152.997 289.88C154.423 289.88 155.55 290.22 156.377 290.9C157.217 291.567 157.637 292.487 157.637 293.66C157.637 294.38 157.477 295.073 157.157 295.74C156.837 296.407 156.23 297.173 155.337 298.04L150.577 302.72H158.277ZM164.786 304.12C163.706 304.12 162.739 303.833 161.886 303.26C161.046 302.687 160.386 301.867 159.906 300.8C159.439 299.72 159.206 298.453 159.206 297C159.206 295.547 159.439 294.287 159.906 293.22C160.386 292.14 161.046 291.313 161.886 290.74C162.739 290.167 163.706 289.88 164.786 289.88C165.866 289.88 166.826 290.167 167.666 290.74C168.519 291.313 169.186 292.14 169.666 293.22C170.146 294.287 170.386 295.547 170.386 297C170.386 298.453 170.146 299.72 169.666 300.8C169.186 301.867 168.519 302.687 167.666 303.26C166.826 303.833 165.866 304.12 164.786 304.12ZM164.786 302.8C165.599 302.8 166.312 302.573 166.926 302.12C167.552 301.667 168.039 301.007 168.386 300.14C168.732 299.273 168.906 298.227 168.906 297C168.906 295.773 168.732 294.727 168.386 293.86C168.039 292.993 167.552 292.333 166.926 291.88C166.312 291.427 165.599 291.2 164.786 291.2C163.972 291.2 163.252 291.427 162.626 291.88C162.012 292.333 161.532 292.993 161.186 293.86C160.839 294.727 160.666 295.773 160.666 297C160.666 298.227 160.839 299.273 161.186 300.14C161.532 301.007 162.012 301.667 162.626 302.12C163.252 302.573 163.972 302.8 164.786 302.8ZM175.489 290V304H174.049V291.28H170.749V290H175.489ZM181.715 295.74C183.742 295.74 185.215 296.107 186.135 296.84C187.069 297.56 187.535 298.573 187.535 299.88C187.535 300.693 187.342 301.42 186.955 302.06C186.582 302.7 186.015 303.207 185.255 303.58C184.495 303.94 183.562 304.12 182.455 304.12C181.455 304.12 180.502 303.96 179.595 303.64C178.702 303.307 177.982 302.867 177.435 302.32L178.135 301.18C178.602 301.66 179.215 302.053 179.975 302.36C180.735 302.653 181.555 302.8 182.435 302.8C183.595 302.8 184.489 302.54 185.115 302.02C185.755 301.5 186.075 300.807 186.075 299.94C186.075 298.98 185.715 298.253 184.995 297.76C184.289 297.267 183.089 297.02 181.395 297.02H178.415L179.135 290H186.795V291.28H180.395L179.915 295.74H181.715Z" fill="#555555"/>
<path d="M229.847 302.72V304H220.027V302.98L225.847 297.28C226.58 296.56 227.074 295.94 227.327 295.42C227.594 294.887 227.727 294.353 227.727 293.82C227.727 292.993 227.44 292.353 226.867 291.9C226.307 291.433 225.5 291.2 224.447 291.2C222.807 291.2 221.534 291.72 220.627 292.76L219.607 291.88C220.154 291.24 220.847 290.747 221.687 290.4C222.54 290.053 223.5 289.88 224.567 289.88C225.994 289.88 227.12 290.22 227.947 290.9C228.787 291.567 229.207 292.487 229.207 293.66C229.207 294.38 229.047 295.073 228.727 295.74C228.407 296.407 227.8 297.173 226.907 298.04L222.147 302.72H229.847ZM236.356 304.12C235.276 304.12 234.309 303.833 233.456 303.26C232.616 302.687 231.956 301.867 231.476 300.8C231.009 299.72 230.776 298.453 230.776 297C230.776 295.547 231.009 294.287 231.476 293.22C231.956 292.14 232.616 291.313 233.456 290.74C234.309 290.167 235.276 289.88 236.356 289.88C237.436 289.88 238.396 290.167 239.236 290.74C240.089 291.313 240.756 292.14 241.236 293.22C241.716 294.287 241.956 295.547 241.956 297C241.956 298.453 241.716 299.72 241.236 300.8C240.756 301.867 240.089 302.687 239.236 303.26C238.396 303.833 237.436 304.12 236.356 304.12ZM236.356 302.8C237.169 302.8 237.883 302.573 238.496 302.12C239.123 301.667 239.609 301.007 239.956 300.14C240.303 299.273 240.476 298.227 240.476 297C240.476 295.773 240.303 294.727 239.956 293.86C239.609 292.993 239.123 292.333 238.496 291.88C237.883 291.427 237.169 291.2 236.356 291.2C235.543 291.2 234.823 291.427 234.196 291.88C233.583 292.333 233.103 292.993 232.756 293.86C232.409 294.727 232.236 295.773 232.236 297C232.236 298.227 232.409 299.273 232.756 300.14C233.103 301.007 233.583 301.667 234.196 302.12C234.823 302.573 235.543 302.8 236.356 302.8ZM247.059 290V304H245.619V291.28H242.319V290H247.059ZM255.406 295.62C256.326 295.62 257.139 295.793 257.846 296.14C258.566 296.487 259.126 296.98 259.526 297.62C259.926 298.247 260.126 298.98 260.126 299.82C260.126 300.673 259.919 301.427 259.506 302.08C259.092 302.733 258.519 303.24 257.786 303.6C257.066 303.947 256.252 304.12 255.346 304.12C253.492 304.12 252.072 303.513 251.086 302.3C250.099 301.073 249.606 299.347 249.606 297.12C249.606 295.56 249.872 294.24 250.406 293.16C250.939 292.08 251.686 291.267 252.646 290.72C253.606 290.16 254.726 289.88 256.006 289.88C257.392 289.88 258.499 290.133 259.326 290.64L258.746 291.8C258.079 291.36 257.172 291.14 256.026 291.14C254.479 291.14 253.266 291.633 252.386 292.62C251.506 293.593 251.066 295.013 251.066 296.88C251.066 297.213 251.086 297.593 251.126 298.02C251.472 297.26 252.026 296.673 252.786 296.26C253.546 295.833 254.419 295.62 255.406 295.62ZM255.286 302.9C256.299 302.9 257.119 302.627 257.746 302.08C258.386 301.52 258.706 300.78 258.706 299.86C258.706 298.94 258.386 298.207 257.746 297.66C257.119 297.113 256.266 296.84 255.186 296.84C254.479 296.84 253.852 296.973 253.306 297.24C252.772 297.507 252.352 297.873 252.046 298.34C251.739 298.807 251.586 299.327 251.586 299.9C251.586 300.433 251.726 300.927 252.006 301.38C252.299 301.833 252.726 302.2 253.286 302.48C253.846 302.76 254.512 302.9 255.286 302.9Z" fill="#555555"/>
<path d="M302.052 302.72V304H292.232V302.98L298.052 297.28C298.785 296.56 299.279 295.94 299.532 295.42C299.799 294.887 299.932 294.353 299.932 293.82C299.932 292.993 299.645 292.353 299.072 291.9C298.512 291.433 297.705 291.2 296.652 291.2C295.012 291.2 293.739 291.72 292.832 292.76L291.812 291.88C292.359 291.24 293.052 290.747 293.892 290.4C294.745 290.053 295.705 289.88 296.772 289.88C298.199 289.88 299.325 290.22 300.152 290.9C300.992 291.567 301.412 292.487 301.412 293.66C301.412 294.38 301.252 295.073 300.932 295.74C300.612 296.407 300.005 297.173 299.112 298.04L294.352 302.72H302.052ZM308.561 304.12C307.481 304.12 306.514 303.833 305.661 303.26C304.821 302.687 304.161 301.867 303.681 300.8C303.214 299.72 302.981 298.453 302.981 297C302.981 295.547 303.214 294.287 303.681 293.22C304.161 292.14 304.821 291.313 305.661 290.74C306.514 290.167 307.481 289.88 308.561 289.88C309.641 289.88 310.601 290.167 311.441 290.74C312.294 291.313 312.961 292.14 313.441 293.22C313.921 294.287 314.161 295.547 314.161 297C314.161 298.453 313.921 299.72 313.441 300.8C312.961 301.867 312.294 302.687 311.441 303.26C310.601 303.833 309.641 304.12 308.561 304.12ZM308.561 302.8C309.374 302.8 310.088 302.573 310.701 302.12C311.328 301.667 311.814 301.007 312.161 300.14C312.508 299.273 312.681 298.227 312.681 297C312.681 295.773 312.508 294.727 312.161 293.86C311.814 292.993 311.328 292.333 310.701 291.88C310.088 291.427 309.374 291.2 308.561 291.2C307.748 291.2 307.028 291.427 306.401 291.88C305.788 292.333 305.308 292.993 304.961 293.86C304.614 294.727 304.441 295.773 304.441 297C304.441 298.227 304.614 299.273 304.961 300.14C305.308 301.007 305.788 301.667 306.401 302.12C307.028 302.573 307.748 302.8 308.561 302.8ZM319.264 290V304H317.824V291.28H314.524V290H319.264ZM331.691 290V291.02L325.831 304H324.271L330.031 291.28H322.831V293.9H321.411V290H331.691Z" fill="#555555"/>
<path d="M373.564 302.72V304H363.744V302.98L369.564 297.28C370.297 296.56 370.79 295.94 371.044 295.42C371.31 294.887 371.444 294.353 371.444 293.82C371.444 292.993 371.157 292.353 370.584 291.9C370.024 291.433 369.217 291.2 368.164 291.2C366.524 291.2 365.25 291.72 364.344 292.76L363.324 291.88C363.87 291.24 364.564 290.747 365.404 290.4C366.257 290.053 367.217 289.88 368.284 289.88C369.71 289.88 370.837 290.22 371.664 290.9C372.504 291.567 372.924 292.487 372.924 293.66C372.924 294.38 372.764 295.073 372.444 295.74C372.124 296.407 371.517 297.173 370.624 298.04L365.864 302.72H373.564ZM380.073 304.12C378.993 304.12 378.026 303.833 377.173 303.26C376.333 302.687 375.673 301.867 375.193 300.8C374.726 299.72 374.493 298.453 374.493 297C374.493 295.547 374.726 294.287 375.193 293.22C375.673 292.14 376.333 291.313 377.173 290.74C378.026 290.167 378.993 289.88 380.073 289.88C381.153 289.88 382.113 290.167 382.953 290.74C383.806 291.313 384.473 292.14 384.953 293.22C385.433 294.287 385.673 295.547 385.673 297C385.673 298.453 385.433 299.72 384.953 300.8C384.473 301.867 383.806 302.687 382.953 303.26C382.113 303.833 381.153 304.12 380.073 304.12ZM380.073 302.8C380.886 302.8 381.599 302.573 382.213 302.12C382.839 301.667 383.326 301.007 383.673 300.14C384.019 299.273 384.193 298.227 384.193 297C384.193 295.773 384.019 294.727 383.673 293.86C383.326 292.993 382.839 292.333 382.213 291.88C381.599 291.427 380.886 291.2 380.073 291.2C379.259 291.2 378.539 291.427 377.913 291.88C377.299 292.333 376.819 292.993 376.473 293.86C376.126 294.727 375.953 295.773 375.953 297C375.953 298.227 376.126 299.273 376.473 300.14C376.819 301.007 377.299 301.667 377.913 302.12C378.539 302.573 379.259 302.8 380.073 302.8ZM390.776 290V304H389.336V291.28H386.036V290H390.776ZM401.342 296.66C402.222 296.953 402.896 297.393 403.362 297.98C403.842 298.567 404.082 299.273 404.082 300.1C404.082 300.913 403.862 301.627 403.422 302.24C402.982 302.84 402.349 303.307 401.522 303.64C400.709 303.96 399.749 304.12 398.642 304.12C396.962 304.12 395.642 303.76 394.682 303.04C393.722 302.32 393.242 301.34 393.242 300.1C393.242 299.26 393.469 298.553 393.922 297.98C394.389 297.393 395.062 296.953 395.942 296.66C395.222 296.38 394.676 295.98 394.302 295.46C393.929 294.927 393.742 294.3 393.742 293.58C393.742 292.447 394.182 291.547 395.062 290.88C395.956 290.213 397.149 289.88 398.642 289.88C399.629 289.88 400.489 290.033 401.222 290.34C401.969 290.633 402.549 291.06 402.962 291.62C403.376 292.18 403.582 292.833 403.582 293.58C403.582 294.3 403.389 294.927 403.002 295.46C402.616 295.98 402.062 296.38 401.342 296.66ZM395.182 293.62C395.182 294.393 395.489 295.007 396.102 295.46C396.716 295.913 397.562 296.14 398.642 296.14C399.722 296.14 400.569 295.913 401.182 295.46C401.809 295.007 402.122 294.4 402.122 293.64C402.122 292.853 401.802 292.233 401.162 291.78C400.536 291.327 399.696 291.1 398.642 291.1C397.576 291.1 396.729 291.327 396.102 291.78C395.489 292.233 395.182 292.847 395.182 293.62ZM398.642 302.9C399.882 302.9 400.849 302.647 401.542 302.14C402.249 301.633 402.602 300.947 402.602 300.08C402.602 299.213 402.249 298.533 401.542 298.04C400.849 297.533 399.882 297.28 398.642 297.28C397.416 297.28 396.449 297.533 395.742 298.04C395.049 298.533 394.702 299.213 394.702 300.08C394.702 300.96 395.049 301.653 395.742 302.16C396.436 302.653 397.402 302.9 398.642 302.9Z" fill="#555555"/>
<path d="M445.847 302.72V304H436.027V302.98L441.847 297.28C442.58 296.56 443.074 295.94 443.327 295.42C443.594 294.887 443.727 294.353 443.727 293.82C443.727 292.993 443.44 292.353 442.867 291.9C442.307 291.433 441.5 291.2 440.447 291.2C438.807 291.2 437.534 291.72 436.627 292.76L435.607 291.88C436.154 291.24 436.847 290.747 437.687 290.4C438.54 290.053 439.5 289.88 440.567 289.88C441.994 289.88 443.12 290.22 443.947 290.9C444.787 291.567 445.207 292.487 445.207 293.66C445.207 294.38 445.047 295.073 444.727 295.74C444.407 296.407 443.8 297.173 442.907 298.04L438.147 302.72H445.847ZM452.356 304.12C451.276 304.12 450.309 303.833 449.456 303.26C448.616 302.687 447.956 301.867 447.476 300.8C447.009 299.72 446.776 298.453 446.776 297C446.776 295.547 447.009 294.287 447.476 293.22C447.956 292.14 448.616 291.313 449.456 290.74C450.309 290.167 451.276 289.88 452.356 289.88C453.436 289.88 454.396 290.167 455.236 290.74C456.089 291.313 456.756 292.14 457.236 293.22C457.716 294.287 457.956 295.547 457.956 297C457.956 298.453 457.716 299.72 457.236 300.8C456.756 301.867 456.089 302.687 455.236 303.26C454.396 303.833 453.436 304.12 452.356 304.12ZM452.356 302.8C453.169 302.8 453.883 302.573 454.496 302.12C455.123 301.667 455.609 301.007 455.956 300.14C456.303 299.273 456.476 298.227 456.476 297C456.476 295.773 456.303 294.727 455.956 293.86C455.609 292.993 455.123 292.333 454.496 291.88C453.883 291.427 453.169 291.2 452.356 291.2C451.543 291.2 450.823 291.427 450.196 291.88C449.583 292.333 449.103 292.993 448.756 293.86C448.409 294.727 448.236 295.773 448.236 297C448.236 298.227 448.409 299.273 448.756 300.14C449.103 301.007 449.583 301.667 450.196 302.12C450.823 302.573 451.543 302.8 452.356 302.8ZM463.059 290V304H461.619V291.28H458.319V290H463.059ZM469.966 289.88C471.819 289.88 473.239 290.493 474.226 291.72C475.212 292.933 475.706 294.653 475.706 296.88C475.706 298.44 475.439 299.76 474.906 300.84C474.372 301.92 473.626 302.74 472.666 303.3C471.706 303.847 470.586 304.12 469.306 304.12C467.919 304.12 466.812 303.867 465.986 303.36L466.566 302.2C467.232 302.64 468.139 302.86 469.286 302.86C470.832 302.86 472.046 302.373 472.926 301.4C473.806 300.413 474.246 298.987 474.246 297.12C474.246 296.773 474.226 296.393 474.186 295.98C473.839 296.74 473.286 297.333 472.526 297.76C471.766 298.173 470.892 298.38 469.906 298.38C468.986 298.38 468.166 298.207 467.446 297.86C466.739 297.513 466.186 297.027 465.786 296.4C465.386 295.76 465.186 295.02 465.186 294.18C465.186 293.327 465.392 292.573 465.806 291.92C466.219 291.267 466.786 290.767 467.506 290.42C468.239 290.06 469.059 289.88 469.966 289.88ZM470.126 297.16C470.832 297.16 471.452 297.027 471.986 296.76C472.532 296.493 472.959 296.127 473.266 295.66C473.572 295.193 473.726 294.673 473.726 294.1C473.726 293.567 473.579 293.073 473.286 292.62C473.006 292.167 472.586 291.8 472.026 291.52C471.466 291.24 470.799 291.1 470.026 291.1C469.012 291.1 468.186 291.38 467.546 291.94C466.919 292.487 466.606 293.22 466.606 294.14C466.606 295.06 466.919 295.793 467.546 296.34C468.186 296.887 469.046 297.16 470.126 297.16Z" fill="#555555"/>
<path d="M515.288 302.72V304H505.468V302.98L511.288 297.28C512.022 296.56 512.515 295.94 512.768 295.42C513.035 294.887 513.168 294.353 513.168 293.82C513.168 292.993 512.882 292.353 512.308 291.9C511.748 291.433 510.942 291.2 509.888 291.2C508.248 291.2 506.975 291.72 506.068 292.76L505.048 291.88C505.595 291.24 506.288 290.747 507.128 290.4C507.982 290.053 508.942 289.88 510.008 289.88C511.435 289.88 512.562 290.22 513.388 290.9C514.228 291.567 514.648 292.487 514.648 293.66C514.648 294.38 514.488 295.073 514.168 295.74C513.848 296.407 513.242 297.173 512.348 298.04L507.588 302.72H515.288ZM521.797 304.12C520.717 304.12 519.751 303.833 518.897 303.26C518.057 302.687 517.397 301.867 516.917 300.8C516.451 299.72 516.217 298.453 516.217 297C516.217 295.547 516.451 294.287 516.917 293.22C517.397 292.14 518.057 291.313 518.897 290.74C519.751 290.167 520.717 289.88 521.797 289.88C522.877 289.88 523.837 290.167 524.677 290.74C525.531 291.313 526.197 292.14 526.677 293.22C527.157 294.287 527.397 295.547 527.397 297C527.397 298.453 527.157 299.72 526.677 300.8C526.197 301.867 525.531 302.687 524.677 303.26C523.837 303.833 522.877 304.12 521.797 304.12ZM521.797 302.8C522.611 302.8 523.324 302.573 523.937 302.12C524.564 301.667 525.051 301.007 525.397 300.14C525.744 299.273 525.917 298.227 525.917 297C525.917 295.773 525.744 294.727 525.397 293.86C525.051 292.993 524.564 292.333 523.937 291.88C523.324 291.427 522.611 291.2 521.797 291.2C520.984 291.2 520.264 291.427 519.637 291.88C519.024 292.333 518.544 292.993 518.197 293.86C517.851 294.727 517.677 295.773 517.677 297C517.677 298.227 517.851 299.273 518.197 300.14C518.544 301.007 519.024 301.667 519.637 302.12C520.264 302.573 520.984 302.8 521.797 302.8ZM538.18 302.72V304H528.36V302.98L534.18 297.28C534.914 296.56 535.407 295.94 535.66 295.42C535.927 294.887 536.06 294.353 536.06 293.82C536.06 292.993 535.774 292.353 535.2 291.9C534.64 291.433 533.834 291.2 532.78 291.2C531.14 291.2 529.867 291.72 528.96 292.76L527.94 291.88C528.487 291.24 529.18 290.747 530.02 290.4C530.874 290.053 531.834 289.88 532.9 289.88C534.327 289.88 535.454 290.22 536.28 290.9C537.12 291.567 537.54 292.487 537.54 293.66C537.54 294.38 537.38 295.073 537.06 295.74C536.74 296.407 536.134 297.173 535.24 298.04L530.48 302.72H538.18ZM544.69 304.12C543.61 304.12 542.643 303.833 541.79 303.26C540.95 302.687 540.29 301.867 539.81 300.8C539.343 299.72 539.11 298.453 539.11 297C539.11 295.547 539.343 294.287 539.81 293.22C540.29 292.14 540.95 291.313 541.79 290.74C542.643 290.167 543.61 289.88 544.69 289.88C545.77 289.88 546.73 290.167 547.57 290.74C548.423 291.313 549.09 292.14 549.57 293.22C550.05 294.287 550.29 295.547 550.29 297C550.29 298.453 550.05 299.72 549.57 300.8C549.09 301.867 548.423 302.687 547.57 303.26C546.73 303.833 545.77 304.12 544.69 304.12ZM544.69 302.8C545.503 302.8 546.216 302.573 546.83 302.12C547.456 301.667 547.943 301.007 548.29 300.14C548.636 299.273 548.81 298.227 548.81 297C548.81 295.773 548.636 294.727 548.29 293.86C547.943 292.993 547.456 292.333 546.83 291.88C546.216 291.427 545.503 291.2 544.69 291.2C543.876 291.2 543.156 291.427 542.53 291.88C541.916 292.333 541.436 292.993 541.09 293.86C540.743 294.727 540.57 295.773 540.57 297C540.57 298.227 540.743 299.273 541.09 300.14C541.436 301.007 541.916 301.667 542.53 302.12C543.156 302.573 543.876 302.8 544.69 302.8Z" fill="#555555"/>
<path d="M590.257 302.72V304H580.437V302.98L586.257 297.28C586.99 296.56 587.484 295.94 587.737 295.42C588.004 294.887 588.137 294.353 588.137 293.82C588.137 292.993 587.85 292.353 587.277 291.9C586.717 291.433 585.91 291.2 584.857 291.2C583.217 291.2 581.944 291.72 581.037 292.76L580.017 291.88C580.564 291.24 581.257 290.747 582.097 290.4C582.95 290.053 583.91 289.88 584.977 289.88C586.404 289.88 587.53 290.22 588.357 290.9C589.197 291.567 589.617 292.487 589.617 293.66C589.617 294.38 589.457 295.073 589.137 295.74C588.817 296.407 588.21 297.173 587.317 298.04L582.557 302.72H590.257ZM596.766 304.12C595.686 304.12 594.719 303.833 593.866 303.26C593.026 302.687 592.366 301.867 591.886 300.8C591.419 299.72 591.186 298.453 591.186 297C591.186 295.547 591.419 294.287 591.886 293.22C592.366 292.14 593.026 291.313 593.866 290.74C594.719 290.167 595.686 289.88 596.766 289.88C597.846 289.88 598.806 290.167 599.646 290.74C600.499 291.313 601.166 292.14 601.646 293.22C602.126 294.287 602.366 295.547 602.366 297C602.366 298.453 602.126 299.72 601.646 300.8C601.166 301.867 600.499 302.687 599.646 303.26C598.806 303.833 597.846 304.12 596.766 304.12ZM596.766 302.8C597.579 302.8 598.293 302.573 598.906 302.12C599.533 301.667 600.019 301.007 600.366 300.14C600.713 299.273 600.886 298.227 600.886 297C600.886 295.773 600.713 294.727 600.366 293.86C600.019 292.993 599.533 292.333 598.906 291.88C598.293 291.427 597.579 291.2 596.766 291.2C595.953 291.2 595.233 291.427 594.606 291.88C593.993 292.333 593.513 292.993 593.166 293.86C592.819 294.727 592.646 295.773 592.646 297C592.646 298.227 592.819 299.273 593.166 300.14C593.513 301.007 593.993 301.667 594.606 302.12C595.233 302.573 595.953 302.8 596.766 302.8ZM613.149 302.72V304H603.329V302.98L609.149 297.28C609.883 296.56 610.376 295.94 610.629 295.42C610.896 294.887 611.029 294.353 611.029 293.82C611.029 292.993 610.743 292.353 610.169 291.9C609.609 291.433 608.803 291.2 607.749 291.2C606.109 291.2 604.836 291.72 603.929 292.76L602.909 291.88C603.456 291.24 604.149 290.747 604.989 290.4C605.843 290.053 606.803 289.88 607.869 289.88C609.296 289.88 610.423 290.22 611.249 290.9C612.089 291.567 612.509 292.487 612.509 293.66C612.509 294.38 612.349 295.073 612.029 295.74C611.709 296.407 611.103 297.173 610.209 298.04L605.449 302.72H613.149ZM618.036 290V304H616.596V291.28H613.296V290H618.036Z" fill="#555555"/>
<path d="M18 216.386V218.546L10.76 225.006H18V226.806H3.72V225.006H10.64L3.72 218.706V216.666L10.66 222.866L18 216.386ZM12.62 206.163C13.5133 206.163 14.3067 206.283 15 206.523C15.68 206.75 16.26 207.083 16.74 207.523C17.22 207.95 17.5867 208.477 17.84 209.103C18.08 209.717 18.2 210.403 18.2 211.163C18.2 211.87 18.08 212.523 17.84 213.123C17.5867 213.723 17.22 214.243 16.74 214.683C16.26 215.123 15.68 215.47 15 215.723C14.3067 215.963 13.5133 216.083 12.62 216.083C11.4333 216.083 10.4333 215.883 9.62 215.483C8.79333 215.083 8.16667 214.51 7.74 213.763C7.3 213.017 7.08 212.13 7.08 211.103C7.08 210.13 7.3 209.277 7.74 208.543C8.16667 207.797 8.79333 207.217 9.62 206.803C10.4333 206.377 11.4333 206.163 12.62 206.163ZM12.62 214.263C13.46 214.263 14.1933 214.157 14.82 213.943C15.4333 213.717 15.9067 213.37 16.24 212.903C16.5733 212.437 16.74 211.843 16.74 211.123C16.74 210.403 16.5733 209.81 16.24 209.343C15.9067 208.877 15.4333 208.537 14.82 208.323C14.1933 208.097 13.46 207.983 12.62 207.983C11.7667 207.983 11.04 208.097 10.44 208.323C9.84 208.55 9.38 208.897 9.06 209.363C8.72667 209.817 8.56 210.41 8.56 211.143C8.56 212.237 8.92 213.03 9.64 213.523C10.36 214.017 11.3533 214.263 12.62 214.263ZM18 196.014V197.794H8.74V200.954C10.4333 201.087 11.88 201.254 13.08 201.454C14.2667 201.654 15.2333 201.907 15.98 202.214C16.7267 202.52 17.2733 202.887 17.62 203.314C17.9667 203.74 18.14 204.24 18.14 204.814C18.14 204.987 18.1267 205.16 18.1 205.334C18.0867 205.494 18.0533 205.627 18 205.734H16.68C16.7067 205.654 16.7267 205.567 16.74 205.474C16.7533 205.38 16.76 205.287 16.76 205.194C16.76 204.9 16.64 204.634 16.4 204.394C16.16 204.154 15.7933 203.94 15.3 203.754C14.8067 203.554 14.1867 203.374 13.44 203.214C12.68 203.054 11.7867 202.914 10.76 202.794C9.73333 202.674 8.57333 202.567 7.28 202.474V196.014H18ZM13.82 191.751C13.94 191.751 14.1133 191.758 14.34 191.771C14.5533 191.771 14.7867 191.778 15.04 191.791C15.28 191.805 15.5133 191.818 15.74 191.831C15.9533 191.845 16.1267 191.858 16.26 191.871L7.28 186.131L7.28 183.971H18V185.611H11.68C11.4667 185.611 11.1867 185.611 10.84 185.611C10.4933 185.598 10.1533 185.585 9.82 185.571C9.47333 185.558 9.21333 185.545 9.04 185.531L18 191.231V193.411H7.28V191.751H13.82ZM11.18 179.82C11.8067 179.82 12.2733 179.646 12.58 179.3C12.8733 178.94 13.02 178.426 13.02 177.76C13.02 177.093 12.92 176.486 12.72 175.94C12.5067 175.393 12.2267 174.833 11.88 174.26H7.28V172.5H18V174.26H13.22C13.6067 174.86 13.9133 175.453 14.14 176.04C14.3533 176.613 14.46 177.306 14.46 178.12C14.46 179.213 14.1733 180.066 13.6 180.68C13.0267 181.28 12.26 181.58 11.3 181.58H7.28V179.82H11.18ZM7.08 165.754C7.08 164.834 7.28 164.047 7.68 163.394C8.08 162.727 8.64667 162.221 9.38 161.874C10.1 161.514 10.9467 161.334 11.92 161.334H12.98V168.674C14.1933 168.647 15.12 168.341 15.76 167.754C16.3867 167.154 16.7 166.321 16.7 165.254C16.7 164.574 16.64 163.974 16.52 163.454C16.3867 162.921 16.2 162.374 15.96 161.814H17.5C17.74 162.361 17.9133 162.901 18.02 163.434C18.14 163.967 18.2 164.601 18.2 165.334C18.2 166.347 17.9933 167.247 17.58 168.034C17.1667 168.807 16.5533 169.414 15.74 169.854C14.9133 170.281 13.9067 170.494 12.72 170.494C11.5467 170.494 10.54 170.301 9.7 169.914C8.86 169.514 8.21333 168.961 7.76 168.254C7.30667 167.534 7.08 166.701 7.08 165.754ZM8.52 165.774C8.52 166.614 8.79333 167.281 9.34 167.774C9.87333 168.254 10.62 168.541 11.58 168.634V163.174C10.9667 163.174 10.4333 163.267 9.98 163.454C9.52667 163.641 9.17333 163.927 8.92 164.314C8.65333 164.687 8.52 165.174 8.52 165.774ZM18.2 155.105C18.2 156.052 18.0067 156.898 17.62 157.645C17.2333 158.378 16.6333 158.958 15.82 159.385C15.0067 159.798 13.9667 160.005 12.7 160.005C11.38 160.005 10.3067 159.785 9.48 159.345C8.65333 158.905 8.04667 158.312 7.66 157.565C7.27333 156.805 7.08 155.945 7.08 154.985C7.08 154.438 7.14 153.912 7.26 153.405C7.36667 152.898 7.5 152.485 7.66 152.165L9.12 152.705C9 153.025 8.88667 153.398 8.78 153.825C8.67333 154.252 8.62 154.652 8.62 155.025C8.62 155.745 8.77333 156.338 9.08 156.805C9.38667 157.272 9.84 157.618 10.44 157.845C11.04 158.072 11.7867 158.185 12.68 158.185C13.5333 158.185 14.26 158.072 14.86 157.845C15.46 157.618 15.9133 157.278 16.22 156.825C16.5267 156.372 16.68 155.805 16.68 155.125C16.68 154.538 16.62 154.025 16.5 153.585C16.38 153.132 16.2333 152.718 16.06 152.345H17.62C17.8067 152.705 17.9467 153.105 18.04 153.545C18.1467 153.972 18.2 154.492 18.2 155.105ZM8.76 143.196V146.696H18V148.436H8.76V151.896H7.28V143.196H8.76ZM9.98 133.264C10.6467 133.264 11.1667 133.464 11.54 133.864C11.9133 134.264 12.1667 134.777 12.3 135.404H12.38C12.4733 134.737 12.7133 134.157 13.1 133.664C13.4733 133.171 14.06 132.924 14.86 132.924C15.3133 132.924 15.7333 133.011 16.12 133.184C16.5067 133.344 16.84 133.597 17.12 133.944C17.4 134.291 17.62 134.737 17.78 135.284C17.9267 135.831 18 136.491 18 137.264V141.884H7.28V137.284C7.28 136.524 7.36667 135.844 7.54 135.244C7.7 134.631 7.98 134.151 8.38 133.804C8.76667 133.444 9.3 133.264 9.98 133.264ZM14.86 134.744C14.2467 134.744 13.8067 134.977 13.54 135.444C13.2733 135.911 13.14 136.597 13.14 137.504V140.124H16.58V137.464C16.58 136.584 16.4533 135.911 16.2 135.444C15.9333 134.977 15.4867 134.744 14.86 134.744ZM10.2 135.044C9.69333 135.044 9.32667 135.231 9.1 135.604C8.86 135.964 8.74 136.557 8.74 137.384V140.124H11.68V137.704C11.68 136.837 11.56 136.177 11.32 135.724C11.08 135.271 10.7067 135.044 10.2 135.044ZM12.62 121.841C13.5133 121.841 14.3067 121.961 15 122.201C15.68 122.427 16.26 122.761 16.74 123.201C17.22 123.627 17.5867 124.154 17.84 124.781C18.08 125.394 18.2 126.081 18.2 126.841C18.2 127.547 18.08 128.201 17.84 128.801C17.5867 129.401 17.22 129.921 16.74 130.361C16.26 130.801 15.68 131.147 15 131.401C14.3067 131.641 13.5133 131.761 12.62 131.761C11.4333 131.761 10.4333 131.561 9.62 131.161C8.79333 130.761 8.16667 130.187 7.74 129.441C7.3 128.694 7.08 127.807 7.08 126.781C7.08 125.807 7.3 124.954 7.74 124.221C8.16667 123.474 8.79333 122.894 9.62 122.481C10.4333 122.054 11.4333 121.841 12.62 121.841ZM12.62 129.941C13.46 129.941 14.1933 129.834 14.82 129.621C15.4333 129.394 15.9067 129.047 16.24 128.581C16.5733 128.114 16.74 127.521 16.74 126.801C16.74 126.081 16.5733 125.487 16.24 125.021C15.9067 124.554 15.4333 124.214 14.82 124.001C14.1933 123.774 13.46 123.661 12.62 123.661C11.7667 123.661 11.04 123.774 10.44 124.001C9.84 124.227 9.38 124.574 9.06 125.041C8.72667 125.494 8.56 126.087 8.56 126.821C8.56 127.914 8.92 128.707 9.64 129.201C10.36 129.694 11.3533 129.941 12.62 129.941ZM11.56 116.055C10 116.055 8.67333 115.902 7.58 115.595C6.47333 115.275 5.59333 114.788 4.94 114.135C4.27333 113.468 3.82667 112.615 3.6 111.575C3.41333 110.708 3.24667 109.862 3.1 109.035C2.95333 108.208 2.82 107.435 2.7 106.715L4.24 106.415C4.29333 106.762 4.36 107.148 4.44 107.575C4.50667 108.002 4.58 108.435 4.66 108.875C4.72667 109.315 4.8 109.742 4.88 110.155C4.94667 110.555 5.01333 110.908 5.08 111.215C5.17333 111.655 5.33333 112.048 5.56 112.395C5.77333 112.742 6.06667 113.042 6.44 113.295C6.81333 113.535 7.27333 113.728 7.82 113.875C8.36667 114.022 9.01333 114.108 9.76 114.135V114.015C9.50667 113.828 9.24667 113.575 8.98 113.255C8.71333 112.922 8.48667 112.528 8.3 112.075C8.11333 111.608 8.02 111.082 8.02 110.495C8.02 109.562 8.22667 108.788 8.64 108.175C9.04 107.548 9.6 107.082 10.32 106.775C11.04 106.455 11.88 106.295 12.84 106.295C14.0267 106.295 15.02 106.502 15.82 106.915C16.62 107.328 17.22 107.902 17.62 108.635C18.0067 109.368 18.2 110.222 18.2 111.195C18.2 111.928 18.06 112.595 17.78 113.195C17.4867 113.795 17.06 114.308 16.5 114.735C15.94 115.162 15.2467 115.488 14.42 115.715C13.5933 115.942 12.64 116.055 11.56 116.055ZM16.74 111.055C16.74 110.468 16.62 109.962 16.38 109.535C16.14 109.095 15.7467 108.755 15.2 108.515C14.6533 108.275 13.9267 108.155 13.02 108.155C11.9267 108.155 11.0667 108.362 10.44 108.775C9.8 109.175 9.48 109.842 9.48 110.775C9.48 111.362 9.61333 111.895 9.88 112.375C10.1333 112.855 10.4267 113.255 10.76 113.575C11.0933 113.895 11.3733 114.122 11.6 114.255C12.2533 114.255 12.8867 114.208 13.5 114.115C14.1133 114.022 14.6667 113.862 15.16 113.635C15.64 113.395 16.0267 113.068 16.32 112.655C16.6 112.228 16.74 111.695 16.74 111.055ZM7.1 100.262C7.1 98.9556 7.38667 97.9889 7.96 97.3623C8.53333 96.7356 9.44667 96.4223 10.7 96.4223H18V97.7023L16.48 98.0423V98.1223C16.8667 98.4289 17.1933 98.7489 17.46 99.0823C17.7133 99.4023 17.9 99.7756 18.02 100.202C18.14 100.616 18.2 101.122 18.2 101.722C18.2 102.362 18.0867 102.942 17.86 103.462C17.6333 103.969 17.2867 104.369 16.82 104.662C16.34 104.956 15.74 105.102 15.02 105.102C13.9533 105.102 13.1333 104.682 12.56 103.842C11.9733 103.002 11.6533 101.709 11.6 99.9623L11.54 98.1423H10.9C10.0067 98.1423 9.38667 98.3356 9.04 98.7223C8.69333 99.1089 8.52 99.6556 8.52 100.362C8.52 100.922 8.60667 101.456 8.78 101.962C8.94 102.469 9.12667 102.942 9.34 103.382L8.02 103.922C7.76667 103.456 7.55333 102.902 7.38 102.262C7.19333 101.622 7.1 100.956 7.1 100.262ZM12.82 99.7423C12.8733 101.076 13.0867 102.002 13.46 102.522C13.8333 103.029 14.36 103.282 15.04 103.282C15.64 103.282 16.08 103.102 16.36 102.742C16.64 102.369 16.78 101.896 16.78 101.322C16.78 100.416 16.5333 99.6623 16.04 99.0623C15.5333 98.4623 14.76 98.1623 13.72 98.1623H12.76L12.82 99.7423ZM18 85.7513V87.5313H8.74V90.6913C10.4333 90.8247 11.88 90.9913 13.08 91.1913C14.2667 91.3913 15.2333 91.6447 15.98 91.9513C16.7267 92.258 17.2733 92.6247 17.62 93.0513C17.9667 93.478 18.14 93.978 18.14 94.5513C18.14 94.7247 18.1267 94.898 18.1 95.0713C18.0867 95.2313 18.0533 95.3647 18 95.4713H16.68C16.7067 95.3913 16.7267 95.3047 16.74 95.2113C16.7533 95.118 16.76 95.0247 16.76 94.9313C16.76 94.638 16.64 94.3713 16.4 94.1313C16.16 93.8913 15.7933 93.678 15.3 93.4913C14.8067 93.2913 14.1867 93.1113 13.44 92.9513C12.68 92.7913 11.7867 92.6513 10.76 92.5313C9.73333 92.4113 8.57333 92.3047 7.28 92.2113V85.7513H18ZM18 74.9888V76.7688H8.74V79.9288C10.4333 80.0621 11.88 80.2288 13.08 80.4288C14.2667 80.6288 15.2333 80.8821 15.98 81.1888C16.7267 81.4955 17.2733 81.8621 17.62 82.2888C17.9667 82.7155 18.14 83.2155 18.14 83.7888C18.14 83.9621 18.1267 84.1355 18.1 84.3088C18.0867 84.4688 18.0533 84.6021 18 84.7088H16.68C16.7067 84.6288 16.7267 84.5421 16.74 84.4488C16.7533 84.3555 16.76 84.2621 16.76 84.1688C16.76 83.8755 16.64 83.6088 16.4 83.3688C16.16 83.1288 15.7933 82.9155 15.3 82.7288C14.8067 82.5288 14.1867 82.3488 13.44 82.1888C12.68 82.0288 11.7867 81.8888 10.76 81.7688C9.73333 81.6488 8.57333 81.5421 7.28 81.4488V74.9888H18ZM12.62 63.0663C13.5133 63.0663 14.3067 63.1863 15 63.4263C15.68 63.653 16.26 63.9863 16.74 64.4263C17.22 64.853 17.5867 65.3797 17.84 66.0063C18.08 66.6197 18.2 67.3063 18.2 68.0663C18.2 68.773 18.08 69.4263 17.84 70.0263C17.5867 70.6263 17.22 71.1463 16.74 71.5863C16.26 72.0263 15.68 72.373 15 72.6263C14.3067 72.8663 13.5133 72.9863 12.62 72.9863C11.4333 72.9863 10.4333 72.7863 9.62 72.3863C8.79333 71.9863 8.16667 71.413 7.74 70.6663C7.3 69.9197 7.08 69.033 7.08 68.0063C7.08 67.033 7.3 66.1797 7.74 65.4463C8.16667 64.6997 8.79333 64.1197 9.62 63.7063C10.4333 63.2797 11.4333 63.0663 12.62 63.0663ZM12.62 71.1663C13.46 71.1663 14.1933 71.0597 14.82 70.8463C15.4333 70.6197 15.9067 70.273 16.24 69.8063C16.5733 69.3397 16.74 68.7463 16.74 68.0263C16.74 67.3063 16.5733 66.713 16.24 66.2463C15.9067 65.7797 15.4333 65.4397 14.82 65.2263C14.1933 64.9997 13.46 64.8863 12.62 64.8863C11.7667 64.8863 11.04 64.9997 10.44 65.2263C9.84 65.453 9.38 65.7997 9.06 66.2663C8.72667 66.7197 8.56 67.313 8.56 68.0463C8.56 69.1397 8.92 69.933 9.64 70.4263C10.36 70.9197 11.3533 71.1663 12.62 71.1663ZM9.98 52.4569C10.6467 52.4569 11.1667 52.6569 11.54 53.0569C11.9133 53.4569 12.1667 53.9703 12.3 54.5969H12.38C12.4733 53.9303 12.7133 53.3503 13.1 52.8569C13.4733 52.3636 14.06 52.1169 14.86 52.1169C15.3133 52.1169 15.7333 52.2036 16.12 52.3769C16.5067 52.5369 16.84 52.7903 17.12 53.1369C17.4 53.4836 17.62 53.9303 17.78 54.4769C17.9267 55.0236 18 55.6836 18 56.4569V61.0769H7.28V56.4769C7.28 55.7169 7.36667 55.0369 7.54 54.4369C7.7 53.8236 7.98 53.3436 8.38 52.9969C8.76667 52.6369 9.3 52.4569 9.98 52.4569ZM14.86 53.9369C14.2467 53.9369 13.8067 54.1703 13.54 54.6369C13.2733 55.1036 13.14 55.7903 13.14 56.6969V59.3169H16.58V56.6569C16.58 55.7769 16.4533 55.1036 16.2 54.6369C15.9333 54.1703 15.4867 53.9369 14.86 53.9369ZM10.2 54.2369C9.69333 54.2369 9.32667 54.4236 9.1 54.7969C8.86 55.1569 8.74 55.7503 8.74 56.5769V59.3169H11.68V56.8969C11.68 56.0303 11.56 55.3703 11.32 54.9169C11.08 54.4636 10.7067 54.2369 10.2 54.2369Z" fill="#555555"/>
<line x1="47.5" y1="275" x2="47.5" y2="4" stroke="#555555"/>
<line x1="48" y1="4.5" x2="642" y2="4.5" stroke="#E5E5E5"/>
<line x1="48" y1="34.5" x2="642" y2="34.5" stroke="#E5E5E5"/>
<line x1="48" y1="64.5" x2="642" y2="64.5" stroke="#E5E5E5"/>
<line x1="48" y1="94.5" x2="642" y2="94.5" stroke="#E5E5E5"/>
<line x1="48" y1="124.5" x2="642" y2="124.5" stroke="#E5E5E5"/>
<line x1="48" y1="154.5" x2="642" y2="154.5" stroke="#E5E5E5"/>
<line x1="48" y1="184.5" x2="642" y2="184.5" stroke="#E5E5E5"/>
<line x1="48" y1="214.5" x2="642" y2="214.5" stroke="#E5E5E5"/>
<line x1="48" y1="244.5" x2="642" y2="244.5" stroke="#E5E5E5"/>
<line x1="48" y1="274.5" x2="642" y2="274.5" stroke="#555555"/>
<path d="M37.9993 279.072C37.3513 279.072 36.7713 278.9 36.2593 278.556C35.7553 278.212 35.3593 277.72 35.0713 277.08C34.7913 276.432 34.6513 275.672 34.6513 274.8C34.6513 273.928 34.7913 273.172 35.0713 272.532C35.3593 271.884 35.7553 271.388 36.2593 271.044C36.7713 270.7 37.3513 270.528 37.9993 270.528C38.6473 270.528 39.2233 270.7 39.7273 271.044C40.2393 271.388 40.6393 271.884 40.9273 272.532C41.2153 273.172 41.3593 273.928 41.3593 274.8C41.3593 275.672 41.2153 276.432 40.9273 277.08C40.6393 277.72 40.2393 278.212 39.7273 278.556C39.2233 278.9 38.6473 279.072 37.9993 279.072ZM37.9993 278.28C38.4873 278.28 38.9153 278.144 39.2833 277.872C39.6593 277.6 39.9513 277.204 40.1593 276.684C40.3673 276.164 40.4713 275.536 40.4713 274.8C40.4713 274.064 40.3673 273.436 40.1593 272.916C39.9513 272.396 39.6593 272 39.2833 271.728C38.9153 271.456 38.4873 271.32 37.9993 271.32C37.5113 271.32 37.0793 271.456 36.7033 271.728C36.3353 272 36.0473 272.396 35.8393 272.916C35.6313 273.436 35.5273 274.064 35.5273 274.8C35.5273 275.536 35.6313 276.164 35.8393 276.684C36.0473 277.204 36.3353 277.6 36.7033 277.872C37.0793 278.144 37.5113 278.28 37.9993 278.28Z" fill="#555555"/>
<path d="M37.4336 244.044C38.6496 244.044 39.5336 244.264 40.0856 244.704C40.6456 245.136 40.9256 245.744 40.9256 246.528C40.9256 247.016 40.8096 247.452 40.5776 247.836C40.3536 248.22 40.0136 248.524 39.5576 248.748C39.1016 248.964 38.5416 249.072 37.8776 249.072C37.2776 249.072 36.7056 248.976 36.1616 248.784C35.6256 248.584 35.1936 248.32 34.8656 247.992L35.2856 247.308C35.5656 247.596 35.9336 247.832 36.3896 248.016C36.8456 248.192 37.3376 248.28 37.8656 248.28C38.5616 248.28 39.0976 248.124 39.4736 247.812C39.8576 247.5 40.0496 247.084 40.0496 246.564C40.0496 245.988 39.8336 245.552 39.4016 245.256C38.9776 244.96 38.2576 244.812 37.2416 244.812H35.4536L35.8856 240.6H40.4816V241.368H36.6416L36.3536 244.044H37.4336Z" fill="#555555"/>
<path d="M35.0514 210.6V219H34.1874V211.368H32.2074V210.6H35.0514ZM39.9273 219.072C39.2793 219.072 38.6993 218.9 38.1873 218.556C37.6833 218.212 37.2873 217.72 36.9993 217.08C36.7193 216.432 36.5793 215.672 36.5793 214.8C36.5793 213.928 36.7193 213.172 36.9993 212.532C37.2873 211.884 37.6833 211.388 38.1873 211.044C38.6993 210.7 39.2793 210.528 39.9273 210.528C40.5753 210.528 41.1513 210.7 41.6553 211.044C42.1673 211.388 42.5673 211.884 42.8553 212.532C43.1433 213.172 43.2873 213.928 43.2873 214.8C43.2873 215.672 43.1433 216.432 42.8553 217.08C42.5673 217.72 42.1673 218.212 41.6553 218.556C41.1513 218.9 40.5753 219.072 39.9273 219.072ZM39.9273 218.28C40.4153 218.28 40.8433 218.144 41.2113 217.872C41.5873 217.6 41.8793 217.204 42.0873 216.684C42.2953 216.164 42.3993 215.536 42.3993 214.8C42.3993 214.064 42.2953 213.436 42.0873 212.916C41.8793 212.396 41.5873 212 41.2113 211.728C40.8433 211.456 40.4153 211.32 39.9273 211.32C39.4393 211.32 39.0073 211.456 38.6313 211.728C38.2633 212 37.9753 212.396 37.7673 212.916C37.5593 213.436 37.4553 214.064 37.4553 214.8C37.4553 215.536 37.5593 216.164 37.7673 216.684C37.9753 217.204 38.2633 217.6 38.6313 217.872C39.0073 218.144 39.4393 218.28 39.9273 218.28Z" fill="#555555"/>
<path d="M35.6256 180.6V189H34.7616V181.368H32.7816V180.6H35.6256ZM39.3615 184.044C40.5775 184.044 41.4615 184.264 42.0135 184.704C42.5735 185.136 42.8535 185.744 42.8535 186.528C42.8535 187.016 42.7375 187.452 42.5055 187.836C42.2815 188.22 41.9415 188.524 41.4855 188.748C41.0295 188.964 40.4695 189.072 39.8055 189.072C39.2055 189.072 38.6335 188.976 38.0895 188.784C37.5535 188.584 37.1215 188.32 36.7935 187.992L37.2135 187.308C37.4935 187.596 37.8615 187.832 38.3175 188.016C38.7735 188.192 39.2655 188.28 39.7935 188.28C40.4895 188.28 41.0255 188.124 41.4015 187.812C41.7855 187.5 41.9775 187.084 41.9775 186.564C41.9775 185.988 41.7615 185.552 41.3295 185.256C40.9055 184.96 40.1855 184.812 39.1695 184.812H37.3815L37.8135 180.6H42.4095V181.368H38.5695L38.2815 184.044H39.3615Z" fill="#555555"/>
<path d="M37.2406 158.232V159H31.3486V158.388L34.8406 154.968C35.2806 154.536 35.5766 154.164 35.7286 153.852C35.8886 153.532 35.9686 153.212 35.9686 152.892C35.9686 152.396 35.7966 152.012 35.4526 151.74C35.1166 151.46 34.6326 151.32 34.0006 151.32C33.0166 151.32 32.2526 151.632 31.7086 152.256L31.0966 151.728C31.4246 151.344 31.8406 151.048 32.3446 150.84C32.8566 150.632 33.4326 150.528 34.0726 150.528C34.9286 150.528 35.6046 150.732 36.1006 151.14C36.6046 151.54 36.8566 152.092 36.8566 152.796C36.8566 153.228 36.7606 153.644 36.5686 154.044C36.3766 154.444 36.0126 154.904 35.4766 155.424L32.6206 158.232H37.2406ZM41.1461 159.072C40.4981 159.072 39.9181 158.9 39.4061 158.556C38.9021 158.212 38.5061 157.72 38.2181 157.08C37.9381 156.432 37.7981 155.672 37.7981 154.8C37.7981 153.928 37.9381 153.172 38.2181 152.532C38.5061 151.884 38.9021 151.388 39.4061 151.044C39.9181 150.7 40.4981 150.528 41.1461 150.528C41.7941 150.528 42.3701 150.7 42.8741 151.044C43.3861 151.388 43.7861 151.884 44.0741 152.532C44.3621 153.172 44.5061 153.928 44.5061 154.8C44.5061 155.672 44.3621 156.432 44.0741 157.08C43.7861 157.72 43.3861 158.212 42.8741 158.556C42.3701 158.9 41.7941 159.072 41.1461 159.072ZM41.1461 158.28C41.6341 158.28 42.0621 158.144 42.4301 157.872C42.8061 157.6 43.0981 157.204 43.3061 156.684C43.5141 156.164 43.6181 155.536 43.6181 154.8C43.6181 154.064 43.5141 153.436 43.3061 152.916C43.0981 152.396 42.8061 152 42.4301 151.728C42.0621 151.456 41.6341 151.32 41.1461 151.32C40.6581 151.32 40.2261 151.456 39.8501 151.728C39.4821 152 39.1941 152.396 38.9861 152.916C38.7781 153.436 38.6741 154.064 38.6741 154.8C38.6741 155.536 38.7781 156.164 38.9861 156.684C39.1941 157.204 39.4821 157.6 39.8501 157.872C40.2261 158.144 40.6581 158.28 41.1461 158.28Z" fill="#555555"/>
<path d="M37.7914 128.232V129H31.8994V128.388L35.3914 124.968C35.8314 124.536 36.1274 124.164 36.2794 123.852C36.4394 123.532 36.5194 123.212 36.5194 122.892C36.5194 122.396 36.3474 122.012 36.0034 121.74C35.6674 121.46 35.1834 121.32 34.5514 121.32C33.5674 121.32 32.8034 121.632 32.2594 122.256L31.6474 121.728C31.9754 121.344 32.3914 121.048 32.8954 120.84C33.4074 120.632 33.9834 120.528 34.6234 120.528C35.4794 120.528 36.1554 120.732 36.6514 121.14C37.1554 121.54 37.4074 122.092 37.4074 122.796C37.4074 123.228 37.3114 123.644 37.1194 124.044C36.9274 124.444 36.5634 124.904 36.0274 125.424L33.1714 128.232H37.7914ZM40.6037 124.044C41.8197 124.044 42.7037 124.264 43.2557 124.704C43.8157 125.136 44.0957 125.744 44.0957 126.528C44.0957 127.016 43.9797 127.452 43.7477 127.836C43.5237 128.22 43.1837 128.524 42.7277 128.748C42.2717 128.964 41.7117 129.072 41.0477 129.072C40.4477 129.072 39.8757 128.976 39.3317 128.784C38.7957 128.584 38.3637 128.32 38.0357 127.992L38.4557 127.308C38.7357 127.596 39.1037 127.832 39.5597 128.016C40.0157 128.192 40.5077 128.28 41.0357 128.28C41.7317 128.28 42.2677 128.124 42.6437 127.812C43.0277 127.5 43.2197 127.084 43.2197 126.564C43.2197 125.988 43.0037 125.552 42.5717 125.256C42.1477 124.96 41.4277 124.812 40.4117 124.812H38.6237L39.0557 120.6H43.6517V121.368H39.8117L39.5237 124.044H40.6037Z" fill="#555555"/>
<path d="M34.3606 94.2C35.2406 94.248 35.9086 94.488 36.3646 94.92C36.8286 95.344 37.0606 95.9 37.0606 96.588C37.0606 97.068 36.9446 97.496 36.7126 97.872C36.4806 98.24 36.1366 98.532 35.6806 98.748C35.2246 98.964 34.6686 99.072 34.0126 99.072C33.4046 99.072 32.8286 98.976 32.2846 98.784C31.7486 98.584 31.3166 98.32 30.9886 97.992L31.4086 97.308C31.6886 97.596 32.0606 97.832 32.5246 98.016C32.9886 98.192 33.4846 98.28 34.0126 98.28C34.7006 98.28 35.2326 98.132 35.6086 97.836C35.9846 97.532 36.1726 97.116 36.1726 96.588C36.1726 96.068 35.9846 95.66 35.6086 95.364C35.2326 95.068 34.6646 94.92 33.9046 94.92H33.3046V94.284L35.6326 91.368H31.3366V90.6H36.7366V91.212L34.3606 94.2ZM41.1461 99.072C40.4981 99.072 39.9181 98.9 39.4061 98.556C38.9021 98.212 38.5061 97.72 38.2181 97.08C37.9381 96.432 37.7981 95.672 37.7981 94.8C37.7981 93.928 37.9381 93.172 38.2181 92.532C38.5061 91.884 38.9021 91.388 39.4061 91.044C39.9181 90.7 40.4981 90.528 41.1461 90.528C41.7941 90.528 42.3701 90.7 42.8741 91.044C43.3861 91.388 43.7861 91.884 44.0741 92.532C44.3621 93.172 44.5061 93.928 44.5061 94.8C44.5061 95.672 44.3621 96.432 44.0741 97.08C43.7861 97.72 43.3861 98.212 42.8741 98.556C42.3701 98.9 41.7941 99.072 41.1461 99.072ZM41.1461 98.28C41.6341 98.28 42.0621 98.144 42.4301 97.872C42.8061 97.6 43.0981 97.204 43.3061 96.684C43.5141 96.164 43.6181 95.536 43.6181 94.8C43.6181 94.064 43.5141 93.436 43.3061 92.916C43.0981 92.396 42.8061 92 42.4301 91.728C42.0621 91.456 41.6341 91.32 41.1461 91.32C40.6581 91.32 40.2261 91.456 39.8501 91.728C39.4821 92 39.1941 92.396 38.9861 92.916C38.7781 93.436 38.6741 94.064 38.6741 94.8C38.6741 95.536 38.7781 96.164 38.9861 96.684C39.1941 97.204 39.4821 97.6 39.8501 97.872C40.2261 98.144 40.6581 98.28 41.1461 98.28Z" fill="#555555"/>
<path d="M34.9934 64.2C35.8734 64.248 36.5414 64.488 36.9974 64.92C37.4614 65.344 37.6934 65.9 37.6934 66.588C37.6934 67.068 37.5774 67.496 37.3454 67.872C37.1134 68.24 36.7694 68.532 36.3134 68.748C35.8574 68.964 35.3014 69.072 34.6454 69.072C34.0374 69.072 33.4614 68.976 32.9174 68.784C32.3814 68.584 31.9494 68.32 31.6214 67.992L32.0414 67.308C32.3214 67.596 32.6934 67.832 33.1574 68.016C33.6214 68.192 34.1174 68.28 34.6454 68.28C35.3334 68.28 35.8654 68.132 36.2414 67.836C36.6174 67.532 36.8054 67.116 36.8054 66.588C36.8054 66.068 36.6174 65.66 36.2414 65.364C35.8654 65.068 35.2974 64.92 34.5374 64.92H33.9374V64.284L36.2654 61.368H31.9694V60.6H37.3694V61.212L34.9934 64.2ZM40.5217 64.044C41.7377 64.044 42.6217 64.264 43.1737 64.704C43.7337 65.136 44.0137 65.744 44.0137 66.528C44.0137 67.016 43.8977 67.452 43.6657 67.836C43.4417 68.22 43.1017 68.524 42.6457 68.748C42.1897 68.964 41.6297 69.072 40.9657 69.072C40.3657 69.072 39.7937 68.976 39.2497 68.784C38.7137 68.584 38.2817 68.32 37.9537 67.992L38.3737 67.308C38.6537 67.596 39.0217 67.832 39.4777 68.016C39.9337 68.192 40.4257 68.28 40.9537 68.28C41.6497 68.28 42.1857 68.124 42.5617 67.812C42.9457 67.5 43.1377 67.084 43.1377 66.564C43.1377 65.988 42.9217 65.552 42.4897 65.256C42.0657 64.96 41.3457 64.812 40.3297 64.812H38.5417L38.9737 60.6H43.5697V61.368H39.7297L39.4417 64.044H40.5217Z" fill="#555555"/>
<path d="M38.0645 36.792H36.3845V39H35.5205V36.792H30.7805V36.168L35.2325 30.6H36.1925L31.8965 36.024H35.5445V34.08H36.3845V36.024H38.0645V36.792ZM41.7261 39.072C41.0781 39.072 40.4981 38.9 39.9861 38.556C39.4821 38.212 39.0861 37.72 38.7981 37.08C38.5181 36.432 38.3781 35.672 38.3781 34.8C38.3781 33.928 38.5181 33.172 38.7981 32.532C39.0861 31.884 39.4821 31.388 39.9861 31.044C40.4981 30.7 41.0781 30.528 41.7261 30.528C42.3741 30.528 42.9501 30.7 43.4541 31.044C43.9661 31.388 44.3661 31.884 44.6541 32.532C44.9421 33.172 45.0861 33.928 45.0861 34.8C45.0861 35.672 44.9421 36.432 44.6541 37.08C44.3661 37.72 43.9661 38.212 43.4541 38.556C42.9501 38.9 42.3741 39.072 41.7261 39.072ZM41.7261 38.28C42.2141 38.28 42.6421 38.144 43.0101 37.872C43.3861 37.6 43.6781 37.204 43.8861 36.684C44.0941 36.164 44.1981 35.536 44.1981 34.8C44.1981 34.064 44.0941 33.436 43.8861 32.916C43.6781 32.396 43.3861 32 43.0101 31.728C42.6421 31.456 42.2141 31.32 41.7261 31.32C41.2381 31.32 40.8061 31.456 40.4301 31.728C40.0621 32 39.7741 32.396 39.5661 32.916C39.3581 33.436 39.2541 34.064 39.2541 34.8C39.2541 35.536 39.3581 36.164 39.5661 36.684C39.7741 37.204 40.0621 37.6 40.4301 37.872C40.8061 38.144 41.2381 38.28 41.7261 38.28Z" fill="#555555"/>
<path d="M38.6622 6.792H36.9822V9H36.1182V6.792H31.3782V6.168L35.8302 0.599999H36.7902L32.4942 6.024H36.1422V4.08H36.9822V6.024H38.6622V6.792ZM41.1369 4.044C42.3529 4.044 43.2369 4.264 43.7889 4.704C44.3489 5.136 44.6289 5.744 44.6289 6.528C44.6289 7.016 44.5129 7.452 44.2809 7.836C44.0569 8.22 43.7169 8.524 43.2609 8.748C42.8049 8.964 42.2449 9.072 41.5809 9.072C40.9809 9.072 40.4089 8.976 39.8649 8.784C39.3289 8.584 38.8969 8.32 38.5689 7.992L38.9889 7.308C39.2689 7.596 39.6369 7.832 40.0929 8.016C40.5489 8.192 41.0409 8.28 41.5689 8.28C42.2649 8.28 42.8009 8.124 43.1769 7.812C43.5609 7.5 43.7529 7.084 43.7529 6.564C43.7529 5.988 43.5369 5.552 43.1049 5.256C42.6809 4.96 41.9609 4.812 40.9449 4.812H39.1569L39.5889 0.599999H44.1849V1.368H40.3449L40.0569 4.044H41.1369Z" fill="#555555"/>
<path d="M96.4796 93.0001C95.9274 93.0116 95.4891 93.4686 95.5006 94.0208C95.5121 94.5729 95.9691 95.0112 96.5213 94.9997L96.4796 93.0001ZM168.5 92.4999L168.521 91.5001L168.5 91.4997L168.48 91.5001L168.5 92.4999ZM240.5 93.9999L240.48 94.9998L240.493 94.9999L240.5 93.9999ZM312.5 94.4999L312.514 93.5L312.507 93.4999L312.5 94.4999ZM384.5 95.4999L384.514 94.5L384.5 95.4999ZM456.5 96.4999L456.487 97.4998L456.507 97.5001L456.528 97.4995L456.5 96.4999ZM528.5 94.4999L528.528 95.4995C528.603 95.4975 528.677 95.487 528.749 95.4685L528.5 94.4999ZM600.749 76.9685C601.284 76.8311 601.606 76.2861 601.469 75.7511C601.331 75.2162 600.786 74.894 600.252 75.0315L600.749 76.9685ZM96.5213 94.9997L168.521 93.4997L168.48 91.5001L96.4796 93.0001L96.5213 94.9997ZM168.48 93.4997L240.48 94.9997L240.521 93.0001L168.521 91.5001L168.48 93.4997ZM240.493 94.9999L312.493 95.4999L312.507 93.4999L240.507 92.9999L240.493 94.9999ZM312.487 95.4998L384.487 96.4998L384.514 94.5L312.514 93.5L312.487 95.4998ZM384.487 96.4998L456.487 97.4998L456.514 95.5L384.514 94.5L384.487 96.4998ZM456.528 97.4995L528.528 95.4995L528.473 93.5003L456.473 95.5003L456.528 97.4995ZM528.749 95.4685L600.749 76.9685L600.252 75.0315L528.252 93.5314L528.749 95.4685Z" fill="#01348D"/>
<circle cx="96.5" cy="93.5" r="2.5" fill="#555555"/>
<circle cx="168.5" cy="92.5" r="2.5" fill="#555555"/>
<circle cx="240.5" cy="93.5" r="2.5" fill="#555555"/>
<circle cx="312.5" cy="94.5" r="2.5" fill="#555555"/>
<circle cx="384.5" cy="95.5" r="2.5" fill="#555555"/>
<circle cx="456.5" cy="96.5" r="2.5" fill="#555555"/>
<circle cx="528.5" cy="94.5" r="2.5" fill="#555555"/>
<circle cx="600.5" cy="75.5" r="2.5" fill="#555555"/>
<path d="M92.3606 101.2C93.2406 101.248 93.9086 101.488 94.3646 101.92C94.8286 102.344 95.0606 102.9 95.0606 103.588C95.0606 104.068 94.9446 104.496 94.7126 104.872C94.4806 105.24 94.1366 105.532 93.6806 105.748C93.2246 105.964 92.6686 106.072 92.0126 106.072C91.4046 106.072 90.8286 105.976 90.2846 105.784C89.7486 105.584 89.3166 105.32 88.9886 104.992L89.4086 104.308C89.6886 104.596 90.0606 104.832 90.5246 105.016C90.9886 105.192 91.4846 105.28 92.0126 105.28C92.7006 105.28 93.2326 105.132 93.6086 104.836C93.9846 104.532 94.1726 104.116 94.1726 103.588C94.1726 103.068 93.9846 102.66 93.6086 102.364C93.2326 102.068 92.6646 101.92 91.9046 101.92H91.3046V101.284L93.6326 98.368H89.3366V97.6H94.7366V98.212L92.3606 101.2ZM99.1461 106.072C98.4981 106.072 97.9181 105.9 97.4061 105.556C96.9021 105.212 96.5061 104.72 96.2181 104.08C95.9381 103.432 95.7981 102.672 95.7981 101.8C95.7981 100.928 95.9381 100.172 96.2181 99.532C96.5061 98.884 96.9021 98.388 97.4061 98.044C97.9181 97.7 98.4981 97.528 99.1461 97.528C99.7941 97.528 100.37 97.7 100.874 98.044C101.386 98.388 101.786 98.884 102.074 99.532C102.362 100.172 102.506 100.928 102.506 101.8C102.506 102.672 102.362 103.432 102.074 104.08C101.786 104.72 101.386 105.212 100.874 105.556C100.37 105.9 99.7941 106.072 99.1461 106.072ZM99.1461 105.28C99.6341 105.28 100.062 105.144 100.43 104.872C100.806 104.6 101.098 104.204 101.306 103.684C101.514 103.164 101.618 102.536 101.618 101.8C101.618 101.064 101.514 100.436 101.306 99.916C101.098 99.396 100.806 99 100.43 98.728C100.062 98.456 99.6341 98.32 99.1461 98.32C98.6581 98.32 98.2261 98.456 97.8501 98.728C97.4821 99 97.1941 99.396 96.9861 99.916C96.7781 100.436 96.6741 101.064 96.6741 101.8C96.6741 102.536 96.7781 103.164 96.9861 103.684C97.1941 104.204 97.4821 104.6 97.8501 104.872C98.2261 105.144 98.6581 105.28 99.1461 105.28Z" fill="#555555"/>
<path d="M160.165 100.2C161.045 100.248 161.713 100.488 162.169 100.92C162.633 101.344 162.865 101.9 162.865 102.588C162.865 103.068 162.749 103.496 162.517 103.872C162.285 104.24 161.941 104.532 161.485 104.748C161.029 104.964 160.473 105.072 159.817 105.072C159.209 105.072 158.633 104.976 158.089 104.784C157.553 104.584 157.121 104.32 156.793 103.992L157.213 103.308C157.493 103.596 157.865 103.832 158.329 104.016C158.793 104.192 159.289 104.28 159.817 104.28C160.505 104.28 161.037 104.132 161.413 103.836C161.789 103.532 161.977 103.116 161.977 102.588C161.977 102.068 161.789 101.66 161.413 101.364C161.037 101.068 160.469 100.92 159.709 100.92H159.109V100.284L161.437 97.368H157.141V96.6H162.541V97.212L160.165 100.2ZM166.95 105.072C166.302 105.072 165.722 104.9 165.21 104.556C164.706 104.212 164.31 103.72 164.022 103.08C163.742 102.432 163.602 101.672 163.602 100.8C163.602 99.928 163.742 99.172 164.022 98.532C164.31 97.884 164.706 97.388 165.21 97.044C165.722 96.7 166.302 96.528 166.95 96.528C167.598 96.528 168.174 96.7 168.678 97.044C169.19 97.388 169.59 97.884 169.878 98.532C170.166 99.172 170.31 99.928 170.31 100.8C170.31 101.672 170.166 102.432 169.878 103.08C169.59 103.72 169.19 104.212 168.678 104.556C168.174 104.9 167.598 105.072 166.95 105.072ZM166.95 104.28C167.438 104.28 167.866 104.144 168.234 103.872C168.61 103.6 168.902 103.204 169.11 102.684C169.318 102.164 169.422 101.536 169.422 100.8C169.422 100.064 169.318 99.436 169.11 98.916C168.902 98.396 168.61 98 168.234 97.728C167.866 97.456 167.438 97.32 166.95 97.32C166.462 97.32 166.03 97.456 165.654 97.728C165.286 98 164.998 98.396 164.79 98.916C164.582 99.436 164.478 100.064 164.478 100.8C164.478 101.536 164.582 102.164 164.79 102.684C164.998 103.204 165.286 103.6 165.654 103.872C166.03 104.144 166.462 104.28 166.95 104.28ZM171.599 103.752C171.783 103.752 171.935 103.816 172.055 103.944C172.175 104.064 172.235 104.216 172.235 104.4C172.235 104.496 172.219 104.6 172.187 104.712C172.163 104.824 172.123 104.952 172.067 105.096L171.563 106.752H170.987L171.395 105.012C171.267 104.972 171.163 104.9 171.083 104.796C171.003 104.684 170.963 104.552 170.963 104.4C170.963 104.216 171.023 104.064 171.143 103.944C171.263 103.816 171.415 103.752 171.599 103.752ZM178.855 104.232V105H172.963V104.388L176.455 100.968C176.895 100.536 177.191 100.164 177.343 99.852C177.503 99.532 177.583 99.212 177.583 98.892C177.583 98.396 177.411 98.012 177.067 97.74C176.731 97.46 176.247 97.32 175.615 97.32C174.631 97.32 173.867 97.632 173.323 98.256L172.711 97.728C173.039 97.344 173.455 97.048 173.959 96.84C174.471 96.632 175.047 96.528 175.687 96.528C176.543 96.528 177.219 96.732 177.715 97.14C178.219 97.54 178.471 98.092 178.471 98.796C178.471 99.228 178.375 99.644 178.183 100.044C177.991 100.444 177.627 100.904 177.091 101.424L174.235 104.232H178.855Z" fill="#555555"/>
<path d="M236.361 101.2C237.241 101.248 237.909 101.488 238.365 101.92C238.829 102.344 239.061 102.9 239.061 103.588C239.061 104.068 238.945 104.496 238.713 104.872C238.481 105.24 238.137 105.532 237.681 105.748C237.225 105.964 236.669 106.072 236.013 106.072C235.405 106.072 234.829 105.976 234.285 105.784C233.749 105.584 233.317 105.32 232.989 104.992L233.409 104.308C233.689 104.596 234.061 104.832 234.525 105.016C234.989 105.192 235.485 105.28 236.013 105.28C236.701 105.28 237.233 105.132 237.609 104.836C237.985 104.532 238.173 104.116 238.173 103.588C238.173 103.068 237.985 102.66 237.609 102.364C237.233 102.068 236.665 101.92 235.905 101.92H235.305V101.284L237.633 98.368H233.337V97.6H238.737V98.212L236.361 101.2ZM243.146 106.072C242.498 106.072 241.918 105.9 241.406 105.556C240.902 105.212 240.506 104.72 240.218 104.08C239.938 103.432 239.798 102.672 239.798 101.8C239.798 100.928 239.938 100.172 240.218 99.532C240.506 98.884 240.902 98.388 241.406 98.044C241.918 97.7 242.498 97.528 243.146 97.528C243.794 97.528 244.37 97.7 244.874 98.044C245.386 98.388 245.786 98.884 246.074 99.532C246.362 100.172 246.506 100.928 246.506 101.8C246.506 102.672 246.362 103.432 246.074 104.08C245.786 104.72 245.386 105.212 244.874 105.556C244.37 105.9 243.794 106.072 243.146 106.072ZM243.146 105.28C243.634 105.28 244.062 105.144 244.43 104.872C244.806 104.6 245.098 104.204 245.306 103.684C245.514 103.164 245.618 102.536 245.618 101.8C245.618 101.064 245.514 100.436 245.306 99.916C245.098 99.396 244.806 99 244.43 98.728C244.062 98.456 243.634 98.32 243.146 98.32C242.658 98.32 242.226 98.456 241.85 98.728C241.482 99 241.194 99.396 240.986 99.916C240.778 100.436 240.674 101.064 240.674 101.8C240.674 102.536 240.778 103.164 240.986 103.684C241.194 104.204 241.482 104.6 241.85 104.872C242.226 105.144 242.658 105.28 243.146 105.28Z" fill="#555555"/>
<path d="M307.15 106.232V107H301.258V106.388L304.75 102.968C305.19 102.536 305.486 102.164 305.638 101.852C305.798 101.532 305.878 101.212 305.878 100.892C305.878 100.396 305.706 100.012 305.362 99.74C305.026 99.46 304.542 99.32 303.91 99.32C302.926 99.32 302.162 99.632 301.618 100.256L301.006 99.728C301.334 99.344 301.75 99.048 302.254 98.84C302.766 98.632 303.342 98.528 303.982 98.528C304.838 98.528 305.514 98.732 306.01 99.14C306.514 99.54 306.766 100.092 306.766 100.796C306.766 101.228 306.67 101.644 306.478 102.044C306.286 102.444 305.922 102.904 305.386 103.424L302.53 106.232H307.15ZM310.371 98.528C311.483 98.528 312.335 98.896 312.927 99.632C313.519 100.36 313.815 101.392 313.815 102.728C313.815 103.664 313.655 104.456 313.335 105.104C313.015 105.752 312.567 106.244 311.991 106.58C311.415 106.908 310.743 107.072 309.975 107.072C309.143 107.072 308.479 106.92 307.983 106.616L308.331 105.92C308.731 106.184 309.275 106.316 309.963 106.316C310.891 106.316 311.619 106.024 312.147 105.44C312.675 104.848 312.939 103.992 312.939 102.872C312.939 102.664 312.927 102.436 312.903 102.188C312.695 102.644 312.363 103 311.907 103.256C311.451 103.504 310.927 103.628 310.335 103.628C309.783 103.628 309.291 103.524 308.859 103.316C308.435 103.108 308.103 102.816 307.863 102.44C307.623 102.056 307.503 101.612 307.503 101.108C307.503 100.596 307.627 100.144 307.875 99.752C308.123 99.36 308.463 99.06 308.895 98.852C309.335 98.636 309.827 98.528 310.371 98.528ZM310.467 102.896C310.891 102.896 311.263 102.816 311.583 102.656C311.911 102.496 312.167 102.276 312.351 101.996C312.535 101.716 312.627 101.404 312.627 101.06C312.627 100.74 312.539 100.444 312.363 100.172C312.195 99.9 311.943 99.68 311.607 99.512C311.271 99.344 310.871 99.26 310.407 99.26C309.799 99.26 309.303 99.428 308.919 99.764C308.543 100.092 308.355 100.532 308.355 101.084C308.355 101.636 308.543 102.076 308.919 102.404C309.303 102.732 309.819 102.896 310.467 102.896ZM315.118 105.752C315.302 105.752 315.454 105.816 315.574 105.944C315.694 106.064 315.754 106.216 315.754 106.4C315.754 106.496 315.738 106.6 315.706 106.712C315.682 106.824 315.642 106.952 315.586 107.096L315.082 108.752H314.506L314.914 107.012C314.786 106.972 314.682 106.9 314.602 106.796C314.522 106.684 314.482 106.552 314.482 106.4C314.482 106.216 314.542 106.064 314.662 105.944C314.782 105.816 314.934 105.752 315.118 105.752ZM319.137 98.528C320.249 98.528 321.101 98.896 321.693 99.632C322.285 100.36 322.581 101.392 322.581 102.728C322.581 103.664 322.421 104.456 322.101 105.104C321.781 105.752 321.333 106.244 320.757 106.58C320.181 106.908 319.509 107.072 318.741 107.072C317.909 107.072 317.245 106.92 316.749 106.616L317.097 105.92C317.497 106.184 318.041 106.316 318.729 106.316C319.657 106.316 320.385 106.024 320.913 105.44C321.441 104.848 321.705 103.992 321.705 102.872C321.705 102.664 321.693 102.436 321.669 102.188C321.461 102.644 321.129 103 320.673 103.256C320.217 103.504 319.693 103.628 319.101 103.628C318.549 103.628 318.057 103.524 317.625 103.316C317.201 103.108 316.869 102.816 316.629 102.44C316.389 102.056 316.269 101.612 316.269 101.108C316.269 100.596 316.393 100.144 316.641 99.752C316.889 99.36 317.229 99.06 317.661 98.852C318.101 98.636 318.593 98.528 319.137 98.528ZM319.233 102.896C319.657 102.896 320.029 102.816 320.349 102.656C320.677 102.496 320.933 102.276 321.117 101.996C321.301 101.716 321.393 101.404 321.393 101.06C321.393 100.74 321.305 100.444 321.129 100.172C320.961 99.9 320.709 99.68 320.373 99.512C320.037 99.344 319.637 99.26 319.173 99.26C318.565 99.26 318.069 99.428 317.685 99.764C317.309 100.092 317.121 100.532 317.121 101.084C317.121 101.636 317.309 102.076 317.685 102.404C318.069 102.732 318.585 102.896 319.233 102.896Z" fill="#555555"/>
<path d="M378.922 107.232V108H373.03V107.388L376.522 103.968C376.962 103.536 377.258 103.164 377.41 102.852C377.57 102.532 377.65 102.212 377.65 101.892C377.65 101.396 377.478 101.012 377.134 100.74C376.798 100.46 376.314 100.32 375.682 100.32C374.698 100.32 373.934 100.632 373.39 101.256L372.778 100.728C373.106 100.344 373.522 100.048 374.026 99.84C374.538 99.632 375.114 99.528 375.754 99.528C376.61 99.528 377.286 99.732 377.782 100.14C378.286 100.54 378.538 101.092 378.538 101.796C378.538 102.228 378.442 102.644 378.25 103.044C378.058 103.444 377.694 103.904 377.158 104.424L374.302 107.232H378.922ZM382.142 99.528C383.254 99.528 384.106 99.896 384.698 100.632C385.29 101.36 385.586 102.392 385.586 103.728C385.586 104.664 385.426 105.456 385.106 106.104C384.786 106.752 384.338 107.244 383.762 107.58C383.186 107.908 382.514 108.072 381.746 108.072C380.914 108.072 380.25 107.92 379.754 107.616L380.102 106.92C380.502 107.184 381.046 107.316 381.734 107.316C382.662 107.316 383.39 107.024 383.918 106.44C384.446 105.848 384.71 104.992 384.71 103.872C384.71 103.664 384.698 103.436 384.674 103.188C384.466 103.644 384.134 104 383.678 104.256C383.222 104.504 382.698 104.628 382.106 104.628C381.554 104.628 381.062 104.524 380.63 104.316C380.206 104.108 379.874 103.816 379.634 103.44C379.394 103.056 379.274 102.612 379.274 102.108C379.274 101.596 379.398 101.144 379.646 100.752C379.894 100.36 380.234 100.06 380.666 99.852C381.106 99.636 381.598 99.528 382.142 99.528ZM382.238 103.896C382.662 103.896 383.034 103.816 383.354 103.656C383.682 103.496 383.938 103.276 384.122 102.996C384.306 102.716 384.398 102.404 384.398 102.06C384.398 101.74 384.31 101.444 384.134 101.172C383.966 100.9 383.714 100.68 383.378 100.512C383.042 100.344 382.642 100.26 382.178 100.26C381.57 100.26 381.074 100.428 380.69 100.764C380.314 101.092 380.126 101.532 380.126 102.084C380.126 102.636 380.314 103.076 380.69 103.404C381.074 103.732 381.59 103.896 382.238 103.896ZM386.89 106.752C387.074 106.752 387.226 106.816 387.346 106.944C387.466 107.064 387.526 107.216 387.526 107.4C387.526 107.496 387.51 107.6 387.478 107.712C387.454 107.824 387.414 107.952 387.358 108.096L386.854 109.752H386.278L386.686 108.012C386.558 107.972 386.454 107.9 386.374 107.796C386.294 107.684 386.254 107.552 386.254 107.4C386.254 107.216 386.314 107.064 386.434 106.944C386.554 106.816 386.706 106.752 386.89 106.752ZM393.222 103.596C393.75 103.772 394.154 104.036 394.434 104.388C394.722 104.74 394.866 105.164 394.866 105.66C394.866 106.148 394.734 106.576 394.47 106.944C394.206 107.304 393.826 107.584 393.33 107.784C392.842 107.976 392.266 108.072 391.602 108.072C390.594 108.072 389.802 107.856 389.226 107.424C388.65 106.992 388.362 106.404 388.362 105.66C388.362 105.156 388.498 104.732 388.77 104.388C389.05 104.036 389.454 103.772 389.982 103.596C389.55 103.428 389.222 103.188 388.998 102.876C388.774 102.556 388.662 102.18 388.662 101.748C388.662 101.068 388.926 100.528 389.454 100.128C389.99 99.728 390.706 99.528 391.602 99.528C392.194 99.528 392.71 99.62 393.15 99.804C393.598 99.98 393.946 100.236 394.194 100.572C394.442 100.908 394.566 101.3 394.566 101.748C394.566 102.18 394.45 102.556 394.218 102.876C393.986 103.188 393.654 103.428 393.222 103.596ZM389.526 101.772C389.526 102.236 389.71 102.604 390.078 102.876C390.446 103.148 390.954 103.284 391.602 103.284C392.25 103.284 392.758 103.148 393.126 102.876C393.502 102.604 393.69 102.24 393.69 101.784C393.69 101.312 393.498 100.94 393.114 100.668C392.738 100.396 392.234 100.26 391.602 100.26C390.962 100.26 390.454 100.396 390.078 100.668C389.71 100.94 389.526 101.308 389.526 101.772ZM391.602 107.34C392.346 107.34 392.926 107.188 393.342 106.884C393.766 106.58 393.978 106.168 393.978 105.648C393.978 105.128 393.766 104.72 393.342 104.424C392.926 104.12 392.346 103.968 391.602 103.968C390.866 103.968 390.286 104.12 389.862 104.424C389.446 104.72 389.238 105.128 389.238 105.648C389.238 106.176 389.446 106.592 389.862 106.896C390.278 107.192 390.858 107.34 391.602 107.34Z" fill="#555555"/>
<path d="M451.215 108.232V109H445.323V108.388L448.815 104.968C449.255 104.536 449.551 104.164 449.703 103.852C449.863 103.532 449.943 103.212 449.943 102.892C449.943 102.396 449.771 102.012 449.427 101.74C449.091 101.46 448.607 101.32 447.975 101.32C446.991 101.32 446.227 101.632 445.683 102.256L445.071 101.728C445.399 101.344 445.815 101.048 446.319 100.84C446.831 100.632 447.407 100.528 448.047 100.528C448.903 100.528 449.579 100.732 450.075 101.14C450.579 101.54 450.831 102.092 450.831 102.796C450.831 103.228 450.735 103.644 450.543 104.044C450.351 104.444 449.987 104.904 449.451 105.424L446.595 108.232H451.215ZM454.435 100.528C455.547 100.528 456.399 100.896 456.991 101.632C457.583 102.36 457.879 103.392 457.879 104.728C457.879 105.664 457.719 106.456 457.399 107.104C457.079 107.752 456.631 108.244 456.055 108.58C455.479 108.908 454.807 109.072 454.039 109.072C453.207 109.072 452.543 108.92 452.047 108.616L452.395 107.92C452.795 108.184 453.339 108.316 454.027 108.316C454.955 108.316 455.683 108.024 456.211 107.44C456.739 106.848 457.003 105.992 457.003 104.872C457.003 104.664 456.991 104.436 456.967 104.188C456.759 104.644 456.427 105 455.971 105.256C455.515 105.504 454.991 105.628 454.399 105.628C453.847 105.628 453.355 105.524 452.923 105.316C452.499 105.108 452.167 104.816 451.927 104.44C451.687 104.056 451.567 103.612 451.567 103.108C451.567 102.596 451.691 102.144 451.939 101.752C452.187 101.36 452.527 101.06 452.959 100.852C453.399 100.636 453.891 100.528 454.435 100.528ZM454.531 104.896C454.955 104.896 455.327 104.816 455.647 104.656C455.975 104.496 456.231 104.276 456.415 103.996C456.599 103.716 456.691 103.404 456.691 103.06C456.691 102.74 456.603 102.444 456.427 102.172C456.259 101.9 456.007 101.68 455.671 101.512C455.335 101.344 454.935 101.26 454.471 101.26C453.863 101.26 453.367 101.428 452.983 101.764C452.607 102.092 452.419 102.532 452.419 103.084C452.419 103.636 452.607 104.076 452.983 104.404C453.367 104.732 453.883 104.896 454.531 104.896ZM459.183 107.752C459.367 107.752 459.519 107.816 459.639 107.944C459.759 108.064 459.819 108.216 459.819 108.4C459.819 108.496 459.803 108.6 459.771 108.712C459.747 108.824 459.707 108.952 459.651 109.096L459.147 110.752H458.571L458.979 109.012C458.851 108.972 458.747 108.9 458.667 108.796C458.587 108.684 458.547 108.552 458.547 108.4C458.547 108.216 458.607 108.064 458.727 107.944C458.847 107.816 458.999 107.752 459.183 107.752ZM463.937 103.972C464.489 103.972 464.977 104.076 465.401 104.284C465.833 104.492 466.169 104.788 466.409 105.172C466.649 105.548 466.769 105.988 466.769 106.492C466.769 107.004 466.645 107.456 466.397 107.848C466.149 108.24 465.805 108.544 465.365 108.76C464.933 108.968 464.445 109.072 463.901 109.072C462.789 109.072 461.937 108.708 461.345 107.98C460.753 107.244 460.457 106.208 460.457 104.872C460.457 103.936 460.617 103.144 460.937 102.496C461.257 101.848 461.705 101.36 462.281 101.032C462.857 100.696 463.529 100.528 464.297 100.528C465.129 100.528 465.793 100.68 466.289 100.984L465.941 101.68C465.541 101.416 464.997 101.284 464.309 101.284C463.381 101.284 462.653 101.58 462.125 102.172C461.597 102.756 461.333 103.608 461.333 104.728C461.333 104.928 461.345 105.156 461.369 105.412C461.577 104.956 461.909 104.604 462.365 104.356C462.821 104.1 463.345 103.972 463.937 103.972ZM463.865 108.34C464.473 108.34 464.965 108.176 465.341 107.848C465.725 107.512 465.917 107.068 465.917 106.516C465.917 105.964 465.725 105.524 465.341 105.196C464.965 104.868 464.453 104.704 463.805 104.704C463.381 104.704 463.005 104.784 462.677 104.944C462.357 105.104 462.105 105.324 461.921 105.604C461.737 105.884 461.645 106.196 461.645 106.54C461.645 106.86 461.729 107.156 461.897 107.428C462.073 107.7 462.329 107.92 462.665 108.088C463.001 108.256 463.401 108.34 463.865 108.34Z" fill="#555555"/>
<path d="M523.15 106.232V107H517.258V106.388L520.75 102.968C521.19 102.536 521.486 102.164 521.638 101.852C521.798 101.532 521.878 101.212 521.878 100.892C521.878 100.396 521.706 100.012 521.362 99.74C521.026 99.46 520.542 99.32 519.91 99.32C518.926 99.32 518.162 99.632 517.618 100.256L517.006 99.728C517.334 99.344 517.75 99.048 518.254 98.84C518.766 98.632 519.342 98.528 519.982 98.528C520.838 98.528 521.514 98.732 522.01 99.14C522.514 99.54 522.766 100.092 522.766 100.796C522.766 101.228 522.67 101.644 522.478 102.044C522.286 102.444 521.922 102.904 521.386 103.424L518.53 106.232H523.15ZM526.371 98.528C527.483 98.528 528.335 98.896 528.927 99.632C529.519 100.36 529.815 101.392 529.815 102.728C529.815 103.664 529.655 104.456 529.335 105.104C529.015 105.752 528.567 106.244 527.991 106.58C527.415 106.908 526.743 107.072 525.975 107.072C525.143 107.072 524.479 106.92 523.983 106.616L524.331 105.92C524.731 106.184 525.275 106.316 525.963 106.316C526.891 106.316 527.619 106.024 528.147 105.44C528.675 104.848 528.939 103.992 528.939 102.872C528.939 102.664 528.927 102.436 528.903 102.188C528.695 102.644 528.363 103 527.907 103.256C527.451 103.504 526.927 103.628 526.335 103.628C525.783 103.628 525.291 103.524 524.859 103.316C524.435 103.108 524.103 102.816 523.863 102.44C523.623 102.056 523.503 101.612 523.503 101.108C523.503 100.596 523.627 100.144 523.875 99.752C524.123 99.36 524.463 99.06 524.895 98.852C525.335 98.636 525.827 98.528 526.371 98.528ZM526.467 102.896C526.891 102.896 527.263 102.816 527.583 102.656C527.911 102.496 528.167 102.276 528.351 101.996C528.535 101.716 528.627 101.404 528.627 101.06C528.627 100.74 528.539 100.444 528.363 100.172C528.195 99.9 527.943 99.68 527.607 99.512C527.271 99.344 526.871 99.26 526.407 99.26C525.799 99.26 525.303 99.428 524.919 99.764C524.543 100.092 524.355 100.532 524.355 101.084C524.355 101.636 524.543 102.076 524.919 102.404C525.303 102.732 525.819 102.896 526.467 102.896ZM531.118 105.752C531.302 105.752 531.454 105.816 531.574 105.944C531.694 106.064 531.754 106.216 531.754 106.4C531.754 106.496 531.738 106.6 531.706 106.712C531.682 106.824 531.642 106.952 531.586 107.096L531.082 108.752H530.506L530.914 107.012C530.786 106.972 530.682 106.9 530.602 106.796C530.522 106.684 530.482 106.552 530.482 106.4C530.482 106.216 530.542 106.064 530.662 105.944C530.782 105.816 530.934 105.752 531.118 105.752ZM535.137 98.528C536.249 98.528 537.101 98.896 537.693 99.632C538.285 100.36 538.581 101.392 538.581 102.728C538.581 103.664 538.421 104.456 538.101 105.104C537.781 105.752 537.333 106.244 536.757 106.58C536.181 106.908 535.509 107.072 534.741 107.072C533.909 107.072 533.245 106.92 532.749 106.616L533.097 105.92C533.497 106.184 534.041 106.316 534.729 106.316C535.657 106.316 536.385 106.024 536.913 105.44C537.441 104.848 537.705 103.992 537.705 102.872C537.705 102.664 537.693 102.436 537.669 102.188C537.461 102.644 537.129 103 536.673 103.256C536.217 103.504 535.693 103.628 535.101 103.628C534.549 103.628 534.057 103.524 533.625 103.316C533.201 103.108 532.869 102.816 532.629 102.44C532.389 102.056 532.269 101.612 532.269 101.108C532.269 100.596 532.393 100.144 532.641 99.752C532.889 99.36 533.229 99.06 533.661 98.852C534.101 98.636 534.593 98.528 535.137 98.528ZM535.233 102.896C535.657 102.896 536.029 102.816 536.349 102.656C536.677 102.496 536.933 102.276 537.117 101.996C537.301 101.716 537.393 101.404 537.393 101.06C537.393 100.74 537.305 100.444 537.129 100.172C536.961 99.9 536.709 99.68 536.373 99.512C536.037 99.344 535.637 99.26 535.173 99.26C534.565 99.26 534.069 99.428 533.685 99.764C533.309 100.092 533.121 100.532 533.121 101.084C533.121 101.636 533.309 102.076 533.685 102.404C534.069 102.732 534.585 102.896 535.233 102.896Z" fill="#555555"/>
<path d="M596.976 83.2C597.856 83.248 598.524 83.488 598.98 83.92C599.444 84.344 599.676 84.9 599.676 85.588C599.676 86.068 599.56 86.496 599.328 86.872C599.096 87.24 598.752 87.532 598.296 87.748C597.84 87.964 597.284 88.072 596.628 88.072C596.02 88.072 595.444 87.976 594.9 87.784C594.364 87.584 593.932 87.32 593.604 86.992L594.024 86.308C594.304 86.596 594.676 86.832 595.14 87.016C595.604 87.192 596.1 87.28 596.628 87.28C597.316 87.28 597.848 87.132 598.224 86.836C598.6 86.532 598.788 86.116 598.788 85.588C598.788 85.068 598.6 84.66 598.224 84.364C597.848 84.068 597.28 83.92 596.52 83.92H595.92V83.284L598.248 80.368H593.952V79.6H599.352V80.212L596.976 83.2ZM603.211 83.2C604.091 83.248 604.759 83.488 605.215 83.92C605.679 84.344 605.911 84.9 605.911 85.588C605.911 86.068 605.795 86.496 605.563 86.872C605.331 87.24 604.987 87.532 604.531 87.748C604.075 87.964 603.519 88.072 602.863 88.072C602.255 88.072 601.679 87.976 601.135 87.784C600.599 87.584 600.167 87.32 599.839 86.992L600.259 86.308C600.539 86.596 600.911 86.832 601.375 87.016C601.839 87.192 602.335 87.28 602.863 87.28C603.551 87.28 604.083 87.132 604.459 86.836C604.835 86.532 605.023 86.116 605.023 85.588C605.023 85.068 604.835 84.66 604.459 84.364C604.083 84.068 603.515 83.92 602.755 83.92H602.155V83.284L604.483 80.368H600.187V79.6H605.587V80.212L603.211 83.2Z" fill="#555555"/>
<path d="M96.4167 75.0035C95.8663 75.0493 95.4574 75.5327 95.5032 76.0831C95.5491 76.6334 96.0324 77.0424 96.5828 76.9966L96.4167 75.0035ZM168.5 70L168.5 69L168.458 69L168.417 69.0035L168.5 70ZM240.5 70L240.583 69.0035L240.541 69L240.5 69L240.5 70ZM312.5 76L312.417 76.9966L312.458 77L312.5 77L312.5 76ZM384.5 76L384.555 75.0016L384.527 75L384.5 75L384.5 76ZM456.5 80L456.444 80.9985L456.625 81.0085L456.798 80.9545L456.5 80ZM528.5 57.5001L528.671 56.5148C528.514 56.4876 528.353 56.4982 528.201 56.5456L528.5 57.5001ZM600.329 70.9853C600.873 71.0798 601.391 70.7152 601.485 70.1711C601.58 69.627 601.215 69.1093 600.671 69.0148L600.329 70.9853ZM96.5828 76.9966L168.583 70.9966L168.417 69.0035L96.4167 75.0035L96.5828 76.9966ZM168.5 71L240.5 71L240.5 69L168.5 69L168.5 71ZM240.417 70.9966L312.417 76.9966L312.583 75.0035L240.583 69.0035L240.417 70.9966ZM312.5 77L384.5 77L384.5 75L312.5 75L312.5 77ZM384.444 76.9985L456.444 80.9985L456.555 79.0016L384.555 75.0016L384.444 76.9985ZM456.798 80.9545L528.798 58.4546L528.201 56.5456L456.201 79.0455L456.798 80.9545ZM528.329 58.4853L600.329 70.9853L600.671 69.0148L528.671 56.5148L528.329 58.4853Z" fill="#F2A428"/>
<circle cx="96.5" cy="75.5" r="2.5" fill="#555555"/>
<circle cx="168.5" cy="69.5" r="2.5" fill="#555555"/>
<circle cx="240.5" cy="69.5" r="2.5" fill="#555555"/>
<circle cx="312.5" cy="75.5" r="2.5" fill="#555555"/>
<circle cx="384.5" cy="75.5" r="2.5" fill="#555555"/>
<circle cx="456.5" cy="79.5" r="2.5" fill="#555555"/>
<circle cx="528.5" cy="57.5" r="2.5" fill="#555555"/>
<circle cx="600.5" cy="69.5" r="2.5" fill="#555555"/>
<path d="M92.9759 67.2C93.8559 67.248 94.5239 67.488 94.9799 67.92C95.4439 68.344 95.6759 68.9 95.6759 69.588C95.6759 70.068 95.5599 70.496 95.3279 70.872C95.0959 71.24 94.7519 71.532 94.2959 71.748C93.8399 71.964 93.2839 72.072 92.6279 72.072C92.0199 72.072 91.4439 71.976 90.8999 71.784C90.3639 71.584 89.9319 71.32 89.6039 70.992L90.0239 70.308C90.3039 70.596 90.6759 70.832 91.1399 71.016C91.6039 71.192 92.0999 71.28 92.6279 71.28C93.3159 71.28 93.8479 71.132 94.2239 70.836C94.5999 70.532 94.7879 70.116 94.7879 69.588C94.7879 69.068 94.5999 68.66 94.2239 68.364C93.8479 68.068 93.2799 67.92 92.5199 67.92H91.9199V67.284L94.2479 64.368H89.9519V63.6H95.3519V64.212L92.9759 67.2ZM99.2107 67.2C100.091 67.248 100.759 67.488 101.215 67.92C101.679 68.344 101.911 68.9 101.911 69.588C101.911 70.068 101.795 70.496 101.563 70.872C101.331 71.24 100.987 71.532 100.531 71.748C100.075 71.964 99.5187 72.072 98.8627 72.072C98.2547 72.072 97.6787 71.976 97.1347 71.784C96.5987 71.584 96.1667 71.32 95.8387 70.992L96.2587 70.308C96.5387 70.596 96.9107 70.832 97.3747 71.016C97.8387 71.192 98.3347 71.28 98.8627 71.28C99.5507 71.28 100.083 71.132 100.459 70.836C100.835 70.532 101.023 70.116 101.023 69.588C101.023 69.068 100.835 68.66 100.459 68.364C100.083 68.068 99.5147 67.92 98.7547 67.92H98.1547V67.284L100.483 64.368H96.1867V63.6H101.587V64.212L99.2107 67.2Z" fill="#555555"/>
<path d="M164.366 61.2C165.246 61.248 165.914 61.488 166.37 61.92C166.834 62.344 167.066 62.9 167.066 63.588C167.066 64.068 166.95 64.496 166.718 64.872C166.486 65.24 166.142 65.532 165.686 65.748C165.23 65.964 164.674 66.072 164.018 66.072C163.41 66.072 162.834 65.976 162.29 65.784C161.754 65.584 161.322 65.32 160.994 64.992L161.414 64.308C161.694 64.596 162.066 64.832 162.53 65.016C162.994 65.192 163.49 65.28 164.018 65.28C164.706 65.28 165.238 65.132 165.614 64.836C165.99 64.532 166.178 64.116 166.178 63.588C166.178 63.068 165.99 62.66 165.614 62.364C165.238 62.068 164.67 61.92 163.91 61.92H163.31V61.284L165.638 58.368H161.342V57.6H166.742V58.212L164.366 61.2ZM174.944 63.792H173.264V66H172.4V63.792H167.66V63.168L172.112 57.6H173.072L168.776 63.024H172.424V61.08H173.264V63.024H174.944V63.792Z" fill="#555555"/>
<path d="M236.366 61.2C237.246 61.248 237.914 61.488 238.37 61.92C238.834 62.344 239.066 62.9 239.066 63.588C239.066 64.068 238.95 64.496 238.718 64.872C238.486 65.24 238.142 65.532 237.686 65.748C237.23 65.964 236.674 66.072 236.018 66.072C235.41 66.072 234.834 65.976 234.29 65.784C233.754 65.584 233.322 65.32 232.994 64.992L233.414 64.308C233.694 64.596 234.066 64.832 234.53 65.016C234.994 65.192 235.49 65.28 236.018 65.28C236.706 65.28 237.238 65.132 237.614 64.836C237.99 64.532 238.178 64.116 238.178 63.588C238.178 63.068 237.99 62.66 237.614 62.364C237.238 62.068 236.67 61.92 235.91 61.92H235.31V61.284L237.638 58.368H233.342V57.6H238.742V58.212L236.366 61.2ZM246.944 63.792H245.264V66H244.4V63.792H239.66V63.168L244.112 57.6H245.072L240.776 63.024H244.424V61.08H245.264V63.024H246.944V63.792Z" fill="#555555"/>
<path d="M308.976 67.2C309.856 67.248 310.524 67.488 310.98 67.92C311.444 68.344 311.676 68.9 311.676 69.588C311.676 70.068 311.56 70.496 311.328 70.872C311.096 71.24 310.752 71.532 310.296 71.748C309.84 71.964 309.284 72.072 308.628 72.072C308.02 72.072 307.444 71.976 306.9 71.784C306.364 71.584 305.932 71.32 305.604 70.992L306.024 70.308C306.304 70.596 306.676 70.832 307.14 71.016C307.604 71.192 308.1 71.28 308.628 71.28C309.316 71.28 309.848 71.132 310.224 70.836C310.6 70.532 310.788 70.116 310.788 69.588C310.788 69.068 310.6 68.66 310.224 68.364C309.848 68.068 309.28 67.92 308.52 67.92H307.92V67.284L310.248 64.368H305.952V63.6H311.352V64.212L308.976 67.2ZM315.211 67.2C316.091 67.248 316.759 67.488 317.215 67.92C317.679 68.344 317.911 68.9 317.911 69.588C317.911 70.068 317.795 70.496 317.563 70.872C317.331 71.24 316.987 71.532 316.531 71.748C316.075 71.964 315.519 72.072 314.863 72.072C314.255 72.072 313.679 71.976 313.135 71.784C312.599 71.584 312.167 71.32 311.839 70.992L312.259 70.308C312.539 70.596 312.911 70.832 313.375 71.016C313.839 71.192 314.335 71.28 314.863 71.28C315.551 71.28 316.083 71.132 316.459 70.836C316.835 70.532 317.023 70.116 317.023 69.588C317.023 69.068 316.835 68.66 316.459 68.364C316.083 68.068 315.515 67.92 314.755 67.92H314.155V67.284L316.483 64.368H312.187V63.6H317.587V64.212L315.211 67.2Z" fill="#555555"/>
<path d="M380.976 67.2C381.856 67.248 382.524 67.488 382.98 67.92C383.444 68.344 383.676 68.9 383.676 69.588C383.676 70.068 383.56 70.496 383.328 70.872C383.096 71.24 382.752 71.532 382.296 71.748C381.84 71.964 381.284 72.072 380.628 72.072C380.02 72.072 379.444 71.976 378.9 71.784C378.364 71.584 377.932 71.32 377.604 70.992L378.024 70.308C378.304 70.596 378.676 70.832 379.14 71.016C379.604 71.192 380.1 71.28 380.628 71.28C381.316 71.28 381.848 71.132 382.224 70.836C382.6 70.532 382.788 70.116 382.788 69.588C382.788 69.068 382.6 68.66 382.224 68.364C381.848 68.068 381.28 67.92 380.52 67.92H379.92V67.284L382.248 64.368H377.952V63.6H383.352V64.212L380.976 67.2ZM387.211 67.2C388.091 67.248 388.759 67.488 389.215 67.92C389.679 68.344 389.911 68.9 389.911 69.588C389.911 70.068 389.795 70.496 389.563 70.872C389.331 71.24 388.987 71.532 388.531 71.748C388.075 71.964 387.519 72.072 386.863 72.072C386.255 72.072 385.679 71.976 385.135 71.784C384.599 71.584 384.167 71.32 383.839 70.992L384.259 70.308C384.539 70.596 384.911 70.832 385.375 71.016C385.839 71.192 386.335 71.28 386.863 71.28C387.551 71.28 388.083 71.132 388.459 70.836C388.835 70.532 389.023 70.116 389.023 69.588C389.023 69.068 388.835 68.66 388.459 68.364C388.083 68.068 387.515 67.92 386.755 67.92H386.155V67.284L388.483 64.368H384.187V63.6H389.587V64.212L387.211 67.2Z" fill="#555555"/>
<path d="M448.657 71.2C449.537 71.248 450.205 71.488 450.661 71.92C451.125 72.344 451.357 72.9 451.357 73.588C451.357 74.068 451.241 74.496 451.009 74.872C450.777 75.24 450.433 75.532 449.977 75.748C449.521 75.964 448.965 76.072 448.309 76.072C447.701 76.072 447.125 75.976 446.581 75.784C446.045 75.584 445.613 75.32 445.285 74.992L445.705 74.308C445.985 74.596 446.357 74.832 446.821 75.016C447.285 75.192 447.781 75.28 448.309 75.28C448.997 75.28 449.529 75.132 449.905 74.836C450.281 74.532 450.469 74.116 450.469 73.588C450.469 73.068 450.281 72.66 449.905 72.364C449.529 72.068 448.961 71.92 448.201 71.92H447.601V71.284L449.929 68.368H445.633V67.6H451.033V68.212L448.657 71.2ZM457.772 75.232V76H451.88V75.388L455.372 71.968C455.812 71.536 456.108 71.164 456.26 70.852C456.42 70.532 456.5 70.212 456.5 69.892C456.5 69.396 456.328 69.012 455.984 68.74C455.648 68.46 455.164 68.32 454.532 68.32C453.548 68.32 452.784 68.632 452.24 69.256L451.628 68.728C451.956 68.344 452.372 68.048 452.876 67.84C453.388 67.632 453.964 67.528 454.604 67.528C455.46 67.528 456.136 67.732 456.632 68.14C457.136 68.54 457.388 69.092 457.388 69.796C457.388 70.228 457.292 70.644 457.1 71.044C456.908 71.444 456.544 71.904 456.008 72.424L453.152 75.232H457.772ZM459.153 74.752C459.337 74.752 459.489 74.816 459.609 74.944C459.729 75.064 459.789 75.216 459.789 75.4C459.789 75.496 459.773 75.6 459.741 75.712C459.717 75.824 459.677 75.952 459.621 76.096L459.117 77.752H458.541L458.949 76.012C458.821 75.972 458.717 75.9 458.637 75.796C458.557 75.684 458.517 75.552 458.517 75.4C458.517 75.216 458.577 75.064 458.697 74.944C458.817 74.816 458.969 74.752 459.153 74.752ZM463.53 71.2C464.41 71.248 465.078 71.488 465.534 71.92C465.998 72.344 466.23 72.9 466.23 73.588C466.23 74.068 466.114 74.496 465.882 74.872C465.65 75.24 465.306 75.532 464.85 75.748C464.394 75.964 463.838 76.072 463.182 76.072C462.574 76.072 461.998 75.976 461.454 75.784C460.918 75.584 460.486 75.32 460.158 74.992L460.578 74.308C460.858 74.596 461.23 74.832 461.694 75.016C462.158 75.192 462.654 75.28 463.182 75.28C463.87 75.28 464.402 75.132 464.778 74.836C465.154 74.532 465.342 74.116 465.342 73.588C465.342 73.068 465.154 72.66 464.778 72.364C464.402 72.068 463.834 71.92 463.074 71.92H462.474V71.284L464.802 68.368H460.506V67.6H465.906V68.212L463.53 71.2Z" fill="#555555"/>
<path d="M521.729 49.2C522.609 49.248 523.277 49.488 523.733 49.92C524.197 50.344 524.429 50.9 524.429 51.588C524.429 52.068 524.313 52.496 524.081 52.872C523.849 53.24 523.505 53.532 523.049 53.748C522.593 53.964 522.037 54.072 521.381 54.072C520.773 54.072 520.197 53.976 519.653 53.784C519.117 53.584 518.685 53.32 518.357 52.992L518.777 52.308C519.057 52.596 519.429 52.832 519.893 53.016C520.357 53.192 520.853 53.28 521.381 53.28C522.069 53.28 522.601 53.132 522.977 52.836C523.353 52.532 523.541 52.116 523.541 51.588C523.541 51.068 523.353 50.66 522.977 50.364C522.601 50.068 522.033 49.92 521.273 49.92H520.673V49.284L523.001 46.368H518.705V45.6H524.105V46.212L521.729 49.2ZM528.647 48.972C529.199 48.972 529.687 49.076 530.111 49.284C530.543 49.492 530.879 49.788 531.119 50.172C531.359 50.548 531.479 50.988 531.479 51.492C531.479 52.004 531.355 52.456 531.107 52.848C530.859 53.24 530.515 53.544 530.075 53.76C529.643 53.968 529.155 54.072 528.611 54.072C527.499 54.072 526.647 53.708 526.055 52.98C525.463 52.244 525.167 51.208 525.167 49.872C525.167 48.936 525.327 48.144 525.647 47.496C525.967 46.848 526.415 46.36 526.991 46.032C527.567 45.696 528.239 45.528 529.007 45.528C529.839 45.528 530.503 45.68 530.999 45.984L530.651 46.68C530.251 46.416 529.707 46.284 529.019 46.284C528.091 46.284 527.363 46.58 526.835 47.172C526.307 47.756 526.043 48.608 526.043 49.728C526.043 49.928 526.055 50.156 526.079 50.412C526.287 49.956 526.619 49.604 527.075 49.356C527.531 49.1 528.055 48.972 528.647 48.972ZM528.575 53.34C529.183 53.34 529.675 53.176 530.051 52.848C530.435 52.512 530.627 52.068 530.627 51.516C530.627 50.964 530.435 50.524 530.051 50.196C529.675 49.868 529.163 49.704 528.515 49.704C528.091 49.704 527.715 49.784 527.387 49.944C527.067 50.104 526.815 50.324 526.631 50.604C526.447 50.884 526.355 51.196 526.355 51.54C526.355 51.86 526.439 52.156 526.607 52.428C526.783 52.7 527.039 52.92 527.375 53.088C527.711 53.256 528.111 53.34 528.575 53.34ZM532.776 52.752C532.96 52.752 533.112 52.816 533.232 52.944C533.352 53.064 533.412 53.216 533.412 53.4C533.412 53.496 533.396 53.6 533.364 53.712C533.34 53.824 533.3 53.952 533.244 54.096L532.74 55.752H532.164L532.572 54.012C532.444 53.972 532.34 53.9 532.26 53.796C532.18 53.684 532.14 53.552 532.14 53.4C532.14 53.216 532.2 53.064 532.32 52.944C532.44 52.816 532.592 52.752 532.776 52.752ZM536.367 45.6V54H535.503V46.368H533.523V45.6H536.367Z" fill="#555555"/>
<path d="M596.366 61.2C597.246 61.248 597.914 61.488 598.37 61.92C598.834 62.344 599.066 62.9 599.066 63.588C599.066 64.068 598.95 64.496 598.718 64.872C598.486 65.24 598.142 65.532 597.686 65.748C597.23 65.964 596.674 66.072 596.018 66.072C595.41 66.072 594.834 65.976 594.29 65.784C593.754 65.584 593.322 65.32 592.994 64.992L593.414 64.308C593.694 64.596 594.066 64.832 594.53 65.016C594.994 65.192 595.49 65.28 596.018 65.28C596.706 65.28 597.238 65.132 597.614 64.836C597.99 64.532 598.178 64.116 598.178 63.588C598.178 63.068 597.99 62.66 597.614 62.364C597.238 62.068 596.67 61.92 595.91 61.92H595.31V61.284L597.638 58.368H593.342V57.6H598.742V58.212L596.366 61.2ZM606.944 63.792H605.264V66H604.4V63.792H599.66V63.168L604.112 57.6H605.072L600.776 63.024H604.424V61.08H605.264V63.024H606.944V63.792Z" fill="#555555"/>
</svg>
