<svg width="64" height="40" viewBox="0 0 64 40" fill="none" xmlns="http://www.w3.org/2000/svg">
<path d="M63.2013 16.2283L50.4239 21.9072V31.9223C50.4239 34.2082 47.1529 35.036 43.9539 35.5447C40.7889 36.048 36.5437 36.3243 32.0012 36.3243C23.5965 36.3243 13.5781 35.561 13.5781 31.9229V21.9077L9.60221 20.1414V21.4201C10.5483 22.0065 11.1957 23.1852 11.2227 24.6L11.9133 30.2222C11.9599 30.6063 11.8409 30.991 11.5859 31.2805C11.3328 31.5707 10.9666 31.7363 10.5818 31.7363H5.93985C5.55507 31.7363 5.18945 31.5701 4.93571 31.2805C4.68078 30.9904 4.5617 30.6063 4.60838 30.2222L5.29895 24.6C5.32587 23.1852 5.97336 22.0053 6.91944 21.4201V18.9494L0.798862 16.2296C0.313545 16.0141 -1.52588e-05 15.5294 -1.52588e-05 14.9954C-1.52588e-05 14.4615 0.312363 13.9786 0.797668 13.7631L31.458 0.116489C31.8039 -0.0388298 32.1976 -0.0388298 32.5435 0.116489L63.2023 13.7619C63.6876 13.9774 64 14.462 64 14.9942C64 15.5288 63.6864 16.0128 63.2011 16.2283L63.2013 16.2283ZM9.06542 29.038L8.55198 24.8534C8.54539 24.7981 8.5424 24.7427 8.5424 24.6873C8.5424 24.2099 8.37605 23.8824 8.26234 23.7554C8.14864 23.8836 7.98228 24.2111 7.98228 24.6873C7.98228 24.7427 7.97989 24.7981 7.97271 24.8534L7.45927 29.038H9.06542ZM47.635 31.7622C46.8026 30.8008 41.7346 29.2 32 29.2C22.2201 29.2 17.1533 30.8158 16.3604 31.7597C17.565 32.5628 22.9657 33.6253 32 33.6253C41.0212 33.6253 46.4194 32.5671 47.635 31.7622ZM6.92055 15.9991V13.986L4.6568 14.9932L6.92055 15.9991ZM32 2.8227L9.60145 12.791V17.1887L13.5773 18.9551V17.4151C13.5773 12.3015 27.679 11.9036 32.0005 11.9036C36.3222 11.9036 50.4236 12.3015 50.4236 17.4151V18.9551L59.3441 14.9901L32 2.8227Z" fill="#01348D"/>
<path d="M25.1621 27H23.0261V20.304H21.4781V18.588H25.1621V27ZM29.6274 27H27.4914V20.304H25.9434V18.588H29.6274V27ZM31.3327 19.248C31.7567 18.792 32.3287 18.564 33.0487 18.564C33.7687 18.564 34.3367 18.792 34.7527 19.248C35.1767 19.704 35.3887 20.32 35.3887 21.096C35.3887 21.88 35.1767 22.5 34.7527 22.956C34.3367 23.412 33.7687 23.64 33.0487 23.64C32.3287 23.64 31.7567 23.412 31.3327 22.956C30.9087 22.5 30.6967 21.88 30.6967 21.096C30.6967 20.32 30.9087 19.704 31.3327 19.248ZM32.4607 27L38.4607 18.588H40.4047L34.4047 27H32.4607ZM33.7927 20.052C33.6167 19.796 33.3687 19.668 33.0487 19.668C32.7287 19.668 32.4767 19.796 32.2927 20.052C32.1167 20.3 32.0287 20.648 32.0287 21.096C32.0287 21.544 32.1167 21.896 32.2927 22.152C32.4767 22.4 32.7287 22.524 33.0487 22.524C33.3687 22.524 33.6167 22.4 33.7927 22.152C33.9767 21.896 34.0687 21.544 34.0687 21.096C34.0687 20.648 33.9767 20.3 33.7927 20.052ZM38.1727 22.644C38.5967 22.188 39.1687 21.96 39.8887 21.96C40.6087 21.96 41.1767 22.188 41.5927 22.644C42.0167 23.1 42.2287 23.716 42.2287 24.492C42.2287 25.276 42.0167 25.9 41.5927 26.364C41.1767 26.82 40.6087 27.048 39.8887 27.048C39.1687 27.048 38.5967 26.82 38.1727 26.364C37.7487 25.9 37.5367 25.276 37.5367 24.492C37.5367 23.716 37.7487 23.1 38.1727 22.644ZM40.6327 23.448C40.4567 23.192 40.2087 23.064 39.8887 23.064C39.5687 23.064 39.3167 23.192 39.1327 23.448C38.9567 23.696 38.8687 24.044 38.8687 24.492C38.8687 24.94 38.9567 25.292 39.1327 25.548C39.3167 25.804 39.5687 25.932 39.8887 25.932C40.2087 25.932 40.4567 25.804 40.6327 25.548C40.8167 25.292 40.9087 24.94 40.9087 24.492C40.9087 24.044 40.8167 23.696 40.6327 23.448Z" fill="white"/>
</svg>
