<svg width="64" height="40" viewBox="0 0 64 40" fill="none" xmlns="http://www.w3.org/2000/svg">
<path d="M63.2013 16.2283L50.4239 21.9072V31.9223C50.4239 34.2082 47.1529 35.036 43.9539 35.5447C40.7889 36.048 36.5437 36.3243 32.0012 36.3243C23.5965 36.3243 13.5781 35.561 13.5781 31.9229V21.9077L9.60221 20.1414V21.4201C10.5483 22.0065 11.1957 23.1852 11.2227 24.6L11.9133 30.2222C11.9599 30.6063 11.8409 30.991 11.5859 31.2805C11.3328 31.5707 10.9666 31.7363 10.5818 31.7363H5.93985C5.55507 31.7363 5.18945 31.5701 4.93571 31.2805C4.68078 30.9904 4.5617 30.6063 4.60838 30.2222L5.29895 24.6C5.32587 23.1852 5.97336 22.0053 6.91944 21.4201V18.9494L0.798862 16.2296C0.313545 16.0141 -1.52588e-05 15.5294 -1.52588e-05 14.9954C-1.52588e-05 14.4615 0.312363 13.9786 0.797668 13.7631L31.458 0.116489C31.8039 -0.0388298 32.1976 -0.0388298 32.5435 0.116489L63.2023 13.7619C63.6876 13.9774 64 14.462 64 14.9942C64 15.5288 63.6864 16.0128 63.2011 16.2283L63.2013 16.2283ZM9.06542 29.038L8.55198 24.8534C8.54539 24.7981 8.5424 24.7427 8.5424 24.6873C8.5424 24.2099 8.37605 23.8824 8.26234 23.7554C8.14864 23.8836 7.98228 24.2111 7.98228 24.6873C7.98228 24.7427 7.97989 24.7981 7.97271 24.8534L7.45927 29.038H9.06542ZM47.635 31.7622C46.8026 30.8008 41.7346 29.2 32 29.2C22.2201 29.2 17.1533 30.8158 16.3604 31.7597C17.565 32.5628 22.9657 33.6253 32 33.6253C41.0212 33.6253 46.4194 32.5671 47.635 31.7622ZM6.92055 15.9991V13.986L4.6568 14.9932L6.92055 15.9991ZM32 2.8227L9.60145 12.791V17.1887L13.5773 18.9551V17.4151C13.5773 12.3015 27.679 11.9036 32.0005 11.9036C36.3222 11.9036 50.4236 12.3015 50.4236 17.4151V18.9551L59.3441 14.9901L32 2.8227Z" fill="#01348D"/>
<path d="M23.8437 27H21.7077V20.304H20.1597V18.588H23.8437V27ZM27.781 27.084C26.733 27.084 25.829 26.852 25.069 26.388L25.885 24.9C26.381 25.26 26.969 25.44 27.649 25.44C28.305 25.44 28.801 25.244 29.137 24.852C29.473 24.46 29.633 23.912 29.617 23.208C29.193 23.808 28.525 24.108 27.613 24.108C26.789 24.108 26.129 23.86 25.633 23.364C25.145 22.868 24.901 22.212 24.901 21.396C24.901 20.508 25.185 19.804 25.753 19.284C26.329 18.756 27.093 18.492 28.045 18.492C29.173 18.492 30.057 18.864 30.697 19.608C31.345 20.352 31.669 21.372 31.669 22.668C31.669 24.004 31.317 25.076 30.613 25.884C29.909 26.684 28.965 27.084 27.781 27.084ZM28.093 22.548C28.501 22.548 28.817 22.44 29.041 22.224C29.273 22.008 29.389 21.724 29.389 21.372C29.389 21.036 29.281 20.756 29.065 20.532C28.849 20.308 28.537 20.196 28.129 20.196C27.737 20.196 27.429 20.304 27.205 20.52C26.989 20.728 26.881 21.024 26.881 21.408C26.881 21.768 26.985 22.048 27.193 22.248C27.409 22.448 27.709 22.548 28.093 22.548ZM32.651 19.248C33.075 18.792 33.647 18.564 34.367 18.564C35.087 18.564 35.655 18.792 36.071 19.248C36.495 19.704 36.707 20.32 36.707 21.096C36.707 21.88 36.495 22.5 36.071 22.956C35.655 23.412 35.087 23.64 34.367 23.64C33.647 23.64 33.075 23.412 32.651 22.956C32.227 22.5 32.015 21.88 32.015 21.096C32.015 20.32 32.227 19.704 32.651 19.248ZM33.779 27L39.779 18.588H41.723L35.723 27H33.779ZM35.111 20.052C34.935 19.796 34.687 19.668 34.367 19.668C34.047 19.668 33.795 19.796 33.611 20.052C33.435 20.3 33.347 20.648 33.347 21.096C33.347 21.544 33.435 21.896 33.611 22.152C33.795 22.4 34.047 22.524 34.367 22.524C34.687 22.524 34.935 22.4 35.111 22.152C35.295 21.896 35.387 21.544 35.387 21.096C35.387 20.648 35.295 20.3 35.111 20.052ZM39.491 22.644C39.915 22.188 40.487 21.96 41.207 21.96C41.927 21.96 42.495 22.188 42.911 22.644C43.335 23.1 43.547 23.716 43.547 24.492C43.547 25.276 43.335 25.9 42.911 26.364C42.495 26.82 41.927 27.048 41.207 27.048C40.487 27.048 39.915 26.82 39.491 26.364C39.067 25.9 38.855 25.276 38.855 24.492C38.855 23.716 39.067 23.1 39.491 22.644ZM41.951 23.448C41.775 23.192 41.527 23.064 41.207 23.064C40.887 23.064 40.635 23.192 40.451 23.448C40.275 23.696 40.187 24.044 40.187 24.492C40.187 24.94 40.275 25.292 40.451 25.548C40.635 25.804 40.887 25.932 41.207 25.932C41.527 25.932 41.775 25.804 41.951 25.548C42.135 25.292 42.227 24.94 42.227 24.492C42.227 24.044 42.135 23.696 41.951 23.448Z" fill="white"/>
</svg>
