<svg width="336" height="336" viewBox="0 0 336 336" fill="none" xmlns="http://www.w3.org/2000/svg">
<path d="M334 168C334 210.717 317.532 251.79 288.023 282.676C258.513 313.562 218.232 331.883 175.559 333.828C132.886 335.773 91.1059 321.193 58.9084 293.12C26.7109 265.047 6.57486 225.643 2.68845 183.103C-1.19796 140.563 11.4645 98.1617 38.042 64.7192C64.6195 31.2768 103.066 9.3672 145.385 3.54767C187.704 -2.27187 230.638 8.44662 265.256 33.4737C299.874 58.5008 323.511 95.9099 331.252 137.92L249.626 152.96C245.756 131.955 233.937 113.25 216.628 100.737C199.319 88.2233 177.852 82.8641 156.693 85.7738C135.533 88.6836 116.31 99.6384 103.021 116.36C89.7322 133.081 83.401 154.281 85.3442 175.551C87.2874 196.821 97.3555 216.524 113.454 230.56C129.553 244.596 150.443 251.887 171.78 250.914C193.116 249.941 213.256 240.781 228.011 225.338C242.766 209.895 251 189.359 251 168H334Z" fill="#01348D"/>
<path d="M331.257 137.948C335.681 161.98 334.744 186.692 328.515 210.32C322.285 233.948 310.916 255.909 295.219 274.636L231.61 221.318C239.458 211.955 245.143 200.974 248.257 189.16C251.372 177.346 251.84 164.99 249.629 152.974L331.257 137.948Z" fill="#F2A428"/>
<path d="M120.694 122.52C125.294 122.52 128.954 123.54 131.674 125.58C134.394 127.62 135.754 130.36 135.754 133.8C135.754 135.64 135.274 137.32 134.314 138.84C133.394 140.36 132.114 141.58 130.474 142.5C132.794 143.46 134.614 144.9 135.934 146.82C137.294 148.7 137.974 150.8 137.974 153.12C137.974 156.88 136.414 159.88 133.294 162.12C130.174 164.36 125.994 165.48 120.754 165.48C115.514 165.48 111.334 164.38 108.214 162.18C105.094 159.98 103.534 157.02 103.534 153.3C103.534 150.9 104.254 148.74 105.694 146.82C107.134 144.9 109.074 143.46 111.514 142.5C109.714 141.5 108.294 140.2 107.254 138.6C106.214 137 105.694 135.3 105.694 133.5C105.694 130.14 107.054 127.48 109.774 125.52C112.494 123.52 116.134 122.52 120.694 122.52ZM125.254 130.8C124.214 129.96 122.714 129.54 120.754 129.54C118.794 129.54 117.294 129.96 116.254 130.8C115.214 131.64 114.694 132.84 114.694 134.4C114.694 135.92 115.214 137.08 116.254 137.88C117.294 138.68 118.794 139.08 120.754 139.08C122.714 139.08 124.214 138.68 125.254 137.88C126.294 137.08 126.814 135.92 126.814 134.4C126.814 132.84 126.294 131.64 125.254 130.8ZM126.094 148.2C124.854 147.24 123.074 146.76 120.754 146.76C118.434 146.76 116.654 147.24 115.414 148.2C114.214 149.12 113.614 150.46 113.614 152.22C113.614 153.98 114.214 155.34 115.414 156.3C116.654 157.26 118.434 157.74 120.754 157.74C123.074 157.74 124.854 157.28 126.094 156.36C127.334 155.4 127.954 154.02 127.954 152.22C127.954 150.46 127.334 149.12 126.094 148.2ZM159.49 122.52C164.73 122.52 169.25 123.68 173.05 126L168.97 133.44C166.49 131.64 163.55 130.74 160.15 130.74C156.87 130.74 154.39 131.72 152.71 133.68C151.03 135.64 150.23 138.38 150.31 141.9C152.43 138.9 155.77 137.4 160.33 137.4C164.45 137.4 167.73 138.64 170.17 141.12C172.65 143.6 173.89 146.88 173.89 150.96C173.89 155.4 172.45 158.94 169.57 161.58C166.73 164.18 162.93 165.48 158.17 165.48C152.53 165.48 148.09 163.62 144.85 159.9C141.65 156.18 140.05 151.08 140.05 144.6C140.05 137.92 141.81 132.58 145.33 128.58C148.85 124.54 153.57 122.52 159.49 122.52ZM157.93 145.2C155.89 145.2 154.29 145.74 153.13 146.82C152.01 147.9 151.45 149.32 151.45 151.08C151.45 152.76 151.99 154.16 153.07 155.28C154.15 156.4 155.71 156.96 157.75 156.96C159.71 156.96 161.23 156.44 162.31 155.4C163.43 154.32 163.99 152.82 163.99 150.9C163.99 149.1 163.45 147.7 162.37 146.7C161.33 145.7 159.85 145.2 157.93 145.2ZM178.14 126.24C180.26 123.96 183.12 122.82 186.72 122.82C190.32 122.82 193.16 123.96 195.24 126.24C197.36 128.52 198.42 131.6 198.42 135.48C198.42 139.4 197.36 142.5 195.24 144.78C193.16 147.06 190.32 148.2 186.72 148.2C183.12 148.2 180.26 147.06 178.14 144.78C176.02 142.5 174.96 139.4 174.96 135.48C174.96 131.6 176.02 128.52 178.14 126.24ZM183.78 165L213.78 122.94H223.5L193.5 165H183.78ZM190.44 130.26C189.56 128.98 188.32 128.34 186.72 128.34C185.12 128.34 183.86 128.98 182.94 130.26C182.06 131.5 181.62 133.24 181.62 135.48C181.62 137.72 182.06 139.48 182.94 140.76C183.86 142 185.12 142.62 186.72 142.62C188.32 142.62 189.56 142 190.44 140.76C191.36 139.48 191.82 137.72 191.82 135.48C191.82 133.24 191.36 131.5 190.44 130.26ZM212.34 143.22C214.46 140.94 217.32 139.8 220.92 139.8C224.52 139.8 227.36 140.94 229.44 143.22C231.56 145.5 232.62 148.58 232.62 152.46C232.62 156.38 231.56 159.5 229.44 161.82C227.36 164.1 224.52 165.24 220.92 165.24C217.32 165.24 214.46 164.1 212.34 161.82C210.22 159.5 209.16 156.38 209.16 152.46C209.16 148.58 210.22 145.5 212.34 143.22ZM224.64 147.24C223.76 145.96 222.52 145.32 220.92 145.32C219.32 145.32 218.06 145.96 217.14 147.24C216.26 148.48 215.82 150.22 215.82 152.46C215.82 154.7 216.26 156.46 217.14 157.74C218.06 159.02 219.32 159.66 220.92 159.66C222.52 159.66 223.76 159.02 224.64 157.74C225.56 156.46 226.02 154.7 226.02 152.46C226.02 150.22 225.56 148.48 224.64 147.24Z" fill="#01348D"/>
<path d="M100.614 188.736C101.47 188.936 101.898 189.452 101.898 190.284C101.898 190.836 101.694 191.26 101.286 191.556C100.878 191.852 100.27 192 99.4618 192H96.5938V185.688H99.3778C100.098 185.688 100.662 185.828 101.07 186.108C101.478 186.388 101.682 186.788 101.682 187.308C101.682 187.652 101.586 187.948 101.394 188.196C101.21 188.436 100.95 188.616 100.614 188.736ZM97.4218 188.496H99.3178C99.8058 188.496 100.178 188.404 100.434 188.22C100.698 188.036 100.83 187.768 100.83 187.416C100.83 187.064 100.698 186.8 100.434 186.624C100.178 186.448 99.8058 186.36 99.3178 186.36H97.4218V188.496ZM99.4258 191.328C99.9698 191.328 100.378 191.24 100.65 191.064C100.922 190.888 101.058 190.612 101.058 190.236C101.058 189.86 100.934 189.584 100.686 189.408C100.438 189.224 100.046 189.132 99.5098 189.132H97.4218V191.328H99.4258ZM106.067 187.92C106.859 187.928 107.463 188.104 107.879 188.448C108.295 188.792 108.503 189.288 108.503 189.936C108.503 190.608 108.279 191.124 107.831 191.484C107.383 191.844 106.743 192.02 105.911 192.012L103.415 192V185.688H104.267V187.896L106.067 187.92ZM109.559 185.688H110.411V192H109.559V185.688ZM105.863 191.364C106.447 191.372 106.887 191.256 107.183 191.016C107.487 190.768 107.639 190.408 107.639 189.936C107.639 189.472 107.491 189.128 107.195 188.904C106.899 188.68 106.455 188.564 105.863 188.556L104.267 188.532V191.34L105.863 191.364ZM118.02 185.688V192H117.168V186.444H113.208V192H112.356V185.688H118.02ZM125.326 185.688L122.17 192.756C121.914 193.348 121.618 193.768 121.282 194.016C120.946 194.264 120.542 194.388 120.07 194.388C119.766 194.388 119.482 194.34 119.218 194.244C118.954 194.148 118.726 194.004 118.534 193.812L118.93 193.176C119.25 193.496 119.634 193.656 120.082 193.656C120.37 193.656 120.614 193.576 120.814 193.416C121.022 193.256 121.214 192.984 121.39 192.6L121.666 191.988L118.846 185.688H119.734L122.11 191.052L124.486 185.688H125.326ZM128.638 192.06C128.014 192.06 127.454 191.924 126.958 191.652C126.47 191.38 126.086 191 125.806 190.512C125.526 190.016 125.386 189.46 125.386 188.844C125.386 188.228 125.526 187.676 125.806 187.188C126.086 186.7 126.47 186.32 126.958 186.048C127.454 185.776 128.014 185.64 128.638 185.64C129.182 185.64 129.666 185.748 130.09 185.964C130.522 186.172 130.862 186.48 131.11 186.888L130.474 187.32C130.266 187.008 130.002 186.776 129.682 186.624C129.362 186.464 129.014 186.384 128.638 186.384C128.182 186.384 127.77 186.488 127.402 186.696C127.042 186.896 126.758 187.184 126.55 187.56C126.35 187.936 126.25 188.364 126.25 188.844C126.25 189.332 126.35 189.764 126.55 190.14C126.758 190.508 127.042 190.796 127.402 191.004C127.77 191.204 128.182 191.304 128.638 191.304C129.014 191.304 129.362 191.228 129.682 191.076C130.002 190.924 130.266 190.692 130.474 190.38L131.11 190.812C130.862 191.22 130.522 191.532 130.09 191.748C129.658 191.956 129.174 192.06 128.638 192.06ZM134.572 189.192H133.132V192H132.28V185.688H133.132V188.46H134.584L136.804 185.688H137.728L135.244 188.748L137.908 192H136.9L134.572 189.192ZM138.772 185.688H139.624V188.484H143.596V185.688H144.448V192H143.596V189.216H139.624V192H138.772V185.688ZM146.39 185.688H147.242V190.704L151.454 185.688H152.21V192H151.358V186.984L147.158 192H146.39V185.688ZM156.464 189.192H155.024V192H154.172V185.688H155.024V188.46H156.476L158.696 185.688H159.62L157.136 188.748L159.8 192H158.792L156.464 189.192ZM163.046 192.06C162.438 192.06 161.89 191.924 161.402 191.652C160.914 191.372 160.53 190.988 160.25 190.5C159.97 190.012 159.83 189.46 159.83 188.844C159.83 188.228 159.97 187.676 160.25 187.188C160.53 186.7 160.914 186.32 161.402 186.048C161.89 185.776 162.438 185.64 163.046 185.64C163.654 185.64 164.202 185.776 164.69 186.048C165.178 186.32 165.558 186.7 165.83 187.188C166.11 187.676 166.25 188.228 166.25 188.844C166.25 189.46 166.11 190.012 165.83 190.5C165.558 190.988 165.178 191.372 164.69 191.652C164.202 191.924 163.654 192.06 163.046 192.06ZM163.046 191.304C163.494 191.304 163.894 191.204 164.246 191.004C164.606 190.796 164.886 190.504 165.086 190.128C165.286 189.752 165.386 189.324 165.386 188.844C165.386 188.364 165.286 187.936 165.086 187.56C164.886 187.184 164.606 186.896 164.246 186.696C163.894 186.488 163.494 186.384 163.046 186.384C162.598 186.384 162.194 186.488 161.834 186.696C161.482 186.896 161.202 187.184 160.994 187.56C160.794 187.936 160.694 188.364 160.694 188.844C160.694 189.324 160.794 189.752 160.994 190.128C161.202 190.504 161.482 190.796 161.834 191.004C162.194 191.204 162.598 191.304 163.046 191.304ZM171.611 188.736C172.467 188.936 172.895 189.452 172.895 190.284C172.895 190.836 172.691 191.26 172.283 191.556C171.875 191.852 171.267 192 170.459 192H167.591V185.688H170.375C171.095 185.688 171.659 185.828 172.067 186.108C172.475 186.388 172.679 186.788 172.679 187.308C172.679 187.652 172.583 187.948 172.391 188.196C172.207 188.436 171.947 188.616 171.611 188.736ZM168.419 188.496H170.315C170.803 188.496 171.175 188.404 171.431 188.22C171.695 188.036 171.827 187.768 171.827 187.416C171.827 187.064 171.695 186.8 171.431 186.624C171.175 186.448 170.803 186.36 170.315 186.36H168.419V188.496ZM170.423 191.328C170.967 191.328 171.375 191.24 171.647 191.064C171.919 190.888 172.055 190.612 172.055 190.236C172.055 189.86 171.931 189.584 171.683 189.408C171.435 189.224 171.043 189.132 170.507 189.132H168.419V191.328H170.423ZM182.736 185.688V192H181.884V186.444H177.924V192H177.072V185.688H182.736ZM187.282 192.06C186.674 192.06 186.126 191.924 185.638 191.652C185.15 191.372 184.766 190.988 184.486 190.5C184.206 190.012 184.066 189.46 184.066 188.844C184.066 188.228 184.206 187.676 184.486 187.188C184.766 186.7 185.15 186.32 185.638 186.048C186.126 185.776 186.674 185.64 187.282 185.64C187.89 185.64 188.438 185.776 188.926 186.048C189.414 186.32 189.794 186.7 190.066 187.188C190.346 187.676 190.486 188.228 190.486 188.844C190.486 189.46 190.346 190.012 190.066 190.5C189.794 190.988 189.414 191.372 188.926 191.652C188.438 191.924 187.89 192.06 187.282 192.06ZM187.282 191.304C187.73 191.304 188.13 191.204 188.482 191.004C188.842 190.796 189.122 190.504 189.322 190.128C189.522 189.752 189.622 189.324 189.622 188.844C189.622 188.364 189.522 187.936 189.322 187.56C189.122 187.184 188.842 186.896 188.482 186.696C188.13 186.488 187.73 186.384 187.282 186.384C186.834 186.384 186.43 186.488 186.07 186.696C185.718 186.896 185.438 187.184 185.23 187.56C185.03 187.936 184.93 188.364 184.93 188.844C184.93 189.324 185.03 189.752 185.23 190.128C185.438 190.504 185.718 190.796 186.07 191.004C186.43 191.204 186.834 191.304 187.282 191.304ZM194.467 192.06C193.843 192.06 193.283 191.924 192.787 191.652C192.299 191.38 191.915 191 191.635 190.512C191.355 190.016 191.215 189.46 191.215 188.844C191.215 188.228 191.355 187.676 191.635 187.188C191.915 186.7 192.299 186.32 192.787 186.048C193.283 185.776 193.843 185.64 194.467 185.64C195.011 185.64 195.495 185.748 195.919 185.964C196.351 186.172 196.691 186.48 196.939 186.888L196.303 187.32C196.095 187.008 195.831 186.776 195.511 186.624C195.191 186.464 194.843 186.384 194.467 186.384C194.011 186.384 193.599 186.488 193.231 186.696C192.871 186.896 192.587 187.184 192.379 187.56C192.179 187.936 192.079 188.364 192.079 188.844C192.079 189.332 192.179 189.764 192.379 190.14C192.587 190.508 192.871 190.796 193.231 191.004C193.599 191.204 194.011 191.304 194.467 191.304C194.843 191.304 195.191 191.228 195.511 191.076C195.831 190.924 196.095 190.692 196.303 190.38L196.939 190.812C196.691 191.22 196.351 191.532 195.919 191.748C195.487 191.956 195.003 192.06 194.467 192.06ZM202.431 186.444H200.043V192H199.191V186.444H196.803V185.688H202.431V186.444ZM208.571 185.688L205.415 192.756C205.159 193.348 204.863 193.768 204.527 194.016C204.191 194.264 203.787 194.388 203.315 194.388C203.011 194.388 202.727 194.34 202.463 194.244C202.199 194.148 201.971 194.004 201.779 193.812L202.175 193.176C202.495 193.496 202.879 193.656 203.327 193.656C203.615 193.656 203.859 193.576 204.059 193.416C204.267 193.256 204.459 192.984 204.635 192.6L204.911 191.988L202.091 185.688H202.979L205.355 191.052L207.731 185.688H208.571ZM215.082 185.688V192H214.23V186.444H210.27V192H209.418V185.688H215.082ZM217.024 185.688H217.876V190.704L222.088 185.688H222.844V192H221.992V186.984L217.792 192H217.024V185.688ZM229.966 185.688V192H229.114V186.444H226.09L226.006 188.004C225.942 189.316 225.79 190.324 225.55 191.028C225.31 191.732 224.882 192.084 224.266 192.084C224.098 192.084 223.894 192.052 223.654 191.988L223.714 191.256C223.858 191.288 223.958 191.304 224.014 191.304C224.342 191.304 224.59 191.152 224.758 190.848C224.926 190.544 225.038 190.168 225.094 189.72C225.15 189.272 225.198 188.68 225.238 187.944L225.346 185.688H229.966ZM231.908 185.688H232.76V190.704L236.972 185.688H237.728V192H236.876V186.984L232.676 192H231.908V185.688ZM102.225 204.736C103.081 204.936 103.509 205.452 103.509 206.284C103.509 206.836 103.305 207.26 102.897 207.556C102.489 207.852 101.881 208 101.073 208H98.2054V201.688H100.989C101.709 201.688 102.273 201.828 102.681 202.108C103.089 202.388 103.293 202.788 103.293 203.308C103.293 203.652 103.197 203.948 103.005 204.196C102.821 204.436 102.561 204.616 102.225 204.736ZM99.0334 204.496H100.929C101.417 204.496 101.789 204.404 102.045 204.22C102.309 204.036 102.441 203.768 102.441 203.416C102.441 203.064 102.309 202.8 102.045 202.624C101.789 202.448 101.417 202.36 100.929 202.36H99.0334V204.496ZM101.037 207.328C101.581 207.328 101.989 207.24 102.261 207.064C102.533 206.888 102.669 206.612 102.669 206.236C102.669 205.86 102.545 205.584 102.297 205.408C102.049 205.224 101.657 205.132 101.121 205.132H99.0334V207.328H101.037ZM111.707 204.736C112.563 204.936 112.991 205.452 112.991 206.284C112.991 206.836 112.787 207.26 112.379 207.556C111.971 207.852 111.363 208 110.555 208H107.687V201.688H110.471C111.191 201.688 111.755 201.828 112.163 202.108C112.571 202.388 112.775 202.788 112.775 203.308C112.775 203.652 112.679 203.948 112.487 204.196C112.303 204.436 112.043 204.616 111.707 204.736ZM108.515 204.496H110.411C110.899 204.496 111.271 204.404 111.527 204.22C111.791 204.036 111.923 203.768 111.923 203.416C111.923 203.064 111.791 202.8 111.527 202.624C111.271 202.448 110.899 202.36 110.411 202.36H108.515V204.496ZM110.519 207.328C111.063 207.328 111.471 207.24 111.743 207.064C112.015 206.888 112.151 206.612 112.151 206.236C112.151 205.86 112.027 205.584 111.779 205.408C111.531 205.224 111.139 205.132 110.603 205.132H108.515V207.328H110.519ZM120.028 205.108H114.748C114.796 205.764 115.048 206.296 115.504 206.704C115.96 207.104 116.536 207.304 117.232 207.304C117.624 207.304 117.984 207.236 118.312 207.1C118.64 206.956 118.924 206.748 119.164 206.476L119.644 207.028C119.364 207.364 119.012 207.62 118.588 207.796C118.172 207.972 117.712 208.06 117.208 208.06C116.56 208.06 115.984 207.924 115.48 207.652C114.984 207.372 114.596 206.988 114.316 206.5C114.036 206.012 113.896 205.46 113.896 204.844C113.896 204.228 114.028 203.676 114.292 203.188C114.564 202.7 114.932 202.32 115.396 202.048C115.868 201.776 116.396 201.64 116.98 201.64C117.564 201.64 118.088 201.776 118.552 202.048C119.016 202.32 119.38 202.7 119.644 203.188C119.908 203.668 120.04 204.22 120.04 204.844L120.028 205.108ZM116.98 202.372C116.372 202.372 115.86 202.568 115.444 202.96C115.036 203.344 114.804 203.848 114.748 204.472H119.224C119.168 203.848 118.932 203.344 118.516 202.96C118.108 202.568 117.596 202.372 116.98 202.372ZM127.473 207.256V209.524H126.669V208H121.017V209.524H120.213V207.256H120.573C120.997 207.232 121.285 206.92 121.437 206.32C121.589 205.72 121.693 204.88 121.749 203.8L121.833 201.688H126.489V207.256H127.473ZM122.529 203.848C122.489 204.744 122.413 205.484 122.301 206.068C122.189 206.644 121.989 207.04 121.701 207.256H125.637V202.444H122.601L122.529 203.848ZM134.017 201.688L130.861 208.756C130.605 209.348 130.309 209.768 129.973 210.016C129.637 210.264 129.233 210.388 128.761 210.388C128.457 210.388 128.173 210.34 127.909 210.244C127.645 210.148 127.417 210.004 127.225 209.812L127.621 209.176C127.941 209.496 128.325 209.656 128.773 209.656C129.061 209.656 129.305 209.576 129.505 209.416C129.713 209.256 129.905 208.984 130.081 208.6L130.357 207.988L127.537 201.688H128.425L130.801 207.052L133.177 201.688H134.017ZM143.576 201.688V208H134.864V201.688H135.716V207.256H138.812V201.688H139.664V207.256H142.724V201.688H143.576ZM144.548 207.256V209.38H143.744V208H142.676V207.256H144.548ZM145.529 201.688H146.381V206.704L150.593 201.688H151.349V208H150.497V202.984L146.297 208H145.529V201.688ZM158.831 205.108H153.551C153.599 205.764 153.851 206.296 154.307 206.704C154.763 207.104 155.339 207.304 156.035 207.304C156.427 207.304 156.787 207.236 157.115 207.1C157.443 206.956 157.727 206.748 157.967 206.476L158.447 207.028C158.167 207.364 157.815 207.62 157.391 207.796C156.975 207.972 156.515 208.06 156.011 208.06C155.363 208.06 154.787 207.924 154.283 207.652C153.787 207.372 153.399 206.988 153.119 206.5C152.839 206.012 152.699 205.46 152.699 204.844C152.699 204.228 152.831 203.676 153.095 203.188C153.367 202.7 153.735 202.32 154.199 202.048C154.671 201.776 155.199 201.64 155.783 201.64C156.367 201.64 156.891 201.776 157.355 202.048C157.819 202.32 158.183 202.7 158.447 203.188C158.711 203.668 158.843 204.22 158.843 204.844L158.831 205.108ZM155.783 202.372C155.175 202.372 154.663 202.568 154.247 202.96C153.839 203.344 153.607 203.848 153.551 204.472H158.027C157.971 203.848 157.735 203.344 157.319 202.96C156.911 202.568 156.399 202.372 155.783 202.372ZM168.093 203.668C168.677 203.788 169.121 204.024 169.425 204.376C169.729 204.72 169.881 205.172 169.881 205.732C169.881 206.46 169.621 207.02 169.101 207.412C168.589 207.804 167.833 208 166.833 208H163.113V199.6H166.605C167.501 199.6 168.201 199.784 168.705 200.152C169.209 200.52 169.461 201.052 169.461 201.748C169.461 202.22 169.341 202.62 169.101 202.948C168.861 203.268 168.525 203.508 168.093 203.668ZM163.989 203.404H166.557C167.205 203.404 167.701 203.272 168.045 203.008C168.397 202.744 168.573 202.36 168.573 201.856C168.573 201.352 168.397 200.968 168.045 200.704C167.701 200.44 167.205 200.308 166.557 200.308H163.989V203.404ZM166.833 207.292C168.281 207.292 169.005 206.752 169.005 205.672C169.005 204.616 168.281 204.088 166.833 204.088H163.989V207.292H166.833ZM178.104 199.6L174.288 206.668C174.016 207.172 173.696 207.548 173.328 207.796C172.968 208.036 172.572 208.156 172.14 208.156C171.82 208.156 171.476 208.08 171.108 207.928L171.36 207.208C171.648 207.32 171.912 207.376 172.152 207.376C172.704 207.376 173.156 207.076 173.508 206.476L173.748 206.068L170.34 199.6H171.288L174.216 205.288L177.216 199.6H178.104ZM182.782 203.608C183.334 203.744 183.766 203.992 184.078 204.352C184.398 204.712 184.558 205.144 184.558 205.648C184.558 206.136 184.406 206.564 184.102 206.932C183.798 207.3 183.394 207.584 182.89 207.784C182.386 207.976 181.838 208.072 181.246 208.072C180.686 208.072 180.134 207.984 179.59 207.808C179.054 207.624 178.57 207.352 178.138 206.992L178.462 206.356C178.83 206.668 179.25 206.908 179.722 207.076C180.194 207.236 180.67 207.316 181.15 207.316C181.606 207.316 182.026 207.244 182.41 207.1C182.794 206.956 183.098 206.752 183.322 206.488C183.554 206.216 183.67 205.896 183.67 205.528C183.67 205.04 183.478 204.664 183.094 204.4C182.71 204.136 182.17 204.004 181.474 204.004H179.674V203.284H181.426C182.018 203.284 182.478 203.16 182.806 202.912C183.142 202.656 183.31 202.304 183.31 201.856C183.31 201.36 183.098 200.972 182.674 200.692C182.25 200.404 181.718 200.26 181.078 200.26C180.678 200.26 180.274 200.32 179.866 200.44C179.458 200.552 179.07 200.724 178.702 200.956L178.402 200.224C179.234 199.728 180.134 199.48 181.102 199.48C181.67 199.48 182.19 199.572 182.662 199.756C183.134 199.94 183.506 200.204 183.778 200.548C184.058 200.892 184.198 201.296 184.198 201.76C184.198 202.208 184.074 202.596 183.826 202.924C183.578 203.244 183.23 203.472 182.782 203.608ZM188.731 203.92C189.523 203.928 190.127 204.104 190.543 204.448C190.959 204.792 191.167 205.288 191.167 205.936C191.167 206.608 190.943 207.124 190.495 207.484C190.047 207.844 189.407 208.02 188.575 208.012L186.079 208V201.688H186.931V203.896L188.731 203.92ZM192.223 201.688H193.075V208H192.223V201.688ZM188.527 207.364C189.111 207.372 189.551 207.256 189.847 207.016C190.151 206.768 190.303 206.408 190.303 205.936C190.303 205.472 190.155 205.128 189.859 204.904C189.563 204.68 189.119 204.564 188.527 204.556L186.931 204.532V207.34L188.527 207.364ZM201.029 199.6C202.101 199.6 202.941 199.856 203.549 200.368C204.157 200.88 204.461 201.584 204.461 202.48C204.461 203.376 204.157 204.08 203.549 204.592C202.941 205.096 202.101 205.348 201.029 205.348H198.773V208H197.885V199.6H201.029ZM201.005 204.568C201.837 204.568 202.473 204.388 202.913 204.028C203.353 203.66 203.573 203.144 203.573 202.48C203.573 201.8 203.353 201.28 202.913 200.92C202.473 200.552 201.837 200.368 201.005 200.368H198.773V204.568H201.005ZM208.172 208.06C207.564 208.06 207.016 207.924 206.528 207.652C206.04 207.372 205.656 206.988 205.376 206.5C205.096 206.012 204.956 205.46 204.956 204.844C204.956 204.228 205.096 203.676 205.376 203.188C205.656 202.7 206.04 202.32 206.528 202.048C207.016 201.776 207.564 201.64 208.172 201.64C208.78 201.64 209.328 201.776 209.816 202.048C210.304 202.32 210.684 202.7 210.956 203.188C211.236 203.676 211.376 204.228 211.376 204.844C211.376 205.46 211.236 206.012 210.956 206.5C210.684 206.988 210.304 207.372 209.816 207.652C209.328 207.924 208.78 208.06 208.172 208.06ZM208.172 207.304C208.62 207.304 209.02 207.204 209.372 207.004C209.732 206.796 210.012 206.504 210.212 206.128C210.412 205.752 210.512 205.324 210.512 204.844C210.512 204.364 210.412 203.936 210.212 203.56C210.012 203.184 209.732 202.896 209.372 202.696C209.02 202.488 208.62 202.384 208.172 202.384C207.724 202.384 207.32 202.488 206.96 202.696C206.608 202.896 206.328 203.184 206.12 203.56C205.92 203.936 205.82 204.364 205.82 204.844C205.82 205.324 205.92 205.752 206.12 206.128C206.328 206.504 206.608 206.796 206.96 207.004C207.32 207.204 207.724 207.304 208.172 207.304ZM215.357 208.06C214.733 208.06 214.173 207.924 213.677 207.652C213.189 207.38 212.805 207 212.525 206.512C212.245 206.016 212.105 205.46 212.105 204.844C212.105 204.228 212.245 203.676 212.525 203.188C212.805 202.7 213.189 202.32 213.677 202.048C214.173 201.776 214.733 201.64 215.357 201.64C215.901 201.64 216.385 201.748 216.809 201.964C217.241 202.172 217.581 202.48 217.829 202.888L217.193 203.32C216.985 203.008 216.721 202.776 216.401 202.624C216.081 202.464 215.733 202.384 215.357 202.384C214.901 202.384 214.489 202.488 214.121 202.696C213.761 202.896 213.477 203.184 213.269 203.56C213.069 203.936 212.969 204.364 212.969 204.844C212.969 205.332 213.069 205.764 213.269 206.14C213.477 206.508 213.761 206.796 214.121 207.004C214.489 207.204 214.901 207.304 215.357 207.304C215.733 207.304 216.081 207.228 216.401 207.076C216.721 206.924 216.985 206.692 217.193 206.38L217.829 206.812C217.581 207.22 217.241 207.532 216.809 207.748C216.377 207.956 215.893 208.06 215.357 208.06ZM221.533 208.06C220.909 208.06 220.349 207.924 219.853 207.652C219.365 207.38 218.981 207 218.701 206.512C218.421 206.016 218.281 205.46 218.281 204.844C218.281 204.228 218.421 203.676 218.701 203.188C218.981 202.7 219.365 202.32 219.853 202.048C220.349 201.776 220.909 201.64 221.533 201.64C222.077 201.64 222.561 201.748 222.985 201.964C223.417 202.172 223.757 202.48 224.005 202.888L223.369 203.32C223.161 203.008 222.897 202.776 222.577 202.624C222.257 202.464 221.909 202.384 221.533 202.384C221.077 202.384 220.665 202.488 220.297 202.696C219.937 202.896 219.653 203.184 219.445 203.56C219.245 203.936 219.145 204.364 219.145 204.844C219.145 205.332 219.245 205.764 219.445 206.14C219.653 206.508 219.937 206.796 220.297 207.004C220.665 207.204 221.077 207.304 221.533 207.304C221.909 207.304 222.257 207.228 222.577 207.076C222.897 206.924 223.161 206.692 223.369 206.38L224.005 206.812C223.757 207.22 223.417 207.532 222.985 207.748C222.553 207.956 222.069 208.06 221.533 208.06ZM225.175 201.688H226.027V206.704L230.239 201.688H230.995V208H230.143V202.984L225.943 208H225.175V201.688ZM232.957 201.688H233.809V206.704L238.021 201.688H238.777V208H237.925V202.984L233.725 208H232.957V201.688Z" fill="#01348D"/>
</svg>
