<svg width="64" height="40" viewBox="0 0 64 40" fill="none" xmlns="http://www.w3.org/2000/svg">
<path d="M63.2013 16.2283L50.4239 21.9072V31.9223C50.4239 34.2082 47.1529 35.036 43.9539 35.5447C40.7889 36.048 36.5437 36.3243 32.0012 36.3243C23.5965 36.3243 13.5781 35.561 13.5781 31.9229V21.9077L9.60221 20.1414V21.4201C10.5483 22.0065 11.1957 23.1852 11.2227 24.6L11.9133 30.2222C11.9599 30.6063 11.8409 30.991 11.5859 31.2805C11.3328 31.5707 10.9666 31.7363 10.5818 31.7363H5.93985C5.55507 31.7363 5.18945 31.5701 4.93571 31.2805C4.68078 30.9904 4.5617 30.6063 4.60838 30.2222L5.29895 24.6C5.32587 23.1852 5.97336 22.0053 6.91944 21.4201V18.9494L0.798862 16.2296C0.313545 16.0141 -1.52588e-05 15.5294 -1.52588e-05 14.9954C-1.52588e-05 14.4615 0.312363 13.9786 0.797668 13.7631L31.458 0.116489C31.8039 -0.0388298 32.1976 -0.0388298 32.5435 0.116489L63.2023 13.7619C63.6876 13.9774 64 14.462 64 14.9942C64 15.5288 63.6864 16.0128 63.2011 16.2283L63.2013 16.2283ZM9.06542 29.038L8.55198 24.8534C8.54539 24.7981 8.5424 24.7427 8.5424 24.6873C8.5424 24.2099 8.37605 23.8824 8.26234 23.7554C8.14864 23.8836 7.98228 24.2111 7.98228 24.6873C7.98228 24.7427 7.97989 24.7981 7.97271 24.8534L7.45927 29.038H9.06542ZM47.635 31.7622C46.8026 30.8008 41.7346 29.2 32 29.2C22.2201 29.2 17.1533 30.8158 16.3604 31.7597C17.565 32.5628 22.9657 33.6253 32 33.6253C41.0212 33.6253 46.4194 32.5671 47.635 31.7622ZM6.92055 15.9991V13.986L4.6568 14.9932L6.92055 15.9991ZM32 2.8227L9.60145 12.791V17.1887L13.5773 18.9551V17.4151C13.5773 12.3015 27.679 11.9036 32.0005 11.9036C36.3222 11.9036 50.4236 12.3015 50.4236 17.4151V18.9551L59.3441 14.9901L32 2.8227Z" fill="#01348D"/>
<path d="M24.8345 23.532H26.6105V21.732H28.5905V23.532H29.7305V25.152H28.5905V27H26.6105V25.152H22.6265V23.724L25.2785 18.6H27.3305L24.8345 23.532ZM30.4243 19.248C30.8483 18.792 31.4203 18.564 32.1403 18.564C32.8603 18.564 33.4283 18.792 33.8443 19.248C34.2683 19.704 34.4803 20.32 34.4803 21.096C34.4803 21.88 34.2683 22.5 33.8443 22.956C33.4283 23.412 32.8603 23.64 32.1403 23.64C31.4203 23.64 30.8483 23.412 30.4243 22.956C30.0003 22.5 29.7883 21.88 29.7883 21.096C29.7883 20.32 30.0003 19.704 30.4243 19.248ZM31.5523 27L37.5523 18.588H39.4963L33.4963 27H31.5523ZM32.8843 20.052C32.7083 19.796 32.4603 19.668 32.1403 19.668C31.8203 19.668 31.5683 19.796 31.3843 20.052C31.2083 20.3 31.1203 20.648 31.1203 21.096C31.1203 21.544 31.2083 21.896 31.3843 22.152C31.5683 22.4 31.8203 22.524 32.1403 22.524C32.4603 22.524 32.7083 22.4 32.8843 22.152C33.0683 21.896 33.1603 21.544 33.1603 21.096C33.1603 20.648 33.0683 20.3 32.8843 20.052ZM37.2643 22.644C37.6883 22.188 38.2603 21.96 38.9803 21.96C39.7003 21.96 40.2683 22.188 40.6843 22.644C41.1083 23.1 41.3203 23.716 41.3203 24.492C41.3203 25.276 41.1083 25.9 40.6843 26.364C40.2683 26.82 39.7003 27.048 38.9803 27.048C38.2603 27.048 37.6883 26.82 37.2643 26.364C36.8403 25.9 36.6283 25.276 36.6283 24.492C36.6283 23.716 36.8403 23.1 37.2643 22.644ZM39.7243 23.448C39.5483 23.192 39.3003 23.064 38.9803 23.064C38.6603 23.064 38.4083 23.192 38.2243 23.448C38.0483 23.696 37.9603 24.044 37.9603 24.492C37.9603 24.94 38.0483 25.292 38.2243 25.548C38.4083 25.804 38.6603 25.932 38.9803 25.932C39.3003 25.932 39.5483 25.804 39.7243 25.548C39.9083 25.292 40.0003 24.94 40.0003 24.492C40.0003 24.044 39.9083 23.696 39.7243 23.448Z" fill="white"/>
</svg>
