<svg width="64" height="40" viewBox="0 0 64 40" fill="none" xmlns="http://www.w3.org/2000/svg">
<path d="M63.2013 16.2283L50.4239 21.9072V31.9223C50.4239 34.2082 47.1529 35.036 43.9539 35.5447C40.7889 36.048 36.5437 36.3243 32.0012 36.3243C23.5965 36.3243 13.5781 35.561 13.5781 31.9229V21.9077L9.60221 20.1414V21.4201C10.5483 22.0065 11.1957 23.1852 11.2227 24.6L11.9133 30.2222C11.9599 30.6063 11.8409 30.991 11.5859 31.2805C11.3328 31.5707 10.9666 31.7363 10.5818 31.7363H5.93985C5.55507 31.7363 5.18945 31.5701 4.93571 31.2805C4.68078 30.9904 4.5617 30.6063 4.60838 30.2222L5.29895 24.6C5.32587 23.1852 5.97336 22.0053 6.91944 21.4201V18.9494L0.798862 16.2296C0.313545 16.0141 -1.52588e-05 15.5294 -1.52588e-05 14.9954C-1.52588e-05 14.4615 0.312363 13.9786 0.797668 13.7631L31.458 0.116489C31.8039 -0.0388298 32.1976 -0.0388298 32.5435 0.116489L63.2023 13.7619C63.6876 13.9774 64 14.462 64 14.9942C64 15.5288 63.6864 16.0128 63.2011 16.2283L63.2013 16.2283ZM9.06542 29.038L8.55198 24.8534C8.54539 24.7981 8.5424 24.7427 8.5424 24.6873C8.5424 24.2099 8.37605 23.8824 8.26234 23.7554C8.14864 23.8836 7.98228 24.2111 7.98228 24.6873C7.98228 24.7427 7.97989 24.7981 7.97271 24.8534L7.45927 29.038H9.06542ZM47.635 31.7622C46.8026 30.8008 41.7346 29.2 32 29.2C22.2201 29.2 17.1533 30.8158 16.3604 31.7597C17.565 32.5628 22.9657 33.6253 32 33.6253C41.0212 33.6253 46.4194 32.5671 47.635 31.7622ZM6.92055 15.9991V13.986L4.6568 14.9932L6.92055 15.9991ZM32 2.8227L9.60145 12.791V17.1887L13.5773 18.9551V17.4151C13.5773 12.3015 27.679 11.9036 32.0005 11.9036C36.3222 11.9036 50.4236 12.3015 50.4236 17.4151V18.9551L59.3441 14.9901L32 2.8227Z" fill="#F2A428"/>
<path d="M23.8378 27H21.7018V20.304H20.1538V18.588H23.8378V27ZM27.0672 23.532H28.8432V21.732H30.8232V23.532H31.9632V25.152H30.8232V27H28.8432V25.152H24.8592V23.724L27.5112 18.6H29.5632L27.0672 23.532ZM32.6569 19.248C33.0809 18.792 33.6529 18.564 34.3729 18.564C35.0929 18.564 35.6609 18.792 36.0769 19.248C36.5009 19.704 36.7129 20.32 36.7129 21.096C36.7129 21.88 36.5009 22.5 36.0769 22.956C35.6609 23.412 35.0929 23.64 34.3729 23.64C33.6529 23.64 33.0809 23.412 32.6569 22.956C32.2329 22.5 32.0209 21.88 32.0209 21.096C32.0209 20.32 32.2329 19.704 32.6569 19.248ZM33.7849 27L39.7849 18.588H41.7289L35.7289 27H33.7849ZM35.1169 20.052C34.9409 19.796 34.6929 19.668 34.3729 19.668C34.0529 19.668 33.8009 19.796 33.6169 20.052C33.4409 20.3 33.3529 20.648 33.3529 21.096C33.3529 21.544 33.4409 21.896 33.6169 22.152C33.8009 22.4 34.0529 22.524 34.3729 22.524C34.6929 22.524 34.9409 22.4 35.1169 22.152C35.3009 21.896 35.3929 21.544 35.3929 21.096C35.3929 20.648 35.3009 20.3 35.1169 20.052ZM39.4969 22.644C39.9209 22.188 40.4929 21.96 41.2129 21.96C41.9329 21.96 42.5009 22.188 42.9169 22.644C43.3409 23.1 43.5529 23.716 43.5529 24.492C43.5529 25.276 43.3409 25.9 42.9169 26.364C42.5009 26.82 41.9329 27.048 41.2129 27.048C40.4929 27.048 39.9209 26.82 39.4969 26.364C39.0729 25.9 38.8609 25.276 38.8609 24.492C38.8609 23.716 39.0729 23.1 39.4969 22.644ZM41.9569 23.448C41.7809 23.192 41.5329 23.064 41.2129 23.064C40.8929 23.064 40.6409 23.192 40.4569 23.448C40.2809 23.696 40.1929 24.044 40.1929 24.492C40.1929 24.94 40.2809 25.292 40.4569 25.548C40.6409 25.804 40.8929 25.932 41.2129 25.932C41.5329 25.932 41.7809 25.804 41.9569 25.548C42.1409 25.292 42.2329 24.94 42.2329 24.492C42.2329 24.044 42.1409 23.696 41.9569 23.448Z" fill="white"/>
</svg>
