<svg width="64" height="40" viewBox="0 0 64 40" fill="none" xmlns="http://www.w3.org/2000/svg">
<path d="M63.2013 16.2283L50.4239 21.9072V31.9223C50.4239 34.2082 47.1529 35.036 43.9539 35.5447C40.7889 36.048 36.5437 36.3243 32.0012 36.3243C23.5965 36.3243 13.5781 35.561 13.5781 31.9229V21.9077L9.60221 20.1414V21.4201C10.5483 22.0065 11.1957 23.1852 11.2227 24.6L11.9133 30.2222C11.9599 30.6063 11.8409 30.991 11.5859 31.2805C11.3328 31.5707 10.9666 31.7363 10.5818 31.7363H5.93985C5.55507 31.7363 5.18945 31.5701 4.93571 31.2805C4.68078 30.9904 4.5617 30.6063 4.60838 30.2222L5.29895 24.6C5.32587 23.1852 5.97336 22.0053 6.91944 21.4201V18.9494L0.798862 16.2296C0.313545 16.0141 -1.52588e-05 15.5294 -1.52588e-05 14.9954C-1.52588e-05 14.4615 0.312363 13.9786 0.797668 13.7631L31.458 0.116489C31.8039 -0.0388298 32.1976 -0.0388298 32.5435 0.116489L63.2023 13.7619C63.6876 13.9774 64 14.462 64 14.9942C64 15.5288 63.6864 16.0128 63.2011 16.2283L63.2013 16.2283ZM9.06542 29.038L8.55198 24.8534C8.54539 24.7981 8.5424 24.7427 8.5424 24.6873C8.5424 24.2099 8.37605 23.8824 8.26234 23.7554C8.14864 23.8836 7.98228 24.2111 7.98228 24.6873C7.98228 24.7427 7.97989 24.7981 7.97271 24.8534L7.45927 29.038H9.06542ZM47.635 31.7622C46.8026 30.8008 41.7346 29.2 32 29.2C22.2201 29.2 17.1533 30.8158 16.3604 31.7597C17.565 32.5628 22.9657 33.6253 32 33.6253C41.0212 33.6253 46.4194 32.5671 47.635 31.7622ZM6.92055 15.9991V13.986L4.6568 14.9932L6.92055 15.9991ZM32 2.8227L9.60145 12.791V17.1887L13.5773 18.9551V17.4151C13.5773 12.3015 27.679 11.9036 32.0005 11.9036C36.3222 11.9036 50.4236 12.3015 50.4236 17.4151V18.9551L59.3441 14.9901L32 2.8227Z" fill="#01348D"/>
<path d="M26.6884 18.504C27.7364 18.504 28.6404 18.736 29.4004 19.2L28.5844 20.688C28.0884 20.328 27.5004 20.148 26.8204 20.148C26.1644 20.148 25.6684 20.344 25.3324 20.736C24.9964 21.128 24.8364 21.676 24.8524 22.38C25.2764 21.78 25.9444 21.48 26.8564 21.48C27.6804 21.48 28.3364 21.728 28.8244 22.224C29.3204 22.72 29.5684 23.376 29.5684 24.192C29.5684 25.08 29.2804 25.788 28.7044 26.316C28.1364 26.836 27.3764 27.096 26.4244 27.096C25.2964 27.096 24.4084 26.724 23.7604 25.98C23.1204 25.236 22.8004 24.216 22.8004 22.92C22.8004 21.584 23.1524 20.516 23.8564 19.716C24.5604 18.908 25.5044 18.504 26.6884 18.504ZM26.3764 23.04C25.9684 23.04 25.6484 23.148 25.4164 23.364C25.1924 23.58 25.0804 23.864 25.0804 24.216C25.0804 24.552 25.1884 24.832 25.4044 25.056C25.6204 25.28 25.9324 25.392 26.3404 25.392C26.7324 25.392 27.0364 25.288 27.2524 25.08C27.4764 24.864 27.5884 24.564 27.5884 24.18C27.5884 23.82 27.4804 23.54 27.2644 23.34C27.0564 23.14 26.7604 23.04 26.3764 23.04ZM30.4184 19.248C30.8424 18.792 31.4144 18.564 32.1344 18.564C32.8544 18.564 33.4224 18.792 33.8384 19.248C34.2624 19.704 34.4744 20.32 34.4744 21.096C34.4744 21.88 34.2624 22.5 33.8384 22.956C33.4224 23.412 32.8544 23.64 32.1344 23.64C31.4144 23.64 30.8424 23.412 30.4184 22.956C29.9944 22.5 29.7824 21.88 29.7824 21.096C29.7824 20.32 29.9944 19.704 30.4184 19.248ZM31.5464 27L37.5464 18.588H39.4904L33.4904 27H31.5464ZM32.8784 20.052C32.7024 19.796 32.4544 19.668 32.1344 19.668C31.8144 19.668 31.5624 19.796 31.3784 20.052C31.2024 20.3 31.1144 20.648 31.1144 21.096C31.1144 21.544 31.2024 21.896 31.3784 22.152C31.5624 22.4 31.8144 22.524 32.1344 22.524C32.4544 22.524 32.7024 22.4 32.8784 22.152C33.0624 21.896 33.1544 21.544 33.1544 21.096C33.1544 20.648 33.0624 20.3 32.8784 20.052ZM37.2584 22.644C37.6824 22.188 38.2544 21.96 38.9744 21.96C39.6944 21.96 40.2624 22.188 40.6784 22.644C41.1024 23.1 41.3144 23.716 41.3144 24.492C41.3144 25.276 41.1024 25.9 40.6784 26.364C40.2624 26.82 39.6944 27.048 38.9744 27.048C38.2544 27.048 37.6824 26.82 37.2584 26.364C36.8344 25.9 36.6224 25.276 36.6224 24.492C36.6224 23.716 36.8344 23.1 37.2584 22.644ZM39.7184 23.448C39.5424 23.192 39.2944 23.064 38.9744 23.064C38.6544 23.064 38.4024 23.192 38.2184 23.448C38.0424 23.696 37.9544 24.044 37.9544 24.492C37.9544 24.94 38.0424 25.292 38.2184 25.548C38.4024 25.804 38.6544 25.932 38.9744 25.932C39.2944 25.932 39.5424 25.804 39.7184 25.548C39.9024 25.292 39.9944 24.94 39.9944 24.492C39.9944 24.044 39.9024 23.696 39.7184 23.448Z" fill="white"/>
</svg>
