<svg width="64" height="40" viewBox="0 0 64 40" fill="none" xmlns="http://www.w3.org/2000/svg">
<path d="M63.2013 16.2283L50.4239 21.9072V31.9223C50.4239 34.2082 47.1529 35.036 43.9539 35.5447C40.7889 36.048 36.5437 36.3243 32.0012 36.3243C23.5965 36.3243 13.5781 35.561 13.5781 31.9229V21.9077L9.60221 20.1414V21.4201C10.5483 22.0065 11.1957 23.1852 11.2227 24.6L11.9133 30.2222C11.9599 30.6063 11.8409 30.991 11.5859 31.2805C11.3328 31.5707 10.9666 31.7363 10.5818 31.7363H5.93985C5.55507 31.7363 5.18945 31.5701 4.93571 31.2805C4.68078 30.9904 4.5617 30.6063 4.60838 30.2222L5.29895 24.6C5.32587 23.1852 5.97336 22.0053 6.91944 21.4201V18.9494L0.798862 16.2296C0.313545 16.0141 -1.52588e-05 15.5294 -1.52588e-05 14.9954C-1.52588e-05 14.4615 0.312363 13.9786 0.797668 13.7631L31.458 0.116489C31.8039 -0.0388298 32.1976 -0.0388298 32.5435 0.116489L63.2023 13.7619C63.6876 13.9774 64 14.462 64 14.9942C64 15.5288 63.6864 16.0128 63.2011 16.2283L63.2013 16.2283ZM9.06542 29.038L8.55198 24.8534C8.54539 24.7981 8.5424 24.7427 8.5424 24.6873C8.5424 24.2099 8.37605 23.8824 8.26234 23.7554C8.14864 23.8836 7.98228 24.2111 7.98228 24.6873C7.98228 24.7427 7.97989 24.7981 7.97271 24.8534L7.45927 29.038H9.06542ZM47.635 31.7622C46.8026 30.8008 41.7346 29.2 32 29.2C22.2201 29.2 17.1533 30.8158 16.3604 31.7597C17.565 32.5628 22.9657 33.6253 32 33.6253C41.0212 33.6253 46.4194 32.5671 47.635 31.7622ZM6.92055 15.9991V13.986L4.6568 14.9932L6.92055 15.9991ZM32 2.8227L9.60145 12.791V17.1887L13.5773 18.9551V17.4151C13.5773 12.3015 27.679 11.9036 32.0005 11.9036C36.3222 11.9036 50.4236 12.3015 50.4236 17.4151V18.9551L59.3441 14.9901L32 2.8227Z" fill="#01348D"/>
<path d="M22.195 18.504C23.035 18.504 23.723 18.708 24.259 19.116C24.795 19.516 25.063 20.044 25.063 20.7C25.063 21.484 24.535 22.416 23.479 23.496L21.775 25.308H25.315V27H19.027V25.62L22.027 22.44C22.563 21.88 22.831 21.4 22.831 21C22.831 20.76 22.747 20.572 22.579 20.436C22.411 20.3 22.179 20.232 21.883 20.232C21.187 20.232 20.423 20.588 19.591 21.3L18.787 19.764C19.907 18.924 21.043 18.504 22.195 18.504ZM29.4623 18.528C30.6543 18.528 31.5703 18.896 32.2103 19.632C32.8503 20.368 33.1703 21.42 33.1703 22.788C33.1703 24.164 32.8503 25.22 32.2103 25.956C31.5703 26.692 30.6543 27.06 29.4623 27.06C28.2623 27.06 27.3383 26.692 26.6903 25.956C26.0503 25.22 25.7303 24.164 25.7303 22.788C25.7303 21.42 26.0503 20.368 26.6903 19.632C27.3383 18.896 28.2623 18.528 29.4623 18.528ZM29.4623 20.088C28.9183 20.088 28.5263 20.3 28.2863 20.724C28.0463 21.14 27.9263 21.828 27.9263 22.788C27.9263 23.748 28.0463 24.44 28.2863 24.864C28.5263 25.288 28.9183 25.5 29.4623 25.5C29.9903 25.5 30.3743 25.288 30.6143 24.864C30.8623 24.432 30.9863 23.74 30.9863 22.788C30.9863 21.836 30.8623 21.148 30.6143 20.724C30.3743 20.3 29.9903 20.088 29.4623 20.088ZM34.2038 19.248C34.6278 18.792 35.1998 18.564 35.9198 18.564C36.6398 18.564 37.2078 18.792 37.6238 19.248C38.0478 19.704 38.2598 20.32 38.2598 21.096C38.2598 21.88 38.0478 22.5 37.6238 22.956C37.2078 23.412 36.6398 23.64 35.9198 23.64C35.1998 23.64 34.6278 23.412 34.2038 22.956C33.7798 22.5 33.5678 21.88 33.5678 21.096C33.5678 20.32 33.7798 19.704 34.2038 19.248ZM35.3318 27L41.3318 18.588H43.2758L37.2758 27H35.3318ZM36.6638 20.052C36.4878 19.796 36.2398 19.668 35.9198 19.668C35.5998 19.668 35.3478 19.796 35.1638 20.052C34.9878 20.3 34.8998 20.648 34.8998 21.096C34.8998 21.544 34.9878 21.896 35.1638 22.152C35.3478 22.4 35.5998 22.524 35.9198 22.524C36.2398 22.524 36.4878 22.4 36.6638 22.152C36.8478 21.896 36.9398 21.544 36.9398 21.096C36.9398 20.648 36.8478 20.3 36.6638 20.052ZM41.0438 22.644C41.4678 22.188 42.0398 21.96 42.7598 21.96C43.4798 21.96 44.0478 22.188 44.4638 22.644C44.8878 23.1 45.0998 23.716 45.0998 24.492C45.0998 25.276 44.8878 25.9 44.4638 26.364C44.0478 26.82 43.4798 27.048 42.7598 27.048C42.0398 27.048 41.4678 26.82 41.0438 26.364C40.6198 25.9 40.4078 25.276 40.4078 24.492C40.4078 23.716 40.6198 23.1 41.0438 22.644ZM43.5038 23.448C43.3278 23.192 43.0798 23.064 42.7598 23.064C42.4398 23.064 42.1878 23.192 42.0038 23.448C41.8278 23.696 41.7398 24.044 41.7398 24.492C41.7398 24.94 41.8278 25.292 42.0038 25.548C42.1878 25.804 42.4398 25.932 42.7598 25.932C43.0798 25.932 43.3278 25.804 43.5038 25.548C43.6878 25.292 43.7798 24.94 43.7798 24.492C43.7798 24.044 43.6878 23.696 43.5038 23.448Z" fill="white"/>
</svg>
