<svg width="37" height="37" viewBox="0 0 37 37" fill="none" xmlns="http://www.w3.org/2000/svg">
<path d="M33.4505 12.5041L33.7851 12.1325L33.4505 12.5041L35.2417 14.117C35.3169 14.1848 35.3439 14.2912 35.31 14.3866L34.5024 16.6576C34.3821 16.9959 34.413 17.3695 34.5874 17.6834L35.7578 19.7905C35.8069 19.879 35.7978 19.9884 35.7348 20.0676L34.2335 21.9534C34.0099 22.2343 33.9179 22.5977 33.9809 22.9512L34.4036 25.3242C34.4214 25.4238 34.3773 25.5244 34.292 25.5788L32.2597 26.8749C31.957 27.068 31.752 27.3819 31.6968 27.7366L31.3261 30.1183L31.8202 30.1952L31.3261 30.1183C31.3106 30.2184 31.2362 30.2991 31.1378 30.3229L28.7949 30.8889C28.4459 30.9733 28.15 31.2035 27.9826 31.5211L26.8587 33.6535C26.8115 33.743 26.715 33.7953 26.6142 33.7858L24.2144 33.5604C23.8569 33.5268 23.5023 33.6486 23.2409 33.8946L23.5835 34.2587L23.2409 33.8946L21.4855 35.5465C21.4118 35.6158 21.3035 35.6339 21.2112 35.5922L19.0146 34.5998C18.6875 34.452 18.3125 34.452 17.9854 34.5998L15.7888 35.5922C15.6965 35.6339 15.5882 35.6158 15.5145 35.5465L13.7591 33.8946L13.4165 34.2587L13.7591 33.8946C13.4977 33.6486 13.1431 33.5268 12.7856 33.5604L10.3858 33.7858C10.285 33.7953 10.1885 33.743 10.1413 33.6535L9.0174 31.5211C8.85 31.2035 8.55412 30.9733 8.20514 30.8889L5.86218 30.3229C5.76378 30.2991 5.68943 30.2184 5.67386 30.1183L5.30323 27.7366C5.24803 27.3819 5.04295 27.068 4.74026 26.8749L2.70804 25.5788C2.62269 25.5244 2.57859 25.4238 2.59635 25.3242L3.01914 22.9512C3.08211 22.5977 2.99007 22.2343 2.76646 21.9534L1.26521 20.0676C1.20216 19.9884 1.19309 19.879 1.24225 19.7905L2.41264 17.6834C2.58697 17.3695 2.61793 16.9959 2.49764 16.6576L1.69003 14.3866C1.65611 14.2912 1.68306 14.1848 1.75829 14.117L3.54946 12.5041C3.81625 12.2638 3.96686 11.9205 3.96292 11.5615L3.93648 9.15124C3.93537 9.05002 3.99541 8.95811 4.08856 8.91847L6.3064 7.97451L6.11058 7.51444L6.3064 7.97451C6.63674 7.8339 6.89068 7.55805 7.00352 7.21723L7.76111 4.92902C7.79292 4.83291 7.87956 4.76549 7.98053 4.75823L10.3847 4.58555C10.7428 4.55983 11.0725 4.38138 11.2899 4.09566L12.7495 2.17742C12.8108 2.09685 12.9146 2.06121 13.0124 2.08713L15.3424 2.70444C15.6895 2.79639 16.0593 2.73467 16.3577 2.53502L18.361 1.19462C18.4451 1.13833 18.5549 1.13833 18.639 1.19462L20.6423 2.53502C20.9407 2.73467 21.3105 2.79639 21.6576 2.70444L23.9876 2.08713C24.0854 2.06121 24.1892 2.09685 24.2505 2.17742L24.6485 1.87466L24.2505 2.17742L25.7101 4.09566C25.9275 4.38138 26.2572 4.55983 26.6153 4.58555L29.0195 4.75823C29.1204 4.76549 29.2071 4.83291 29.2389 4.92902L29.9965 7.21723C30.1093 7.55805 30.3633 7.8339 30.6936 7.97451L32.9114 8.91847C33.0046 8.95811 33.0646 9.05002 33.0635 9.15124L33.0371 11.5615C33.0331 11.9205 33.1838 12.2638 33.4505 12.5041Z" fill="#E6CDB5" stroke="#2A1F15"/>
<path d="M18.4824 22.499V21.8662C18.4824 21.4014 18.5801 20.9736 18.7754 20.583C18.9746 20.1924 19.2637 19.8779 19.6426 19.6396C20.0215 19.4014 20.4805 19.2822 21.0195 19.2822C21.5742 19.2822 22.0391 19.4014 22.4141 19.6396C22.7891 19.874 23.0723 20.1865 23.2637 20.5771C23.459 20.9678 23.5566 21.3975 23.5566 21.8662V22.499C23.5566 22.9639 23.459 23.3916 23.2637 23.7822C23.0684 24.1729 22.7813 24.4873 22.4023 24.7256C22.0273 24.9639 21.5664 25.083 21.0195 25.083C20.4727 25.083 20.0098 24.9639 19.6309 24.7256C19.252 24.4873 18.9648 24.1729 18.7695 23.7822C18.5781 23.3916 18.4824 22.9639 18.4824 22.499ZM20.0117 21.8662V22.499C20.0117 22.8076 20.0859 23.0908 20.2344 23.3486C20.3828 23.6064 20.6445 23.7354 21.0195 23.7354C21.3984 23.7354 21.6582 23.6084 21.7988 23.3545C21.9434 23.0967 22.0156 22.8115 22.0156 22.499V21.8662C22.0156 21.5537 21.9473 21.2686 21.8105 21.0107C21.6738 20.749 21.4102 20.6182 21.0195 20.6182C20.6523 20.6182 20.3926 20.749 20.2402 21.0107C20.0879 21.2686 20.0117 21.5537 20.0117 21.8662ZM12.3828 15.6318V14.999C12.3828 14.5303 12.4824 14.1006 12.6816 13.71C12.8809 13.3193 13.1699 13.0068 13.5488 12.7725C13.9277 12.5342 14.3867 12.415 14.9258 12.415C15.4766 12.415 15.9395 12.5342 16.3145 12.7725C16.6934 13.0068 16.9785 13.3193 17.1699 13.71C17.3613 14.1006 17.457 14.5303 17.457 14.999V15.6318C17.457 16.1006 17.3594 16.5303 17.1641 16.9209C16.9727 17.3076 16.6875 17.6182 16.3086 17.8525C15.9297 18.0869 15.4688 18.2041 14.9258 18.2041C14.375 18.2041 13.9102 18.0869 13.5313 17.8525C13.1563 17.6182 12.8711 17.3057 12.6758 16.915C12.4805 16.5244 12.3828 16.0967 12.3828 15.6318ZM13.9238 14.999V15.6318C13.9238 15.9443 13.9961 16.2295 14.1406 16.4873C14.2891 16.7412 14.5508 16.8682 14.9258 16.8682C15.3008 16.8682 15.5586 16.7412 15.6992 16.4873C15.8438 16.2295 15.916 15.9443 15.916 15.6318V14.999C15.916 14.6865 15.8477 14.4014 15.7109 14.1436C15.5742 13.8818 15.3125 13.751 14.9258 13.751C14.5547 13.751 14.2949 13.8818 14.1465 14.1436C13.998 14.4053 13.9238 14.6904 13.9238 14.999ZM13.0508 24.749L21.3008 12.749H22.7656L14.5156 24.749H13.0508Z" fill="#2A1F15"/>
</svg>
