<svg width="37" height="37" viewBox="0 0 37 37" fill="none" xmlns="http://www.w3.org/2000/svg">
<path d="M4.5 9.82178H32.5V15.6535H4.5V9.82178Z" fill="#D2C3E6" stroke="#2A1F15" stroke-width="0.961539" stroke-miterlimit="10" stroke-linecap="round" stroke-linejoin="round"/>
<path d="M27.9037 32.5001H9.23705C7.76425 32.5001 6.57031 31.3396 6.57031 29.9082V15.6528H30.5703V29.9082C30.5703 31.3397 29.3764 32.5001 27.9037 32.5001Z" fill="#D2C3E6" stroke="#2A1F15" stroke-width="0.961539" stroke-miterlimit="10" stroke-linecap="round" stroke-linejoin="round"/>
<path d="M15.832 15.6528V32.5001" stroke="#2A1F15" stroke-width="0.961539" stroke-miterlimit="10" stroke-linecap="round" stroke-linejoin="round"/>
<path d="M21.1641 15.6528V32.5001" stroke="#2A1F15" stroke-width="0.961539" stroke-miterlimit="10" stroke-linecap="round" stroke-linejoin="round"/>
<path d="M14.5 9.82178V15.6535" stroke="#2A1F15" stroke-width="0.961539" stroke-miterlimit="10" stroke-linecap="round" stroke-linejoin="round"/>
<path d="M22.5 9.82178V15.6535V9.82178Z" fill="#E6CDB5"/>
<path d="M22.5 9.82178V15.6535" stroke="#2A1F15" stroke-width="0.961539" stroke-miterlimit="10" stroke-linecap="round" stroke-linejoin="round"/>
<path d="M18.5011 9.8212C18.5011 9.8212 18.1105 5.80061 22.5011 4.6375C26.8917 3.47439 28.2006 10.08 18.5011 9.8212Z" fill="#D2C3E6" stroke="#2A1F15" stroke-width="0.961539" stroke-miterlimit="10" stroke-linecap="round" stroke-linejoin="round"/>
<path d="M19.1572 9.8212C19.1572 9.8212 19.5478 5.80061 15.1572 4.6375C10.7663 3.47439 9.45768 10.08 19.1572 9.8212Z" fill="#D2C3E6" stroke="#2A1F15" stroke-width="0.961539" stroke-miterlimit="10" stroke-linecap="round" stroke-linejoin="round"/>
</svg>
