<svg width="48" height="16" viewBox="0 0 48 16" fill="none" xmlns="http://www.w3.org/2000/svg">
<g clip-path="url(#clip0_1907_72472)">
<path d="M20.9851 15.3222H17.1777L19.5591 0.801758H23.3662L20.9851 15.3222Z" fill="#00579F"/>
<path d="M34.7881 1.15677C34.0372 0.862966 32.8461 0.538574 31.3733 0.538574C27.6134 0.538574 24.9657 2.51572 24.9495 5.34244C24.9183 7.42798 26.8451 8.58635 28.2863 9.28173C29.7593 9.99231 30.26 10.4561 30.26 11.0895C30.245 12.0623 29.0697 12.5107 27.9736 12.5107C26.4535 12.5107 25.6391 12.2795 24.4013 11.7383L23.9 11.5063L23.3672 14.7658C24.2602 15.167 25.9053 15.523 27.6134 15.5386C31.6083 15.5386 34.2091 13.592 34.2399 10.5797C34.2551 8.92675 33.2377 7.66019 31.0441 6.62522C29.7125 5.96083 28.8969 5.51284 28.8969 4.83306C28.9126 4.21507 29.5867 3.5821 31.0899 3.5821C32.3276 3.5511 33.2371 3.84449 33.926 4.13808L34.2703 4.29227L34.7881 1.15677Z" fill="#00579F"/>
<path d="M39.8476 10.1781C40.1611 9.34392 41.3677 6.11541 41.3677 6.11541C41.3518 6.14641 41.6806 5.26583 41.8686 4.72525L42.1347 5.97641C42.1347 5.97641 42.8556 9.45212 43.0122 10.1781C42.4172 10.1781 40.5996 10.1781 39.8476 10.1781ZM44.5473 0.801758H41.6023C40.6941 0.801758 40.0042 1.06414 39.6123 2.00652L33.957 15.322H37.9519C37.9519 15.322 38.6096 13.5298 38.751 13.1438C39.1893 13.1438 43.0755 13.1438 43.6393 13.1438C43.7486 13.6536 44.0936 15.322 44.0936 15.322H47.6188L44.5473 0.801758Z" fill="#00579F"/>
<path d="M13.9976 0.801758L10.269 10.7033L9.86154 8.69513C9.1722 6.378 7.01026 3.86048 4.59766 2.6087L8.01295 15.3068H12.0391L18.0236 0.801758H13.9976Z" fill="#00579F"/>
<path d="M6.80743 0.801758H0.681808L0.619141 1.09515C5.39751 2.30012 8.56213 5.20465 9.86233 8.69575L8.53069 2.02233C8.31146 1.09494 7.63773 0.832349 6.80743 0.801758Z" fill="#FAA61A"/>
</g>
<defs>
<clipPath id="clip0_1907_72472">
<rect width="47" height="15" fill="white" transform="translate(0.619141 0.538574)"/>
</clipPath>
</defs>
</svg>
