<svg width="26" height="27" viewBox="0 0 26 27" fill="none" xmlns="http://www.w3.org/2000/svg">
<path d="M24.8934 10.2062C23.7354 5.7672 20.1648 2.19668 15.6778 1.08665C11.1908 -0.023387 6.31727 1.4244 3.22925 4.89842C-0.582528 9.14445 -1.06503 15.5135 2.02299 20.3385C1.78174 22.0755 1.58874 23.8126 1.34749 25.5496C1.25098 26.1768 2.02299 26.6111 2.55374 26.4663C4.24251 25.9838 5.97952 25.5496 7.66828 25.0671C12.2521 26.9488 17.5599 26.0803 21.2269 22.7028C24.6527 19.5665 26.0519 14.6453 24.8939 10.2062H24.8934ZM21.5158 19.5188C18.6208 23.7649 12.9273 25.3574 8.24728 23.2341H8.19903C8.00603 23.1376 7.76478 23.0893 7.47528 23.1376C6.12427 23.5236 4.77326 23.8614 3.42225 24.2474C3.567 23.0893 3.71175 21.9796 3.8565 20.8216C3.90475 20.4356 4.00125 20.0013 3.80825 19.6153C3.6635 19.3741 3.4705 19.1328 3.32575 18.8433C2.988 18.2643 2.69849 17.6371 2.45724 17.0098C1.68524 14.7903 1.63699 12.3295 2.36074 10.1103C3.61525 6.20201 7.18578 3.25874 11.2388 2.77624C15.4366 2.19723 19.6344 4.22374 21.8053 7.74602C24.0249 11.3648 23.8801 15.9965 21.5158 19.5191V19.5188Z" fill="#2A1F15"/>
<path d="M19.3445 14.9834L17.1732 13.2947C16.4977 12.7639 15.5809 12.8604 15.0019 13.4394L14.3747 14.0667C13.8922 13.7772 13.4579 13.4394 13.0237 13.0534C12.6377 12.6674 12.2999 12.1849 12.0104 11.7024L12.6377 11.0752C13.2167 10.4961 13.2649 9.57939 12.7824 8.90389L11.0937 6.68437C10.7559 6.20187 10.2252 5.91237 9.64615 5.91237C9.06714 5.86412 8.48814 6.10537 8.10214 6.49137L6.22037 8.37313C5.15887 9.43464 4.91762 11.0752 5.59312 12.4262C6.50988 14.1632 7.66789 15.7072 9.01889 17.0582C10.3699 18.4092 11.9622 19.5672 13.6509 20.484C14.1817 20.7735 14.7124 20.87 15.2432 20.87C16.1117 20.87 17.0284 20.5322 17.6557 19.8567L19.5375 17.9749C19.9235 17.5889 20.1647 17.0099 20.1165 16.4309C20.1165 15.8519 19.827 15.3212 19.3445 14.9834ZM18.1865 16.6239L16.3047 18.5057C15.8222 18.9882 15.0984 19.0847 14.5194 18.7952C12.9754 17.9749 11.5762 16.9617 10.3217 15.7072C9.06714 14.4527 8.05389 13.0534 7.23363 11.5094C6.94413 10.9304 7.04063 10.2066 7.52313 9.72414L9.4049 7.84238H9.45315C9.5014 7.84238 9.5014 7.84238 9.5014 7.89063L11.0454 9.91714L10.4182 10.4961C9.93565 10.9787 9.7909 11.7507 10.1287 12.3779C10.5147 13.1499 11.0454 13.8254 11.6244 14.4044C12.2034 14.9834 12.8789 15.5142 13.6509 15.9002C14.2782 16.2379 15.0019 16.0932 15.4844 15.6107L16.1599 14.9352L18.1382 16.4792C18.1382 16.4792 18.1865 16.4792 18.1865 16.5274V16.6239Z" fill="#2A1F15"/>
</svg>
