<?xml version="1.0" encoding="utf-8"?><svg xmlns="http://www.w3.org/2000/svg" xmlns:xlink="http://www.w3.org/1999/xlink"><symbol viewBox="0 0 512 512" id="arrow" xmlns="http://www.w3.org/2000/svg"><path d="M202.1 450a15 15 0 01-10.6-25.61L365.79 250.1 191.5 75.81a15 15 0 0121.21-21.21l184.9 184.9a15 15 0 010 21.21l-184.9 184.9A15 15 0 01202.1 450z"/></symbol><symbol viewBox="0 0 7.531 16" id="fb" xmlns="http://www.w3.org/2000/svg"><path d="M7.531-.002H5.187a3.232 3.232 0 00-3.665 3.43v1.58H.031l-.023 3h1.514v7.988h3.475V8.008h2.007l.489-3h-2.5v-1.22a.867.867 0 011.022-1.032h1.488z" fill-rule="evenodd"/></symbol><symbol viewBox="0 0 32 32" id="gplus" xmlns="http://www.w3.org/2000/svg"><path d="M16.425 18.415c-.897-.634-2.609-2.176-2.609-3.083 0-1.062.303-1.586 1.902-2.835 1.638-1.281 2.799-3.38 2.799-5.476C18.517 4.529 17.405 3 15.321 1h3.144l2.218-1H10.77C6.325 0 2.144 3.362 2.144 7.261c0 3.986 3.029 7.201 7.551 7.201.314 0 .619-.008.919-.028-.294.56-.503 1.192-.503 1.849 0 1.108.596 2.006 1.348 2.74-.567 0-1.118.016-1.717.016C4.235 19.038 0 22.543 0 26.179 0 29.758 4.645 32 10.148 32c6.276 0 9.741-3.562 9.741-7.142.001-2.871-.847-4.589-3.464-6.443zm-5.296-4.967c-2.555-.076-4.981-2.857-5.422-6.209-.44-3.355 1.272-5.922 3.824-5.846 2.554.078 4.981 2.768 5.423 6.122.441 3.355-1.273 6.009-3.825 5.933zm-1.001 16.967c-3.805 0-6.553-2.407-6.553-5.301 0-2.834 3.408-5.195 7.214-5.154.888.01 1.715.152 2.465.395 2.066 1.438 3.548 2.25 3.968 3.885.076.332.121.675.121 1.023 0 2.892-1.865 5.152-7.215 5.152z"/><path d="M27 14V9h-2v5h-5v2h5v5h2v-5h5v-2z"/></symbol><symbol viewBox="0 0 16 16.031" id="picasa" xmlns="http://www.w3.org/2000/svg"><path d="M13.66 2.358a8.008 8.008 0 11-11.325 0 8.009 8.009 0 0111.325 0zM10-.125h1v11.094h-1V-.125zM5.844 10.094h10.375v.844H5.844v-.844zM5 6.687h1v9.438H5V6.687zM.807 12.275L.1 11.568l7.468-7.469.707.708zM2.568-.318l.707-.707L10.9 6.6l-.707.708zM8 4.89a3.047 3.047 0 11-3.047 3.047A3.047 3.047 0 018 4.89z" fill-rule="evenodd"/></symbol><symbol viewBox="0 0 15.688 15.688" id="rss" xmlns="http://www.w3.org/2000/svg"><path d="M.011.01v3.02a12.674 12.674 0 0112.66 12.662h3.023A15.684 15.684 0 00.011.01zm0 5.49v3.02a7.179 7.179 0 017.17 7.172h3.022A10.191 10.191 0 00.011 5.5zM1.86 12a1.849 1.849 0 101.848 1.849 1.849 1.849 0 00-1.848-1.854z" fill-rule="evenodd"/></symbol><symbol viewBox="0 0 16.656 15.156" id="vimeo" xmlns="http://www.w3.org/2000/svg"><path d="M3.643.433s1.733-1 2.324.065c.473.315 1.694 6.868 1.93 8.168s.867 1.773 1.261 1.222a16.128 16.128 0 002.561-3.9c.866-2.049-.276-2.312-.631-2.194s-2.206.158-1.536-.63A13.406 13.406 0 0112.31.8c.827-.551 2.048-1.274 3.073-.091a3.57 3.57 0 01.669 4.766c-1.418 2.561-6.973 9.1-6.973 9.1s-2.009 1.339-2.836 0a61.738 61.738 0 01-3.585-9.219c-.079-.867-.315-1.1-.749-.867S.609 6.026.53 5.632s-.866-.867-.394-1.655A29.927 29.927 0 013.643.433z" fill-rule="evenodd"/></symbol></svg>