<svg width="85" height="155" viewBox="0 0 85 155" fill="none" xmlns="http://www.w3.org/2000/svg">
<path d="M35.0055 101.905L0.000732422 84.9742L1.81082 35.7032L42.7129 0L74.5646 16.989L84.4617 76.9329L38.4505 103.571L35.0055 101.905ZM14.8026 76.0265L37.8374 87.1673L68.5504 69.3888L61.4561 26.3753L44.7566 17.4861L16.0287 42.5456L14.8026 76.0265Z" fill="#2B2A29"/>
<path d="M21.9546 124.479H24.6989V132.52H26.7718V124.479H29.5453V122.637H21.9546V124.479ZM32.8735 122.637V132.52H34.9463V128.924H35.8514L38.2162 132.52H40.6977L37.9534 128.69C39.3256 128.251 40.0846 127.198 40.0846 125.795C40.0846 123.923 38.7125 122.637 36.2893 122.637H32.8735ZM36.1725 124.391C37.2235 124.391 37.9242 124.918 37.9242 125.853C37.9242 126.789 37.2235 127.315 36.1725 127.315H34.9463V124.391H36.1725ZM43.9384 122.637V129.274C43.9384 131.584 45.6025 132.842 47.8505 132.842C50.0693 132.842 51.7626 131.584 51.7626 129.274V122.637H49.6606V129.157C49.6606 130.269 49.0475 131 47.8505 131C46.6535 131 46.0404 130.269 46.0404 129.157V122.637H43.9384ZM56.0251 122.637V132.52H62.5063V130.795H58.0687V128.105H62.2144V126.438H58.0687V124.362H62.5063V122.637H56.0251Z" fill="#2B2A29"/>
<path d="M14.4807 148.252L10.481 139.011L6.51047 148.252L3.445 139.713H0L5.98496 154.275L10.481 145.269L14.977 154.275L20.9328 139.713H17.517L14.4807 148.252ZM34.0121 153.515H37.3403L30.1 138.865L22.8596 153.515H26.1878L27.6476 150.386H32.5231L34.0121 153.515ZM30.1 144.187L31.8517 148.135H28.3483L30.1 144.187ZM40.4642 142.257H44.2887V153.515H47.2082V142.257H51.0619V139.713H40.4642V142.257ZM57.1345 139.713V153.515H66.1849V151.117H59.9664V147.345H65.7762V145.006H59.9664V142.111H66.1849V139.713H57.1345ZM73.4836 139.713V153.515H76.4323V148.486H77.6877L80.9867 153.515H84.4609L80.6072 148.164C82.5341 147.521 83.6143 146.059 83.6143 144.129C83.6143 141.497 81.6582 139.713 78.3008 139.713H73.4836ZM78.0964 142.14C79.6146 142.14 80.578 142.9 80.578 144.187C80.578 145.503 79.6146 146.263 78.0964 146.263H76.4323V142.14H78.0964Z" fill="#2B2A29"/>
</svg>
