<svg width="20" height="20" viewBox="0 0 20 20"  xmlns="http://www.w3.org/2000/svg">
<path d="M6.8 14.8C5.92 14.8 5.208 15.52 5.208 16.4C5.208 17.28 5.92 18 6.8 18C7.68 18 8.4 17.28 8.4 16.4C8.4 15.52 7.68 14.8 6.8 14.8ZM2 2V3.6H3.6L6.48 9.672L5.4 11.632C5.272 11.856 5.2 12.12 5.2 12.4C5.2 13.28 5.92 14 6.8 14H16.4V12.4H7.136C7.024 12.4 6.936 12.312 6.936 12.2L6.96 12.104L7.68 10.8H13.64C14.24 10.8 14.768 10.472 15.04 9.976L17.904 4.784C17.968 4.672 18 4.536 18 4.4C18 3.96 17.64 3.6 17.2 3.6H5.368L4.616 2H2ZM14.8 14.8C13.92 14.8 13.208 15.52 13.208 16.4C13.208 17.28 13.92 18 14.8 18C15.68 18 16.4 17.28 16.4 16.4C16.4 15.52 15.68 14.8 14.8 14.8Z" />
</svg>
