<svg width="169" height="52" viewBox="0 0 169 52" fill="none" xmlns="http://www.w3.org/2000/svg">
<path d="M49.0716 13.8708L48.5581 16.9308L49.4723 16.9221C49.8383 16.9256 50.1558 16.9481 50.4246 16.988C51.6146 17.1685 52.5809 17.6733 53.2852 18.4868C53.986 19.2969 54.352 20.336 54.3399 21.585C54.3381 21.925 54.3139 22.2442 54.2688 22.5391L53.0458 29.5023H53.6477L54.9054 21.8435C55.1691 20.2944 55.7537 19.1079 56.6609 18.2665C57.6324 17.3662 58.8588 16.936 60.3455 16.9568V16.9481H63.5824L63.6588 16.9568C63.8565 16.9655 64.0282 16.9794 64.1722 17.0002C65.2495 17.1546 66.2105 17.6611 66.9061 18.4487C67.1768 18.754 67.4023 19.0957 67.5757 19.4704C68.601 17.9838 69.4631 16.9308 71.8691 16.9308H74.9691L75.0367 16.9395C75.9995 16.9724 76.8773 17.3072 77.5972 17.8242C78.3518 18.3654 78.9433 19.1269 79.2712 19.9492L79.2798 19.9579L79.3631 20.173C79.6355 19.3126 80.1125 18.5944 80.7665 18.0532L80.77 18.0584C81.5228 17.4356 82.4613 17.0748 83.5403 17.0279L83.634 17.0193H86.321L86.3471 17.0279C88.3177 17.0557 89.8824 18.7401 90.9024 19.8364L91.2285 20.1834L93.7075 22.7265L96.8074 4.64036L96.8126 4.64209C96.9566 3.75739 97.3868 2.40952 98.3495 1.40859C99.1371 0.586333 100.214 0 101.665 0L101.673 0.00867356L104.761 0.0260207C106.713 -0.0312248 107.769 0.893377 108.298 2.27594C108.655 3.21095 108.635 4.27607 108.499 5.25791L108.491 5.32557L107.821 9.33969L107.83 9.34143C107.942 9.35878 108.095 9.36745 108.274 9.36745V9.37612L121.073 9.39347C123.09 9.51143 124.462 10.1637 125.362 11.3433C126.228 12.4778 126.488 13.9072 126.343 15.6714L126.325 15.8067L126.06 17.6056C126.723 18.0497 127.212 18.643 127.557 19.3091C128.11 20.3759 128.227 21.6076 128.072 22.664L128.046 22.834L126.889 29.5543L127.387 29.5526L128.794 21.3092L128.799 21.3109C128.993 20.1209 129.359 19.1443 130.036 18.3914C130.848 17.4894 131.921 17.0314 133.389 17.08L141.015 17.0626C142.269 17.021 143.22 17.2829 143.985 17.7288C144.769 18.1867 145.287 18.7973 145.712 19.4635L145.754 19.5311L147.94 23.2504L151.118 19.7081L151.151 19.6664C151.224 19.5901 151.374 19.4218 151.52 19.2605C152.648 18.0063 153.531 17.0245 155.965 17.0453V17.0366H159.182L159.241 17.0453C159.547 17.054 159.845 17.0991 160.137 17.1737H160.145C161.023 17.4009 161.824 17.9178 162.393 18.5996C163.004 19.3316 163.377 20.2701 163.347 21.2832C163.341 21.4948 163.318 21.7065 163.276 21.9164H163.278L160.829 37.7803L160.811 37.8393C160.551 39.2548 159.935 40.3338 159.049 41.0971C158.09 41.9228 156.894 42.3131 155.552 42.3131H88.3281L87.4607 47.4808C87.348 48.4054 87.0895 49.3318 86.5466 50.1054C85.8318 51.1255 84.7893 51.7673 83.2662 51.7083L78.5304 51.691C77.2329 51.6597 76.2597 51.1359 75.5589 50.3778C74.7644 49.5174 74.4001 48.3898 74.3324 47.4149L74.3186 47.2154L74.6915 44.0444L74.3029 42.4814C74.2093 42.2194 74.1451 42.0425 74.1399 42.0356C74.0844 41.9853 74.1503 42.1067 73.9924 42.1119C61.4678 42.3634 48.6448 42.1015 36.0872 42.0963L36.906 44.9013C37.1055 45.564 37.2165 46.2769 37.2096 46.9708C37.2026 47.8521 37.0153 48.7177 36.599 49.4567H36.5903C36.0942 50.3344 35.3274 51.0162 34.2346 51.351C33.7991 51.4828 33.3221 51.5539 32.7982 51.5505L26.1838 51.5678V51.5765C24.6971 51.5765 23.573 50.9745 22.7057 49.9701C22.0222 49.1808 21.5659 48.1695 21.2364 47.0489H21.2311L19.7757 42.1743H9.90001C9.07775 42.1743 8.29193 42.1102 7.54253 41.9905C4.71495 41.5377 2.82411 40.2714 1.62022 38.5661C0.449291 36.9077 0 34.9094 0 32.885C0 32.0835 0.0780621 31.2456 0.21337 30.4043V30.387L3.05656 13.4909C3.62035 10.0353 4.80168 7.30488 6.7914 5.37761C8.83663 3.39483 11.6174 2.34707 15.3106 2.33839L39.0865 2.28462C39.9019 2.30196 40.6409 2.35921 41.3035 2.45809C43.909 2.8484 45.9005 3.85453 47.2709 5.45394C48.6448 7.05681 49.3092 9.16275 49.2572 11.7475C49.2433 12.4396 49.1843 13.1335 49.0802 13.8274L49.0716 13.8708ZM43.8605 18.7609L44.7955 13.2012C44.8805 12.6252 44.9291 12.1118 44.9377 11.6625C44.9672 10.1776 44.648 9.03959 43.9836 8.26591C43.3158 7.48529 42.2125 6.97528 40.6755 6.74456C40.1326 6.66303 39.574 6.61619 39.005 6.60405L15.3106 6.65783C12.823 6.66477 11.0293 7.291 9.80633 8.47754C8.52611 9.71613 7.73855 11.6486 7.32569 14.1952L4.4825 31.0982H4.47903C4.38882 31.6672 4.33678 32.2674 4.33678 32.885C4.33678 34.0958 4.56576 35.232 5.16077 36.0751C5.72282 36.8713 6.68905 37.475 8.21907 37.7213C8.69438 37.7959 9.25122 37.8376 9.90001 37.8376H23.0023L25.3823 45.8138V45.8294C25.5488 46.4018 25.7414 46.8719 25.9756 47.1426C26.0276 47.2033 26.0953 47.2397 26.1838 47.2397V47.2484C28.4094 47.2414 30.635 47.2414 32.8607 47.231C32.8797 47.1512 32.8902 47.0506 32.8902 46.9361C32.8919 46.6794 32.8468 46.3984 32.7635 46.1295C31.8667 43.4546 31.1225 40.5142 30.3228 37.7751C44.884 37.7803 59.4469 37.7925 74.0098 37.7925C75.4062 37.8081 76.3412 38.1758 77.0872 38.868C77.7689 39.5011 78.095 40.2228 78.4142 41.1248L78.4437 41.2064L79.0821 43.7772L78.671 47.2883C78.6762 47.3178 78.6831 47.3473 78.69 47.3715L83.091 47.3871C83.117 47.2675 83.1396 47.12 83.1604 46.9569C83.4935 45.1147 83.7849 43.2499 84.0937 41.4024C84.2897 40.3789 84.7633 39.541 85.4624 38.9339C86.1875 38.3077 87.0947 37.9746 88.1373 37.985V37.9763H155.552C155.867 37.9763 156.105 37.9226 156.237 37.8098C156.37 37.6953 156.478 37.4698 156.549 37.1194H156.542L158.974 21.3734H155.965L155.947 21.3647C155.456 21.3595 155.141 21.7099 154.738 22.1575C154.629 22.2789 154.514 22.4073 154.303 22.6311L154.301 22.6293L147.206 30.5327L142.043 21.7412C141.964 21.6215 141.882 21.5208 141.799 21.4723C141.686 21.4081 141.488 21.3717 141.15 21.3821C138.52 21.3821 135.889 21.3994 133.259 21.3994C133.217 21.3994 133.245 21.337 133.262 21.2988V21.2797L133.255 21.2884C133.188 21.3613 133.127 21.6197 133.063 22.0118V22.0378L131.045 33.8599L121.749 33.8928C122.269 30.8675 123.777 24.4768 123.777 22.0898C123.789 22.0222 123.78 22.0812 123.786 22.0465V22.0378C123.826 21.7672 123.812 21.4862 123.711 21.2901C123.676 21.2225 123.581 21.16 123.399 21.1288C123.336 21.1184 123.409 21.1271 123.364 21.1201L121.21 20.8061L122.027 15.2672C122.08 14.5889 122.056 14.1431 121.923 13.9696C121.822 13.8361 121.473 13.7528 120.818 13.7129L108.274 13.6956V13.7042C107.932 13.7042 107.556 13.6747 107.153 13.6106C106.305 13.4752 105.477 13.1751 104.823 12.6669C103.96 11.9938 103.41 11.0536 103.41 9.79245C103.41 9.61204 103.429 9.39694 103.469 9.14888V9.13153L104.222 4.61434C104.234 4.52066 104.246 4.42872 104.255 4.34372L101.665 4.32811V4.33678C101.567 4.33678 101.505 4.36627 101.467 4.40617C101.236 4.6473 101.12 5.05669 101.077 5.33598V5.36894L96.5402 31.8268L88.1286 23.1983C87.9742 23.0422 87.8597 22.919 87.7348 22.7837C87.2387 22.2494 86.491 21.4463 86.321 21.3561H83.634C83.5767 21.3613 83.542 21.3699 83.5282 21.3821V21.3907C83.5125 21.4029 83.4969 21.4358 83.4813 21.4879C83.313 22.4975 83.1257 23.6927 82.9297 24.9868C82.6886 26.5827 82.5324 27.6409 82.3867 28.6488L81.2088 36.736L75.2466 21.533L75.2518 21.5313C75.2206 21.4636 75.1582 21.3907 75.0732 21.33C75.0333 21.3005 74.9916 21.2797 74.9517 21.2676H71.8691C71.5881 21.2676 71.321 21.6596 70.9532 22.1991C70.8405 22.3657 70.7225 22.5374 70.6254 22.6744C70.1327 23.3735 69.5828 24.1437 68.823 25.2054C68.3824 25.8247 67.7093 26.7579 66.6876 28.1717L61.2874 35.6449C62.075 30.9126 62.9631 26.1213 63.6588 21.3838C63.6605 21.3266 63.6761 21.3196 63.6709 21.3127C63.664 21.304 63.6258 21.2953 63.5616 21.2867L60.3455 21.2849L60.3108 21.278C59.9638 21.271 59.7296 21.3231 59.6082 21.4341C59.4156 21.6128 59.2717 21.984 59.1745 22.5547L57.3166 33.839H47.8833L49.9857 21.8782C50.0083 21.7255 50.0204 21.6163 50.0204 21.5503C50.0222 21.3977 50.0204 21.3214 50.0152 21.3144C50.0118 21.3109 49.932 21.2971 49.7811 21.2745C49.6527 21.2554 49.5434 21.245 49.4549 21.2416L43.4337 21.304L43.8605 18.7609ZM133.262 21.2988C133.273 21.2763 133.28 21.2624 133.262 21.2797V21.2988ZM17.1598 12.9913H37.1593L34.0021 31.4417H28.4493C27.6531 28.6887 26.803 25.9218 26.0519 23.1619C26.0415 23.1203 26.0294 23.0786 26.0155 23.037C25.9652 22.8843 25.9149 22.7941 25.8698 22.7698C25.816 22.7421 25.698 22.7473 25.5194 22.7907L25.4344 22.8115L20.1036 24.8775C19.9752 24.9538 19.8937 25.0215 19.8711 25.0735C19.826 25.1828 19.8486 25.417 19.9544 25.8073H19.9527L21.6163 31.2318L12.2557 31.1468L15.3314 12.9913H17.1598ZM32.0228 17.328H18.9864L18.381 20.9085L23.9147 18.7644L24.0171 18.7314C24.1958 18.6707 24.3588 18.6239 24.5028 18.5892C25.757 18.2856 26.9349 18.4313 27.9358 18.976C28.9454 19.5225 29.7052 20.4384 30.1163 21.6648C30.1632 21.8071 30.2066 21.9545 30.2447 22.1089L30.8484 24.194L32.0228 17.328Z" fill="#FEFEFE"/>
<path fill-rule="evenodd" clip-rule="evenodd" d="M46.9376 13.5151L45.9956 19.1165L49.4546 19.0818C51.4235 19.0991 52.4349 20.1851 52.1261 22.2164L50.4642 31.6706H55.4828L57.0405 22.1991C57.3996 20.081 58.496 19.0818 60.3452 19.1165H63.5821C64.9508 19.1703 66.0125 20.2024 65.7904 21.7619L64.9335 26.9088C66.63 24.5635 67.6049 23.1965 68.8557 21.4289C69.7803 20.1157 70.259 19.0991 71.8689 19.0991H74.9688C76.0304 19.1356 76.9203 19.8884 77.2638 20.7454L80.2423 28.3451C80.6014 25.8767 80.9622 23.4238 81.356 21.0784C81.6127 19.9405 82.435 19.2396 83.6337 19.1876H86.3207C87.5368 19.2049 88.9592 20.9553 89.6774 21.6908L95.1227 27.2766L98.9408 5.00459C99.0952 4.02448 99.763 2.16833 101.664 2.16833L104.815 2.18568C106.459 2.13364 106.544 3.60468 106.355 4.9699L105.602 9.48709C105.363 10.9928 106.886 11.5358 108.274 11.5358L120.946 11.5531C123.617 11.711 124.387 13.0242 124.181 15.4927L123.669 18.9777C125.706 19.2743 126.151 21.0958 125.912 22.461L124.32 31.7244L129.217 31.707L130.929 21.6734C131.186 20.081 131.784 19.1876 133.326 19.2396L141.082 19.2223C142.675 19.1703 143.377 19.8173 143.891 20.6222L147.573 26.8915L152.727 21.1478C153.72 20.0983 154.25 19.1876 155.964 19.2049H159.182C160.348 19.2396 161.442 20.395 161.135 21.5867L158.686 37.4489C158.343 39.3051 157.161 40.1447 155.551 40.1447H88.137C87.1257 40.1273 86.4248 40.7414 86.2184 41.8083L85.3111 47.2188C85.1568 48.4626 84.6953 49.6006 83.3422 49.5485L78.5822 49.5295C77.1268 49.4948 76.5613 48.2701 76.4919 47.2709L76.8856 43.9107L76.3722 41.8447C75.9454 40.6356 75.5673 39.9712 73.9921 39.9521L33.2038 39.9348L34.831 45.5032C35.3618 47.2362 35.0184 49.408 32.8101 49.3907L26.1835 49.408C24.6083 49.408 23.8034 48.1296 23.3073 46.4313L21.3887 40.0059H9.89971C2.77525 40.0059 1.64595 35.1209 2.34677 30.7425L5.18997 13.8464C6.16661 7.84258 9.12777 4.5154 15.3103 4.49805L39.0429 4.44428C45.156 4.56744 47.8101 7.68472 46.9376 13.5151ZM17.1595 15.1596H34.5916L32.1769 29.2732H30.071L28.1524 22.6536C27.7412 20.9553 26.3725 20.2198 24.6933 20.7801L19.1804 22.9172C17.9297 23.599 17.3815 24.5982 17.862 26.3658L18.6826 29.0442L14.8124 29.0095L17.1595 15.1596Z" fill="#090D1F"/>
<path fill-rule="evenodd" clip-rule="evenodd" d="M7.75723 14.3373C8.22039 11.5878 9.0253 9.69697 10.2066 8.68216C11.388 7.66562 13.4263 7.15908 16.3024 7.15908L38.1182 7.12439C40.9943 7.12439 42.8435 7.63093 43.7005 8.63012C44.5401 9.64493 44.7274 11.5358 44.266 14.2853L41.6101 30.2707C41.1487 33.0375 40.3265 34.9284 39.1451 35.9432C37.9638 36.9406 35.9428 37.4489 33.0667 37.4489H29.8644L32.5359 46.8857H26.0463L23.4252 37.4663L11.2509 37.4836C8.37478 37.4836 6.50823 36.9944 5.66863 35.9779C4.82903 34.9804 4.62434 33.0896 5.08577 30.3227L7.75723 14.3373ZM11.7471 31.7764L21.9021 31.759L20.2402 25.1932L25.5831 23.1271L28.1522 31.759L34.4874 31.7417L37.6897 12.5523L14.9493 12.587L11.7471 31.7764Z" stroke="#2B2A29" stroke-width="0.0202"/>
<path fill-rule="evenodd" clip-rule="evenodd" d="M7.75723 14.3373C8.22039 11.5878 9.0253 9.69697 10.2066 8.68216C11.388 7.66562 13.4263 7.15908 16.3024 7.15908L38.1182 7.12439C40.9943 7.12439 42.8435 7.63093 43.7005 8.63012C44.5401 9.64493 44.7274 11.5358 44.266 14.2853L41.6101 30.2707C41.1487 33.0375 40.3265 34.9284 39.1451 35.9432C37.9638 36.9406 35.9428 37.4489 33.0667 37.4489H29.8644L32.5359 46.8857H26.0463L23.4251 37.4663L11.2509 37.4836C8.37478 37.4836 6.50823 36.9944 5.66863 35.9779C4.82903 34.9804 4.62434 33.0896 5.08577 30.3227L7.75723 14.3373ZM11.7471 31.7764L21.9021 31.759L20.2402 25.1932L25.5831 23.1271L28.1522 31.759L34.4874 31.7417L37.6897 12.5523L14.9493 12.587L11.7471 31.7764Z" fill="#EF7F1A"/>
<path fill-rule="evenodd" clip-rule="evenodd" d="M123.375 21.8311L121.271 34.5067L131.39 34.4893L133.495 21.8138H137.022L135.038 33.7365C134.816 35.1555 134.387 36.1356 133.787 36.6438C133.171 37.1695 132.127 37.4314 130.654 37.4314L121.014 37.4487C119.54 37.4487 118.58 37.1868 118.136 36.6612C117.708 36.1529 117.605 35.1901 117.845 33.7538L119.831 21.8485L123.375 21.8311ZM136.065 37.4141L138.649 21.8138H141.527L147.144 31.2333L155.74 21.7964H158.598L155.996 37.3967H152.709L154.302 27.7673C154.336 27.5748 154.387 27.3284 154.456 27.0491C154.524 26.7681 154.626 26.4351 154.713 26.0846C154.456 26.4888 154.232 26.8219 154.045 27.0838C153.856 27.3458 153.684 27.5748 153.549 27.7309L146.527 35.5406H145.808L141.373 27.7135C141.201 27.4169 141.064 27.1359 140.962 26.8739C140.859 26.6276 140.773 26.3657 140.722 26.1211C140.705 26.4541 140.67 26.7508 140.637 27.0144C140.62 27.2764 140.568 27.5383 140.535 27.7847L138.923 37.4141H136.065ZM114.745 16.5958L111.321 37.3794H107.759L111.201 16.6131H104.196L104.625 13.8289L122.109 13.7769L121.783 16.5958H114.745ZM49.5735 21.7444L47.4676 34.4026L57.5705 34.3852L59.6938 21.7253H63.2205L61.2342 33.6324C60.9949 35.067 60.5837 36.0298 59.9679 36.5554C59.3677 37.0636 58.3234 37.3256 56.8333 37.3256L47.2108 37.3447C45.7381 37.3447 44.7788 37.081 44.3329 36.5727C43.9062 36.0488 43.8021 35.0861 44.0259 33.6671L46.0121 21.7444H49.5735ZM68.4437 31.0928L75.1224 31.0754L72.895 24.7368L68.4437 31.0928ZM60.5837 37.3256L71.8004 21.708H75.2247L80.3785 36.2223L79.3342 42.4031L76.132 33.8943L66.4575 33.9117L64.1104 37.3256H60.5837Z" stroke="#2B2A29" stroke-width="0.0224" stroke-linecap="round" stroke-linejoin="round"/>
<path fill-rule="evenodd" clip-rule="evenodd" d="M123.375 21.8311L121.271 34.5067L131.39 34.4893L133.495 21.8138H137.022L135.038 33.7365C134.816 35.1555 134.387 36.1356 133.787 36.6438C133.171 37.1695 132.127 37.4314 130.654 37.4314L121.014 37.4487C119.54 37.4487 118.58 37.1868 118.136 36.6612C117.708 36.1529 117.605 35.1901 117.845 33.7538L119.831 21.8485L123.375 21.8311ZM136.065 37.4141L138.649 21.8138H141.527L147.144 31.2333L155.74 21.7964H158.598L155.996 37.3967H152.709L154.302 27.7673C154.336 27.5748 154.387 27.3284 154.456 27.0491C154.524 26.7681 154.626 26.4351 154.713 26.0846C154.456 26.4888 154.232 26.8219 154.045 27.0838C153.856 27.3458 153.684 27.5748 153.549 27.7309L146.527 35.5406H145.808L141.373 27.7135C141.201 27.4169 141.064 27.1359 140.962 26.8739C140.859 26.6276 140.773 26.3657 140.722 26.1211C140.705 26.4541 140.67 26.7508 140.637 27.0144C140.62 27.2764 140.568 27.5383 140.535 27.7847L138.923 37.4141H136.065ZM114.745 16.5958L111.321 37.3794H107.759L111.201 16.6131H104.196L104.625 13.8289L122.109 13.7769L121.783 16.5958H114.745ZM49.5735 21.7444L47.4676 34.4026L57.5705 34.3852L59.6938 21.7253H63.2205L61.2342 33.6324C60.9949 35.067 60.5837 36.0298 59.9679 36.5554C59.3677 37.0636 58.3234 37.3256 56.8333 37.3256L47.2108 37.3447C45.7381 37.3447 44.7788 37.081 44.3329 36.5727C43.9062 36.0488 43.8021 35.0861 44.0259 33.6671L46.0121 21.7444H49.5735ZM68.4437 31.0928L75.1224 31.0754L72.895 24.7368L68.4437 31.0928ZM60.5837 37.3256L71.8004 21.708H75.2247L80.3785 36.2223L79.3342 42.4031L76.132 33.8943L66.4575 33.9117L64.1104 37.3256H60.5837Z" fill="#FEFEFE"/>
<path fill-rule="evenodd" clip-rule="evenodd" d="M79.3174 46.7107L83.4963 21.5868H85.9266C90.5167 26.3313 92.5376 28.3973 96.5778 32.4583C98.2917 22.2512 99.0792 17.3663 101.201 4.5155H104.25C102.399 15.406 100.689 26.2792 98.8381 37.1697H96.4251C92.2289 32.8624 89.6597 30.2361 85.8763 26.3659C84.3689 35.4888 84.3359 35.8566 82.5023 46.7107H79.3174Z" stroke="#2B2A29" stroke-width="0.0202"/>
<path fill-rule="evenodd" clip-rule="evenodd" d="M79.3174 46.7107L83.4963 21.5868H85.9266C90.5167 26.3313 92.5376 28.3973 96.5778 32.4583C98.2917 22.2512 99.0792 17.3663 101.201 4.5155H104.25C102.399 15.406 100.689 26.2792 98.8381 37.1697H96.4251C92.2289 32.8624 89.6597 30.2361 85.8763 26.3659C84.3689 35.4888 84.3359 35.8566 82.5023 46.7107H79.3174Z" fill="#D9DADA"/>
<path fill-rule="evenodd" clip-rule="evenodd" d="M165.09 11.2741C166.513 11.2741 167.659 12.4468 167.659 13.9005C167.659 15.3542 166.513 16.5268 165.09 16.5268C163.67 16.5268 162.523 15.3542 162.523 13.9005C162.523 12.4468 163.67 11.2741 165.09 11.2741ZM165.09 10.9064C166.7 10.9064 168.001 12.2542 168.001 13.9005C168.001 15.5467 166.7 16.8946 165.09 16.8946C163.463 16.8946 162.162 15.5467 162.162 13.9005C162.162 12.2542 163.463 10.9064 165.09 10.9064ZM164.013 15.3368V12.4641H165.245C165.501 12.4641 165.691 12.4815 165.81 12.5353C165.947 12.5873 166.05 12.6914 166.136 12.8146C166.204 12.9377 166.239 13.0938 166.239 13.2517C166.239 13.4443 166.187 13.6195 166.05 13.76C165.93 13.9005 165.723 13.9872 165.451 14.0237C165.553 14.0757 165.621 14.1277 165.673 14.1624C165.793 14.2682 165.897 14.3897 165.98 14.5475L166.478 15.3368H166.015L165.64 14.7401C165.536 14.5649 165.434 14.4261 165.364 14.3376C165.297 14.2509 165.245 14.1798 165.177 14.1451C165.125 14.1104 165.075 14.093 165.005 14.0757C164.971 14.0583 164.903 14.0583 164.799 14.0583H164.372V15.3368H164.013ZM164.372 13.7253H165.177C165.349 13.7253 165.467 13.7079 165.571 13.6732C165.673 13.6368 165.743 13.5848 165.793 13.498C165.845 13.4269 165.862 13.3402 165.862 13.2517C165.862 13.1129 165.81 13.0071 165.723 12.9204C165.621 12.8319 165.467 12.7799 165.262 12.7799H164.372V13.7253Z" fill="#FEFEFE" stroke="#FEFEFE" stroke-width="0.0202"/>
</svg>
