<svg width="38" height="39" viewBox="0 0 38 39" fill="none" xmlns="http://www.w3.org/2000/svg">
<path d="M37.8546 8.93775L37.4585 11.2983L36.0655 20.5987C34.6336 28.3481 33.1951 30.0878 27.8249 30.5481L27.8383 30.7114L28.4699 32.8752C28.6238 33.3864 28.7095 33.9364 28.7041 34.4717C28.6988 35.1515 28.5542 35.8192 28.2331 36.3893H28.2264C27.8437 37.0664 27.2522 37.5923 26.4091 37.8506C26.0732 37.9523 25.7052 38.0072 25.3011 38.0045L20.1986 38.0179V38.0246C19.0518 38.0246 18.1846 37.5602 17.5155 36.7854C16.9883 36.1765 16.6363 35.3964 16.3821 34.5319H16.3781L15.2553 30.7716H7.63703C7.00273 30.7716 6.39653 30.7221 5.81844 30.6298C3.63719 30.2805 2.17857 29.3036 1.24987 27.9882C0.34659 26.7089 0 25.1673 0 23.6056C0 22.9874 0.0602184 22.341 0.164597 21.692V21.6786L2.35789 8.64469C2.7928 5.97902 3.7041 3.87271 5.239 2.38599C6.81672 0.856439 8.96184 0.0481747 11.8108 0.0414838L30.152 0C30.781 0.0133819 31.351 0.057542 31.8622 0.133819C33.8722 0.434911 35.4084 1.21106 36.4656 2.44487C37.5254 3.68135 38.038 5.30591 37.9978 7.29981C37.9871 7.83375 37.9416 8.36902 37.8613 8.90429L37.8546 8.93775ZM33.8347 12.7101L34.556 8.42121C34.6216 7.97693 34.659 7.58083 34.6657 7.23424C34.6885 6.08875 34.4423 5.2109 33.9297 4.61407C33.4145 4.01188 32.5634 3.61846 31.3778 3.44048C30.959 3.37758 30.5281 3.34145 30.0891 3.33208L11.8108 3.37357C9.89188 3.37892 8.50819 3.86201 7.56477 4.77733C6.57719 5.73279 5.96965 7.22353 5.65116 9.18799L3.45787 22.2273H3.4552C3.38561 22.6662 3.34547 23.1292 3.34547 23.6056C3.34547 24.5397 3.52211 25.4162 3.98111 26.0665C4.41468 26.6808 5.16005 27.1465 6.34033 27.3365C6.70699 27.394 7.13655 27.4261 7.63703 27.4261H17.7444L19.5803 33.5791V33.5912C19.7088 34.0328 19.8574 34.3954 20.038 34.6042C20.0782 34.651 20.1303 34.6791 20.1986 34.6791V34.6858C21.9155 34.6804 23.6324 34.6804 25.3493 34.6724C25.364 34.6109 25.372 34.5332 25.372 34.4449C25.3734 34.2469 25.3386 34.0301 25.2743 33.8227C24.5825 31.7592 24.0084 29.491 23.3915 27.378L31.5571 26.7851L33.5055 14.6719L33.8347 12.7101ZM13.2373 8.25929H28.6653L26.2298 22.4922H21.9463C21.332 20.3685 20.6763 18.2341 20.0969 16.1051C20.0889 16.073 20.0795 16.0408 20.0688 16.0087C20.03 15.891 19.9912 15.8214 19.9564 15.8026C19.9149 15.7812 19.8239 15.7852 19.6861 15.8187L19.6205 15.8348L15.5082 17.4285C15.4092 17.4874 15.3463 17.5396 15.3289 17.5798C15.2941 17.6641 15.3115 17.8447 15.3932 18.1458H15.3918L16.6751 22.3303L9.45429 22.2647L11.8269 8.25929H13.2373ZM24.7029 11.6048H14.6465L14.1794 14.3668L18.4482 12.7128L18.5272 12.6873C18.665 12.6405 18.7908 12.6044 18.9019 12.5776C19.8694 12.3434 20.778 12.4558 21.5502 12.876C22.329 13.2976 22.9151 14.0041 23.2323 14.9502C23.2684 15.06 23.3018 15.1737 23.3313 15.2928L23.797 16.9013L24.7029 11.6048Z" fill="#FEFEFE"/>
<path fill-rule="evenodd" clip-rule="evenodd" d="M36.2089 8.66327L35.4822 12.9843C34.9269 16.5238 35.4608 13.3536 34.8694 16.8878C33.8135 23.204 33.8965 28.6906 27.6164 29.0559L25.6145 29.0439L26.8697 33.3394C27.2792 34.6763 27.0142 36.3517 25.3107 36.3383L20.1988 36.3517C18.9837 36.3517 18.3628 35.3654 17.9801 34.0554L16.5001 29.0987H7.63725C2.14132 29.0987 1.27016 25.3304 1.81078 21.9528L4.00407 8.91887C4.75747 4.2874 7.04176 1.72076 11.8111 1.70738L30.1188 1.66589C34.8346 1.7609 36.882 4.16563 36.2089 8.66327ZM13.2376 9.93187H26.685L24.8222 20.8194H23.1977L21.7177 15.7128C21.4005 14.4028 20.3447 13.8354 19.0493 14.2676L14.7965 15.9162C13.8317 16.4422 13.4088 17.2129 13.7795 18.5766L14.4125 20.6427L11.427 20.616L13.2376 9.93187Z" fill="#090D1F"/>
<path fill-rule="evenodd" clip-rule="evenodd" d="M5.98406 9.29782C6.34135 7.1768 6.96227 5.71817 7.87358 4.93533C8.78488 4.15116 10.3573 3.76041 12.576 3.76041L29.405 3.73364C31.6237 3.73364 33.0502 4.12439 33.7113 4.89519C34.359 5.67803 34.5035 7.13665 34.1475 9.25768L32.0988 21.5891C31.7428 23.7235 31.1085 25.1821 30.1972 25.9649C29.2859 26.7344 27.7269 27.1265 25.5082 27.1265H23.0379L25.0987 34.4062H20.0926L18.0706 27.1399L8.67916 27.1532C6.46045 27.1532 5.02056 26.7759 4.37288 25.9917C3.7252 25.2222 3.56729 23.7636 3.92325 21.6292L5.98406 9.29782ZM9.06189 22.7506L16.8956 22.7372L15.6136 17.6722L19.7353 16.0784L21.7171 22.7372L26.6042 22.7238L29.0745 7.92083L11.5322 7.94759L9.06189 22.7506Z" stroke="#2B2A29" stroke-width="0.0202"/>
<path fill-rule="evenodd" clip-rule="evenodd" d="M5.98406 9.29782C6.34135 7.1768 6.96227 5.71817 7.87358 4.93533C8.78488 4.15116 10.3573 3.76041 12.576 3.76041L29.405 3.73364C31.6237 3.73364 33.0502 4.12439 33.7113 4.89519C34.359 5.67803 34.5035 7.13665 34.1475 9.25768L32.0988 21.5891C31.7428 23.7235 31.1085 25.1821 30.1972 25.9649C29.2859 26.7344 27.7269 27.1265 25.5082 27.1265H23.0379L25.0987 34.4062H20.0926L18.0706 27.1399L8.67916 27.1532C6.46045 27.1532 5.02056 26.7759 4.37288 25.9917C3.7252 25.2222 3.56729 23.7636 3.92325 21.6292L5.98406 9.29782ZM9.06189 22.7506L16.8956 22.7372L15.6136 17.6722L19.7353 16.0784L21.7171 22.7372L26.6042 22.7239L29.0745 7.92083L11.5322 7.94759L9.06189 22.7506Z" fill="#EF7F1A"/>
</svg>
