<svg width="51" height="51" viewBox="0 0 51 51" fill="none" xmlns="http://www.w3.org/2000/svg">
<rect width="51" height="51" rx="25.5" fill="#322B89"/>
<path d="M36.0305 25.0305H13.9695C13.4341 25.0305 13 25.4645 13 26C13 26.5354 13.4341 26.9695 13.9695 26.9695H36.0305C36.566 26.9695 37 26.5354 37 26C37 25.4646 36.566 25.0305 36.0305 25.0305Z" fill="white"/>
<path d="M36.0305 17.6769H13.9695C13.4341 17.6769 13 18.1109 13 18.6463C13 19.1818 13.4341 19.6158 13.9695 19.6158H36.0305C36.566 19.6158 37 19.1818 37 18.6463C37 18.1109 36.566 17.6769 36.0305 17.6769Z" fill="white"/>
<path d="M36.0305 32.3843H13.9695C13.4341 32.3843 13 32.8183 13 33.3537C13 33.8892 13.4341 34.3232 13.9695 34.3232H36.0305C36.566 34.3232 37 33.8892 37 33.3537C37 32.8183 36.566 32.3843 36.0305 32.3843Z" fill="white"/>
</svg>
