<svg width="25" height="25" viewBox="0 0 25 25" fill="none" xmlns="http://www.w3.org/2000/svg">
<circle cx="12.5" cy="12.5" r="12.5" fill="#F37908"/>
<path d="M18.5855 15.9225C18.5855 15.8639 18.5855 15.8053 18.5604 15.7467C18.5018 15.5709 18.0917 15.3868 17.9242 15.303C17.4471 15.0352 16.9616 14.7757 16.4929 14.4995C16.2753 14.3655 16.0074 14.1144 15.7479 14.1144C15.2373 14.1144 14.4923 15.6295 14.0403 15.6295C13.8143 15.6295 13.5213 15.4202 13.3205 15.303C11.797 14.4576 10.7423 13.4029 9.8969 11.8795C9.77972 11.6786 9.57045 11.3856 9.57045 11.1596C9.57045 10.7076 11.0855 9.96265 11.0855 9.45204C11.0855 9.19256 10.8344 8.9247 10.7005 8.70707C10.4242 8.23832 10.1648 7.75282 9.8969 7.2757C9.8132 7.10829 9.62905 6.69814 9.45326 6.63954C9.39467 6.61443 9.33608 6.61443 9.27748 6.61443C8.97614 6.61443 8.39021 6.74836 8.11398 6.87392C7.70382 7.0497 7.43597 7.51845 7.2267 7.89512C6.95884 8.38899 6.7998 8.89122 6.7998 9.45204C6.7998 10.2305 7.11789 10.9336 7.37737 11.6451C7.56152 12.1557 7.78753 12.6496 8.07213 13.11C8.95103 14.533 10.667 16.2489 12.09 17.1278C12.5504 17.4124 13.0442 17.6384 13.5548 17.8226C14.2663 18.0821 14.9694 18.4001 15.7479 18.4001C16.3087 18.4001 16.811 18.2411 17.3048 17.9732C17.6815 17.764 18.1503 17.4961 18.326 17.086C18.4516 16.8097 18.5855 16.2238 18.5855 15.9225Z" fill="white"/>
</svg>
