<?xml version="1.0" encoding="utf-8"?><svg xmlns="http://www.w3.org/2000/svg" xmlns:xlink="http://www.w3.org/1999/xlink"><symbol viewBox="0 0 50 50" id="close" xmlns="http://www.w3.org/2000/svg"><path d="M9.156 6.313L6.312 9.155 22.157 25 6.22 40.969l2.81 2.811L25 27.844 40.938 43.78l2.843-2.843L27.844 25 43.687 9.156l-2.843-2.844L25 22.157z"/></symbol><symbol viewBox="20 5 20 49" id="fb" xmlns="http://www.w3.org/2000/svg"><path d="M40.43 21.739h-7.645v-5.014c0-1.883 1.248-2.322 2.127-2.322h5.395V6.125l-7.43-.029c-8.248 0-10.125 6.174-10.125 10.125v5.518h-4.77v8.53h4.77v24.137h10.033V30.269h6.77l.875-8.53z"/></symbol><symbol viewBox="0 0 15 15" id="heart" xmlns="http://www.w3.org/2000/svg"><path d="M13.91 6.75c-1.17 2.25-4.3 5.31-6.07 6.94a.5.5 0 01-.67 0C5.39 12.06 2.26 9 1.09 6.75-1.48 1.8 5-1.5 7.5 3.45c2.5-4.95 8.98-1.65 6.41 3.3z"/></symbol><symbol viewBox="3 3 18 18" id="inst" xmlns="http://www.w3.org/2000/svg"><path d="M8 3C5.243 3 3 5.243 3 8v8c0 2.757 2.243 5 5 5h8c2.757 0 5-2.243 5-5V8c0-2.757-2.243-5-5-5H8zm0 2h8c1.654 0 3 1.346 3 3v8c0 1.654-1.346 3-3 3H8c-1.654 0-3-1.346-3-3V8c0-1.654 1.346-3 3-3zm9 1a1 1 0 00-1 1 1 1 0 001 1 1 1 0 001-1 1 1 0 00-1-1zm-5 1c-2.757 0-5 2.243-5 5s2.243 5 5 5 5-2.243 5-5-2.243-5-5-5zm0 2c1.654 0 3 1.346 3 3s-1.346 3-3 3-3-1.346-3-3 1.346-3 3-3z"/></symbol><symbol viewBox="0 0 30 30" id="menu" xmlns="http://www.w3.org/2000/svg"><path d="M3 7a1 1 0 100 2h24a1 1 0 100-2H3zm0 7a1 1 0 100 2h24a1 1 0 100-2H3zm0 7a1 1 0 100 2h24a1 1 0 100-2H3z"/></symbol><symbol viewBox="3 3 26 26" id="tw" xmlns="http://www.w3.org/2000/svg"><path d="M28 6.937c-.957.425-1.985.711-3.064.84a5.343 5.343 0 002.345-2.951 10.696 10.696 0 01-3.388 1.295 5.334 5.334 0 00-9.089 4.864A15.143 15.143 0 013.809 5.411a5.321 5.321 0 00-.721 2.683 5.33 5.33 0 002.372 4.439 5.323 5.323 0 01-2.416-.667v.067a5.335 5.335 0 004.279 5.23 5.336 5.336 0 01-2.409.092 5.34 5.34 0 004.983 3.705 10.699 10.699 0 01-6.625 2.284c-.43 0-.855-.025-1.273-.075a15.102 15.102 0 008.177 2.396c9.812 0 15.176-8.128 15.176-15.177 0-.231-.005-.461-.015-.69A10.855 10.855 0 0028 6.937z"/></symbol></svg>