<svg width="246" height="245" viewBox="0 0 246 245" fill="none" xmlns="http://www.w3.org/2000/svg">
<path d="M228.62 127.346C228.661 126.572 228.826 125.861 229.113 125.213C229.4 124.575 229.785 124.025 230.268 123.565C230.75 123.115 231.307 122.771 231.936 122.534C232.565 122.306 233.244 122.212 233.97 122.251C234.697 122.291 235.361 122.457 235.962 122.752C236.563 123.055 237.078 123.461 237.509 123.971C237.939 124.48 238.263 125.068 238.479 125.734C238.695 126.4 238.783 127.115 238.742 127.879C238.7 128.653 238.536 129.354 238.249 129.984C237.962 130.622 237.578 131.167 237.095 131.618C236.612 132.078 236.056 132.426 235.426 132.663C234.806 132.901 234.128 132.999 233.391 132.96C232.664 132.92 231.996 132.749 231.386 132.445C230.786 132.141 230.27 131.735 229.84 131.225C229.418 130.726 229.099 130.143 228.883 129.477C228.666 128.82 228.578 128.11 228.62 127.346ZM230.55 127.436C230.526 127.874 230.579 128.279 230.708 128.65C230.837 129.031 231.034 129.369 231.298 129.664C231.563 129.958 231.882 130.191 232.256 130.36C232.63 130.54 233.049 130.642 233.515 130.667C233.981 130.692 234.41 130.636 234.8 130.498C235.191 130.37 235.533 130.173 235.828 129.909C236.122 129.654 236.354 129.344 236.523 128.979C236.692 128.614 236.789 128.213 236.812 127.775C236.836 127.337 236.783 126.927 236.654 126.546C236.525 126.175 236.328 125.842 236.064 125.547C235.799 125.252 235.48 125.015 235.107 124.836C234.733 124.667 234.312 124.569 233.847 124.544C233.39 124.519 232.962 124.571 232.562 124.699C232.172 124.837 231.829 125.033 231.535 125.288C231.24 125.553 231.008 125.867 230.839 126.232C230.67 126.597 230.573 126.998 230.55 127.436Z" fill="#2A1F15"/>
<path d="M228.102 141.894L234.942 143.091L235.521 139.781L234.122 139.494C233.529 139.361 232.971 139.221 232.447 139.073C231.922 138.934 231.448 138.775 231.024 138.596C230.61 138.42 230.265 138.222 229.991 138.004C229.715 137.794 229.533 137.559 229.446 137.297L230.167 134.964C230.1 135.294 230.168 135.585 230.37 135.838C230.57 136.101 230.875 136.334 231.285 136.539C231.703 136.744 232.202 136.926 232.781 137.085C233.358 137.252 233.989 137.41 234.674 137.558L237.675 138.196L236.377 145.616L227.716 144.101L228.102 141.894ZM226.403 133.979L230.22 134.661L228.307 145.597L224.487 144.929L224.849 142.86L226.849 143.21L228.04 136.397L226.041 136.048L226.403 133.979Z" fill="#2A1F15"/>
<path d="M233.431 156.809L232.78 158.982L223.392 156.168L224.043 153.996L233.431 156.809ZM225.321 149.731L225.972 147.559L235.36 150.372L234.709 152.544L225.321 149.731ZM227.844 155.31L229.218 150.724L231.056 151.274L229.681 155.861L227.844 155.31Z" fill="#2A1F15"/>
<path d="M220.309 163.585C220.616 162.873 221.016 162.263 221.51 161.755C222.001 161.255 222.552 160.873 223.164 160.609C223.773 160.353 224.414 160.223 225.086 160.219C225.756 160.223 226.424 160.369 227.093 160.658C227.761 160.947 228.326 161.333 228.788 161.817C229.246 162.31 229.589 162.87 229.817 163.496C230.044 164.123 230.144 164.787 230.116 165.486C230.089 166.186 229.923 166.887 229.62 167.59C229.313 168.301 228.916 168.902 228.429 169.394C227.939 169.893 227.389 170.271 226.781 170.527C226.169 170.791 225.526 170.926 224.853 170.93C224.189 170.938 223.518 170.796 222.841 170.503C222.173 170.215 221.606 169.822 221.139 169.326C220.681 168.833 220.338 168.273 220.11 167.647C219.888 167.032 219.79 166.375 219.818 165.675C219.842 164.984 220.005 164.287 220.309 163.585ZM222.088 164.338C221.914 164.74 221.824 165.138 221.816 165.532C221.805 165.934 221.873 166.319 222.019 166.687C222.165 167.055 222.384 167.383 222.676 167.672C222.965 167.969 223.323 168.211 223.752 168.396C224.18 168.581 224.601 168.676 225.016 168.682C225.426 168.697 225.815 168.631 226.183 168.485C226.548 168.347 226.873 168.137 227.158 167.853C227.443 167.57 227.672 167.227 227.846 166.824C228.02 166.421 228.112 166.019 228.123 165.617C228.131 165.223 228.061 164.843 227.915 164.475C227.769 164.107 227.552 163.774 227.263 163.477C226.971 163.188 226.611 162.951 226.182 162.766C225.763 162.585 225.343 162.485 224.924 162.467C224.51 162.46 224.121 162.526 223.756 162.664C223.388 162.81 223.062 163.025 222.776 163.308C222.491 163.592 222.262 163.935 222.088 164.338Z" fill="#2A1F15"/>
<path d="M217.199 170.821L225.691 175.712L223.574 179.388C223.136 180.148 222.634 180.731 222.066 181.137C221.507 181.547 220.911 181.769 220.277 181.803C219.644 181.837 219.008 181.669 218.369 181.301C217.738 180.938 217.278 180.474 216.989 179.909C216.701 179.345 216.589 178.715 216.655 178.021C216.73 177.331 216.986 176.606 217.423 175.846L218.912 173.262L219.294 174.645L216.067 172.787L217.199 170.821ZM219.076 174.519L220.513 174.184L219.088 176.659C218.738 177.265 218.607 177.793 218.693 178.241C218.78 178.689 219.054 179.046 219.515 179.312C219.984 179.582 220.434 179.642 220.865 179.492C221.296 179.342 221.686 178.963 222.036 178.357L223.461 175.882L223.892 177.293L219.076 174.519Z" fill="#2A1F15"/>
<path d="M212.112 179.724L217.434 189.041L216.11 190.848L205.615 188.588L207.022 186.669L216.119 188.893L215.589 189.616L210.738 181.599L212.112 179.724ZM212.515 182.727L213.548 184.231L210.568 188.296L208.815 187.775L212.515 182.727Z" fill="#2A1F15"/>
<path d="M205.13 190.565L205.855 192.178C205.385 192.318 204.938 192.515 204.513 192.772C204.089 193.041 203.716 193.338 203.393 193.663C203.071 194.001 202.821 194.342 202.645 194.686C202.462 195.038 202.371 195.366 202.371 195.669C202.364 195.98 202.478 196.243 202.712 196.457C202.987 196.709 203.294 196.782 203.633 196.675C203.979 196.574 204.325 196.334 204.672 195.956L206.289 194.191L207.549 195.344L206.045 196.986C205.736 197.323 205.565 197.647 205.532 197.959C205.493 198.278 205.594 198.548 205.835 198.768C206.042 198.958 206.27 199.04 206.52 199.016C206.777 198.998 207.046 198.897 207.329 198.713C207.605 198.536 207.876 198.296 208.14 197.994C208.404 197.692 208.637 197.342 208.837 196.943C209.038 196.545 209.191 196.128 209.298 195.694L211.052 196.371C210.864 197.059 210.578 197.703 210.195 198.301C209.812 198.912 209.375 199.436 208.886 199.874C208.397 200.325 207.883 200.664 207.345 200.892C206.813 201.127 206.299 201.232 205.803 201.207C205.306 201.183 204.865 200.994 204.48 200.641C204.136 200.326 203.912 199.956 203.807 199.531C203.703 199.106 203.727 198.666 203.879 198.21C204.024 197.761 204.286 197.33 204.664 196.917L204.998 197.299C204.557 197.78 204.093 198.121 203.606 198.321C203.12 198.534 202.644 198.604 202.178 198.532C201.713 198.473 201.295 198.273 200.924 197.932C200.58 197.617 200.355 197.24 200.25 196.802C200.146 196.378 200.146 195.922 200.25 195.435C200.354 194.948 200.547 194.461 200.83 193.973C201.113 193.485 201.472 193.017 201.908 192.568C202.338 192.127 202.823 191.729 203.362 191.375C203.909 191.028 204.498 190.758 205.13 190.565Z" fill="#2A1F15"/>
<path d="M193.107 201.311C193.689 200.801 194.312 200.422 194.977 200.174C195.634 199.933 196.296 199.824 196.962 199.848C197.622 199.878 198.256 200.035 198.866 200.32C199.469 200.61 200.01 201.03 200.49 201.577C200.97 202.124 201.315 202.716 201.525 203.351C201.727 203.993 201.797 204.645 201.734 205.309C201.67 205.973 201.476 206.615 201.151 207.235C200.826 207.856 200.376 208.418 199.8 208.923C199.218 209.433 198.602 209.806 197.951 210.042C197.294 210.283 196.636 210.389 195.976 210.359C195.31 210.335 194.672 210.181 194.062 209.896C193.459 209.618 192.914 209.202 192.428 208.648C191.947 208.101 191.603 207.503 191.394 206.854C191.192 206.212 191.122 205.56 191.185 204.896C191.248 204.245 191.441 203.61 191.766 202.99C192.084 202.375 192.531 201.816 193.107 201.311ZM194.391 202.755C194.061 203.044 193.809 203.365 193.633 203.717C193.451 204.075 193.347 204.452 193.321 204.847C193.295 205.242 193.353 205.633 193.493 206.019C193.626 206.412 193.846 206.783 194.154 207.134C194.461 207.485 194.801 207.752 195.173 207.935C195.537 208.124 195.917 208.232 196.312 208.258C196.7 208.29 197.084 208.239 197.463 208.105C197.842 207.971 198.197 207.759 198.527 207.47C198.856 207.181 199.112 206.857 199.295 206.499C199.47 206.146 199.57 205.773 199.596 205.377C199.622 204.982 199.568 204.589 199.435 204.196C199.295 203.81 199.072 203.442 198.764 203.091C198.462 202.747 198.126 202.477 197.755 202.281C197.384 202.098 197.004 201.99 196.616 201.958C196.221 201.932 195.834 201.986 195.454 202.12C195.075 202.254 194.721 202.465 194.391 202.755Z" fill="#2A1F15"/>
<path d="M187.326 206.416L192.945 214.445L189.206 217.062C188.273 217.715 187.421 218.043 186.649 218.048C185.878 218.052 185.259 217.722 184.794 217.057C184.334 216.399 184.22 215.716 184.452 215.006C184.69 214.304 185.214 213.67 186.025 213.102L186.144 213.737C185.242 214.368 184.416 214.678 183.668 214.666C182.919 214.655 182.307 214.309 181.83 213.628C181.338 212.925 181.218 212.183 181.469 211.403C181.719 210.636 182.352 209.897 183.369 209.185L187.326 206.416ZM186.443 209.085L184.401 210.514C183.973 210.813 183.707 211.125 183.603 211.448C183.499 211.772 183.57 212.109 183.816 212.461C184.051 212.797 184.336 212.968 184.67 212.974C185.01 212.987 185.394 212.843 185.822 212.544L187.864 211.115L186.443 209.085ZM188.771 212.411L187.039 213.623C186.633 213.907 186.384 214.201 186.29 214.506C186.201 214.819 186.269 215.136 186.494 215.457C186.718 215.778 186.99 215.947 187.309 215.963C187.633 215.987 187.998 215.857 188.403 215.573L190.135 214.361L188.771 212.411Z" fill="#2A1F15"/>
<path d="M176.802 220.992C175.752 221.541 174.818 221.729 174.001 221.556C173.188 221.392 172.537 220.842 172.048 219.908C171.529 218.915 171.454 217.996 171.823 217.15C172.183 216.309 172.922 215.596 174.038 215.012L177.958 212.962L182.5 221.645L180.503 222.69L179.011 219.837L176.802 220.992ZM174.928 216.442C174.416 216.71 174.077 217.051 173.914 217.463C173.75 217.875 173.796 218.325 174.051 218.813C174.302 219.292 174.63 219.558 175.036 219.609C175.438 219.672 175.9 219.568 176.421 219.295L178.232 218.348L176.74 215.495L174.928 216.442ZM169.361 217.458L173.903 226.142L171.906 227.187L167.364 218.503L169.361 217.458Z" fill="#2A1F15"/>
<path d="M164.326 226.055L159.915 227.729L159.289 226.08L163.7 224.405L164.326 226.055ZM162.738 222.345L157.751 224.237L157.106 222.536L164.2 219.843L167.677 229.006L160.753 231.633L160.107 229.932L164.924 228.104L162.738 222.345Z" fill="#2A1F15"/>
<path d="M149.844 224.846L151.753 234.458L149.913 234.824L144.474 228.854L145.449 228.66L142.773 236.243L140.933 236.608L139.01 226.999L141.097 226.584L142.385 232.994L141.986 233.073L144.141 227.035L145.13 226.839L149.497 231.581L149.031 231.674L147.757 225.261L149.844 224.846Z" fill="#2A1F15"/>
<path d="M136.795 227.374L133.156 237.467L130.922 237.631L125.834 228.179L128.208 228.004L132.416 236.371L131.522 236.436L134.477 227.544L136.795 227.374ZM134.77 229.628L134.296 231.39L129.27 231.759L128.529 230.086L134.77 229.628Z" fill="#2A1F15"/>
<path d="M120.699 228.092L120.405 236.557L119.905 236.021L123.543 236.147L123.479 237.994L114.986 237.699L115.05 235.852L118.688 235.979L118.166 236.479L118.461 228.014L120.699 228.092Z" fill="#2A1F15"/>
<path d="M110.472 233.287L105.792 232.689L106.015 230.939L110.695 231.537L110.472 233.287ZM110.816 229.266L105.525 228.59L105.756 226.784L113.283 227.747L112.04 237.468L104.694 236.528L104.925 234.723L110.035 235.376L110.816 229.266Z" fill="#2A1F15"/>
<path d="M102.901 226.311L100.663 235.852L96.533 234.883C95.6789 234.683 94.9759 234.369 94.4241 233.943C93.8702 233.525 93.4859 233.018 93.2712 232.421C93.0565 231.824 93.0333 231.167 93.2017 230.449C93.368 229.74 93.68 229.167 94.1377 228.728C94.5954 228.288 95.1663 228.001 95.8503 227.864C96.5321 227.736 97.3001 227.773 98.1542 227.973L101.057 228.654L99.8426 229.419L100.693 225.793L102.901 226.311ZM99.9002 229.173L100.635 230.453L97.8548 229.801C97.1733 229.641 96.6304 229.667 96.2259 229.879C95.8215 230.091 95.5586 230.456 95.437 230.974C95.3134 231.501 95.3856 231.949 95.6536 232.319C95.9216 232.688 96.3963 232.953 97.0778 233.113L99.8583 233.765L98.6307 234.585L99.9002 229.173Z" fill="#2A1F15"/>
<path d="M91.8032 223.586L88.4987 232.812L86.3767 232.052L88.5294 226.042L81.9745 230.476L79.9712 229.758L83.2758 220.532L85.3846 221.287L83.2366 227.284L89.7867 222.864L91.8032 223.586Z" fill="#2A1F15"/>
<path d="M81.1572 219.762L72.8693 226.576L70.8655 225.575L71.3262 214.85L73.4552 215.914L72.7938 225.255L71.9923 224.855L79.0783 218.724L81.1572 219.762ZM78.2648 220.665L76.9566 221.936L72.4481 219.683L72.6668 217.867L78.2648 220.665Z" fill="#2A1F15"/>
<path d="M69.1176 213.421C69.258 213.514 69.3985 213.623 69.5392 213.749C69.672 213.869 69.8153 214.008 69.9691 214.165L68.7988 215.691C68.7101 215.588 68.6073 215.498 68.4903 215.421C68.1705 215.211 67.8363 215.176 67.4877 215.316C67.1341 215.463 66.7568 215.757 66.3559 216.197C65.955 216.637 65.5122 217.2 65.0276 217.887L62.7272 221.133L56.4324 216.997L61.814 208.807L63.686 210.037L59.0348 217.115L58.8864 216.398L62.5018 218.774L61.8158 218.976L63.3083 216.858C63.8596 216.07 64.3832 215.392 64.879 214.824C65.3748 214.257 65.8559 213.813 66.3223 213.494C66.7888 213.176 67.2523 213.005 67.7129 212.984C68.1736 212.963 68.6418 213.109 69.1176 213.421Z" fill="#2A1F15"/>
<path d="M50.9694 208.717C50.0698 207.945 49.5488 207.147 49.4064 206.324C49.258 205.508 49.5271 204.7 50.2138 203.9C50.9431 203.05 51.7688 202.639 52.6911 202.668C53.6062 202.69 54.5419 203.112 55.4982 203.932L58.8559 206.813L52.4749 214.251L50.7641 212.783L52.8608 210.339L50.9694 208.717ZM54.5 205.289C54.0608 204.913 53.6195 204.725 53.1761 204.726C52.7327 204.726 52.3317 204.936 51.9731 205.354C51.6207 205.764 51.496 206.168 51.599 206.564C51.689 206.961 51.9571 207.35 52.4033 207.733L53.9547 209.064L56.0513 206.62L54.5 205.289ZM51.4924 200.496L45.1113 207.934L43.4006 206.466L49.7817 199.028L51.4924 200.496Z" fill="#2A1F15"/>
<path d="M23.4769 164.696C23.5994 164.988 23.6441 165.288 23.6108 165.596C23.5654 165.898 23.4527 166.173 23.2729 166.42C23.0845 166.671 22.831 166.863 22.5125 166.996C22.1939 167.13 21.8835 167.174 21.5811 167.128C21.2788 167.083 21.0083 166.968 20.7697 166.785C20.5188 166.596 20.3321 166.356 20.2096 166.063C20.087 165.77 20.0485 165.473 20.094 165.171C20.1272 164.863 20.2337 164.586 20.4135 164.339C20.5934 164.091 20.8425 163.901 21.1611 163.768C21.4796 163.634 21.7944 163.589 22.1053 163.631C22.4077 163.676 22.6843 163.793 22.9351 163.981C23.1738 164.165 23.3544 164.403 23.4769 164.696Z" fill="#979696"/>
<path d="M17.081 121.447C17.0721 122.222 16.9377 122.939 16.6781 123.599C16.4185 124.249 16.0573 124.814 15.5944 125.294C15.1316 125.765 14.5906 126.132 13.9715 126.395C13.3525 126.65 12.6791 126.772 11.9511 126.764C11.2232 126.756 10.5527 126.617 9.93979 126.349C9.32697 126.071 8.79472 125.687 8.34303 125.196C7.89135 124.706 7.5433 124.132 7.29888 123.476C7.05447 122.82 6.93669 122.109 6.94555 121.344C6.95452 120.569 7.08873 119.861 7.34817 119.22C7.60772 118.57 7.9689 118.009 8.43171 117.539C8.89464 117.059 9.43564 116.687 10.0547 116.423C10.6645 116.16 11.338 116.032 12.0753 116.041C12.8033 116.049 13.4783 116.192 14.1005 116.47C14.7133 116.748 15.2455 117.132 15.6972 117.623C16.1397 118.104 16.4831 118.673 16.7275 119.329C16.9721 119.976 17.0899 120.682 17.081 121.447ZM15.149 121.439C15.1541 121 15.0841 120.598 14.939 120.232C14.794 119.857 14.5831 119.528 14.3064 119.245C14.0296 118.962 13.7008 118.743 13.3199 118.589C12.9391 118.426 12.5154 118.342 12.0487 118.337C11.5821 118.331 11.1565 118.406 10.772 118.56C10.3877 118.705 10.0539 118.916 9.77065 119.192C9.48754 119.46 9.26916 119.779 9.11551 120.151C8.96186 120.522 8.8825 120.927 8.87742 121.366C8.87234 121.805 8.9423 122.212 9.0873 122.587C9.23241 122.952 9.44333 123.277 9.72007 123.56C9.99681 123.843 10.3256 124.066 10.7064 124.229C11.0873 124.383 11.5111 124.463 11.9777 124.468C12.435 124.474 12.8605 124.404 13.2542 124.259C13.6387 124.105 13.9725 123.894 14.2556 123.627C14.5388 123.35 14.7573 123.026 14.9109 122.654C15.0646 122.282 15.1439 121.877 15.149 121.439Z" fill="#2A1F15"/>
<path d="M16.9225 107.233L10.0345 106.353L9.60842 109.686L11.0196 109.908C11.6178 110.013 12.1818 110.128 12.7117 110.252C13.2427 110.367 13.7239 110.504 14.1553 110.662C14.5774 110.82 14.9306 111.001 15.2148 111.207C15.5002 111.403 15.6923 111.63 15.7911 111.887L15.1784 114.251C15.2303 113.919 15.1495 113.631 14.936 113.387C14.7237 113.134 14.4083 112.915 13.9897 112.73C13.5619 112.543 13.0553 112.385 12.4699 112.253C11.8857 112.113 11.2482 111.984 10.5574 111.868L7.53033 111.368L8.48551 103.897L17.2065 105.011L16.9225 107.233ZM18.9843 115.062L15.1394 114.556L16.5473 103.544L20.394 104.036L20.1277 106.119L18.1141 105.861L17.237 112.722L19.2506 112.979L18.9843 115.062Z" fill="#2A1F15"/>
<path d="M10.9189 92.5205L11.4705 90.3206L20.9763 92.7038L20.4247 94.9037L10.9189 92.5205ZM19.342 99.2221L18.7905 101.422L9.28468 99.0387L9.83623 96.8388L19.342 99.2221ZM16.5682 93.7636L15.4038 98.4079L13.5434 97.9415L14.7078 93.2972L16.5682 93.7636Z" fill="#2A1F15"/>
<path d="M23.6762 85.2341C23.4013 85.9583 23.0285 86.5855 22.5578 87.1157C22.0904 87.6371 21.5568 88.0435 20.957 88.335C20.3605 88.6178 19.7263 88.7764 19.0543 88.8109C18.3857 88.8367 17.7111 88.7204 17.0304 88.4621C16.3498 88.2038 15.7679 87.8432 15.2847 87.3803C14.8048 86.9086 14.4372 86.3648 14.1818 85.7488C13.9264 85.1328 13.7968 84.4746 13.793 83.7744C13.7893 83.0742 13.9231 82.3663 14.1947 81.6507C14.4696 80.9265 14.839 80.308 15.3031 79.7953C15.7706 79.2739 16.3025 78.8718 16.899 78.5891C17.4988 78.2976 18.1346 78.1346 18.8066 78.1001C19.4698 78.0623 20.1461 78.1742 20.8355 78.4358C21.5161 78.6941 22.1007 79.0608 22.5893 79.5357C23.0692 80.0073 23.4368 80.5511 23.6922 81.1672C23.9422 81.7711 24.0691 82.4233 24.0728 83.1235C24.0799 83.815 23.9477 84.5185 23.6762 85.2341ZM21.8649 84.5617C22.0206 84.1515 22.0931 83.7498 22.0827 83.3565C22.0755 82.9545 21.9907 82.5729 21.8283 82.2118C21.6659 81.8506 21.4323 81.5324 21.1275 81.257C20.826 80.9729 20.4571 80.748 20.0208 80.5824C19.5845 80.4169 19.1593 80.3404 18.7453 80.3529C18.3345 80.3568 17.9486 80.4399 17.5874 80.6023C17.2296 80.756 16.9147 80.9809 16.6426 81.277C16.3705 81.573 16.1566 81.9261 16.001 82.3362C15.8453 82.7464 15.7711 83.1524 15.7782 83.5545C15.7887 83.9478 15.8752 84.325 16.0376 84.6861C16.2 85.0473 16.432 85.3699 16.7334 85.654C17.0382 85.9294 17.4088 86.1499 17.8451 86.3155C18.2727 86.4777 18.6962 86.5586 19.1157 86.5581C19.5297 86.5455 19.9157 86.4624 20.2735 86.3087C20.6346 86.1462 20.9512 85.917 21.2233 85.6209C21.4954 85.3249 21.7093 84.9718 21.8649 84.5617Z" fill="#2A1F15"/>
<path d="M26.5175 77.6842L17.8169 73.1742L19.7691 69.4081C20.1728 68.6292 20.6492 68.0246 21.1981 67.5943C21.7388 67.1596 22.3248 66.9115 22.956 66.8497C23.5872 66.7879 24.2302 66.9267 24.8848 67.266C25.5311 67.601 26.011 68.0443 26.3244 68.5957C26.6378 69.1471 26.7769 69.7711 26.7417 70.4677C26.6982 71.1601 26.4746 71.8957 26.0708 72.6746L24.6985 75.3221L24.255 73.9568L27.5613 75.6706L26.5175 77.6842ZM24.4788 74.0728L23.0578 74.4716L24.3721 71.936C24.6943 71.3145 24.8022 70.7818 24.696 70.3377C24.5898 69.8937 24.3005 69.5493 23.8282 69.3044C23.3476 69.0553 22.8952 69.0153 22.4711 69.1845C22.047 69.3536 21.6739 69.7489 21.3518 70.3704L20.0375 72.906L19.5443 71.515L24.4788 74.0728Z" fill="#2A1F15"/>
<path d="M31.0303 68.8045L25.3051 59.7302L26.5488 57.8673L37.1325 59.6642L35.811 61.6436L26.6252 59.8204L27.1227 59.0752L32.3207 66.8716L31.0303 68.8045ZM30.4964 65.822L29.3985 64.3652L32.1969 60.1735L33.9711 60.6174L30.4964 65.822Z" fill="#2A1F15"/>
<path d="M37.624 57.4856L36.8299 55.9055C37.2929 55.7457 37.731 55.5286 38.1443 55.2539C38.5563 54.9661 38.9165 54.6531 39.2248 54.3147C39.5319 53.9633 39.7661 53.6115 39.9275 53.2595C40.0948 52.9004 40.1718 52.5691 40.1585 52.2655C40.1512 51.9548 40.026 51.6974 39.7829 51.4934C39.4969 51.2534 39.187 51.1944 38.8532 51.3164C38.5122 51.4323 38.1767 51.6869 37.8468 52.0801L36.3079 53.914L34.9995 52.8161L36.4304 51.1109C36.7244 50.7606 36.8809 50.4289 36.8999 50.1159C36.9248 49.7957 36.8122 49.5306 36.562 49.3206C36.3475 49.1406 36.1159 49.0682 35.8672 49.1032C35.6114 49.1322 35.3463 49.2448 35.072 49.441C34.8037 49.6301 34.5441 49.8814 34.2933 50.1948C34.0424 50.5082 33.8255 50.8684 33.6425 51.2753C33.4594 51.6821 33.3241 52.1047 33.2366 52.543L31.4551 51.9436C31.6128 51.2474 31.8702 50.5922 32.2272 49.978C32.5831 49.3507 32.996 48.8077 33.466 48.3493C33.9349 47.8776 34.4333 47.5161 34.9611 47.2645C35.4818 47.007 35.9907 46.8796 36.4879 46.8825C36.985 46.8854 37.4337 47.0549 37.8341 47.3908C38.1916 47.6908 38.4317 48.0507 38.5546 48.4706C38.6774 48.8905 38.673 49.3314 38.5411 49.7934C38.4153 50.2483 38.1724 50.6902 37.8124 51.1192L37.4623 50.7523C37.8823 50.2519 38.3311 49.8913 38.8086 49.6707C39.285 49.4369 39.7574 49.3459 40.2257 49.3977C40.6928 49.4363 41.1194 49.6176 41.5055 49.9416C41.8629 50.2416 42.1037 50.6081 42.2277 51.0411C42.3505 51.4609 42.3705 51.9163 42.2875 52.4072C42.2046 52.8981 42.0326 53.3934 41.7716 53.8932C41.5106 54.393 41.1719 54.8765 40.7557 55.3435C40.3454 55.8034 39.8785 56.2218 39.355 56.5989C38.8243 56.9699 38.2473 57.2655 37.624 57.4856Z" fill="#2A1F15"/>
<path d="M48.8312 46.5182C48.2736 47.056 47.6688 47.4641 47.0168 47.7427C46.3716 48.0148 45.7156 48.1547 45.0488 48.1624C44.3887 48.1636 43.7474 48.0365 43.125 47.7809C42.5093 47.5189 41.9488 47.1259 41.4434 46.6018C40.9381 46.0778 40.5657 45.5034 40.3262 44.8785C40.0935 44.2472 39.993 43.5985 40.0249 42.9325C40.0568 42.2664 40.2205 41.6159 40.5158 40.9809C40.8112 40.346 41.2343 39.763 41.7853 39.2317C42.3429 38.694 42.941 38.2923 43.5795 38.0267C44.2247 37.7546 44.8773 37.6179 45.5374 37.6167C46.2042 37.609 46.8489 37.7329 47.4713 37.9885C48.0872 38.2373 48.6511 38.6271 49.1629 39.1578C49.6683 39.6819 50.0406 40.2629 50.2798 40.9009C50.5126 41.5322 50.613 42.1809 50.5811 42.847C50.5494 43.4999 50.3859 44.1438 50.0905 44.7787C49.8019 45.4071 49.3821 45.987 48.8312 46.5182ZM47.48 45.1372C47.7958 44.8327 48.0329 44.5004 48.1912 44.1402C48.3563 43.7736 48.4424 43.3923 48.4496 42.9964C48.4568 42.6005 48.3814 42.213 48.2232 41.8339C48.0718 41.4483 47.8341 41.0875 47.5102 40.7516C47.1863 40.4157 46.8344 40.165 46.4545 39.9997C46.0814 39.8279 45.6969 39.7384 45.301 39.7312C44.9118 39.7176 44.531 39.7866 44.1586 39.9382C43.7862 40.0899 43.4421 40.3179 43.1263 40.6224C42.8106 40.9269 42.5702 41.2625 42.4051 41.6291C42.2467 41.9893 42.1639 42.3673 42.1567 42.7633C42.1496 43.1592 42.2217 43.5499 42.3731 43.9355C42.5312 44.3146 42.7722 44.6722 43.0962 45.0081C43.4136 45.3373 43.7622 45.5911 44.1418 45.7697C44.5216 45.935 44.9061 46.0245 45.2953 46.0382C45.6912 46.0453 46.0754 45.9731 46.4478 45.8215C46.8202 45.6698 47.1643 45.4417 47.48 45.1372Z" fill="#2A1F15"/>
<path d="M54.4665 41.0065L48.5011 33.2313L52.1221 30.4531C53.0256 29.76 53.8625 29.3943 54.6331 29.356C55.4037 29.3177 56.0361 29.6207 56.5304 30.2649C57.0189 30.9017 57.1626 31.5797 56.9614 32.2987C56.7545 33.0104 56.2586 33.6673 55.4737 34.2695L55.3268 33.6411C56.2006 32.9707 57.0117 32.6249 57.76 32.6036C58.5084 32.5824 59.1353 32.9012 59.641 33.5603C60.1637 34.2415 60.3164 34.9773 60.0992 35.7674C59.8836 36.5445 59.2835 37.3108 58.2986 38.0664L54.4665 41.0065ZM55.2322 38.3016L57.2093 36.7847C57.624 36.4665 57.8762 36.1436 57.966 35.8159C58.0557 35.4883 57.9699 35.1541 57.7086 34.8135C57.4586 34.4877 57.1666 34.3294 56.8325 34.3387C56.4928 34.3405 56.1156 34.5005 55.7009 34.8187L53.7238 36.3356L55.2322 38.3016ZM52.7608 35.0804L54.438 33.7936C54.8305 33.4925 55.067 33.1875 55.1477 32.8786C55.2226 32.5623 55.1408 32.2486 54.9022 31.9376C54.6635 31.6266 54.3846 31.4701 54.0654 31.4679C53.7404 31.4584 53.3817 31.6042 52.9893 31.9053L51.3121 33.1922L52.7608 35.0804Z" fill="#2A1F15"/>
<path d="M64.6551 25.7277C65.6801 25.1323 66.6046 24.9029 67.4287 25.0395C68.2481 25.168 68.9226 25.6882 69.4524 26.6002C70.0149 27.5687 70.1308 28.4836 69.8 29.345C69.4773 30.2016 68.7711 30.9464 67.6816 31.5792L63.8561 33.8013L58.9339 25.3271L60.8829 24.195L62.5002 26.9793L64.6551 25.7277ZM66.7288 30.1898C67.2292 29.8992 67.552 29.5444 67.6972 29.1254C67.8425 28.7064 67.7768 28.2589 67.5002 27.7827C67.2283 27.3146 66.8885 27.0641 66.4807 27.0311C66.0764 26.9853 65.62 27.1101 65.1115 27.4054L63.3441 28.4321L64.9614 31.2164L66.7288 30.1898ZM72.2455 28.9283L67.3233 20.4541L69.2724 19.322L74.1946 27.7961L72.2455 28.9283Z" fill="#2A1F15"/>
<path d="M76.9627 20.0722L81.3011 18.218L81.9944 19.8401L77.656 21.6942L76.9627 20.0722ZM78.7017 23.7137L83.6066 21.6175L84.3218 23.2911L77.3443 26.2731L73.4931 17.2616L80.3032 14.3511L81.0184 16.0247L76.2809 18.0493L78.7017 23.7137Z" fill="#2A1F15"/>
<path d="M91.1845 20.726L88.8374 11.2112L90.6588 10.7619L96.3657 16.4775L95.4007 16.7155L97.7269 9.01839L99.5483 8.56909L101.909 18.0805L99.8429 18.5902L98.2635 12.2458L98.6577 12.1486L96.7811 18.2784L95.8025 18.5198L91.2225 13.9827L91.6847 13.8687L93.2505 20.2164L91.1845 20.726Z" fill="#2A1F15"/>
<path d="M104.001 17.577L107.209 7.3385L109.434 7.08007L114.918 16.3091L112.554 16.5837L107.995 8.40292L108.885 8.29955L106.31 17.3089L104.001 17.577ZM105.928 15.2391L106.328 13.4591L111.334 12.8776L112.145 14.5171L105.928 15.2391Z" fill="#2A1F15"/>
<path d="M119.953 16.1303L119.855 7.66083L120.378 8.1728L116.739 8.21495L116.717 6.36707L125.215 6.26867L125.236 8.11654L121.596 8.15869L122.094 7.63489L122.192 16.1043L119.953 16.1303Z" fill="#2A1F15"/>
<path d="M130.209 10.4618L134.91 10.8616L134.761 12.6193L130.06 12.2195L130.209 10.4618ZM130.035 14.4935L135.35 14.9456L135.196 16.759L127.635 16.116L128.466 6.35123L135.845 6.97887L135.691 8.79232L130.557 8.3557L130.035 14.4935Z" fill="#2A1F15"/>
<path d="M138.085 17.0655L139.922 7.43902L144.088 8.23379C144.95 8.39817 145.666 8.68192 146.235 9.08504C146.806 9.47899 147.211 9.96961 147.451 10.5569C147.69 11.1442 147.741 11.7999 147.603 12.5242C147.466 13.2393 147.179 13.8258 146.74 14.2837C146.301 14.7416 145.743 15.0532 145.065 15.2185C144.389 15.3746 143.62 15.3705 142.759 15.2061L139.829 14.6474L141.011 13.8324L140.313 17.4904L138.085 17.0655ZM140.964 14.0799L140.176 12.8321L142.981 13.3672C143.669 13.4984 144.21 13.4496 144.605 13.2209C145 12.9923 145.248 12.6166 145.347 12.094C145.449 11.5623 145.358 11.1174 145.075 10.7593C144.791 10.4012 144.306 10.1566 143.618 10.0255L140.813 9.49036L142.005 8.62031L140.964 14.0799Z" fill="#2A1F15"/>
<path d="M149.442 19.3097L152.362 9.95468L154.513 10.6261L152.611 16.7203L158.977 12.0191L161.008 12.6531L158.089 22.0081L155.951 21.3408L157.848 15.26L151.487 19.9478L149.442 19.3097Z" fill="#2A1F15"/>
<path d="M159.944 22.5295L167.92 15.3527L169.967 16.2637L169.985 26.9987L167.81 26.0309L168.054 16.6691L168.873 17.0335L162.068 23.4746L159.944 22.5295ZM162.794 21.4991L164.044 20.1708L168.648 22.2203L168.511 24.044L162.794 21.4991Z" fill="#2A1F15"/>
<path d="M172.458 28.3944C172.314 28.3084 172.168 28.2056 172.022 28.086C171.884 27.9712 171.735 27.8388 171.575 27.6889L172.676 26.1127C172.77 26.2117 172.876 26.297 172.997 26.3686C173.325 26.5645 173.661 26.585 174.003 26.4303C174.35 26.2675 174.714 25.9575 175.095 25.5001C175.476 25.0427 175.893 24.4603 176.347 23.753L178.502 20.4088L184.973 24.2636L179.958 32.6829L178.033 31.5365L182.368 24.2598L182.548 24.9699L178.832 22.7559L179.508 22.5233L178.11 24.7054C177.594 25.517 177.101 26.2172 176.631 26.8062C176.16 27.3951 175.699 27.8591 175.247 28.1983C174.795 28.5375 174.34 28.7278 173.88 28.7692C173.421 28.8107 172.947 28.6858 172.458 28.3944Z" fill="#2A1F15"/>
<path d="M190.528 32.0505C191.46 32.7823 192.015 33.5562 192.194 34.3723C192.378 35.181 192.144 36.0003 191.493 36.8299C190.802 37.711 189.995 38.1573 189.072 38.1689C188.157 38.1862 187.203 37.8059 186.212 37.0281L182.732 34.2969L188.782 26.5874L190.555 27.9789L188.567 30.512L190.528 32.0505ZM187.15 35.6287C187.605 35.9859 188.055 36.1544 188.497 36.1343C188.94 36.1141 189.332 35.8874 189.672 35.4542C190.006 35.0283 190.113 34.6199 189.993 34.2289C189.886 33.8363 189.601 33.4585 189.138 33.0955L187.53 31.8337L185.542 34.3668L187.15 35.6287ZM190.364 40.2865L196.414 32.577L198.188 33.9685L192.137 41.678L190.364 40.2865Z" fill="#2A1F15"/>
<path d="M218.131 70.7803C217.983 70.4996 217.911 70.2048 217.917 69.8957C217.935 69.5905 218.023 69.3068 218.18 69.0445C218.346 68.7778 218.581 68.5639 218.886 68.4027C219.192 68.2415 219.497 68.1701 219.802 68.1885C220.107 68.2068 220.387 68.2967 220.641 68.4581C220.908 68.6234 221.115 68.8464 221.263 69.127C221.411 69.4077 221.476 69.7006 221.458 70.0058C221.452 70.3148 221.371 70.6005 221.214 70.8628C221.057 71.1251 220.825 71.3369 220.52 71.4981C220.215 71.6593 219.905 71.7329 219.592 71.7189C219.286 71.7005 219.001 71.6087 218.734 71.4434C218.48 71.282 218.279 71.0609 218.131 70.7803Z" fill="#979696"/>
</svg>
