<svg width="245" height="245" viewBox="0 0 245 245" fill="none" xmlns="http://www.w3.org/2000/svg">
<path d="M229.613 129.268L236.547 129.643L236.729 126.288L235.305 126.169C234.701 126.108 234.13 126.035 233.592 125.95C233.054 125.874 232.564 125.773 232.123 125.646C231.69 125.52 231.325 125.365 231.026 125.181C230.727 125.006 230.519 124.793 230.402 124.544L230.84 122.142C230.812 122.477 230.914 122.758 231.145 122.986C231.375 123.223 231.706 123.418 232.137 123.572C232.577 123.727 233.094 123.848 233.687 123.936C234.28 124.034 234.925 124.116 235.623 124.181L238.678 124.459L238.272 131.98L229.492 131.505L229.613 129.268ZM226.985 121.611L230.857 121.835L230.257 132.92L226.385 132.711L226.498 130.614L228.525 130.724L228.899 123.818L226.872 123.708L226.985 121.611Z" fill="#2A1F15"/>
<path d="M233.561 138.2L232.801 142.856L231.06 142.573L231.82 137.916L233.561 138.2ZM229.554 137.717L228.696 142.981L226.899 142.688L228.121 135.199L237.793 136.777L236.601 144.086L234.805 143.793L235.634 138.708L229.554 137.717Z" fill="#2A1F15"/>
<path d="M227.334 145.213L228.719 146.313C228.366 146.653 228.059 147.034 227.8 147.457C227.546 147.891 227.351 148.327 227.214 148.763C227.082 149.211 227.018 149.629 227.019 150.016C227.018 150.412 227.087 150.745 227.227 151.015C227.364 151.294 227.586 151.475 227.892 151.558C228.252 151.656 228.558 151.579 228.81 151.328C229.071 151.08 229.268 150.708 229.403 150.212L230.029 147.901L231.677 148.348L231.095 150.497C230.976 150.938 230.973 151.305 231.087 151.597C231.199 151.898 231.413 152.091 231.728 152.177C231.998 152.25 232.239 152.218 232.45 152.082C232.67 151.948 232.863 151.735 233.029 151.442C233.193 151.157 233.323 150.82 233.419 150.43C233.515 150.041 233.561 149.623 233.556 149.176C233.551 148.73 233.497 148.29 233.392 147.856L235.26 147.651C235.41 148.349 235.451 149.052 235.385 149.759C235.326 150.478 235.179 151.144 234.945 151.758C234.718 152.383 234.418 152.92 234.044 153.37C233.68 153.823 233.272 154.152 232.819 154.358C232.367 154.564 231.888 154.599 231.384 154.462C230.934 154.34 230.564 154.114 230.277 153.785C229.989 153.456 229.808 153.054 229.733 152.579C229.656 152.113 229.691 151.61 229.838 151.07L230.309 151.256C230.138 151.886 229.883 152.402 229.542 152.803C229.208 153.215 228.817 153.496 228.371 153.646C227.931 153.807 227.467 153.822 226.981 153.69C226.53 153.568 226.158 153.336 225.864 152.995C225.576 152.666 225.366 152.261 225.235 151.781C225.104 151.3 225.052 150.779 225.079 150.215C225.106 149.652 225.211 149.071 225.392 148.473C225.571 147.883 225.819 147.307 226.136 146.745C226.462 146.185 226.861 145.675 227.334 145.213Z" fill="#2A1F15"/>
<path d="M223.47 155.953L232.593 159.533L231.77 161.631L225.827 159.299L230.062 165.984L229.284 167.965L220.161 164.385L220.98 162.3L226.91 164.627L222.688 157.947L223.47 155.953Z" fill="#2A1F15"/>
<path d="M224.37 177.896L223.304 179.897L214.654 175.291L215.72 173.289L224.37 177.896ZM217.812 169.36L218.878 167.358L227.528 171.964L226.462 173.966L217.812 169.36ZM219.187 175.326L221.438 171.1L223.131 172.002L220.88 176.228L219.187 175.326Z" fill="#2A1F15"/>
<path d="M210.521 182.823C211.253 181.786 212.011 181.002 212.797 180.471C213.577 179.948 214.358 179.682 215.141 179.674C215.93 179.672 216.703 179.937 217.458 180.469C218.213 181.002 218.718 181.638 218.973 182.378C219.236 183.122 219.252 183.95 219.021 184.861C218.784 185.779 218.3 186.757 217.568 187.794C217.558 187.809 217.528 187.851 217.48 187.92C217.426 187.996 217.375 188.069 217.326 188.137C217.273 188.214 217.243 188.256 217.238 188.263C216.511 189.293 215.761 190.065 214.986 190.581C214.206 191.104 213.423 191.364 212.639 191.358C211.854 191.353 211.088 191.087 210.341 190.56C209.601 190.038 209.093 189.406 208.818 188.663C208.544 187.934 208.518 187.121 208.738 186.226C208.953 185.338 209.416 184.391 210.126 183.384C210.142 183.361 210.179 183.308 210.239 183.224C210.298 183.14 210.357 183.056 210.416 182.972C210.47 182.896 210.505 182.846 210.521 182.823ZM211.83 184.004C211.814 184.027 211.792 184.057 211.766 184.095C211.739 184.133 211.72 184.16 211.709 184.175C211.214 184.877 210.882 185.51 210.711 186.076C210.543 186.654 210.531 187.165 210.675 187.609C210.826 188.058 211.138 188.45 211.611 188.783C212.084 189.117 212.556 189.273 213.028 189.252C213.5 189.23 213.97 189.042 214.438 188.687C214.908 188.344 215.385 187.83 215.869 187.143C215.879 187.128 215.901 187.098 215.933 187.052C215.96 187.014 215.984 186.979 216.006 186.949C216.517 186.224 216.867 185.575 217.055 184.999C217.244 184.424 217.265 183.908 217.119 183.451C216.981 183 216.672 182.604 216.191 182.266C215.711 181.927 215.225 181.773 214.735 181.804C214.252 181.84 213.768 182.041 213.282 182.407C212.798 182.785 212.314 183.317 211.83 184.004ZM210.115 181.578L218.821 187.718L217.619 189.423L208.913 183.282L210.115 181.578Z" fill="#2A1F15"/>
<path d="M207.428 195.358L204.279 198.871L202.965 197.694L206.114 194.181L207.428 195.358ZM204.314 192.792L200.753 196.764L199.398 195.549L204.463 189.899L211.76 196.441L206.816 201.955L205.461 200.74L208.9 196.904L204.314 192.792Z" fill="#2A1F15"/>
<path d="M192.622 201.96L198.049 203.416L197.429 205.466L190.71 203.686L192.622 201.96ZM197.349 197.69L203.917 204.963L202.245 206.474L195.676 199.201L197.349 197.69ZM198.811 201.69L200.078 203.093L197.542 205.382L196.276 203.979L198.811 201.69ZM196.485 204.734L198.202 203.522L199.128 209.289L197.351 210.894L196.485 204.734Z" fill="#2A1F15"/>
<path d="M188.759 205.333L194.466 213.3L192.633 214.612L188.003 208.148L184.452 210.691L189.082 217.156L187.25 218.469L181.543 210.502L188.759 205.333ZM180.894 208.418L182.411 210.535L181.703 210.387L183.376 209.189L184.452 210.691L181.481 212.819L179.199 209.632L180.894 208.418Z" fill="#2A1F15"/>
<path d="M178.611 212.448L183.376 221.011L181.406 222.107L178.302 216.529L177.32 224.381L175.461 225.416L170.696 216.852L172.653 215.763L175.751 221.329L176.739 213.49L178.611 212.448Z" fill="#2A1F15"/>
<path d="M167.668 218.371L171.384 227.439L169.299 228.294L166.878 222.387L164.972 230.067L163.003 230.874L159.287 221.806L161.359 220.957L163.775 226.851L165.686 219.183L167.668 218.371Z" fill="#2A1F15"/>
<path d="M150.714 224.46L151.557 227.437L150.885 227.118L153.471 226.386C154.289 226.154 155.032 226.089 155.701 226.191C156.37 226.292 156.934 226.555 157.393 226.977C157.852 227.4 158.182 227.966 158.383 228.676C158.592 229.412 158.604 230.088 158.419 230.703C158.228 231.329 157.866 231.868 157.335 232.32C156.803 232.771 156.124 233.114 155.298 233.348L151.23 234.5L148.559 225.071L150.714 224.46ZM156.682 222.77L155.295 226.815L153.086 227.441L154.378 223.423L156.682 222.77ZM151.756 228.138L153.042 232.677L152.343 232.264L154.74 231.585C155.36 231.409 155.795 231.131 156.046 230.749C156.288 230.37 156.329 229.898 156.168 229.332C156.013 228.785 155.737 228.407 155.338 228.2C154.94 227.992 154.436 227.975 153.825 228.148L151.374 228.843L151.756 228.138Z" fill="#2A1F15"/>
<path d="M140.355 226.846L141.486 236.581L139.247 236.841L138.51 230.5L134.602 237.381L132.488 237.626L131.358 227.892L133.583 227.633L134.318 233.961L138.228 227.094L140.355 226.846Z" fill="#2A1F15"/>
<path d="M118.144 227.889C118.899 227.921 119.598 228.072 120.241 228.342C120.873 228.621 121.418 228.999 121.874 229.476C122.33 229.954 122.68 230.506 122.925 231.133C123.16 231.759 123.262 232.441 123.23 233.177C123.199 233.914 123.04 234.585 122.752 235.189C122.456 235.793 122.06 236.313 121.565 236.75C121.061 237.186 120.482 237.512 119.828 237.727C119.174 237.952 118.465 238.047 117.7 238.015C116.851 237.979 116.093 237.797 115.425 237.47C114.747 237.152 114.187 236.698 113.745 236.109L115.257 234.828C115.576 235.225 115.937 235.525 116.34 235.729C116.742 235.942 117.185 236.059 117.67 236.08C118.127 236.099 118.55 236.043 118.938 235.91C119.327 235.777 119.667 235.576 119.959 235.308C120.25 235.041 120.484 234.719 120.658 234.343C120.824 233.967 120.917 233.546 120.936 233.08C120.956 232.614 120.9 232.186 120.767 231.798C120.624 231.409 120.419 231.068 120.151 230.777C119.883 230.485 119.562 230.256 119.186 230.091C118.81 229.925 118.393 229.833 117.936 229.814C117.451 229.793 117 229.867 116.582 230.036C116.163 230.215 115.777 230.493 115.425 230.87L114.027 229.465C114.518 228.916 115.114 228.507 115.817 228.238C116.511 227.969 117.286 227.852 118.144 227.889Z" fill="#2A1F15"/>
<path d="M109.192 227.302L107.989 235.686L107.55 235.1L111.153 235.617L110.891 237.446L102.479 236.239L102.741 234.41L106.344 234.927L105.772 235.368L106.975 226.984L109.192 227.302Z" fill="#2A1F15"/>
<path d="M98.4585 231.369L93.8735 230.257L94.2895 228.543L98.8744 229.655L98.4585 231.369ZM99.246 227.411L94.0624 226.154L94.4916 224.385L101.866 226.174L99.5547 235.698L92.3576 233.952L92.7867 232.183L97.7934 233.398L99.246 227.411Z" fill="#2A1F15"/>
<path d="M91.703 223.617L88.4332 232.856L84.4343 231.44C83.6072 231.148 82.9428 230.759 82.4411 230.275C81.9362 229.799 81.6097 229.253 81.4617 228.636C81.3137 228.019 81.3626 227.363 81.6087 226.668C81.8516 225.982 82.2245 225.446 82.7276 225.059C83.2306 224.673 83.8296 224.449 84.5244 224.388C85.2161 224.336 85.9755 224.456 86.8026 224.749L89.6137 225.744L88.3225 226.371L89.565 222.861L91.703 223.617ZM88.4066 226.134L88.9971 227.486L86.3048 226.533C85.6449 226.3 85.1023 226.266 84.6771 226.433C84.2519 226.599 83.9506 226.933 83.7731 227.434C83.5925 227.945 83.6151 228.398 83.841 228.795C84.0669 229.192 84.5098 229.507 85.1697 229.74L87.862 230.693L86.5521 231.373L88.4066 226.134Z" fill="#2A1F15"/>
<path d="M80.9471 219.708L76.6317 228.506L74.608 227.514L77.4191 221.782L70.4097 225.455L68.4992 224.518L72.8145 215.719L74.8257 216.706L72.0207 222.425L79.0239 218.765L80.9471 219.708Z" fill="#2A1F15"/>
<path d="M69.8855 213.963C70.0269 214.054 70.1686 214.162 70.3106 214.286C70.4448 214.405 70.5896 214.542 70.7451 214.698L69.5917 216.236C69.5018 216.134 69.398 216.046 69.2802 215.97C68.9581 215.764 68.6235 215.732 68.2766 215.875C67.9245 216.026 67.5505 216.324 67.1545 216.769C66.7584 217.213 66.3219 217.782 65.8448 218.474L63.5803 221.745L57.2404 217.678L62.5315 209.429L64.417 210.639L59.844 217.768L59.6876 217.052L63.3289 219.388L62.6452 219.598L64.1143 217.463C64.6569 216.669 65.173 215.986 65.6625 215.413C66.1521 214.84 66.6283 214.391 67.0912 214.067C67.5541 213.743 68.0157 213.568 68.4761 213.542C68.9365 213.515 69.4063 213.656 69.8855 213.963Z" fill="#2A1F15"/>
<path d="M59.5204 207.332L53.3033 214.908L51.5609 213.478L55.6109 208.543L47.9464 210.511L46.3014 209.161L52.5185 201.586L54.2501 203.007L50.2089 207.931L57.8646 205.973L59.5204 207.332Z" fill="#2A1F15"/>
<path d="M49.9784 200.511L48.3281 201.146C48.2145 200.67 48.0412 200.212 47.8084 199.774C47.5624 199.336 47.2861 198.947 46.9796 198.607C46.6599 198.267 46.3328 197.999 45.9984 197.804C45.6574 197.602 45.3352 197.493 45.0317 197.477C44.7218 197.454 44.4534 197.553 44.2266 197.775C43.9597 198.036 43.8706 198.339 43.9593 198.683C44.0413 199.034 44.2617 199.392 44.6208 199.759L46.295 201.47L45.0742 202.665L43.5174 201.074C43.1976 200.747 42.8828 200.559 42.5732 200.509C42.257 200.453 41.9821 200.539 41.7486 200.767C41.5485 200.963 41.4537 201.187 41.4641 201.438C41.4679 201.695 41.554 201.97 41.7224 202.262C41.8843 202.548 42.109 202.831 42.3963 203.111C42.6836 203.391 43.0208 203.642 43.4078 203.864C43.7948 204.086 44.2021 204.263 44.6296 204.393L43.8586 206.107C43.1812 205.882 42.5544 205.561 41.9781 205.146C41.3886 204.73 40.8888 204.266 40.4786 203.753C40.0552 203.241 39.7442 202.709 39.5455 202.159C39.3403 201.616 39.2634 201.097 39.315 200.602C39.3666 200.108 39.5792 199.678 39.9528 199.312C40.2863 198.986 40.6681 198.782 41.098 198.701C41.5278 198.62 41.9662 198.668 42.4131 198.844C42.8535 199.014 43.2695 199.299 43.6611 199.699L43.2617 200.012C42.8048 199.545 42.4899 199.063 42.3171 198.566C42.1312 198.069 42.0869 197.59 42.1843 197.129C42.2685 196.668 42.4908 196.261 42.851 195.909C43.1846 195.582 43.5729 195.379 44.016 195.298C44.4459 195.217 44.901 195.241 45.3814 195.372C45.8618 195.503 46.3379 195.722 46.8097 196.031C47.2815 196.34 47.7295 196.724 48.1534 197.184C48.5709 197.637 48.9416 198.143 49.2655 198.701C49.5828 199.266 49.8204 199.869 49.9784 200.511Z" fill="#2A1F15"/>
<path d="M43.4502 192.677L33.0536 195.329L31.6644 193.572L36.634 184.056L38.1101 185.923L33.5461 194.101L32.9903 193.398L42.0088 190.854L43.4502 192.677ZM40.4483 192.266L38.7241 192.862L35.5982 188.909L36.567 187.357L40.4483 192.266Z" fill="#2A1F15"/>
<path d="M35.1785 182.003L26.8339 187.142L25.652 185.223L32.4231 181.053L30.1326 177.334L23.3616 181.503L22.1796 179.584L30.5243 174.445L35.1785 182.003ZM32.6483 173.943L30.431 175.308L30.627 174.612L31.7062 176.365L30.1326 177.334L28.2166 174.222L31.5544 172.167L32.6483 173.943Z" fill="#2A1F15"/>
<path d="M28.7647 171.347L19.872 175.466L18.9248 173.42L24.7178 170.738L16.9599 169.177L16.0656 167.246L24.9584 163.128L25.8996 165.161L20.1194 167.837L27.8646 169.404L28.7647 171.347Z" fill="#2A1F15"/>
<path d="M21.943 154.792L19.0074 155.77L19.2954 155.084L20.1444 157.634C20.4127 158.44 20.5113 159.179 20.4402 159.852C20.3691 160.525 20.1327 161.1 19.7311 161.578C19.3296 162.056 18.779 162.412 18.0794 162.645C17.3532 162.886 16.6788 162.929 16.0561 162.772C15.4216 162.61 14.8669 162.273 14.3919 161.762C13.9169 161.251 13.5438 160.589 13.2726 159.774L11.9371 155.762L21.2355 152.667L21.943 154.792ZM23.9019 160.677L19.7984 159.476L19.0732 157.297L23.1457 158.405L23.9019 160.677ZM18.3166 156L13.8402 157.49L14.2212 156.773L15.0083 159.137C15.2117 159.748 15.5096 160.17 15.9021 160.404C16.2916 160.628 16.7653 160.648 17.3232 160.462C17.8634 160.282 18.228 159.988 18.417 159.581C18.6061 159.174 18.6004 158.669 18.3999 158.067L17.5951 155.65L18.3166 156Z" fill="#2A1F15"/>
<path d="M15.9285 138.624C15.9735 138.938 15.9414 139.24 15.832 139.529C15.7121 139.81 15.534 140.048 15.2979 140.242C15.0525 140.437 14.7589 140.56 14.4171 140.609C14.0752 140.658 13.7637 140.622 13.4825 140.502C13.2013 140.382 12.9682 140.204 12.7832 139.966C12.5877 139.721 12.4674 139.441 12.4224 139.127C12.3773 138.813 12.4147 138.515 12.5347 138.234C12.6441 137.945 12.8168 137.703 13.053 137.509C13.2891 137.315 13.5781 137.193 13.9199 137.144C14.2618 137.095 14.5779 137.13 14.8684 137.248C15.1496 137.368 15.388 137.551 15.5835 137.796C15.7684 138.034 15.8834 138.31 15.9285 138.624Z" fill="#979696"/>
<path d="M15.9494 116.751L9.01054 116.483L8.8809 119.841L10.3062 119.938C10.9113 119.989 11.4833 120.053 12.0221 120.13C12.5612 120.198 13.0526 120.291 13.4963 120.411C13.9307 120.531 14.2985 120.68 14.5998 120.86C14.9015 121.03 15.1129 121.239 15.2341 121.487L14.8329 123.895C14.8552 123.56 14.7492 123.28 14.515 123.056C14.2812 122.823 13.9476 122.633 13.5143 122.485C13.0717 122.338 12.553 122.224 11.9583 122.145C11.3639 122.057 10.7175 121.985 10.0191 121.93L6.95973 121.7L7.25034 114.173L16.0358 114.513L15.9494 116.751ZM18.6956 124.367L14.821 124.203L15.2494 113.109L19.1245 113.259L19.0434 115.357L17.015 115.279L16.7481 122.19L18.7766 122.268L18.6956 124.367Z" fill="#2A1F15"/>
<path d="M11.8543 107.914L12.5424 103.246L14.2875 103.504L13.5995 108.171L11.8543 107.914ZM15.8677 108.336L16.6456 103.059L18.4461 103.324L17.3396 110.831L7.64435 109.402L8.72436 102.075L10.5249 102.34L9.77359 107.437L15.8677 108.336Z" fill="#2A1F15"/>
<path d="M17.8942 101.152L16.4892 100.078C16.8358 99.7323 17.1348 99.3454 17.3864 98.9178C17.6312 98.4788 17.8182 98.0398 17.9475 97.6007C18.0701 97.1503 18.1269 96.7316 18.1181 96.3445C18.1116 95.9483 18.036 95.6167 17.8913 95.3494C17.7489 95.0732 17.5238 94.8965 17.216 94.8193C16.8538 94.7285 16.5493 94.8109 16.3024 95.0666C16.0464 95.3199 15.856 95.6956 15.7312 96.1935L15.149 98.5156L13.4923 98.1002L14.0336 95.9411C14.1448 95.4975 14.1406 95.1307 14.0208 94.8409C13.9033 94.542 13.6861 94.3529 13.3692 94.2734C13.0976 94.2053 12.8577 94.2414 12.6493 94.3816C12.4319 94.5195 12.2427 94.7367 12.0818 95.0332C11.9232 95.3205 11.7996 95.66 11.711 96.0516C11.6225 96.4431 11.5849 96.8619 11.5981 97.3078C11.6114 97.7538 11.6745 98.193 11.7874 98.6254L9.92311 98.8652C9.76059 98.1702 9.7056 97.4684 9.75814 96.7599C9.8039 96.0401 9.93791 95.3713 10.1602 94.7534C10.3756 94.1243 10.6658 93.5812 11.0305 93.1242C11.3862 92.6649 11.7882 92.3279 12.2366 92.1131C12.6849 91.8984 13.1626 91.8546 13.6696 91.9817C14.1222 92.0952 14.4956 92.3138 14.7897 92.6378C15.0837 92.9617 15.2725 93.3602 15.3559 93.8333C15.4416 94.2975 15.4164 94.8011 15.2802 95.3443L14.8049 95.1674C14.9638 94.5337 15.2098 94.0132 15.5428 93.606C15.8691 93.1874 16.2541 92.8991 16.6979 92.7409C17.1349 92.5714 17.5978 92.548 18.0867 92.6705C18.5393 92.784 18.9161 93.0084 19.2169 93.3436C19.511 93.6675 19.728 94.0683 19.868 94.546C20.0081 95.0238 20.07 95.5445 20.0537 96.1081C20.0375 96.6717 19.9443 97.2546 19.7741 97.8566C19.6062 98.4496 19.3693 99.03 19.0633 99.598C18.7483 100.164 18.3586 100.682 17.8942 101.152Z" fill="#2A1F15"/>
<path d="M21.5546 90.3099L12.3664 86.9015L13.1504 84.7883L19.1358 87.0085L14.7766 80.4042L15.5167 78.409L24.7049 81.8174L23.9259 83.9175L17.9535 81.7021L22.2996 88.3016L21.5546 90.3099Z" fill="#2A1F15"/>
<path d="M20.4154 68.0482L21.4516 66.0308L30.1689 70.5085L29.1326 72.5259L20.4154 68.0482ZM27.0984 76.4861L26.0622 78.5035L17.3449 74.0258L18.3812 72.0084L27.0984 76.4861ZM25.6353 70.5406L23.4476 74.7996L21.7415 73.9233L23.9292 69.6643L25.6353 70.5406Z" fill="#2A1F15"/>
<path d="M34.0842 63.0408C33.3678 64.0887 32.6208 64.8838 31.843 65.4261C31.0705 65.9608 30.2933 66.2378 29.5112 66.2572C28.7215 66.2713 27.9452 66.0176 27.1824 65.4961C26.4196 64.9747 25.9053 64.3461 25.6394 63.6104C25.3659 62.8694 25.338 62.0419 25.5557 61.1281C25.7787 60.2065 26.2484 59.2217 26.9648 58.1738C26.9753 58.1584 27.0043 58.116 27.0517 58.0467C27.1043 57.9697 27.1544 57.8965 27.2018 57.8271C27.2545 57.7501 27.2834 57.7077 27.2887 57.7C27.9998 56.6598 28.7389 55.8762 29.5062 55.3493C30.2787 54.8146 31.0572 54.5441 31.8416 54.5377C32.6261 54.5313 33.3959 54.7862 34.151 55.3024C34.8984 55.8133 35.4153 56.4381 35.7018 57.1766C35.9859 57.9022 36.0244 58.7142 35.8172 59.6127C35.6152 60.5035 35.1666 61.4574 34.4713 62.4745C34.4555 62.4976 34.4187 62.5515 34.3607 62.6363C34.3028 62.721 34.2448 62.8058 34.1869 62.8905C34.1342 62.9676 34.1 63.0177 34.0842 63.0408ZM32.758 61.8798C32.7738 61.8567 32.7949 61.8259 32.8212 61.7873C32.8476 61.7488 32.866 61.7219 32.8765 61.7064C33.3611 60.9976 33.6844 60.3593 33.8463 59.7917C34.0058 59.2111 34.0105 58.6998 33.8603 58.258C33.7024 57.8109 33.3846 57.424 32.9069 57.0975C32.4292 56.7709 31.9546 56.6217 31.4831 56.6499C31.0116 56.678 30.5447 56.8732 30.0822 57.2355C29.6174 57.5847 29.1479 58.1061 28.6738 58.7995C28.6633 58.8149 28.6422 58.8457 28.6106 58.892C28.5843 58.9305 28.5606 58.9652 28.5395 58.996C28.0391 59.728 27.6989 60.3828 27.5187 60.9606C27.3385 61.5384 27.3247 62.0547 27.4774 62.5095C27.6223 62.9591 27.9374 63.3498 28.4228 63.6816C28.9083 64.0134 29.3958 64.1602 29.8856 64.1219C30.3676 64.0783 30.8489 63.8704 31.3296 63.498C31.8078 63.1126 32.284 62.5733 32.758 61.8798ZM34.5086 64.2806L25.7133 58.268L26.8905 56.5459L35.6858 62.5585L34.5086 64.2806Z" fill="#2A1F15"/>
<path d="M36.9395 50.4684L40.0374 46.9101L41.3679 48.0684L38.2699 51.6267L36.9395 50.4684ZM40.0908 52.9893L43.5932 48.9663L44.9659 50.1614L39.9834 55.8843L32.5921 49.4494L37.4551 43.8637L38.8278 45.0587L35.4448 48.9444L40.0908 52.9893Z" fill="#2A1F15"/>
<path d="M51.3802 43.8454L45.9274 42.4884L46.5099 40.4274L53.2603 42.0844L51.3802 43.8454ZM46.7311 48.2L40.0317 41.0475L41.6768 39.5066L48.3762 46.6592L46.7311 48.2ZM45.197 44.2275L43.905 42.8481L46.3982 40.5129L47.6902 41.8923L45.197 44.2275ZM47.4671 41.1422L45.7724 42.3843L44.7421 36.6355L46.4894 34.9989L47.4671 41.1422Z" fill="#2A1F15"/>
<path d="M55.2558 40.3075L49.4045 32.446L51.2126 31.1002L55.9605 37.4792L59.4645 34.8712L54.7166 28.4922L56.5247 27.1464L62.376 35.0079L55.2558 40.3075ZM63.0628 37.0796L61.5081 34.9907L62.2188 35.1249L60.5679 36.3537L59.4645 34.8712L62.3957 32.6895L64.7362 35.8341L63.0628 37.0796Z" fill="#2A1F15"/>
<path d="M65.3288 32.9309L60.4378 24.4386L62.3911 23.3137L65.5772 28.8458L66.4431 20.98L68.2871 19.9179L73.1781 28.4102L71.237 29.5281L68.0579 24.0082L67.185 31.8618L65.3288 32.9309Z" fill="#2A1F15"/>
<path d="M76.3414 26.7213L72.4901 17.7098L74.5628 16.824L77.0716 22.6944L78.8626 14.9864L80.8194 14.1501L84.6706 23.1617L82.6109 24.042L80.1075 18.1845L78.3111 25.8796L76.3414 26.7213Z" fill="#2A1F15"/>
<path d="M93.0373 20.3994L92.1492 17.4356L92.8262 17.7442L90.2514 18.5158C89.4378 18.7596 88.6958 18.8358 88.0253 18.7444C87.3549 18.6531 86.7868 18.3994 86.3212 17.9836C85.8556 17.5678 85.5169 17.0067 85.3053 16.3004C85.0856 15.5673 85.0634 14.8919 85.2388 14.2742C85.4205 13.6449 85.7738 13.1006 86.2987 12.6412C86.8236 12.1819 87.4973 11.829 88.3198 11.5825L92.3699 10.3688L95.183 19.7564L93.0373 20.3994ZM87.0963 22.1797L88.4211 18.1143L90.6205 17.4552L89.3896 21.4925L87.0963 22.1797ZM91.9402 16.7382L90.5858 12.2188L91.2911 12.6213L88.9039 13.3366C88.287 13.5215 87.8561 13.8065 87.611 14.1918C87.3749 14.5743 87.3412 15.0472 87.51 15.6105C87.6734 16.1558 87.9558 16.5292 88.3571 16.7304C88.7585 16.9317 89.2631 16.9412 89.8711 16.759L92.3118 16.0276L91.9402 16.7382Z" fill="#2A1F15"/>
<path d="M102.877 17.881L101.56 8.16993L103.793 7.86692L104.652 14.193L108.427 7.23833L110.536 6.95226L111.853 16.6633L109.633 16.9644L108.777 10.6522L105 17.593L102.877 17.881Z" fill="#2A1F15"/>
<path d="M125.489 16.3593C124.734 16.3388 124.032 16.1985 123.386 15.9383C122.749 15.669 122.199 15.2993 121.735 14.8293C121.272 14.3593 120.913 13.8127 120.659 13.1896C120.415 12.5668 120.302 11.8868 120.322 11.1498C120.342 10.4127 120.491 9.73981 120.769 9.13109C121.056 8.52263 121.444 7.99624 121.932 7.55194C122.429 7.10788 123.003 6.77326 123.654 6.54808C124.304 6.31357 125.012 6.20665 125.777 6.22733C126.626 6.25027 127.387 6.42023 128.06 6.73719C128.743 7.04508 129.31 7.48989 129.761 8.07162L128.269 9.3758C127.943 8.98419 127.578 8.68954 127.172 8.49185C126.767 8.28483 126.322 8.17476 125.837 8.16165C125.38 8.1493 124.958 8.21259 124.571 8.35153C124.185 8.49047 123.848 8.69611 123.56 8.96844C123.273 9.24078 123.045 9.56606 122.876 9.9443C122.716 10.3228 122.63 10.7453 122.617 11.2118C122.605 11.6783 122.668 12.1048 122.807 12.4914C122.955 12.8782 123.165 13.2153 123.438 13.5028C123.71 13.7902 124.035 14.0138 124.414 14.1734C124.792 14.333 125.21 14.419 125.667 14.4314C126.153 14.4445 126.603 14.3633 127.018 14.1878C127.434 14.0029 127.815 13.7191 128.162 13.3363L129.581 14.7192C129.099 15.2757 128.509 15.6939 127.811 15.9738C127.121 16.254 126.348 16.3824 125.489 16.3593Z" fill="#2A1F15"/>
<path d="M134.021 16.7229L135.063 8.31724L135.513 8.89502L131.901 8.44729L132.128 6.61332L140.562 7.65861L140.335 9.49258L136.722 9.04484L137.286 8.59277L136.244 16.9984L134.021 16.7229Z" fill="#2A1F15"/>
<path d="M144.857 12.4481L149.463 13.4732L149.079 15.195L144.474 14.17L144.857 12.4481ZM144.145 16.4203L149.352 17.5792L148.956 19.3557L141.55 17.7071L143.679 8.14123L150.908 9.75028L150.512 11.5268L145.484 10.4075L144.145 16.4203Z" fill="#2A1F15"/>
<path d="M152.127 20.1426L155.258 10.856L159.277 12.2111C160.109 12.4913 160.779 12.8699 161.288 13.3468C161.8 13.8148 162.135 14.3561 162.292 14.9705C162.449 15.585 162.41 16.2415 162.175 16.9402C161.942 17.6301 161.577 18.172 161.08 18.5658C160.583 18.9596 159.987 19.1922 159.294 19.2637C158.603 19.3263 157.842 19.2174 157.01 18.9372L154.184 17.9847L155.466 17.3382L154.277 20.8671L152.127 20.1426ZM155.386 17.577L154.775 16.2335L157.481 17.1458C158.144 17.3694 158.687 17.3948 159.11 17.2221C159.533 17.0494 159.829 16.711 159.999 16.2068C160.172 15.6939 160.142 15.2407 159.911 14.8474C159.679 14.4541 159.231 14.1456 158.568 13.922L155.861 13.0097L157.161 12.3102L155.386 17.577Z" fill="#2A1F15"/>
<path d="M162.747 23.7786L166.898 14.9013L168.94 15.856L166.236 21.639L173.175 17.8368L175.103 18.7382L170.952 27.6155L168.923 26.6667L171.621 20.8964L164.687 24.686L162.747 23.7786Z" fill="#2A1F15"/>
<path d="M174.117 29.3965C173.975 29.3079 173.831 29.2024 173.688 29.0802C173.552 28.9628 173.405 28.8277 173.247 28.6749L174.378 27.1193C174.469 27.2199 174.574 27.3071 174.693 27.381C175.018 27.5828 175.353 27.6096 175.698 27.4611C176.048 27.3048 176.417 27.0014 176.807 26.5511C177.196 26.1008 177.625 25.5262 178.091 24.8274L180.308 21.5234L186.707 25.4964L181.537 33.8221L179.634 32.6405L184.102 25.4448L184.269 26.1581L180.594 23.8762L181.274 23.656L179.837 25.812C179.306 26.614 178.8 27.3051 178.319 27.8852C177.838 28.4654 177.368 28.9209 176.91 29.2517C176.452 29.5825 175.993 29.7644 175.533 29.7974C175.073 29.8305 174.601 29.6968 174.117 29.3965Z" fill="#2A1F15"/>
<path d="M184.655 35.8819L190.762 28.2167L192.525 29.6211L188.547 34.6145L196.182 32.5346L197.846 33.8605L191.74 41.5257L189.988 40.13L193.957 35.1476L186.331 37.2166L184.655 35.8819Z" fill="#2A1F15"/>
<path d="M194.02 42.274L195.658 41.6087C195.781 42.083 195.962 42.5371 196.203 42.9709C196.457 43.4047 196.74 43.7887 197.053 44.123C197.378 44.4572 197.71 44.7188 198.048 44.9078C198.393 45.1033 198.717 45.2065 199.021 45.2175C199.331 45.235 199.598 45.1308 199.82 44.9048C200.082 44.6389 200.166 44.3347 200.071 43.9922C199.983 43.643 199.756 43.2883 199.39 42.928L197.685 41.2475L198.884 40.031L200.469 41.5936C200.795 41.9146 201.113 42.0971 201.424 42.141C201.741 42.1915 202.014 42.1004 202.243 41.8678C202.44 41.6683 202.531 41.4433 202.516 41.1926C202.507 40.9353 202.416 40.662 202.243 40.3729C202.075 40.0903 201.846 39.8115 201.553 39.5364C201.261 39.2614 200.919 39.0163 200.528 38.8014C200.137 38.5864 199.727 38.4178 199.297 38.2956L200.037 36.5676C200.718 36.7805 201.351 37.0894 201.935 37.4943C202.531 37.8992 203.04 38.3542 203.459 38.8593C203.892 39.3643 204.212 39.89 204.421 40.4363C204.636 40.9759 204.722 41.4934 204.68 41.9886C204.637 42.4839 204.432 42.9177 204.065 43.29C203.738 43.6224 203.36 43.833 202.932 43.9219C202.503 44.0108 202.064 43.9711 201.614 43.8028C201.171 43.641 200.75 43.3636 200.351 42.9705L200.744 42.6508C201.21 43.1094 201.533 43.5856 201.715 44.0792C201.91 44.5728 201.963 45.0509 201.874 45.5136C201.798 45.9761 201.583 46.3868 201.23 46.7458C200.902 47.0782 200.517 47.2889 200.076 47.3779C199.648 47.4668 199.192 47.4503 198.709 47.3284C198.227 47.2065 197.747 46.9955 197.269 46.6954C196.792 46.3953 196.337 46.0191 195.905 45.5668C195.479 45.1211 195.099 44.6223 194.765 44.0703C194.438 43.5117 194.189 42.913 194.02 42.274Z" fill="#2A1F15"/>
<path d="M200.98 50.2556L211.337 47.4527L212.752 49.1894L207.921 58.7763L206.418 56.931L210.863 48.6879L211.428 49.3826L202.448 52.0574L200.98 50.2556ZM203.988 50.6226L205.703 50.0017L208.886 53.9093L207.94 55.4745L203.988 50.6226Z" fill="#2A1F15"/>
<path d="M209.469 60.8413L217.737 55.5805L218.947 57.4822L212.238 61.751L214.583 65.4362L221.292 61.1675L222.502 63.0692L214.234 68.33L209.469 60.8413ZM212.118 68.8635L214.315 67.4656L214.129 68.1646L213.024 66.4283L214.583 65.4362L216.545 68.5191L213.237 70.6234L212.118 68.8635Z" fill="#2A1F15"/>
<path d="M216.11 71.4903L224.941 67.2403L225.918 69.2714L220.166 72.0399L227.946 73.4848L228.869 75.4023L220.038 79.6522L219.067 77.6338L224.807 74.8713L217.039 73.4204L216.11 71.4903Z" fill="#2A1F15"/>
<path d="M223.166 87.8728L226.087 86.8515L225.809 87.5418L224.922 85.0045C224.642 84.2028 224.532 83.465 224.593 82.7911C224.654 82.1172 224.881 81.5382 225.276 81.0543C225.67 80.5703 226.215 80.2066 226.911 79.9632C227.634 79.7105 228.307 79.6579 228.932 79.8051C229.569 79.9581 230.129 80.2864 230.612 80.79C231.094 81.2936 231.477 81.9506 231.761 82.7612L233.157 86.7522L223.906 89.9872L223.166 87.8728ZM221.119 82.0185L225.24 83.1579L225.998 85.3252L221.909 84.2783L221.119 82.0185ZM226.774 86.6111L231.228 85.0537L230.858 85.7764L230.035 83.4241C229.822 82.8162 229.518 82.3985 229.122 82.1712C228.729 81.9526 228.255 81.9404 227.7 82.1345C227.163 82.3224 226.803 82.6214 226.62 83.0314C226.437 83.4414 226.45 83.946 226.66 84.5451L227.501 86.9503L226.774 86.6111Z" fill="#2A1F15"/>
<path d="M229.387 103.575C229.336 103.262 229.363 102.96 229.466 102.669C229.581 102.385 229.754 102.144 229.987 101.946C230.228 101.745 230.52 101.617 230.86 101.562C231.201 101.506 231.513 101.536 231.797 101.65C232.08 101.765 232.317 101.939 232.506 102.173C232.706 102.415 232.832 102.692 232.883 103.005C232.934 103.318 232.902 103.617 232.788 103.9C232.684 104.191 232.516 104.436 232.284 104.635C232.051 104.834 231.765 104.961 231.424 105.016C231.083 105.072 230.766 105.043 230.474 104.93C230.19 104.816 229.948 104.638 229.748 104.396C229.559 104.162 229.438 103.888 229.387 103.575Z" fill="#979696"/>
</svg>
