<?xml version="1.0" encoding="utf-8"?><svg xmlns="http://www.w3.org/2000/svg" xmlns:xlink="http://www.w3.org/1999/xlink"><symbol viewBox="0 0 49 49" fill="none" id="ic_Events" xmlns="http://www.w3.org/2000/svg"><circle cx="24.5" cy="24.5" r="24.5" fill="#6697FF"/><path d="M25.59 30.12v2.14h5.456v2.073H17.955V32.26h5.454v-2.138c-2.109-.253-4.049-1.229-5.454-2.744-1.406-1.516-2.182-3.467-2.182-5.488v-6.222h17.454v6.222c0 2.02-.776 3.972-2.181 5.488-1.406 1.515-3.346 2.491-5.455 2.744zM12.5 19.74a2 2 0 0 1 2-2h.182v4.149H14.5a2 2 0 0 1-2-2v-.148zm21.818-2h.182a2 2 0 0 1 2 2v.149a2 2 0 0 1-2 2h-.182V17.74z" fill="#fff"/></symbol><symbol viewBox="0 0 49 49" fill="none" id="ic_Skates" xmlns="http://www.w3.org/2000/svg"><circle cx="24.5" cy="24.5" r="24.5" fill="#6697FF"/><path fill-rule="evenodd" clip-rule="evenodd" d="M33.387 10c.37.732.741 6.774.37 8.97-.093.556.298 1.887.678 3.177.36 1.228.71 2.419.62 2.865-.185.916-.556 2.014-.927 2.197.742 1.587 2.04 4.577 1.854 5.126-.011.034-.02.073-.029.114-.118.556-.362 1.704-10.536 1.534-10.935-.183-11.307-.549-12.047-1.83-.317-.55.371-2.38.741-2.93-.37-.122-1.111-.696-1.111-2.014 0-1.648.443-2.033 2.41-2.563.292-.079.677-.161 1.122-.257 2.653-.57 7.456-1.603 7.774-5.052.017-.183.37-4.943-.37-7.323 0-.366.259-.952 1.297-.366 1.297.732 1.853 1.464 2.78 3.661.864.061 2.854.257 3.892.55.756.213.442-.631.085-1.59-.256-.686-.533-1.43-.456-1.889l.012-.068c.182-1.083.388-2.312 1.84-2.312zm-6.301 18.125c.617.305 1.89 1.061 2.039 1.647.185.733-2.966 1.465-3.707 1.465-.092 0-.236.003-.416.006-1.27.025-4.357.086-4.032-.555a5.543 5.543 0 0 1 .926-1.282l5.19-1.281z" fill="#fff"/></symbol><symbol viewBox="0 0 49 49" fill="none" id="ic_ads" xmlns="http://www.w3.org/2000/svg"><circle cx="24.5" cy="24.5" r="24.5" fill="#6697FF"/><path d="M24.652 35.892c-1.945 0-3.924-.066-5.869.032-1.509.1-1.911-.526-1.878-1.907.1-3.553.034-7.106.067-10.658.034-1.25-.369-1.71-1.676-1.382-1.442.362-2.985.494-4.427.822-1.04.264-1.51-.098-1.811-1.085-.973-3.092-1.006-3.125 2.146-3.882 2.515-.658 5.03-1.15 7.546-1.743 1.006-.23 1.777-.099 2.582.625 1.979 1.743 4.762 1.645 6.607-.197.604-.625 1.274-.658 1.979-.56 3.655.527 7.21 1.448 10.731 2.467.704.198 1.107.527.772 1.316-.034.066-.034.099-.034.165-.838 3.42-.872 3.29-4.494 2.96-4.628-.394-4.125-1.151-4.259 3.553-.067 2.73.033 5.46-.235 8.19-.1.988-.47 1.317-1.442 1.317-2.146-.066-4.226-.033-6.305-.033zm2.415-4.112c2.113.033 2.918-1.086 2.08-2.994-.168-.427-.135-.69.033-1.052.335-.823.134-1.514-.637-1.974-.94-.56-1.946-.526-2.818.132-.67.493-1.006 1.184-.57 2.006.201.33.269.592.067 1.02-.805 1.776-.067 2.829 1.845 2.862zm-4.695-4.54c.369-.625 1.81-.427 1.24-1.414-.502-.855-1.408-.296-2.079 0-1.71.723-2.515 2.927-1.777 4.572.537 1.217 1.912 1.777 3.186 1.283 1.341-.526 1.61-1.579 1.341-2.829-.2-.987-1.106-1.25-1.911-1.612zm2.247-3.454h6.036c.47 0 1.14.033 1.14-.658 0-.69-.603-.657-1.106-.657h-12.04c-.47 0-1.107-.066-1.14.625-.034.723.637.657 1.107.657 1.978.033 3.99.033 6.003.033z" fill="#fff"/><circle cx="22.021" cy="29.54" r="1.078" fill="#fff"/><circle cx="27.182" cy="27.328" r=".793" fill="#fff"/><circle cx="27.182" cy="29.968" r=".793" fill="#fff"/></symbol><symbol viewBox="0 0 87 86" fill="none" id="ic_command" xmlns="http://www.w3.org/2000/svg"><rect x=".5" width="86" height="86" rx="43" fill="#fff"/><path fill-rule="evenodd" clip-rule="evenodd" d="M53.467 37.458H48.25a3.96 3.96 0 0 1-3.958-3.958v-5.217c0-.705.855-1.053 1.353-.554l8.376 8.376c.499.498.15 1.353-.554 1.353zM48.25 54.083h-9.5c-.87 0-1.583-.712-1.583-1.583 0-.87.712-1.583 1.583-1.583h9.5c.87 0 1.583.712 1.583 1.583 0 .87-.712 1.583-1.583 1.583zm-9.5-10.291h5.542c.87 0 1.583.712 1.583 1.583 0 .87-.712 1.583-1.583 1.583H38.75c-.87 0-1.583-.712-1.583-1.583 0-.87.712-1.583 1.583-1.583zm17.844-9.864l-8.772-8.772A3.954 3.954 0 0 0 45.029 24h-11.82a3.96 3.96 0 0 0-3.958 3.958v30.084A3.96 3.96 0 0 0 33.208 62h20.584a3.96 3.96 0 0 0 3.958-3.958v-21.32c0-1.053-.42-2.058-1.156-2.794z" fill="#6697FF"/></symbol><symbol viewBox="0 0 87 86" fill="none" id="ic_for_goalkeepers" xmlns="http://www.w3.org/2000/svg"><circle cx="40.74" cy="40.277" r="11.759" fill="#7D7D7D"/><rect x=".5" width="86" height="86" rx="43" fill="#F4F4F5"/><path fill-rule="evenodd" clip-rule="evenodd" d="M47.467 29.543a4.785 4.785 0 1 0-7.949-.188c-.197.12-.524.148-1.026.062-.858-.149-1.68.19-2.501.528l-.171.07c-.957.4-1.276.918-.28 1.675.718.598 1.357 1.236 1.476 2.632-.362-.32-.666-.646-.95-.95-.53-.568-.993-1.063-1.642-1.323l-.055-.024c-.547-.235-1.194-.513-1.58.104-.06.096-.1.182-.125.26h-.001c-.277.261-4.795 6.483-4.795 6.483s-.386-.687-.622-1.04c-.24-.362-.475-.723-.709-1.081-.386-.593-.768-1.18-1.165-1.751-.24-.359-.598-.798-1.117-.439-.438.304-.22.693-.022 1.047.036.065.071.128.102.19l.153.26c.18.31.355.615.605.896 1.044 1.19 2.313 3.788 2.313 3.788s-.4 2.991-.4 3.988c0 .798.32 2.074 1.436 2.472.599.2 1.795.36 2.154.12.693-.462 1.107-1.595 1.59-2.917.52-1.42 1.12-3.06 2.23-4.32.699-.792 1.445-1.471 2.046-2.019.155-.14.3-.272.432-.395.019.13.033.263.042.4.072.788.691.932 1.28 1.07l.196.046c3.35.917 6.7.877 10.049-.04l.152-.04c.562-.144 1.167-.3 1.204-.957a4.76 4.76 0 0 1 .076-.717c1.327 1.571 5.65 6.624 6.76 7.162 2.591 1.276 3.867.518 3.867-2.393.04-2.392-3.871-7.634-6.646-10.117a1.744 1.744 0 0 0-.057-.049.65.65 0 0 0-.49-.252c-.35-.079-.698.043-1.035.295-.898.422-1.591 1.117-2.36 1.889l-.155.155c-.155-.965.326-1.444.755-1.872l.042-.042c1.635-1.675 1.556-1.954-.797-2.632a9.523 9.523 0 0 1-.29-.09c-.473-.15-.969-.308-1.465-.11a2.16 2.16 0 0 1-.555.166zm-3.512 27.589c.239-.04 1.037-.16 1.834-.16.837 0 1.675.28 1.794 1.236.12.997-.637 1.316-1.475 1.556-2.831.717-6.22-.479-7.776-3.031-.384-.629-1.156-1.236-1.156-1.236s-.457.648-.838 1.276a7.525 7.525 0 0 1-.611.833l-.226.283-.028.041c-.908 1.343-1.827 2.701-3.8 1.754-2.194-1.037-3.19-2.951-2.553-5.184.479-1.675 1.117-3.27 2.074-4.706l1.196-1.874s1.635-2.193 1.874-2.592c.136-.209.266-.42.396-.63.714-1.154 1.418-2.29 2.835-2.999 1.674-.837 3.07-.797 4.386.32.997.837 1.755.757 2.791 0 2.114-1.436 4.826-1.157 6.181.916.42.63.849 1.257 1.277 1.884 1.93 2.823 3.864 5.653 5.104 8.883 1.037 2.792.558 4.187-1.954 5.743-1.316.797-2.473.797-3.47-.599-1.75-2.61-3.556-5.165-5.372-7.733l-1.128-1.598c-1.036-1.475-2.83-1.515-3.947-.08-.559.718-1.077 1.516-1.595 2.313-.638.957-1.596 2.553-1.596 2.553s2.553 2.751 4.188 2.83h1.595z" fill="#6697FF"/></symbol><symbol viewBox="0 0 86 86" fill="none" id="ic_goalkeeper" xmlns="http://www.w3.org/2000/svg"><rect width="86" height="86" rx="43" fill="#F4F4F5"/><path fill-rule="evenodd" clip-rule="evenodd" d="M28.27 37.847h.941v4.055H28c.213 10.117 6.847 21.089 15 21.089 8.153 0 14.787-10.972 15-21.089h-1.617v-4.055h1.347c-1.189-7.58-6.107-13.514-12.297-14.763v2.19h-4.461V23.01c-6.38 1.067-11.487 7.093-12.702 14.838zM43 39.672c1.893-.947 5.272-3.042 5.272-3.042-.324-.162-10.139 0-10.139 0L43 39.672zm-3.042 1.216c0 1.568-1.474 2.636-3.041 2.636-1.568 0-3.042-1.474-3.042-3.041 0-1.568 1.474-2.636 3.042-2.636 1.567 0 3.041 1.473 3.041 3.041zm9.328 2.636c-1.568 0-3.042-1.068-3.042-2.636s1.474-3.041 3.042-3.041c1.568 0 3.042 1.068 3.042 2.636s-1.474 3.041-3.042 3.041zm-11.558-9.53a1.014 1.014 0 1 1-2.028 0 1.014 1.014 0 0 1 2.028 0zm11.558 1.014a1.014 1.014 0 1 0 0-2.028 1.014 1.014 0 0 0 0 2.028zm-7.503-.203a1.014 1.014 0 1 1-2.027 0 1.014 1.014 0 0 1 2.027 0zm-4.258 19.264a1.014 1.014 0 1 0 0-2.028 1.014 1.014 0 0 0 0 2.028zm10.342-1.014a1.014 1.014 0 1 0 2.027 0 1.014 1.014 0 0 0-2.027 0zM35.092 55.69a1.014 1.014 0 1 0 0-2.028 1.014 1.014 0 0 0 0 2.028zM50.3 54.677a1.014 1.014 0 1 0 2.028 0 1.014 1.014 0 0 0-2.028 0zm-9.53-1.825a1.014 1.014 0 1 0 0-2.028 1.014 1.014 0 0 0 0 2.028zm1.013 2.636a1.014 1.014 0 1 1-2.027 0 1.014 1.014 0 0 1 2.027 0zm-1.014 5.07a1.014 1.014 0 1 0 0-2.028 1.014 1.014 0 0 0 0 2.027zm5.881-25.753a1.014 1.014 0 1 1-2.028 0 1.014 1.014 0 0 1 2.028 0zm-1.014 18.047a1.014 1.014 0 1 0 0-2.028 1.014 1.014 0 0 0 0 2.028zm1.014 2.636a1.014 1.014 0 1 1-2.028 0 1.014 1.014 0 0 1 2.028 0zm-1.014 5.07a1.014 1.014 0 1 0 0-2.028 1.014 1.014 0 0 0 0 2.027zm-7.908-33.053a1.014 1.014 0 1 1-2.028 0 1.014 1.014 0 0 1 2.028 0zm11.558 1.014a1.014 1.014 0 1 0 0-2.028 1.014 1.014 0 0 0 0 2.028zm-9.53 20.075L43 41.902l3.447 6.692h-6.691zm-3.448-3.65l-2.433 5.272 2.433 1.622v-6.894zm16.425 5.07L50.3 44.74v6.894l2.433-1.622z" fill="#6697FF"/></symbol><symbol viewBox="0 0 86 86" fill="none" id="ic_ice" xmlns="http://www.w3.org/2000/svg"><rect width="86" height="86" rx="43" fill="#F4F4F5"/><path fill-rule="evenodd" clip-rule="evenodd" d="M44.98 52.365v1.022c0 .823-.666 1.488-1.49 1.488h-.98a1.487 1.487 0 0 1-1.49-1.488V52.38A7.385 7.385 0 0 1 37 50.86c-.705-.546-.76-1.591-.135-2.224l.704-.697c.523-.53 1.338-.562 1.948-.135.562.404 1.25.642 1.995.642h2.96c.586 0 1.14-.325 1.37-.847a1.424 1.424 0 0 0-.887-1.948l-5.05-1.512a5.364 5.364 0 0 1-3.832-5.003c-.08-2.834 2.177-5.194 4.948-5.502v-1.022c0-.823.665-1.488 1.488-1.488h.982c.823 0 1.488.665 1.488 1.488v1.006a7.433 7.433 0 0 1 4.03 1.52c.696.546.752 1.591.126 2.216l-.704.705c-.523.53-1.338.562-1.94.135a3.45 3.45 0 0 0-2.003-.642H41.52c-.745 0-1.418.547-1.48 1.29a1.423 1.423 0 0 0 1.005 1.505l5.05 1.512a5.364 5.364 0 0 1 3.832 5.003c.08 2.834-2.177 5.194-4.948 5.502zM43 24c-10.49 0-19 8.51-19 19s8.51 19 19 19 19-8.51 19-19-8.51-19-19-19z" fill="#6697FF"/></symbol><symbol viewBox="0 0 49 49" fill="none" id="ic_people" xmlns="http://www.w3.org/2000/svg"><circle cx="24.5" cy="24.5" r="24.5" fill="#6697FF"/><path fill-rule="evenodd" clip-rule="evenodd" d="M24.759 12C18.826 12 14 16.826 14 22.759v8.197a2.562 2.562 0 0 0 2.562 2.561h1.024c.85 0 1.537-.686 1.537-1.537v-4.61c0-.851-.686-1.538-1.537-1.538a1.028 1.028 0 0 1-1.024-1.024v-2.05c0-4.518 3.678-8.196 8.197-8.196 4.518 0 8.197 3.678 8.197 8.197v2.049c0 .563-.461 1.024-1.025 1.024-.85 0-1.537.687-1.537 1.537v4.611c0 .663.417 1.226 1.003 1.442a4.949 4.949 0 0 1-2.324 2.262.896.896 0 0 0-.728-.374h-3.586a.897.897 0 0 0-.897.897v.896c0 .496.402.897.897.897h3.586c.31 0 .583-.157.744-.397a6.74 6.74 0 0 0 4.227-4.11 2.563 2.563 0 0 0 2.201-2.537v-8.197C35.517 16.826 30.691 12 24.76 12z" fill="#fff"/></symbol><symbol viewBox="0 0 86 86" fill="none" id="ic_recruit" xmlns="http://www.w3.org/2000/svg"><rect width="86" height="86" rx="43" fill="#F4F4F5"/><path d="M29.63 33.062c-.375.69-.93 1.281-1.316 1.281h-.703A2.61 2.61 0 0 0 25 36.954v2.32c0 .537.161 1.034.439 1.448.436.652.996 1.549.965 2.334-.115 2.888.24 7.295 2.839 10.847.568.776 1.896 1.428 2.849 1.553l6.556.856c.07.009.137.012.201.012.112-.001.75.312 1.424.714l7.818 4.655a2.187 2.187 0 0 0 2.987-.747l1.841-3.052c.485-.803.709-2.1.52-3.02l-.603-2.95c-.157-.769.37-1.463.853-2.01.288-.328.464-.753.464-1.209v-3.626c0-.962.778-1.805 1.735-1.883l3.638-.297c.371-.03.715-.152.995-.334.492-.319 1.322-.983 1.838-1.575A2.602 2.602 0 0 0 63 39.276v-2.32a2.61 2.61 0 0 0-2.61-2.612h-.458c-.252 0-.723-.579-1.126-1.253-1.846-3.094-6.042-7.596-14.805-7.596-8.737 0-12.685 4.476-14.37 7.567zm22.502 6.145l.492-1.266c.285-.732.904-1.325 1.385-1.325s.64.592.355 1.325l-.492 1.266c-.285.732-.904 1.325-1.386 1.325-.48 0-.64-.593-.354-1.325zm-3.59 0l.492-1.266c.285-.732.905-1.325 1.385-1.325.482 0 .64.592.356 1.325l-.493 1.266c-.284.732-.904 1.325-1.385 1.325s-.64-.593-.355-1.325zm-8.336 6.595l5.125-.87c.948-.16 2.008.432 2.37 1.323l1.16 2.865c.153.378.434.717.78.976.56.418 1.276 1.122 1.434 1.89l.661 3.234c.101.495-.044 1.341-.306 1.773l-1.842 3.052a.446.446 0 0 1-.607.152l-7.688-4.579c-.674-.401-1.223-.742-1.224-.76a.278.278 0 0 0-.003-.035l-1.267-7.018a1.717 1.717 0 0 1 1.407-2.003z" fill="#6697FF"/></symbol><symbol viewBox="0 0 86 86" fill="none" id="ic_search" xmlns="http://www.w3.org/2000/svg"><circle cx="40.24" cy="40.277" r="11.759" fill="#7D7D7D"/><rect width="86" height="86" rx="43" fill="#F4F4F5"/><path fill-rule="evenodd" clip-rule="evenodd" d="M28.524 40.286c0-6.486 5.276-11.762 11.762-11.762 6.485 0 11.762 5.276 11.762 11.762 0 6.485-5.277 11.762-11.762 11.762-6.486 0-11.762-5.277-11.762-11.762zm32.15 13.991l-6.128-6.129a16.216 16.216 0 0 0 2.026-7.862C56.572 31.29 49.28 24 40.286 24 31.29 24 24 31.29 24 40.286c0 8.994 7.291 16.285 16.286 16.285a16.2 16.2 0 0 0 7.861-2.025l6.13 6.13a4.525 4.525 0 0 0 6.398-6.399z" fill="#6697FF"/><circle cx="40.283" cy="40.277" r="8.757" fill="#6697FF"/></symbol><symbol viewBox="0 0 49 49" fill="none" id="ic_shop" xmlns="http://www.w3.org/2000/svg"><circle cx="24.5" cy="24.5" r="24.5" fill="#6697FF"/><path d="M17.58 15.236l.278 1.374h13.404c.447 0 1.325.013 2.04.025a.996.996 0 0 1 .971 1.12c-.088.702-.197 1.56-.258 2.014l-.93 6.846a2.783 2.783 0 0 1-2.552 2.398l-10.367.767c-.735.053-2.448.156-2.448.156l-.483-2.38-2.386-11.797c-.028-.167-.145-.262-.279-.262h-2.497l-.552-2.78h3.05a3.055 3.055 0 0 1 3.008 2.519z" fill="#fff"/><path fill-rule="evenodd" clip-rule="evenodd" d="M21.25 33.852a2.224 2.224 0 1 1-4.448.001 2.224 2.224 0 0 1 4.448-.001zm10.012 0a2.224 2.224 0 1 1-4.449 0 2.224 2.224 0 0 1 4.449 0z" fill="#fff"/></symbol><symbol viewBox="0 0 49 49" fill="none" id="ic_shops" xmlns="http://www.w3.org/2000/svg"><circle cx="24.5" cy="24.5" r="24.5" fill="#6697FF"/><path fill-rule="evenodd" clip-rule="evenodd" d="M14.243 28.938l2.702-.64a8.419 8.419 0 0 1 9.99-11.916l1.032-2.82A11.411 11.411 0 0 0 24.42 13C18.112 13 13 18.112 13 24.42c0 1.64.345 3.198.968 4.607.088-.036.18-.065.275-.088zm13.017 3.408a3.011 3.011 0 0 1-1.937 1.607l-4.665 1.25a11.4 11.4 0 0 0 3.76.634c6.307 0 11.42-5.112 11.42-11.418a11.38 11.38 0 0 0-2.923-7.63l-.428 1.14-.806 2.229a8.422 8.422 0 0 1-4.421 12.188zm2.874-14.109l1.022-2.792a1.02 1.02 0 0 1 .087-.182 11.44 11.44 0 0 0-1.338-.86l-.267.707-.779 2.155c.456.284.883.61 1.275.972z" fill="#fff"/><path d="M14.908 30.695l7.304-1.729a4.339 4.339 0 0 0 3.079-2.74l4.813-13.155a1.085 1.085 0 0 1 1.587-.554l.106.065c.434.266.624.797.459 1.278l-.714 1.895-5.521 15.277a3.254 3.254 0 0 1-2.218 2.037l-7.27 1.948a2.553 2.553 0 0 1-3.127-1.805 2.043 2.043 0 0 1 1.502-2.517z" fill="#fff"/></symbol><symbol viewBox="0 0 512 512" id="icon__apple" xmlns="http://www.w3.org/2000/svg"><path d="M185.255 512c-76.201-.439-139.233-155.991-139.233-235.21 0-129.404 97.075-157.734 134.487-157.734 16.86 0 34.863 6.621 50.742 12.48 11.104 4.087 22.588 8.306 28.975 8.306 3.823 0 12.832-3.589 20.786-6.738 16.963-6.753 38.071-15.146 62.651-15.146h.146c18.354 0 74.004 4.028 107.461 54.272l7.837 11.777-11.279 8.511c-16.113 12.158-45.513 34.336-45.513 78.267 0 52.031 33.296 72.041 49.292 81.665 7.061 4.248 14.37 8.628 14.37 18.208 0 6.255-49.922 140.566-122.417 140.566-17.739 0-30.278-5.332-41.338-10.034-11.191-4.761-20.845-8.862-36.797-8.862-8.086 0-18.311 3.823-29.136 7.881C221.496 505.73 204.752 512 185.753 512h-.498zM351.343 0c1.888 68.076-46.797 115.304-95.425 112.342C247.905 58.015 304.54 0 351.343 0z"/></symbol><symbol viewBox="0 0 24 24" id="icon__google" xmlns="http://www.w3.org/2000/svg"><path d="M18.168 15.838l-2.866-2.818L4.781 23.395zm0-7.671L4.781.61l10.521 10.375zm4.195 5.26c.858-.67.858-2.18-.057-2.85l-2.808-1.598-3.133 3.024 3.133 3.024zM2.034 24l12.234-12.002L2.034.001V0C1.415.319 1 .9 1 1.655v20.69c0 .755.415 1.336 1.034 1.655z"/></symbol></svg>