<svg width="52" height="51" viewBox="0 0 52 51" fill="none" xmlns="http://www.w3.org/2000/svg">
<path d="M16.5341 1.37559C17.1958 0.118265 18.7918 -0.369871 20.0432 0.302363L24.7034 2.80583C25.4315 3.19694 26.3186 3.20855 27.0725 2.83685L31.8136 0.499403C33.0879 -0.128851 34.6243 0.371777 35.2217 1.60989L37.5967 6.53248C37.938 7.23994 38.6102 7.73941 39.4051 7.87626L44.7863 8.80264C46.1396 9.03562 47.0312 10.2818 46.7922 11.6063L45.8031 17.0858C45.6656 17.8474 45.9019 18.6207 46.4416 19.1751L50.3246 23.1646C51.2631 24.1289 51.2205 25.6608 50.2288 26.611L46.2855 30.3892C45.7029 30.9474 45.4249 31.7375 45.5374 32.5149L46.32 37.9245C46.5169 39.2851 45.523 40.5597 44.1154 40.7517L38.8782 41.466C38.0454 41.5796 37.3164 42.0855 36.9315 42.817L34.4674 47.4994C33.8057 48.7567 32.2097 49.2449 30.9583 48.5726L26.2981 46.0692C25.57 45.6781 24.6829 45.6664 23.929 46.0382L19.1879 48.3756C17.9136 49.0039 16.3771 48.5032 15.7798 47.2651L13.4048 42.3425C13.0635 41.6351 12.3913 41.1356 11.5963 40.9987L6.2152 40.0724C4.86187 39.8394 3.97024 38.5931 4.2093 37.2687L5.19838 31.7892C5.33585 31.0276 5.09953 30.2543 4.55985 29.6999L0.676878 25.7104C-0.261639 24.7461 -0.219062 23.2142 0.772664 22.264L4.716 18.4858C5.29853 17.9276 5.57661 17.1375 5.46412 16.3601L4.68144 10.9505C4.48458 9.58986 5.47849 8.31534 6.88612 8.12335L12.1233 7.409C12.9561 7.29541 13.685 6.78952 14.07 6.05801L16.5341 1.37559Z" fill="#0E4382"/>
<path fill-rule="evenodd" clip-rule="evenodd" d="M18.1952 23.7694C19.5901 23.5724 20.8499 22.8292 21.6974 21.7035C22.5443 20.5773 22.9095 19.161 22.7124 17.7661C22.5154 16.3712 21.7722 15.1115 20.6465 14.2639C19.5203 13.4171 18.104 13.0518 16.7091 13.2489C15.3142 13.4459 14.0544 14.1891 13.2069 15.3148C12.36 16.4411 11.9948 17.8573 12.1919 19.2522C12.3889 20.6471 13.1321 21.9069 14.2578 22.7544C15.384 23.6013 16.8003 23.9665 18.1952 23.7694ZM17.0806 15.879C17.7781 15.7805 18.4865 15.9631 19.0493 16.3866C19.6121 16.81 19.9838 17.4402 20.0823 18.1376C20.1808 18.8351 19.9982 19.5435 19.5748 20.1063C19.1513 20.6691 18.5211 21.0408 17.8237 21.1393C17.1262 21.2378 16.4178 21.0553 15.855 20.6318C15.2922 20.2083 14.9205 19.5781 14.822 18.8807C14.7235 18.1832 14.9061 17.4748 15.3295 16.912C15.753 16.3492 16.3832 15.9775 17.0806 15.879ZM33.2069 25.6629C31.812 25.8599 30.5522 26.6031 29.7047 27.7288C28.8578 28.855 28.4926 30.2713 28.6897 31.6662C28.8867 33.0611 29.6299 34.3209 30.7556 35.1684C31.8818 36.0153 33.2981 36.3805 34.693 36.1834C36.0879 35.9864 37.3477 35.2432 38.1952 34.1175C39.0421 32.9913 39.4073 31.575 39.2102 30.1801C39.0132 28.7852 38.27 27.5254 37.1443 26.6779C36.0181 25.831 34.6018 25.4658 33.2069 25.6629ZM34.3215 33.5533C33.624 33.6518 32.9156 33.4692 32.3528 33.0458C31.79 32.6223 31.4183 31.9921 31.3198 31.2947C31.2213 30.5972 31.4039 29.8888 31.8273 29.326C32.2508 28.7632 32.881 28.3915 33.5784 28.293C34.2759 28.1945 34.9843 28.3771 35.5471 28.8005C36.1099 29.224 36.4816 29.8542 36.5801 30.5516C36.6786 31.2491 36.496 31.9575 36.0726 32.5203C35.6491 33.0831 35.0189 33.4548 34.3215 33.5533ZM33.692 13.4428C33.2535 13.1129 32.6306 13.2009 32.3006 13.6394L16.8858 34.1254C16.5559 34.5639 16.6439 35.1869 17.0824 35.5168L17.7106 35.9895C18.1491 36.3195 18.772 36.2315 19.102 35.793L34.5168 15.3069C34.8467 14.8684 34.7587 14.2455 34.3202 13.9155L33.692 13.4428Z" fill="white"/>
</svg>
