<svg width="110" height="33" viewBox="0 0 110 33" fill="none" xmlns="http://www.w3.org/2000/svg">
<path fill-rule="evenodd" clip-rule="evenodd" d="M4.62778 4.1731H20.1689C22.4002 4.1731 24.2258 5.9987 24.2258 8.22999V23.7711C24.2258 26.0024 22.4002 27.828 20.1689 27.828H4.62778C2.39648 27.828 0.570882 26.0024 0.570882 23.7711V8.22999C0.570882 5.9987 2.39648 4.1731 4.62778 4.1731V4.1731Z" fill="#FEFEFE"/>
<path fill-rule="evenodd" clip-rule="evenodd" d="M4.25272 3.60229H20.544C22.883 3.60229 24.7967 5.51602 24.7967 7.85502V24.1463C24.7967 26.4853 22.883 28.399 20.544 28.399H4.25272C1.91373 28.399 0 26.4853 0 24.1463V7.85502C0 5.51602 1.91372 3.60229 4.25272 3.60229ZM9.29878 6.6891H15.498C16.2482 6.6891 16.7378 7.30293 16.7378 8.05318V11.6612H20.544C21.2943 11.6612 21.7099 12.1508 21.7099 12.9011V19.1003C21.7099 19.8505 21.2943 20.3401 20.544 20.3401H16.7378V24.1463C16.7378 24.8966 16.2482 25.2994 15.498 25.2994H9.29878C8.54854 25.2994 8.05894 24.8099 8.05894 24.0596V20.3401H4.25272C3.50248 20.3401 3.09959 19.8505 3.09959 19.1003V12.9011C3.09959 12.1508 3.70064 11.6612 4.45089 11.6612H8.05894V7.85502C8.05894 7.10477 8.54854 6.6891 9.29878 6.6891Z" fill="#1C257B"/>
<path fill-rule="evenodd" clip-rule="evenodd" d="M85.3293 16.9896H84.3936C83.9973 16.9896 83.6574 17.0209 83.3779 17.0768C83.0983 17.1387 82.8714 17.2237 82.6949 17.3415C82.5183 17.4616 82.3917 17.603 82.309 17.7691C82.2284 17.9352 82.1889 18.1227 82.1889 18.3397C82.1889 18.7048 82.3024 18.9909 82.5354 19.1959C82.765 19.407 83.0851 19.5095 83.4946 19.5095C83.8416 19.5095 84.1579 19.4223 84.4478 19.2447C84.7367 19.0726 85.03 18.815 85.3293 18.4746V16.9896H85.3293ZM87.7411 20.7182C87.7411 20.813 87.7077 20.8804 87.6408 20.9363C87.5778 20.9868 87.4747 21.0196 87.3349 21.047C87.1941 21.0701 86.9885 21.0816 86.7144 21.0816C86.4217 21.0816 86.2085 21.0701 86.0753 21.047C85.9432 21.0196 85.8489 20.9868 85.793 20.9363C85.7393 20.8804 85.7091 20.813 85.7091 20.7182V20.0275C85.3528 20.4084 84.9433 20.7105 84.4873 20.9248C84.0274 21.1375 83.5176 21.2438 82.9585 21.2438C82.4948 21.2438 82.0727 21.1857 81.6857 21.0662C81.2992 20.9445 80.9632 20.7664 80.6798 20.5285C80.397 20.2906 80.1777 19.9968 80.021 19.6449C79.8642 19.2946 79.788 18.8829 79.788 18.4187C79.788 17.9083 79.8878 17.4654 80.084 17.096C80.2835 16.7189 80.5801 16.4135 80.9737 16.168C81.3667 15.9224 81.8556 15.7442 82.4422 15.6264C83.0287 15.5102 83.7073 15.4488 84.4807 15.4488L85.3293 15.4482V14.9242C85.3293 14.6479 85.3029 14.41 85.2465 14.2072C85.1933 14.0022 85.1001 13.8339 84.9735 13.6925C84.8469 13.5571 84.677 13.4585 84.467 13.391C84.2538 13.3275 83.9945 13.2962 83.681 13.2962C83.271 13.2962 82.9048 13.339 82.5819 13.4316C82.2629 13.5226 81.9757 13.6213 81.729 13.7353C81.4829 13.8438 81.2768 13.9458 81.1096 14.0329C80.9435 14.1278 80.8103 14.1683 80.7034 14.1683C80.6338 14.1683 80.5708 14.1508 80.5138 14.1047C80.46 14.0603 80.414 13.9962 80.3773 13.9091C80.3438 13.8263 80.3137 13.7199 80.2939 13.5977C80.2742 13.47 80.2676 13.3351 80.2676 13.1844C80.2676 12.9871 80.2808 12.8243 80.3137 12.7064C80.3471 12.5946 80.4101 12.4839 80.5006 12.3934C80.5905 12.2964 80.75 12.1939 80.9764 12.0799C81.2061 11.9681 81.473 11.8617 81.7794 11.7631C82.082 11.6644 82.4186 11.5849 82.7782 11.5213C83.1377 11.461 83.511 11.4303 83.8942 11.4303C84.5772 11.4303 85.1632 11.4961 85.6455 11.6315C86.1323 11.7631 86.5286 11.9719 86.8422 12.2465C87.1546 12.5228 87.3815 12.8769 87.5246 13.3154C87.6671 13.7506 87.7411 14.267 87.7411 14.8645V20.7182L87.7411 20.7182ZM79.737 20.6984C79.737 20.7664 79.7168 20.8245 79.6839 20.8727C79.6471 20.9193 79.5808 20.9599 79.4876 20.9906C79.3939 21.0196 79.2645 21.0388 79.1012 21.0547C78.9411 21.0739 78.7284 21.0816 78.4686 21.0816C78.2017 21.0816 77.9852 21.0778 77.8191 21.0624C77.6519 21.0465 77.5159 21.0235 77.409 20.9983C77.3027 20.9676 77.2194 20.9286 77.1591 20.8766C77.1026 20.8245 77.0495 20.7565 77.0062 20.6738L74.1054 16.0885V20.6869C74.1054 20.7565 74.0884 20.813 74.0489 20.8612C74.0094 20.9073 73.942 20.9522 73.8488 20.9829C73.7523 21.0158 73.6285 21.0388 73.4728 21.0547C73.316 21.0739 73.1198 21.0816 72.8764 21.0816C72.6363 21.0816 72.4368 21.0739 72.2833 21.0547C72.1276 21.0388 72.001 21.0158 71.9073 20.9829C71.8113 20.9522 71.7439 20.9073 71.7072 20.8612C71.6677 20.813 71.6475 20.7565 71.6475 20.6869L71.648 7.85856C71.648 7.79278 71.6677 7.73687 71.7072 7.6848C71.7439 7.63054 71.8113 7.58613 71.9073 7.55105C72.001 7.51816 72.1276 7.4913 72.2833 7.46993C72.4373 7.45075 72.6363 7.43923 72.8764 7.43923C73.1198 7.43868 73.316 7.45074 73.4728 7.46993C73.6285 7.49131 73.7523 7.51817 73.8488 7.55105C73.9426 7.58613 74.0094 7.63053 74.0489 7.6848C74.0884 7.73687 74.1054 7.79279 74.1054 7.85856V15.4987L76.6833 12.0355C76.7332 11.956 76.7929 11.8886 76.8598 11.8305C76.9234 11.7745 77.01 11.7263 77.1169 11.6912C77.2221 11.6605 77.3592 11.6353 77.5159 11.62C77.6755 11.6041 77.8788 11.5964 78.1249 11.5964C78.3689 11.5964 78.5717 11.6041 78.7378 11.62C78.9011 11.6353 79.0343 11.6605 79.1385 11.6912C79.2371 11.7263 79.3084 11.7669 79.3479 11.8168C79.3846 11.8612 79.4043 11.9253 79.4043 11.9965C79.4043 12.0914 79.3808 12.1977 79.3309 12.3101C79.2843 12.4203 79.2108 12.5381 79.1111 12.6582L76.5671 15.5469L79.5112 20.107C79.5907 20.2347 79.6472 20.3449 79.6839 20.4414C79.7173 20.5362 79.7365 20.6233 79.7365 20.6984H79.7371L79.737 20.6984ZM68.1596 15.3808C68.1809 14.6945 68.0439 14.1508 67.7474 13.7567C67.4508 13.3642 66.9947 13.1685 66.3753 13.1685C66.0618 13.1685 65.7916 13.225 65.5624 13.3428C65.3289 13.4585 65.1393 13.6174 64.9863 13.8148C64.8334 14.0137 64.7161 14.2478 64.6333 14.5164C64.5527 14.7894 64.5067 15.0755 64.4935 15.3808H68.1596L68.1596 15.3808ZM70.5413 16.0885C70.5413 16.3823 70.4749 16.6048 70.3418 16.7479C70.2085 16.8932 70.0255 16.9606 69.7925 16.9606H64.4935C64.4935 17.3339 64.5368 17.6704 64.6229 17.9719C64.7134 18.274 64.8531 18.531 65.0428 18.7437C65.2357 18.9542 65.4819 19.117 65.785 19.2272C66.0881 19.3352 66.4515 19.3933 66.8747 19.3933C67.3045 19.3933 67.6805 19.3587 68.0039 19.3023C68.33 19.2365 68.6129 19.1691 68.8502 19.0934C69.086 19.0183 69.2827 18.9504 69.439 18.8906C69.5957 18.827 69.7223 18.7958 69.8188 18.7958C69.8786 18.7958 69.9285 18.8073 69.9652 18.8309C70.0046 18.8517 70.0386 18.8945 70.0655 18.9542C70.0891 19.0107 70.1088 19.0934 70.1181 19.2042C70.1285 19.3099 70.1324 19.4415 70.1324 19.6081C70.1324 19.7512 70.1285 19.8729 70.122 19.9738C70.1154 20.0719 70.105 20.159 70.0918 20.2308C70.0825 20.3021 70.0616 20.3624 70.0348 20.4123C70.0085 20.4611 69.9756 20.5109 69.9323 20.5515C69.889 20.5981 69.7755 20.6617 69.5853 20.7373C69.3956 20.8168 69.1561 20.8919 68.8634 20.9676C68.5696 21.0426 68.2363 21.1068 67.8603 21.1611C67.481 21.217 67.0775 21.2438 66.6483 21.2438C65.876 21.2438 65.1957 21.149 64.613 20.9522C64.0336 20.7604 63.5474 20.4611 63.1544 20.0642C62.7647 19.6679 62.4747 19.1652 62.2823 18.5656C62.0916 17.9566 61.9951 17.2467 61.9951 16.4349C61.9951 15.6653 62.0954 14.9631 62.2982 14.3426C62.4983 13.7199 62.791 13.1937 63.1741 12.7607C63.5606 12.3293 64.0271 12.0009 64.5763 11.7745C65.1261 11.5443 65.7455 11.4303 66.4345 11.4303C67.1647 11.4303 67.7868 11.5366 68.3032 11.751C68.8201 11.968 69.2454 12.2657 69.5754 12.6467C69.9087 13.0254 70.1521 13.4744 70.3078 13.9984C70.4645 14.5164 70.5413 15.0832 70.5413 15.69V16.0885L70.5413 16.0885ZM61.6421 19.8345C61.6421 20.1185 61.6251 20.3372 61.5889 20.4879C61.5522 20.6425 61.505 20.7489 61.4458 20.813C61.3888 20.8766 61.3017 20.9286 61.1887 20.9791C61.0764 21.0235 60.9421 21.0701 60.7891 21.1029C60.6362 21.1413 60.4701 21.1665 60.2898 21.1896C60.1133 21.2093 59.9302 21.217 59.7504 21.217C59.2609 21.217 58.8377 21.1572 58.4814 21.0311C58.1219 20.9073 57.8281 20.7181 57.5923 20.4611C57.3588 20.2034 57.1851 19.8789 57.076 19.4903C56.9664 19.1011 56.9094 18.6374 56.9094 18.1056V13.6443H55.8673C55.7435 13.6443 55.647 13.5692 55.5839 13.414C55.5165 13.2633 55.4836 13.0101 55.4836 12.6505C55.4836 12.463 55.494 12.304 55.5099 12.1708C55.5269 12.0431 55.5505 11.9406 55.5839 11.8617C55.6141 11.7899 55.6574 11.7378 55.704 11.7027C55.7539 11.6682 55.8103 11.6545 55.8766 11.6545H56.9094V9.71293C56.9094 9.64715 56.9253 9.5874 56.9625 9.53917C56.9993 9.48491 57.0661 9.4405 57.1588 9.40542C57.2525 9.3687 57.3786 9.34567 57.5381 9.32648C57.6992 9.31278 57.8955 9.30127 58.1284 9.30127C58.3713 9.30127 58.5713 9.31278 58.7309 9.32648C58.8876 9.34567 59.0142 9.3687 59.1036 9.40542C59.1973 9.4405 59.2609 9.4849 59.3004 9.53917C59.3409 9.58741 59.3568 9.64716 59.3568 9.71293V11.6545H61.2518C61.3154 11.6545 61.3718 11.6682 61.4217 11.7027C61.4722 11.7378 61.5127 11.7899 61.5456 11.8617C61.5758 11.9406 61.6021 12.0431 61.6185 12.1708C61.6355 12.304 61.6421 12.463 61.6421 12.6505C61.6421 13.0101 61.6086 13.2633 61.5456 13.414C61.4793 13.5692 61.3861 13.6443 61.2622 13.6443H59.3569V17.734C59.3569 18.206 59.4336 18.5655 59.5838 18.7996C59.734 19.0413 59.9998 19.1576 60.383 19.1576C60.5124 19.1576 60.6297 19.1477 60.7365 19.1247C60.8396 19.1011 60.9328 19.0742 61.0123 19.0452C61.0923 19.0183 61.1625 18.9909 61.2189 18.9663C61.2726 18.9427 61.322 18.935 61.3691 18.935C61.4086 18.935 61.4459 18.9427 61.4826 18.9663C61.5155 18.9909 61.5456 19.0375 61.5654 19.1055C61.5823 19.1729 61.6021 19.2677 61.6185 19.3856C61.6355 19.498 61.6421 19.6487 61.6421 19.8345L61.6421 19.8345ZM52.8854 16.3861C52.8854 16.015 52.8585 15.6615 52.8059 15.3211C52.7494 14.9768 52.6557 14.6748 52.5225 14.4062C52.3893 14.1431 52.2128 13.9266 51.993 13.7682C51.777 13.6059 51.504 13.5264 51.1801 13.5264C51.0178 13.5264 50.8572 13.5494 50.6972 13.6021C50.5382 13.652 50.3748 13.7314 50.2082 13.8394C50.0416 13.9496 49.8711 14.0932 49.6946 14.2708C49.5219 14.4451 49.3361 14.6633 49.1388 14.9248V17.7905C49.4852 18.2295 49.8146 18.5656 50.1243 18.7996C50.4379 19.0414 50.7646 19.1576 51.1006 19.1576C51.4207 19.1576 51.6926 19.0742 51.9162 18.912C52.1393 18.7492 52.3224 18.5387 52.466 18.2739C52.6096 18.0108 52.7154 17.7148 52.7861 17.3821C52.8525 17.0516 52.8854 16.7188 52.8854 16.3867V16.3861H52.8854ZM55.4441 16.2124C55.4441 16.9858 55.3603 17.6858 55.1936 18.3047C55.027 18.9274 54.788 19.4536 54.4679 19.8905C54.1478 20.3257 53.752 20.6617 53.2789 20.8958C52.8021 21.1298 52.2594 21.2438 51.6466 21.2438C51.3933 21.2438 51.1603 21.2208 50.9504 21.1704C50.7372 21.126 50.5344 21.0471 50.3348 20.9484C50.1375 20.8497 49.9413 20.722 49.745 20.5713C49.5482 20.4238 49.3482 20.25 49.1388 20.045V24.1446C49.1388 24.2082 49.1223 24.2685 49.0818 24.3168C49.0423 24.3749 48.976 24.4154 48.8828 24.4538C48.7858 24.4867 48.663 24.5141 48.5057 24.5371C48.3505 24.5547 48.1527 24.5623 47.9104 24.5623C47.6703 24.5623 47.4702 24.5547 47.3173 24.5371C47.1605 24.5141 47.0339 24.4867 46.9407 24.4538C46.8442 24.4154 46.7773 24.3749 46.7412 24.3168C46.7006 24.2685 46.6809 24.2082 46.6809 24.1446V11.985C46.6809 11.9215 46.6979 11.8617 46.7308 11.8168C46.7642 11.7669 46.8207 11.7263 46.9007 11.6912C46.9813 11.6605 47.0903 11.6353 47.2241 11.62C47.3568 11.6041 47.5228 11.5964 47.7273 11.5964C47.9197 11.5964 48.0869 11.6041 48.2201 11.62C48.3533 11.6353 48.4596 11.6605 48.5391 11.6912C48.6224 11.7263 48.68 11.7669 48.7129 11.8168C48.743 11.8612 48.7589 11.9214 48.7589 11.985V13.0139C49.0122 12.753 49.2627 12.5228 49.5049 12.3216C49.7516 12.1265 49.9977 11.9598 50.251 11.8266C50.5075 11.6912 50.7673 11.5926 51.0376 11.5251C51.3067 11.4648 51.5967 11.4303 51.9031 11.4303C52.54 11.4303 53.0827 11.5558 53.5322 11.8052C53.9817 12.0585 54.344 12.3972 54.6274 12.8363C54.9108 13.271 55.1174 13.7758 55.2468 14.358C55.3773 14.9363 55.4441 15.5513 55.4441 16.2124V16.2124ZM42.738 16.9896H41.8012C41.4055 16.9896 41.0656 17.0209 40.785 17.0768C40.5054 17.1387 40.279 17.2237 40.1025 17.3415C39.926 17.4616 39.7994 17.603 39.7161 17.7691C39.6371 17.9352 39.5966 18.1227 39.5966 18.3397C39.5966 18.7048 39.7095 18.9909 39.943 19.1959C40.1732 19.407 40.4922 19.5095 40.9023 19.5095C41.2487 19.5095 41.565 19.4223 41.8549 19.2447C42.1449 19.0726 42.4376 18.815 42.7375 18.4746L42.738 16.9896H42.738ZM45.1482 20.7182C45.1482 20.813 45.1153 20.8804 45.0485 20.9363C44.9849 20.9868 44.8818 21.0196 44.7426 21.047C44.6028 21.0701 44.3956 21.0816 44.1226 21.0816C43.8294 21.0816 43.6167 21.0701 43.4835 21.047C43.3508 21.0196 43.2571 20.9868 43.2006 20.9363C43.1469 20.8804 43.1173 20.813 43.1173 20.7182V20.0275C42.7605 20.4084 42.3505 20.7105 41.8944 20.9248C41.435 21.1375 40.9258 21.2438 40.3662 21.2438C39.9035 21.2438 39.4803 21.1857 39.0939 21.0662C38.708 20.9445 38.3709 20.7664 38.0875 20.5285C37.8041 20.2906 37.5854 19.9968 37.4286 19.6449C37.2719 19.2946 37.1951 18.8829 37.1951 18.4187C37.1951 17.9083 37.2954 17.4654 37.4917 17.096C37.6917 16.7189 37.9883 16.4135 38.3813 16.168C38.7738 15.9224 39.2633 15.7442 39.8493 15.6264C40.4358 15.5102 41.1155 15.4488 41.8878 15.4488L42.738 15.4482V14.9242C42.738 14.6479 42.7106 14.41 42.6536 14.2072C42.601 14.0022 42.5072 13.8339 42.3812 13.6925C42.254 13.5571 42.0841 13.4585 41.8747 13.391C41.6614 13.3275 41.4016 13.2962 41.0881 13.2962C40.6792 13.2962 40.313 13.339 39.989 13.4316C39.67 13.5226 39.3828 13.6213 39.1372 13.7353C38.8911 13.8438 38.6844 13.9458 38.5172 14.0329C38.3512 14.1278 38.218 14.1683 38.1111 14.1683C38.0414 14.1683 37.9779 14.1508 37.9214 14.1047C37.8682 14.0603 37.8211 13.9962 37.7844 13.9091C37.7515 13.8263 37.7213 13.7199 37.701 13.5977C37.6813 13.47 37.6747 13.3351 37.6747 13.1844C37.6747 12.9871 37.6879 12.8243 37.7213 12.7064C37.7553 12.5946 37.8183 12.4839 37.9082 12.3934C37.9981 12.2964 38.1576 12.1939 38.384 12.0799C38.6143 11.9681 38.8807 11.8617 39.1876 11.7631C39.4897 11.6644 39.8268 11.5849 40.1864 11.5213C40.5459 11.461 40.9181 11.4303 41.3018 11.4303C41.9843 11.4303 42.5708 11.4961 43.0543 11.6315C43.5405 11.7631 43.9363 11.9719 44.2493 12.2465C44.5628 12.5228 44.7886 12.8769 44.9322 13.3154C45.0759 13.7506 45.1482 14.267 45.1482 14.8645V20.7182L45.1482 20.7182Z" fill="#1C257B"/>
<path fill-rule="evenodd" clip-rule="evenodd" d="M93.1187 19.3488C93.1187 19.9555 93.0157 20.3601 92.8024 20.5689C92.5933 20.7794 92.2135 20.8821 91.6668 20.8821C91.1208 20.8821 90.741 20.7801 90.5343 20.5766C90.3248 20.3678 90.2208 19.9831 90.2208 19.4085C90.2208 18.7976 90.3276 18.3856 90.5374 18.1807C90.7507 17.9702 91.134 17.8679 91.6866 17.8679C92.2264 17.8679 92.5999 17.9702 92.809 18.173C93.0157 18.3818 93.1187 18.7707 93.1187 19.3488H93.1187Z" fill="#E31E24"/>
<path fill-rule="evenodd" clip-rule="evenodd" d="M100.247 12.5268C100.247 12.7646 100.24 12.9545 100.226 13.1049C100.212 13.2557 100.193 13.3699 100.166 13.4568C100.143 13.5396 100.107 13.6 100.066 13.6307C100.023 13.6635 99.9701 13.6788 99.9027 13.6788C99.8538 13.6788 99.7938 13.6712 99.7299 13.6481C99.6632 13.623 99.5903 13.5999 99.5103 13.5727C99.4269 13.5479 99.3375 13.5245 99.2401 13.5015C99.1441 13.4799 99.0373 13.4683 98.9172 13.4683C98.781 13.4683 98.6442 13.4938 98.5084 13.5479C98.3712 13.6038 98.2319 13.6911 98.0846 13.8087C97.9383 13.9246 97.7851 14.0796 97.6259 14.2769C97.4663 14.4682 97.2956 14.7139 97.1127 14.9977V20.42C97.1127 20.4898 97.0956 20.5463 97.0561 20.5945C97.0156 20.6406 96.9493 20.6853 96.8561 20.716C96.7598 20.7488 96.6358 20.7718 96.4791 20.7879C96.3234 20.8071 96.1258 20.8148 95.8832 20.8148C95.6437 20.8148 95.4436 20.8071 95.2907 20.7879C95.1336 20.7718 95.0073 20.7488 94.9144 20.716C94.8174 20.6853 94.751 20.6406 94.7144 20.5945C94.6749 20.5463 94.6554 20.4898 94.6554 20.42V11.7183C94.6554 11.6548 94.6711 11.5947 94.7039 11.55C94.7381 11.5001 94.7947 11.4596 94.8805 11.4244C94.9643 11.3936 95.074 11.3685 95.2073 11.3531C95.3403 11.3371 95.5065 11.3294 95.7104 11.3294C95.9167 11.3294 96.0902 11.3371 96.2263 11.3531C96.3632 11.3685 96.4696 11.3936 96.5426 11.4244C96.6187 11.4596 96.6725 11.5001 96.7032 11.55C96.736 11.5944 96.7531 11.6548 96.7531 11.7183V12.8029C96.9793 12.4786 97.1958 12.2095 97.3948 11.999C97.599 11.7878 97.7917 11.6216 97.9722 11.4963C98.1551 11.3723 98.3384 11.2851 98.5175 11.2348C98.7011 11.1866 98.8844 11.1636 99.0645 11.1636C99.1507 11.1636 99.2401 11.1713 99.3375 11.1789C99.4374 11.1866 99.5365 11.202 99.6405 11.2292C99.7432 11.2505 99.8371 11.2774 99.9132 11.3081C99.9938 11.3332 100.05 11.3685 100.086 11.3975C100.12 11.4282 100.147 11.4673 100.163 11.5078C100.18 11.5423 100.193 11.5947 100.206 11.6663C100.22 11.7337 100.229 11.8366 100.236 11.9714C100.243 12.1089 100.247 12.2964 100.247 12.5268H100.247Z" fill="#E31E24"/>
<path fill-rule="evenodd" clip-rule="evenodd" d="M109.472 20.2095C109.472 20.2793 109.455 20.3358 109.422 20.384C109.388 20.4301 109.331 20.4748 109.252 20.5055C109.169 20.5383 109.062 20.5613 108.929 20.5774C108.796 20.5966 108.629 20.6043 108.425 20.6043C108.212 20.6043 108.036 20.5966 107.902 20.5774C107.769 20.5613 107.666 20.5383 107.586 20.5055C107.51 20.4748 107.453 20.4301 107.42 20.384C107.39 20.3358 107.373 20.2793 107.373 20.2095V19.2096C106.891 19.7259 106.4 20.1208 105.904 20.3763C105.405 20.6371 104.892 20.7666 104.359 20.7666C103.76 20.7666 103.257 20.6717 102.85 20.4748C102.444 20.2831 102.115 20.0143 101.864 19.6739C101.615 19.3374 101.435 18.945 101.329 18.5006C101.222 18.0538 101.168 17.4983 101.168 16.8375V11.5078C101.168 11.4443 101.185 11.3842 101.222 11.3395C101.255 11.2896 101.321 11.2491 101.415 11.2139C101.512 11.1831 101.639 11.158 101.794 11.1426C101.955 11.1266 102.151 11.1189 102.388 11.1189C102.627 11.1189 102.827 11.1266 102.98 11.1426C103.137 11.158 103.263 11.1831 103.357 11.2139C103.454 11.2491 103.519 11.2896 103.556 11.3395C103.597 11.3839 103.617 11.4443 103.617 11.5078V16.4252C103.617 16.8797 103.646 17.2299 103.702 17.4676C103.763 17.7095 103.853 17.9183 103.973 18.0922C104.093 18.2625 104.245 18.398 104.429 18.4891C104.616 18.5872 104.832 18.6319 105.078 18.6319C105.392 18.6319 105.704 18.5181 106.021 18.2877C106.337 18.0614 106.674 17.7287 107.03 17.2955L107.03 11.5078C107.03 11.4443 107.05 11.3842 107.084 11.3395C107.12 11.2896 107.187 11.2491 107.28 11.2139C107.373 11.1831 107.499 11.158 107.656 11.1426C107.813 11.1266 108.009 11.1189 108.249 11.1189C108.492 11.1189 108.689 11.1266 108.845 11.1426C109.001 11.158 109.125 11.1831 109.215 11.2139C109.308 11.2491 109.371 11.2896 109.411 11.3395C109.451 11.3839 109.472 11.4443 109.472 11.5078V20.2095H109.472Z" fill="#E31E24"/>
</svg>
