<svg width="47" height="46" viewBox="0 0 47 46" fill="none" xmlns="http://www.w3.org/2000/svg">
<path d="M33.4383 28.9143H31.3355L30.547 28.1257C33.1756 25.2343 34.7527 21.2914 34.7527 17.0857C34.7526 7.62286 27.1297 0 17.6669 0C8.20403 0 0.581177 7.62286 0.581177 17.0857C0.581177 26.5486 8.20403 34.1714 17.6669 34.1714C21.8726 34.1714 25.8155 32.5943 28.7069 29.9657L29.4955 30.7542V32.857L42.6383 46L46.5812 42.0571L33.4383 28.9143ZM17.6669 28.9143C11.0955 28.9143 5.83832 23.6571 5.83832 17.0857C5.83832 10.5143 11.0955 5.25714 17.6669 5.25714C24.2383 5.25714 29.4955 10.5143 29.4955 17.0857C29.4955 23.6571 24.2383 28.9143 17.6669 28.9143Z" fill="#0E3F82"/>
</svg>
