<svg width="46" height="46" viewBox="0 0 46 46" fill="none" xmlns="http://www.w3.org/2000/svg">
<path d="M28.6036 15.0828L29.9397 14.4009L28.6036 15.0828C29.1253 16.1048 30.1148 16.8063 31.252 16.9601L41.6679 18.3689C42.0837 18.4251 42.2495 18.9376 41.9454 19.2267L34.4008 26.4008C33.5447 27.2148 33.157 28.4057 33.3698 29.5677L35.3433 40.3436C35.4175 40.7485 34.9979 41.0645 34.6292 40.8815L24.6564 35.9312C23.6761 35.4445 22.5245 35.4445 21.5441 35.9312L11.5713 40.8815L12.2383 42.2251L11.5713 40.8815C11.2026 41.0645 10.783 40.7485 10.8572 40.3436L12.8287 29.5788C13.0434 28.4062 12.6465 27.2049 11.7755 26.391L4.1051 19.224C3.79701 18.9361 3.96167 18.4196 4.37952 18.3631L14.7783 16.9583C15.9034 16.8063 16.8848 16.1181 17.411 15.1121L22.6353 5.12495C22.8235 4.76526 23.3392 4.76785 23.5237 5.12941L28.6036 15.0828Z" stroke="url(#paint0_linear_14840_14049)" stroke-width="3"/>
<defs>
<linearGradient id="paint0_linear_14840_14049" x1="5.79078" y1="16.2763" x2="34.0681" y2="17.4736" gradientUnits="userSpaceOnUse">
<stop stop-color="#0F3D83"/>
<stop offset="1" stop-color="#018383"/>
</linearGradient>
</defs>
</svg>
