<svg width="57" height="57" viewBox="0 0 57 57" fill="none" xmlns="http://www.w3.org/2000/svg">
<path d="M48.8557 0H14.7575C14.4776 0 14.2486 0.229018 14.2486 0.508929V4.07143C14.2486 4.35134 14.4776 4.58036 14.7575 4.58036H46.3111V48.3482C46.3111 48.6281 46.5401 48.8571 46.82 48.8571H50.3825C50.6624 48.8571 50.8914 48.6281 50.8914 48.3482V2.03571C50.8914 0.90971 49.9817 0 48.8557 0ZM40.7129 8.14286H8.14143C7.01542 8.14286 6.10571 9.05257 6.10571 10.1786V43.9396C6.10571 44.4804 6.32201 44.9956 6.7037 45.3773L17.7284 56.402C17.8683 56.542 18.0274 56.6565 18.1991 56.7519V56.8728H18.4663C18.689 56.9555 18.9244 57 19.1661 57H40.7129C41.8389 57 42.7486 56.0903 42.7486 54.9643V10.1786C42.7486 9.05257 41.8389 8.14286 40.7129 8.14286ZM18.1928 50.3967L12.7154 44.9129H18.1928V50.3967ZM38.1682 52.4196H22.2642V43.3862C22.2642 41.9802 21.1255 40.8415 19.7196 40.8415H10.6861V12.7232H38.1682V52.4196Z" fill="#0E3F82"/>
</svg>
