<svg width="136" height="23" viewBox="0 0 136 23" fill="none" xmlns="http://www.w3.org/2000/svg">
<path fill-rule="evenodd" clip-rule="evenodd" d="M57.689 3.28516L50.5715 10.9017L55.1768 18.2462H49.5678L45.6599 12.2289L44.1399 18.2462H39.3989L42.6424 3.28516H47.384L46.1536 8.88268L46.1933 8.92845L51.6663 3.28516H57.689Z" fill="#2C8E9F"/>
<path fill-rule="evenodd" clip-rule="evenodd" d="M135.655 3.28516L132.388 18.2462H127.67L128.992 12.1665H123.893L122.6 18.2462H117.835L121.102 3.28516H125.827L124.674 8.57657H129.756L130.948 3.28516H135.655Z" fill="#2C8E9F"/>
<path fill-rule="evenodd" clip-rule="evenodd" d="M118.334 3.29059L117.557 6.50045H109.838L109.328 8.88268H116.768L116.088 11.911H108.658L108.012 14.8375H116.389L115.64 18.2462H102.579L105.823 3.28516L118.334 3.29059Z" fill="#2C8E9F"/>
<path fill-rule="evenodd" clip-rule="evenodd" d="M90.7481 3.28516H97.6558C98.9542 3.28516 99.9358 3.43852 100.599 3.73914C101.257 4.03951 101.761 4.49287 102.108 5.08874C102.454 5.68429 102.63 6.41563 102.63 7.27787C102.63 8.40045 102.317 9.39878 101.694 10.2726C101.081 11.1457 100.299 11.7755 99.3621 12.1556C98.4268 12.5354 97.1284 12.7284 95.4661 12.7284H93.379L92.1998 18.2462H87.4575L90.7481 3.28516V3.28516ZM94.0486 9.76732H95.637C96.3738 9.76732 96.9805 9.55215 97.4515 9.12697C97.9283 8.69564 98.1665 8.18559 98.1665 7.58972C98.1665 6.69354 97.6721 6.24592 96.6805 6.24592L94.8308 6.24561L94.0486 9.76732V9.76732Z" fill="#2C8E9F"/>
<path fill-rule="evenodd" clip-rule="evenodd" d="M88.3836 3.28516L87.6059 6.95992H82.6663L80.1877 18.2462H75.4634L77.9362 6.95992H73.2173L74.0062 3.28516H88.3836Z" fill="#2C8E9F"/>
<path fill-rule="evenodd" clip-rule="evenodd" d="M72.2819 18.2462H67.6706L67.4609 15.7961H62.5044L61.3245 18.2462H56.2598L64.852 3.28516H69.8594L72.2819 18.2462V18.2462ZM67.1602 12.626L66.7011 7.17572H66.6556L64.041 12.626H67.1602V12.626Z" fill="#2C8E9F"/>
<path fill-rule="evenodd" clip-rule="evenodd" d="M24.8056 16.3632C24.8056 19.1309 22.5599 22.7499 18.8396 22.7499C15.119 22.7499 13.48 19.1309 13.48 16.3632C17.0129 19.7098 21.2211 19.7783 24.8056 16.3632V16.3632Z" fill="#2C8E9F"/>
<path fill-rule="evenodd" clip-rule="evenodd" d="M18.5391 20.9806C3.53765 23.2597 0.548701 14.883 0.355924 12.2519C0.174371 9.80704 2.43168 7.44819 5.52248 6.64294C4.8363 12.0643 6.84962 14.7638 9.64042 16.9248C11.5458 18.405 13.8768 19.5676 18.5387 20.9806H18.5391V20.9806Z" fill="#96D3DD"/>
<path fill-rule="evenodd" clip-rule="evenodd" d="M15.6458 7.24935C16.7915 6.16008 19.31 6.94903 21.2552 9.01905C23.2003 11.0833 23.8474 13.6528 22.7011 14.7472C21.5558 15.8358 19.0379 15.0417 17.0982 12.9778C15.153 10.9132 14.5005 8.3383 15.6458 7.24966V7.24935V7.24935Z" fill="#96D3DD"/>
<path fill-rule="evenodd" clip-rule="evenodd" d="M17.4893 3.65947C12.992 4.85027 10.5359 7.72616 12.0334 13.5107C10.6892 13.2382 8.22217 11.3785 8.22217 8.17957C8.22217 4.98119 12.7083 0.942696 17.4893 3.65947V3.65947Z" fill="#2C8E9F"/>
<path fill-rule="evenodd" clip-rule="evenodd" d="M28.435 11.1061C31.3676 12.8475 32.6378 15.6716 31.9798 18.1502C31.3164 20.6288 27.9646 21.2521 26.3877 20.9806C29.2691 18.4678 29.2066 15.3143 28.435 11.1061Z" fill="#96D3DD"/>
<path fill-rule="evenodd" clip-rule="evenodd" d="M11.0693 1.99767C11.0693 0.664061 13.131 0.255541 15.0236 0.250058C15.884 0.247523 16.7094 0.328524 17.2906 0.443456C19.5994 0.902924 22.1286 2.09435 23.5803 4.47047C19.5309 2.34345 16.0149 1.10144 11.0693 1.99798V1.99767V1.99767Z" fill="#96D3DD"/>
<path fill-rule="evenodd" clip-rule="evenodd" d="M20.5918 3.6594C25.6619 0.80622 29.4504 5.18511 29.4504 8.38344C29.4504 11.5824 27.7489 12.8984 26.116 13.5791C26.9039 8.5935 25.628 5.19054 20.5918 3.6594V3.6594Z" fill="#2C8E9F"/>
</svg>
