<svg width="53" height="50" viewBox="0 0 53 50" fill="none" xmlns="http://www.w3.org/2000/svg">
<path d="M11.6371 43.3382C11.6443 41.9272 12.5145 41.1006 13.7658 41.1006C15.01 41.1006 15.7435 41.8916 15.7363 43.2384V49.6662H18.8V42.6968C18.8071 40.1314 17.2825 38.5779 14.9812 38.5779C13.3056 38.5779 12.1837 39.3618 11.6803 40.6516H11.5508V35.0718H8.57352V49.6662H11.6371V43.3382Z" fill="white"/>
<path d="M23.7533 49.8728C25.3858 49.8728 26.443 49.1673 26.9823 48.1483H27.0686V49.6662H29.974V42.2835C29.974 39.6753 27.7446 38.5779 25.2851 38.5779C22.6386 38.5779 20.8982 39.8321 20.4739 41.8274L23.3074 42.0555C23.516 41.3286 24.1704 40.7941 25.2707 40.7941C26.3135 40.7941 26.9104 41.3143 26.9104 42.2122V42.255C26.9104 42.9605 26.1553 43.0531 24.2351 43.2384C22.0489 43.4379 20.0856 44.1648 20.0856 46.6091C20.0856 48.7754 21.6462 49.8728 23.7533 49.8728ZM24.6307 47.7778C23.6886 47.7778 23.0126 47.3431 23.0126 46.5093C23.0126 45.6542 23.7245 45.2337 24.8033 45.0841C25.4721 44.9914 26.5652 44.8347 26.932 44.5924V45.7539C26.932 46.9012 25.9755 47.7778 24.6307 47.7778Z" fill="white"/>
<path d="M40.9342 41.8417C40.6609 39.825 39.0212 38.5779 36.2309 38.5779C33.4046 38.5779 31.5419 39.8749 31.5491 41.9842C31.5419 43.6232 32.5847 44.685 34.7422 45.1126L36.6552 45.4903C37.6188 45.6827 38.0575 46.0318 38.0719 46.5806C38.0575 47.229 37.3456 47.6922 36.274 47.6922C35.1809 47.6922 34.4545 47.229 34.2676 46.3383L31.2543 46.495C31.5419 48.5901 33.3398 49.88 36.2668 49.88C39.1291 49.88 41.1787 48.4334 41.1859 46.2741C41.1787 44.6921 40.1359 43.7444 37.9928 43.3097L35.9935 42.9106C34.9651 42.6897 34.584 42.3405 34.5912 41.8132C34.584 41.1576 35.3319 40.73 36.2812 40.73C37.3456 40.73 37.9784 41.3072 38.1294 42.0127L40.9342 41.8417Z" fill="white"/>
<path d="M42.5075 49.6662H45.5711V46.1886L46.3981 45.2551L49.4114 49.6662H53L48.6922 43.4593L52.7914 38.7204H49.2747L45.7365 42.875H45.5711V35.0718H42.5075V49.6662Z" fill="white"/>
<path d="M11.205 2.3473C10.4468 1.05092 8.61467 0 7.1128 0H1.67408C0.172218 0 -0.430653 1.05092 0.327531 2.3473L14.1575 25.9943C14.764 27.0314 16.2297 27.8722 17.4312 27.8722H24.0936C25.22 27.8722 25.6722 27.084 25.1035 26.1117L11.205 2.3473Z" fill="white"/>
<path d="M11.205 2.3473C10.4468 1.05092 8.61467 0 7.1128 0H1.67408C0.172218 0 -0.430653 1.05092 0.327531 2.3473L14.1575 25.9943C14.764 27.0314 16.2297 27.8722 17.4312 27.8722H24.0936C25.22 27.8722 25.6722 27.084 25.1035 26.1117L11.205 2.3473Z" fill="url(#paint0_radial)"/>
<path d="M34.7143 4.35077C34.7143 6.75364 32.7663 8.70155 30.3633 8.70155C27.9604 8.70155 26.0124 6.75364 26.0124 4.35077C26.0124 1.94791 27.9604 0 30.3633 0C32.7663 0 34.7143 1.94791 34.7143 4.35077Z" fill="white"/>
<path d="M34.7143 4.35077C34.7143 6.75364 32.7663 8.70155 30.3633 8.70155C27.9604 8.70155 26.0124 6.75364 26.0124 4.35077C26.0124 1.94791 27.9604 0 30.3633 0C32.7663 0 34.7143 1.94791 34.7143 4.35077Z" fill="url(#paint1_radial)"/>
<path d="M34.7143 4.35077C34.7143 6.75364 32.7663 8.70155 30.3633 8.70155C27.9604 8.70155 26.0124 6.75364 26.0124 4.35077C26.0124 1.94791 27.9604 0 30.3633 0C32.7663 0 34.7143 1.94791 34.7143 4.35077Z" fill="url(#paint2_radial)"/>
<path d="M24.1234 13.217C24.6167 12.3749 25.8069 11.6925 26.7826 11.6925H34.2622C35.1633 11.6925 35.5251 12.3231 35.0701 13.1009L27.657 25.7763C26.8988 27.0727 25.0666 28.1236 23.5648 28.1236H16.7545C15.8913 28.1236 15.2363 27.8282 14.93 27.3036C14.2457 26.1314 13.5848 25.0183 13.5102 24.8926C14.1273 25.9271 15.5524 27.8514 16.4946 26.2404L24.1234 13.217Z" fill="white"/>
<path d="M24.1234 13.217C24.6167 12.3749 25.8069 11.6925 26.7826 11.6925H34.2622C35.1633 11.6925 35.5251 12.3231 35.0701 13.1009L27.657 25.7763C26.8988 27.0727 25.0666 28.1236 23.5648 28.1236H16.7545C15.8913 28.1236 15.2363 27.8282 14.93 27.3036C14.2457 26.1314 13.5848 25.0183 13.5102 24.8926C14.1273 25.9271 15.5524 27.8514 16.4946 26.2404L24.1234 13.217Z" fill="url(#paint3_radial)"/>
<path d="M34.3064 11.6925H26.3851C25.5358 11.6925 24.887 11.9784 24.5768 12.4893L24.1333 13.2198C24.0525 13.3447 23.9764 13.4734 23.9049 13.596L24.1333 13.2198C24.5904 12.5132 25.198 11.9274 25.9751 13.2561L33.2975 25.7763C34.0557 27.0727 35.8878 28.1236 37.3897 28.1236H40.109C43.1127 28.1236 44.3185 26.0217 42.8021 23.429L36.7617 13.1009C36.3068 12.3231 35.2076 11.6925 34.3064 11.6925Z" fill="white"/>
<path d="M34.3064 11.6925H26.3851C25.5358 11.6925 24.887 11.9784 24.5768 12.4893L24.1333 13.2198C24.0525 13.3447 23.9764 13.4734 23.9049 13.596L24.1333 13.2198C24.5904 12.5132 25.198 11.9274 25.9751 13.2561L33.2975 25.7763C34.0557 27.0727 35.8878 28.1236 37.3897 28.1236H40.109C43.1127 28.1236 44.3185 26.0217 42.8021 23.429L36.7617 13.1009C36.3068 12.3231 35.2076 11.6925 34.3064 11.6925Z" fill="url(#paint4_radial)"/>
<defs>
<radialGradient id="paint0_radial" cx="0" cy="0" r="1" gradientUnits="userSpaceOnUse" gradientTransform="translate(-4.94123 -18.5659) rotate(59.9518) scale(37.6127 27.4911)">
<stop stop-color="white"/>
<stop offset="1" stop-color="white" stop-opacity="0"/>
</radialGradient>
<radialGradient id="paint1_radial" cx="0" cy="0" r="1" gradientUnits="userSpaceOnUse" gradientTransform="translate(30.3633 -5.50645) rotate(90) scale(14.208 14.2087)">
<stop stop-color="white"/>
<stop offset="0.770545" stop-color="white" stop-opacity="0"/>
</radialGradient>
<radialGradient id="paint2_radial" cx="0" cy="0" r="1" gradientUnits="userSpaceOnUse" gradientTransform="translate(30.3633 13.9361) rotate(-90) scale(9.2454 9.24583)">
<stop stop-opacity="0.35"/>
<stop offset="1" stop-opacity="0"/>
</radialGradient>
<radialGradient id="paint3_radial" cx="0" cy="0" r="1" gradientUnits="userSpaceOnUse" gradientTransform="translate(47.4413 -11.8195) rotate(124.382) scale(55.9119 36.5232)">
<stop stop-opacity="0.31"/>
<stop offset="0.924689" stop-opacity="0"/>
</radialGradient>
<radialGradient id="paint4_radial" cx="0" cy="0" r="1" gradientUnits="userSpaceOnUse" gradientTransform="translate(13.6448 -15.7038) rotate(60.9802) scale(43.4573 26.0228)">
<stop stop-color="white"/>
<stop offset="1" stop-color="white" stop-opacity="0"/>
</radialGradient>
</defs>
</svg>
