<?xml version="1.0" encoding="utf-8"?><svg xmlns="http://www.w3.org/2000/svg" xmlns:xlink="http://www.w3.org/1999/xlink"><symbol viewBox="0 0 20 20" id="cart" xmlns="http://www.w3.org/2000/svg"><path d="M6.8 14.8c-.88 0-1.592.72-1.592 1.6 0 .88.712 1.6 1.592 1.6.88 0 1.6-.72 1.6-1.6 0-.88-.72-1.6-1.6-1.6zM2 2v1.6h1.6l2.88 6.072-1.08 1.96c-.128.224-.2.488-.2.768 0 .88.72 1.6 1.6 1.6h9.6v-1.6H7.136a.198.198 0 01-.2-.2l.024-.096.72-1.304h5.96c.6 0 1.128-.328 1.4-.824l2.864-5.192A.802.802 0 0017.2 3.6H5.368L4.616 2H2zm12.8 12.8c-.88 0-1.592.72-1.592 1.6 0 .88.712 1.6 1.592 1.6.88 0 1.6-.72 1.6-1.6 0-.88-.72-1.6-1.6-1.6z"/></symbol><symbol viewBox="0 0 50 50" id="close" xmlns="http://www.w3.org/2000/svg"><path d="M9.156 6.313L6.312 9.155 22.157 25 6.22 40.969l2.81 2.811L25 27.844 40.938 43.78l2.843-2.843L27.844 25 43.687 9.156l-2.843-2.844L25 22.157z"/></symbol><symbol viewBox="0 0 56.7 56.7" id="instagram" xmlns="http://www.w3.org/2000/svg"><path d="M28.2 16.7c-7 0-12.8 5.7-12.8 12.8s5.7 12.8 12.8 12.8S41 36.5 41 29.5s-5.8-12.8-12.8-12.8zm0 21c-4.5 0-8.2-3.7-8.2-8.2s3.7-8.2 8.2-8.2 8.2 3.7 8.2 8.2-3.7 8.2-8.2 8.2z"/><circle cx="41.5" cy="16.4" r="2.9"/><path d="M49 8.9c-2.6-2.7-6.3-4.1-10.5-4.1H17.9c-8.7 0-14.5 5.8-14.5 14.5v20.5c0 4.3 1.4 8 4.2 10.7 2.7 2.6 6.3 3.9 10.4 3.9h20.4c4.3 0 7.9-1.4 10.5-3.9 2.7-2.6 4.1-6.3 4.1-10.6V19.3c0-4.2-1.4-7.8-4-10.4zm-.4 31c0 3.1-1.1 5.6-2.9 7.3s-4.3 2.6-7.3 2.6H18c-3 0-5.5-.9-7.3-2.6C8.9 45.4 8 42.9 8 39.8V19.3c0-3 .9-5.5 2.7-7.3 1.7-1.7 4.3-2.6 7.3-2.6h20.6c3 0 5.5.9 7.3 2.7 1.7 1.8 2.7 4.3 2.7 7.2v20.6z"/></symbol><symbol fill="none" viewBox="0 0 169 52" id="logo" xmlns="http://www.w3.org/2000/svg"><path d="M49.072 13.87l-.514 3.06.914-.008c.366.004.684.026.953.066 1.19.18 2.156.685 2.86 1.499.701.81 1.067 1.849 1.055 3.098a6.59 6.59 0 01-.071.954l-1.223 6.963h.602l1.257-7.659c.264-1.549.849-2.735 1.756-3.576.971-.9 2.198-1.331 3.684-1.31v-.009h3.237l.077.009c.197.008.37.022.513.043 1.078.155 2.038.661 2.734 1.449.27.305.496.647.67 1.021 1.025-1.486 1.887-2.54 4.293-2.54h3.1l.068.01c.962.032 1.84.367 2.56.884a4.886 4.886 0 011.674 2.125l.009.009.083.215a4.45 4.45 0 011.403-2.12l.004.005c.753-.622 1.691-.983 2.77-1.03l.094-.009h2.687l.026.009c1.97.028 3.535 1.712 4.555 2.808l.326.347 2.48 2.544 3.1-18.087.005.002c.144-.885.574-2.232 1.537-3.233C99.137.586 100.214 0 101.665 0l.008.009 3.088.017c1.952-.057 3.008.867 3.537 2.25.357.935.337 2 .201 2.982l-.008.068-.67 4.014.009.001c.112.018.265.026.444.026v.01l12.799.016c2.017.118 3.389.77 4.289 1.95.866 1.135 1.126 2.564.981 4.328l-.018.136-.265 1.799a4.52 4.52 0 011.497 1.703c.553 1.067.67 2.299.515 3.355l-.026.17-1.157 6.72.498-.001 1.407-8.244.005.002c.194-1.19.56-2.167 1.237-2.92.812-.902 1.885-1.36 3.353-1.311l7.626-.017c1.254-.042 2.205.22 2.97.666.784.458 1.302 1.068 1.727 1.735l.042.067 2.186 3.72 3.178-3.543.033-.042c.073-.076.223-.244.369-.405 1.128-1.255 2.011-2.236 4.445-2.216v-.008h3.217l.059.008c.306.009.604.054.896.129h.008a4.403 4.403 0 012.248 1.426c.611.732.984 1.67.954 2.683a3.77 3.77 0 01-.071.633h.002l-2.449 15.864-.018.06c-.26 1.415-.876 2.494-1.762 3.257-.959.826-2.155 1.216-3.497 1.216H88.328l-.867 5.168c-.113.924-.371 1.85-.914 2.624-.715 1.02-1.758 1.662-3.28 1.603l-4.737-.017c-1.297-.031-2.27-.555-2.971-1.313-.795-.86-1.159-1.988-1.227-2.963l-.013-.2.373-3.17-.39-1.564a13.424 13.424 0 00-.162-.445c-.056-.05.01.07-.148.076-12.524.251-25.347-.01-37.905-.016l.819 2.805c.2.663.31 1.376.304 2.07-.007.881-.195 1.747-.611 2.486h-.009a3.968 3.968 0 01-2.355 1.894 4.82 4.82 0 01-1.437.2l-6.614.017v.009c-1.487 0-2.611-.602-3.478-1.607-.684-.79-1.14-1.8-1.47-2.921h-.005l-1.455-4.875H9.9c-.822 0-1.608-.064-2.357-.184-2.828-.452-4.719-1.719-5.923-3.424C.45 36.908 0 34.91 0 32.885c0-.801.078-1.64.213-2.48v-.018l2.844-16.896c.563-3.456 1.745-6.186 3.734-8.113 2.046-1.983 4.826-3.03 8.52-3.04l23.776-.053a17.66 17.66 0 012.216.173c2.606.39 4.598 1.397 5.968 2.996 1.374 1.603 2.038 3.709 1.986 6.294a16.205 16.205 0 01-.177 2.08l-.008.043zm-5.212 4.89l.935-5.559c.085-.576.134-1.09.143-1.539.03-1.484-.29-2.622-.954-3.396-.668-.78-1.772-1.29-3.309-1.521a13.145 13.145 0 00-1.67-.141l-23.694.054c-2.488.007-4.282.633-5.505 1.82-1.28 1.238-2.067 3.17-2.48 5.717L4.483 31.098h-.004c-.09.57-.142 1.17-.142 1.787 0 1.21.229 2.347.824 3.19.562.796 1.528 1.4 3.058 1.646.475.075 1.032.117 1.681.117h13.102l2.38 7.976v.015c.167.573.36 1.043.594 1.314.052.06.12.097.208.097v.008c2.225-.007 4.451-.007 6.677-.017.019-.08.03-.18.03-.295a2.721 2.721 0 00-.127-.806c-.897-2.675-1.642-5.616-2.441-8.355 14.561.005 29.124.017 43.687.017 1.396.016 2.331.384 3.077 1.076.682.633 1.008 1.355 1.327 2.257l.03.081.638 2.571-.411 3.511c.005.03.012.06.019.084l4.401.015c.026-.12.049-.267.07-.43.332-1.842.624-3.707.933-5.555.196-1.023.67-1.861 1.368-2.468.725-.626 1.633-.96 2.675-.949v-.009h67.415c.315 0 .553-.053.685-.166.133-.115.241-.34.312-.69h-.007l2.432-15.747h-3.009l-.018-.008c-.491-.005-.806.345-1.209.793-.109.12-.224.25-.435.473l-.002-.002-7.095 7.904-5.163-8.792a.868.868 0 00-.244-.269c-.113-.064-.311-.1-.649-.09-2.63 0-5.261.017-7.891.017-.042 0-.014-.062.003-.1v-.02l-.007.01c-.067.072-.128.33-.192.723v.026l-2.018 11.822-9.296.033c.52-3.026 2.028-9.416 2.028-11.803.012-.068.003-.009.009-.043v-.01c.04-.27.026-.55-.075-.747-.035-.067-.13-.13-.312-.161-.063-.01.01-.002-.035-.009l-2.154-.314.817-5.539c.053-.678.029-1.124-.104-1.297-.101-.134-.45-.217-1.105-.257l-12.544-.017v.008a7.17 7.17 0 01-1.121-.093c-.848-.136-1.676-.436-2.33-.944-.863-.673-1.413-1.613-1.413-2.875 0-.18.019-.395.059-.643v-.017l.753-4.518c.012-.093.024-.185.033-.27l-2.59-.016v.009c-.098 0-.16.03-.198.07-.231.24-.347.65-.39.929v.033L96.54 31.827l-8.411-8.629c-.155-.156-.27-.279-.394-.414-.496-.535-1.244-1.338-1.414-1.428h-2.687c-.057.005-.092.014-.106.026v.009c-.016.012-.031.045-.047.097-.168 1.01-.355 2.205-.551 3.499a554.227 554.227 0 00-.543 3.662l-1.178 8.087-5.962-15.203.005-.002a.542.542 0 00-.3-.263h-3.083c-.28 0-.548.392-.916.931-.112.167-.23.338-.328.475-.492.7-1.042 1.47-1.802 2.531-.44.62-1.114 1.553-2.135 2.967l-5.4 7.473c.787-4.732 1.675-9.524 2.37-14.261.002-.057.018-.064.013-.071-.007-.009-.045-.018-.11-.026l-3.215-.002-.035-.007c-.347-.007-.581.045-.703.156-.192.179-.336.55-.433 1.12L57.317 33.84h-9.434l2.103-11.96c.022-.154.034-.263.034-.329.002-.152 0-.229-.005-.236a2.463 2.463 0 00-.234-.04 3.059 3.059 0 00-.326-.032l-6.021.062.427-2.543zm89.402 2.539c.011-.023.018-.037 0-.02v.02zM17.16 12.99h20l-3.158 18.45H28.45c-.796-2.752-1.646-5.52-2.397-8.28a1.68 1.68 0 00-.037-.124c-.05-.153-.1-.243-.145-.267-.054-.028-.172-.023-.35.02l-.086.021-5.33 2.067c-.129.076-.21.143-.233.195-.045.11-.022.344.083.734h-.001l1.663 5.425-9.36-.085L15.33 12.99h1.829zm14.863 4.337H18.986l-.605 3.58 5.534-2.144.102-.033c.179-.06.342-.107.486-.142 1.254-.303 2.432-.158 3.433.387 1.01.547 1.77 1.462 2.18 2.689.047.142.09.29.129.444l.603 2.085 1.175-6.866z" fill="#FEFEFE"/><path fill-rule="evenodd" clip-rule="evenodd" d="M46.938 13.515l-.942 5.601 3.459-.034c1.968.017 2.98 1.103 2.671 3.134l-1.662 9.455h5.019l1.558-9.472c.359-2.118 1.455-3.117 3.304-3.083h3.237c1.369.054 2.43 1.086 2.208 2.646l-.857 5.147a574.048 574.048 0 003.923-5.48c.924-1.313 1.403-2.33 3.013-2.33h3.1c1.061.037 1.951.79 2.295 1.646l2.978 7.6a340.3 340.3 0 011.114-7.267c.257-1.137 1.079-1.838 2.278-1.89h2.687c1.216.017 2.638 1.767 3.356 2.503l5.446 5.586L98.94 5.005c.154-.98.822-2.837 2.723-2.837l3.151.018c1.644-.052 1.729 1.419 1.54 2.784l-.753 4.517c-.239 1.506 1.284 2.049 2.672 2.049l12.672.017c2.671.158 3.441 1.471 3.235 3.94l-.512 3.485c2.037.296 2.482 2.118 2.243 3.483l-1.592 9.263 4.897-.017 1.712-10.034c.257-1.592.855-2.485 2.397-2.433l7.756-.018c1.593-.052 2.295.595 2.809 1.4l3.682 6.27 5.154-5.744c.993-1.05 1.523-1.96 3.237-1.943h3.218c1.166.035 2.26 1.19 1.953 2.382l-2.449 15.862c-.343 1.856-1.525 2.696-3.135 2.696H88.137c-1.011-.018-1.712.596-1.919 1.663l-.907 5.41c-.154 1.245-.616 2.383-1.969 2.33l-4.76-.019c-1.455-.034-2.02-1.259-2.09-2.258l.394-3.36-.514-2.066c-.427-1.21-.805-1.874-2.38-1.893l-40.788-.017 1.627 5.568c.53 1.733.187 3.905-2.02 3.888l-6.628.017c-1.575 0-2.38-1.278-2.876-2.977l-1.918-6.425H9.899c-7.124 0-8.253-4.885-7.552-9.264L5.19 13.846c.977-6.003 3.938-9.33 10.12-9.348l23.733-.054c6.113.123 8.767 3.24 7.895 9.071zM17.159 15.16h17.433l-2.415 14.113H30.07l-1.919-6.62c-.41-1.698-1.78-2.433-3.459-1.873l-5.513 2.137c-1.25.682-1.799 1.681-1.318 3.449l.82 2.678-3.87-.035 2.348-13.85z" fill="#090D1F"/><path clip-rule="evenodd" d="M7.757 14.337c.463-2.75 1.268-4.64 2.45-5.655 1.181-1.016 3.22-1.523 6.095-1.523l21.816-.035c2.876 0 4.725.507 5.582 1.506.84 1.015 1.027 2.906.566 5.655L41.61 30.271c-.461 2.767-1.283 4.657-2.465 5.672-1.181.998-3.202 1.506-6.078 1.506h-3.203l2.672 9.437h-6.49l-2.62-9.42-12.175.018c-2.876 0-4.743-.49-5.582-1.506-.84-.998-1.045-2.888-.583-5.655l2.671-15.986zm3.99 17.44l10.155-.018-1.662-6.566 5.343-2.066 2.57 8.632 6.334-.017 3.203-19.19-22.74.035-3.203 19.19z" stroke="#2B2A29" stroke-width=".02"/><path fill-rule="evenodd" clip-rule="evenodd" d="M7.757 14.337c.463-2.75 1.268-4.64 2.45-5.655 1.181-1.016 3.22-1.523 6.095-1.523l21.816-.035c2.876 0 4.725.507 5.582 1.506.84 1.015 1.027 2.906.566 5.655L41.61 30.271c-.461 2.767-1.283 4.657-2.465 5.672-1.181.998-3.202 1.506-6.078 1.506h-3.203l2.672 9.437h-6.49l-2.62-9.42-12.175.018c-2.876 0-4.743-.49-5.582-1.506-.84-.998-1.045-2.888-.583-5.655l2.671-15.986zm3.99 17.44l10.155-.018-1.662-6.566 5.343-2.066 2.57 8.632 6.334-.017 3.203-19.19-22.74.035-3.203 19.19z" fill="#EF7F1A"/><path clip-rule="evenodd" d="M123.375 21.831l-2.104 12.676 10.119-.018 2.105-12.675h3.527l-1.984 11.922c-.222 1.42-.651 2.4-1.251 2.908-.616.526-1.66.787-3.133.787l-9.64.018c-1.474 0-2.434-.262-2.878-.788-.428-.508-.531-1.47-.291-2.907l1.986-11.905 3.544-.018zm12.69 15.583l2.584-15.6h2.878l5.617 9.42 8.596-9.438h2.858l-2.602 15.6h-3.287l1.593-9.629c.034-.192.085-.439.154-.718.068-.28.17-.614.257-.964a22.83 22.83 0 01-.668.999 10.16 10.16 0 01-.496.647l-7.022 7.81h-.719l-4.435-7.827a6.106 6.106 0 01-.411-.84 4.253 4.253 0 01-.24-.753c-.017.333-.052.63-.085.893-.017.262-.069.524-.102.77l-1.612 9.63h-2.858zm-21.32-20.818l-3.424 20.783h-3.562l3.442-20.766h-7.005l.429-2.784 17.484-.052-.326 2.819h-7.038zm-65.172 5.148l-2.105 12.659 10.102-.018 2.124-12.66h3.526l-1.986 11.907c-.24 1.435-.65 2.398-1.266 2.923-.6.509-1.645.77-3.135.77l-9.622.02c-1.473 0-2.432-.264-2.878-.772-.427-.524-.53-1.487-.307-2.906l1.986-11.923h3.562zm18.87 9.349l6.68-.018-2.228-6.338-4.451 6.356zm-7.86 6.233L71.8 21.708h3.425l5.154 14.514-1.045 6.181-3.202-8.509-9.675.018-2.347 3.414h-3.526z" stroke="#2B2A29" stroke-width=".022" stroke-linecap="round" stroke-linejoin="round"/><path fill-rule="evenodd" clip-rule="evenodd" d="M123.375 21.831l-2.104 12.676 10.119-.018 2.105-12.675h3.527l-1.984 11.922c-.222 1.42-.651 2.4-1.251 2.908-.616.526-1.66.787-3.133.787l-9.64.018c-1.474 0-2.434-.262-2.878-.788-.428-.508-.531-1.47-.291-2.907l1.986-11.905 3.544-.018zm12.69 15.583l2.584-15.6h2.878l5.617 9.42 8.596-9.438h2.858l-2.602 15.6h-3.287l1.593-9.629c.034-.192.085-.439.154-.718.068-.28.17-.614.257-.964a22.83 22.83 0 01-.668.999 10.16 10.16 0 01-.496.647l-7.022 7.81h-.719l-4.435-7.827a6.106 6.106 0 01-.411-.84 4.253 4.253 0 01-.24-.753c-.017.333-.052.63-.085.893-.017.262-.069.524-.102.77l-1.612 9.63h-2.858zm-21.32-20.818l-3.424 20.783h-3.562l3.442-20.766h-7.005l.429-2.784 17.484-.052-.326 2.819h-7.038zm-65.172 5.148l-2.105 12.659 10.102-.018 2.124-12.66h3.526l-1.986 11.907c-.24 1.435-.65 2.398-1.266 2.923-.6.509-1.645.77-3.135.77l-9.622.02c-1.473 0-2.432-.264-2.878-.772-.427-.524-.53-1.487-.307-2.906l1.986-11.923h3.562zm18.87 9.349l6.68-.018-2.228-6.338-4.451 6.356zm-7.86 6.233L71.8 21.708h3.425l5.154 14.514-1.045 6.181-3.202-8.509-9.675.018-2.347 3.414h-3.526z" fill="#FEFEFE"/><path clip-rule="evenodd" d="M79.317 46.71l4.18-25.123h2.43c4.59 4.744 6.61 6.81 10.65 10.871 1.715-10.207 2.502-15.092 4.624-27.942h3.049c-1.851 10.89-3.561 21.763-5.412 32.654h-2.413c-4.196-4.308-6.765-6.934-10.549-10.804-1.507 9.123-1.54 9.49-3.374 20.345h-3.185z" stroke="#2B2A29" stroke-width=".02"/><path fill-rule="evenodd" clip-rule="evenodd" d="M79.317 46.71l4.18-25.123h2.43c4.59 4.744 6.61 6.81 10.65 10.871 1.715-10.207 2.502-15.092 4.624-27.942h3.049c-1.851 10.89-3.561 21.763-5.412 32.654h-2.413c-4.196-4.308-6.765-6.934-10.549-10.804-1.507 9.123-1.54 9.49-3.374 20.345h-3.185z" fill="#D9DADA"/><path fill-rule="evenodd" clip-rule="evenodd" d="M165.09 11.274c1.423 0 2.569 1.173 2.569 2.627 0 1.453-1.146 2.626-2.569 2.626-1.42 0-2.567-1.173-2.567-2.627 0-1.453 1.147-2.626 2.567-2.626zm0-.368c1.61 0 2.911 1.348 2.911 2.994 0 1.647-1.301 2.995-2.911 2.995-1.627 0-2.928-1.348-2.928-2.995 0-1.646 1.301-2.994 2.928-2.994zm-1.077 4.43v-2.872h1.232c.256 0 .446.018.565.071a.72.72 0 01.326.28.92.92 0 01.103.437.696.696 0 01-.189.508c-.12.14-.327.227-.599.264.102.052.17.104.222.138.12.106.224.228.307.385l.498.79h-.463l-.375-.597a3.713 3.713 0 00-.276-.402c-.067-.087-.119-.158-.187-.193a.505.505 0 00-.172-.07c-.034-.017-.102-.017-.206-.017h-.427v1.279h-.359zm.359-1.61h.805c.172 0 .29-.018.394-.053a.385.385 0 00.222-.175.408.408 0 00.069-.246.447.447 0 00-.139-.332c-.102-.088-.256-.14-.461-.14h-.89v.945z" fill="#FEFEFE" stroke="#FEFEFE" stroke-width=".02"/></symbol><symbol fill="none" viewBox="0 0 38 39" id="logo-small" xmlns="http://www.w3.org/2000/svg"><path d="M37.855 8.938l-.396 2.36-1.394 9.3c-1.431 7.75-2.87 9.49-8.24 9.95l.013.163.632 2.164c.154.511.24 1.061.234 1.597-.005.68-.15 1.347-.47 1.917h-.008a3.06 3.06 0 01-1.817 1.462 3.715 3.715 0 01-1.108.154l-5.102.013v.007c-1.147 0-2.014-.465-2.684-1.24-.527-.608-.879-1.389-1.133-2.253h-.004l-1.123-3.76H7.637c-.634 0-1.24-.05-1.819-.142-2.18-.35-3.64-1.326-4.568-2.642C.347 26.708 0 25.168 0 23.606c0-.619.06-1.265.165-1.914v-.013L2.358 8.645c.435-2.666 1.346-4.772 2.881-6.259C6.817.856 8.962.048 11.811.041L30.152 0c.629.013 1.199.058 1.71.134 2.01.3 3.546 1.077 4.604 2.31 1.06 1.237 1.572 2.862 1.532 4.856a12.24 12.24 0 01-.137 1.604l-.006.034zm-4.02 3.772l.721-4.289c.066-.444.103-.84.11-1.187.023-1.145-.224-2.023-.736-2.62-.516-.602-1.367-.996-2.552-1.174a10.14 10.14 0 00-1.289-.108l-18.278.042c-1.92.005-3.303.488-4.246 1.403-.988.956-1.595 2.447-1.914 4.411l-2.193 13.04h-.003a8.82 8.82 0 00-.11 1.378c0 .934.177 1.81.636 2.46.434.615 1.18 1.08 2.36 1.27.366.058.796.09 1.296.09h10.107l1.836 6.153v.012c.129.442.277.804.458 1.013.04.047.092.075.16.075v.007c1.718-.006 3.434-.006 5.151-.014a.98.98 0 00.023-.227 2.095 2.095 0 00-.098-.622c-.692-2.064-1.266-4.332-1.883-6.445l8.166-.593 1.948-12.113.33-1.962zM13.237 8.26h15.428L26.23 22.491h-4.284c-.614-2.123-1.27-4.258-1.85-6.387a1.297 1.297 0 00-.027-.096c-.039-.118-.078-.188-.113-.206-.041-.022-.132-.018-.27.016l-.066.016-4.112 1.593c-.099.06-.162.112-.18.152-.034.084-.016.265.065.566h-.001l1.283 4.184-7.22-.065 2.372-14.006h1.41zm11.466 3.345H14.647l-.468 2.762 4.27-1.654.078-.026c.138-.046.264-.083.375-.11.967-.234 1.876-.121 2.648.299.779.422 1.365 1.128 1.682 2.074.036.11.07.224.1.343l.465 1.608.906-5.296z" fill="#FEFEFE"/><path fill-rule="evenodd" clip-rule="evenodd" d="M36.209 8.663l-.727 4.321c-.555 3.54-.021.37-.613 3.904-1.056 6.316-.972 11.803-7.253 12.168l-2.002-.012 1.256 4.295c.41 1.337.144 3.013-1.56 3l-5.111.013c-1.215 0-1.836-.987-2.219-2.297L16.5 29.1H7.637c-5.496 0-6.367-3.769-5.826-7.146L4.004 8.919c.753-4.632 3.038-7.198 7.807-7.212l18.308-.041c4.716.095 6.763 2.5 6.09 6.997zM13.238 9.932h13.447l-1.863 10.887h-1.624l-1.48-5.106c-.317-1.31-1.373-1.878-2.669-1.445l-4.252 1.648c-.965.526-1.388 1.297-1.018 2.66l.633 2.067-2.985-.027 1.81-10.684z" fill="#090D1F"/><path clip-rule="evenodd" d="M5.984 9.298c.357-2.121.978-3.58 1.89-4.363.91-.784 2.483-1.175 4.702-1.175l16.829-.026c2.219 0 3.645.39 4.306 1.161.648.783.793 2.242.437 4.363l-2.05 12.331c-.355 2.135-.99 3.593-1.9 4.376-.912.77-2.471 1.162-4.69 1.162h-2.47l2.06 7.28h-5.005L18.07 27.14l-9.392.013c-2.219 0-3.658-.377-4.306-1.161-.648-.77-.806-2.228-.45-4.363L5.984 9.298zM9.062 22.75l7.834-.014-1.282-5.065 4.121-1.594 1.982 6.66 4.887-.014 2.47-14.803-17.542.027-2.47 14.803z" stroke="#2B2A29" stroke-width=".02"/><path fill-rule="evenodd" clip-rule="evenodd" d="M5.984 9.298c.357-2.121.978-3.58 1.89-4.363.91-.784 2.483-1.175 4.702-1.175l16.829-.026c2.219 0 3.645.39 4.306 1.161.648.783.793 2.242.437 4.363l-2.05 12.331c-.355 2.135-.99 3.593-1.9 4.376-.912.77-2.471 1.162-4.69 1.162h-2.47l2.06 7.28h-5.005L18.07 27.14l-9.392.013c-2.219 0-3.658-.377-4.306-1.161-.648-.77-.806-2.228-.45-4.363L5.984 9.298zM9.062 22.75l7.834-.014-1.282-5.065 4.121-1.594 1.982 6.66 4.887-.014 2.47-14.803-17.542.027-2.47 14.803z" fill="#EF7F1A"/></symbol><symbol fill="none" viewBox="0 0 11 16" id="mark" xmlns="http://www.w3.org/2000/svg"><path fill-rule="evenodd" clip-rule="evenodd" d="M11 5.333a5.188 5.188 0 01-.785 2.748L5.5 16 .785 8.08A5.188 5.188 0 010 5.334C0 2.388 2.462 0 5.5 0S11 2.388 11 5.333zm-5.435 2.54c1.266 0 2.292-.995 2.292-2.222 0-1.227-1.026-2.222-2.292-2.222-1.265 0-2.291.995-2.291 2.222 0 1.227 1.026 2.222 2.291 2.222z" fill="#F37908"/></symbol><symbol fill="none" viewBox="0 0 51 51" id="menu" xmlns="http://www.w3.org/2000/svg"><rect width="51" height="51" rx="25.5" fill="#322B89"/><path d="M36.03 25.03H13.97a.97.97 0 100 1.94h22.06a.97.97 0 100-1.94zm0-7.353H13.97a.97.97 0 100 1.939h22.06a.97.97 0 100-1.94zm0 14.707H13.97a.97.97 0 100 1.94h22.06a.97.97 0 100-1.94z" fill="#fff"/></symbol><symbol fill="none" viewBox="0 0 25 25" id="phone" xmlns="http://www.w3.org/2000/svg"><circle cx="12.5" cy="12.5" r="12.5" fill="#F37908"/><path d="M18.585 15.922c0-.058 0-.117-.025-.175-.058-.176-.468-.36-.636-.444-.477-.268-.962-.527-1.431-.804-.218-.133-.486-.385-.745-.385-.51 0-1.256 1.515-1.708 1.515-.226 0-.519-.209-.72-.326-1.523-.845-2.578-1.9-3.423-3.424-.117-.2-.327-.493-.327-.72 0-.451 1.515-1.196 1.515-1.707 0-.26-.25-.527-.385-.745-.276-.469-.535-.954-.803-1.431-.084-.168-.268-.578-.444-.636-.058-.026-.117-.026-.176-.026-.3 0-.887.134-1.163.26-.41.176-.678.644-.887 1.021-.268.494-.427.996-.427 1.557 0 .778.318 1.482.577 2.193.185.51.41 1.005.695 1.465.879 1.423 2.595 3.139 4.018 4.018.46.284.954.51 1.465.695.711.26 1.414.577 2.193.577.56 0 1.063-.159 1.557-.427.377-.209.845-.477 1.021-.887.126-.276.26-.862.26-1.163z" fill="#fff"/></symbol><symbol fill="none" viewBox="0 0 11 11" id="user" xmlns="http://www.w3.org/2000/svg"><path d="M5.5 5.5a2.75 2.75 0 100-5.5 2.75 2.75 0 100 5.5zm0 1.375c-1.836 0-5.5.921-5.5 2.75V11h11V9.625c0-1.829-3.664-2.75-5.5-2.75z" fill="#F37908"/></symbol><symbol viewBox="0 0 21 12" id="vk" xmlns="http://www.w3.org/2000/svg"><path d="M20.889 10.837a1.64 1.64 0 00-.072-.137c-.364-.657-1.06-1.463-2.088-2.42l-.022-.022-.01-.01-.011-.012h-.012c-.466-.445-.761-.744-.885-.898-.226-.292-.277-.587-.153-.887.087-.226.415-.704.984-1.434.299-.387.535-.697.71-.93 1.261-1.68 1.808-2.753 1.64-3.22l-.065-.11c-.043-.065-.156-.126-.338-.18-.183-.055-.416-.064-.7-.028l-3.15.022a.408.408 0 00-.218.006l-.142.033-.055.027-.043.033a.484.484 0 00-.12.115.75.75 0 00-.11.191 17.886 17.886 0 01-1.17 2.464c-.27.453-.517.845-.744 1.178a5.659 5.659 0 01-.568.733 3.967 3.967 0 01-.416.378c-.123.095-.218.135-.284.12a8.006 8.006 0 01-.186-.043.727.727 0 01-.246-.269 1.2 1.2 0 01-.125-.427 4.674 4.674 0 01-.039-.443 9.18 9.18 0 01.006-.526c.007-.226.01-.38.01-.46 0-.277.006-.579.017-.903l.027-.772c.008-.19.011-.391.011-.603a2.5 2.5 0 00-.038-.498 1.7 1.7 0 00-.115-.35.59.59 0 00-.224-.263 1.262 1.262 0 00-.366-.148c-.386-.088-.878-.135-1.476-.142C8.747-.013 7.876.075 7.49.264a1.47 1.47 0 00-.416.329c-.13.16-.15.248-.054.263.437.065.747.222.929.47l.066.132c.05.095.102.263.153.504.05.24.084.507.098.799.036.533.036.99 0 1.369-.036.38-.07.675-.104.887a1.778 1.778 0 01-.147.515 2.25 2.25 0 01-.132.24.188.188 0 01-.054.055.818.818 0 01-.296.055c-.102 0-.226-.051-.371-.153a2.624 2.624 0 01-.454-.422 5.636 5.636 0 01-.53-.75 13.157 13.157 0 01-.613-1.139L5.39 3.1c-.109-.204-.258-.502-.448-.892s-.357-.769-.503-1.134a.722.722 0 00-.262-.35L4.122.691a.748.748 0 00-.175-.093 1.159 1.159 0 00-.251-.071L.7.549c-.306 0-.514.07-.623.208L.033.823A.355.355 0 000 .998c0 .08.022.179.066.295.437 1.03.913 2.023 1.426 2.98.514.955.96 1.726 1.34 2.31A27.28 27.28 0 003.99 8.235c.393.518.654.85.781.997.128.146.228.255.301.328l.274.263c.175.175.431.385.77.63.34.244.715.485 1.127.723.412.237.89.43 1.437.58.547.15 1.08.21 1.597.18h1.257c.255-.021.448-.102.58-.24l.043-.055a.73.73 0 00.082-.203c.026-.09.038-.191.038-.3a3.614 3.614 0 01.071-.85c.055-.251.117-.441.187-.569a1.398 1.398 0 01.42-.482.716.716 0 01.088-.038c.175-.058.38-.002.618.17.237.172.459.383.667.635.208.252.457.535.749.849.291.314.546.547.765.7l.219.132c.146.088.335.168.568.241.233.073.437.091.613.055l2.799-.044c.276 0 .492-.046.645-.137.153-.091.244-.192.273-.301a.85.85 0 00.005-.373 1.371 1.371 0 00-.076-.29z"/></symbol></svg>