<svg width="177" height="48" viewBox="0 0 177 48" fill="none" xmlns="http://www.w3.org/2000/svg">
<g clip-path="url(#clip0)">
<path d="M13.189 1.49659H3.08475C2.67539 1.48081 2.26718 1.5498 1.88575 1.69925C1.50432 1.84869 1.1579 2.07537 0.868224 2.36504C0.578548 2.65472 0.351873 3.00115 0.202425 3.38258C0.0529773 3.76401 -0.0160211 4.17222 -0.000232963 4.58158V26.7687C-0.000232963 27.6802 0.266373 28.4191 0.799579 28.9853C1.33279 29.5515 2.05579 29.834 2.96859 29.8327C3.86996 29.8327 4.58661 29.5502 5.11855 28.9853C5.65049 28.4203 5.92026 27.6815 5.92788 26.7687V6.92578H13.1966C13.5522 6.94126 13.907 6.8814 14.2378 6.75012C14.5686 6.61885 14.868 6.41913 15.1162 6.16406C15.6039 5.63247 15.8607 4.92909 15.8303 4.20833C15.8303 3.38567 15.5961 2.72677 15.1276 2.23165C14.6591 1.73653 14.0129 1.49152 13.189 1.49659Z" fill="white"/>
<path d="M39.8345 1.25875C39.346 1.25305 38.8637 1.36789 38.4302 1.59309C37.9968 1.8183 37.6255 2.14693 37.3494 2.54987L24.8361 19.2488H24.7581V4.32278C24.7581 2.28009 23.7685 1.25875 21.7892 1.25875C19.81 1.25875 18.8268 2.28009 18.8395 4.32278V26.7689C18.8395 27.6804 19.1061 28.4193 19.6393 28.9855C20.1725 29.5517 20.8891 29.8342 21.7892 29.8329C22.2685 29.8105 22.7351 29.672 23.1489 29.4292C23.5837 29.2172 23.9681 28.9146 24.2763 28.5418L36.8085 12.0371H36.8866V26.7689C36.8866 27.6804 37.1532 28.4193 37.6864 28.9855C38.2196 29.5517 38.9363 29.8342 39.8364 29.8329C40.7492 29.8329 41.4722 29.5504 42.0054 28.9855C42.5386 28.4205 42.8058 27.6817 42.8071 26.7689V4.32278C42.8058 2.28009 41.815 1.25875 39.8345 1.25875Z" fill="white"/>
<path d="M65.3424 13.3474C63.5054 11.65 61.1656 10.802 58.3231 10.8033H53.9432V6.96608L63.3334 6.92609C63.6877 6.94193 64.0414 6.88335 64.3717 6.75412C64.702 6.62489 65.0015 6.42788 65.251 6.17579C65.4959 5.9122 65.686 5.60255 65.8103 5.26485C65.9345 4.92714 65.9904 4.56812 65.9746 4.20864C65.9746 3.38598 65.7404 2.72708 65.2719 2.23196C64.8035 1.73684 64.1585 1.49183 63.3372 1.4969H51.0601C50.0965 1.4969 49.364 1.78636 48.8625 2.36527C48.3084 3.00702 48.0322 3.66401 48.0322 4.33052V26.5176C48.0322 27.4698 48.3058 28.222 48.853 28.7742C49.3976 29.3265 50.1479 29.6026 51.0982 29.6026H58.0984C60.9777 29.6026 63.3619 28.7609 65.251 27.0775C67.2162 25.3293 68.1989 23.0283 68.1989 20.1744C68.1989 17.3585 67.2467 15.0829 65.3424 13.3474ZM60.9168 23.2194C60.1639 24.0039 59.1839 24.3962 57.9765 24.3962H53.947V16.0173H57.9765C59.1966 16.0173 60.1798 16.4121 60.9263 17.2017C61.6728 17.9914 62.0454 18.9975 62.0441 20.2201C62.0441 21.4363 61.6684 22.436 60.9168 23.2194Z" fill="white"/>
<path d="M85.3379 24.1447H78.0273V18.148H84.5019C85.2607 18.1716 85.9996 17.903 86.5662 17.3977C86.839 17.1498 87.0545 16.8453 87.1976 16.5056C87.3406 16.1658 87.4079 15.799 87.3946 15.4306C87.3946 14.5558 87.1312 13.8811 86.6043 13.4063C86.0774 12.9315 85.3792 12.6934 84.5096 12.6922H78.0349V6.92591H84.9971C85.3624 6.93475 85.7258 6.87114 86.0663 6.73877C86.4069 6.60639 86.7179 6.40787 86.9814 6.15467C87.4972 5.63534 87.7884 4.93422 87.7923 4.20227C87.7962 3.47033 87.5125 2.76613 87.0023 2.24131C86.7347 1.98858 86.4198 1.79118 86.0756 1.66047C85.7315 1.52975 85.365 1.46828 84.9971 1.47959H75.1937C73.137 1.47959 72.1087 2.62218 72.1087 4.90735V26.6336C72.0946 27.0312 72.1645 27.4273 72.3138 27.7962C72.4631 28.165 72.6885 28.4982 72.9752 28.774C73.2659 29.0492 73.6083 29.2641 73.9825 29.4063C74.3568 29.5485 74.7555 29.6151 75.1556 29.6024H85.3379C86.0807 29.6232 86.8015 29.3493 87.3432 28.8407C87.6094 28.5906 87.8193 28.2867 87.9588 27.9491C88.0984 27.6116 88.1644 27.2481 88.1525 26.8831C88.1681 26.515 88.1058 26.1478 87.9696 25.8055C87.8334 25.4632 87.6264 25.1536 87.3622 24.8969C87.0908 24.6447 86.7723 24.4484 86.4249 24.3193C86.0776 24.1903 85.7082 24.1309 85.3379 24.1447Z" fill="white"/>
<path d="M109.534 4.05431C107.684 2.34932 105.276 1.49683 102.311 1.49683H95.3181C94.3672 1.49683 93.6188 1.77295 93.0729 2.3252C92.527 2.87745 92.2547 3.62965 92.2559 4.58181V26.7689C92.2269 27.5758 92.5099 28.3629 93.0462 28.9665C93.5718 29.5454 94.2917 29.8342 95.2057 29.8329C96.1198 29.8317 96.8428 29.5492 97.3747 28.9855C97.9079 28.4193 98.1745 27.6804 98.1745 26.7689V20.2943H102.545C103.853 20.2991 105.151 20.0708 106.378 19.6201C108.168 18.9909 109.714 17.8134 110.796 16.2552C111.874 14.6885 112.437 12.8246 112.405 10.9232C112.405 8.10478 111.448 5.81516 109.534 4.05431ZM105.142 13.8977C104.397 14.6746 103.416 15.0631 102.198 15.0631H98.1783V6.69559H102.198C103.403 6.69559 104.381 7.08788 105.133 7.87245C105.884 8.65703 106.26 9.65932 106.258 10.8794C106.256 12.1146 105.884 13.1207 105.142 13.8977Z" fill="white"/>
<path d="M137.027 1.25879C135.046 1.25879 134.056 2.28013 134.056 4.32282V12.7018H121.659V4.32282C121.659 2.28013 120.675 1.25879 118.707 1.25879C116.739 1.25879 115.75 2.28013 115.738 4.32282V26.7689C115.738 27.6804 116.005 28.4193 116.538 28.9855C117.071 29.5517 117.794 29.8342 118.707 29.8329C119.608 29.8329 120.325 29.5505 120.857 28.9855C121.389 28.4206 121.656 27.6817 121.659 26.7689V18.1481H134.056V26.7689C134.056 27.6804 134.323 28.4193 134.858 28.9855C135.392 29.5517 136.115 29.8342 137.027 29.8329C137.938 29.8329 138.661 29.5505 139.196 28.9855C139.73 28.4206 139.997 27.6817 139.995 26.7689V4.32282C139.993 2.28013 139.003 1.25879 137.027 1.25879Z" fill="white"/>
<path d="M39.4933 44.0998L37.1034 38.1394C37.0337 37.9623 36.9988 37.7735 37.0006 37.5833C37.002 37.4577 37.0312 37.3339 37.0862 37.221C37.1412 37.108 37.2206 37.0087 37.3186 36.9301C37.5093 36.7532 37.7592 36.654 38.0194 36.6521C38.2598 36.6375 38.498 36.7049 38.6952 36.8433C38.8923 36.9817 39.0367 37.1828 39.1048 37.4138L40.5864 41.4871L42.1784 37.4195C42.2484 37.1916 42.392 36.9932 42.5866 36.8554C42.7812 36.7176 43.016 36.6481 43.2543 36.6578C43.5159 36.6563 43.7686 36.7528 43.9627 36.9282C44.0608 37.0081 44.1397 37.1089 44.1938 37.2232C44.2478 37.3376 44.2756 37.4626 44.275 37.589C44.2767 37.7793 44.2418 37.968 44.1722 38.1451L40.554 47.1544C40.3229 47.7218 39.9833 48.0056 39.5352 48.0056C39.2627 48.0111 38.9957 47.929 38.7735 47.7714C38.6618 47.6932 38.5713 47.5887 38.5098 47.4671C38.4483 47.3455 38.4179 47.2106 38.4212 47.0744C38.4248 46.8579 38.4693 46.644 38.5526 46.4441L39.4933 44.0998Z" fill="#76B72D"/>
<path d="M49.5061 39.3923V34.3707C49.498 34.0614 49.6022 33.7597 49.7994 33.5213C49.8943 33.4063 50.0145 33.3147 50.1506 33.2536C50.2866 33.1925 50.4349 33.1636 50.584 33.169C50.7341 33.1613 50.8841 33.188 51.0224 33.247C51.1607 33.3061 51.2837 33.396 51.3819 33.5099C51.5792 33.7523 51.6814 34.0583 51.6694 34.3707V39.4152L54.0365 37.13C54.289 36.8497 54.6424 36.6812 55.0191 36.6615C55.1423 36.6573 55.2649 36.6804 55.3782 36.7291C55.4915 36.7778 55.5925 36.851 55.6742 36.9434C55.8441 37.1336 55.9347 37.3816 55.9275 37.6366C55.9249 37.8012 55.8862 37.9633 55.8141 38.1113C55.7421 38.2594 55.6384 38.3899 55.5104 38.4935L53.589 40.2074L56.1255 43.1762C56.2981 43.3724 56.393 43.6251 56.3921 43.8865C56.3944 44.0212 56.3692 44.1551 56.3181 44.2798C56.267 44.4045 56.1912 44.5175 56.095 44.612C56.0021 44.7094 55.8899 44.7864 55.7657 44.8381C55.6415 44.8899 55.5079 44.9154 55.3733 44.9129C55.0401 44.9129 54.6935 44.692 54.3316 44.2464L51.698 40.9919H51.6694V43.6161C51.6827 43.9238 51.5831 44.2258 51.3895 44.4654C51.2916 44.5824 51.1679 44.6751 51.0282 44.7362C50.8884 44.7974 50.7363 44.8253 50.584 44.8177C50.4349 44.8236 50.2864 44.7949 50.1503 44.7337C50.0142 44.6726 49.894 44.5808 49.7994 44.4654C49.6022 44.227 49.498 43.9253 49.5061 43.6161V40.9919L46.8591 44.2464C46.4973 44.692 46.1526 44.9129 45.8251 44.9129C45.6905 44.9154 45.5569 44.8899 45.4327 44.8381C45.3085 44.7864 45.1963 44.7094 45.1034 44.612C45.0072 44.5175 44.9314 44.4045 44.8803 44.2798C44.8292 44.1551 44.804 44.0212 44.8063 43.8865C44.8051 43.6217 44.9022 43.3659 45.0786 43.1686L47.6151 40.1997L45.6937 38.4859C45.5644 38.3829 45.4594 38.2528 45.386 38.1047C45.3126 37.9566 45.2727 37.7942 45.269 37.6289C45.265 37.3751 45.3591 37.1295 45.5318 36.9434C45.6131 36.8505 45.7136 36.7764 45.8264 36.7264C45.9392 36.6765 46.0616 36.6517 46.185 36.6539C46.5592 36.675 46.9098 36.8434 47.16 37.1224L49.5061 39.3923Z" fill="#76B72D"/>
<path d="M64.1885 41.4607H59.5782C59.6032 41.6914 59.6774 41.9141 59.7956 42.1138C59.9138 42.3135 60.0735 42.4856 60.2637 42.6185C60.6634 42.8925 61.139 43.0337 61.6234 43.0222C61.981 43.0136 62.3331 42.9312 62.6574 42.7804C62.7171 42.7461 63.0345 42.5798 63.6096 42.2814C63.7538 42.2011 63.915 42.1561 64.08 42.15C64.197 42.1506 64.3126 42.1764 64.4187 42.2257C64.5249 42.275 64.6191 42.3466 64.695 42.4357C64.8645 42.6079 64.9595 42.8397 64.9597 43.0813C64.9597 43.6335 64.4906 44.095 63.5525 44.4657C62.8781 44.7483 62.1564 44.9008 61.4254 44.9151C60.2282 44.9151 59.2532 44.5197 58.5003 43.7287C58.1256 43.3312 57.833 42.8637 57.6392 42.353C57.4455 41.8423 57.3543 41.2983 57.3711 40.7523C57.3483 39.6762 57.7333 38.6313 58.4489 37.8273C58.7927 37.4219 59.2225 37.0982 59.707 36.8798C60.1916 36.6614 60.7188 36.5538 61.2502 36.5647C62.0407 36.5602 62.8118 36.8098 63.4496 37.2769C64.0885 37.7411 64.5798 38.3799 64.8645 39.1165C65.041 39.5549 65.1327 40.0227 65.1349 40.4952C65.1349 41.1401 64.8195 41.462 64.1885 41.4607ZM59.5344 40.0172H62.9621C62.9265 39.5671 62.7361 39.1431 62.4232 38.8175C62.0987 38.5257 61.677 38.3656 61.2406 38.3684C60.8042 38.3712 60.3845 38.5368 60.0638 38.8327C59.7525 39.1523 59.5648 39.5721 59.5344 40.0172Z" fill="#76B72D"/>
<path d="M73.8893 36.5628C74.4218 36.5515 74.9502 36.659 75.436 36.8774C75.9219 37.0958 76.353 37.4196 76.6981 37.8254C77.3872 38.6436 77.7661 39.6783 77.7686 40.748C77.771 41.8177 77.3968 42.8541 76.7114 43.6754C76.3515 44.0645 75.915 44.3749 75.4293 44.5872C74.9436 44.7995 74.4193 44.9091 73.8893 44.9091C73.3592 44.9091 72.8349 44.7995 72.3492 44.5872C71.8636 44.3749 71.427 44.0645 71.0671 43.6754C70.3857 42.8514 70.0149 41.8145 70.0191 40.7453C70.0233 39.6761 70.4022 38.6422 71.0899 37.8235C71.4341 37.4192 71.8637 37.0964 72.3478 36.8784C72.832 36.6604 73.3584 36.5526 73.8893 36.5628ZM73.8893 38.5433C73.6271 38.5383 73.3684 38.6029 73.1393 38.7303C72.9102 38.8577 72.7189 39.0435 72.5848 39.2688C72.3069 39.712 72.1664 40.2275 72.1811 40.7504C72.1638 41.2775 72.3102 41.7971 72.6 42.2377C72.7416 42.451 72.9341 42.6257 73.16 42.746C73.386 42.8664 73.6383 42.9286 73.8943 42.9271C74.1503 42.9256 74.4019 42.8604 74.6265 42.7374C74.851 42.6144 75.0413 42.4374 75.1804 42.2224C75.4687 41.7865 75.6169 41.2729 75.605 40.7504C75.605 39.802 75.2946 39.1324 74.6738 38.7413C74.4363 38.6024 74.1643 38.5337 73.8893 38.5433Z" fill="#76B72D"/>
<path d="M79.2686 43.6163V37.8539C79.2613 37.5447 79.3654 37.2433 79.5619 37.0045C79.6565 36.8892 79.7766 36.7973 79.9128 36.7362C80.0489 36.6751 80.1973 36.6463 80.3464 36.6522C80.9292 36.6522 81.2605 36.9188 81.3443 37.4501C81.7747 36.8598 82.4685 36.564 83.4257 36.5627C84.3245 36.5627 85.0431 36.8236 85.5814 37.3454C86.1197 37.8672 86.3882 38.5769 86.3869 39.4744V43.6163C86.4007 43.9238 86.3018 44.2258 86.1089 44.4656C86.0108 44.5824 85.8871 44.675 85.7474 44.7361C85.6076 44.7972 85.4557 44.8252 85.3034 44.8179C85.1542 44.824 85.0057 44.7953 84.8696 44.7342C84.7334 44.673 84.6133 44.5811 84.5188 44.4656C84.3216 44.2273 84.2174 43.9256 84.2255 43.6163V39.8477C84.2433 39.4526 84.1067 39.0661 83.8446 38.7698C83.7101 38.6325 83.5477 38.5256 83.3683 38.4563C83.189 38.387 82.9969 38.3569 82.8049 38.368C82.616 38.357 82.4269 38.388 82.2514 38.4588C82.0759 38.5296 81.9183 38.6384 81.7899 38.7775C81.5389 39.0761 81.4092 39.458 81.4262 39.8477V43.6163C81.4391 43.9237 81.3403 44.2254 81.1482 44.4656C81.0499 44.5827 80.9258 44.6754 80.7858 44.7365C80.6457 44.7976 80.4934 44.8255 80.3407 44.8179C80.1916 44.8238 80.0432 44.7951 79.907 44.734C79.7709 44.6728 79.6508 44.581 79.5562 44.4656C79.3618 44.226 79.2597 43.9247 79.2686 43.6163Z" fill="#76B72D"/>
<path d="M94.3926 36.6521C95.0915 36.6521 95.44 36.9416 95.44 37.5243V43.8732C95.44 44.4547 95.0909 44.7454 94.3926 44.7454C93.6944 44.7454 93.3421 44.4547 93.3358 43.8732V38.4993H91.1953L91.1744 41.2186C91.1744 42.7814 90.7395 43.8371 89.8699 44.3855C89.5013 44.6174 89.0732 44.7372 88.6378 44.7302H88.6073C88.3214 44.7377 88.0434 44.6355 87.8304 44.4445C87.7498 44.3728 87.6854 44.2848 87.6414 44.1863C87.5974 44.0878 87.5749 43.9811 87.5752 43.8732V43.8428C87.5828 43.7283 87.6147 43.6167 87.6689 43.5155C87.7231 43.4144 87.7983 43.326 87.8894 43.2562C88.0496 43.1719 88.2238 43.1177 88.4036 43.0963C88.872 43.0023 89.1063 42.511 89.1063 41.6224V41.5633L89.0777 37.5243V37.509C89.0777 36.9377 89.4319 36.6521 90.1403 36.6521H94.3926Z" fill="#76B72D"/>
<path d="M104.904 38.0593V43.4104C104.904 44.0554 104.758 44.4756 104.464 44.6711C104.283 44.7784 104.073 44.8295 103.863 44.8177C103.326 44.8177 102.981 44.5124 102.829 43.9018C102.587 44.2168 102.277 44.472 101.92 44.6474C101.564 44.8227 101.173 44.9136 100.776 44.9129C100.031 44.9258 99.3042 44.6825 98.7173 44.2236C98.1352 43.7627 97.7015 43.1408 97.4699 42.4354C97.2853 41.893 97.1939 41.3231 97.1995 40.7501C97.1801 39.7135 97.5161 38.7014 98.1517 37.8822C98.4525 37.4675 98.8486 37.1311 99.3066 36.9015C99.7646 36.6718 100.271 36.5556 100.783 36.5626C101.685 36.5626 102.369 36.8926 102.836 37.5528C102.862 37.3016 102.984 37.0702 103.177 36.9072C103.369 36.7396 103.616 36.6487 103.87 36.6521C104.326 36.6521 104.631 36.8177 104.786 37.1491C104.885 37.4418 104.925 37.7511 104.904 38.0593ZM99.3609 40.7425C99.3445 41.2695 99.4908 41.7888 99.7799 42.2298C99.9167 42.4465 100.107 42.6239 100.333 42.7448C100.559 42.8656 100.813 42.9257 101.069 42.9191C101.325 42.9223 101.577 42.8576 101.8 42.7315C102.023 42.6053 102.208 42.4224 102.337 42.2012C102.613 41.7656 102.754 41.258 102.741 40.7425C102.741 39.798 102.431 39.1283 101.81 38.7335C101.587 38.5996 101.329 38.5334 101.069 38.543C100.807 38.5381 100.548 38.6026 100.319 38.7301C100.09 38.8575 99.8987 39.0433 99.7646 39.2686C99.4867 39.7117 99.3463 40.2272 99.3609 40.7501V40.7425Z" fill="#76B72D"/>
<path d="M111.663 42.2223C111.663 41.8414 111.663 41.6034 111.676 41.5044C111.246 42.0972 110.548 42.393 109.581 42.3918C108.693 42.3918 107.978 42.1277 107.437 41.5996C106.896 41.0715 106.627 40.363 106.628 39.4744V37.8824C106.62 37.5731 106.724 37.2714 106.921 37.0331C107.016 36.9179 107.136 36.8262 107.272 36.7651C107.408 36.704 107.557 36.6751 107.706 36.6808C107.856 36.673 108.006 36.6997 108.144 36.7587C108.282 36.8178 108.405 36.9077 108.504 37.0216C108.7 37.2646 108.801 37.5704 108.789 37.8824V39.0992C108.774 39.4922 108.911 39.876 109.17 40.1714C109.301 40.3117 109.461 40.4218 109.639 40.4938C109.817 40.5658 110.009 40.5981 110.2 40.5884C110.391 40.5967 110.58 40.5622 110.755 40.4874C110.93 40.4125 111.086 40.2993 111.212 40.1561C111.465 39.8634 111.601 39.4866 111.592 39.0992V37.8824C111.58 37.5774 111.679 37.2784 111.87 37.0407C111.97 36.9293 112.092 36.8399 112.228 36.778C112.364 36.716 112.512 36.683 112.661 36.6808C112.811 36.6787 112.959 36.7075 113.097 36.7655C113.235 36.8235 113.359 36.9094 113.462 37.0178C113.659 37.2618 113.761 37.5691 113.748 37.8824V43.6524C113.759 43.9577 113.66 44.2568 113.47 44.496C113.372 44.6114 113.249 44.703 113.111 44.764C112.972 44.825 112.822 44.8539 112.67 44.8483C112.429 44.8586 112.191 44.786 111.996 44.6427C111.888 44.5531 111.804 44.4392 111.749 44.3104C111.694 44.1816 111.67 44.0416 111.68 43.9019V43.7838C111.669 43.0856 111.663 42.5651 111.663 42.2223Z" fill="#76B72D"/>
<path d="M122.123 41.4606H117.521C117.547 41.6911 117.621 41.9135 117.739 42.1131C117.857 42.3127 118.017 42.4849 118.206 42.6184C118.606 42.8919 119.082 43.0331 119.566 43.0221C119.924 43.0135 120.276 42.9312 120.6 42.7803C120.659 42.746 120.981 42.5899 121.552 42.2814C121.696 42.2011 121.856 42.156 122.021 42.15C122.138 42.1505 122.253 42.1763 122.359 42.2256C122.466 42.2749 122.56 42.3465 122.636 42.4356C122.805 42.6078 122.9 42.8396 122.9 43.0812C122.9 43.6334 122.431 44.0949 121.493 44.4656C120.821 44.7466 120.102 44.8984 119.374 44.9131C118.178 44.9131 117.203 44.5177 116.449 43.7267C116.074 43.3293 115.781 42.8618 115.587 42.351C115.394 41.8403 115.303 41.2963 115.319 40.7503C115.297 39.6742 115.682 38.6293 116.397 37.8253C116.741 37.4201 117.171 37.0966 117.655 36.8782C118.14 36.6598 118.667 36.5521 119.198 36.5627C119.989 36.5582 120.76 36.8079 121.398 37.2749C122.037 37.7386 122.529 38.3775 122.813 39.1145C122.99 39.5526 123.082 40.0206 123.083 40.4932C123.073 41.1394 122.753 41.4619 122.123 41.4606ZM117.467 40.0172H120.907C120.871 39.57 120.684 39.1482 120.377 38.8212C120.052 38.5293 119.63 38.3691 119.194 38.3719C118.757 38.3747 118.337 38.5404 118.016 38.8365C117.699 39.1527 117.505 39.5711 117.467 40.0172Z" fill="#76B72D"/>
<path d="M126.601 40.0172H129.394L129.409 37.8824C129.399 37.5718 129.5 37.2678 129.695 37.0255C129.792 36.9108 129.913 36.82 130.051 36.7602C130.188 36.7004 130.338 36.6732 130.487 36.6808C130.637 36.673 130.787 36.6997 130.926 36.7588C131.064 36.8179 131.187 36.9078 131.285 37.0217C131.481 37.2647 131.583 37.5704 131.571 37.8824V43.6525C131.578 43.9578 131.465 44.2538 131.257 44.477C131.156 44.5883 131.032 44.6764 130.894 44.7353C130.756 44.7941 130.607 44.8223 130.457 44.8179C130.309 44.8246 130.162 44.7969 130.028 44.7371C129.893 44.6773 129.774 44.5869 129.68 44.4732C129.487 44.236 129.385 43.9373 129.394 43.6315V41.4606H126.601L126.587 43.6163C126.531 43.9204 126.43 44.2144 126.286 44.4885C126.186 44.5956 126.064 44.6803 125.929 44.7371C125.794 44.7939 125.648 44.8214 125.502 44.8179C125.348 44.8232 125.195 44.7913 125.055 44.725C124.916 44.6588 124.795 44.56 124.702 44.437C124.519 44.189 124.426 43.886 124.439 43.5782L124.452 37.8748C124.444 37.5643 124.548 37.2613 124.746 37.0217C124.842 36.9071 124.964 36.8161 125.101 36.7557C125.239 36.6953 125.388 36.6671 125.538 36.6732C126.246 36.6732 126.601 37.0788 126.601 37.89V40.0172Z" fill="#76B72D"/>
<path d="M136.914 36.5628C137.447 36.5515 137.975 36.659 138.461 36.8774C138.947 37.0958 139.378 37.4196 139.723 37.8254C140.412 38.6436 140.791 39.6783 140.793 40.748C140.796 41.8177 140.422 42.8541 139.736 43.6754C139.376 44.0645 138.94 44.3749 138.454 44.5872C137.969 44.7995 137.444 44.9091 136.914 44.9091C136.384 44.9091 135.86 44.7995 135.374 44.5872C134.888 44.3749 134.452 44.0645 134.092 43.6754C133.411 42.8514 133.04 41.8145 133.044 40.7453C133.048 39.6761 133.427 38.6422 134.115 37.8235C134.459 37.4193 134.889 37.0966 135.373 36.8786C135.857 36.6606 136.383 36.5527 136.914 36.5628ZM136.914 38.5433C136.652 38.5383 136.393 38.6029 136.164 38.7303C135.935 38.8577 135.744 39.0435 135.61 39.2688C135.332 39.712 135.191 40.2275 135.206 40.7504C135.19 41.2774 135.336 41.7967 135.625 42.2377C135.767 42.451 135.959 42.6257 136.185 42.746C136.411 42.8664 136.663 42.9286 136.919 42.9271C137.175 42.9256 137.427 42.8604 137.651 42.7374C137.876 42.6144 138.066 42.4374 138.205 42.2224C138.494 41.7865 138.642 41.2729 138.63 40.7504C138.63 39.802 138.32 39.1324 137.699 38.7413C137.461 38.6022 137.189 38.5335 136.914 38.5433Z" fill="#76B72D"/>
<path d="M176.08 2.92095C175.947 2.7009 175.738 2.53719 175.492 2.46072C175.246 2.38424 174.981 2.40028 174.747 2.5058C169.415 4.9814 165.282 8.93285 161.838 14.4649C161.822 14.4905 161.8 14.5115 161.774 14.5256C161.747 14.5398 161.718 14.5465 161.688 14.5452C161.658 14.5438 161.629 14.5344 161.604 14.5179C161.579 14.5014 161.559 14.4785 161.546 14.4515C161.096 13.3726 160.457 12.3827 159.659 11.5284C158.876 10.6791 156.279 8.29109 154.552 9.50033C154.096 9.80121 153.251 10.5991 153.382 11.5056C153.514 12.412 154.715 12.9547 156.97 15.3713C158.526 17.0471 159.676 19.3932 161.123 22.8476C161.134 22.8684 161.146 22.8881 161.16 22.9067C161.175 22.9272 161.195 22.9438 161.218 22.9553C161.241 22.9667 161.266 22.9727 161.292 22.9727C161.318 22.9727 161.343 22.9667 161.366 22.9553C161.389 22.9438 161.409 22.9272 161.424 22.9067C161.438 22.8914 161.45 22.8748 161.46 22.8571C161.691 22.4763 161.914 22.0802 162.14 21.6917C163.239 19.8255 164.33 17.9536 165.442 16.093C165.842 15.4227 166.286 14.7791 166.724 14.1316C168.484 11.4658 170.557 9.02092 172.9 6.84953C173.566 6.24206 174.943 5.12423 175.83 4.41773C176.048 4.24538 176.196 3.99948 176.246 3.72608C176.296 3.45267 176.244 3.17049 176.101 2.93237L176.08 2.92095Z" fill="#78B72A"/>
<path d="M160.28 30.5603C158.103 30.5597 155.952 30.094 153.97 29.1945C151.988 28.295 150.221 26.9825 148.787 25.3447C147.354 23.707 146.286 21.7819 145.657 19.6982C145.028 17.6146 144.851 15.4206 145.138 13.2631C145.425 11.1055 146.17 9.03429 147.323 7.18799C148.476 5.34169 150.01 3.76296 151.822 2.55749C153.634 1.35203 155.683 0.547648 157.831 0.198208C159.98 -0.151231 162.178 -0.0376686 164.279 0.5313C164.584 0.61395 164.87 0.755909 165.12 0.94907C165.371 1.14223 165.581 1.38281 165.738 1.65708C165.895 1.93134 165.997 2.23392 166.038 2.54754C166.078 2.86115 166.056 3.17966 165.974 3.48488C165.891 3.7901 165.749 4.07605 165.556 4.32641C165.363 4.57677 165.122 4.78663 164.848 4.94401C164.574 5.10139 164.271 5.20321 163.957 5.24365C163.644 5.28409 163.325 5.26237 163.02 5.17972C160.906 4.60331 158.665 4.70426 156.612 5.46835C154.558 6.23244 152.796 7.6212 151.574 9.43917C150.351 11.2571 149.729 13.4127 149.796 15.6026C149.862 17.7925 150.614 19.9064 151.945 21.6467C153.276 23.3871 155.119 24.6663 157.215 25.3042C159.311 25.9422 161.554 25.9069 163.629 25.2032C165.704 24.4994 167.505 23.1628 168.781 21.3814C170.056 19.6 170.741 17.4634 170.738 15.2726C170.738 14.6342 170.992 14.0219 171.443 13.5705C171.895 13.1191 172.507 12.8655 173.145 12.8655C173.784 12.8655 174.396 13.1191 174.847 13.5705C175.299 14.0219 175.552 14.6342 175.552 15.2726C175.55 19.3239 173.941 23.2089 171.078 26.075C168.215 28.9412 164.331 30.5543 160.28 30.5603Z" fill="white"/>
</g>
<defs>
<clipPath id="clip0">
<rect width="176.253" height="48" fill="white"/>
</clipPath>
</defs>
</svg>
