<svg width="52" height="63" viewBox="0 0 52 63" fill="none" xmlns="http://www.w3.org/2000/svg">
<g clip-path="url(#clip0)">
<path d="M16.7207 26.2498H19.8134V41.9998H31.1534V26.2498H34.2461" stroke="#2B2A29"/>
<path fill-rule="evenodd" clip-rule="evenodd" d="M22.9065 37.8C22.9065 38.85 22.9065 38.85 22.9065 39.9C22.9065 39.9 22.9065 39.9 21.8756 40.95L20.8447 39.9V38.85L21.8756 37.8C21.8756 37.8 21.8756 37.8 22.9065 37.8Z" fill="black"/>
<path fill-rule="evenodd" clip-rule="evenodd" d="M25.9988 37.8C25.9988 38.85 27.0297 38.85 27.0297 39.9C25.9988 39.9 25.9988 39.9 24.9679 40.95C24.9679 40.95 24.9679 39.9 23.937 39.9C23.937 39.9 23.937 38.85 24.9679 38.85V37.8H25.9988Z" fill="black"/>
<path fill-rule="evenodd" clip-rule="evenodd" d="M29.0919 37.8C30.1228 38.85 30.1228 38.85 30.1228 39.9C29.0919 39.9 29.0919 39.9 29.0919 40.95C28.061 40.95 28.061 39.9 28.061 39.9V38.85V37.8C29.0919 37.8 29.0919 37.8 29.0919 37.8Z" fill="black"/>
<path fill-rule="evenodd" clip-rule="evenodd" d="M28.0608 35.7V36.7499C28.0608 37.7999 27.0299 37.7999 27.0299 37.7999H25.999C25.999 36.7499 25.999 36.7499 25.999 35.7C25.999 35.7 25.999 35.7 27.0299 35.7C28.0608 35.7 28.0608 35.7 28.0608 35.7Z" fill="black"/>
<path fill-rule="evenodd" clip-rule="evenodd" d="M24.9685 35.7C24.9685 36.7499 24.9685 36.7499 24.9685 37.7999H23.9376C22.9067 37.7999 22.9067 37.7999 22.9067 37.7999C22.9067 36.7499 22.9067 36.7499 22.9067 36.7499C22.9067 35.7 22.9067 35.7 22.9067 35.7C23.9376 35.7 23.9376 35.7 23.9376 35.7H24.9685Z" fill="black"/>
<path fill-rule="evenodd" clip-rule="evenodd" d="M22.9065 32.5496C22.9065 33.5996 22.9065 33.5996 22.9065 34.6496C22.9065 34.6496 22.9065 34.6496 21.8756 34.6496H20.8447V33.5996L21.8756 32.5496C21.8756 32.5496 21.8756 32.5496 22.9065 32.5496Z" fill="black"/>
<path fill-rule="evenodd" clip-rule="evenodd" d="M25.9988 32.5496C25.9988 33.5996 27.0297 33.5996 27.0297 34.6496C25.9988 34.6496 25.9988 34.6496 24.9679 34.6496C24.9679 34.6496 24.9679 34.6496 23.937 34.6496C23.937 34.6496 23.937 33.5996 24.9679 33.5996V32.5496H25.9988Z" fill="black"/>
<path fill-rule="evenodd" clip-rule="evenodd" d="M29.0919 32.5496C30.1228 33.5996 30.1228 33.5996 30.1228 34.6496C29.0919 34.6496 29.0919 34.6496 29.0919 34.6496C28.061 34.6496 28.061 34.6496 28.061 34.6496V33.5996V32.5496C29.0919 32.5496 29.0919 32.5496 29.0919 32.5496Z" fill="black"/>
<path fill-rule="evenodd" clip-rule="evenodd" d="M28.0608 29.4001C28.0608 30.4501 28.0608 30.4501 28.0608 31.5001C28.0608 31.5001 27.0299 31.5001 27.0299 32.5501C27.0299 31.5001 25.999 31.5001 25.999 31.5001V30.4501C25.999 30.4501 25.999 29.4001 27.0299 29.4001C28.0608 29.4001 28.0608 29.4001 28.0608 29.4001Z" fill="black"/>
<path fill-rule="evenodd" clip-rule="evenodd" d="M24.9685 29.4001C24.9685 30.4501 24.9685 30.4501 24.9685 31.5001C24.9685 31.5001 23.9376 31.5001 23.9376 32.5501C22.9067 31.5001 22.9067 31.5001 22.9067 31.5001V30.4501V29.4001C23.9376 29.4001 23.9376 29.4001 23.9376 29.4001H24.9685Z" fill="black"/>
<path d="M14.6592 54.5998V26.2498H36.3082V51.4498" stroke="#2B2A29"/>
<path d="M36.3082 26.2501V19.9501C36.3082 18.9001 35.2773 18.9001 34.2464 18.9001H16.721C15.6901 18.9001 14.6592 18.9001 14.6592 19.9501V26.2501" stroke="#2B2A29"/>
<path fill-rule="evenodd" clip-rule="evenodd" d="M45.5864 9.45L51.7718 45.15L23.9374 61.95L0.226562 50.4L2.28837 21L16.721 4.2L35.2773 0L45.5864 9.45Z" stroke="#2B2A29"/>
</g>
<defs>
<clipPath id="clip0">
<rect width="52" height="63" fill="white"/>
</clipPath>
</defs>
</svg>
