<svg width="55" height="65" viewBox="0 0 55 65" fill="none" xmlns="http://www.w3.org/2000/svg">
<path d="M17.8115 34.0664H20.9637V50.0664H32.5217V34.0664H35.6739" stroke="#2B2A29"/>
<path fill-rule="evenodd" clip-rule="evenodd" d="M24.1161 46.8665V47.9331C24.1161 48.9998 23.0654 48.9998 23.0654 48.9998H22.0146C22.0146 47.9331 22.0146 47.9331 22.0146 46.8665C22.0146 46.8665 22.0146 46.8665 23.0654 46.8665C23.0654 46.8665 23.0654 46.8665 23.0654 45.7998C24.1161 46.8665 24.1161 46.8665 24.1161 46.8665Z" fill="black"/>
<path fill-rule="evenodd" clip-rule="evenodd" d="M27.268 46.8665C27.268 46.8665 27.268 47.9331 28.3187 47.9331C27.268 48.9998 27.268 48.9998 26.2172 48.9998C26.2172 48.9998 26.2172 48.9998 25.1665 48.9998C25.1665 47.9331 25.1665 47.9331 25.1665 46.8665C26.2172 46.8665 26.2172 46.8665 26.2172 46.8665C26.2172 46.8665 27.268 46.8665 27.268 45.7998C27.268 46.8665 27.268 46.8665 27.268 46.8665Z" fill="black"/>
<path fill-rule="evenodd" clip-rule="evenodd" d="M30.4213 46.8665L31.472 47.9331C30.4213 48.9998 30.4213 48.9998 29.3706 48.9998C29.3706 48.9998 29.3706 48.9998 28.3198 48.9998C28.3198 47.9331 28.3198 47.9331 28.3198 46.8665C29.3706 46.8665 29.3706 46.8665 29.3706 46.8665C29.3706 46.8665 30.4213 46.8665 30.4213 45.7998C30.4213 46.8665 30.4213 46.8665 30.4213 46.8665Z" fill="black"/>
<path fill-rule="evenodd" clip-rule="evenodd" d="M29.3695 43.666C29.3695 44.7327 29.3695 44.7327 29.3695 45.7994C29.3695 45.7994 28.3188 45.7994 28.3188 46.866C28.3188 45.7994 27.2681 45.7994 27.2681 45.7994V44.7327C27.2681 44.7327 27.2681 43.666 28.3188 43.666C29.3695 43.666 29.3695 43.666 29.3695 43.666Z" fill="black"/>
<path fill-rule="evenodd" clip-rule="evenodd" d="M26.2177 40.4668C26.2177 41.5335 26.2177 41.5335 26.2177 42.6001C25.1669 42.6001 25.1669 42.6001 25.1669 43.6668C24.1162 42.6001 24.1162 42.6001 24.1162 42.6001V41.5335V40.4668C25.1669 40.4668 25.1669 40.4668 25.1669 40.4668C25.1669 40.4668 25.1669 40.4668 26.2177 40.4668Z" fill="black"/>
<path fill-rule="evenodd" clip-rule="evenodd" d="M24.1161 41.5335V42.6001L23.0654 43.6668C23.0654 43.6668 22.0146 43.6668 22.0146 42.6001C22.0146 42.6001 22.0146 42.6001 22.0146 41.5335C22.0146 41.5335 22.0146 41.5335 23.0654 40.4668C24.1161 40.4668 24.1161 40.4668 24.1161 41.5335Z" fill="black"/>
<path fill-rule="evenodd" clip-rule="evenodd" d="M27.268 41.5335C27.268 41.5335 27.268 42.6001 28.3187 42.6001C27.268 42.6001 27.268 43.6668 26.2172 43.6668C26.2172 43.6668 26.2172 43.6668 25.1665 42.6001C25.1665 42.6001 25.1665 42.6001 25.1665 41.5335C26.2172 41.5335 26.2172 41.5335 26.2172 40.4668H27.268C27.268 40.4668 27.268 40.4668 27.268 41.5335Z" fill="black"/>
<path fill-rule="evenodd" clip-rule="evenodd" d="M30.4213 41.5335L31.472 42.6001C30.4213 42.6001 30.4213 43.6668 29.3706 43.6668C29.3706 43.6668 29.3706 43.6668 28.3198 42.6001C28.3198 42.6001 28.3198 42.6001 28.3198 41.5335C29.3706 41.5335 29.3706 41.5335 29.3706 40.4668H30.4213C30.4213 40.4668 30.4213 40.4668 30.4213 41.5335Z" fill="black"/>
<path fill-rule="evenodd" clip-rule="evenodd" d="M29.3695 38.3333V39.3999L28.3188 40.4666C28.3188 40.4666 27.2681 40.4666 27.2681 39.3999C27.2681 39.3999 27.2681 39.3999 27.2681 38.3333C27.2681 38.3333 27.2681 38.3333 28.3188 38.3333C28.3188 37.2666 28.3188 37.2666 28.3188 37.2666C29.3695 37.2666 29.3695 38.3333 29.3695 38.3333Z" fill="black"/>
<path fill-rule="evenodd" clip-rule="evenodd" d="M26.2177 38.3333V39.3999C25.1669 40.4666 25.1669 40.4666 25.1669 40.4666C24.1162 40.4666 24.1162 40.4666 24.1162 39.3999C24.1162 39.3999 24.1162 39.3999 24.1162 38.3333C25.1669 38.3333 25.1669 37.2666 25.1669 37.2666C25.1669 38.3333 25.1669 38.3333 26.2177 38.3333Z" fill="black"/>
<path fill-rule="evenodd" clip-rule="evenodd" d="M26.2172 24.4668C26.2172 25.5335 25.1665 26.6001 25.1665 28.7335C25.1665 29.8001 25.5385 30.896 26.5892 30.896C28.1966 30.896 28.3187 29.8001 28.3187 28.7335C28.3187 26.6001 27.268 25.5335 26.2172 24.4668Z" stroke="#2B2A29"/>
<path d="M6.25342 22.3326L30.4202 20.1993V19.1326C30.4202 16.9993 29.3695 15.9326 26.2173 15.9326H12.5578" stroke="#2B2A29"/>
<path d="M23.0649 21.2669V22.3335H29.3693V20.2002" stroke="#2B2A29" stroke-linecap="round" stroke-linejoin="round"/>
<path fill-rule="evenodd" clip-rule="evenodd" d="M47.2321 10.6L53.5365 45.8L25.1668 63.9333L1 51.1333L3.10146 22.3333L17.8117 5.26667L36.7248 1L47.2321 10.6Z" stroke="#2B2A29"/>
</svg>
