<svg width="53" height="74" viewBox="0 0 53 74" fill="none" xmlns="http://www.w3.org/2000/svg">
<path d="M44.6865 62.4194V67.6151H41.5688" stroke="black" stroke-linecap="round" stroke-linejoin="round"/>
<path fill-rule="evenodd" clip-rule="evenodd" d="M45.7255 9.42467L51.9608 44.7551L23.902 62.4203L0 49.9507L2.07843 20.8551L16.6275 4.22903L35.3333 0.0725098L45.7255 9.42467Z" stroke="#2B2A29"/>
<path fill-rule="evenodd" clip-rule="evenodd" d="M25.9061 17.3442C24.8669 18.3834 23.8276 20.4009 23.8276 21.44C23.8276 22.4791 24.2877 23.5182 25.9061 23.5182C27.2942 23.5182 27.9845 22.4791 27.9845 21.44C27.9845 20.4009 25.9061 18.3834 25.9061 17.3442Z" stroke="#2B2A29"/>
<path fill-rule="evenodd" clip-rule="evenodd" d="M15.5885 46.8329H35.3336C36.3728 46.8329 36.3728 45.7938 36.3728 45.7938V34.3633C36.3728 34.3633 36.3728 33.3242 35.3336 33.3242H15.5885L14.5493 34.3962V45.7938L15.5885 46.8329Z" stroke="#2B2A29"/>
<path d="M15.5884 54.1067V46.8328H35.6868V52.0284" stroke="#2B2A29"/>
<path fill-rule="evenodd" clip-rule="evenodd" d="M17.6665 33.3239H34.294V27.0891H17.6665V33.3239Z" stroke="#2B2A29" stroke-linecap="round" stroke-linejoin="round"/>
<path fill-rule="evenodd" clip-rule="evenodd" d="M16.6274 31.246L34.2941 30.2069C35.3333 30.2069 35.3333 30.2069 35.3333 29.1677H34.2941L16.6274 30.2069C16.6274 30.2069 16.6274 30.2069 16.6274 31.246Z" stroke="#2B2A29"/>
<path fill-rule="evenodd" clip-rule="evenodd" d="M26.118 8.3929C25.1618 9.34902 23.9023 10.2936 23.9023 12.2058C23.9023 12.2058 24.0708 14.3158 26.118 14.3158C28.0304 14.3158 27.7271 12.2058 27.7271 12.2058C27.7271 10.2936 26.118 9.34902 26.118 8.3929Z" stroke="#2B2A29"/>
<path d="M50.8309 66.549C50.8309 70.1306 47.9491 73.0279 44.4018 73.0279C40.8544 73.0279 37.9727 70.1306 37.9727 66.549C37.9727 62.9674 40.8544 60.0701 44.4018 60.0701C47.9491 60.0701 50.8309 62.9674 50.8309 66.549Z" stroke="black"/>
</svg>
