<svg xmlns="http://www.w3.org/2000/svg" width="340" height="282" fill="none"><circle cx="175.312" cy="141.077" r="137.535" fill="#E4F7F9"/><g filter="url(#a)"><path fill="#90C9D2" d="M138.125 179.444h24.792v53.125h-24.792z"/></g><g filter="url(#b)"><rect width="247.917" height="141.667" x="25.973" y="61.389" fill="#90C9D2" rx="11.806"/></g><g filter="url(#c)"><path fill="#90C9D2" d="M192.727 229.856a3.813 3.813 0 0 1-2.929 6.255h-78.554a3.813 3.813 0 0 1-2.929-6.255l2.069-2.483a11.805 11.805 0 0 1 9.069-4.248h62.136c3.503 0 6.826 1.556 9.069 4.248l2.069 2.483Z"/></g><rect width="236.111" height="121.597" x="31.875" y="66.111" fill="#D5E8EB" rx="11.806"/><path fill="#CDE7EB" d="M58.537 186.054 193.545 67.199h47.311L105.27 186.054H58.537Z"/><path fill="#E4F3F5" d="M40.737 187.712 175.903 66.111h15.347L49.6 187.707l-8.863.004ZM56.076 187.709 194.201 66.111h61.955c1.927 0 3.819.51 5.484 1.48L139.896 187.71h-83.82Z"/><path stroke="#72B1BC" stroke-linecap="round" stroke-linejoin="round" stroke-width="5.903" d="M171.422 123.758c-2.486-4.305-9.274-9.895-13.926-11.646a21.485 21.485 0 1 0 13.186 25.67m.74-14.024h-13.023m13.023 0v-13.023"/><g filter="url(#d)"><rect width="142.847" height="73.194" x="197.152" y="79.097" fill="#fff" rx="11.806"/></g><rect width="102.708" height="10.625" x="212.5" y="90.903" fill="#C6E7EC" fill-opacity=".45" rx="5.313"/><rect width="102.708" height="4.722" x="212.5" y="105.069" fill="#C6E7EC" fill-opacity=".45" rx="2.361"/><rect width="102.708" height="4.722" x="212.5" y="113.333" fill="#C6E7EC" fill-opacity=".45" rx="2.361"/><g filter="url(#e)"><rect width="87.361" height="44.861" x="9.443" y="126.319" fill="#fff" rx="11.806"/></g><circle cx="313.338" cy="140.977" r="14.658" fill="#72B1BC"/><path fill="#fff" d="M312.899 148.794a1.292 1.292 0 0 1-1.292-1.292v-12.074c0-.714.578-1.292 1.292-1.292h.875c.713 0 1.292.578 1.292 1.292v12.074c0 .713-.579 1.292-1.292 1.292h-.875Zm-5.111-5.476a1.293 1.293 0 0 1-1.292-1.292v-1.122c0-.714.579-1.292 1.292-1.292h11.097c.713 0 1.292.578 1.292 1.292v1.122c0 .713-.579 1.292-1.292 1.292h-11.097Z"/><circle cx="221.454" cy="78.606" r="8.954" fill="#72B1BC"/><path fill="#fff" d="M221.454 83.38a1.057 1.057 0 0 1-1.057-1.057v-6.84a1.057 1.057 0 0 1 2.113 0v6.84c0 .583-.473 1.056-1.056 1.056Zm-3.047-3.346a1.132 1.132 0 0 1 0-2.263h6.093a1.132 1.132 0 0 1 0 2.263h-6.093Z"/><circle cx="8.954" cy="144.718" r="8.954" fill="#72B1BC"/><path fill="#fff" d="M8.954 149.492a1.057 1.057 0 0 1-1.057-1.057v-6.841a1.056 1.056 0 0 1 2.113 0v6.841c0 .584-.473 1.057-1.056 1.057Zm-3.047-3.345a1.132 1.132 0 0 1 0-2.264H12a1.132 1.132 0 0 1 0 2.264H5.907Z"/><rect width="55.486" height="4.722" x="23.611" y="139.306" fill="#C6E7EC" fill-opacity=".45" rx="2.361"/><rect width="55.486" height="4.722" x="23.611" y="147.569" fill="#C6E7EC" fill-opacity=".45" rx="2.361"/><defs><filter id="a" width="24.791" height="53.125" x="138.125" y="179.444" color-interpolation-filters="sRGB" filterUnits="userSpaceOnUse"><feFlood flood-opacity="0" result="BackgroundImageFix"/><feBlend in="SourceGraphic" in2="BackgroundImageFix" result="shape"/><feColorMatrix in="SourceAlpha" result="hardAlpha" values="0 0 0 0 0 0 0 0 0 0 0 0 0 0 0 0 0 0 127 0"/><feOffset dx="-2.361" dy="-4.722"/><feComposite in2="hardAlpha" k2="-1" k3="1" operator="arithmetic"/><feColorMatrix values="0 0 0 0 0.447059 0 0 0 0 0.694118 0 0 0 0 0.737255 0 0 0 1 0"/><feBlend in2="shape" result="effect1_innerShadow_12259_345987"/></filter><filter id="b" width="247.916" height="141.667" x="25.973" y="61.389" color-interpolation-filters="sRGB" filterUnits="userSpaceOnUse"><feFlood flood-opacity="0" result="BackgroundImageFix"/><feBlend in="SourceGraphic" in2="BackgroundImageFix" result="shape"/><feColorMatrix in="SourceAlpha" result="hardAlpha" values="0 0 0 0 0 0 0 0 0 0 0 0 0 0 0 0 0 0 127 0"/><feOffset dx="-2.361" dy="-4.722"/><feComposite in2="hardAlpha" k2="-1" k3="1" operator="arithmetic"/><feColorMatrix values="0 0 0 0 0.447059 0 0 0 0 0.694118 0 0 0 0 0.737255 0 0 0 1 0"/><feBlend in2="shape" result="effect1_innerShadow_12259_345987"/></filter><filter id="c" width="86.18" height="12.986" x="107.432" y="223.125" color-interpolation-filters="sRGB" filterUnits="userSpaceOnUse"><feFlood flood-opacity="0" result="BackgroundImageFix"/><feBlend in="SourceGraphic" in2="BackgroundImageFix" result="shape"/><feColorMatrix in="SourceAlpha" result="hardAlpha" values="0 0 0 0 0 0 0 0 0 0 0 0 0 0 0 0 0 0 127 0"/><feOffset dx="-3.542" dy="-4.722"/><feComposite in2="hardAlpha" k2="-1" k3="1" operator="arithmetic"/><feColorMatrix values="0 0 0 0 0.447059 0 0 0 0 0.694118 0 0 0 0 0.737255 0 0 0 1 0"/><feBlend in2="shape" result="effect1_innerShadow_12259_345987"/></filter><filter id="d" width="142.848" height="73.194" x="197.152" y="79.097" color-interpolation-filters="sRGB" filterUnits="userSpaceOnUse"><feFlood flood-opacity="0" result="BackgroundImageFix"/><feBlend in="SourceGraphic" in2="BackgroundImageFix" result="shape"/><feColorMatrix in="SourceAlpha" result="hardAlpha" values="0 0 0 0 0 0 0 0 0 0 0 0 0 0 0 0 0 0 127 0"/><feOffset dx="-3.542" dy="-3.542"/><feComposite in2="hardAlpha" k2="-1" k3="1" operator="arithmetic"/><feColorMatrix values="0 0 0 0 0.583333 0 0 0 0 0.803922 0 0 0 0 0.833333 0 0 0 1 0"/><feBlend in2="shape" result="effect1_innerShadow_12259_345987"/><feColorMatrix in="SourceAlpha" result="hardAlpha" values="0 0 0 0 0 0 0 0 0 0 0 0 0 0 0 0 0 0 127 0"/><feOffset dy="1"/><feComposite in2="hardAlpha" k2="-1" k3="1" operator="arithmetic"/><feColorMatrix values="0 0 0 0 0.835294 0 0 0 0 0.909804 0 0 0 0 0.921569 0 0 0 1 0"/><feBlend in2="effect1_innerShadow_12259_345987" result="effect2_innerShadow_12259_345987"/></filter><filter id="e" width="87.361" height="44.861" x="9.443" y="126.319" color-interpolation-filters="sRGB" filterUnits="userSpaceOnUse"><feFlood flood-opacity="0" result="BackgroundImageFix"/><feBlend in="SourceGraphic" in2="BackgroundImageFix" result="shape"/><feColorMatrix in="SourceAlpha" result="hardAlpha" values="0 0 0 0 0 0 0 0 0 0 0 0 0 0 0 0 0 0 127 0"/><feOffset dx="-3.542" dy="-3.542"/><feComposite in2="hardAlpha" k2="-1" k3="1" operator="arithmetic"/><feColorMatrix values="0 0 0 0 0.583333 0 0 0 0 0.803922 0 0 0 0 0.833333 0 0 0 1 0"/><feBlend in2="shape" result="effect1_innerShadow_12259_345987"/><feColorMatrix in="SourceAlpha" result="hardAlpha" values="0 0 0 0 0 0 0 0 0 0 0 0 0 0 0 0 0 0 127 0"/><feOffset dy="1"/><feComposite in2="hardAlpha" k2="-1" k3="1" operator="arithmetic"/><feColorMatrix values="0 0 0 0 0.835294 0 0 0 0 0.909804 0 0 0 0 0.921569 0 0 0 1 0"/><feBlend in2="effect1_innerShadow_12259_345987" result="effect2_innerShadow_12259_345987"/></filter></defs></svg>