<svg width="1104" height="506" viewBox="0 0 1104 506" fill="none" xmlns="http://www.w3.org/2000/svg">
<g filter="url(#filter0_iii_7178_181170)">
<path d="M1034.2 63.86L1059.4 54.7822C1063.33 53.3701 1069.82 57.357 1072.45 64.638C1074.54 70.4627 1079.53 77.2728 1070.01 80.7022L1044.8 89.7799C1035.28 93.2093 1029.66 86.3769 1027.24 79.6561C1024.82 72.9352 1029.72 65.4738 1034.2 63.86Z" fill="#EEEEEE"/>
</g>
<g filter="url(#filter1_i_7178_181170)">
<path d="M1085.97 74.9535L1063.33 83.108C1065.12 79.299 1066.86 76.0937 1063.97 68.0574C1061.07 60.0212 1056.09 55.9776 1052.73 57.188L1075.93 48.8318C1094.14 42.2706 1102.77 68.9012 1085.97 74.9535Z" fill="#1BC9D7"/>
<path d="M1085.97 74.9535L1063.33 83.108C1065.12 79.299 1066.86 76.0937 1063.97 68.0574C1061.07 60.0212 1056.09 55.9776 1052.73 57.188L1075.93 48.8318C1094.14 42.2706 1102.77 68.9012 1085.97 74.9535Z" fill="url(#paint0_linear_7178_181170)" fill-opacity="0.2"/>
<path d="M1085.97 74.9535L1063.33 83.108C1065.12 79.299 1066.86 76.0937 1063.97 68.0574C1061.07 60.0212 1056.09 55.9776 1052.73 57.188L1075.93 48.8318C1094.14 42.2706 1102.77 68.9012 1085.97 74.9535Z" fill="url(#paint1_linear_7178_181170)" fill-opacity="0.2"/>
</g>
<g style="mix-blend-mode:soft-light" filter="url(#filter2_f_7178_181170)">
<rect x="1046.7" y="76.1118" width="44.339" height="2.83916" rx="1.41958" transform="rotate(-19.6674 1046.7 76.1118)" fill="white" fill-opacity="0.97"/>
</g>
<g filter="url(#filter3_f_7178_181170)">
<rect x="1036.5" y="70.8101" width="3.9448" height="2.83916" rx="1.41958" transform="rotate(-19.6674 1036.5 70.8101)" fill="white"/>
</g>
<g filter="url(#filter4_f_7178_181170)">
<rect x="1034.65" y="78.2632" width="3.9448" height="2.83916" rx="1.41958" transform="rotate(-19.6674 1034.65 78.2632)" fill="white"/>
</g>
<g filter="url(#filter5_iii_7178_181170)">
<path d="M139.326 487.158L151.308 474.744C153.172 472.813 158.061 473.269 161.647 476.731C164.516 479.5 169.333 482.018 164.806 486.708L152.824 499.121C148.297 503.811 143.103 501.462 139.793 498.267C136.483 495.072 137.195 489.365 139.326 487.158Z" fill="#EEEEEE"/>
</g>
<g filter="url(#filter6_i_7178_181170)">
<path d="M172.395 478.846L161.631 489.997C161.583 487.286 161.678 484.939 157.72 481.118C153.762 477.297 149.731 476.379 148.133 478.034L159.163 466.607C167.824 457.634 180.384 470.569 172.395 478.846Z" fill="#1BC9D7"/>
<path d="M172.395 478.846L161.631 489.997C161.583 487.286 161.678 484.939 157.72 481.118C153.762 477.297 149.731 476.379 148.133 478.034L159.163 466.607C167.824 457.634 180.384 470.569 172.395 478.846Z" fill="url(#paint2_linear_7178_181170)" fill-opacity="0.2"/>
<path d="M172.395 478.846L161.631 489.997C161.583 487.286 161.678 484.939 157.72 481.118C153.762 477.297 149.731 476.379 148.133 478.034L159.163 466.607C167.824 457.634 180.384 470.569 172.395 478.846Z" fill="url(#paint3_linear_7178_181170)" fill-opacity="0.2"/>
</g>
<g style="mix-blend-mode:soft-light" filter="url(#filter7_f_7178_181170)">
<rect x="150.033" y="490.683" width="28.5574" height="1.82861" rx="0.914307" transform="rotate(-45.8721 150.033 490.683)" fill="white" fill-opacity="0.97"/>
</g>
<g filter="url(#filter8_f_7178_181170)">
<rect x="142.629" y="490.521" width="2.54072" height="1.82861" rx="0.914307" transform="rotate(-45.8721 142.629 490.521)" fill="white"/>
</g>
<g filter="url(#filter9_f_7178_181170)">
<rect x="143.684" y="495.353" width="2.54072" height="1.82861" rx="0.914307" transform="rotate(-45.8721 143.684 495.353)" fill="white"/>
</g>
<g filter="url(#filter10_iii_7178_181170)">
<path d="M18.5571 129.729L10.0748 114.704C8.75532 112.367 10.5861 107.811 14.9265 105.361C18.3988 103.401 22.1855 99.5015 25.39 105.177L33.8723 120.202C37.0767 125.878 33.3449 130.186 29.3384 132.448C25.3319 134.71 20.0651 132.4 18.5571 129.729Z" fill="#EEEEEE"/>
</g>
<g filter="url(#filter11_i_7178_181170)">
<path d="M20.018 95.6617L27.6376 109.158C25.0257 108.431 22.8026 107.671 18.012 110.376C13.2213 113.08 11.1914 116.682 12.3224 118.685L4.51434 104.855C-1.61651 93.9955 14.3627 85.6446 20.018 95.6617Z" fill="#1BC9D7"/>
<path d="M20.018 95.6617L27.6376 109.158C25.0257 108.431 22.8026 107.671 18.012 110.376C13.2213 113.08 11.1914 116.682 12.3224 118.685L4.51434 104.855C-1.61651 93.9955 14.3627 85.6446 20.018 95.6617Z" fill="url(#paint4_linear_7178_181170)" fill-opacity="0.2"/>
<path d="M20.018 95.6617L27.6376 109.158C25.0257 108.431 22.8026 107.671 18.012 110.376C13.2213 113.08 11.1914 116.682 12.3224 118.685L4.51434 104.855C-1.61651 93.9955 14.3627 85.6446 20.018 95.6617Z" fill="url(#paint5_linear_7178_181170)" fill-opacity="0.2"/>
</g>
<g style="mix-blend-mode:soft-light" filter="url(#filter12_f_7178_181170)">
<rect x="24.9885" y="120.47" width="28.5574" height="1.82861" rx="0.914307" transform="rotate(-119.307 24.9885 120.47)" fill="white" fill-opacity="0.97"/>
</g>
<g filter="url(#filter13_f_7178_181170)">
<rect x="22.7226" y="127.522" width="2.54072" height="1.82861" rx="0.914307" transform="rotate(-119.307 22.7226 127.522)" fill="white"/>
</g>
<g filter="url(#filter14_f_7178_181170)">
<rect x="27.6538" y="127.888" width="2.54072" height="1.82861" rx="0.914307" transform="rotate(-119.307 27.6538 127.888)" fill="white"/>
</g>
<g filter="url(#filter15_iii_7178_181170)">
<path d="M1088.17 440.861L1081.69 429.389C1080.68 427.605 1082.08 424.126 1085.4 422.255C1088.05 420.759 1090.94 417.782 1093.39 422.115L1099.86 433.587C1102.31 437.92 1099.46 441.21 1096.4 442.937C1093.34 444.664 1089.32 442.9 1088.17 440.861Z" fill="#EEEEEE"/>
</g>
<g filter="url(#filter16_i_7178_181170)">
<path d="M1089.28 414.85L1095.1 425.155C1093.11 424.6 1091.41 424.019 1087.75 426.084C1084.09 428.149 1082.55 430.899 1083.41 432.429L1077.45 421.869C1072.77 413.578 1084.97 407.201 1089.28 414.85Z" fill="#1BC9D7"/>
<path d="M1089.28 414.85L1095.1 425.155C1093.11 424.6 1091.41 424.019 1087.75 426.084C1084.09 428.149 1082.55 430.899 1083.41 432.429L1077.45 421.869C1072.77 413.578 1084.97 407.201 1089.28 414.85Z" fill="url(#paint6_linear_7178_181170)" fill-opacity="0.2"/>
<path d="M1089.28 414.85L1095.1 425.155C1093.11 424.6 1091.41 424.019 1087.75 426.084C1084.09 428.149 1082.55 430.899 1083.41 432.429L1077.45 421.869C1072.77 413.578 1084.97 407.201 1089.28 414.85Z" fill="url(#paint7_linear_7178_181170)" fill-opacity="0.2"/>
</g>
<g style="mix-blend-mode:soft-light" filter="url(#filter17_f_7178_181170)">
<rect x="1093.08" y="433.792" width="21.8043" height="1.3962" rx="0.698099" transform="rotate(-119.307 1093.08 433.792)" fill="white" fill-opacity="0.97"/>
</g>
<g filter="url(#filter18_f_7178_181170)">
<rect x="1091.35" y="439.176" width="1.93991" height="1.3962" rx="0.698099" transform="rotate(-119.307 1091.35 439.176)" fill="white"/>
</g>
<g filter="url(#filter19_f_7178_181170)">
<rect x="1095.11" y="439.456" width="1.93991" height="1.3962" rx="0.698099" transform="rotate(-119.307 1095.11 439.456)" fill="white"/>
</g>
<g filter="url(#filter20_iii_7178_181170)">
<path d="M793.599 468.86L799.448 458.411C800.358 456.786 803.72 456.228 806.738 457.917C809.153 459.269 812.831 460.108 810.621 464.055L804.773 474.504C802.563 478.451 798.663 477.793 795.876 476.233C793.09 474.673 792.56 470.717 793.599 468.86Z" fill="#EEEEEE"/>
</g>
<g filter="url(#filter21_i_7178_181170)">
<path d="M814.325 457.437L809.072 466.823C808.561 465.013 808.209 463.42 804.878 461.555C801.546 459.69 798.678 459.786 797.899 461.179L803.282 451.561C807.51 444.009 818.225 450.471 814.325 457.437Z" fill="#1BC9D7"/>
<path d="M814.325 457.437L809.072 466.823C808.561 465.013 808.209 463.42 804.878 461.555C801.546 459.69 798.678 459.786 797.899 461.179L803.282 451.561C807.51 444.009 818.225 450.471 814.325 457.437Z" fill="url(#paint8_linear_7178_181170)" fill-opacity="0.2"/>
<path d="M814.325 457.437L809.072 466.823C808.561 465.013 808.209 463.42 804.878 461.555C801.546 459.69 798.678 459.786 797.899 461.179L803.282 451.561C807.51 444.009 818.225 450.471 814.325 457.437Z" fill="url(#paint9_linear_7178_181170)" fill-opacity="0.2"/>
</g>
<g style="mix-blend-mode:soft-light" filter="url(#filter22_f_7178_181170)">
<rect x="801.409" y="469.333" width="19.8196" height="1.26911" rx="0.634553" transform="rotate(-60.6218 801.409 469.333)" fill="white" fill-opacity="0.97"/>
</g>
<g filter="url(#filter23_f_7178_181170)">
<rect x="796.411" y="470.533" width="1.76333" height="1.26911" rx="0.634553" transform="rotate(-60.6218 796.411 470.533)" fill="white"/>
</g>
<g filter="url(#filter24_f_7178_181170)">
<rect x="797.972" y="473.589" width="1.76333" height="1.26911" rx="0.634553" transform="rotate(-60.6218 797.972 473.589)" fill="white"/>
</g>
<g filter="url(#filter25_iii_7178_181170)">
<path d="M257.326 27.1579L269.308 14.7442C271.172 12.8131 276.061 13.269 279.647 16.7306C282.516 19.4999 287.333 22.0179 282.806 26.7075L270.824 39.1213C266.297 43.811 261.103 41.4624 257.793 38.267C254.483 35.0717 255.195 29.3648 257.326 27.1579Z" fill="#EEEEEE"/>
</g>
<g filter="url(#filter26_i_7178_181170)">
<path d="M290.395 18.8459L279.631 29.997C279.583 27.2863 279.678 24.9388 275.72 21.1181C271.762 17.2974 267.731 16.3785 266.133 18.0337L277.163 6.60667C285.824 -2.36578 298.384 10.5693 290.395 18.8459Z" fill="#1BC9D7"/>
<path d="M290.395 18.8459L279.631 29.997C279.583 27.2863 279.678 24.9388 275.72 21.1181C271.762 17.2974 267.731 16.3785 266.133 18.0337L277.163 6.60667C285.824 -2.36578 298.384 10.5693 290.395 18.8459Z" fill="url(#paint10_linear_7178_181170)" fill-opacity="0.2"/>
<path d="M290.395 18.8459L279.631 29.997C279.583 27.2863 279.678 24.9388 275.72 21.1181C271.762 17.2974 267.731 16.3785 266.133 18.0337L277.163 6.60667C285.824 -2.36578 298.384 10.5693 290.395 18.8459Z" fill="url(#paint11_linear_7178_181170)" fill-opacity="0.2"/>
</g>
<g style="mix-blend-mode:soft-light" filter="url(#filter27_f_7178_181170)">
<rect x="268.033" y="30.6831" width="28.5574" height="1.82861" rx="0.914307" transform="rotate(-45.8721 268.033 30.6831)" fill="white" fill-opacity="0.97"/>
</g>
<g filter="url(#filter28_f_7178_181170)">
<rect x="260.629" y="30.5215" width="2.54072" height="1.82861" rx="0.914307" transform="rotate(-45.8721 260.629 30.5215)" fill="white"/>
</g>
<g filter="url(#filter29_f_7178_181170)">
<rect x="261.684" y="35.3525" width="2.54072" height="1.82861" rx="0.914307" transform="rotate(-45.8721 261.684 35.3525)" fill="white"/>
</g>
<defs>
<filter id="filter0_iii_7178_181170" x="1022.27" y="50.1793" width="53.3581" height="41.9564" filterUnits="userSpaceOnUse" color-interpolation-filters="sRGB">
<feFlood flood-opacity="0" result="BackgroundImageFix"/>
<feBlend mode="normal" in="SourceGraphic" in2="BackgroundImageFix" result="shape"/>
<feColorMatrix in="SourceAlpha" type="matrix" values="0 0 0 0 0 0 0 0 0 0 0 0 0 0 0 0 0 0 127 0" result="hardAlpha"/>
<feOffset dx="-1.4404" dy="-4.3212"/>
<feGaussianBlur stdDeviation="2.1606"/>
<feComposite in2="hardAlpha" operator="arithmetic" k2="-1" k3="1"/>
<feColorMatrix type="matrix" values="0 0 0 0 0 0 0 0 0 0 0 0 0 0 0 0 0 0 0.12 0"/>
<feBlend mode="normal" in2="shape" result="effect1_innerShadow_7178_181170"/>
<feColorMatrix in="SourceAlpha" type="matrix" values="0 0 0 0 0 0 0 0 0 0 0 0 0 0 0 0 0 0 127 0" result="hardAlpha"/>
<feOffset dx="-1.4404" dy="1.4404"/>
<feGaussianBlur stdDeviation="2.1606"/>
<feComposite in2="hardAlpha" operator="arithmetic" k2="-1" k3="1"/>
<feColorMatrix type="matrix" values="0 0 0 0 0 0 0 0 0 0 0 0 0 0 0 0 0 0 0.02 0"/>
<feBlend mode="normal" in2="effect1_innerShadow_7178_181170" result="effect2_innerShadow_7178_181170"/>
<feColorMatrix in="SourceAlpha" type="matrix" values="0 0 0 0 0 0 0 0 0 0 0 0 0 0 0 0 0 0 127 0" result="hardAlpha"/>
<feOffset dx="-36.01" dy="-5.7616"/>
<feGaussianBlur stdDeviation="2.1606"/>
<feComposite in2="hardAlpha" operator="arithmetic" k2="-1" k3="1"/>
<feColorMatrix type="matrix" values="0 0 0 0 0 0 0 0 0 0 0 0 0 0 0 0 0 0 0.05 0"/>
<feBlend mode="normal" in2="effect2_innerShadow_7178_181170" result="effect3_innerShadow_7178_181170"/>
</filter>
<filter id="filter1_i_7178_181170" x="1048.92" y="40.6975" width="46.0633" height="42.4104" filterUnits="userSpaceOnUse" color-interpolation-filters="sRGB">
<feFlood flood-opacity="0" result="BackgroundImageFix"/>
<feBlend mode="normal" in="SourceGraphic" in2="BackgroundImageFix" result="shape"/>
<feColorMatrix in="SourceAlpha" type="matrix" values="0 0 0 0 0 0 0 0 0 0 0 0 0 0 0 0 0 0 127 0" result="hardAlpha"/>
<feOffset dx="-3.81155" dy="-8.8147"/>
<feGaussianBlur stdDeviation="3.55113"/>
<feComposite in2="hardAlpha" operator="arithmetic" k2="-1" k3="1"/>
<feColorMatrix type="matrix" values="0 0 0 0 0 0 0 0 0 0 0 0 0 0 0 0 0 0 0.2 0"/>
<feBlend mode="normal" in2="shape" result="effect1_innerShadow_7178_181170"/>
</filter>
<filter id="filter2_f_7178_181170" x="1043.94" y="58.4269" width="48.2319" height="23.1203" filterUnits="userSpaceOnUse" color-interpolation-filters="sRGB">
<feFlood flood-opacity="0" result="BackgroundImageFix"/>
<feBlend mode="normal" in="SourceGraphic" in2="BackgroundImageFix" result="shape"/>
<feGaussianBlur stdDeviation="1.57828" result="effect1_foregroundBlur_7178_181170"/>
</filter>
<filter id="filter3_f_7178_181170" x="1034.52" y="67.5095" width="8.61592" height="7.94676" filterUnits="userSpaceOnUse" color-interpolation-filters="sRGB">
<feFlood flood-opacity="0" result="BackgroundImageFix"/>
<feBlend mode="normal" in="SourceGraphic" in2="BackgroundImageFix" result="shape"/>
<feGaussianBlur stdDeviation="1.18371" result="effect1_foregroundBlur_7178_181170"/>
</filter>
<filter id="filter4_f_7178_181170" x="1032.68" y="74.9627" width="8.61592" height="7.94676" filterUnits="userSpaceOnUse" color-interpolation-filters="sRGB">
<feFlood flood-opacity="0" result="BackgroundImageFix"/>
<feBlend mode="normal" in="SourceGraphic" in2="BackgroundImageFix" result="shape"/>
<feGaussianBlur stdDeviation="1.18371" result="effect1_foregroundBlur_7178_181170"/>
</filter>
<filter id="filter5_iii_7178_181170" x="136.078" y="469.289" width="30.5851" height="33.9183" filterUnits="userSpaceOnUse" color-interpolation-filters="sRGB">
<feFlood flood-opacity="0" result="BackgroundImageFix"/>
<feBlend mode="normal" in="SourceGraphic" in2="BackgroundImageFix" result="shape"/>
<feColorMatrix in="SourceAlpha" type="matrix" values="0 0 0 0 0 0 0 0 0 0 0 0 0 0 0 0 0 0 127 0" result="hardAlpha"/>
<feOffset dx="-1.4404" dy="-4.3212"/>
<feGaussianBlur stdDeviation="2.1606"/>
<feComposite in2="hardAlpha" operator="arithmetic" k2="-1" k3="1"/>
<feColorMatrix type="matrix" values="0 0 0 0 0 0 0 0 0 0 0 0 0 0 0 0 0 0 0.12 0"/>
<feBlend mode="normal" in2="shape" result="effect1_innerShadow_7178_181170"/>
<feColorMatrix in="SourceAlpha" type="matrix" values="0 0 0 0 0 0 0 0 0 0 0 0 0 0 0 0 0 0 127 0" result="hardAlpha"/>
<feOffset dx="-1.4404" dy="1.4404"/>
<feGaussianBlur stdDeviation="2.1606"/>
<feComposite in2="hardAlpha" operator="arithmetic" k2="-1" k3="1"/>
<feColorMatrix type="matrix" values="0 0 0 0 0 0 0 0 0 0 0 0 0 0 0 0 0 0 0.02 0"/>
<feBlend mode="normal" in2="effect1_innerShadow_7178_181170" result="effect2_innerShadow_7178_181170"/>
<feColorMatrix in="SourceAlpha" type="matrix" values="0 0 0 0 0 0 0 0 0 0 0 0 0 0 0 0 0 0 127 0" result="hardAlpha"/>
<feOffset dx="-36.01" dy="-5.7616"/>
<feGaussianBlur stdDeviation="2.1606"/>
<feComposite in2="hardAlpha" operator="arithmetic" k2="-1" k3="1"/>
<feColorMatrix type="matrix" values="0 0 0 0 0 0 0 0 0 0 0 0 0 0 0 0 0 0 0.05 0"/>
<feBlend mode="normal" in2="effect2_innerShadow_7178_181170" result="effect3_innerShadow_7178_181170"/>
</filter>
<filter id="filter6_i_7178_181170" x="144.322" y="456.463" width="30.6236" height="33.5344" filterUnits="userSpaceOnUse" color-interpolation-filters="sRGB">
<feFlood flood-opacity="0" result="BackgroundImageFix"/>
<feBlend mode="normal" in="SourceGraphic" in2="BackgroundImageFix" result="shape"/>
<feColorMatrix in="SourceAlpha" type="matrix" values="0 0 0 0 0 0 0 0 0 0 0 0 0 0 0 0 0 0 127 0" result="hardAlpha"/>
<feOffset dx="-3.81155" dy="-8.8147"/>
<feGaussianBlur stdDeviation="3.55113"/>
<feComposite in2="hardAlpha" operator="arithmetic" k2="-1" k3="1"/>
<feColorMatrix type="matrix" values="0 0 0 0 0 0 0 0 0 0 0 0 0 0 0 0 0 0 0.2 0"/>
<feBlend mode="normal" in2="shape" result="effect1_innerShadow_7178_181170"/>
</filter>
<filter id="filter7_f_7178_181170" x="147.255" y="467.407" width="26.752" height="27.3273" filterUnits="userSpaceOnUse" color-interpolation-filters="sRGB">
<feFlood flood-opacity="0" result="BackgroundImageFix"/>
<feBlend mode="normal" in="SourceGraphic" in2="BackgroundImageFix" result="shape"/>
<feGaussianBlur stdDeviation="1.57828" result="effect1_foregroundBlur_7178_181170"/>
</filter>
<filter id="filter8_f_7178_181170" x="140.64" y="486.709" width="7.05928" height="7.07469" filterUnits="userSpaceOnUse" color-interpolation-filters="sRGB">
<feFlood flood-opacity="0" result="BackgroundImageFix"/>
<feBlend mode="normal" in="SourceGraphic" in2="BackgroundImageFix" result="shape"/>
<feGaussianBlur stdDeviation="1.18371" result="effect1_foregroundBlur_7178_181170"/>
</filter>
<filter id="filter9_f_7178_181170" x="141.695" y="491.54" width="7.05928" height="7.07469" filterUnits="userSpaceOnUse" color-interpolation-filters="sRGB">
<feFlood flood-opacity="0" result="BackgroundImageFix"/>
<feBlend mode="normal" in="SourceGraphic" in2="BackgroundImageFix" result="shape"/>
<feGaussianBlur stdDeviation="1.18371" result="effect1_foregroundBlur_7178_181170"/>
</filter>
<filter id="filter10_iii_7178_181170" x="8.21384" y="97.901" width="26.8686" height="36.9047" filterUnits="userSpaceOnUse" color-interpolation-filters="sRGB">
<feFlood flood-opacity="0" result="BackgroundImageFix"/>
<feBlend mode="normal" in="SourceGraphic" in2="BackgroundImageFix" result="shape"/>
<feColorMatrix in="SourceAlpha" type="matrix" values="0 0 0 0 0 0 0 0 0 0 0 0 0 0 0 0 0 0 127 0" result="hardAlpha"/>
<feOffset dx="-1.4404" dy="-4.3212"/>
<feGaussianBlur stdDeviation="2.1606"/>
<feComposite in2="hardAlpha" operator="arithmetic" k2="-1" k3="1"/>
<feColorMatrix type="matrix" values="0 0 0 0 0 0 0 0 0 0 0 0 0 0 0 0 0 0 0.12 0"/>
<feBlend mode="normal" in2="shape" result="effect1_innerShadow_7178_181170"/>
<feColorMatrix in="SourceAlpha" type="matrix" values="0 0 0 0 0 0 0 0 0 0 0 0 0 0 0 0 0 0 127 0" result="hardAlpha"/>
<feOffset dx="-1.4404" dy="1.4404"/>
<feGaussianBlur stdDeviation="2.1606"/>
<feComposite in2="hardAlpha" operator="arithmetic" k2="-1" k3="1"/>
<feColorMatrix type="matrix" values="0 0 0 0 0 0 0 0 0 0 0 0 0 0 0 0 0 0 0.02 0"/>
<feBlend mode="normal" in2="effect1_innerShadow_7178_181170" result="effect2_innerShadow_7178_181170"/>
<feColorMatrix in="SourceAlpha" type="matrix" values="0 0 0 0 0 0 0 0 0 0 0 0 0 0 0 0 0 0 127 0" result="hardAlpha"/>
<feOffset dx="-36.01" dy="-5.7616"/>
<feGaussianBlur stdDeviation="2.1606"/>
<feComposite in2="hardAlpha" operator="arithmetic" k2="-1" k3="1"/>
<feColorMatrix type="matrix" values="0 0 0 0 0 0 0 0 0 0 0 0 0 0 0 0 0 0 0.05 0"/>
<feBlend mode="normal" in2="effect2_innerShadow_7178_181170" result="effect3_innerShadow_7178_181170"/>
</filter>
<filter id="filter11_i_7178_181170" x="-0.67538" y="84.0652" width="28.313" height="34.6198" filterUnits="userSpaceOnUse" color-interpolation-filters="sRGB">
<feFlood flood-opacity="0" result="BackgroundImageFix"/>
<feBlend mode="normal" in="SourceGraphic" in2="BackgroundImageFix" result="shape"/>
<feColorMatrix in="SourceAlpha" type="matrix" values="0 0 0 0 0 0 0 0 0 0 0 0 0 0 0 0 0 0 127 0" result="hardAlpha"/>
<feOffset dx="-3.81155" dy="-8.8147"/>
<feGaussianBlur stdDeviation="3.55113"/>
<feComposite in2="hardAlpha" operator="arithmetic" k2="-1" k3="1"/>
<feColorMatrix type="matrix" values="0 0 0 0 0 0 0 0 0 0 0 0 0 0 0 0 0 0 0.2 0"/>
<feBlend mode="normal" in2="shape" result="effect1_innerShadow_7178_181170"/>
</filter>
<filter id="filter12_f_7178_181170" x="8.18377" y="91.8469" width="21.2255" height="31.4494" filterUnits="userSpaceOnUse" color-interpolation-filters="sRGB">
<feFlood flood-opacity="0" result="BackgroundImageFix"/>
<feBlend mode="normal" in="SourceGraphic" in2="BackgroundImageFix" result="shape"/>
<feGaussianBlur stdDeviation="1.57828" result="effect1_foregroundBlur_7178_181170"/>
</filter>
<filter id="filter13_f_7178_181170" x="19.4419" y="122.374" width="6.91233" height="7.18455" filterUnits="userSpaceOnUse" color-interpolation-filters="sRGB">
<feFlood flood-opacity="0" result="BackgroundImageFix"/>
<feBlend mode="normal" in="SourceGraphic" in2="BackgroundImageFix" result="shape"/>
<feGaussianBlur stdDeviation="1.18371" result="effect1_foregroundBlur_7178_181170"/>
</filter>
<filter id="filter14_f_7178_181170" x="24.3731" y="122.74" width="6.91233" height="7.18455" filterUnits="userSpaceOnUse" color-interpolation-filters="sRGB">
<feFlood flood-opacity="0" result="BackgroundImageFix"/>
<feBlend mode="normal" in="SourceGraphic" in2="BackgroundImageFix" result="shape"/>
<feGaussianBlur stdDeviation="1.18371" result="effect1_foregroundBlur_7178_181170"/>
</filter>
<filter id="filter15_iii_7178_181170" x="1079.93" y="415.538" width="20.8556" height="29.5404" filterUnits="userSpaceOnUse" color-interpolation-filters="sRGB">
<feFlood flood-opacity="0" result="BackgroundImageFix"/>
<feBlend mode="normal" in="SourceGraphic" in2="BackgroundImageFix" result="shape"/>
<feColorMatrix in="SourceAlpha" type="matrix" values="0 0 0 0 0 0 0 0 0 0 0 0 0 0 0 0 0 0 127 0" result="hardAlpha"/>
<feOffset dx="-1.4404" dy="-4.3212"/>
<feGaussianBlur stdDeviation="2.1606"/>
<feComposite in2="hardAlpha" operator="arithmetic" k2="-1" k3="1"/>
<feColorMatrix type="matrix" values="0 0 0 0 0 0 0 0 0 0 0 0 0 0 0 0 0 0 0.12 0"/>
<feBlend mode="normal" in2="shape" result="effect1_innerShadow_7178_181170"/>
<feColorMatrix in="SourceAlpha" type="matrix" values="0 0 0 0 0 0 0 0 0 0 0 0 0 0 0 0 0 0 127 0" result="hardAlpha"/>
<feOffset dx="-1.4404" dy="1.4404"/>
<feGaussianBlur stdDeviation="2.1606"/>
<feComposite in2="hardAlpha" operator="arithmetic" k2="-1" k3="1"/>
<feColorMatrix type="matrix" values="0 0 0 0 0 0 0 0 0 0 0 0 0 0 0 0 0 0 0.02 0"/>
<feBlend mode="normal" in2="effect1_innerShadow_7178_181170" result="effect2_innerShadow_7178_181170"/>
<feColorMatrix in="SourceAlpha" type="matrix" values="0 0 0 0 0 0 0 0 0 0 0 0 0 0 0 0 0 0 127 0" result="hardAlpha"/>
<feOffset dx="-36.01" dy="-5.7616"/>
<feGaussianBlur stdDeviation="2.1606"/>
<feComposite in2="hardAlpha" operator="arithmetic" k2="-1" k3="1"/>
<feColorMatrix type="matrix" values="0 0 0 0 0 0 0 0 0 0 0 0 0 0 0 0 0 0 0.05 0"/>
<feBlend mode="normal" in2="effect2_innerShadow_7178_181170" result="effect3_innerShadow_7178_181170"/>
</filter>
<filter id="filter16_i_7178_181170" x="1072.58" y="404.316" width="22.5191" height="28.1125" filterUnits="userSpaceOnUse" color-interpolation-filters="sRGB">
<feFlood flood-opacity="0" result="BackgroundImageFix"/>
<feBlend mode="normal" in="SourceGraphic" in2="BackgroundImageFix" result="shape"/>
<feColorMatrix in="SourceAlpha" type="matrix" values="0 0 0 0 0 0 0 0 0 0 0 0 0 0 0 0 0 0 127 0" result="hardAlpha"/>
<feOffset dx="-3.81155" dy="-8.8147"/>
<feGaussianBlur stdDeviation="3.55113"/>
<feComposite in2="hardAlpha" operator="arithmetic" k2="-1" k3="1"/>
<feColorMatrix type="matrix" values="0 0 0 0 0 0 0 0 0 0 0 0 0 0 0 0 0 0 0.2 0"/>
<feBlend mode="normal" in2="shape" result="effect1_innerShadow_7178_181170"/>
</filter>
<filter id="filter17_f_7178_181170" x="1079.5" y="411.191" width="17.6991" height="25.5055" filterUnits="userSpaceOnUse" color-interpolation-filters="sRGB">
<feFlood flood-opacity="0" result="BackgroundImageFix"/>
<feBlend mode="normal" in="SourceGraphic" in2="BackgroundImageFix" result="shape"/>
<feGaussianBlur stdDeviation="1.57828" result="effect1_foregroundBlur_7178_181170"/>
</filter>
<filter id="filter18_f_7178_181170" x="1088.28" y="434.685" width="6.39744" height="6.60545" filterUnits="userSpaceOnUse" color-interpolation-filters="sRGB">
<feFlood flood-opacity="0" result="BackgroundImageFix"/>
<feBlend mode="normal" in="SourceGraphic" in2="BackgroundImageFix" result="shape"/>
<feGaussianBlur stdDeviation="1.18371" result="effect1_foregroundBlur_7178_181170"/>
</filter>
<filter id="filter19_f_7178_181170" x="1092.05" y="434.965" width="6.39744" height="6.60545" filterUnits="userSpaceOnUse" color-interpolation-filters="sRGB">
<feFlood flood-opacity="0" result="BackgroundImageFix"/>
<feBlend mode="normal" in="SourceGraphic" in2="BackgroundImageFix" result="shape"/>
<feGaussianBlur stdDeviation="1.18371" result="effect1_foregroundBlur_7178_181170"/>
</filter>
<filter id="filter20_iii_7178_181170" x="791.665" y="452.569" width="19.636" height="26.3251" filterUnits="userSpaceOnUse" color-interpolation-filters="sRGB">
<feFlood flood-opacity="0" result="BackgroundImageFix"/>
<feBlend mode="normal" in="SourceGraphic" in2="BackgroundImageFix" result="shape"/>
<feColorMatrix in="SourceAlpha" type="matrix" values="0 0 0 0 0 0 0 0 0 0 0 0 0 0 0 0 0 0 127 0" result="hardAlpha"/>
<feOffset dx="-1.4404" dy="-4.3212"/>
<feGaussianBlur stdDeviation="2.1606"/>
<feComposite in2="hardAlpha" operator="arithmetic" k2="-1" k3="1"/>
<feColorMatrix type="matrix" values="0 0 0 0 0 0 0 0 0 0 0 0 0 0 0 0 0 0 0.12 0"/>
<feBlend mode="normal" in2="shape" result="effect1_innerShadow_7178_181170"/>
<feColorMatrix in="SourceAlpha" type="matrix" values="0 0 0 0 0 0 0 0 0 0 0 0 0 0 0 0 0 0 127 0" result="hardAlpha"/>
<feOffset dx="-1.4404" dy="1.4404"/>
<feGaussianBlur stdDeviation="2.1606"/>
<feComposite in2="hardAlpha" operator="arithmetic" k2="-1" k3="1"/>
<feColorMatrix type="matrix" values="0 0 0 0 0 0 0 0 0 0 0 0 0 0 0 0 0 0 0.02 0"/>
<feBlend mode="normal" in2="effect1_innerShadow_7178_181170" result="effect2_innerShadow_7178_181170"/>
<feColorMatrix in="SourceAlpha" type="matrix" values="0 0 0 0 0 0 0 0 0 0 0 0 0 0 0 0 0 0 127 0" result="hardAlpha"/>
<feOffset dx="-36.01" dy="-5.7616"/>
<feGaussianBlur stdDeviation="2.1606"/>
<feComposite in2="hardAlpha" operator="arithmetic" k2="-1" k3="1"/>
<feColorMatrix type="matrix" values="0 0 0 0 0 0 0 0 0 0 0 0 0 0 0 0 0 0 0.05 0"/>
<feBlend mode="normal" in2="effect2_innerShadow_7178_181170" result="effect3_innerShadow_7178_181170"/>
</filter>
<filter id="filter21_i_7178_181170" x="794.087" y="441.071" width="21.078" height="25.7522" filterUnits="userSpaceOnUse" color-interpolation-filters="sRGB">
<feFlood flood-opacity="0" result="BackgroundImageFix"/>
<feBlend mode="normal" in="SourceGraphic" in2="BackgroundImageFix" result="shape"/>
<feColorMatrix in="SourceAlpha" type="matrix" values="0 0 0 0 0 0 0 0 0 0 0 0 0 0 0 0 0 0 127 0" result="hardAlpha"/>
<feOffset dx="-3.81155" dy="-8.8147"/>
<feGaussianBlur stdDeviation="3.55113"/>
<feComposite in2="hardAlpha" operator="arithmetic" k2="-1" k3="1"/>
<feColorMatrix type="matrix" values="0 0 0 0 0 0 0 0 0 0 0 0 0 0 0 0 0 0 0.2 0"/>
<feBlend mode="normal" in2="shape" result="effect1_innerShadow_7178_181170"/>
</filter>
<filter id="filter22_f_7178_181170" x="798.482" y="449.136" width="16.6828" height="23.7472" filterUnits="userSpaceOnUse" color-interpolation-filters="sRGB">
<feFlood flood-opacity="0" result="BackgroundImageFix"/>
<feBlend mode="normal" in="SourceGraphic" in2="BackgroundImageFix" result="shape"/>
<feGaussianBlur stdDeviation="1.57828" result="effect1_foregroundBlur_7178_181170"/>
</filter>
<filter id="filter23_f_7178_181170" x="794.273" y="466.859" width="6.24662" height="6.43504" filterUnits="userSpaceOnUse" color-interpolation-filters="sRGB">
<feFlood flood-opacity="0" result="BackgroundImageFix"/>
<feBlend mode="normal" in="SourceGraphic" in2="BackgroundImageFix" result="shape"/>
<feGaussianBlur stdDeviation="1.18371" result="effect1_foregroundBlur_7178_181170"/>
</filter>
<filter id="filter24_f_7178_181170" x="795.834" y="469.914" width="6.24662" height="6.43504" filterUnits="userSpaceOnUse" color-interpolation-filters="sRGB">
<feFlood flood-opacity="0" result="BackgroundImageFix"/>
<feBlend mode="normal" in="SourceGraphic" in2="BackgroundImageFix" result="shape"/>
<feGaussianBlur stdDeviation="1.18371" result="effect1_foregroundBlur_7178_181170"/>
</filter>
<filter id="filter25_iii_7178_181170" x="254.078" y="9.28915" width="30.5851" height="33.9183" filterUnits="userSpaceOnUse" color-interpolation-filters="sRGB">
<feFlood flood-opacity="0" result="BackgroundImageFix"/>
<feBlend mode="normal" in="SourceGraphic" in2="BackgroundImageFix" result="shape"/>
<feColorMatrix in="SourceAlpha" type="matrix" values="0 0 0 0 0 0 0 0 0 0 0 0 0 0 0 0 0 0 127 0" result="hardAlpha"/>
<feOffset dx="-1.4404" dy="-4.3212"/>
<feGaussianBlur stdDeviation="2.1606"/>
<feComposite in2="hardAlpha" operator="arithmetic" k2="-1" k3="1"/>
<feColorMatrix type="matrix" values="0 0 0 0 0 0 0 0 0 0 0 0 0 0 0 0 0 0 0.12 0"/>
<feBlend mode="normal" in2="shape" result="effect1_innerShadow_7178_181170"/>
<feColorMatrix in="SourceAlpha" type="matrix" values="0 0 0 0 0 0 0 0 0 0 0 0 0 0 0 0 0 0 127 0" result="hardAlpha"/>
<feOffset dx="-1.4404" dy="1.4404"/>
<feGaussianBlur stdDeviation="2.1606"/>
<feComposite in2="hardAlpha" operator="arithmetic" k2="-1" k3="1"/>
<feColorMatrix type="matrix" values="0 0 0 0 0 0 0 0 0 0 0 0 0 0 0 0 0 0 0.02 0"/>
<feBlend mode="normal" in2="effect1_innerShadow_7178_181170" result="effect2_innerShadow_7178_181170"/>
<feColorMatrix in="SourceAlpha" type="matrix" values="0 0 0 0 0 0 0 0 0 0 0 0 0 0 0 0 0 0 127 0" result="hardAlpha"/>
<feOffset dx="-36.01" dy="-5.7616"/>
<feGaussianBlur stdDeviation="2.1606"/>
<feComposite in2="hardAlpha" operator="arithmetic" k2="-1" k3="1"/>
<feColorMatrix type="matrix" values="0 0 0 0 0 0 0 0 0 0 0 0 0 0 0 0 0 0 0.05 0"/>
<feBlend mode="normal" in2="effect2_innerShadow_7178_181170" result="effect3_innerShadow_7178_181170"/>
</filter>
<filter id="filter26_i_7178_181170" x="262.322" y="-3.53733" width="30.6236" height="33.5344" filterUnits="userSpaceOnUse" color-interpolation-filters="sRGB">
<feFlood flood-opacity="0" result="BackgroundImageFix"/>
<feBlend mode="normal" in="SourceGraphic" in2="BackgroundImageFix" result="shape"/>
<feColorMatrix in="SourceAlpha" type="matrix" values="0 0 0 0 0 0 0 0 0 0 0 0 0 0 0 0 0 0 127 0" result="hardAlpha"/>
<feOffset dx="-3.81155" dy="-8.8147"/>
<feGaussianBlur stdDeviation="3.55113"/>
<feComposite in2="hardAlpha" operator="arithmetic" k2="-1" k3="1"/>
<feColorMatrix type="matrix" values="0 0 0 0 0 0 0 0 0 0 0 0 0 0 0 0 0 0 0.2 0"/>
<feBlend mode="normal" in2="shape" result="effect1_innerShadow_7178_181170"/>
</filter>
<filter id="filter27_f_7178_181170" x="265.255" y="7.40691" width="26.752" height="27.3273" filterUnits="userSpaceOnUse" color-interpolation-filters="sRGB">
<feFlood flood-opacity="0" result="BackgroundImageFix"/>
<feBlend mode="normal" in="SourceGraphic" in2="BackgroundImageFix" result="shape"/>
<feGaussianBlur stdDeviation="1.57828" result="effect1_foregroundBlur_7178_181170"/>
</filter>
<filter id="filter28_f_7178_181170" x="258.64" y="26.7087" width="7.05928" height="7.07469" filterUnits="userSpaceOnUse" color-interpolation-filters="sRGB">
<feFlood flood-opacity="0" result="BackgroundImageFix"/>
<feBlend mode="normal" in="SourceGraphic" in2="BackgroundImageFix" result="shape"/>
<feGaussianBlur stdDeviation="1.18371" result="effect1_foregroundBlur_7178_181170"/>
</filter>
<filter id="filter29_f_7178_181170" x="259.695" y="31.5398" width="7.05928" height="7.07469" filterUnits="userSpaceOnUse" color-interpolation-filters="sRGB">
<feFlood flood-opacity="0" result="BackgroundImageFix"/>
<feBlend mode="normal" in="SourceGraphic" in2="BackgroundImageFix" result="shape"/>
<feGaussianBlur stdDeviation="1.18371" result="effect1_foregroundBlur_7178_181170"/>
</filter>
<linearGradient id="paint0_linear_7178_181170" x1="1070.09" y1="48.9024" x2="1072.86" y2="56.5821" gradientUnits="userSpaceOnUse">
<stop/>
<stop offset="1" stop-opacity="0"/>
</linearGradient>
<linearGradient id="paint1_linear_7178_181170" x1="1080.19" y1="76.9498" x2="1077.67" y2="69.9379" gradientUnits="userSpaceOnUse">
<stop stop-color="white"/>
<stop offset="1" stop-opacity="0"/>
</linearGradient>
<linearGradient id="paint2_linear_7178_181170" x1="155.812" y1="468.307" x2="159.594" y2="471.958" gradientUnits="userSpaceOnUse">
<stop/>
<stop offset="1" stop-opacity="0"/>
</linearGradient>
<linearGradient id="paint3_linear_7178_181170" x1="169.626" y1="481.642" x2="166.173" y2="478.308" gradientUnits="userSpaceOnUse">
<stop stop-color="white"/>
<stop offset="1" stop-opacity="0"/>
</linearGradient>
<linearGradient id="paint4_linear_7178_181170" x1="5.18847" y1="108.552" x2="9.76652" y2="105.968" gradientUnits="userSpaceOnUse">
<stop/>
<stop offset="1" stop-opacity="0"/>
</linearGradient>
<linearGradient id="paint5_linear_7178_181170" x1="21.9083" y1="99.1128" x2="17.7284" y2="101.473" gradientUnits="userSpaceOnUse">
<stop stop-color="white"/>
<stop offset="1" stop-opacity="0"/>
</linearGradient>
<linearGradient id="paint6_linear_7178_181170" x1="1077.96" y1="424.692" x2="1081.46" y2="422.719" gradientUnits="userSpaceOnUse">
<stop/>
<stop offset="1" stop-opacity="0"/>
</linearGradient>
<linearGradient id="paint7_linear_7178_181170" x1="1090.73" y1="417.485" x2="1087.54" y2="419.287" gradientUnits="userSpaceOnUse">
<stop stop-color="white"/>
<stop offset="1" stop-opacity="0"/>
</linearGradient>
<linearGradient id="paint8_linear_7178_181170" x1="801.333" y1="453.294" x2="804.517" y2="455.076" gradientUnits="userSpaceOnUse">
<stop/>
<stop offset="1" stop-opacity="0"/>
</linearGradient>
<linearGradient id="paint9_linear_7178_181170" x1="812.961" y1="459.803" x2="810.054" y2="458.176" gradientUnits="userSpaceOnUse">
<stop stop-color="white"/>
<stop offset="1" stop-opacity="0"/>
</linearGradient>
<linearGradient id="paint10_linear_7178_181170" x1="273.812" y1="8.30697" x2="277.594" y2="11.9581" gradientUnits="userSpaceOnUse">
<stop/>
<stop offset="1" stop-opacity="0"/>
</linearGradient>
<linearGradient id="paint11_linear_7178_181170" x1="287.626" y1="21.6417" x2="284.173" y2="18.308" gradientUnits="userSpaceOnUse">
<stop stop-color="white"/>
<stop offset="1" stop-opacity="0"/>
</linearGradient>
</defs>
</svg>
