<svg width="46" height="46" viewBox="0 0 46 46" fill="none" xmlns="http://www.w3.org/2000/svg">
<g clip-path="url(#clip0_14267_194685)">
<path d="M23 0C10.35 0 0 10.35 0 23C0 35.65 10.35 46 23 46C35.65 46 46 35.65 46 23C46 10.35 35.65 0 23 0ZM23 43.1837C12.88 43.1837 2.81633 33.12 2.81633 23C2.81633 12.88 12.88 2.81633 23 2.81633C33.12 2.81633 43.1837 12.88 43.1837 23C43.1837 33.12 33.12 43.1837 23 43.1837Z" fill="url(#paint0_linear_14267_194685)"/>
<path d="M23.4679 12.8843C23.4679 12.1198 22.8481 11.5 22.0835 11.5C21.319 11.5 20.6992 12.1198 20.6992 12.8843V23.6236C20.6992 24.6654 21.2397 25.6326 22.1269 26.1786L31.6041 32.0107C32.2015 32.3783 32.9807 32.2293 33.4003 31.6672C33.8681 31.0404 33.7097 30.1488 33.0545 29.7216L24.6637 24.2492C23.9177 23.7627 23.4679 22.9324 23.4679 22.0418V12.8843Z" fill="url(#paint1_linear_14267_194685)"/>
</g>
<defs>
<linearGradient id="paint0_linear_14267_194685" x1="5.79078" y1="16.3421" x2="34.0745" y2="17.4616" gradientUnits="userSpaceOnUse">
<stop stop-color="#0F3D83"/>
<stop offset="1" stop-color="#018383"/>
</linearGradient>
<linearGradient id="paint1_linear_14267_194685" x1="22.4068" y1="19.0174" x2="30.7549" y2="19.2292" gradientUnits="userSpaceOnUse">
<stop stop-color="#0F3D83"/>
<stop offset="1" stop-color="#018383"/>
</linearGradient>
<clipPath id="clip0_14267_194685">
<rect width="46" height="46" fill="white"/>
</clipPath>
</defs>
</svg>
