<svg width="49" height="14" viewBox="0 0 49 14" fill="none" xmlns="http://www.w3.org/2000/svg">
<g clip-path="url(#clip0_1907_72464)">
<path fill-rule="evenodd" clip-rule="evenodd" d="M4.49605 0.467595C4.93041 0.464997 6.22132 0.34873 6.76813 2.19419C7.13646 3.43732 7.72319 5.47362 8.52832 8.30308H8.85622C9.71966 5.32006 10.3128 3.28376 10.6356 2.19419C11.1881 0.329507 12.5694 0.467632 13.1219 0.467632L17.3845 0.467637V13.7276H13.0399V5.91328H12.7486L10.3267 13.7276H7.05788L4.63597 5.90749H4.34463V13.7276H0V0.467637L4.49605 0.467595ZM23.6233 0.467637V8.28778H23.9699L26.916 1.85733C27.4879 0.577654 28.7067 0.467637 28.7067 0.467637H32.911V13.7276H28.4756V5.90749H28.1291L25.2408 12.3379C24.6689 13.6118 23.3923 13.7276 23.3923 13.7276H19.188V0.467637H23.6233ZM48.2416 6.76887C47.6229 8.52209 45.68 9.77769 43.5289 9.77769H38.8776V13.7276H34.6598V6.76887H48.2416Z" fill="#0F754E"/>
<path fill-rule="evenodd" clip-rule="evenodd" d="M43.7332 0.467773H34.4395C34.6606 3.4199 37.2029 5.94711 39.8347 5.94711H48.5355C49.0376 3.49355 47.3091 0.467773 43.7332 0.467773Z" fill="url(#paint0_linear_1907_72464)"/>
</g>
<defs>
<linearGradient id="paint0_linear_1907_72464" x1="1452.58" y1="345.142" x2="34.4395" y2="345.142" gradientUnits="userSpaceOnUse">
<stop stop-color="#1F5CD7"/>
<stop offset="1" stop-color="#02AEFF"/>
</linearGradient>
<clipPath id="clip0_1907_72464">
<rect width="48.62" height="13.2623" fill="white" transform="translate(0 0.465332)"/>
</clipPath>
</defs>
</svg>
