<svg width="50" height="26" viewBox="0 0 50 26" fill="none" xmlns="http://www.w3.org/2000/svg">
<g clip-path="url(#clip0_1907_72481)">
<path d="M42.8364 7.83732V13.8301H40.6965V9.6263H38.636V13.8301H36.4961V7.83691H42.8364V7.83732Z" fill="black"/>
<path fill-rule="evenodd" clip-rule="evenodd" d="M32.1005 14.0444C34.0162 14.0444 35.4387 12.8698 35.4387 11.0892C35.4387 9.36584 34.3892 8.24686 32.6351 8.24686C31.8256 8.24686 31.1576 8.53181 30.6545 9.02348C30.7746 8.00725 31.634 7.26535 32.5802 7.26535C32.7985 7.26535 34.4425 7.26188 34.4425 7.26188L35.3721 5.48291C35.3721 5.48291 33.3082 5.52989 32.3487 5.52989C30.1565 5.56809 28.6758 7.56072 28.6758 9.98089C28.6758 12.8004 30.12 14.0444 32.1005 14.0444ZM32.1122 9.82258C32.8234 9.82258 33.3165 10.2899 33.3165 11.089C33.3165 11.8083 32.8784 12.4008 32.1122 12.4025C31.3793 12.4025 30.8862 11.8534 30.8862 11.1013C30.8862 10.302 31.3793 9.82258 32.1122 9.82258Z" fill="black"/>
<path d="M26.9349 11.8239C26.9349 11.8239 26.4295 12.1152 25.6748 12.1704C24.807 12.1961 24.0339 11.6481 24.0339 10.6743C24.0339 9.72448 24.7161 9.1801 25.6529 9.1801C26.2273 9.1801 26.9872 9.57822 26.9872 9.57822C26.9872 9.57822 27.5432 8.5579 27.8312 8.04764C27.3038 7.64789 26.6013 7.42871 25.7843 7.42871C23.7222 7.42871 22.125 8.7732 22.125 10.6623C22.125 12.5754 23.6262 13.8887 25.7843 13.8491C26.3875 13.8266 27.2196 13.6148 27.7268 13.2889L26.9349 11.8239Z" fill="black"/>
<path d="M0.621094 6.17578L3.58951 11.4816V14.7181L0.624566 20.0135L0.621094 6.17578Z" fill="#5B57A2"/>
<path d="M12.0195 9.55095L14.801 7.84613L20.4936 7.84082L12.0195 13.0321V9.55095Z" fill="#D90751"/>
<path d="M12.0026 6.14455L12.0183 13.1693L9.04297 11.3411V0.840332L12.0026 6.14455Z" fill="#FAB718"/>
<path d="M20.4924 7.84079L14.7996 7.84611L12.0026 6.14455L9.04297 0.840332L20.4924 7.84079Z" fill="#ED6F26"/>
<path d="M12.0183 20.043V16.6348L9.04297 14.8413L9.0446 25.3525L12.0183 20.043Z" fill="#63B22F"/>
<path d="M14.7932 18.3536L3.58931 11.4816L0.621094 6.17578L20.4806 18.3467L14.7932 18.3536Z" fill="#1487C9"/>
<path d="M9.04492 25.3525L12.0182 20.0429L14.7928 18.3536L20.4802 18.3467L9.04492 25.3525Z" fill="#017F36"/>
<path d="M0.625 20.0137L9.068 14.8417L6.2295 13.1001L3.58995 14.7183L0.625 20.0137Z" fill="#984995"/>
<path d="M24.0348 17.8636C23.9695 17.9469 23.8835 18.0098 23.7803 18.0523C23.6745 18.0954 23.5612 18.1173 23.4469 18.1168C23.3333 18.1184 23.2203 18.0994 23.1134 18.0609C23.0173 18.026 22.9296 17.9716 22.8556 17.9011C22.7825 17.8306 22.7252 17.7454 22.6873 17.6511C22.6462 17.5479 22.6258 17.4376 22.627 17.3265C22.627 17.2162 22.646 17.1141 22.6854 17.0173C22.7232 16.9202 22.7782 16.8371 22.847 16.7673C22.9158 16.696 22.9984 16.6416 23.0911 16.5991C23.1857 16.5583 23.2888 16.5362 23.4022 16.5362C23.5244 16.5362 23.6377 16.5515 23.7409 16.582C23.844 16.6126 23.9317 16.6637 24.0038 16.7352L23.8784 16.9476C23.8177 16.8926 23.7462 16.8509 23.6686 16.8251C23.5947 16.8013 23.5176 16.7893 23.44 16.7895C23.3714 16.7895 23.306 16.803 23.2425 16.8285C23.1799 16.8537 23.1227 16.8907 23.0739 16.9374C23.0242 16.9854 22.9849 17.0433 22.9587 17.1074C22.9295 17.1735 22.9158 17.2467 22.9158 17.3282C22.9158 17.4115 22.9312 17.4863 22.9604 17.5508C22.9898 17.6172 23.0292 17.6734 23.0791 17.7208C23.1289 17.7686 23.1873 17.8041 23.2543 17.828C23.3215 17.8535 23.392 17.8654 23.4676 17.8654C23.5603 17.8654 23.6447 17.8466 23.7168 17.8109C23.7882 17.7763 23.8524 17.7285 23.9059 17.6699L24.0348 17.8636ZM24.3888 18.0811V16.5685H24.6605V17.6954L25.544 16.5685H25.8156V18.0813H25.544V16.9544L24.6605 18.0813L24.3888 18.0811ZM27.6152 17.8636C27.5484 17.9476 27.4607 18.0127 27.3609 18.0523C27.255 18.0954 27.1417 18.1173 27.0273 18.1168C26.9138 18.1184 26.8008 18.0994 26.694 18.0609C26.5979 18.026 26.51 17.9716 26.436 17.9011C26.3629 17.8306 26.3056 17.7454 26.2677 17.6511C26.2266 17.5479 26.2062 17.4376 26.2074 17.3265C26.2074 17.2162 26.2264 17.1141 26.2658 17.0173C26.3038 16.9202 26.3588 16.8371 26.4274 16.7673C26.4962 16.696 26.5788 16.6416 26.6715 16.5991C26.7695 16.556 26.8756 16.5345 26.9826 16.5362C27.1048 16.5362 27.2181 16.5515 27.3213 16.582C27.4244 16.6126 27.5121 16.6637 27.5844 16.7352L27.4588 16.9476C27.3982 16.8926 27.3268 16.8509 27.2492 16.8251C27.1753 16.8013 27.0982 16.7893 27.0206 16.7895C26.8841 16.79 26.7529 16.8429 26.6544 16.9374C26.605 16.9858 26.5658 17.0436 26.5391 17.1074C26.5099 17.1735 26.4962 17.2467 26.4962 17.3282C26.4962 17.4115 26.5118 17.4863 26.541 17.5508C26.5702 17.6172 26.6096 17.6734 26.6595 17.7208C26.7093 17.7686 26.7679 17.8041 26.8349 17.828C26.9019 17.8517 26.9724 17.8654 27.048 17.8654C27.1409 17.8654 27.2234 17.8466 27.2972 17.8109C27.3686 17.7763 27.4328 17.7285 27.4863 17.6699L27.6152 17.8636ZM27.7545 16.5685H29.1485V16.8371H28.5882V18.0811H28.3165V16.8371H27.7562V16.5685H27.7545Z" fill="black"/>
<path fill-rule="evenodd" clip-rule="evenodd" d="M30.4167 18.0656C30.5198 18.0333 30.6075 17.9839 30.683 17.9161L30.6005 17.7053C30.5507 17.7496 30.4837 17.787 30.403 17.8176C30.3221 17.8482 30.231 17.8634 30.1313 17.8634C29.9818 17.8634 29.858 17.8243 29.7599 17.7445C29.6621 17.6644 29.6088 17.5525 29.5967 17.4095H30.7725C30.7846 17.3568 30.7897 17.2973 30.7897 17.2277C30.7897 17.1239 30.7707 17.0306 30.7329 16.9456C30.6977 16.8631 30.6463 16.7885 30.5817 16.7262C30.5162 16.6645 30.4391 16.6166 30.3548 16.5853C30.2665 16.551 30.1726 16.5337 30.078 16.5342C29.9507 16.5342 29.839 16.5563 29.7412 16.5971C29.6486 16.636 29.565 16.6933 29.4952 16.7654C29.4275 16.8372 29.3754 16.9223 29.3424 17.0152C29.3061 17.1143 29.288 17.219 29.2891 17.3245C29.2891 17.4436 29.3097 17.5523 29.3475 17.6493C29.3843 17.7433 29.4405 17.8284 29.5126 17.8991C29.5831 17.9686 29.6688 18.0215 29.7704 18.0588C29.8791 18.0974 29.9937 18.1163 30.109 18.1148C30.2135 18.1142 30.3172 18.0974 30.4167 18.0656ZM29.7291 16.9013C29.8133 16.8249 29.925 16.7875 30.0659 16.7875C30.1983 16.7875 30.3049 16.8232 30.3823 16.8947C30.4598 16.966 30.5008 17.0647 30.5078 17.1903H29.5796C29.5927 17.0791 29.6459 16.9762 29.7291 16.9013Z" fill="black"/>
<path d="M31.1582 16.5684H31.4058L31.9937 17.318L32.5505 16.5684H32.7911V18.0812H32.5196V16.9781L31.9902 17.68H31.9798L31.4299 16.9779V18.081H31.1582V16.5684Z" fill="black"/>
<path fill-rule="evenodd" clip-rule="evenodd" d="M33.5301 16.5733C33.4477 16.5948 33.3689 16.6285 33.2964 16.6734L33.3686 16.8878C33.4304 16.8572 33.4923 16.8317 33.5542 16.8096C33.6161 16.7873 33.6952 16.7771 33.7898 16.7771C33.8653 16.7771 33.9256 16.7892 33.972 16.8129C34.0183 16.8349 34.0526 16.869 34.0767 16.9099C34.1009 16.9508 34.1164 17.0016 34.125 17.0611C34.1335 17.1205 34.137 17.185 34.137 17.2549C34.0814 17.2162 34.0181 17.19 33.9513 17.1783C33.8868 17.1655 33.8212 17.1586 33.7554 17.1579C33.6745 17.1579 33.599 17.1699 33.5267 17.1902C33.4545 17.2106 33.3927 17.2412 33.3428 17.2821C33.2919 17.3229 33.2508 17.3745 33.2225 17.4332C33.1922 17.4975 33.1769 17.5679 33.1778 17.6389C33.1778 17.7868 33.2209 17.9024 33.3067 17.9841C33.3927 18.0656 33.506 18.1063 33.647 18.1063C33.7742 18.1063 33.8757 18.0842 33.953 18.0401C34.0304 17.9958 34.0923 17.9449 34.137 17.8871V18.0826H34.3913V17.1546C34.3913 16.9573 34.3484 16.8045 34.2608 16.6973C34.1748 16.5902 34.0218 16.5359 33.8053 16.5359C33.7089 16.5359 33.6178 16.5494 33.5301 16.5733ZM33.9842 17.7989C33.9223 17.843 33.8414 17.8632 33.7418 17.8632C33.6541 17.8632 33.5853 17.8412 33.5373 17.7987C33.4891 17.7545 33.465 17.6967 33.465 17.6252C33.465 17.583 33.4735 17.5472 33.4925 17.5149C33.5115 17.4827 33.5373 17.4571 33.5665 17.4367C33.5984 17.4153 33.6339 17.3998 33.6713 17.3907C33.7109 17.3805 33.7503 17.3754 33.7916 17.3754C33.9258 17.3754 34.0408 17.4077 34.1354 17.4757V17.6677C34.0908 17.7177 34.04 17.7619 33.9842 17.7989ZM36.7894 16.036C36.8444 16.0107 36.8959 15.9682 36.9441 15.9053L36.7962 15.6929C36.7584 15.7439 36.7155 15.7795 36.6673 15.7983C36.6162 15.8182 36.5632 15.833 36.5092 15.8424L36.4577 15.8516C36.413 15.8593 36.365 15.8679 36.3133 15.8765C36.2304 15.8918 36.1496 15.9169 36.0726 15.9513C35.9505 16.004 35.8527 16.0753 35.7787 16.1653C35.7048 16.2554 35.6463 16.3574 35.6067 16.4697C35.5666 16.5835 35.5395 16.7015 35.526 16.8215C35.5121 16.944 35.5054 17.0611 35.5054 17.1732C35.5054 17.3178 35.5242 17.4486 35.562 17.5658C35.6 17.6833 35.6531 17.7817 35.7236 17.8616C35.794 17.9433 35.8784 18.0046 35.9781 18.0487C36.0778 18.0928 36.1895 18.1149 36.3149 18.1149C36.4301 18.1149 36.5367 18.0928 36.633 18.052C36.7257 18.0127 36.8098 17.9556 36.8805 17.8838C36.9492 17.814 37.0043 17.7306 37.0421 17.6373C37.0815 17.5437 37.1005 17.4434 37.1005 17.338C37.1005 17.2243 37.0834 17.1207 37.0507 17.0288C37.0206 16.9412 36.9726 16.8607 36.9097 16.7926C36.8468 16.7257 36.7699 16.6734 36.6844 16.6394C36.5904 16.6024 36.49 16.5839 36.3889 16.5851C36.3235 16.5851 36.26 16.5937 36.1981 16.6106C36.1379 16.6276 36.0801 16.6522 36.0261 16.6838C35.9737 16.7138 35.9257 16.7509 35.8835 16.7941C35.8422 16.8368 35.8079 16.8844 35.7838 16.9387H35.7769C35.7822 16.869 35.7908 16.7978 35.8061 16.7246C35.8216 16.6515 35.8439 16.5816 35.8733 16.5155C35.9025 16.4493 35.9403 16.3896 35.9867 16.3353C36.0364 16.2804 36.0973 16.237 36.1654 16.2078C36.2402 16.1722 36.3194 16.1465 36.4009 16.1314L36.4548 16.1216C36.5086 16.1118 36.5598 16.1024 36.6089 16.0922C36.6742 16.0787 36.7343 16.0614 36.7894 16.036ZM35.8337 17.4894C35.8071 17.4036 35.7943 17.3141 35.7959 17.2243C35.8074 17.1727 35.8284 17.1237 35.8578 17.0798C35.887 17.0339 35.9248 16.9932 35.9695 16.9573C36.0705 16.8782 36.1953 16.8357 36.3235 16.8368C36.4834 16.8368 36.6037 16.886 36.6879 16.983C36.7723 17.0815 36.8135 17.2038 36.8135 17.3517C36.8135 17.4249 36.7996 17.4912 36.7757 17.5523C36.7525 17.6126 36.7174 17.6675 36.6725 17.714C36.6277 17.7604 36.5739 17.7973 36.5145 17.8226C36.4526 17.8497 36.3854 17.8634 36.3098 17.8634C36.2342 17.8634 36.1654 17.8481 36.1019 17.8175C36.0387 17.7874 35.9829 17.7439 35.9384 17.69C35.8919 17.6299 35.8564 17.562 35.8337 17.4894ZM39.1839 16.5682H38.9122V18.081H39.1839V16.5682ZM37.4923 16.5682H37.764V17.022H38.015C38.1335 17.022 38.2297 17.0374 38.3071 17.0662C38.3846 17.0952 38.4464 17.1342 38.4928 17.1818C38.5392 17.2294 38.5719 17.2855 38.5909 17.3483C38.6097 17.4112 38.6201 17.4757 38.6201 17.5437C38.6201 17.6118 38.6097 17.6765 38.5874 17.7411C38.5668 17.8056 38.5306 17.8616 38.4824 17.9126C38.4344 17.9637 38.369 18.0046 38.2865 18.0352C38.204 18.0656 38.1043 18.0826 37.984 18.0826H37.4907V16.5682H37.4923ZM37.764 17.2751V17.8293H37.9617C38.0976 17.8293 38.1938 17.8056 38.2487 17.7578C38.3039 17.7102 38.3312 17.6424 38.3312 17.5523C38.3312 17.4604 38.302 17.3909 38.2471 17.3432C38.1903 17.2956 38.0957 17.2717 37.9652 17.2717H37.764V17.2751Z" fill="black"/>
<path d="M40.9801 17.8636C40.9148 17.9469 40.8288 18.0098 40.7256 18.0523C40.6198 18.0954 40.5065 18.1173 40.3922 18.1169C40.2786 18.1184 40.1656 18.0994 40.0587 18.0609C39.9626 18.0261 39.8748 17.9717 39.8009 17.9011C39.7278 17.8305 39.6704 17.7453 39.6324 17.6511C39.5915 17.5478 39.5711 17.4376 39.5723 17.3265C39.5723 17.2162 39.5911 17.1141 39.6307 17.0173C39.6685 16.9203 39.7235 16.8371 39.7923 16.7673C39.8612 16.696 39.9435 16.6416 40.0364 16.5991C40.1344 16.556 40.2405 16.5345 40.3475 16.5362C40.4695 16.5362 40.583 16.5515 40.6862 16.582C40.7893 16.6126 40.877 16.6637 40.9491 16.7352L40.8237 16.9476C40.763 16.8926 40.6916 16.8509 40.6139 16.8251C40.54 16.8013 40.4629 16.7893 40.3853 16.7895C40.3167 16.7895 40.2513 16.803 40.1876 16.8285C40.125 16.8538 40.0679 16.8907 40.0193 16.9374C39.9698 16.9857 39.9307 17.0435 39.9041 17.1074C39.8748 17.1735 39.8612 17.2467 39.8612 17.3282C39.8612 17.4115 39.8765 17.4863 39.9057 17.5508C39.9349 17.6172 39.9745 17.6734 40.0244 17.7208C40.0742 17.7686 40.1326 17.8041 40.1996 17.828C40.2668 17.8517 40.3373 17.8654 40.4129 17.8654C40.5056 17.8654 40.5881 17.8466 40.6621 17.8109C40.7335 17.7763 40.7977 17.7285 40.8512 17.6699L40.9801 17.8636ZM41.1192 16.5685H42.5134V16.8371H41.9529V18.0811H41.6814V16.8371H41.1211V16.5685H41.1192Z" fill="black"/>
<path fill-rule="evenodd" clip-rule="evenodd" d="M43.0822 16.5684H42.8105V18.7541H43.0822V18.0114C43.1372 18.0471 43.2025 18.0726 43.2781 18.0896C43.3537 18.1065 43.4327 18.1149 43.5136 18.1149C43.634 18.1149 43.7422 18.0929 43.8403 18.0522C43.9343 18.012 44.0195 17.9537 44.0911 17.8806C44.1616 17.8073 44.2149 17.7223 44.2527 17.622C44.2905 17.5219 44.3095 17.4147 44.3095 17.3009C44.3095 17.1886 44.2923 17.085 44.2596 16.9914C44.2288 16.9026 44.181 16.8206 44.1187 16.7502C44.0576 16.6815 43.9817 16.6275 43.8968 16.5921C43.8041 16.5522 43.7039 16.5325 43.6029 16.5343C43.4965 16.5343 43.3968 16.5547 43.3022 16.5956C43.2076 16.6364 43.1337 16.6854 43.0822 16.7467V16.5684ZM43.2714 16.8489C43.3488 16.808 43.433 16.7876 43.5241 16.7876C43.6031 16.7876 43.6736 16.7994 43.7373 16.825C43.7992 16.8505 43.8507 16.8862 43.8938 16.9338C43.9367 16.9814 43.9694 17.036 43.99 17.1003C44.0123 17.1649 44.0227 17.2347 44.0227 17.3111C44.0227 17.3928 44.0088 17.4658 43.9849 17.5338C43.9624 17.5983 43.9266 17.6573 43.8799 17.7072C43.833 17.7565 43.7762 17.7952 43.7132 17.821C43.643 17.8504 43.5675 17.8648 43.4914 17.8635C43.4176 17.8635 43.3488 17.8551 43.2834 17.8381C43.2119 17.8187 43.144 17.7876 43.0824 17.7462V16.9965C43.1304 16.9389 43.1942 16.8897 43.2714 16.8489ZM46.3928 16.5682H46.1211V18.081H46.3928V16.5682ZM44.6996 16.5682H44.9713V17.0221H45.2221C45.3408 17.0221 45.437 17.0374 45.5144 17.0662C45.5919 17.0952 45.6538 17.1342 45.7001 17.1818C45.7465 17.2294 45.7792 17.2856 45.798 17.3483C45.817 17.4112 45.8272 17.4758 45.8272 17.5438C45.8272 17.6118 45.817 17.6766 45.7947 17.7411C45.7741 17.8057 45.7379 17.8616 45.6897 17.9127C45.6417 17.9638 45.5763 18.0046 45.4938 18.0353C45.4113 18.0657 45.3116 18.0826 45.1913 18.0826H44.698V16.5682H44.6996ZM44.9731 17.2752V17.8293H45.1709C45.3065 17.8293 45.4029 17.8057 45.4579 17.7579C45.5128 17.7103 45.5404 17.6424 45.5404 17.5524C45.5404 17.4604 45.5112 17.391 45.4562 17.3432C45.3994 17.2956 45.3049 17.2717 45.1743 17.2717H44.9731V17.2752Z" fill="black"/>
<path d="M47.6958 17.2976L48.2767 18.0812H47.9433L47.4946 17.4692L47.039 18.0812H46.7228L47.3003 17.3111L46.7571 16.5684H47.0907L47.505 17.1395L47.926 16.5684H48.2424L47.6958 17.2976ZM23.8338 19.9508H23.0002V21.212H22.7285V19.6994H24.1053V21.212H23.8338V19.9508ZM25.6471 19.9678H25.1109L25.0935 20.2227C25.0747 20.4386 25.049 20.612 25.0128 20.7444C24.9767 20.8772 24.932 20.9791 24.8805 21.0504C24.829 21.1219 24.7687 21.1711 24.6999 21.195C24.6289 21.2208 24.5538 21.2334 24.4783 21.2324L24.4576 20.9705C24.4869 20.9722 24.5212 20.9654 24.559 20.9485C24.597 20.9315 24.6347 20.8941 24.6707 20.8382C24.7068 20.7802 24.7395 20.6987 24.7687 20.5933C24.798 20.4862 24.8169 20.3469 24.8272 20.1716L24.8547 19.7008H25.9188V21.2136H25.6471V19.9678Z" fill="black"/>
<path fill-rule="evenodd" clip-rule="evenodd" d="M26.6493 19.7029C26.5614 19.7266 26.4824 19.7605 26.4154 19.803L26.4877 20.0173C26.5496 19.9866 26.6115 19.9611 26.6732 19.939C26.7351 19.917 26.8143 19.9068 26.9087 19.9068C26.9845 19.9068 27.0445 19.9186 27.0909 19.9423C27.1375 19.9646 27.1718 19.9985 27.1959 20.0393C27.2198 20.0802 27.2353 20.1313 27.2439 20.1905C27.2525 20.2501 27.2559 20.3147 27.2559 20.3843C27.2004 20.3457 27.137 20.3196 27.0703 20.308C27.0057 20.2951 26.9402 20.2883 26.8744 20.2875C26.7937 20.2875 26.7179 20.2994 26.6458 20.3198C26.5735 20.3402 26.5116 20.3709 26.4618 20.4117C26.4109 20.4525 26.3698 20.5041 26.3414 20.5629C26.3112 20.6272 26.296 20.6975 26.2969 20.7686C26.2969 20.9163 26.3398 21.0321 26.4258 21.1136C26.5116 21.1951 26.6252 21.2359 26.7661 21.2359C26.8934 21.2359 26.9947 21.2139 27.0721 21.1696C27.1493 21.1254 27.2112 21.0744 27.2559 21.0166V21.212H27.5105V20.2841C27.5105 20.0869 27.4674 19.9339 27.3797 19.8269C27.2937 19.7197 27.1407 19.6655 26.9242 19.6655C26.8313 19.6656 26.7389 19.6783 26.6493 19.7029ZM27.1048 20.9281C27.0431 20.9724 26.9622 20.9929 26.8625 20.9929C26.7731 20.9929 26.7061 20.9708 26.6581 20.9281C26.6099 20.884 26.5857 20.8262 26.5857 20.7549C26.5857 20.7124 26.5943 20.6767 26.6133 20.6444C26.6321 20.6121 26.6581 20.5866 26.6873 20.5661C26.7165 20.5457 26.7524 20.5304 26.7921 20.5202C26.8314 20.51 26.8718 20.505 26.9124 20.5051C27.0464 20.5051 27.1616 20.5373 27.2562 20.6052V20.7972C27.2115 20.8471 27.1606 20.8911 27.1048 20.9281Z" fill="black"/>
<path d="M27.7773 19.6992H29.1715V19.9676H28.611V21.2118H28.3395V19.9678H27.7792V19.6992H27.7773Z" fill="black"/>
<path fill-rule="evenodd" clip-rule="evenodd" d="M30.4403 21.1964C30.5435 21.1641 30.6311 21.1147 30.7067 21.0469L30.6241 20.8361C30.5743 20.8804 30.5073 20.9178 30.4264 20.9484C30.3457 20.9791 30.2546 20.9942 30.1549 20.9942C30.0054 20.9942 29.8816 20.9552 29.7836 20.8753C29.6855 20.7954 29.6324 20.6833 29.6204 20.5403H30.7961C30.808 20.4878 30.8133 20.4282 30.8133 20.3585C30.8133 20.255 30.7943 20.1614 30.7565 20.0764C30.7213 19.9939 30.6698 19.9194 30.6051 19.8572C30.5398 19.7955 30.4627 19.7475 30.3784 19.7161C30.2902 19.6819 30.1963 19.6645 30.1016 19.665C29.9744 19.665 29.8626 19.6871 29.7648 19.7279C29.6722 19.7668 29.5885 19.824 29.5188 19.8963C29.4511 19.9681 29.399 20.0531 29.3659 20.1461C29.3296 20.2451 29.3116 20.3499 29.3125 20.4553C29.3125 20.5744 29.3332 20.6831 29.371 20.7801C29.409 20.8769 29.4655 20.9603 29.536 21.0299C29.6065 21.0996 29.6925 21.1523 29.794 21.1897C29.9026 21.2283 30.0172 21.2473 30.1325 21.2459C30.234 21.2459 30.3371 21.2287 30.4403 21.1964ZM29.7511 20.0305C29.8353 19.9541 29.947 19.9167 30.0879 19.9167C30.2221 19.9167 30.3269 19.9541 30.4043 20.0237C30.4816 20.0952 30.5228 20.1937 30.5298 20.3195H29.6016C29.6147 20.2082 29.6678 20.1055 29.7511 20.0305ZM30.9457 19.6991H31.2894L31.8136 20.4284L31.2533 21.2117H30.9199L31.5076 20.4282L30.9457 19.6991ZM31.8806 19.6991H32.1523V21.2117H31.8806V19.6991ZM33.1234 21.2117L32.5253 20.4282L33.0839 19.6989H32.7469L32.2193 20.4282L32.7865 21.2117H33.1234ZM34.3645 21.1964C34.4676 21.1641 34.5553 21.1147 34.6309 21.0469L34.5483 20.8361C34.4985 20.8804 34.4315 20.9178 34.3508 20.9484C34.2699 20.9791 34.1788 20.9942 34.0791 20.9942C33.9296 20.9942 33.8058 20.9552 33.7078 20.8753C33.6099 20.7954 33.5566 20.6833 33.5446 20.5403H34.7203C34.7324 20.4878 34.7375 20.4282 34.7375 20.3585C34.7375 20.255 34.7187 20.1614 34.6807 20.0764C34.6455 19.994 34.5941 19.9194 34.5295 19.8572C34.4641 19.7954 34.3869 19.7474 34.3026 19.7161C34.2144 19.6819 34.1205 19.6645 34.0258 19.665C33.8988 19.665 33.787 19.6871 33.689 19.7279C33.5965 19.7668 33.5129 19.8241 33.4432 19.8963C33.3754 19.968 33.3233 20.053 33.2902 20.1461C33.2539 20.2451 33.2359 20.3499 33.2369 20.4553C33.2369 20.5744 33.2576 20.6831 33.2953 20.7801C33.3331 20.8769 33.3899 20.9603 33.4604 21.0299C33.5309 21.0996 33.6167 21.1523 33.7182 21.1897C33.8269 21.2283 33.9415 21.2473 34.0569 21.2459C34.1613 21.2451 34.265 21.2284 34.3645 21.1964ZM33.6753 20.0305C33.7597 19.9541 33.8714 19.9167 34.0123 19.9167C34.1447 19.9167 34.2511 19.9541 34.3285 20.0237C34.406 20.0952 34.4472 20.1937 34.454 20.3195H33.5258C33.5389 20.2082 33.592 20.1055 33.6753 20.0305ZM35.8395 19.1909C35.6796 19.1909 35.5919 19.1025 35.5782 18.9258H35.3221C35.3221 18.9936 35.3341 19.0549 35.3564 19.1127C35.3789 19.1705 35.4116 19.2197 35.4545 19.2606C35.4974 19.3014 35.5525 19.3337 35.616 19.359C35.6796 19.3846 35.7535 19.3964 35.8377 19.3964C35.9151 19.3964 35.9839 19.3846 36.0458 19.359C36.1077 19.3353 36.1592 19.3014 36.2039 19.2606C36.2468 19.2197 36.2813 19.1705 36.3052 19.1127C36.3293 19.0549 36.3414 18.9936 36.3414 18.9258H36.0871C36.075 19.1025 35.9907 19.1909 35.8395 19.1909ZM35.1054 19.6989V21.2117H35.377L36.2605 20.0848V21.2117H36.5322V19.6989H36.2605L35.377 20.8259V19.6989H35.1054Z" fill="black"/>
</g>
<defs>
<clipPath id="clip0_1907_72481">
<rect width="48.82" height="24.5121" fill="white" transform="translate(0.621094 0.840332)"/>
</clipPath>
</defs>
</svg>
