<svg width="11" height="19" viewBox="0 0 11 19" fill="none" xmlns="http://www.w3.org/2000/svg">
<path fill-rule="evenodd" clip-rule="evenodd" d="M9.67341 5.3413C9.67341 2.9277 7.711 0.964844 5.29739 0.964844C2.88421 0.964844 0.921369 2.92791 0.921369 5.3413C0.921369 7.75365 2.88421 9.71565 5.29739 9.71565C7.71079 9.71565 9.67341 7.75365 9.67341 5.3413ZM6.97384 13.6009C7.87406 13.3959 8.73313 13.0402 9.51477 12.5488C10.114 12.1718 10.2941 11.3804 9.91714 10.7812C9.73631 10.4931 9.44839 10.2888 9.11679 10.2132C8.78519 10.1376 8.43712 10.1969 8.14931 10.3782C6.35654 11.5053 4.04911 11.5044 2.25781 10.3782C1.97005 10.1969 1.62205 10.1375 1.29047 10.2131C0.958883 10.2887 0.670944 10.4931 0.490188 10.7812C0.113076 11.3802 0.29292 12.1716 0.891921 12.5488C1.67351 13.04 2.53247 13.3957 3.4325 13.6009L0.986213 16.0476C0.662375 16.3716 0.535932 16.8437 0.654562 17.2861C0.773192 17.7285 1.11884 18.074 1.56131 18.1925C2.00378 18.311 2.47587 18.1844 2.79971 17.8605L5.20303 15.4567L7.60783 17.8607C7.84797 18.1012 8.17387 18.2363 8.51373 18.2363C8.85359 18.2363 9.17956 18.1012 9.4197 17.8607C9.66056 17.6206 9.79588 17.2945 9.79588 16.9544C9.79588 16.6143 9.66056 16.2881 9.4197 16.048L6.97384 13.6009ZM5.24497 3.47852C6.24409 3.47852 7.05684 4.29122 7.05684 5.29034C7.05684 6.28862 6.24388 7.10132 5.24497 7.10132C4.24647 7.10132 3.43359 6.28862 3.43359 5.29034C3.43339 4.29101 4.24668 3.47852 5.24497 3.47852Z" fill="#2A1F15"/>
</svg>
