<svg width="42" height="42" viewBox="0 0 42 42" fill="none" xmlns="http://www.w3.org/2000/svg">
<path d="M0.847306 15.5878L16.6542 23.3347L24.426 39.1533C24.5323 39.3699 24.7607 39.5017 25.0013 39.4851C25.242 39.4688 25.4506 39.3072 25.5269 39.0788L37.4526 3.30075L37.4563 3.27983C37.4678 3.24115 37.475 3.20132 37.4784 3.16063L37.4816 3.12682L37.4836 3.11278L37.4833 3.10877C37.483 3.06607 37.4776 3.02424 37.4684 2.98355L37.44 2.89014L37.4389 2.88613L37.4168 2.84344L37.3988 2.80934C37.3738 2.7675 37.3455 2.7271 37.3099 2.69186L37.3091 2.69071H37.3088C37.273 2.65489 37.2329 2.62653 37.1904 2.6016L37.1561 2.58298L37.1128 2.56091L37.1079 2.55919L37.046 2.54028L37.0154 2.53111C36.9747 2.52194 36.9328 2.51679 36.8904 2.51679L36.8856 2.51621L36.873 2.51736L36.8377 2.52108C36.7976 2.52424 36.7581 2.53169 36.72 2.54286L36.6985 2.54687L0.921148 14.4866C0.692205 14.5631 0.530887 14.7717 0.514837 15.0124C0.498787 15.2531 0.631168 15.4814 0.847795 15.588L0.847306 15.5878ZM24.8551 37.3217L17.8229 23.009L33.6753 7.16541L33.7378 7.12358L35.5178 5.33471L24.8551 37.3217ZM34.6764 4.47922L16.9799 22.1654L2.67894 15.1567L34.6764 4.47922Z" fill="black"/>
<path fill-rule="evenodd" clip-rule="evenodd" d="M0.847306 15.5878C0.84188 15.5852 0.836481 15.5824 0.831162 15.5795C0.624397 15.4697 0.499201 15.2469 0.514837 15.0124C0.530887 14.7717 0.692205 14.5631 0.921148 14.4866L36.6985 2.54687L36.72 2.54286C36.7581 2.53169 36.7976 2.52424 36.8377 2.52108L36.873 2.51736L36.8856 2.51621L36.8904 2.51679C36.9328 2.51679 36.9747 2.52194 37.0154 2.53111L37.046 2.54028L37.1079 2.55919L37.1128 2.56091L37.1561 2.58298L37.1904 2.6016C37.2329 2.62653 37.273 2.65489 37.3088 2.69071H37.3091L37.3099 2.69186C37.3455 2.7271 37.3738 2.7675 37.3988 2.80934L37.4168 2.84344L37.4389 2.88613L37.44 2.89014L37.4684 2.98355C37.4776 3.02424 37.483 3.06607 37.4833 3.10877L37.4836 3.11278L37.4816 3.12682L37.4784 3.16063C37.475 3.20132 37.4678 3.24115 37.4563 3.27983L37.4526 3.30075L25.5269 39.0788C25.4506 39.3072 25.242 39.4688 25.0013 39.4851C24.7607 39.5017 24.5323 39.3699 24.426 39.1533L16.6542 23.3347L0.84774 15.5881C0.847582 15.588 0.847464 15.5879 0.847306 15.5878ZM0.62456 16.0416L0.621045 16.0488C0.218627 15.8507 -0.0275003 15.4275 0.0024575 14.9782C0.0324015 14.5292 0.332258 14.142 0.758362 13.9996L0.758561 13.9995L36.5694 2.04861L36.6042 2.04212C36.6639 2.02636 36.7259 2.01532 36.7895 2.00984L36.8227 2.00633L36.8924 2L36.9255 2.00391C36.9968 2.00631 37.0646 2.01587 37.1282 2.0302L37.1455 2.03409L37.1946 2.04877L37.2684 2.07134L37.3157 2.08803L37.395 2.12844L37.4429 2.15438L37.4506 2.15893C37.4604 2.16471 37.4705 2.17081 37.4808 2.17724H37.5658L37.7025 2.35953C37.7634 2.42585 37.8076 2.49251 37.8398 2.54649L37.8465 2.55763L37.8718 2.60544L37.9185 2.69586L37.9325 2.74489L37.9325 2.74507L37.951 2.80585L37.9512 2.80627L37.9652 2.85249L37.9693 2.87068C37.9842 2.93689 37.9945 3.00905 37.9964 3.08596L37.9996 3.131L37.9916 3.18698L37.99 3.20386C37.99 3.20471 37.9899 3.20556 37.9898 3.20641C37.9845 3.26762 37.9742 3.33031 37.9576 3.39355L37.9515 3.42762L26.0139 39.2412L26.0139 39.2414C25.8718 39.667 25.4847 39.967 25.0361 39.9974C24.5872 40.0282 24.1631 39.7831 23.9651 39.3797C23.965 39.3797 23.965 39.3796 23.965 39.3795L16.2707 23.7185L0.621294 16.0489L0.62456 16.0416ZM33.7378 7.12358L33.6753 7.16541L17.8229 23.009L24.8551 37.3217L35.5178 5.33471L33.7378 7.12358ZM34.3389 7.24741L34.0658 7.52187L34.0027 7.5641L18.4458 23.1124L24.7638 35.9716L34.3389 7.24741ZM34.6764 4.47922L2.67894 15.1567L16.9799 22.1654L34.6764 4.47922ZM32.7727 5.65576L4.03014 15.2471L16.8764 21.5429L32.7727 5.65576Z" fill="#2A1F15"/>
</svg>
