<svg width="19" height="13" viewBox="0 0 19 13" fill="none" xmlns="http://www.w3.org/2000/svg">
<path d="M18.388 2.03421C18.174 1.23877 17.5468 0.611737 16.7515 0.39755C15.2986 0 9.48661 0 9.48661 0C9.48661 0 3.67488 0 2.22192 0.382477C1.4419 0.596438 0.799449 1.23889 0.585489 2.03421C0.203125 3.48706 0.203125 6.50007 0.203125 6.50007C0.203125 6.50007 0.203125 9.52827 0.585489 10.9659C0.799676 11.7613 1.4266 12.3883 2.22204 12.6025C3.69018 13.0001 9.48684 13.0001 9.48684 13.0001C9.48684 13.0001 15.2986 13.0001 16.7515 12.6177C17.547 12.4036 18.174 11.7766 18.3882 10.9812C18.7704 9.52827 18.7704 6.51537 18.7704 6.51537C18.7704 6.51537 18.7857 3.48706 18.388 2.03421ZM7.63621 9.2836V3.71654L12.4691 6.50007L7.63621 9.2836Z" fill="#2A1F15"/>
</svg>
