<svg width="172" height="40" viewBox="0 0 172 40" fill="none" xmlns="http://www.w3.org/2000/svg">
<path d="M20.9484 10.0059L25.8365 16.5745H16.0631L20.9484 10.0059ZM20.9484 5L7 22.9874H11.133L14.4099 18.7318H27.4883L30.7708 22.9874H34.9038L20.9484 5Z" fill="black"/>
<path d="M48.5502 20.8298H39.8222V5.78906H36.0117V22.9899H48.5502V20.8298Z" fill="black"/>
<path d="M62.5553 12.4986H53.5069V7.94775H63.8383V5.78906H49.6992V22.9906H53.5069V14.6587H62.5553V12.4986Z" fill="black"/>
<path d="M75.367 10.0059L80.2522 16.5745H70.4817L75.367 10.0059ZM75.367 5L61.4102 22.9874H65.5424L68.8257 18.7318H81.9062L85.1824 22.9874H89.3196L75.367 5Z" fill="black"/>
<path d="M106.355 10.8061C106.355 7.28942 102.862 5.78906 94.6573 5.78906H90.4297V22.9871H94.2339V15.8737H96.1836C102.653 15.8737 106.355 14.0284 106.355 10.8061ZM102.779 10.7634C102.779 13.4184 98.7637 13.7599 95.268 13.7599H94.2339V7.90569H95.0752C98.6606 7.90569 102.779 8.22819 102.779 10.7634Z" fill="black"/>
<path d="M116.089 10.0059L120.976 16.5745H111.203L116.089 10.0059ZM116.089 5L102.275 22.808L102.137 22.9874H106.27L109.549 18.7318H122.628L125.906 22.9874H130.039L116.089 5Z" fill="black"/>
<path d="M147.078 10.7423C147.078 9.0001 145.604 7.4051 143.23 6.58271C140.858 5.78906 137.946 5.78906 135.608 5.78906H131.148V22.9906H134.958V15.8071H136.292L144.753 22.9906H149.456L140.354 15.5806C144.329 15.2238 147.078 13.2572 147.078 10.7423ZM143.503 10.8314C143.503 13.4864 139.487 13.8279 135.991 13.8279H134.958V7.90639H135.798C139.102 7.90639 143.503 8.20856 143.503 10.8314Z" fill="black"/>
<path d="M150.863 5.78906V22.9885H154.671V14.6587H163.687V12.4972H154.671V7.94635H165V5.78906H150.863Z" fill="black"/>
<path d="M44.1223 30.0931L36.8484 26.7656H34.9141V34.7014H37.1225V28.463L44.1223 31.7049L51.12 28.463V34.7014H53.3292V26.7656H51.3962L44.1223 30.0931Z" fill="black"/>
<path d="M59.239 26.7656H57.0312V34.7007H59.239V26.7656Z" fill="black"/>
<path d="M83.2165 26.7188L74.6771 33.6954V33.532H65.1464V26.7692H62.9414V34.7057H73.4432H74.6778H76.1179L79.1719 32.2063H88.3374L91.3914 34.7057H94.0647L84.2899 26.7188H83.2165ZM80.5958 31.0319L83.741 28.4428L86.9036 31.0319H80.5958Z" fill="black"/>
<path d="M110.926 32.8975L96.7339 26.7656H95.0352V34.7014H97.2429V28.5668L111.397 34.674L111.461 34.7014H113.135V26.7656H110.926V32.8975Z" fill="black"/>
<path d="M126.608 26.6719C120.602 26.6719 116.074 28.4204 116.074 30.7348C116.074 33.054 120.602 34.7983 126.608 34.7983C132.648 34.7983 137.201 33.054 137.201 30.7348C137.201 28.4204 132.649 26.6719 126.608 26.6719ZM134.879 30.7348C134.879 32.0977 131.738 33.5749 126.664 33.5749C121.558 33.5749 118.399 32.0977 118.399 30.7348C118.399 29.3732 121.558 27.9002 126.664 27.9002C131.738 27.9002 134.879 29.3732 134.879 30.7348Z" fill="black"/>
</svg>
