<svg width="217" height="50" viewBox="0 0 217 50" fill="none" xmlns="http://www.w3.org/2000/svg">
<circle cx="25.8955" cy="25" r="25" fill="black"/>
<g clip-path="url(#clip0)">
<path d="M14.2717 16.7056L13.013 16.7116V15.0907H14.1357C14.1357 15.0907 15.1994 15.0907 15.1994 15.8981C15.1994 16.5308 14.5553 16.6694 14.2717 16.7056ZM23.6499 35.8855L21.2625 34.7105L21.3866 31.2939L24.1699 28.8233L26.3386 29.9984L27.0182 34.1501L23.8803 36L23.6499 35.8855ZM22.273 34.0898L23.839 34.8611L25.9309 33.6319L25.4463 30.6491L24.3117 30.0345L22.3557 31.7699L22.273 34.0898ZM24.2349 23.7316L25.009 25.9912H23.4549L24.2349 23.7316ZM25.6354 27.6845H26.7878L24.2349 20.9838L21.6879 27.6845H22.8344L23.1121 26.9313H25.3577L25.6354 27.6845ZM32.0235 31.9748L28.9565 21.1706H28.8679H27.8869H27.7983V35.7349H28.8679V24.6174L32.0235 35.7349H33.0931V21.1706H32.0235V31.9748ZM14.0057 35.8253C15.0399 35.8253 15.9972 35.1504 15.9972 33.903C15.9972 33.1257 15.6308 32.4749 14.9571 32.1616C14.5021 31.9447 14.053 31.9447 14.0057 31.9447C13.533 31.9447 13.078 31.6554 13.078 31.1191C13.078 30.5105 13.5034 30.2153 14.0057 30.2153C14.4903 30.2153 14.8981 30.4563 14.9217 30.9986H15.9795C15.9617 29.8899 15.1108 29.1246 14.0057 29.1246C12.9775 29.1246 12.0084 29.8778 12.0084 31.1191C12.0084 31.8904 12.3806 32.4689 13.0484 32.7823C13.5153 32.9992 13.9525 32.9992 14.0057 32.9992C14.4371 33.0173 14.9394 33.3547 14.9394 33.903C14.9394 34.4152 14.5021 34.7406 14.0057 34.7406C13.533 34.7406 13.0957 34.4695 13.078 33.9271H12.0084C12.0261 35.1504 12.9007 35.8012 14.0057 35.8253ZM21.1443 29.221H17.4036V30.2153H18.7451V35.7349H19.8028V30.2153H21.1443V29.221ZM39.0793 30.3057V29.221H34.8186V35.7349H39.0793V34.6442H35.8882V33.0173H38.5415V31.9386H35.8882V30.3057H39.0793ZM42.359 35.8253C43.3872 35.8253 44.3446 35.1504 44.3446 33.903C44.3446 33.1257 43.9841 32.4749 43.3045 32.1616C42.8495 31.9447 42.4004 31.9447 42.359 31.9447C41.8803 31.9447 41.4253 31.6554 41.4253 31.1191C41.4253 30.5105 41.8567 30.2153 42.359 30.2153C42.8377 30.2153 43.2513 30.4563 43.2691 30.9986H44.3268C44.3091 29.8899 43.4582 29.1246 42.359 29.1246C41.3249 29.1246 40.3557 29.8778 40.3557 31.1191C40.3557 31.8904 40.7339 32.4689 41.3958 32.7823C41.8626 32.9992 42.2999 32.9992 42.359 32.9992C42.7845 33.0173 43.2868 33.3547 43.2868 33.903C43.2868 34.4152 42.8495 34.7406 42.359 34.7406C41.8803 34.7406 41.4431 34.4695 41.4253 33.9271H40.3557C40.3735 35.1504 41.254 35.8012 42.359 35.8253ZM13.9998 23.7316L14.774 25.9912H13.2198L13.9998 23.7316ZM15.4003 27.6845H16.5527L13.9998 20.9838L11.4529 27.6845H12.5993L12.877 26.9313H15.1226L15.4003 27.6845ZM18.4732 26.5998V21.1706H17.4036V27.6845H21.1443V26.5998H18.4732ZM37.3538 26.6902C36.1778 26.6902 35.2382 25.8285 35.2382 24.4306C35.2382 23.117 36.0419 22.1709 37.3538 22.1709C37.9388 22.1709 38.4765 22.4119 38.8606 22.8036L39.6111 22.0383C39.0379 21.4418 38.2402 21.0803 37.3538 21.0803C35.4864 21.0803 34.1509 22.4662 34.1509 24.4306C34.1509 26.4793 35.5928 27.7809 37.3538 27.7809C38.2402 27.7809 39.0379 27.4193 39.6111 26.8288L38.8606 26.0575C38.4765 26.4492 37.9388 26.6902 37.3538 26.6902ZM9.02411 26.6059H7.95451V24.9789H9.02411C9.02411 24.9789 10.1764 24.9126 10.1764 25.7864C10.1764 26.4974 9.47322 26.6059 9.02411 26.6059ZM7.95451 22.2492H9.02411C9.02411 22.2492 10.0819 22.2071 10.0819 23.0808C10.0819 23.8883 9.02411 23.8883 9.02411 23.8883H7.95451V22.2492ZM10.0819 24.4366C10.6315 24.298 11.1515 23.8641 11.1515 23.0085C11.1515 21.1285 9.02411 21.1706 9.02411 21.1706H6.89673V27.6845H9.02411C9.44959 27.6845 11.2401 27.6061 11.2401 25.8165C11.2401 25.8165 11.2874 24.6897 10.0819 24.4366ZM44.8941 22.2613V21.1706H40.6335V27.6845H44.8941V26.5998H41.7031V24.9669H44.3564V23.8883H41.7031V22.2613H44.8941ZM12.0261 16.7176H12.0084V20.5138H13.078V17.7962H14.1357C14.1357 17.7962 16.2631 17.7962 16.2631 15.8981C16.2631 14 14.1357 14 14.1357 14H12.0084V15.0907H12.0261V16.7176ZM18.4141 17.6335C19.3419 18.2361 20.116 17.9348 20.8902 17.6396L21.0734 17.5672V14H22.1371V17.2539C22.2966 17.2238 22.4621 17.2117 22.6275 17.2117C23.2658 17.2117 23.7562 17.4106 24.2467 17.6094C25.0208 17.9228 25.795 18.2361 27.296 17.2901L27.816 18.1397C25.8895 19.3569 24.8849 18.9471 23.8862 18.5434C23.4844 18.3807 23.0885 18.218 22.6275 18.218C22.468 18.218 22.3025 18.2421 22.1371 18.2783V20.5138H21.0734V18.6398C20.2461 18.9592 19.4069 19.2303 18.4141 18.7905V20.5138H17.3445V14H18.4141V17.6335Z" fill="white"/>
</g>
<path d="M77.5424 19.1008H73.9361V31.7059H71.5018V19.1008H67.8955V17H77.5424V19.1008Z" fill="black"/>
<path d="M83.1827 17H86.0001C87.8633 17 89.2533 17.2871 90.1699 17.8613C90.8461 18.2815 91.3269 18.8137 91.6124 19.458C91.8979 20.1022 92.0406 20.7255 92.0406 21.3277C92.0406 22.3641 91.7176 23.2535 91.0715 23.9958C90.4253 24.7241 89.5763 25.2003 88.5245 25.4244L93.4606 31.7059H90.5305L86.0226 25.6765H85.6169V31.7059H83.1827V17ZM85.6169 19.1008V23.7437H86.3607C86.5711 23.7437 86.7664 23.7367 86.9467 23.7227C87.1421 23.7087 87.4126 23.6597 87.7582 23.5756C88.1188 23.4916 88.4193 23.3725 88.6597 23.2185C88.9002 23.0644 89.118 22.8263 89.3134 22.5042C89.5087 22.1821 89.6064 21.7969 89.6064 21.3487C89.6064 19.8501 88.547 19.1008 86.4283 19.1008H85.6169Z" fill="black"/>
<path d="M99.3133 17H101.748V25.8655C101.748 27.014 101.905 27.8613 102.221 28.4076C102.476 28.8417 102.852 29.1989 103.348 29.479C103.859 29.7591 104.46 29.8992 105.151 29.8992C106.533 29.8992 107.51 29.402 108.081 28.4076C108.397 27.8473 108.554 27 108.554 25.8655V17H110.989V26.4538C110.989 27.9944 110.5 29.2689 109.524 30.2773C108.412 31.4258 106.954 32 105.151 32C103.348 32 101.89 31.4258 100.778 30.2773C99.8016 29.2689 99.3133 27.9944 99.3133 26.4538V17Z" fill="black"/>
<path d="M126.896 17V19.1008H120.63V22.6303H126.715V24.7311H120.63V29.605H126.896V31.7059H118.195V17H126.896Z" fill="black"/>
<path d="M136.896 16.8673H139.387L143.339 27.0153L147.398 16.1301L151.329 27.0153L155.409 16.8673H157.901L151.178 33L147.269 22.2666L143.296 33L136.896 16.8673Z" fill="black"/>
<path d="M172.387 32.0459L170.798 28.3597H164.419L162.765 32.0459H160.274L167.748 16L174.879 32.0459H172.387ZM165.342 26.1913H169.896L167.662 21.074L165.342 26.1913Z" fill="black"/>
<path d="M187.604 19.0357H184.167V32.0459H181.848V19.0357H178.411V16.8673H187.604V19.0357Z" fill="black"/>
<path d="M201.054 16.8673V19.0357H195.083V22.6786H200.882V24.8469H195.083V29.8776H201.054V32.0459H192.764V16.8673H201.054Z" fill="black"/>
<path d="M207.102 16.8673H209.786C211.562 16.8673 212.886 17.1637 213.76 17.7564C214.404 18.1901 214.862 18.7394 215.134 19.4043C215.406 20.0693 215.542 20.7126 215.542 21.3342C215.542 22.4039 215.235 23.3219 214.619 24.088C214.003 24.8397 213.194 25.3312 212.192 25.5625L216.896 32.0459H214.103L209.808 25.8227H209.421V32.0459H207.102V16.8673ZM209.421 19.0357V23.8278H210.13C210.33 23.8278 210.517 23.8206 210.688 23.8061C210.875 23.7917 211.132 23.7411 211.462 23.6543C211.805 23.5676 212.092 23.4447 212.321 23.2857C212.55 23.1267 212.757 22.881 212.944 22.5485C213.13 22.216 213.223 21.8185 213.223 21.3559C213.223 19.8091 212.213 19.0357 210.194 19.0357H209.421Z" fill="black"/>
<defs>
<clipPath id="clip0">
<rect width="38" height="22" fill="white" transform="translate(6.89551 14)"/>
</clipPath>
</defs>
</svg>
