<?xml version="1.0" encoding="UTF-8"?>
<!DOCTYPE svg PUBLIC "-//W3C//DTD SVG 1.1//EN" "http://www.w3.org/Graphics/SVG/1.1/DTD/svg11.dtd">
<svg xmlns="http://www.w3.org/2000/svg" version="1.1" width="333px" height="142px" style="shape-rendering:geometricPrecision; text-rendering:geometricPrecision; image-rendering:optimizeQuality; fill-rule:evenodd; clip-rule:evenodd" xmlns:xlink="http://www.w3.org/1999/xlink">
<g><path style="opacity:0.981" fill="#040404" d="M 106.5,-0.5 C 116.167,-0.5 125.833,-0.5 135.5,-0.5C 152.754,1.9662 160.421,11.9662 158.5,29.5C 151.833,29.5 145.167,29.5 138.5,29.5C 138.737,25.7267 138.237,22.0601 137,18.5C 136.167,16.3333 134.667,14.8333 132.5,14C 125.5,13.3333 118.5,13.3333 111.5,14C 108.272,15.5629 106.105,18.0629 105,21.5C 104.333,40.5 104.333,59.5 105,78.5C 108.333,75.1667 111.667,71.8333 115,68.5C 118.217,71.3805 121.05,74.5471 123.5,78C 114.991,87.8428 105.824,97.0095 96,105.5C 86.2084,96.7097 76.7084,87.543 67.5,78C 70.5527,74.7365 73.7194,71.5698 77,68.5C 80,71.5 83,74.5 86,77.5C 86.1442,56.8105 86.8108,36.1438 88,15.5C 90.9675,6.3596 97.1342,1.02626 106.5,-0.5 Z"/></g>
<g><path style="opacity:0.97" fill="#010101" d="M 137.5,141.5 C 128.167,141.5 118.833,141.5 109.5,141.5C 92.326,138.981 84.326,128.981 85.5,111.5C 92.175,111.334 98.8417,111.5 105.5,112C 106.293,115.411 106.793,118.911 107,122.5C 108.543,124.378 110.376,125.878 112.5,127C 119.167,127.667 125.833,127.667 132.5,127C 136,126.167 138.167,124 139,120.5C 139.667,101.5 139.667,82.5 139,63.5C 136,66.5 133,69.5 130,72.5C 126.833,69.3333 123.667,66.1667 120.5,63C 129.5,54 138.5,45 147.5,36C 148.908,35.6848 150.241,36.0181 151.5,37C 160.086,45.5855 168.752,54.2522 177.5,63C 174.58,66.4274 171.247,69.2608 167.5,71.5C 163.921,69.4288 160.754,66.7621 158,63.5C 157.943,84.8756 157.276,106.209 156,127.5C 154.789,130.759 152.956,133.592 150.5,136C 146.314,138.434 141.98,140.267 137.5,141.5 Z"/></g>
<g><path style="opacity:0.979" fill="#000000" d="M 212.5,65.5 C 223.857,89.1945 234.857,113.194 245.5,137.5C 238.167,138.833 230.833,138.833 223.5,137.5C 221.833,133.5 220.167,129.5 218.5,125.5C 207.167,124.167 195.833,124.167 184.5,125.5C 182.731,129.644 181.064,133.81 179.5,138C 172.144,138.831 164.811,138.665 157.5,137.5C 167.833,114.167 178.167,90.8333 188.5,67.5C 196.657,66.8333 204.657,66.1666 212.5,65.5 Z"/></g>
<g><path style="opacity:0.979" fill="#010101" d="M -0.5,138.5 C -0.5,137.833 -0.5,137.167 -0.5,136.5C 10.3334,113.49 20.6667,90.1568 30.5,66.5C 39.1922,66.1686 47.8589,66.502 56.5,67.5C 66.8163,90.8029 77.1496,114.136 87.5,137.5C 80.1667,138.833 72.8333,138.833 65.5,137.5C 63.8333,133.5 62.1667,129.5 60.5,125.5C 49.1667,124.167 37.8333,124.167 26.5,125.5C 24.8333,129.5 23.1667,133.5 21.5,137.5C 14.1968,138.497 6.86348,138.831 -0.5,138.5 Z"/></g>
<g><path style="opacity:0.977" fill="#000000" d="M 332.5,137.5 C 332.5,137.833 332.5,138.167 332.5,138.5C 324.16,138.666 315.827,138.5 307.5,138C 301.955,130.41 296.288,122.91 290.5,115.5C 284.672,122.834 279.006,130.334 273.5,138C 265.167,138.667 256.833,138.667 248.5,138C 258.121,125.377 268.121,113.044 278.5,101C 269.167,89.6667 259.833,78.3333 250.5,67C 258.833,66.3333 267.167,66.3333 275.5,67C 280.339,73.9972 285.339,80.8306 290.5,87.5C 295.693,80.807 300.693,73.9736 305.5,67C 313.833,66.3333 322.167,66.3333 330.5,67C 320.807,78.225 311.474,89.725 302.5,101.5C 312.176,113.836 322.176,125.836 332.5,137.5 Z"/></g>
<g><path style="opacity:1" fill="#f3f3f3" d="M 42.5,84.5 C 43.4959,84.4142 44.3292,84.7476 45,85.5C 48.0718,93.5508 51.2385,101.551 54.5,109.5C 47.5316,110.497 40.5316,110.83 33.5,110.5C 36.0961,101.712 39.0961,93.0457 42.5,84.5 Z"/></g>
<g><path style="opacity:1" fill="#efefef" d="M 200.5,83.5 C 201.75,83.5774 202.583,84.244 203,85.5C 205.884,93.6022 209.05,101.602 212.5,109.5C 205.167,110.833 197.833,110.833 190.5,109.5C 194.036,100.888 197.37,92.2213 200.5,83.5 Z"/></g>
</svg>
