<?xml version="1.0" encoding="UTF-8"?>
<!DOCTYPE svg PUBLIC "-//W3C//DTD SVG 1.1//EN" "http://www.w3.org/Graphics/SVG/1.1/DTD/svg11.dtd">
<svg xmlns="http://www.w3.org/2000/svg" version="1.1" width="333px" height="477px" style="shape-rendering:geometricPrecision; text-rendering:geometricPrecision; image-rendering:optimizeQuality; fill-rule:evenodd; clip-rule:evenodd" xmlns:xlink="http://www.w3.org/1999/xlink">
<g><path style="opacity:1" fill="#050505" d="M 77.5,-0.5 C 136.833,-0.5 196.167,-0.5 255.5,-0.5C 260.244,0.519724 264.911,1.85306 269.5,3.5C 271.792,5.26708 274.458,6.26708 277.5,6.5C 278.492,6.32842 279.158,6.66175 279.5,7.5C 280.78,8.93127 282.447,9.59794 284.5,9.5C 287.511,10.6693 290.178,12.336 292.5,14.5C 292.973,15.9063 293.973,16.573 295.5,16.5C 296.167,16.5 296.5,16.8333 296.5,17.5C 296.973,18.9063 297.973,19.573 299.5,19.5C 300.5,19.8333 301.167,20.5 301.5,21.5C 302.326,23.2644 303.659,24.5977 305.5,25.5C 307.5,26.8333 309.167,28.5 310.5,30.5C 311.08,32.7488 312.413,34.4154 314.5,35.5C 315.89,36.8993 316.89,38.5659 317.5,40.5C 317.738,42.4044 318.738,43.7377 320.5,44.5C 323.257,48.4164 325.257,52.7497 326.5,57.5C 326.41,60.1522 327.076,62.4855 328.5,64.5C 330.475,70.3747 331.808,76.3747 332.5,82.5C 332.5,86.8333 332.5,91.1667 332.5,95.5C 331.666,100.103 330.666,104.769 329.5,109.5C 327.238,114.286 325.571,119.286 324.5,124.5C 323.341,128.151 321.674,131.485 319.5,134.5C 318.094,134.973 317.427,135.973 317.5,137.5C 316.094,137.973 315.427,138.973 315.5,140.5C 314.094,140.973 313.427,141.973 313.5,143.5C 313.5,144.167 313.167,144.5 312.5,144.5C 311.5,144.833 310.833,145.5 310.5,146.5C 308.547,150.12 305.881,153.12 302.5,155.5C 300.973,155.427 299.973,156.094 299.5,157.5C 296.974,159.418 294.974,161.751 293.5,164.5C 294.035,166.446 295.368,167.446 297.5,167.5C 297.973,168.906 298.973,169.573 300.5,169.5C 300.833,172.5 302.5,174.167 305.5,174.5C 307.167,175.5 308.5,176.833 309.5,178.5C 309.738,180.404 310.738,181.738 312.5,182.5C 312.738,184.404 313.738,185.738 315.5,186.5C 315.738,188.404 316.738,189.738 318.5,190.5C 319.338,190.842 319.672,191.508 319.5,192.5C 319.427,194.027 320.094,195.027 321.5,195.5C 322.736,197.649 323.736,199.982 324.5,202.5C 326.105,208.981 328.105,215.315 330.5,221.5C 331.097,224.941 331.763,228.275 332.5,231.5C 332.5,235.833 332.5,240.167 332.5,244.5C 331.596,245.209 331.263,246.209 331.5,247.5C 329.804,253.302 328.47,259.302 327.5,265.5C 319.639,290.696 303.639,308.696 279.5,319.5C 277.447,319.402 275.78,320.069 274.5,321.5C 273.791,322.404 272.791,322.737 271.5,322.5C 269.214,322.595 267.214,323.262 265.5,324.5C 251.02,328.011 236.353,328.345 221.5,325.5C 219.562,323.837 217.228,323.171 214.5,323.5C 212.898,321.926 210.898,321.259 208.5,321.5C 206.824,319.166 204.491,318.166 201.5,318.5C 199.847,318.34 198.514,317.674 197.5,316.5C 197.027,315.094 196.027,314.427 194.5,314.5C 194.027,313.094 193.027,312.427 191.5,312.5C 191.027,311.094 190.027,310.427 188.5,310.5C 187.738,308.738 186.404,307.738 184.5,307.5C 183.625,305.194 182.292,304.527 180.5,305.5C 180.5,335.5 180.5,365.5 180.5,395.5C 178.538,401.235 177.204,407.235 176.5,413.5C 175.424,418.061 173.757,422.395 171.5,426.5C 170.094,426.973 169.427,427.973 169.5,429.5C 169.34,431.153 168.674,432.486 167.5,433.5C 166.094,433.973 165.427,434.973 165.5,436.5C 163.215,440.727 160.215,444.393 156.5,447.5C 155.167,448.167 154.167,449.167 153.5,450.5C 151.833,452.833 149.833,454.833 147.5,456.5C 145.973,456.427 144.973,457.094 144.5,458.5C 144.5,459.167 144.167,459.5 143.5,459.5C 141.973,459.427 140.973,460.094 140.5,461.5C 135.086,465.54 129.086,468.54 122.5,470.5C 119.215,470.928 116.215,471.928 113.5,473.5C 110.167,474.5 106.833,475.5 103.5,476.5C 94.5,476.5 85.5,476.5 76.5,476.5C 72.9544,475.385 69.2877,474.385 65.5,473.5C 63.8984,471.926 61.8984,471.259 59.5,471.5C 54.0697,469.95 49.0697,467.616 44.5,464.5C 44.0269,463.094 43.0269,462.427 41.5,462.5C 41.0269,461.094 40.0269,460.427 38.5,460.5C 37.7377,458.738 36.4044,457.738 34.5,457.5C 33.0892,455.086 31.0892,453.419 28.5,452.5C 24.1245,449.126 20.4578,445.126 17.5,440.5C 17.573,438.973 16.9063,437.973 15.5,437.5C 15.573,435.973 14.9063,434.973 13.5,434.5C 13.573,432.973 12.9063,431.973 11.5,431.5C 8.53293,427.271 6.53293,422.604 5.5,417.5C 3.81428,410.057 2.14762,402.723 0.5,395.5C 0.67158,394.508 0.338246,393.842 -0.5,393.5C -0.5,389.167 -0.5,384.833 -0.5,380.5C 0.321607,374.728 1.65494,369.061 3.5,363.5C 4.92381,361.485 5.59047,359.152 5.5,356.5C 6.71637,351.738 8.71637,347.405 11.5,343.5C 12.9063,343.027 13.573,342.027 13.5,340.5C 14.9063,340.027 15.573,339.027 15.5,337.5C 17.369,335.966 18.7023,333.966 19.5,331.5C 20.5,331.167 21.1667,330.5 21.5,329.5C 22.1667,328.167 23.1667,327.167 24.5,326.5C 27.5,324.167 30.1667,321.5 32.5,318.5C 34.4044,318.262 35.7377,317.262 36.5,315.5C 37.0577,314.21 38.0577,313.377 39.5,313C 38.944,312.617 38.6107,312.117 38.5,311.5C 37.7377,309.738 36.4044,308.738 34.5,308.5C 32.7607,305.757 30.4274,303.757 27.5,302.5C 23.7881,299.789 20.7881,296.456 18.5,292.5C 18.4456,290.368 17.4456,289.035 15.5,288.5C 15.573,286.973 14.9063,285.973 13.5,285.5C 10.6589,281.151 8.32553,276.484 6.5,271.5C 3.99538,262.494 1.99538,253.494 0.5,244.5C 0.166667,244.5 -0.166667,244.5 -0.5,244.5C -0.5,240.167 -0.5,235.833 -0.5,231.5C 0.333818,226.897 1.33382,222.231 2.5,217.5C 4.7444,212.767 6.41107,207.767 7.5,202.5C 8.65893,198.849 10.3256,195.515 12.5,192.5C 13.9063,192.027 14.573,191.027 14.5,189.5C 14.3284,188.508 14.6618,187.842 15.5,187.5C 18.2948,185.249 20.6281,182.582 22.5,179.5C 22.427,177.973 23.0937,176.973 24.5,176.5C 28.1002,174.57 31.1002,171.903 33.5,168.5C 35.7488,167.92 37.4154,166.587 38.5,164.5C 41.0155,163.14 40.6822,162.14 37.5,161.5C 36.4154,159.413 34.7488,158.08 32.5,157.5C 30.1002,154.097 27.1002,151.43 23.5,149.5C 22.8333,148.5 22.1667,147.5 21.5,146.5C 21.1436,144.81 20.1436,143.81 18.5,143.5C 18.573,141.973 17.9063,140.973 16.5,140.5C 16.573,138.973 15.9063,137.973 14.5,137.5C 14.573,135.973 13.9063,134.973 12.5,134.5C 9.71049,130.584 7.71049,126.251 6.5,121.5C 6.07191,118.215 5.07191,115.215 3.5,112.5C 3.37319,107.849 2.37319,103.515 0.5,99.5C 0.767809,97.901 0.434475,96.5676 -0.5,95.5C -0.5,91.1667 -0.5,86.8333 -0.5,82.5C 0.236789,79.2746 0.903456,75.9412 1.5,72.5C 3.87638,66.367 5.87638,60.0337 7.5,53.5C 7.70732,50.7594 8.70732,48.4261 10.5,46.5C 11.9063,46.0269 12.573,45.0269 12.5,43.5C 12.3284,42.5084 12.6618,41.8417 13.5,41.5C 14.9063,41.0269 15.573,40.0269 15.5,38.5C 17.2624,37.7377 18.2624,36.4044 18.5,34.5C 21.2606,33.4065 22.9272,31.4065 23.5,28.5C 24.5,26.1667 26.1667,24.5 28.5,23.5C 31.4274,22.2427 33.7607,20.2427 35.5,17.5C 37.4044,17.2624 38.7377,16.2624 39.5,14.5C 41.6626,12.9172 43.9959,11.5839 46.5,10.5C 48.9674,10.2451 50.9674,9.24512 52.5,7.5C 52.8417,6.66175 53.5084,6.32842 54.5,6.5C 57.6358,6.39685 60.3025,5.39685 62.5,3.5C 65.4951,3.70621 68.1617,3.03954 70.5,1.5C 72.8333,0.833333 75.1667,0.166667 77.5,-0.5 Z M 81.5,29.5 C 104.908,29.1774 128.242,29.5108 151.5,30.5C 151.667,69.5014 151.5,108.501 151,147.5C 129.575,148.494 108.075,148.827 86.5,148.5C 85.5,148.5 84.5,148.5 83.5,148.5C 78.2764,147.194 72.9431,145.861 67.5,144.5C 66.4863,143.326 65.153,142.66 63.5,142.5C 59.1717,139.841 54.8383,137.174 50.5,134.5C 50.1898,132.856 49.1898,131.856 47.5,131.5C 46.2427,128.573 44.2427,126.239 41.5,124.5C 41.573,122.973 40.9063,121.973 39.5,121.5C 37.5,117.5 35.5,113.5 33.5,109.5C 33.405,107.214 32.7384,105.214 31.5,103.5C 31.7678,101.901 31.4345,100.568 30.5,99.5C 29.1057,90.7726 29.4391,82.106 31.5,73.5C 32.7384,71.7857 33.405,69.7857 33.5,67.5C 39.6438,53.6872 49.3105,43.0206 62.5,35.5C 64.153,35.3404 65.4863,34.6737 66.5,33.5C 71.5202,32.1585 76.5202,30.8252 81.5,29.5 Z M 249.5,29.5 C 261.902,31.5362 272.902,36.5362 282.5,44.5C 283.5,46.1667 284.833,47.5 286.5,48.5C 286.833,49.5 287.5,50.1667 288.5,50.5C 289.026,52.2303 290.026,53.5637 291.5,54.5C 293.5,58.1667 295.5,61.8333 297.5,65.5C 297.402,67.5529 298.069,69.2196 299.5,70.5C 302.3,80.3638 302.967,90.3638 301.5,100.5C 299.928,103.215 298.928,106.215 298.5,109.5C 297.16,112.529 295.827,115.529 294.5,118.5C 292.75,119.659 291.75,121.326 291.5,123.5C 289.086,124.911 287.419,126.911 286.5,129.5C 285.167,130.167 284.167,131.167 283.5,132.5C 280.911,133.419 278.911,135.086 277.5,137.5C 275.973,137.427 274.973,138.094 274.5,139.5C 273.508,139.328 272.842,139.662 272.5,140.5C 270.181,140.992 268.181,141.992 266.5,143.5C 263.603,144.129 260.936,145.129 258.5,146.5C 254.454,146.952 250.454,147.619 246.5,148.5C 224.591,148.827 202.758,148.494 181,147.5C 180.5,108.501 180.333,69.5014 180.5,30.5C 203.425,29.5109 226.425,29.1776 249.5,29.5 Z M 83.5,178.5 C 106.242,178.178 128.908,178.511 151.5,179.5C 151.5,218.5 151.5,257.5 151.5,296.5C 129.242,297.489 106.908,297.822 84.5,297.5C 80.5236,296.705 76.5236,296.038 72.5,295.5C 70.1098,293.98 67.4432,292.98 64.5,292.5C 64.1583,291.662 63.4916,291.328 62.5,291.5C 60.8816,289.684 58.8816,288.351 56.5,287.5C 52.2328,284.573 48.2328,281.24 44.5,277.5C 43.9202,275.251 42.5869,273.585 40.5,272.5C 40.573,270.973 39.9063,269.973 38.5,269.5C 37.3411,265.849 35.6744,262.515 33.5,259.5C 32.8699,255.952 31.8699,252.619 30.5,249.5C 30.5,248.833 30.5,248.167 30.5,247.5C 29.2397,240.838 29.2397,234.171 30.5,227.5C 31.3007,225.958 31.634,224.292 31.5,222.5C 33.0739,220.898 33.7406,218.898 33.5,216.5C 36.0354,211.281 39.0354,206.281 42.5,201.5C 43.9063,201.027 44.573,200.027 44.5,198.5C 48.565,194.428 52.8983,190.762 57.5,187.5C 60.3311,186.921 62.6644,185.588 64.5,183.5C 67.4432,183.02 70.1098,182.02 72.5,180.5C 76.2577,180.152 79.9244,179.485 83.5,178.5 Z M 269.5,184.5 C 269.973,185.906 270.973,186.573 272.5,186.5C 272.842,187.338 273.508,187.672 274.5,187.5C 274.973,188.906 275.973,189.573 277.5,189.5C 277.973,190.906 278.973,191.573 280.5,191.5C 282.167,193.833 284.167,195.833 286.5,197.5C 287.124,199.754 288.457,201.421 290.5,202.5C 292.862,206.568 295.195,210.568 297.5,214.5C 297.402,216.553 298.069,218.22 299.5,219.5C 299.721,222.067 300.388,224.401 301.5,226.5C 302.687,233.509 302.687,240.509 301.5,247.5C 300.677,250.461 300.01,253.461 299.5,256.5C 298.069,257.78 297.402,259.447 297.5,261.5C 296.559,263.05 295.893,264.716 295.5,266.5C 294.094,266.973 293.427,267.973 293.5,269.5C 292.094,269.973 291.427,270.973 291.5,272.5C 289.738,273.262 288.738,274.596 288.5,276.5C 285.5,278.833 282.833,281.5 280.5,284.5C 278.223,285.449 276.223,286.782 274.5,288.5C 272.973,288.427 271.973,289.094 271.5,290.5C 270.508,290.328 269.842,290.662 269.5,291.5C 265.873,292.321 262.54,293.654 259.5,295.5C 248.901,297.711 238.234,298.045 227.5,296.5C 225.401,295.388 223.067,294.721 220.5,294.5C 218.574,292.707 216.241,291.707 213.5,291.5C 213.027,290.094 212.027,289.427 210.5,289.5C 206.191,286.198 201.857,282.864 197.5,279.5C 196.243,276.573 194.243,274.239 191.5,272.5C 191.573,270.973 190.906,269.973 189.5,269.5C 188.105,265.71 186.438,262.043 184.5,258.5C 184.405,256.214 183.738,254.214 182.5,252.5C 181.978,247.467 181.311,242.467 180.5,237.5C 181.521,233.02 182.187,228.353 182.5,223.5C 183.738,221.786 184.405,219.786 184.5,217.5C 187.421,210.648 191.087,204.315 195.5,198.5C 197.5,198.5 198.5,197.5 198.5,195.5C 202.524,192.469 206.524,189.469 210.5,186.5C 213.485,185.674 216.151,184.341 218.5,182.5C 235.749,176.75 252.749,177.417 269.5,184.5 Z M 85.5,327.5 C 107.409,327.173 129.242,327.506 151,328.5C 151.755,350.848 151.589,373.182 150.5,395.5C 149.699,397.042 149.366,398.708 149.5,400.5C 148.262,402.214 147.595,404.214 147.5,406.5C 146.637,408.421 145.971,410.421 145.5,412.5C 144.094,412.973 143.427,413.973 143.5,415.5C 142.662,415.842 142.328,416.508 142.5,417.5C 140.674,419.147 139.34,421.147 138.5,423.5C 134.5,426.833 130.833,430.5 127.5,434.5C 125.973,434.427 124.973,435.094 124.5,436.5C 122.973,436.427 121.973,437.094 121.5,438.5C 119.847,438.66 118.514,439.326 117.5,440.5C 113.013,441.992 108.68,443.658 104.5,445.5C 96.5288,446.323 88.5288,446.656 80.5,446.5C 75.9907,445.002 71.324,443.668 66.5,442.5C 64.8185,440.992 62.8185,439.992 60.5,439.5C 58.8816,437.684 56.8816,436.351 54.5,435.5C 52.8577,434.197 51.1911,432.864 49.5,431.5C 47.8333,429.167 45.8333,427.167 43.5,425.5C 42.9202,423.251 41.5869,421.585 39.5,420.5C 39.6716,419.508 39.3382,418.842 38.5,418.5C 38.573,416.973 37.9063,415.973 36.5,415.5C 35.6792,411.873 34.3459,408.54 32.5,405.5C 32.2785,402.933 31.6118,400.599 30.5,398.5C 30.5,398.167 30.5,397.833 30.5,397.5C 29.8363,392.527 29.5029,387.527 29.5,382.5C 30.7838,378.015 31.7838,373.349 32.5,368.5C 35.2962,362.245 38.6295,356.245 42.5,350.5C 44.2624,349.738 45.2624,348.404 45.5,346.5C 46.1667,346.5 46.5,346.167 46.5,345.5C 48.5,345.5 49.5,344.5 49.5,342.5C 54.1717,339.492 58.8384,336.492 63.5,333.5C 65.153,333.34 66.4863,332.674 67.5,331.5C 69.7857,331.405 71.7857,330.738 73.5,329.5C 77.5815,329.108 81.5815,328.442 85.5,327.5 Z"/></g>
<g><path style="opacity:0.988" fill="#616161" d="M 70.5,1.5 C 68.1617,3.03954 65.4951,3.70621 62.5,3.5C 64.9052,2.2318 67.5718,1.56513 70.5,1.5 Z"/></g>
<g><path style="opacity:0.424" fill="#7f7f7f" d="M 62.5,3.5 C 60.3025,5.39685 57.6358,6.39685 54.5,6.5C 56.7916,4.73292 59.4582,3.73292 62.5,3.5 Z"/></g>
<g><path style="opacity:0.463" fill="#888888" d="M 269.5,3.5 C 272.542,3.73292 275.208,4.73292 277.5,6.5C 274.458,6.26708 271.792,5.26708 269.5,3.5 Z"/></g>
<g><path style="opacity:0.431" fill="#8f8f8f" d="M 279.5,7.5 C 281.553,7.40206 283.22,8.06873 284.5,9.5C 282.447,9.59794 280.78,8.93127 279.5,7.5 Z"/></g>
<g><path style="opacity:0.784" fill="#696969" d="M 52.5,7.5 C 50.9674,9.24512 48.9674,10.2451 46.5,10.5C 48.0326,8.75488 50.0326,7.75488 52.5,7.5 Z"/></g>
<g><path style="opacity:0.02" fill="#b9b9b9" d="M 292.5,14.5 C 294.027,14.427 295.027,15.0937 295.5,16.5C 293.973,16.573 292.973,15.9063 292.5,14.5 Z"/></g>
<g><path style="opacity:0.514" fill="#959595" d="M 39.5,14.5 C 38.7377,16.2624 37.4044,17.2624 35.5,17.5C 36.2623,15.7376 37.5956,14.7376 39.5,14.5 Z"/></g>
<g><path style="opacity:0.02" fill="#b7b7b7" d="M 296.5,17.5 C 298.027,17.427 299.027,18.0937 299.5,19.5C 297.973,19.573 296.973,18.9063 296.5,17.5 Z"/></g>
<g><path style="opacity:0.835" fill="#6b6b6b" d="M 35.5,17.5 C 33.7607,20.2427 31.4274,22.2427 28.5,23.5C 30.2393,20.7573 32.5726,18.7573 35.5,17.5 Z"/></g>
<g><path style="opacity:0.443" fill="#8f8f8f" d="M 301.5,21.5 C 303.773,21.9568 305.106,23.2901 305.5,25.5C 303.659,24.5977 302.326,23.2644 301.5,21.5 Z"/></g>
<g><path style="opacity:0.309" fill="#9e9e9e" d="M 81.5,29.5 C 104.661,28.5025 127.994,28.1691 151.5,28.5C 151.5,29.1667 151.5,29.8333 151.5,30.5C 128.242,29.5108 104.908,29.1774 81.5,29.5 Z"/></g>
<g><path style="opacity:0.368" fill="#9e9e9e" d="M 180.5,28.5 C 203.673,28.1692 226.673,28.5025 249.5,29.5C 226.425,29.1776 203.425,29.5109 180.5,30.5C 180.5,29.8333 180.5,29.1667 180.5,28.5 Z"/></g>
<g><path style="opacity:1" fill="#4b4b4b" d="M 23.5,28.5 C 22.9272,31.4065 21.2606,33.4065 18.5,34.5C 19.4194,31.9108 21.086,29.9108 23.5,28.5 Z"/></g>
<g><path style="opacity:0.102" fill="#a1a1a1" d="M 66.5,33.5 C 65.4863,34.6737 64.153,35.3404 62.5,35.5C 63.287,33.8958 64.6203,33.2291 66.5,33.5 Z"/></g>
<g><path style="opacity:0.392" fill="#949494" d="M 310.5,30.5 C 312.587,31.5846 313.92,33.2512 314.5,35.5C 312.413,34.4154 311.08,32.7488 310.5,30.5 Z"/></g>
<g><path style="opacity:0.71" fill="#777777" d="M 18.5,34.5 C 18.2624,36.4044 17.2624,37.7377 15.5,38.5C 15.7376,36.5956 16.7376,35.2623 18.5,34.5 Z"/></g>
<g><path style="opacity:0.424" fill="#969696" d="M 15.5,38.5 C 15.573,40.0269 14.9063,41.0269 13.5,41.5C 13.427,39.9731 14.0937,38.9731 15.5,38.5 Z"/></g>
<g><path style="opacity:0.948" fill="#303030" d="M 151.5,28.5 C 152.665,68.3312 152.831,108.331 152,148.5C 130.069,149.831 108.236,149.831 86.5,148.5C 108.075,148.827 129.575,148.494 151,147.5C 151.5,108.501 151.667,69.5014 151.5,30.5C 151.5,29.8333 151.5,29.1667 151.5,28.5 Z"/></g>
<g><path style="opacity:0.639" fill="#7f7f7f" d="M 317.5,40.5 C 319.262,41.2623 320.262,42.5956 320.5,44.5C 318.738,43.7377 317.738,42.4044 317.5,40.5 Z"/></g>
<g><path style="opacity:0.867" fill="#818181" d="M 282.5,44.5 C 284.833,44.8333 286.167,46.1667 286.5,48.5C 284.833,47.5 283.5,46.1667 282.5,44.5 Z"/></g>
<g><path style="opacity:0.38" fill="#989898" d="M 12.5,43.5 C 12.573,45.0269 11.9063,46.0269 10.5,46.5C 10.427,44.9731 11.0937,43.9731 12.5,43.5 Z"/></g>
<g><path style="opacity:1" fill="#686868" d="M 288.5,50.5 C 290.446,51.0347 291.446,52.368 291.5,54.5C 290.026,53.5637 289.026,52.2303 288.5,50.5 Z"/></g>
<g><path style="opacity:1" fill="#5a5a5a" d="M 7.5,53.5 C 5.87638,60.0337 3.87638,66.367 1.5,72.5C 2.32406,65.6988 4.32406,59.3655 7.5,53.5 Z"/></g>
<g><path style="opacity:0.824" fill="#767676" d="M 326.5,57.5 C 327.924,59.5145 328.59,61.8478 328.5,64.5C 327.076,62.4855 326.41,60.1522 326.5,57.5 Z"/></g>
<g><path style="opacity:0.31" fill="#b0b0b0" d="M 297.5,65.5 C 298.931,66.7804 299.598,68.4471 299.5,70.5C 298.069,69.2196 297.402,67.5529 297.5,65.5 Z"/></g>
<g><path style="opacity:0.651" fill="#7e7e7e" d="M 33.5,67.5 C 33.405,69.7857 32.7384,71.7857 31.5,73.5C 31.2594,71.1016 31.9261,69.1016 33.5,67.5 Z"/></g>
<g><path style="opacity:0.954" fill="#2d2d2d" d="M 180.5,28.5 C 180.5,29.1667 180.5,29.8333 180.5,30.5C 180.333,69.5014 180.5,108.501 181,147.5C 202.758,148.494 224.591,148.827 246.5,148.5C 224.431,149.831 202.264,149.831 180,148.5C 179.169,108.331 179.335,68.3312 180.5,28.5 Z"/></g>
<g><path style="opacity:0.835" fill="#525252" d="M 31.5,73.5 C 29.4391,82.106 29.1057,90.7726 30.5,99.5C 29.0296,96.114 28.3629,92.4473 28.5,88.5C 28.3705,83.1465 29.3705,78.1465 31.5,73.5 Z"/></g>
<g><path style="opacity:0.82" fill="#606060" d="M 299.5,70.5 C 300.927,72.1484 301.76,74.1484 302,76.5C 304.14,84.6983 303.974,92.6983 301.5,100.5C 302.967,90.3638 302.3,80.3638 299.5,70.5 Z"/></g>
<g><path style="opacity:0.576" fill="#727272" d="M 0.5,99.5 C 2.37319,103.515 3.37319,107.849 3.5,112.5C 1.88157,108.425 0.881572,104.092 0.5,99.5 Z"/></g>
<g><path style="opacity:0.69" fill="#929292" d="M 31.5,103.5 C 32.7384,105.214 33.405,107.214 33.5,109.5C 31.9261,107.898 31.2594,105.898 31.5,103.5 Z"/></g>
<g><path style="opacity:0.702" fill="#7e7e7e" d="M 301.5,100.5 C 301.868,104.044 300.868,107.044 298.5,109.5C 298.928,106.215 299.928,103.215 301.5,100.5 Z"/></g>
<g><path style="opacity:0.153" fill="#858585" d="M 3.5,112.5 C 5.07191,115.215 6.07191,118.215 6.5,121.5C 4.52751,118.916 3.52751,115.916 3.5,112.5 Z"/></g>
<g><path style="opacity:1" fill="#5b5b5b" d="M 329.5,109.5 C 328.806,114.915 327.14,119.915 324.5,124.5C 325.571,119.286 327.238,114.286 329.5,109.5 Z"/></g>
<g><path style="opacity:0.71" fill="#8d8d8d" d="M 39.5,121.5 C 40.9063,121.973 41.573,122.973 41.5,124.5C 40.0937,124.027 39.427,123.027 39.5,121.5 Z"/></g>
<g><path style="opacity:1" fill="#505050" d="M 294.5,118.5 C 294.408,120.848 293.408,122.514 291.5,123.5C 291.75,121.326 292.75,119.659 294.5,118.5 Z"/></g>
<g><path style="opacity:0.835" fill="#8d8d8d" d="M 41.5,124.5 C 44.2427,126.239 46.2427,128.573 47.5,131.5C 44.7573,129.761 42.7573,127.427 41.5,124.5 Z"/></g>
<g><path style="opacity:0.537" fill="#828282" d="M 291.5,123.5 C 290.581,126.089 288.914,128.089 286.5,129.5C 287.419,126.911 289.086,124.911 291.5,123.5 Z"/></g>
<g><path style="opacity:0.682" fill="#6d6d6d" d="M 47.5,131.5 C 49.1898,131.856 50.1898,132.856 50.5,134.5C 48.8102,134.144 47.8102,133.144 47.5,131.5 Z"/></g>
<g><path style="opacity:0.898" fill="#6a6a6a" d="M 283.5,132.5 C 282.089,134.914 280.089,136.581 277.5,137.5C 278.911,135.086 280.911,133.419 283.5,132.5 Z"/></g>
<g><path style="opacity:0.196" fill="#ababab" d="M 12.5,134.5 C 13.9063,134.973 14.573,135.973 14.5,137.5C 13.0937,137.027 12.427,136.027 12.5,134.5 Z"/></g>
<g><path style="opacity:0.216" fill="#a8a8a8" d="M 319.5,134.5 C 319.573,136.027 318.906,137.027 317.5,137.5C 317.427,135.973 318.094,134.973 319.5,134.5 Z"/></g>
<g><path style="opacity:0.855" fill="#6f6f6f" d="M 277.5,137.5 C 277.027,138.906 276.027,139.573 274.5,139.5C 274.973,138.094 275.973,137.427 277.5,137.5 Z"/></g>
<g><path style="opacity:0.227" fill="#a3a3a3" d="M 14.5,137.5 C 15.9063,137.973 16.573,138.973 16.5,140.5C 15.0937,140.027 14.427,139.027 14.5,137.5 Z"/></g>
<g><path style="opacity:0.216" fill="#a5a5a5" d="M 317.5,137.5 C 317.573,139.027 316.906,140.027 315.5,140.5C 315.427,138.973 316.094,137.973 317.5,137.5 Z"/></g>
<g><path style="opacity:0.071" fill="#ababab" d="M 16.5,140.5 C 17.9063,140.973 18.573,141.973 18.5,143.5C 17.0937,143.027 16.427,142.027 16.5,140.5 Z"/></g>
<g><path style="opacity:0.063" fill="#a9a9a9" d="M 315.5,140.5 C 315.573,142.027 314.906,143.027 313.5,143.5C 313.427,141.973 314.094,140.973 315.5,140.5 Z"/></g>
<g><path style="opacity:1" fill="#4e4e4e" d="M 272.5,140.5 C 271.393,142.969 269.393,143.969 266.5,143.5C 268.181,141.992 270.181,140.992 272.5,140.5 Z"/></g>
<g><path style="opacity:0.545" fill="#888888" d="M 63.5,142.5 C 65.153,142.66 66.4863,143.326 67.5,144.5C 65.6203,144.771 64.287,144.104 63.5,142.5 Z"/></g>
<g><path style="opacity:0.514" fill="#888888" d="M 18.5,143.5 C 20.1436,143.81 21.1436,144.81 21.5,146.5C 19.8564,146.19 18.8564,145.19 18.5,143.5 Z"/></g>
<g><path style="opacity:0.875" fill="#686868" d="M 266.5,143.5 C 264.383,145.655 261.716,146.655 258.5,146.5C 260.936,145.129 263.603,144.129 266.5,143.5 Z"/></g>
<g><path style="opacity:0.012" fill="#b1b1b1" d="M 312.5,144.5 C 312.5,145.833 311.833,146.5 310.5,146.5C 310.833,145.5 311.5,144.833 312.5,144.5 Z"/></g>
<g><path style="opacity:1" fill="#5b5b5b" d="M 67.5,144.5 C 72.9431,145.861 78.2764,147.194 83.5,148.5C 77.527,149.258 72.1937,147.925 67.5,144.5 Z"/></g>
<g><path style="opacity:0.875" fill="#868686" d="M 23.5,149.5 C 27.1002,151.43 30.1002,154.097 32.5,157.5C 28.8998,155.57 25.8998,152.903 23.5,149.5 Z"/></g>
<g><path style="opacity:0.031" fill="#b3b3b3" d="M 302.5,155.5 C 302.027,156.906 301.027,157.573 299.5,157.5C 299.973,156.094 300.973,155.427 302.5,155.5 Z"/></g>
<g><path style="opacity:0.392" fill="#8a8a8a" d="M 32.5,157.5 C 34.7488,158.08 36.4154,159.413 37.5,161.5C 35.2512,160.92 33.5846,159.587 32.5,157.5 Z"/></g>
<g><path style="opacity:0.063" fill="#a0a0a0" d="M 37.5,161.5 C 40.6822,162.14 41.0155,163.14 38.5,164.5C 38.4431,163.391 38.1098,162.391 37.5,161.5 Z"/></g>
<g><path style="opacity:1" fill="#6a6a6a" d="M 293.5,164.5 C 295.23,165.026 296.564,166.026 297.5,167.5C 295.368,167.446 294.035,166.446 293.5,164.5 Z"/></g>
<g><path style="opacity:0.937" fill="#707070" d="M 38.5,164.5 C 37.4154,166.587 35.7488,167.92 33.5,168.5C 34.5846,166.413 36.2512,165.08 38.5,164.5 Z"/></g>
<g><path style="opacity:0.02" fill="#b7b7b7" d="M 297.5,167.5 C 299.027,167.427 300.027,168.094 300.5,169.5C 298.973,169.573 297.973,168.906 297.5,167.5 Z"/></g>
<g><path style="opacity:0.875" fill="#5a5a5a" d="M 300.5,169.5 C 302.5,170.833 304.167,172.5 305.5,174.5C 302.5,174.167 300.833,172.5 300.5,169.5 Z"/></g>
<g><path style="opacity:0.988" fill="#5f5f5f" d="M 33.5,168.5 C 31.1002,171.903 28.1002,174.57 24.5,176.5C 26.8998,173.097 29.8998,170.43 33.5,168.5 Z"/></g>
<g><path style="opacity:0.623" fill="#6a6a6a" d="M 83.5,178.5 C 94.6617,177.833 105.995,177.5 117.5,177.5C 129.187,177.501 140.52,178.168 151.5,179.5C 128.908,178.511 106.242,178.178 83.5,178.5 Z"/></g>
<g><path style="opacity:0.773" fill="#8f8f8f" d="M 309.5,178.5 C 311.262,179.262 312.262,180.596 312.5,182.5C 310.738,181.738 309.738,180.404 309.5,178.5 Z"/></g>
<g><path style="opacity:0.525" fill="#7e7e7e" d="M 72.5,180.5 C 70.1098,182.02 67.4432,183.02 64.5,183.5C 66.6845,181.415 69.3511,180.415 72.5,180.5 Z"/></g>
<g><path style="opacity:0.412" fill="#9e9e9e" d="M 218.5,182.5 C 216.151,184.341 213.485,185.674 210.5,186.5C 212.579,184.127 215.246,182.794 218.5,182.5 Z"/></g>
<g><path style="opacity:0.906" fill="#6d6d6d" d="M 312.5,182.5 C 314.262,183.262 315.262,184.596 315.5,186.5C 313.738,185.738 312.738,184.404 312.5,182.5 Z"/></g>
<g><path style="opacity:0.361" fill="#9a9a9a" d="M 64.5,183.5 C 62.6644,185.588 60.3311,186.921 57.5,187.5C 59.3356,185.412 61.6689,184.079 64.5,183.5 Z"/></g>
<g><path style="opacity:0.545" fill="#929292" d="M 22.5,179.5 C 20.6281,182.582 18.2948,185.249 15.5,187.5C 16.412,185.405 17.5787,183.405 19,181.5C 19.8159,180.177 20.9826,179.511 22.5,179.5 Z"/></g>
<g><path style="opacity:0.404" fill="#979797" d="M 269.5,184.5 C 271.027,184.427 272.027,185.094 272.5,186.5C 270.973,186.573 269.973,185.906 269.5,184.5 Z"/></g>
<g><path style="opacity:0.412" fill="#9b9b9b" d="M 274.5,187.5 C 276.027,187.427 277.027,188.094 277.5,189.5C 275.973,189.573 274.973,188.906 274.5,187.5 Z"/></g>
<g><path style="opacity:0.62" fill="#8a8a8a" d="M 315.5,186.5 C 317.262,187.262 318.262,188.596 318.5,190.5C 316.738,189.738 315.738,188.404 315.5,186.5 Z"/></g>
<g><path style="opacity:0.835" fill="#777777" d="M 277.5,189.5 C 279.027,189.427 280.027,190.094 280.5,191.5C 278.973,191.573 277.973,190.906 277.5,189.5 Z"/></g>
<g><path style="opacity:0.38" fill="#999999" d="M 14.5,189.5 C 14.573,191.027 13.9063,192.027 12.5,192.5C 12.427,190.973 13.0937,189.973 14.5,189.5 Z"/></g>
<g><path style="opacity:1" fill="#575757" d="M 280.5,191.5 C 283.5,192.5 285.5,194.5 286.5,197.5C 284.167,195.833 282.167,193.833 280.5,191.5 Z"/></g>
<g><path style="opacity:0.31" fill="#a2a2a2" d="M 319.5,192.5 C 320.906,192.973 321.573,193.973 321.5,195.5C 320.094,195.027 319.427,194.027 319.5,192.5 Z"/></g>
<g><path style="opacity:0.031" fill="#b7b7b7" d="M 198.5,195.5 C 198.5,197.5 197.5,198.5 195.5,198.5C 196.167,197.167 197.167,196.167 198.5,195.5 Z"/></g>
<g><path style="opacity:0.012" fill="#b6b6b6" d="M 44.5,198.5 C 44.573,200.027 43.9063,201.027 42.5,201.5C 42.427,199.973 43.0937,198.973 44.5,198.5 Z"/></g>
<g><path style="opacity:0.576" fill="#858585" d="M 286.5,197.5 C 288.531,198.539 289.864,200.205 290.5,202.5C 288.457,201.421 287.124,199.754 286.5,197.5 Z"/></g>
<g><path style="opacity:1" fill="#5f5f5f" d="M 7.5,202.5 C 6.41107,207.767 4.7444,212.767 2.5,217.5C 3.19382,212.085 4.86048,207.085 7.5,202.5 Z"/></g>
<g><path style="opacity:1" fill="#5a5a5a" d="M 324.5,202.5 C 327.676,208.365 329.676,214.699 330.5,221.5C 328.105,215.315 326.105,208.981 324.5,202.5 Z"/></g>
<g><path style="opacity:0.341" fill="#a4a4a4" d="M 297.5,214.5 C 298.931,215.78 299.598,217.447 299.5,219.5C 298.069,218.22 297.402,216.553 297.5,214.5 Z"/></g>
<g><path style="opacity:0.094" fill="#aaaaaa" d="M 33.5,216.5 C 33.7406,218.898 33.0739,220.898 31.5,222.5C 31.595,220.214 32.2616,218.214 33.5,216.5 Z"/></g>
<g><path style="opacity:0.627" fill="#858585" d="M 184.5,217.5 C 184.405,219.786 183.738,221.786 182.5,223.5C 182.259,221.102 182.926,219.102 184.5,217.5 Z"/></g>
<g><path style="opacity:0.525" fill="#818181" d="M 182.5,223.5 C 182.187,228.353 181.521,233.02 180.5,237.5C 180.123,232.547 180.789,227.881 182.5,223.5 Z"/></g>
<g><path style="opacity:0.867" fill="#515151" d="M 30.5,227.5 C 29.2397,234.171 29.2397,240.838 30.5,247.5C 27.8333,240.833 27.8333,234.167 30.5,227.5 Z"/></g>
<g><path style="opacity:0.816" fill="#5b5b5b" d="M 301.5,226.5 C 304.048,233.517 304.048,240.517 301.5,247.5C 302.687,240.509 302.687,233.509 301.5,226.5 Z"/></g>
<g><path style="opacity:0.988" fill="#656565" d="M 30.5,249.5 C 31.8699,252.619 32.8699,255.952 33.5,259.5C 31.32,256.619 30.32,253.286 30.5,249.5 Z"/></g>
<g><path style="opacity:0.475" fill="#7c7c7c" d="M 0.5,244.5 C 1.99538,253.494 3.99538,262.494 6.5,271.5C 2.47571,263.057 0.475713,254.057 0.5,244.5 Z"/></g>
<g><path style="opacity:0.506" fill="#777777" d="M 331.5,247.5 C 331.296,253.866 329.963,259.866 327.5,265.5C 328.47,259.302 329.804,253.302 331.5,247.5 Z"/></g>
<g><path style="opacity:1" fill="#666666" d="M 182.5,252.5 C 183.738,254.214 184.405,256.214 184.5,258.5C 182.72,257.01 182.054,255.01 182.5,252.5 Z"/></g>
<g><path style="opacity:0.094" fill="#b3b3b3" d="M 299.5,256.5 C 299.598,258.553 298.931,260.22 297.5,261.5C 297.402,259.447 298.069,257.78 299.5,256.5 Z"/></g>
<g><path style="opacity:0.627" fill="#707070" d="M 295.5,266.5 C 295.573,268.027 294.906,269.027 293.5,269.5C 293.427,267.973 294.094,266.973 295.5,266.5 Z"/></g>
<g><path style="opacity:0.608" fill="#777777" d="M 38.5,269.5 C 39.9063,269.973 40.573,270.973 40.5,272.5C 39.0937,272.027 38.427,271.027 38.5,269.5 Z"/></g>
<g><path style="opacity:0.71" fill="#696969" d="M 189.5,269.5 C 190.906,269.973 191.573,270.973 191.5,272.5C 190.094,272.027 189.427,271.027 189.5,269.5 Z"/></g>
<g><path style="opacity:0.537" fill="#818181" d="M 293.5,269.5 C 293.573,271.027 292.906,272.027 291.5,272.5C 291.427,270.973 292.094,269.973 293.5,269.5 Z"/></g>
<g><path style="opacity:0.671" fill="#828282" d="M 291.5,272.5 C 291.262,274.404 290.262,275.738 288.5,276.5C 288.738,274.596 289.738,273.262 291.5,272.5 Z"/></g>
<g><path style="opacity:0.576" fill="#898989" d="M 40.5,272.5 C 42.5869,273.585 43.9202,275.251 44.5,277.5C 42.4131,276.415 41.0798,274.749 40.5,272.5 Z"/></g>
<g><path style="opacity:0.537" fill="#8e8e8e" d="M 191.5,272.5 C 194.243,274.239 196.243,276.573 197.5,279.5C 194.757,277.761 192.757,275.427 191.5,272.5 Z"/></g>
<g><path style="opacity:0.886" fill="#575757" d="M 288.5,276.5 C 286.833,280.167 284.167,282.833 280.5,284.5C 282.833,281.5 285.5,278.833 288.5,276.5 Z"/></g>
<g><path style="opacity:0.043" fill="#b6b6b6" d="M 13.5,285.5 C 14.9063,285.973 15.573,286.973 15.5,288.5C 14.0937,288.027 13.427,287.027 13.5,285.5 Z"/></g>
<g><path style="opacity:0.988" fill="#6d6d6d" d="M 15.5,288.5 C 17.4456,289.035 18.4456,290.368 18.5,292.5C 17.0256,291.564 16.0256,290.23 15.5,288.5 Z"/></g>
<g><path style="opacity:0.937" fill="#838383" d="M 56.5,287.5 C 58.8816,288.351 60.8816,289.684 62.5,291.5C 59.733,291.13 57.733,289.796 56.5,287.5 Z"/></g>
<g><path style="opacity:0.69" fill="#888888" d="M 274.5,288.5 C 274.027,289.906 273.027,290.573 271.5,290.5C 271.973,289.094 272.973,288.427 274.5,288.5 Z"/></g>
<g><path style="opacity:0.267" fill="#a3a3a3" d="M 210.5,289.5 C 212.027,289.427 213.027,290.094 213.5,291.5C 211.973,291.573 210.973,290.906 210.5,289.5 Z"/></g>
<g><path style="opacity:0.38" fill="#919191" d="M 213.5,291.5 C 216.241,291.707 218.574,292.707 220.5,294.5C 217.759,294.293 215.426,293.293 213.5,291.5 Z"/></g>
<g><path style="opacity:0.494" fill="#838383" d="M 64.5,292.5 C 67.4432,292.98 70.1098,293.98 72.5,295.5C 69.3511,295.585 66.6845,294.585 64.5,292.5 Z"/></g>
<g><path style="opacity:0.906" fill="#5f5f5f" d="M 269.5,291.5 C 266.808,294.181 263.475,295.514 259.5,295.5C 262.54,293.654 265.873,292.321 269.5,291.5 Z"/></g>
<g><path style="opacity:0.835" fill="#676767" d="M 220.5,294.5 C 223.067,294.721 225.401,295.388 227.5,296.5C 224.772,296.829 222.438,296.163 220.5,294.5 Z"/></g>
<g><path style="opacity:0.536" fill="#757575" d="M 151.5,296.5 C 140.687,297.832 129.521,298.499 118,298.5C 106.662,298.5 95.4949,298.167 84.5,297.5C 106.908,297.822 129.242,297.489 151.5,296.5 Z"/></g>
<g><path style="opacity:0.929" fill="#808080" d="M 27.5,302.5 C 30.4274,303.757 32.7607,305.757 34.5,308.5C 31.5726,307.243 29.2393,305.243 27.5,302.5 Z"/></g>
<g><path style="opacity:0.576" fill="#909090" d="M 180.5,305.5 C 182.292,304.527 183.625,305.194 184.5,307.5C 182.938,307.267 181.605,306.6 180.5,305.5 Z"/></g>
<g><path style="opacity:0.875" fill="#797979" d="M 184.5,307.5 C 186.404,307.738 187.738,308.738 188.5,310.5C 186.596,310.262 185.262,309.262 184.5,307.5 Z"/></g>
<g><path style="opacity:0.545" fill="#8c8c8c" d="M 34.5,308.5 C 36.4044,308.738 37.7377,309.738 38.5,311.5C 36.5956,311.262 35.2623,310.262 34.5,308.5 Z"/></g>
<g><path style="opacity:0.608" fill="#7c7c7c" d="M 188.5,310.5 C 190.027,310.427 191.027,311.094 191.5,312.5C 189.973,312.573 188.973,311.906 188.5,310.5 Z"/></g>
<g><path style="opacity:0.588" fill="#808080" d="M 191.5,312.5 C 193.027,312.427 194.027,313.094 194.5,314.5C 192.973,314.573 191.973,313.906 191.5,312.5 Z"/></g>
<g><path style="opacity:0.431" fill="#929292" d="M 194.5,314.5 C 196.027,314.427 197.027,315.094 197.5,316.5C 195.973,316.573 194.973,315.906 194.5,314.5 Z"/></g>
<g><path style="opacity:0.753" fill="#767676" d="M 36.5,315.5 C 35.7377,317.262 34.4044,318.262 32.5,318.5C 33.2623,316.738 34.5956,315.738 36.5,315.5 Z"/></g>
<g><path style="opacity:1" fill="#666666" d="M 201.5,318.5 C 204.491,318.166 206.824,319.166 208.5,321.5C 205.843,321.065 203.509,320.065 201.5,318.5 Z"/></g>
<g><path style="opacity:0.349" fill="#929292" d="M 279.5,319.5 C 278.22,320.931 276.553,321.598 274.5,321.5C 275.78,320.069 277.447,319.402 279.5,319.5 Z"/></g>
<g><path style="opacity:0.702" fill="#7e7e7e" d="M 32.5,318.5 C 30.1667,321.5 27.5,324.167 24.5,326.5C 26.1667,322.833 28.8333,320.167 32.5,318.5 Z"/></g>
<g><path style="opacity:0.957" fill="#6e6e6e" d="M 208.5,321.5 C 210.898,321.259 212.898,321.926 214.5,323.5C 212.214,323.405 210.214,322.738 208.5,321.5 Z"/></g>
<g><path style="opacity:1" fill="#6a6a6a" d="M 214.5,323.5 C 217.228,323.171 219.562,323.837 221.5,325.5C 218.933,325.279 216.599,324.612 214.5,323.5 Z"/></g>
<g><path style="opacity:0.043" fill="#b3b3b3" d="M 271.5,322.5 C 269.898,324.074 267.898,324.741 265.5,324.5C 267.214,323.262 269.214,322.595 271.5,322.5 Z"/></g>
<g><path style="opacity:0.918" fill="#343434" d="M 85.5,327.5 C 107.569,326.169 129.736,326.169 152,327.5C 152.667,348.167 152.667,368.833 152,389.5C 151.809,391.708 151.309,393.708 150.5,395.5C 151.589,373.182 151.755,350.848 151,328.5C 129.242,327.506 107.409,327.173 85.5,327.5 Z"/></g>
<g><path style="opacity:0.318" fill="#ababab" d="M 21.5,329.5 C 21.1667,330.5 20.5,331.167 19.5,331.5C 19.5,330.167 20.1667,329.5 21.5,329.5 Z"/></g>
<g><path style="opacity:0.412" fill="#868686" d="M 73.5,329.5 C 71.7857,330.738 69.7857,331.405 67.5,331.5C 69.1016,329.926 71.1016,329.259 73.5,329.5 Z"/></g>
<g><path style="opacity:0.176" fill="#959595" d="M 67.5,331.5 C 66.4863,332.674 65.153,333.34 63.5,333.5C 64.287,331.896 65.6203,331.229 67.5,331.5 Z"/></g>
<g><path style="opacity:1" fill="#565656" d="M 19.5,331.5 C 18.7023,333.966 17.369,335.966 15.5,337.5C 15.8449,334.802 17.1782,332.802 19.5,331.5 Z"/></g>
<g><path style="opacity:0.588" fill="#777777" d="M 15.5,337.5 C 15.573,339.027 14.9063,340.027 13.5,340.5C 13.427,338.973 14.0937,337.973 15.5,337.5 Z"/></g>
<g><path style="opacity:0.392" fill="#949494" d="M 13.5,340.5 C 13.573,342.027 12.9063,343.027 11.5,343.5C 11.427,341.973 12.0937,340.973 13.5,340.5 Z"/></g>
<g><path style="opacity:0.043" fill="#b3b3b3" d="M 49.5,342.5 C 49.5,344.5 48.5,345.5 46.5,345.5C 47.1667,344.167 48.1667,343.167 49.5,342.5 Z"/></g>
<g><path style="opacity:0.184" fill="#a6a6a6" d="M 45.5,346.5 C 45.2624,348.404 44.2624,349.738 42.5,350.5C 42.7376,348.596 43.7376,347.262 45.5,346.5 Z"/></g>
<g><path style="opacity:0.886" fill="#696969" d="M 5.5,356.5 C 5.59047,359.152 4.92381,361.485 3.5,363.5C 3.40953,360.848 4.07619,358.515 5.5,356.5 Z"/></g>
<g><path style="opacity:0.278" fill="#8d8d8d" d="M 32.5,368.5 C 31.7838,373.349 30.7838,378.015 29.5,382.5C 29.5,381.833 29.5,381.167 29.5,380.5C 29.5841,376.163 30.5841,372.163 32.5,368.5 Z"/></g>
<g><path style="opacity:0.825" fill="#444444" d="M 29.5,380.5 C 29.5,381.167 29.5,381.833 29.5,382.5C 29.5029,387.527 29.8363,392.527 30.5,397.5C 29.0458,394.282 28.3791,390.782 28.5,387C 28.5039,384.639 28.8373,382.473 29.5,380.5 Z"/></g>
<g><path style="opacity:0.278" fill="#a7a7a7" d="M 149.5,400.5 C 149.741,402.898 149.074,404.898 147.5,406.5C 147.595,404.214 148.262,402.214 149.5,400.5 Z"/></g>
<g><path style="opacity:0.71" fill="#686868" d="M 180.5,395.5 C 180.01,401.809 178.677,407.809 176.5,413.5C 177.204,407.235 178.538,401.235 180.5,395.5 Z"/></g>
<g><path style="opacity:0.918" fill="#696969" d="M 30.5,398.5 C 31.6118,400.599 32.2785,402.933 32.5,405.5C 30.8372,403.562 30.1706,401.228 30.5,398.5 Z"/></g>
<g><path style="opacity:0.69" fill="#747474" d="M 0.5,395.5 C 2.14762,402.723 3.81428,410.057 5.5,417.5C 2.32132,410.621 0.654656,403.288 0.5,395.5 Z"/></g>
<g><path style="opacity:0.431" fill="#8a8a8a" d="M 145.5,412.5 C 145.573,414.027 144.906,415.027 143.5,415.5C 143.427,413.973 144.094,412.973 145.5,412.5 Z"/></g>
<g><path style="opacity:0.62" fill="#757575" d="M 36.5,415.5 C 37.9063,415.973 38.573,416.973 38.5,418.5C 37.0937,418.027 36.427,417.027 36.5,415.5 Z"/></g>
<g><path style="opacity:0.455" fill="#888888" d="M 142.5,417.5 C 142.155,420.198 140.822,422.198 138.5,423.5C 139.34,421.147 140.674,419.147 142.5,417.5 Z"/></g>
<g><path style="opacity:0.627" fill="#818181" d="M 39.5,420.5 C 41.5869,421.585 42.9202,423.251 43.5,425.5C 41.4131,424.415 40.0798,422.749 39.5,420.5 Z"/></g>
<g><path style="opacity:0.875" fill="#6f6f6f" d="M 43.5,425.5 C 45.8333,427.167 47.8333,429.167 49.5,431.5C 46.5,430.5 44.5,428.5 43.5,425.5 Z"/></g>
<g><path style="opacity:0.373" fill="#919191" d="M 171.5,426.5 C 171.573,428.027 170.906,429.027 169.5,429.5C 169.427,427.973 170.094,426.973 171.5,426.5 Z"/></g>
<g><path style="opacity:0.816" fill="#6c6c6c" d="M 138.5,423.5 C 135.833,428.167 132.167,431.833 127.5,434.5C 130.833,430.5 134.5,426.833 138.5,423.5 Z"/></g>
<g><path style="opacity:0.125" fill="#b8b8b8" d="M 11.5,431.5 C 12.9063,431.973 13.573,432.973 13.5,434.5C 12.0937,434.027 11.427,433.027 11.5,431.5 Z"/></g>
<g><path style="opacity:0.847" fill="#6f6f6f" d="M 127.5,434.5 C 127.027,435.906 126.027,436.573 124.5,436.5C 124.973,435.094 125.973,434.427 127.5,434.5 Z"/></g>
<g><path style="opacity:0.298" fill="#9a9a9a" d="M 167.5,433.5 C 167.573,435.027 166.906,436.027 165.5,436.5C 165.427,434.973 166.094,433.973 167.5,433.5 Z"/></g>
<g><path style="opacity:0.235" fill="#a8a8a8" d="M 13.5,434.5 C 14.9063,434.973 15.573,435.973 15.5,437.5C 14.0937,437.027 13.427,436.027 13.5,434.5 Z"/></g>
<g><path style="opacity:0.753" fill="#7f7f7f" d="M 124.5,436.5 C 124.027,437.906 123.027,438.573 121.5,438.5C 121.973,437.094 122.973,436.427 124.5,436.5 Z"/></g>
<g><path style="opacity:0.082" fill="#a9a9a9" d="M 15.5,437.5 C 16.9063,437.973 17.573,438.973 17.5,440.5C 16.0937,440.027 15.427,439.027 15.5,437.5 Z"/></g>
<g><path style="opacity:0.196" fill="#8d8d8d" d="M 54.5,435.5 C 56.8816,436.351 58.8816,437.684 60.5,439.5C 57.733,439.13 55.733,437.796 54.5,435.5 Z"/></g>
<g><path style="opacity:0.608" fill="#797979" d="M 66.5,442.5 C 71.324,443.668 75.9907,445.002 80.5,446.5C 75.3414,446.554 70.6748,445.221 66.5,442.5 Z"/></g>
<g><path style="opacity:0.886" fill="#5f5f5f" d="M 117.5,440.5 C 113.874,443.495 109.541,445.162 104.5,445.5C 108.68,443.658 113.013,441.992 117.5,440.5 Z"/></g>
<g><path style="opacity:0.071" fill="#adadad" d="M 156.5,447.5 C 156.5,449.5 155.5,450.5 153.5,450.5C 154.167,449.167 155.167,448.167 156.5,447.5 Z"/></g>
<g><path style="opacity:0.918" fill="#777777" d="M 28.5,452.5 C 31.0892,453.419 33.0892,455.086 34.5,457.5C 31.9108,456.581 29.9108,454.914 28.5,452.5 Z"/></g>
<g><path style="opacity:0.051" fill="#b5b5b5" d="M 147.5,456.5 C 147.027,457.906 146.027,458.573 144.5,458.5C 144.973,457.094 145.973,456.427 147.5,456.5 Z"/></g>
<g><path style="opacity:0.659" fill="#797979" d="M 34.5,457.5 C 36.4044,457.738 37.7377,458.738 38.5,460.5C 36.5956,460.262 35.2623,459.262 34.5,457.5 Z"/></g>
<g><path style="opacity:0.043" fill="#b8b8b8" d="M 143.5,459.5 C 143.027,460.906 142.027,461.573 140.5,461.5C 140.973,460.094 141.973,459.427 143.5,459.5 Z"/></g>
<g><path style="opacity:0.475" fill="#8a8a8a" d="M 38.5,460.5 C 40.0269,460.427 41.0269,461.094 41.5,462.5C 39.9731,462.573 38.9731,461.906 38.5,460.5 Z"/></g>
<g><path style="opacity:0.431" fill="#939393" d="M 41.5,462.5 C 43.0269,462.427 44.0269,463.094 44.5,464.5C 42.9731,464.573 41.9731,463.906 41.5,462.5 Z"/></g>
<g><path style="opacity:0.835" fill="#7f7f7f" d="M 59.5,471.5 C 61.8984,471.259 63.8984,471.926 65.5,473.5C 63.2143,473.405 61.2143,472.738 59.5,471.5 Z"/></g>
<g><path style="opacity:0.133" fill="#9f9f9f" d="M 122.5,470.5 C 119.916,472.472 116.916,473.472 113.5,473.5C 116.215,471.928 119.215,470.928 122.5,470.5 Z"/></g>
</svg>
