<?xml version="1.0" encoding="UTF-8"?>
<!DOCTYPE svg PUBLIC "-//W3C//DTD SVG 1.1//EN" "http://www.w3.org/Graphics/SVG/1.1/DTD/svg11.dtd">
<svg xmlns="http://www.w3.org/2000/svg" version="1.1" width="460px" height="460px" style="shape-rendering:geometricPrecision; text-rendering:geometricPrecision; image-rendering:optimizeQuality; fill-rule:evenodd; clip-rule:evenodd" xmlns:xlink="http://www.w3.org/1999/xlink">
<g><path style="opacity:0.998" fill="#7348b7" d="M 220.5,21.5 C 258.674,19.7252 289.508,33.7252 313,63.5C 333.804,92.0137 344.804,124.014 346,159.5C 337.153,155.829 327.986,153.162 318.5,151.5C 314.574,119.494 301.907,91.6609 280.5,68C 256.949,47.6942 230.616,43.3609 201.5,55C 187.083,60.4502 174.583,68.6169 164,79.5C 141.353,110.035 130.187,144.535 130.5,183C 131.05,220.641 140.55,255.808 159,288.5C 171.924,287.961 182.591,292.628 191,302.5C 200.381,319.425 197.881,334.258 183.5,347C 163.229,357.684 147.395,353.184 136,333.5C 132.527,323.803 133.027,314.303 137.5,305C 108.283,255.58 97.7827,202.413 106,145.5C 112.432,104.103 131.599,70.2694 163.5,44C 180.753,32.0389 199.753,24.5389 220.5,21.5 Z"/></g>
<g><path style="opacity:0.999" fill="#7348b7" d="M 197.5,150.5 C 212.084,148.464 223.417,153.464 231.5,165.5C 268.899,165.214 304.899,172.047 339.5,186C 385.659,206.16 420.159,238.66 443,283.5C 469.369,358.924 444.869,409.09 369.5,434C 332.261,441.608 296.595,437.108 262.5,420.5C 271.533,413.98 280.199,406.98 288.5,399.5C 318.609,413.541 349.276,415.041 380.5,404C 408.718,388.935 424.384,365.435 427.5,333.5C 425.244,310.339 417.411,289.339 404,270.5C 383.003,243.235 356.503,223.069 324.5,210C 294.989,198.065 264.322,192.898 232.5,194.5C 228.356,204.79 220.689,210.957 209.5,213C 189.755,214.587 177.588,205.753 173,186.5C 171.534,167.82 179.7,155.82 197.5,150.5 Z"/></g>
<g><path style="opacity:0.998" fill="#7348b7" d="M 78.5,216.5 C 79.4959,216.414 80.3292,216.748 81,217.5C 82.4922,226.971 84.9922,236.137 88.5,245C 63.7287,263.706 47.8953,288.206 41,318.5C 37.8754,348.057 47.3754,372.557 69.5,392C 92.182,407.074 117.182,412.741 144.5,409C 164.902,406.467 184.235,400.467 202.5,391C 227.486,378.031 249.653,361.197 269,340.5C 277.848,329.154 285.681,317.154 292.5,304.5C 278.609,284.927 281.275,268.093 300.5,254C 317.12,247.113 330.954,250.613 342,264.5C 350.676,280.303 348.509,294.47 335.5,307C 330.354,310.271 324.854,312.771 319,314.5C 278.796,390.224 215.629,431.224 129.5,437.5C 99.8692,437.123 73.2025,428.29 49.5,411C 29.6327,393.751 18.4661,371.918 16,345.5C 12.3341,307.002 23.1674,273.336 48.5,244.5C 58.1929,234.806 68.1929,225.473 78.5,216.5 Z"/></g>
</svg>
