<svg x="0px" y="0px" viewBox="0 0 512 512"  xml:space="preserve">
	<path  d="M259.49,499.03c55.98-200.23,54.44-201.21,94.85-344.05l9.68,5.61c5.33,3.09,9.68,0.56,9.68-5.61V86.94
		c10.8-37.6,19.22-66.65,21.61-75.35h43.92l72.82,67.49l-47.85,41.39l36.2,39.15L261.87,499.03
		C260.75,501,259.07,500.58,259.49,499.03z M285.59,67.43c2.24,0,3.93,1.12,3.93,2.67v34.94c0,1.4-1.82,2.67-3.93,2.67h-58.93
		c-2.25,0-3.93-1.12-3.93-2.67V70.1c0-1.4,1.82-2.67,3.93-2.67L285.59,67.43L285.59,67.43z M358.27,28.71l-64.82,37.46
		c0.7,1.12,1.26,2.53,1.26,3.93v34.94c0,1.82-0.7,3.37-1.82,4.77l65.53,37.74c4.49,2.53,8.14,0.42,8.14-4.63V33.48
		C366.41,28.28,362.76,26.18,358.27,28.71z M217.53,105.04V70.1c0-1.4,0.42-2.81,1.26-3.93l-64.96-37.46
		c-4.49-2.53-8.14-0.42-8.14,4.63v109.44c0,5.19,3.65,7.3,8.14,4.63l65.39-37.74C218.24,108.4,217.53,106.72,217.53,105.04
		L217.53,105.04z M250.09,499.03h2.39c-55.98-200.23-54.44-201.21-94.85-344.05l-9.68,5.61c-5.33,3.09-9.68,0.56-9.68-5.61V86.94
		c-10.8-37.6-19.22-66.65-21.61-75.35H72.87L0.05,79.08l47.85,41.39l-36.2,39.15L250.09,499.03z M254.16,180.52
		c9.82,0,17.68-7.86,17.68-17.68s-7.86-17.68-17.68-17.68s-17.68,7.86-17.68,17.68C236.48,172.67,244.47,180.52,254.16,180.52z
		 M254.16,285.76c9.82,0,17.68-7.86,17.68-17.68s-7.86-17.68-17.68-17.68s-17.68,7.86-17.68,17.68
		C236.48,277.76,244.47,285.76,254.16,285.76z M254.16,390.85c9.82,0,17.68-7.86,17.68-17.68s-7.86-17.68-17.68-17.68
		s-17.68,7.86-17.68,17.68C236.48,382.99,244.47,390.85,254.16,390.85z"/>
</svg>
