<?xml version="1.0" encoding="UTF-8"?>
<!DOCTYPE svg PUBLIC "-//W3C//DTD SVG 1.1//EN" "http://www.w3.org/Graphics/SVG/1.1/DTD/svg11.dtd">
<svg xmlns="http://www.w3.org/2000/svg" version="1.1" width="131px" height="150px" style="shape-rendering:geometricPrecision; text-rendering:geometricPrecision; image-rendering:optimizeQuality; fill-rule:evenodd; clip-rule:evenodd" xmlns:xlink="http://www.w3.org/1999/xlink">
<g><path style="opacity:0.997" fill="#050707" d="M 59.5,-0.5 C 62.8333,-0.5 66.1667,-0.5 69.5,-0.5C 68.8882,7.27793 66.7216,14.6113 63,21.5C 55.0801,33.587 46.5801,45.2537 37.5,56.5C 30.7768,66.5001 27.6101,77.5001 28,89.5C 32.3024,109.977 44.8024,120.977 65.5,122.5C 88.047,119.95 100.047,107.284 101.5,84.5C 101.696,78.6747 100.862,73.008 99,67.5C 96.4752,61.1262 93.9752,54.7929 91.5,48.5C 91.8603,46.5789 92.6936,44.9122 94,43.5C 99.3449,38.8202 104.678,34.1535 110,29.5C 121.607,43.4962 128.441,59.4962 130.5,77.5C 130.5,80.8333 130.5,84.1667 130.5,87.5C 126.889,117.627 110.556,137.46 81.5,147C 77.3007,147.528 73.3007,148.361 69.5,149.5C 66.1667,149.5 62.8333,149.5 59.5,149.5C 27.3274,143.997 7.32737,125.331 -0.5,93.5C -0.5,89.8333 -0.5,86.1667 -0.5,82.5C 2.76439,83.3242 6.09773,83.6576 9.5,83.5C 11.0131,110.71 24.6798,128.543 50.5,137C 85.1855,142.636 108.019,128.803 119,95.5C 122.479,77.1696 118.812,60.5029 108,45.5C 105.754,46.7441 104.254,48.5774 103.5,51C 110.697,64.9753 113.197,79.8086 111,95.5C 106.402,113.096 95.5685,124.929 78.5,131C 53.1265,136.557 34.2932,128.057 22,105.5C 15.2745,88.205 16.6079,71.5383 26,55.5C 36.0553,42.1108 45.722,28.4442 55,14.5C 57.2132,9.69553 58.7132,4.69553 59.5,-0.5 Z"/></g>
</svg>
