<svg width="79" height="77" viewBox="0 0 69 77" fill="none" xmlns="http://www.w3.org/2000/svg">
<path opacity="0.4" fill-rule="evenodd" clip-rule="evenodd" d="M53.582 17.4634C53.5179 17.6315 53.4445 17.7934 53.3625 17.9486C61.4894 23.3299 65.1068 33.7665 61.4962 43.2371L58.243 51.7704C58.243 51.7704 57.0099 54.4632 57.1019 55.9881C57.1387 56.599 57.2001 56.9551 57.2001 56.9551C59.2281 57.7219 60.248 59.981 59.4779 62.0007C58.7079 64.0205 56.4396 65.0362 54.4115 64.2693L43.4241 60.1147C40.3661 62.8264 35.9346 63.7918 31.8418 62.2442C27.749 60.6966 25.0775 57.0455 24.5972 52.9958L12.7937 48.5327C10.7656 47.7658 9.74577 45.5068 10.5158 43.487C11.2858 41.4673 13.5541 40.4516 15.5822 41.2184L15.5822 41.2185C16.6564 40.468 17.2199 39.6928 18.2573 36.6509L21.5105 28.1176C25.2283 18.3657 35.3613 12.913 45.3083 14.7155C45.3412 14.6024 45.379 14.4898 45.4217 14.3778C46.2772 12.1336 48.7976 11.0051 51.051 11.8571C53.3044 12.7092 54.4376 15.2192 53.582 17.4634Z" fill="#FFC918"/>
<path opacity="0.2" fill-rule="evenodd" clip-rule="evenodd" d="M42.9454 12.7026C42.8549 12.8582 42.7751 13.0171 42.7059 13.1783C33.3864 10.2939 22.9735 14.0833 17.8733 22.8481L13.2779 30.7455C13.2779 30.7455 11.958 33.3972 10.712 34.2882C10.2128 34.6451 9.89669 34.8224 9.89669 34.8224C8.0198 33.7392 5.61648 34.3763 4.52877 36.2456C3.44106 38.1149 4.08087 40.5083 5.95781 41.5916L16.1265 47.4603C15.9432 51.534 17.987 55.5672 21.7748 57.7533C25.5626 59.9393 30.0925 59.7 33.5504 57.5163L44.4743 63.8208C46.3512 64.9041 48.7545 64.2669 49.8422 62.3976C50.9299 60.5284 50.2901 58.1349 48.4132 57.0516C48.3202 55.7481 48.5685 54.8236 50.2839 52.103L54.8793 44.2056C60.131 35.1804 57.9859 23.9106 50.3061 17.3619C50.3734 17.2651 50.4374 17.1649 50.4977 17.0613C51.7062 14.9843 50.9953 12.3249 48.9098 11.1213C46.8243 9.91768 44.154 10.6257 42.9454 12.7026Z" fill="#FFC918"/>
<path d="M52.2581 17.0835C51.2309 19.2551 48.6304 20.1862 46.4499 19.1632C44.2694 18.1402 43.3345 15.5504 44.3617 13.3788C45.3889 11.2072 47.9893 10.2761 50.1699 11.2991C52.3504 12.3222 53.2853 14.9119 52.2581 17.0835Z" fill="#FFC300"/>
<path d="M42.2081 54.6492C39.5373 60.2953 32.7762 62.7162 27.1069 60.0563C21.4375 57.3964 19.0067 50.6631 21.6775 45.0169C24.3483 39.3708 31.1094 36.9499 36.7787 39.6098C42.4481 42.2697 44.8789 49.003 42.2081 54.6492Z" fill="#FFC300"/>
<path d="M21.6775 45.0169C24.3483 39.3708 31.1094 36.9499 36.7787 39.6098C42.4481 42.2697 44.8789 49.003 42.2081 54.6492C40.7665 57.6968 38.1332 59.8047 35.1231 60.6812C35.1168 60.6831 35.1134 60.684 35.1134 60.684C35.1166 60.6831 35.1199 60.6821 35.1231 60.6812C35.2192 60.6516 35.9768 60.3796 35.0055 59.4029C33.971 58.3626 20.9257 52.5411 20.9257 52.5411C20.3212 50.1083 20.5215 47.4608 21.6775 45.0169Z" fill="#EBB400"/>
<path d="M58.1478 43.3894C53.1144 54.0302 54.2419 51.6466 54.2419 51.6466C54.2419 51.6466 52.8034 54.2364 52.7767 55.7639C52.766 56.3758 52.7995 56.7355 52.7995 56.7355L12.528 37.8414C13.6572 37.1759 14.2792 36.4464 15.5496 33.4935C15.5496 33.4935 17.9094 28.5047 19.4555 25.2362C24.489 14.5954 37.231 10.033 47.9156 15.0459C58.6001 20.0587 63.1813 32.7485 58.1478 43.3894Z" fill="#FFC300"/>
<path d="M38.0755 15.5996C31.0448 16.2494 24.514 20.3529 21.0564 26.9888C20.8438 27.3968 21.0241 27.8938 21.4416 28.0897L24.4166 29.4855C24.8527 29.6901 25.3765 29.4881 25.5817 29.0537C26.3119 27.5081 28.1606 24.0247 31.2064 21.0429C33.0924 19.1966 35.841 17.9238 38.2405 17.0906C39.1379 16.779 39.0218 15.5122 38.0755 15.5996Z" fill="white"/>
<path d="M54.2418 51.6468L58.1478 43.3896C63.1812 32.7487 58.6001 20.0589 47.9155 15.0461C46.7149 14.4828 45.4883 14.0404 44.2495 13.7139C44.2495 13.7139 55.5044 22.6744 54.9981 30.8647C54.7864 34.2895 54.0713 37.0817 52.5482 40.7624C51.2982 43.7832 50.0373 46.3108 48.7353 49.0633C48.0048 50.6075 47.2773 52.6283 47.2224 53.1582C47.1674 53.6881 47.3577 54.1826 47.3577 54.1826L52.7995 56.7357C52.7995 56.7357 52.766 56.376 52.7767 55.7641C52.8034 54.2366 54.2418 51.6468 54.2418 51.6468Z" fill="#EBB400"/>
<path d="M7.30063 39.7135C8.22514 37.7591 10.5655 36.9211 12.528 37.8418L52.7995 56.7359C54.762 57.6566 55.6035 59.9874 54.6789 61.9418C53.7544 63.8963 51.4141 64.7343 49.4516 63.8135L9.18003 44.9195C7.21755 43.9987 6.37612 41.6679 7.30063 39.7135Z" fill="#FFC918"/>
<path d="M50.1792 15.3713C49.7683 16.2399 48.7282 16.6124 47.8559 16.2032C46.9837 15.7939 46.6098 14.758 47.0207 13.8894C47.4316 13.0208 48.4717 12.6483 49.3439 13.0575C50.2161 13.4667 50.5901 14.5026 50.1792 15.3713Z" fill="white"/>
</svg>
