<svg width="96" height="63" viewBox="0 0 96 63" fill="none" xmlns="http://www.w3.org/2000/svg">
<path d="M24.639 5.39291C22.9718 2.54213 18.9431 0.23111 15.6406 0.23111H3.68119C0.378696 0.23111 -0.946978 2.54212 0.720219 5.39291L31.1313 57.3936C32.4651 59.6743 35.6881 61.5231 38.3301 61.5231H52.9804C55.4572 61.5231 56.4515 59.7898 55.2011 57.6517L24.639 5.39291Z" fill="white"/>
<path d="M24.639 5.39291C22.9718 2.54213 18.9431 0.23111 15.6406 0.23111H3.68119C0.378696 0.23111 -0.946978 2.54212 0.720219 5.39291L31.1313 57.3936C32.4651 59.6743 35.6881 61.5231 38.3301 61.5231H52.9804C55.4572 61.5231 56.4515 59.7898 55.2011 57.6517L24.639 5.39291Z" fill="url(#paint0_radial)"/>
<circle cx="66.767" cy="9.7986" r="9.56752" fill="white"/>
<circle cx="66.767" cy="9.7986" r="9.56752" fill="url(#paint1_radial)"/>
<circle cx="66.767" cy="9.7986" r="9.56752" fill="url(#paint2_radial)"/>
<path d="M53.0457 29.2962C54.1305 27.4443 56.7477 25.9438 58.8932 25.9438H75.3404C77.3219 25.9438 78.1174 27.3304 77.117 29.0408L60.8159 56.9145C59.1487 59.7653 55.12 62.0763 51.8175 62.0763H36.842C34.944 62.0763 33.5037 61.4267 32.8303 60.2733C31.3254 57.6955 29.8722 55.2476 29.708 54.9712C31.0652 57.2462 34.1987 61.4778 36.2705 57.9352L53.0457 29.2962Z" fill="white"/>
<path d="M53.0457 29.2962C54.1305 27.4443 56.7477 25.9438 58.8932 25.9438H75.3404C77.3219 25.9438 78.1174 27.3304 77.117 29.0408L60.8159 56.9145C59.1487 59.7653 55.12 62.0763 51.8175 62.0763H36.842C34.944 62.0763 33.5037 61.4267 32.8303 60.2733C31.3254 57.6955 29.8722 55.2476 29.708 54.9712C31.0652 57.2462 34.1987 61.4778 36.2705 57.9352L53.0457 29.2962Z" fill="url(#paint3_radial)"/>
<path d="M75.4375 25.9438H58.0191C56.1514 25.9438 54.7249 26.5723 54.0427 27.696L53.0675 29.3022C52.8898 29.577 52.7224 29.86 52.5652 30.1295L53.0675 29.3022C54.0725 27.7485 55.4087 26.4604 57.1174 29.3821L73.2189 56.9145C74.8861 59.7653 78.9149 62.0763 82.2174 62.0763H88.1971C94.8021 62.0763 97.4534 57.4543 94.119 51.7527L80.8366 29.0408C79.8363 27.3304 77.419 25.9438 75.4375 25.9438Z" fill="white"/>
<path d="M75.4375 25.9438H58.0191C56.1514 25.9438 54.7249 26.5723 54.0427 27.696L53.0675 29.3022C52.8898 29.577 52.7224 29.86 52.5652 30.1295L53.0675 29.3022C54.0725 27.7485 55.4087 26.4604 57.1174 29.3821L73.2189 56.9145C74.8861 59.7653 78.9149 62.0763 82.2174 62.0763H88.1971C94.8021 62.0763 97.4534 57.4543 94.119 51.7527L80.8366 29.0408C79.8363 27.3304 77.419 25.9438 75.4375 25.9438Z" fill="url(#paint4_radial)"/>
<defs>
<radialGradient id="paint0_radial" cx="0" cy="0" r="1" gradientUnits="userSpaceOnUse" gradientTransform="translate(-10.8655 -40.5961) rotate(59.953) scale(82.7107 60.452)">
<stop stop-color="white"/>
<stop offset="1" stop-color="white" stop-opacity="0"/>
</radialGradient>
<radialGradient id="paint1_radial" cx="0" cy="0" r="1" gradientUnits="userSpaceOnUse" gradientTransform="translate(66.767 -11.8778) rotate(90) scale(31.2439)">
<stop stop-color="white"/>
<stop offset="0.770545" stop-color="white" stop-opacity="0"/>
</radialGradient>
<radialGradient id="paint2_radial" cx="0" cy="0" r="1" gradientUnits="userSpaceOnUse" gradientTransform="translate(66.767 30.8771) rotate(-90) scale(20.331)">
<stop stop-opacity="0.35"/>
<stop offset="1" stop-opacity="0"/>
</radialGradient>
<radialGradient id="paint3_radial" cx="0" cy="0" r="1" gradientUnits="userSpaceOnUse" gradientTransform="translate(104.32 -25.7601) rotate(124.38) scale(122.951 80.3133)">
<stop stop-opacity="0.31"/>
<stop offset="0.924689" stop-opacity="0"/>
</radialGradient>
<radialGradient id="paint4_radial" cx="0" cy="0" r="1" gradientUnits="userSpaceOnUse" gradientTransform="translate(30.0039 -34.3017) rotate(60.9813) scale(95.5632 57.2232)">
<stop stop-color="white"/>
<stop offset="1" stop-color="white" stop-opacity="0"/>
</radialGradient>
</defs>
</svg>
