<svg width="72" height="72" viewBox="0 0 52 72" fill="none" xmlns="http://www.w3.org/2000/svg">
<path fill-rule="evenodd" clip-rule="evenodd" d="M14.3613 3.13807L18.8527 3.07808C19.4224 1.75646 20.8486 0.809349 22.5321 0.786864L28.6445 0.705227C30.328 0.682742 31.7829 1.59137 32.3933 2.89723L36.8847 2.83725C38.3165 2.81812 39.5278 3.69703 39.8451 4.89004L43.2439 4.84465C47.6617 4.78564 51.2924 7.93261 51.3533 11.8736L52.1173 61.2896C52.1783 65.2306 48.6463 68.4732 44.2286 68.5322L9.05128 69.0021C4.63349 69.0611 1.00277 65.9141 0.941837 61.9731L0.177813 12.5571C0.116881 8.61611 3.64881 5.37348 8.06661 5.31447L11.4656 5.26908C11.7458 4.06808 12.9295 3.15719 14.3613 3.13807Z" fill="#00CC96" fill-opacity="0.2"/>
<path fill-rule="evenodd" clip-rule="evenodd" d="M23.3613 3.13807L27.8527 3.07808C28.4224 1.75646 29.8486 0.809349 31.5321 0.786864L37.6445 0.705227C39.328 0.682742 40.7829 1.59137 41.3933 2.89723L45.8847 2.83725C47.3165 2.81812 48.5278 3.69703 48.8451 4.89004L52.2439 4.84465C56.6617 4.78564 60.2924 7.93261 60.3533 11.8736L61.1173 61.2896C61.1783 65.2306 57.6463 68.4732 53.2286 68.5322L18.0513 69.0021C13.6335 69.0611 10.0028 65.9141 9.94184 61.9731L9.17781 12.5571C9.11688 8.61611 12.6488 5.37348 17.0666 5.31447L20.4656 5.26908C20.7458 4.06808 21.9295 3.15719 23.3613 3.13807Z" fill="#00CC96" fill-opacity="0.5"/>
<path d="M5.99994 15.1707C5.99994 11.2104 9.56898 7.99994 13.9716 7.99994H49.0283C53.4309 7.99994 56.9999 11.2104 56.9999 15.1707V64.8292C56.9999 68.7895 53.4309 71.9999 49.0283 71.9999H13.9716C9.56898 71.9999 5.99994 68.7895 5.99994 64.8292V15.1707Z" fill="#00CC96"/>
<path d="M10.0002 17.3589C10.0002 14.3992 12.6496 11.9999 15.9178 11.9999H47.0826C50.3508 11.9999 53.0002 14.3992 53.0002 17.3589V63.641C53.0002 66.6007 50.3508 68.9999 47.0826 68.9999H15.9178C12.6496 68.9999 10.0002 66.6007 10.0002 63.641V17.3589Z" fill="#008D68"/>
<path d="M13.0002 17.3589C13.0002 14.3992 15.6573 11.9999 18.935 11.9999H47.0654C50.3431 11.9999 53.0002 14.3992 53.0002 17.3589V63.641C53.0002 66.6007 50.3431 68.9999 47.0654 68.9999H18.935C15.6573 68.9999 13.0002 66.6007 13.0002 63.641V17.3589Z" fill="#00A076"/>
<path fill-rule="evenodd" clip-rule="evenodd" d="M38.034 6.91739H42.5259C44.1827 6.91739 45.5259 8.26054 45.5259 9.91739V13.6349C45.5259 15.2918 44.1827 16.6349 42.5259 16.6349H20C18.3431 16.6349 17 15.2918 17 13.6349V9.91739C17 8.26054 18.3431 6.91739 20 6.91739H24.4919C25.082 5.44454 26.5228 4.4043 28.2064 4.4043H34.3195C36.0032 4.4043 37.4439 5.44454 38.034 6.91739Z" fill="#00CC96"/>
<path d="M25.0002 30C25.0002 28.3431 26.3434 27 28.0002 27H34.0002C35.6571 27 37.0002 28.3431 37.0002 30V36C37.0002 37.6569 35.6571 39 34.0002 39H28.0002C26.3434 39 25.0002 37.6569 25.0002 36V30Z" fill="white"/>
<path fill-rule="evenodd" clip-rule="evenodd" d="M34.2063 30.3573C34.6215 30.6353 34.725 31.1861 34.4376 31.5876L31.6948 35.4191C31.5487 35.6232 31.3207 35.7585 31.0664 35.7919C30.8121 35.8254 30.5549 35.754 30.3578 35.5951L28.5292 34.1214C28.1413 33.8088 28.0889 33.2512 28.4122 32.8761C28.7354 32.501 29.3119 32.4503 29.6999 32.7629L30.7604 33.6176L32.9342 30.581C33.2216 30.1795 33.7912 30.0793 34.2063 30.3573Z" fill="#00CC96"/>
<path d="M25.0002 48C25.0002 46.3431 26.3434 45 28.0002 45H34.0002C35.6571 45 37.0002 46.3431 37.0002 48V54C37.0002 55.6569 35.6571 57 34.0002 57H28.0002C26.3434 57 25.0002 55.6569 25.0002 54V48Z" fill="white"/>
<path fill-rule="evenodd" clip-rule="evenodd" d="M34.2063 48.3573C34.6215 48.6353 34.725 49.1861 34.4376 49.5876L31.6948 53.4191C31.5487 53.6232 31.3207 53.7585 31.0664 53.7919C30.8121 53.8254 30.5549 53.754 30.3578 53.5951L28.5292 52.1214C28.1413 51.8088 28.0889 51.2512 28.4122 50.8761C28.7354 50.501 29.3119 50.4503 29.6999 50.7629L30.7604 51.6176L32.9342 48.581C33.2216 48.1795 33.7912 48.0793 34.2063 48.3573Z" fill="#00CC96"/>
</svg>
