<?xml version="1.0" encoding="utf-8"?>
<svg xmlns="http://www.w3.org/2000/svg" xmlns:xlink="http://www.w3.org/1999/xlink">
  <symbol viewBox="0 0 24 24" fill="none" id="fb" xmlns="http://www.w3.org/2000/svg">
    <g clip-path="url(#clip0)">
      <path d="M13.5 8.25049V5.25049C13.5 4.42249 14.172 3.75049 15 3.75049H16.5V0.000488281H13.5C11.0145 0.000488281 9 2.01499 9 4.50049V8.25049H6V12.0005H9V24.0005H13.5V12.0005H16.5L18 8.25049H13.5Z" fill="white"/>
    </g>
    <defs>
      <clipPath id="clip0">
        <rect width="24" height="24" fill="white" transform="translate(0 0.000488281)"/>
      </clipPath>
    </defs>
  </symbol>
  <symbol viewBox="0 0 24 24" fill="none" id="vk" xmlns="http://www.w3.org/2000/svg">
    <g clip-path="url(#clip0)">
      <path d="M23.1932 17.3669C23.1309 17.2589 22.7451 16.3918 20.889 14.6097C18.9458 12.7435 19.2069 13.0465 21.5473 9.81981C22.9728 7.85466 23.5427 6.65457 23.3643 6.14153C23.1947 5.6525 22.1462 5.78151 22.1462 5.78151L18.6602 5.80251C18.6602 5.80251 18.4021 5.7665 18.2092 5.88501C18.0221 6.00202 17.9018 6.27204 17.9018 6.27204C17.9018 6.27204 17.3493 7.79315 16.6126 9.08625C15.0596 11.815 14.4375 11.959 14.1837 11.7895C13.5935 11.3949 13.7414 10.2023 13.7414 9.35627C13.7414 6.71158 14.1286 5.60899 12.9859 5.32397C12.606 5.22946 12.3276 5.16646 11.3574 5.15596C10.1132 5.14246 9.05901 5.16046 8.46302 5.46198C8.06569 5.663 7.75972 6.11153 7.94678 6.13703C8.17735 6.16853 8.69938 6.28254 8.97635 6.67257C9.33453 7.17511 9.32148 8.30619 9.32148 8.30619C9.32148 8.30619 9.5274 11.4189 8.8415 11.806C8.37021 12.0715 7.72491 11.5299 6.34006 9.05325C5.63096 7.78565 5.09442 6.38305 5.09442 6.38305C5.09442 6.38305 4.99146 6.12203 4.8073 5.98252C4.58398 5.81301 4.27076 5.759 4.27076 5.759L0.955811 5.78001C0.955811 5.78001 0.458425 5.79501 0.275711 6.01852C0.113299 6.21804 0.26266 6.62907 0.26266 6.62907C0.26266 6.62907 2.85835 12.91 5.79627 16.0768C8.49202 18.9795 11.5517 18.789 11.5517 18.789H12.938C12.938 18.789 13.3571 18.741 13.5703 18.5024C13.7675 18.2834 13.7603 17.8724 13.7603 17.8724C13.7603 17.8724 13.7327 15.9478 14.597 15.6642C15.4482 15.3852 16.5416 17.5244 17.7002 18.3479C18.5761 18.9705 19.2417 18.834 19.2417 18.834L22.3405 18.789C22.3405 18.789 23.9618 18.6855 23.1932 17.3669Z" fill="white"/>
    </g>
    <defs>
      <clipPath id="clip0">
        <rect width="23.2" height="24" fill="white" transform="translate(0.200012)"/>
      </clipPath>
    </defs>
  </symbol>
  <symbol viewBox="0 0 25 24" fill="none" id="tw" xmlns="http://www.w3.org/2000/svg">
    <g clip-path="url(#clip0)">
      <path d="M24.6 4.5585C23.7075 4.95 22.7565 5.2095 21.765 5.3355C22.785 4.7265 23.5635 3.7695 23.9295 2.616C22.9785 3.183 21.9285 3.5835 20.8095 3.807C19.9065 2.8455 18.6195 2.25 17.2155 2.25C14.4915 2.25 12.2985 4.461 12.2985 7.1715C12.2985 7.5615 12.3315 7.9365 12.4125 8.2935C8.32198 8.094 4.70248 6.1335 2.27098 3.147C1.84648 3.8835 1.59748 4.7265 1.59748 5.634C1.59748 7.338 2.47498 8.8485 3.78298 9.723C2.99248 9.708 2.21698 9.4785 1.55998 9.117C1.55998 9.132 1.55998 9.1515 1.55998 9.171C1.55998 11.562 3.26548 13.548 5.50198 14.0055C5.10148 14.115 4.66498 14.1675 4.21198 14.1675C3.89698 14.1675 3.57898 14.1495 3.28048 14.0835C3.91798 16.032 5.72698 17.4645 7.87798 17.511C6.20398 18.8205 4.07848 19.6095 1.77748 19.6095C1.37398 19.6095 0.986976 19.5915 0.599976 19.542C2.77948 20.9475 5.36248 21.75 8.14798 21.75C17.202 21.75 22.152 14.25 22.152 7.749C22.152 7.5315 22.1445 7.3215 22.134 7.113C23.1105 6.42 23.931 5.5545 24.6 4.5585Z" fill="white"/>
    </g>
    <defs>
      <clipPath id="clip0">
        <rect width="24" height="24" fill="white" transform="translate(0.599976)"/>
      </clipPath>
    </defs>
  </symbol>
  <symbol viewBox="0 0 24 24" fill="none" id="in" xmlns="http://www.w3.org/2000/svg">
    <g clip-path="url(#clip0)">
      <path d="M16.75 0H8.04999C4.04654 0 0.799988 3.3585 0.799988 7.5V16.5C0.799988 20.6415 4.04654 24 8.04999 24H16.75C20.7534 24 24 20.6415 24 16.5V7.5C24 3.3585 20.7534 0 16.75 0ZM21.825 16.5C21.825 19.395 19.5485 21.75 16.75 21.75H8.04999C5.25149 21.75 2.97499 19.395 2.97499 16.5V7.5C2.97499 4.605 5.25149 2.25 8.04999 2.25H16.75C19.5485 2.25 21.825 4.605 21.825 7.5V16.5Z" fill="white"/>
      <path d="M12.4 6C9.19693 6 6.59998 8.6865 6.59998 12C6.59998 15.3135 9.19693 18 12.4 18C15.603 18 18.2 15.3135 18.2 12C18.2 8.6865 15.603 6 12.4 6ZM12.4 15.75C10.4019 15.75 8.77498 14.067 8.77498 12C8.77498 9.9315 10.4019 8.25 12.4 8.25C14.3981 8.25 16.025 9.9315 16.025 12C16.025 14.067 14.3981 15.75 12.4 15.75Z" fill="white"/>
      <path d="M18.635 6.34949C19.0619 6.34949 19.4079 5.99154 19.4079 5.54999C19.4079 5.10844 19.0619 4.75049 18.635 4.75049C18.2082 4.75049 17.8622 5.10844 17.8622 5.54999C17.8622 5.99154 18.2082 6.34949 18.635 6.34949Z" fill="white"/>
    </g>
    <defs>
      <clipPath id="clip0">
        <rect width="23.2" height="24" fill="white" transform="translate(0.799988)"/>
      </clipPath>
    </defs>
  </symbol>
  <symbol id="apple" xmlns="http://www.w3.org/2000/svg" viewBox="0 0 512 512" style="enable-background:new 0 0 512 512;" xml:space="preserve">
  	<path  d="M185.255,512c-76.201-0.439-139.233-155.991-139.233-235.21c0-129.404,97.075-157.734,134.487-157.734   c16.86,0,34.863,6.621,50.742,12.48c11.104,4.087,22.588,8.306,28.975,8.306c3.823,0,12.832-3.589,20.786-6.738   c16.963-6.753,38.071-15.146,62.651-15.146c0.044,0,0.103,0,0.146,0c18.354,0,74.004,4.028,107.461,54.272l7.837,11.777   l-11.279,8.511c-16.113,12.158-45.513,34.336-45.513,78.267c0,52.031,33.296,72.041,49.292,81.665   c7.061,4.248,14.37,8.628,14.37,18.208c0,6.255-49.922,140.566-122.417,140.566c-17.739,0-30.278-5.332-41.338-10.034   c-11.191-4.761-20.845-8.862-36.797-8.862c-8.086,0-18.311,3.823-29.136,7.881C221.496,505.73,204.752,512,185.753,512H185.255z"/>
    <path  d="M351.343,0c1.888,68.076-46.797,115.304-95.425,112.342C247.905,58.015,304.54,0,351.343,0z"/>
  </symbol>
</svg>
