<svg width="68" height="72" viewBox="0 0 68 72" fill="none" xmlns="http://www.w3.org/2000/svg">
<g clip-path="url(#clip0)">
<path d="M35.418 51.2471C34.2543 51.2471 33.3089 52.0534 32.9452 53.1529C32.5816 54.2524 32.8725 55.0587 34.0361 55.0587C35.1998 55.0587 36.1452 54.2524 36.5089 53.0796C36.8725 52.0534 36.5816 51.2471 35.418 51.2471Z" fill="#08111F"/>
<path d="M51.2 51.2466H48.1455L47.7818 52.3461H50.5455L50.0364 53.8855H47.2727L46.8364 54.985H49.9636L49.4545 56.5243H44.5818L46.9091 49.7073H51.7091L51.2 51.2466ZM44 56.5243H42.1818L41.3818 54.3253H40.4364L39.7091 56.5243H37.9636L40.2182 49.7073H42.9818C44.2909 49.7073 45.6 50.2937 44.9455 52.1262C44.5818 53.2258 43.9273 53.8122 43.0545 54.1054L44 56.5243ZM33.6 56.6709C31.2727 56.6709 30.5455 54.985 31.2 53.0059C31.7818 51.1733 33.5273 49.5607 35.8545 49.5607C38.1091 49.5607 38.9091 51.2466 38.2545 53.2258C37.6727 55.0583 35.9273 56.6709 33.6 56.6709ZM28 56.5243H26.2545L28 51.3199H26.1091L26.6909 49.7073H32.2182L31.6364 51.3199H29.7455L28 56.5243ZM25.3818 51.7597C24.8727 51.3199 24.2182 51.1 23.5636 51.1C22.9091 51.1733 22.5455 51.3199 22.4727 51.6131C22.2545 52.4928 25.7455 52.3461 24.8727 54.6918C24.2909 56.3044 23.0545 56.6709 21.6 56.6709C20.5818 56.6709 19.7818 56.451 19.2 56.0112L19.7818 54.3986C20.3636 54.985 21.0909 55.1316 21.8182 55.1316C22.5455 55.1316 22.9818 54.985 23.0545 54.6918C23.4182 53.519 19.9273 53.8855 20.7273 51.4665C21.1636 50.1471 22.5455 49.5607 23.7818 49.5607C24.6545 49.5607 25.4545 49.7806 25.8909 50.1471L25.3818 51.7597ZM54.6182 10.5643L44.2182 40.398H54.4L52.5818 45.749H36.5091L49.8909 7.41238C45.0909 4.92013 39.7091 3.4541 34.0364 3.4541C15.2 3.4541 0 18.8474 0 37.7592C0 46.482 3.27273 54.3986 8.58182 60.4826L20.8727 22.879H25.7455L30.8364 35.9266C31.0545 34.9004 31.4909 33.3611 31.8545 32.1883L34.9818 22.879H40.8727L33.2364 45.749H28.2909L23.2727 32.7747C23.0545 33.8742 22.6909 35.1203 22.3273 36.2198L13.0182 64.6608C18.8364 69.2788 26.1091 71.9909 34.0364 71.9909C52.8 71.9909 68 56.6709 68 37.7592C68 26.6173 62.7636 16.795 54.6182 10.5643Z" fill="#08111F"/>
<path d="M42.6183 51.2471H41.4546L40.9456 52.8597H42.0365C42.5456 52.8597 43.0546 52.5665 43.2001 52.0534C43.3456 51.467 43.1274 51.2471 42.6183 51.2471Z" fill="#08111F"/>
<path d="M59.418 1.25491H57.4543V6.75252H56.0725V1.25491H54.1089V0.00878906H59.418V1.25491ZM65.1634 3.60056L65.3089 1.69472H65.2362L64.6543 3.30735L63.418 5.8729H62.7634L61.5271 3.30735L61.018 1.69472H60.9453L61.1634 3.60056V6.75252H59.9998V0.00878906H61.2362L62.7634 3.16075L63.1998 4.18697L63.6362 3.08745L65.018 0.00878906H66.3998V6.75252H65.1634V3.60056Z" fill="#08111F"/>
</g>
<defs>
<clipPath id="clip0">
<rect width="68" height="72" fill="white"/>
</clipPath>
</defs>
</svg>
