<svg width="246" height="245" viewBox="0 0 246 245" fill="none" xmlns="http://www.w3.org/2000/svg">
<path d="M228.794 127.452C228.836 126.678 229.001 125.967 229.288 125.319C229.575 124.68 229.96 124.131 230.443 123.671C230.925 123.221 231.481 122.877 232.111 122.64C232.74 122.412 233.418 122.318 234.145 122.357C234.872 122.396 235.536 122.563 236.137 122.857C236.738 123.161 237.253 123.567 237.684 124.077C238.114 124.586 238.437 125.174 238.654 125.84C238.87 126.506 238.958 127.221 238.916 127.985C238.875 128.759 238.71 129.46 238.424 130.089C238.137 130.728 237.752 131.273 237.27 131.724C236.787 132.183 236.231 132.532 235.601 132.769C234.981 133.006 234.302 133.105 233.566 133.066C232.839 133.026 232.171 132.855 231.561 132.551C230.961 132.247 230.445 131.841 230.015 131.331C229.593 130.832 229.274 130.249 229.058 129.583C228.841 128.926 228.753 128.216 228.794 127.452ZM230.724 127.542C230.701 127.98 230.754 128.385 230.883 128.756C231.012 129.137 231.209 129.475 231.473 129.77C231.738 130.064 232.057 130.297 232.431 130.466C232.804 130.646 233.224 130.748 233.69 130.773C234.156 130.798 234.585 130.742 234.975 130.604C235.365 130.476 235.708 130.279 236.003 130.015C236.297 129.759 236.528 129.45 236.698 129.085C236.867 128.72 236.963 128.319 236.987 127.881C237.011 127.443 236.958 127.033 236.829 126.652C236.7 126.281 236.503 125.948 236.238 125.653C235.974 125.358 235.655 125.121 235.281 124.942C234.907 124.773 234.487 124.675 234.021 124.65C233.565 124.625 233.137 124.677 232.737 124.805C232.346 124.942 232.004 125.139 231.71 125.394C231.415 125.659 231.183 125.973 231.014 126.338C230.845 126.703 230.748 127.104 230.724 127.542Z" fill="#2A1F15"/>
<path d="M228.371 135.505L238.031 137.157L236.698 144.954L234.918 144.65L235.871 139.074L233.884 138.735L233.426 141.412C233.226 142.58 232.831 143.426 232.239 143.95C231.646 144.483 230.885 144.67 229.956 144.511C228.999 144.348 228.312 143.88 227.895 143.108C227.478 142.336 227.376 141.329 227.588 140.087L228.371 135.505ZM229.647 138.01L229.265 140.246C229.168 140.816 229.203 141.272 229.372 141.614C229.55 141.956 229.855 142.165 230.288 142.239C231.134 142.384 231.658 141.867 231.859 140.689L232.242 138.454L229.647 138.01Z" fill="#2A1F15"/>
<path d="M224.951 151.029C225.165 150.284 225.485 149.628 225.91 149.061C226.333 148.503 226.831 148.053 227.404 147.713C227.975 147.382 228.594 147.171 229.261 147.081C229.925 147 230.607 147.06 231.307 147.261C232.007 147.462 232.616 147.774 233.136 148.195C233.653 148.625 234.065 149.137 234.37 149.729C234.676 150.322 234.86 150.967 234.921 151.665C234.983 152.362 234.908 153.079 234.697 153.814C234.483 154.559 234.166 155.206 233.746 155.755C233.323 156.314 232.827 156.758 232.256 157.09C231.682 157.43 231.062 157.645 230.395 157.735C229.737 157.827 229.054 157.772 228.345 157.568C227.646 157.367 227.033 157.05 226.506 156.617C225.989 156.187 225.578 155.676 225.272 155.083C224.973 154.502 224.793 153.862 224.731 153.165C224.666 152.476 224.74 151.764 224.951 151.029ZM226.812 151.549C226.691 151.97 226.652 152.377 226.695 152.768C226.735 153.168 226.851 153.541 227.043 153.888C227.235 154.234 227.494 154.532 227.821 154.781C228.145 155.039 228.531 155.233 228.979 155.362C229.428 155.49 229.858 155.531 230.27 155.485C230.679 155.447 231.056 155.332 231.403 155.14C231.747 154.957 232.042 154.707 232.288 154.39C232.535 154.072 232.719 153.702 232.84 153.281C232.961 152.859 233.002 152.448 232.961 152.048C232.918 151.657 232.801 151.289 232.609 150.942C232.417 150.596 232.159 150.293 231.835 150.035C231.509 149.786 231.121 149.597 230.673 149.468C230.233 149.342 229.804 149.296 229.386 149.332C228.975 149.378 228.597 149.493 228.253 149.676C227.907 149.868 227.61 150.122 227.364 150.44C227.117 150.758 226.933 151.127 226.812 151.549Z" fill="#2A1F15"/>
<path d="M222.753 158.708L231.793 162.491L230.155 166.404C229.816 167.214 229.391 167.855 228.879 168.329C228.376 168.806 227.812 169.102 227.188 169.215C226.564 169.328 225.912 169.242 225.232 168.957C224.56 168.676 224.046 168.274 223.688 167.75C223.331 167.226 223.141 166.615 223.119 165.918C223.106 165.225 223.269 164.473 223.607 163.664L224.759 160.913L225.312 162.238L221.877 160.8L222.753 158.708ZM225.08 162.14L226.464 161.627L225.361 164.261C225.091 164.907 225.026 165.447 225.169 165.881C225.311 166.314 225.627 166.634 226.118 166.839C226.617 167.048 227.071 167.051 227.48 166.848C227.889 166.645 228.229 166.22 228.499 165.575L229.602 162.94L230.207 164.286L225.08 162.14Z" fill="#2A1F15"/>
<path d="M219.702 170.388C219.302 170.786 219.043 171.16 218.924 171.51C218.809 171.873 218.878 172.289 219.13 172.759L219.526 173.521L219.633 173.819L223.629 179.733L222.554 181.682L217.778 174.283C217.345 173.618 217.089 172.971 217.01 172.341C216.927 171.719 217.011 171.132 217.264 170.578C217.508 170.02 217.906 169.52 218.458 169.079L219.702 170.388ZM217.998 172.87L227.355 172.979L226.185 175.1L218.855 174.765L217.998 172.87Z" fill="#2A1F15"/>
<path d="M209.764 184.993L215.438 188.995L217.375 186.249L216.232 185.392C215.752 185.019 215.307 184.654 214.897 184.296C214.482 183.946 214.121 183.6 213.814 183.258C213.514 182.921 213.287 182.595 213.133 182.281C212.972 181.973 212.909 181.683 212.942 181.409L214.589 179.608C214.388 179.877 214.325 180.169 214.399 180.484C214.469 180.807 214.645 181.149 214.928 181.508C215.219 181.873 215.592 182.251 216.048 182.641C216.498 183.038 217.002 183.45 217.557 183.877L219.998 185.735L215.657 191.89L208.472 186.823L209.764 184.993ZM211.606 177.109L214.767 179.356L208.368 188.428L205.199 186.193L206.409 184.477L208.068 185.647L212.054 179.995L210.396 178.825L211.606 177.109Z" fill="#2A1F15"/>
<path d="M202.132 192.584C202.649 192.008 203.223 191.557 203.853 191.231C204.476 190.913 205.121 190.726 205.785 190.67C206.443 190.621 207.092 190.701 207.732 190.911C208.365 191.127 208.952 191.479 209.494 191.965C210.036 192.451 210.449 192.996 210.734 193.602C211.012 194.215 211.159 194.855 211.175 195.521C211.192 196.188 211.076 196.849 210.828 197.503C210.579 198.158 210.199 198.77 209.689 199.34C209.171 199.917 208.604 200.361 207.987 200.672C207.363 200.99 206.722 201.174 206.064 201.223C205.399 201.279 204.747 201.203 204.108 200.993C203.475 200.789 202.885 200.442 202.336 199.949C201.794 199.463 201.38 198.911 201.095 198.292C200.817 197.679 200.67 197.04 200.653 196.373C200.638 195.72 200.754 195.065 201.002 194.411C201.245 193.763 201.621 193.154 202.132 192.584ZM203.58 193.864C203.287 194.19 203.075 194.539 202.943 194.91C202.805 195.287 202.747 195.674 202.768 196.069C202.79 196.465 202.893 196.846 203.079 197.212C203.258 197.586 203.521 197.928 203.868 198.24C204.216 198.551 204.585 198.776 204.976 198.913C205.36 199.057 205.75 199.119 206.146 199.097C206.535 199.083 206.91 198.986 207.27 198.808C207.631 198.629 207.957 198.377 208.25 198.05C208.543 197.724 208.758 197.372 208.896 196.994C209.028 196.623 209.083 196.24 209.062 195.845C209.04 195.449 208.94 195.065 208.761 194.691C208.575 194.325 208.309 193.986 207.962 193.674C207.621 193.369 207.255 193.141 206.863 192.99C206.473 192.853 206.083 192.792 205.693 192.806C205.298 192.828 204.92 192.928 204.56 193.106C204.199 193.285 203.873 193.537 203.58 193.864Z" fill="#2A1F15"/>
<path d="M196.927 198.396L203.442 205.716L200.033 208.751C199.182 209.508 198.374 209.933 197.608 210.028C196.842 210.122 196.19 209.866 195.65 209.259C195.116 208.659 194.923 207.994 195.072 207.262C195.226 206.537 195.673 205.846 196.412 205.188L196.604 205.804C195.782 206.536 194.998 206.94 194.253 207.016C193.508 207.092 192.86 206.819 192.308 206.199C191.737 205.557 191.531 204.835 191.69 204.031C191.849 203.24 192.391 202.432 193.319 201.607L196.927 198.396ZM196.36 201.149L194.498 202.806C194.108 203.153 193.88 203.494 193.814 203.827C193.748 204.161 193.858 204.488 194.144 204.808C194.417 205.115 194.72 205.252 195.052 205.218C195.391 205.192 195.755 205.005 196.146 204.657L198.007 203L196.36 201.149ZM199.059 204.182L197.48 205.588C197.11 205.916 196.897 206.238 196.839 206.552C196.787 206.873 196.891 207.18 197.152 207.472C197.413 207.765 197.702 207.901 198.021 207.88C198.345 207.866 198.693 207.694 199.062 207.365L200.641 205.96L199.059 204.182Z" fill="#2A1F15"/>
<path d="M189.185 205.315L191.264 215.841L189.433 217.132L180.204 211.649L182.149 210.277L190.064 215.282L189.332 215.798L187.286 206.654L189.185 205.315ZM188.61 208.29L189.111 210.044L184.992 212.949L183.496 211.896L188.61 208.29Z" fill="#2A1F15"/>
<path d="M176.804 224.835L174.81 225.916L170.14 217.3L172.134 216.219L176.804 224.835ZM176.048 214.098L178.042 213.017L182.712 221.633L180.718 222.713L176.048 214.098ZM173.901 219.832L178.11 217.55L179.024 219.236L174.815 221.518L173.901 219.832Z" fill="#2A1F15"/>
<path d="M167.055 218.835L170.669 227.945L168.574 228.776L166.22 222.842L164.228 230.5L162.25 231.285L158.636 222.176L160.718 221.35L163.067 227.271L165.064 219.625L167.055 218.835Z" fill="#2A1F15"/>
<path d="M154.973 229.466L150.429 230.734L149.954 229.035L154.499 227.767L154.973 229.466ZM153.727 225.627L148.589 227.061L148.1 225.308L155.409 223.268L158.044 232.707L150.91 234.699L150.421 232.946L155.383 231.56L153.727 225.627Z" fill="#2A1F15"/>
<path d="M100.324 227.955C100.634 228.024 100.905 228.161 101.137 228.366C101.357 228.577 101.517 228.828 101.615 229.118C101.711 229.416 101.721 229.734 101.646 230.071C101.571 230.408 101.428 230.687 101.216 230.908C101.005 231.128 100.755 231.283 100.468 231.372C100.169 231.468 99.8647 231.482 99.5549 231.413C99.2451 231.344 98.98 231.204 98.7593 230.992C98.5276 230.787 98.3627 230.54 98.2646 230.251C98.1665 229.961 98.1549 229.648 98.23 229.311C98.305 228.974 98.4493 228.69 98.663 228.461C98.8747 228.24 99.1298 228.082 99.4285 227.985C99.716 227.896 100.015 227.886 100.324 227.955Z" fill="#979696"/>
<path d="M61.5418 208.317C62.1699 208.77 62.6789 209.293 63.0687 209.885C63.4509 210.472 63.705 211.092 63.8308 211.747C63.9491 212.397 63.9377 213.05 63.7966 213.708C63.648 214.361 63.3606 214.982 62.9345 215.572C62.5084 216.163 62.0092 216.631 61.4367 216.977C60.8567 217.319 60.2361 217.532 59.5749 217.619C58.9137 217.706 58.2445 217.66 57.5673 217.482C56.8901 217.304 56.2412 216.991 55.6206 216.543C54.9925 216.09 54.4911 215.572 54.1164 214.991C53.7342 214.404 53.4839 213.786 53.3657 213.137C53.2398 212.482 53.2474 211.826 53.3885 211.168C53.5241 210.518 53.8077 209.893 54.2393 209.296C54.6653 208.705 55.1711 208.236 55.7566 207.887C56.3366 207.546 56.9572 207.332 57.6184 207.246C58.2665 207.161 58.9292 207.208 59.6065 207.386C60.2761 207.558 60.9212 207.869 61.5418 208.317ZM60.4224 209.891C60.0667 209.634 59.6976 209.46 59.315 209.368C58.9249 209.271 58.5344 209.254 58.1435 209.317C57.7526 209.38 57.3846 209.523 57.0395 209.746C56.6869 209.963 56.374 210.261 56.1009 210.639C55.8278 211.018 55.6435 211.409 55.5482 211.812C55.4453 212.209 55.4255 212.604 55.4886 212.995C55.5442 213.38 55.6796 213.743 55.8949 214.082C56.1102 214.422 56.3957 214.72 56.7514 214.977C57.1071 215.233 57.48 215.411 57.8701 215.508C58.2526 215.6 58.6394 215.614 59.0303 215.551C59.4212 215.488 59.793 215.348 60.1456 215.13C60.4906 214.907 60.7997 214.607 61.0729 214.228C61.3405 213.858 61.5286 213.47 61.6369 213.064C61.7322 212.661 61.7521 212.267 61.6965 211.881C61.6334 211.491 61.4941 211.125 61.2788 210.786C61.0635 210.446 60.778 210.148 60.4224 209.891Z" fill="#2A1F15"/>
<path d="M55.2418 203.789L48.6472 211.039L42.7961 205.716L44.0114 204.38L48.1952 208.186L49.5518 206.695L47.5427 204.867C46.6659 204.069 46.1661 203.28 46.0433 202.5C45.9137 201.713 46.166 200.971 46.8003 200.274C47.4535 199.556 48.2177 199.229 49.0929 199.293C49.968 199.358 50.8716 199.814 51.8037 200.662L55.2418 203.789ZM52.444 203.515L50.7664 201.989C50.3383 201.6 49.935 201.384 49.5564 201.343C49.1716 201.308 48.8316 201.453 48.5364 201.777C47.9586 202.413 48.1115 203.132 48.9952 203.936L50.6729 205.462L52.444 203.515Z" fill="#2A1F15"/>
<path d="M43.8565 192.376C44.3673 192.958 44.7465 193.582 44.9939 194.246C45.2353 194.904 45.344 195.565 45.3202 196.232C45.2902 196.891 45.1329 197.526 44.8483 198.136C44.5575 198.738 44.1384 199.28 43.5911 199.76C43.0438 200.24 42.4524 200.584 41.8169 200.794C41.1754 200.997 40.5226 201.066 39.8588 201.003C39.1949 200.94 38.5529 200.746 37.9327 200.421C37.3124 200.096 36.75 199.645 36.2453 199.07C35.7345 198.488 35.3616 197.871 35.1264 197.221C34.885 196.564 34.7794 195.905 34.8093 195.246C34.8332 194.579 34.9874 193.941 35.272 193.332C35.5497 192.728 35.9657 192.183 36.52 191.697C37.0673 191.217 37.6653 190.873 38.3139 190.664C38.9555 190.461 39.6082 190.391 40.2721 190.455C40.9227 190.517 41.5582 190.711 42.1784 191.036C42.7925 191.354 43.3519 191.801 43.8565 192.376ZM42.4133 193.661C42.124 193.331 41.8032 193.078 41.451 192.903C41.0925 192.721 40.7157 192.617 40.3206 192.591C39.9255 192.565 39.5348 192.622 39.1487 192.762C38.7564 192.895 38.3848 193.116 38.0339 193.423C37.6831 193.731 37.4161 194.071 37.233 194.442C37.0438 194.807 36.9362 195.187 36.9104 195.582C36.8783 195.97 36.9292 196.354 37.0631 196.733C37.197 197.112 37.4086 197.466 37.6978 197.796C37.9871 198.126 38.3109 198.382 38.6694 198.564C39.0216 198.739 39.3954 198.84 39.7905 198.866C40.1856 198.892 40.5793 198.838 40.9717 198.705C41.3578 198.565 41.7263 198.341 42.0772 198.033C42.421 197.732 42.691 197.396 42.8873 197.025C43.0704 196.653 43.1779 196.273 43.21 195.885C43.2359 195.49 43.1818 195.103 43.048 194.724C42.9141 194.345 42.7025 193.99 42.4133 193.661Z" fill="#2A1F15"/>
<path d="M38.8009 186.659L30.7719 192.278L28.3396 188.803C27.8366 188.084 27.5216 187.382 27.3948 186.696C27.2603 186.015 27.312 185.381 27.5498 184.793C27.7877 184.205 28.2086 183.7 28.8127 183.277C29.4092 182.86 30.0243 182.64 30.6582 182.618C31.2921 182.596 31.9095 182.762 32.5104 183.116C33.1037 183.475 33.6519 184.014 34.155 184.733L35.8648 187.176L34.4495 186.936L37.5005 184.801L38.8009 186.659ZM34.6559 186.792L34.3507 188.236L32.7132 185.896C32.3118 185.322 31.8898 184.98 31.4471 184.868C31.0044 184.756 30.5651 184.853 30.1292 185.158C29.6857 185.468 29.4406 185.851 29.3939 186.305C29.3472 186.759 29.5246 187.273 29.9259 187.846L31.5635 190.186L30.1023 189.979L34.6559 186.792Z" fill="#2A1F15"/>
<path d="M30.5013 177.723C30.3808 177.172 30.2046 176.752 29.9726 176.464C29.728 176.172 29.3397 176.007 28.8078 175.968L27.953 175.893L27.6434 175.823L20.5084 176.023L19.4404 174.07L28.2471 174.009C29.0404 174.001 29.724 174.132 30.2978 174.403C30.8672 174.666 31.3179 175.053 31.6499 175.563C31.9901 176.068 32.1982 176.672 32.2741 177.376L30.5013 177.723ZM29.3219 174.953L24.2094 182.791L23.0474 180.666L27.2623 174.659L29.3219 174.953Z" fill="#2A1F15"/>
<path d="M23.5243 161.528L17.0989 164.161L18.373 167.27L19.7103 166.768C20.2823 166.564 20.8293 166.385 21.3515 166.231C21.8701 166.069 22.3561 165.951 22.8096 165.876C23.2544 165.805 23.6512 165.788 23.9999 165.827C24.345 165.857 24.6241 165.959 24.837 166.134L25.4705 168.492C25.3517 168.178 25.1393 167.967 24.8334 167.861C24.5239 167.745 24.1414 167.711 23.686 167.756C23.2219 167.805 22.7029 167.917 22.1289 168.092C21.5514 168.258 20.9335 168.46 20.2751 168.7L17.3957 169.759L14.5395 162.789L22.6749 159.455L23.5243 161.528ZM29.1809 167.32L25.5872 168.777L21.3773 158.504L24.9657 157.034L25.762 158.977L23.8836 159.747L26.5062 166.146L28.3846 165.377L29.1809 167.32Z" fill="#2A1F15"/>
<path d="M21.1901 150.909C21.3955 151.656 21.4646 152.382 21.3974 153.088C21.3277 153.784 21.1367 154.427 20.8245 155.017C20.5098 155.597 20.0914 156.099 19.5692 156.524C19.0446 156.939 18.4313 157.243 17.7294 157.436C17.0274 157.629 16.3448 157.682 15.6816 157.593C15.0159 157.495 14.3982 157.273 13.8285 156.927C13.2588 156.58 12.7659 156.125 12.3496 155.562C11.9334 154.999 11.6237 154.348 11.4208 153.61C11.2153 152.863 11.1487 152.146 11.2208 151.458C11.2905 150.762 11.4827 150.123 11.7975 149.543C12.1097 148.954 12.5269 148.447 13.049 148.022C13.5622 147.601 14.1742 147.292 14.8852 147.096C15.5871 146.903 16.2754 146.854 16.9501 146.949C17.6159 147.047 18.2336 147.269 18.8032 147.616C19.3614 147.956 19.8487 148.407 20.2649 148.971C20.6787 149.525 20.9871 150.171 21.1901 150.909ZM19.331 151.434C19.2146 151.012 19.0362 150.644 18.7957 150.333C18.5527 150.013 18.259 149.755 17.9148 149.559C17.5706 149.363 17.1942 149.244 16.7856 149.202C16.3746 149.15 15.9441 149.186 15.4941 149.31C15.0441 149.434 14.6557 149.623 14.3288 149.877C13.9995 150.123 13.737 150.418 13.5412 150.762C13.3431 151.097 13.2215 151.465 13.1765 151.864C13.1315 152.264 13.1672 152.675 13.2836 153.098C13.3999 153.521 13.5796 153.893 13.8226 154.213C14.0631 154.524 14.3555 154.778 14.6997 154.974C15.044 155.169 15.4216 155.293 15.8326 155.344C16.2412 155.387 16.6705 155.346 17.1204 155.222C17.5614 155.101 17.951 154.917 18.2894 154.669C18.6163 154.414 18.8788 154.119 19.077 153.784C19.2727 153.44 19.393 153.068 19.438 152.668C19.483 152.269 19.4473 151.857 19.331 151.434Z" fill="#2A1F15"/>
<path d="M19.1555 143.68L9.47735 145.221L8.75989 140.714C8.58089 139.589 8.65812 138.679 8.99156 137.983C9.32501 137.288 9.89268 136.876 10.6946 136.748C11.4873 136.622 12.1518 136.819 12.6881 137.338C13.2152 137.859 13.5565 138.608 13.7121 139.585L13.0896 139.415C12.9164 138.327 12.9988 137.449 13.3366 136.781C13.6745 136.113 14.2536 135.714 15.0739 135.583C15.9219 135.448 16.6415 135.665 17.2327 136.232C17.8133 136.792 18.2011 137.685 18.3962 138.91L19.1555 143.68ZM17.1421 141.719L16.7503 139.258C16.6682 138.741 16.5044 138.366 16.2591 138.131C16.0138 137.896 15.6791 137.812 15.2551 137.879C14.8495 137.944 14.5713 138.125 14.4202 138.423C14.26 138.723 14.221 139.131 14.3031 139.647L14.6949 142.108L17.1421 141.719ZM13.1325 142.357L12.8002 140.269C12.7225 139.781 12.567 139.427 12.3338 139.209C12.0914 138.993 11.7767 138.915 11.3895 138.977C11.0024 139.038 10.7319 139.209 10.5779 139.489C10.4148 139.77 10.3721 140.155 10.4498 140.643L10.7821 142.731L13.1325 142.357Z" fill="#2A1F15"/>
<path d="M17.4982 133.566L7.50648 129.656L7.40278 127.419L16.9894 122.588L17.0996 124.965L8.62278 128.946L8.58131 128.051L17.3906 131.244L17.4982 133.566ZM15.2993 131.481L13.5513 130.96L13.318 125.925L15.0096 125.23L15.2993 131.481Z" fill="#2A1F15"/>
<path d="M7.70604 112.205L7.87212 109.943L17.6458 110.661L17.4797 112.922L7.70604 112.205ZM17.1537 117.362L16.9876 119.624L7.21395 118.907L7.38003 116.645L17.1537 117.362ZM13.4848 112.461L13.1342 117.236L11.2214 117.095L11.572 112.32L13.4848 112.461Z" fill="#2A1F15"/>
<path d="M18.0297 107.04L8.41029 105.167L8.84106 102.955L15.1074 104.175L9.7347 98.3648L10.1414 96.276L19.7608 98.1489L19.3327 100.348L13.0801 99.1303L18.439 104.937L18.0297 107.04Z" fill="#2A1F15"/>
<path d="M15.4893 91.4635L16.8778 86.9545L18.5636 87.4736L17.1752 91.9827L15.4893 91.4635ZM19.3922 92.4896L20.9619 87.3918L22.7013 87.9274L20.4683 95.1794L11.1022 92.2953L13.2818 85.2173L15.0212 85.7529L13.505 90.6767L19.3922 92.4896Z" fill="#2A1F15"/>
<path d="M42.535 50.0453C42.3206 50.2793 42.0669 50.4456 41.774 50.5443C41.4804 50.6297 41.1837 50.6427 40.8839 50.5831C40.5771 50.5172 40.2964 50.3676 40.0418 50.1343C39.7872 49.901 39.6172 49.6376 39.5317 49.344C39.4463 49.0505 39.4368 48.7569 39.5032 48.4634C39.5691 48.1566 39.7092 47.8863 39.9236 47.6523C40.138 47.4184 40.392 47.2586 40.6855 47.1732C40.9785 47.0745 41.2749 47.055 41.5748 47.1145C41.8746 47.1741 42.1519 47.3206 42.4065 47.5539C42.6611 47.7872 42.8346 48.0538 42.9269 48.3536C43.0124 48.6472 43.0222 48.9473 42.9563 49.254C42.8898 49.5476 42.7494 49.8114 42.535 50.0453Z" fill="#979696"/>
<path d="M79.1384 25.9026C78.4319 26.2203 77.7248 26.4 77.017 26.4419C76.3178 26.48 75.6531 26.39 75.0229 26.1719C74.4013 25.95 73.8407 25.6136 73.3412 25.1627C72.8503 24.7081 72.4556 24.1488 72.157 23.4848C71.8585 22.8208 71.7021 22.1543 71.6879 21.4853C71.6821 20.8125 71.8068 20.168 72.0619 19.5519C72.3171 18.9358 72.6909 18.3788 73.1834 17.8811C73.676 17.3833 74.2713 16.9776 74.9693 16.6637C75.6758 16.3461 76.3744 16.1701 77.0651 16.1359C77.7644 16.0978 78.4248 16.1897 79.0465 16.4116C79.6767 16.6297 80.2415 16.9642 80.7409 17.415C81.2366 17.8574 81.6356 18.4148 81.9379 19.0873C82.2365 19.7512 82.3905 20.4239 82.4001 21.1052C82.4058 21.778 82.2811 22.4225 82.026 23.0387C81.7756 23.6424 81.4041 24.1932 80.9115 24.691C80.4275 25.1849 79.8365 25.5888 79.1384 25.9026ZM78.3334 24.1462C78.7335 23.9664 79.0689 23.7337 79.3397 23.4482C79.619 23.1589 79.8289 22.8292 79.9694 22.459C80.11 22.0888 80.1699 21.6986 80.1492 21.2883C80.137 20.8743 80.0352 20.4544 79.8438 20.0288C79.6525 19.6031 79.406 19.2484 79.1044 18.9644C78.8112 18.6766 78.4796 18.4625 78.1094 18.3219C77.7477 18.1775 77.366 18.1138 76.9643 18.1307C76.5625 18.1475 76.1616 18.2459 75.7615 18.4258C75.3614 18.6057 75.0218 18.8403 74.7425 19.1296C74.4717 19.415 74.2661 19.7429 74.1255 20.1131C73.985 20.4833 73.9208 20.8754 73.933 21.2895C73.9537 21.6997 74.0597 22.1177 74.2511 22.5433C74.4386 22.9604 74.6809 23.3171 74.9778 23.6134C75.2795 23.8973 75.6111 24.1115 75.9728 24.2559C76.343 24.3964 76.729 24.4583 77.1307 24.4414C77.5324 24.4245 77.9333 24.3261 78.3334 24.1462Z" fill="#2A1F15"/>
<path d="M86.0025 22.7522L83.0125 13.4195L90.5453 11.0062L91.0963 12.726L85.71 14.4517L86.3251 16.3716L88.9116 15.5429C90.0404 15.1813 90.9736 15.142 91.7112 15.4252C92.4576 15.7055 92.9746 16.2945 93.2622 17.1922C93.5584 18.1166 93.4602 18.9419 92.9676 19.6681C92.475 20.3944 91.6288 20.9497 90.4288 21.3341L86.0025 22.7522ZM87.6364 20.4646L89.7963 19.7727C90.3474 19.5961 90.7354 19.3542 90.9604 19.0469C91.1825 18.7307 91.2266 18.3638 91.0928 17.946C90.8308 17.1283 90.131 16.9017 88.9933 17.2662L86.8334 17.9581L87.6364 20.4646Z" fill="#2A1F15"/>
<path d="M101.651 18.5467C100.891 18.6976 100.162 18.7141 99.463 18.596C98.7731 18.4762 98.1455 18.2393 97.5804 17.8853C97.0244 17.5295 96.5536 17.0758 96.1681 16.5244C95.7918 15.9711 95.5327 15.3374 95.3908 14.6234C95.2489 13.9094 95.2462 13.2248 95.3825 12.5697C95.5279 11.9127 95.7941 11.3127 96.181 10.7696C96.5679 10.2264 97.0572 9.7676 97.6489 9.39313C98.2406 9.01865 98.9118 8.75684 99.6625 8.60771C100.422 8.45676 101.143 8.44212 101.823 8.5638C102.513 8.68366 103.136 8.9215 103.692 9.27731C104.257 9.63131 104.733 10.084 105.118 10.6355C105.502 11.1778 105.766 11.8105 105.909 12.5337C106.051 13.2478 106.05 13.9378 105.907 14.6039C105.761 15.2609 105.495 15.8609 105.108 16.404C104.728 16.9362 104.243 17.3895 103.651 17.764C103.069 18.1367 102.402 18.3976 101.651 18.5467ZM101.261 16.6544C101.691 16.569 102.07 16.4175 102.398 16.2001C102.735 15.9809 103.014 15.7067 103.234 15.3775C103.454 15.0483 103.6 14.6815 103.672 14.2771C103.753 13.8708 103.748 13.4388 103.657 12.9811C103.566 12.5234 103.406 12.1223 103.176 11.7779C102.955 11.4317 102.679 11.1485 102.35 10.9285C102.03 10.7066 101.673 10.5588 101.277 10.485C100.882 10.4113 100.469 10.4172 100.039 10.5027C99.6087 10.5882 99.225 10.7405 98.8879 10.9597C98.56 11.1771 98.286 11.4504 98.0659 11.7796C97.8459 12.1088 97.6953 12.4765 97.6142 12.8828C97.5423 13.2872 97.5519 13.7183 97.6428 14.176C97.7319 14.6246 97.8879 15.0265 98.1108 15.3819C98.3409 15.7263 98.6161 16.0095 98.9361 16.2314C99.2653 16.4515 99.6275 16.5984 100.023 16.6721C100.418 16.7458 100.831 16.7399 101.261 16.6544Z" fill="#2A1F15"/>
<path d="M108.946 17.0233L108.115 7.25855L112.342 6.89905C113.216 6.8247 113.981 6.90478 114.638 7.13929C115.295 7.36449 115.817 7.7275 116.206 8.22832C116.596 8.72914 116.821 9.34689 116.884 10.0816C116.946 10.807 116.827 11.4493 116.528 12.0087C116.229 12.568 115.775 13.0187 115.168 13.3608C114.559 13.6936 113.817 13.8972 112.943 13.9715L109.972 14.2242L110.89 13.1205L111.205 16.8311L108.946 17.0233ZM110.911 13.3716L109.815 12.3829L112.661 12.1408C113.359 12.0815 113.867 11.8884 114.186 11.5616C114.504 11.2347 114.641 10.8062 114.596 10.2762C114.55 9.73677 114.343 9.33291 113.973 9.06459C113.604 8.79626 113.07 8.69176 112.373 8.75108L109.527 8.99312L110.44 7.83358L110.911 13.3716Z" fill="#2A1F15"/>
<path d="M121.505 14.2782C122.042 14.4514 122.493 14.5103 122.859 14.4548C123.234 14.3903 123.572 14.138 123.874 13.6979L124.369 12.9971L124.585 12.7648L128.004 6.49889L130.229 6.55902L125.849 14.1995C125.457 14.8891 124.999 15.4136 124.476 15.773C123.962 16.1326 123.401 16.3275 122.793 16.3577C122.185 16.3973 121.559 16.273 120.913 15.9848L121.505 14.2782ZM124.492 14.653L120.292 6.2905L122.714 6.35593L125.783 13.0213L124.492 14.653Z" fill="#2A1F15"/>
<path d="M139.094 16.3841L140.054 9.50679L136.726 9.04233L136.487 10.4508C136.375 11.0478 136.255 11.6105 136.124 12.1389C136.003 12.6686 135.861 13.1481 135.697 13.5777C135.535 13.9979 135.349 14.349 135.14 14.6308C134.941 14.9139 134.712 15.1034 134.453 15.1992L132.097 14.5594C132.428 14.6151 132.717 14.5376 132.963 14.3269C133.219 14.1176 133.442 13.8047 133.632 13.3883C133.823 12.9627 133.988 12.4579 134.126 11.8741C134.273 11.2915 134.409 10.6555 134.533 9.96609L135.068 6.945L142.528 7.98618L141.312 16.6938L139.094 16.3841ZM131.242 18.3557L131.792 14.5168L142.787 16.0515L142.251 19.8923L140.171 19.602L140.452 17.5915L133.602 16.6354L133.322 18.646L131.242 18.3557Z" fill="#2A1F15"/>
<path d="M149.447 19.6827C148.698 19.4858 148.035 19.1812 147.458 18.769C146.89 18.3592 146.43 17.8714 146.077 17.3058C145.733 16.7424 145.508 16.1285 145.403 15.4639C145.307 14.8017 145.351 14.1186 145.536 13.4145C145.721 12.7104 146.019 12.0937 146.428 11.5644C146.846 11.0374 147.348 10.6145 147.934 10.2956C148.52 9.97666 149.16 9.77839 149.856 9.70076C150.552 9.62313 151.27 9.68161 152.011 9.87617C152.76 10.0731 153.414 10.3753 153.973 10.7827C154.54 11.1926 154.996 11.6791 155.34 12.2425C155.694 12.8081 155.923 13.4233 156.028 14.0878C156.135 14.7434 156.095 15.4277 155.908 16.1408C155.723 16.8449 155.42 17.4649 154.999 18.0009C154.581 18.5279 154.079 18.9508 153.493 19.2697C152.919 19.582 152.284 19.7769 151.588 19.8546C150.901 19.9346 150.187 19.8773 149.447 19.6827ZM149.925 17.8106C150.349 17.9221 150.756 17.952 151.146 17.9001C151.545 17.8506 151.916 17.726 152.258 17.5264C152.6 17.3268 152.892 17.0609 153.133 16.7288C153.384 16.399 153.569 16.0085 153.687 15.5571C153.806 15.1058 153.837 14.6749 153.781 14.2645C153.734 13.8564 153.611 13.4814 153.411 13.1394C153.22 12.7998 152.964 12.5103 152.64 12.271C152.317 12.0316 151.944 11.8562 151.519 11.7447C151.095 11.6332 150.684 11.6022 150.285 11.6517C149.895 11.7036 149.529 11.8293 149.187 12.0289C148.845 12.2286 148.548 12.4933 148.297 12.823C148.056 13.1551 147.876 13.5469 147.757 13.9982C147.641 14.4405 147.605 14.8702 147.65 15.2873C147.706 15.6977 147.829 16.0727 148.02 16.4124C148.219 16.7543 148.481 17.045 148.804 17.2843C149.127 17.5237 149.501 17.6991 149.925 17.8106Z" fill="#2A1F15"/>
<path d="M156.89 21.593L160.436 12.457L164.691 14.1083C165.752 14.5203 166.5 15.0456 166.933 15.6842C167.366 16.3227 167.435 17.0205 167.141 17.7775C166.851 18.5258 166.346 19.0007 165.627 19.2022C164.912 19.395 164.093 19.3125 163.17 18.9545L163.631 18.5026C164.658 18.9011 165.375 19.4145 165.782 20.043C166.188 20.6714 166.242 21.3729 165.941 22.1472C165.63 22.9477 165.081 23.4604 164.293 23.6851C163.517 23.9046 162.55 23.7897 161.393 23.3406L156.89 21.593ZM159.599 20.8424L161.923 21.744C162.41 21.9331 162.817 21.9809 163.143 21.8874C163.47 21.794 163.711 21.5471 163.866 21.1468C164.015 20.764 163.999 20.4322 163.817 20.1516C163.639 19.8622 163.306 19.623 162.819 19.4339L160.496 18.5323L159.599 20.8424ZM161.068 17.0574L163.039 17.8223C163.5 18.0013 163.884 18.045 164.19 17.9535C164.499 17.8532 164.724 17.6204 164.866 17.2549C165.008 16.8895 164.997 16.5698 164.833 16.2959C164.672 16.0133 164.362 15.7825 163.9 15.6036L161.93 14.8387L161.068 17.0574Z" fill="#2A1F15"/>
<path d="M166.284 25.153L174.697 18.4936L176.682 19.5318L176.022 30.2466L173.914 29.1435L174.748 19.8158L175.542 20.2311L168.343 26.2301L166.284 25.153ZM169.193 24.3044L170.524 23.0575L174.99 25.3935L174.738 27.2048L169.193 24.3044Z" fill="#2A1F15"/>
<path d="M189.419 27.269L191.292 28.549L185.761 36.6392L183.889 35.3593L189.419 27.269ZM180.213 32.8468L178.341 31.5669L183.872 23.4766L185.744 24.7565L180.213 32.8468ZM186.295 32.1371L182.342 29.435L183.425 27.8516L187.377 30.5537L186.295 32.1371Z" fill="#2A1F15"/>
<path d="M188.568 38.6709L195.003 31.2796L196.703 32.7596L192.511 37.5745L200.229 35.8301L201.834 37.2274L195.399 44.6186L193.71 43.1478L197.893 38.3435L190.183 40.0774L188.568 38.6709Z" fill="#2A1F15"/>
<path d="M203.802 44.7436L207.002 48.2104L205.706 49.4069L202.506 45.9401L203.802 44.7436ZM200.953 47.6019L204.571 51.5213L203.234 52.7558L198.087 47.1802L205.288 40.533L210.311 45.9749L208.974 47.2094L205.48 43.4237L200.953 47.6019Z" fill="#2A1F15"/>
<path d="M224.275 83.9523C224.165 83.6543 224.134 83.3526 224.181 83.0471C224.24 82.7471 224.365 82.4776 224.556 82.2387C224.755 81.9966 225.017 81.816 225.342 81.6971C225.666 81.5783 225.978 81.5483 226.278 81.6073C226.578 81.6663 226.843 81.7928 227.073 81.9867C227.315 82.1862 227.491 82.4349 227.6 82.7329C227.709 83.0308 227.735 83.3298 227.676 83.6298C227.629 83.9353 227.51 84.2075 227.319 84.4465C227.128 84.6854 226.871 84.8643 226.546 84.9832C226.222 85.1021 225.906 85.1336 225.597 85.0778C225.297 85.0188 225.026 84.8896 224.784 84.6901C224.554 84.4962 224.384 84.2502 224.275 83.9523Z" fill="#979696"/>
</svg>
